 <svg version="1.1" xmlns="http://www.w3.org/2000/svg" width="700.000000pt" height="688.000000pt" viewBox="0 0 700.000000 688.000000" preserveAspectRatio="xMidYMid meet">
<metadata>
Created by potrace 1.12, written by Peter Selinger 2001-2015
</metadata>
<g transform="translate(0.000000,688.000000) scale(0.100000,-0.100000)" fill="#000000" stroke="none">
<path d="M3443 6795 c-81 -56 -104 -80 -97 -98 6 -16 14 -18 53 -13 45 6 70 7
120 5 13 -1 33 8 44 20 l21 21 -31 0 c-27 0 -33 5 -43 34 -16 51 -30 57 -67
31z m7 -75 c0 -5 -7 -10 -16 -10 -8 0 -12 5 -9 10 3 6 10 10 16 10 5 0 9 -4 9
-10z"></path>
<path d="M3584 6678 c-22 -4 -127 -8 -234 -9 -107 0 -217 -4 -245 -9 -27 -5
-104 -16 -170 -25 -111 -15 -167 -27 -270 -60 -22 -7 -80 -23 -130 -35 -49
-13 -132 -43 -183 -67 -52 -24 -108 -47 -125 -50 -18 -3 -39 -11 -47 -18 -8
-7 -26 -16 -40 -20 -24 -7 -148 -65 -180 -85 -8 -5 -42 -22 -75 -38 -131 -64
-361 -210 -435 -276 -20 -18 -62 -49 -94 -71 -32 -21 -60 -44 -63 -52 -3 -7
-10 -13 -16 -13 -6 0 -22 -11 -36 -24 -14 -13 -51 -46 -81 -73 -89 -78 -308
-307 -359 -375 -25 -35 -67 -88 -91 -119 -116 -146 -275 -438 -334 -612 -37
-108 -77 -249 -73 -253 4 -4 14 20 138 306 34 80 70 156 79 170 9 14 33 57 53
97 124 249 454 635 777 910 88 75 252 190 350 245 271 153 250 141 415 219
414 193 806 285 1303 305 269 11 621 -36 977 -131 55 -14 116 -30 135 -35 130
-33 651 -275 795 -369 57 -37 173 -129 215 -171 20 -19 55 -48 79 -64 23 -17
48 -37 54 -45 7 -9 50 -48 97 -88 79 -67 273 -260 330 -330 86 -104 214 -302
293 -453 21 -41 54 -103 73 -137 19 -34 34 -68 34 -76 0 -9 4 -17 8 -19 4 -1
20 -32 36 -68 15 -36 36 -83 46 -106 32 -71 140 -474 165 -614 14 -80 26 -198
29 -290 18 -455 18 -439 -24 -744 -18 -127 -53 -257 -130 -481 -83 -241 -133
-354 -239 -540 -15 -27 -60 -109 -98 -181 -85 -156 -114 -201 -210 -321 -155
-195 -485 -503 -653 -610 -115 -73 -445 -249 -515 -274 -74 -27 -177 -68 -205
-83 -21 -11 -179 -66 -350 -121 -150 -48 -449 -88 -604 -81 -179 9 -186 10
-186 17 0 14 46 18 139 12 92 -5 133 -2 391 32 144 18 199 29 330 67 111 32
383 136 488 187 34 17 64 31 66 31 16 0 343 200 412 252 28 21 59 38 68 38 10
0 32 15 50 33 18 17 70 62 117 98 83 64 316 306 414 429 28 34 66 81 86 104
46 54 70 88 109 161 18 33 47 83 65 110 70 108 160 299 226 480 39 105 77 195
85 201 8 6 14 27 14 47 0 20 12 69 26 109 49 135 64 211 100 513 15 120 14
347 -1 540 -12 152 -73 433 -137 635 -21 69 -28 106 -24 136 5 36 2 42 -18 52
-16 7 -31 32 -50 89 -16 43 -43 111 -62 151 -19 40 -34 74 -34 76 0 2 -26 50
-58 108 -32 57 -61 111 -64 120 -4 9 -37 60 -73 114 -174 254 -466 556 -708
732 -150 110 -170 127 -183 159 -12 28 -19 33 -49 33 -18 0 -36 4 -39 9 -7 10
-218 126 -291 160 -27 12 -62 29 -76 37 -96 51 -449 174 -629 219 -185 46
-311 64 -595 85 -110 8 -154 15 -167 26 -16 15 -19 14 -44 -5 -20 -16 -41 -21
-84 -21 -215 0 -586 -56 -731 -111 -55 -20 -41 -20 56 2 66 15 361 58 489 71
102 10 185 13 294 10 12 -1 52 0 90 0 109 2 439 -27 475 -42 23 -10 123 -33
245 -56 96 -18 376 -113 520 -175 132 -58 419 -204 445 -227 9 -8 17 -23 17
-34 0 -11 7 -18 19 -18 18 0 91 -49 136 -91 11 -11 68 -57 126 -103 58 -46
126 -104 151 -128 25 -23 57 -52 69 -64 29 -24 228 -239 290 -311 58 -67 109
-138 109 -149 0 -5 13 -25 29 -45 78 -94 311 -544 311 -600 0 -11 -5 -29 -10
-40 -9 -16 -7 -21 14 -30 13 -6 27 -19 29 -28 3 -9 13 -36 22 -61 26 -69 94
-344 111 -445 44 -265 57 -567 33 -785 -5 -52 -10 -104 -10 -114 0 -11 -4 -26
-9 -35 -4 -9 -16 -70 -24 -136 -19 -137 -62 -282 -87 -296 -13 -7 -16 -17 -12
-42 3 -21 -4 -55 -22 -102 -15 -39 -34 -88 -42 -110 -8 -22 -23 -59 -34 -83
-10 -23 -19 -48 -19 -55 0 -6 -15 -37 -33 -67 -19 -31 -60 -114 -92 -185 -63
-141 -76 -165 -118 -216 -15 -19 -77 -98 -136 -177 -202 -267 -549 -602 -608
-587 -18 4 -25 0 -32 -18 -22 -56 -242 -195 -501 -316 -297 -139 -516 -216
-740 -261 -193 -38 -205 -40 -275 -40 -33 -1 -91 -5 -130 -10 -179 -22 -192
-22 -213 0 -18 19 -21 19 -55 5 -42 -17 -93 -19 -220 -6 -51 6 -146 15 -212
21 -66 6 -157 18 -202 26 -45 8 -137 23 -205 33 -134 21 -228 49 -228 69 0 6
-11 12 -25 12 -29 0 -31 7 -10 30 14 15 13 19 -4 34 -18 17 -20 17 -41 -4 -12
-12 -19 -28 -16 -36 7 -18 -15 -18 -40 1 -10 8 -26 15 -33 15 -8 0 -101 43
-207 95 -105 52 -195 95 -199 95 -3 0 -49 24 -101 53 -85 47 -95 56 -105 90
-5 20 -15 38 -22 38 -7 1 -21 2 -32 3 -22 1 -112 60 -182 119 -24 20 -48 37
-52 37 -11 0 -201 187 -201 198 0 5 -10 14 -23 21 -12 6 -33 27 -46 46 -13 19
-29 35 -36 35 -8 0 -22 15 -34 33 -11 18 -32 44 -46 57 -38 35 -113 135 -141
187 -13 25 -37 60 -54 79 -16 19 -30 39 -30 45 0 6 -11 25 -24 42 -13 18 -37
59 -54 93 -17 33 -38 66 -47 74 -18 15 -55 91 -55 114 0 9 -5 16 -10 16 -6 0
-19 20 -30 44 -10 24 -35 78 -56 120 -34 71 -36 78 -20 89 20 15 12 44 -14 52
-26 8 -45 42 -66 114 -14 50 -15 67 -6 82 10 15 9 19 -3 19 -8 0 -15 1 -15 3
0 2 -18 76 -40 164 -22 89 -37 169 -34 177 3 9 2 22 -4 29 -10 12 -14 44 -27
237 -4 47 -10 119 -14 160 -12 123 -4 277 25 525 29 247 63 366 121 427 23 24
25 31 15 53 -10 22 -8 35 10 78 12 29 28 61 35 72 7 11 13 28 13 38 0 29 40
115 57 121 8 3 11 11 8 17 -11 17 46 144 92 205 13 17 23 36 23 43 0 6 12 30
27 54 15 23 34 56 43 72 108 200 344 495 396 495 11 0 85 -112 79 -118 -3 -3
-11 1 -19 7 -8 7 -25 11 -38 9 -19 -2 -24 -10 -26 -41 -3 -37 -4 -38 -40 -35
-32 3 -37 0 -40 -19 -3 -17 -10 -23 -28 -23 -22 0 -24 -4 -24 -44 0 -25 5 -48
10 -51 6 -3 10 3 10 14 0 11 4 22 9 25 11 7 111 -100 111 -118 0 -7 -15 -27
-34 -45 -37 -36 -53 -78 -37 -94 6 -6 11 -7 11 -1 0 5 20 31 45 57 53 57 63
87 41 119 -10 14 -16 43 -16 80 l0 57 28 -16 c44 -25 66 -12 58 36 l-6 39 40
-5 40 -6 0 36 c0 20 -5 39 -10 42 -5 3 -10 1 -10 -6 0 -19 -22 4 -74 81 l-48
70 38 43 c41 46 173 176 195 192 114 85 128 93 147 88 15 -4 24 2 35 24 11 19
59 53 159 111 332 194 493 273 713 351 44 16 91 34 105 40 22 10 21 11 -15 6
-22 -3 -56 -12 -75 -19 -19 -8 -73 -29 -120 -46 -188 -72 -512 -232 -621 -307
-94 -65 -150 -93 -173 -87 -17 4 -25 0 -33 -18 -6 -13 -50 -57 -99 -98 -79
-67 -300 -283 -410 -401 -152 -164 -332 -432 -452 -674 -36 -72 -142 -336
-142 -353 0 -22 -39 -89 -54 -95 -12 -5 -13 -12 -7 -29 6 -16 3 -38 -11 -73
-37 -94 -63 -234 -110 -600 -13 -107 -2 -487 20 -650 25 -181 79 -411 139
-588 11 -32 18 -68 16 -81 -3 -16 2 -27 21 -39 15 -11 30 -33 37 -59 20 -76
62 -171 128 -288 35 -63 75 -135 89 -160 14 -25 39 -66 56 -92 17 -25 49 -75
71 -110 49 -78 141 -194 284 -357 99 -114 300 -276 464 -375 16 -10 33 -31 39
-47 7 -20 17 -29 31 -29 12 0 56 -23 97 -51 120 -81 271 -153 604 -290 232
-96 566 -158 979 -182 125 -8 230 -17 234 -21 3 -3 3 -9 -1 -13 -13 -13 -305
-5 -426 12 -63 8 -144 17 -180 20 -200 17 -536 100 -652 161 -14 8 -31 14 -37
14 -6 0 -48 17 -94 39 -45 21 -93 42 -107 46 -22 7 -191 92 -251 127 -47 27
-269 182 -306 213 -6 6 -35 26 -63 45 -243 165 -494 428 -645 673 -10 18 -61
97 -113 175 -161 248 -288 543 -366 852 -14 58 -39 155 -55 217 -16 61 -32
142 -35 180 -14 152 -17 195 -25 348 -9 161 -1 371 20 515 10 76 67 323 94
416 8 28 15 64 15 80 -1 22 -9 8 -35 -56 -19 -47 -34 -93 -35 -102 0 -20 -26
-126 -45 -188 -33 -105 -53 -319 -56 -615 -2 -176 23 -480 47 -565 8 -30 24
-89 35 -130 27 -104 88 -290 104 -314 7 -12 36 -95 65 -186 28 -91 60 -183 71
-206 10 -23 19 -48 19 -56 0 -9 7 -21 15 -28 8 -7 12 -16 9 -21 -3 -5 -1 -9 4
-9 6 0 22 -20 37 -45 14 -25 47 -71 72 -101 24 -31 50 -70 55 -87 6 -18 28
-57 48 -87 20 -30 43 -70 51 -88 8 -17 17 -32 21 -32 5 0 8 -7 8 -15 0 -8 16
-27 35 -42 19 -15 35 -31 35 -35 0 -3 14 -21 30 -40 49 -54 70 -79 70 -82 0
-2 39 -41 87 -87 48 -46 106 -103 129 -126 36 -38 247 -193 261 -193 3 0 47
-25 98 -56 95 -56 232 -161 248 -189 4 -8 16 -15 26 -15 10 0 28 -12 42 -26
23 -25 138 -84 162 -84 7 0 48 -18 91 -40 43 -22 82 -38 87 -35 5 3 42 -8 83
-24 41 -16 92 -33 113 -37 21 -4 52 -14 68 -23 17 -8 55 -21 85 -27 30 -7 74
-19 97 -28 23 -8 75 -18 115 -21 134 -9 203 -17 248 -27 50 -11 216 -19 361
-19 75 1 100 -3 109 -14 8 -9 21 -13 31 -10 12 4 30 -2 45 -14 35 -28 45 -26
78 8 l27 28 172 6 c95 3 190 11 212 17 22 5 72 15 110 20 62 9 165 35 290 73
22 6 44 11 49 9 6 -2 28 3 50 12 23 8 57 18 76 21 19 4 45 13 57 21 12 7 40
16 63 20 22 4 43 11 46 15 3 5 20 9 37 9 18 0 46 9 62 20 17 11 53 27 82 35
29 8 55 20 58 25 3 6 19 10 35 10 15 0 30 7 34 15 3 8 14 15 24 15 10 0 29 11
42 25 13 14 29 25 36 25 7 0 40 19 74 43 34 23 76 51 93 62 18 11 50 37 72 57
21 20 40 36 42 34 1 -1 -2 -19 -8 -41 -8 -27 -8 -45 0 -62 16 -34 28 -28 35
17 3 22 10 40 16 40 5 0 30 -11 57 -25 45 -25 48 -25 60 -8 7 10 19 25 28 35
9 9 19 34 22 55 4 34 1 43 -26 70 -29 29 -30 32 -12 38 11 3 39 21 63 40 23
19 50 35 59 35 31 0 359 338 359 370 0 7 15 31 33 54 19 23 46 64 62 91 15 28
45 68 66 90 20 22 40 51 44 65 4 14 14 33 22 42 15 17 24 32 76 127 15 28 35
60 45 71 30 36 146 328 172 435 19 80 19 80 32 67 9 -9 15 -5 25 18 l12 31 37
-16 c20 -8 39 -14 41 -11 2 2 8 27 12 57 9 57 6 64 -41 88 -16 8 -28 17 -28
21 0 4 12 35 27 71 14 35 30 87 35 114 5 28 13 73 17 100 5 28 13 75 19 105
18 89 21 131 27 415 5 222 4 291 -10 390 -9 66 -18 138 -20 160 -6 68 -35 196
-66 289 -16 49 -29 97 -29 107 0 26 -26 81 -54 114 -14 16 -23 31 -21 33 2 2
20 -2 39 -9 29 -11 38 -11 48 0 11 10 10 15 -4 25 -27 20 -22 42 12 56 37 15
38 33 4 57 -14 10 -33 26 -42 36 -22 23 -53 22 -85 -3 l-25 -20 -6 33 c-3 18
-15 50 -26 71 -10 21 -22 52 -26 69 -3 18 -21 59 -38 92 -18 33 -40 80 -51
105 -54 133 -114 240 -149 269 -9 7 -16 18 -16 23 0 30 -255 336 -367 441 -21
20 -67 63 -103 97 -36 33 -78 68 -95 77 -16 8 -41 26 -55 38 -14 13 -46 38
-72 57 -26 18 -85 60 -130 93 -45 33 -96 69 -114 80 -104 65 -171 107 -184
115 -53 34 -244 130 -290 146 -30 10 -61 23 -69 28 -16 12 -75 35 -111 43 -14
4 -34 12 -45 18 -18 12 -48 21 -235 74 -130 37 -208 54 -330 71 -69 10 -181
27 -250 39 -151 24 -205 28 -256 19z m-2408 -1326 c-12 -11 -36 9 -36 30 l1
23 20 -24 c11 -13 17 -26 15 -29z m-88 -71 c3 -16 -1 -22 -10 -19 -7 3 -15 15
-16 27 -3 16 1 22 10 19 7 -3 15 -15 16 -27z m5568 -761 c-5 -41 -14 -48 -24
-19 -6 15 -5 28 2 36 18 21 26 15 22 -17z m-1096 -3714 c0 -20 -17 -36 -38
-36 -24 0 -25 0 -7 20 16 17 45 28 45 16z"></path>
<path d="M3350 6427 c-47 -24 -124 -69 -171 -99 -47 -31 -109 -68 -138 -83
-29 -14 -133 -79 -231 -143 -285 -187 -326 -214 -433 -278 -56 -34 -119 -76
-139 -94 -21 -18 -44 -30 -50 -27 -7 2 -26 40 -42 83 -15 44 -35 93 -43 111
-14 29 -13 34 2 50 17 17 17 36 -1 118 -7 29 -6 30 13 13 25 -23 33 -23 33 2
0 11 6 20 14 20 12 0 22 -18 40 -73 7 -23 30 -17 34 9 6 30 18 37 41 24 19
-10 23 -8 32 19 11 31 32 40 44 21 9 -14 35 7 35 27 0 8 -11 24 -25 35 -31 24
-51 61 -60 111 -8 40 -16 45 -35 22 -8 -10 -10 -29 -6 -56 5 -32 2 -46 -14
-66 -11 -14 -20 -34 -20 -44 0 -27 -19 -23 -30 6 -11 29 -25 32 -38 9 -5 -9
-22 -18 -37 -19 -15 -2 -32 -8 -38 -14 -6 -6 -19 -11 -29 -11 -10 0 -18 -7
-18 -16 0 -13 -7 -15 -30 -10 -23 4 -37 0 -55 -16 -29 -26 -32 -49 -7 -64 10
-7 24 -30 32 -53 22 -66 40 -53 45 35 4 71 18 87 39 46 21 -40 21 -76 1 -68
-24 9 -18 -29 16 -103 29 -64 36 -77 67 -132 33 -56 -22 -87 -92 -51 -61 32
-147 66 -331 131 -44 16 -97 36 -118 45 -37 16 -57 14 -57 -5 0 -5 -16 -44
-36 -86 -20 -43 -51 -118 -70 -168 -20 -49 -50 -126 -69 -170 -18 -44 -40
-107 -50 -140 -9 -33 -23 -76 -32 -95 -8 -19 -42 -114 -75 -210 -33 -96 -74
-204 -90 -240 -16 -36 -50 -119 -74 -185 -24 -68 -52 -127 -64 -137 -25 -20
-91 -40 -230 -68 -58 -12 -145 -32 -195 -45 -104 -27 -100 -18 -60 -145 15
-47 35 -121 45 -165 25 -107 66 -241 144 -475 36 -107 66 -207 66 -223 0 -15
9 -47 21 -70 11 -23 20 -62 20 -87 1 -24 10 -62 21 -85 34 -65 59 -175 46
-199 -12 -23 -128 -182 -151 -206 -8 -8 -27 -37 -42 -65 -16 -27 -37 -60 -46
-73 -10 -12 -25 -47 -35 -78 -16 -53 -16 -55 2 -69 10 -7 96 -77 189 -155 94
-78 190 -156 215 -173 25 -16 68 -51 96 -76 29 -25 98 -80 155 -121 56 -41
134 -102 172 -135 150 -129 232 -195 242 -195 5 0 23 -12 39 -26 26 -23 28
-29 22 -72 -4 -26 -9 -160 -12 -299 l-6 -251 64 -6 c95 -9 249 -15 378 -16
l115 0 -32 -19 c-37 -23 -83 -97 -83 -133 0 -37 41 -45 86 -17 19 12 38 18 41
15 4 -4 -4 -34 -16 -69 -29 -79 -30 -90 -8 -95 27 -6 44 14 57 68 6 26 21 57
32 67 21 18 21 18 14 -30 -9 -56 3 -61 44 -17 35 37 40 37 40 1 0 -28 1 -28
55 -29 50 0 56 2 61 24 7 28 24 32 24 6 0 -9 -9 -49 -19 -87 -21 -74 -15 -109
17 -103 19 4 29 40 31 108 3 97 26 117 56 50 l18 -40 81 0 82 0 12 57 c7 33 8
61 3 66 -15 15 -46 3 -49 -18 -8 -55 -13 -65 -32 -65 -24 0 -24 3 -5 41 9 16
13 34 10 39 -9 15 -38 12 -63 -6 -20 -14 -23 -14 -28 1 -5 13 -15 15 -40 10
-27 -5 -34 -3 -34 10 0 18 -21 20 -39 2 -10 -10 -14 -8 -23 6 -9 18 -11 18
-29 1 -10 -9 -19 -25 -19 -36 0 -10 -4 -18 -10 -18 -5 0 -10 11 -10 24 0 34
-26 53 -51 38 -24 -15 -29 -15 -29 2 0 22 -29 41 -42 28 -16 -16 -28 -15 -28
2 0 23 -20 30 -45 16 -20 -11 -26 -9 -45 10 -21 21 -21 22 -3 35 10 8 31 15
46 15 16 0 30 7 34 17 6 15 41 16 437 9 498 -8 469 -2 553 -113 84 -114 97
-130 172 -228 40 -53 79 -99 86 -101 11 -4 212 97 300 152 22 13 58 33 80 44
22 11 52 28 67 38 14 9 94 59 178 111 83 52 164 104 178 116 25 20 189 129
334 220 35 22 93 59 130 83 l68 44 172 -67 c95 -37 189 -75 208 -84 50 -26
109 -51 120 -51 5 0 12 10 16 23 3 12 22 54 41 92 19 39 44 99 55 135 19 61
73 198 104 265 8 17 38 104 68 195 50 154 70 209 131 365 13 33 47 119 75 192
l52 132 77 26 c42 14 110 37 151 50 41 13 89 28 105 34 64 23 165 51 180 51
37 0 29 36 -74 355 -21 66 -43 138 -49 160 -6 22 -21 72 -33 110 -23 75 -83
304 -104 395 -18 81 -84 313 -111 394 -13 38 -24 79 -24 90 0 13 32 52 81 101
44 44 124 131 177 193 78 93 94 117 85 130 -5 10 -55 52 -109 95 -129 101
-168 131 -245 194 -35 29 -83 67 -106 85 -79 62 -198 159 -228 187 -16 15 -50
43 -75 61 -24 19 -52 42 -61 51 -9 9 -49 41 -90 71 -41 30 -99 77 -129 105
-30 27 -73 62 -96 76 -49 30 -56 57 -44 168 13 119 22 383 13 395 -11 15 -342
44 -578 50 -258 6 -383 11 -635 23 -118 5 -237 9 -265 8 l-50 -2 -63 125 c-34
69 -75 143 -91 165 -16 22 -40 64 -55 93 -33 65 -44 66 -156 9z m116 -19 c28
-57 117 -212 130 -228 7 -8 26 -41 43 -72 21 -40 27 -59 19 -64 -12 -8 -145
-7 -158 1 -4 2 -18 -7 -30 -20 -16 -17 -34 -25 -56 -25 -41 0 -45 7 -34 55 5
22 7 42 4 45 -9 8 -54 -50 -54 -70 0 -27 -9 -30 -102 -34 -242 -12 -554 -99
-827 -232 -62 -30 -115 -53 -118 -51 -5 6 66 58 207 149 63 41 169 110 235
153 120 78 154 99 230 140 41 22 122 69 255 146 41 24 100 60 130 80 64 42 92
58 102 59 4 0 15 -15 24 -32z m-1176 -262 c0 -8 -4 -17 -9 -21 -12 -7 -24 12
-16 25 9 15 25 12 25 -4z m-280 -138 c0 -4 -4 -8 -10 -8 -5 0 -10 4 -10 9 0 5
-3 18 -6 28 -5 16 -4 16 10 -1 9 -11 16 -23 16 -28z m2173 -23 c95 -8 255 -16
357 -19 279 -6 664 -27 673 -35 4 -4 4 -28 -2 -52 -5 -24 -15 -125 -21 -224
-7 -99 -14 -186 -16 -192 -3 -12 -82 41 -177 118 -26 21 -45 29 -59 26 -23 -6
-98 31 -98 49 0 6 11 21 25 34 33 31 32 40 -4 40 -20 0 -36 -9 -50 -25 l-20
-26 -68 34 c-149 75 -344 140 -548 184 -60 13 -130 28 -155 34 -65 15 -210 38
-320 49 -52 6 -99 12 -105 14 -27 11 438 4 588 -9z m-863 -64 c0 -50 11 -70
49 -91 25 -13 58 12 63 50 5 34 -8 57 -35 62 -10 1 -18 8 -18 13 0 17 39 17
73 1 21 -11 35 -13 42 -6 5 5 27 10 47 10 67 0 413 -50 479 -70 36 -10 101
-26 145 -35 85 -17 213 -53 230 -66 6 -3 25 -10 44 -14 18 -4 54 -16 80 -27
106 -45 123 -51 186 -73 28 -10 53 -21 57 -24 5 -4 -10 -27 -32 -51 -45 -49
-48 -67 -21 -101 17 -21 23 -22 57 -13 l39 9 -2 63 c-2 70 5 75 57 40 21 -14
37 -36 42 -56 8 -28 12 -31 34 -26 20 5 37 -4 87 -42 143 -111 292 -253 412
-392 11 -13 43 -51 72 -84 57 -65 108 -139 143 -208 13 -25 26 -50 29 -56 3
-6 29 -44 56 -85 49 -73 89 -141 121 -208 15 -33 15 -36 -2 -48 -10 -7 -36
-16 -57 -20 -40 -6 -57 -26 -57 -67 0 -20 7 -27 38 -35 50 -14 58 -14 87 5 17
11 25 26 25 45 0 16 4 29 9 29 15 0 23 -36 15 -75 -5 -31 -3 -37 13 -41 19 -5
38 -72 110 -389 39 -170 50 -474 23 -650 -5 -33 -15 -126 -22 -207 -7 -95 -16
-148 -23 -148 -6 0 -26 11 -45 25 -74 55 -128 8 -85 -74 17 -35 52 -45 82 -26
29 19 33 19 33 -4 0 -11 -14 -31 -32 -44 -27 -22 -30 -28 -19 -41 16 -19 8
-74 -19 -125 -24 -45 -50 -107 -50 -116 0 -18 -173 -352 -211 -408 -60 -87
-145 -190 -278 -334 -63 -68 -127 -141 -143 -163 -17 -22 -33 -40 -37 -40 -4
0 -17 20 -29 45 -23 47 -51 62 -97 51 -22 -6 -25 -12 -25 -49 0 -60 11 -72 65
-71 25 0 45 -2 45 -6 0 -4 -17 -19 -38 -32 -26 -17 -47 -24 -67 -21 -27 4 -31
1 -40 -29 -6 -18 -19 -37 -30 -43 -11 -6 -58 -32 -105 -59 -154 -90 -434 -220
-497 -232 -18 -3 -35 -10 -38 -14 -3 -5 -24 -11 -48 -15 -23 -4 -55 -14 -71
-22 -43 -22 -145 -55 -196 -64 -113 -18 -311 -58 -320 -64 -6 -4 -22 -4 -36
-1 -22 6 -24 11 -24 62 0 58 -23 114 -47 114 -19 0 -63 -71 -63 -102 0 -18 10
-35 33 -52 24 -19 28 -26 14 -26 -10 0 -29 7 -42 16 -19 12 -28 14 -39 5 -18
-15 -262 -4 -338 15 -31 8 -61 13 -65 12 -16 -3 -109 13 -148 27 -22 7 -74 19
-115 26 -41 7 -81 17 -88 22 -8 6 -35 14 -60 18 -26 3 -69 14 -97 24 -265 95
-470 187 -463 207 31 82 32 87 18 112 -7 14 -19 27 -27 30 -17 7 -60 -37 -78
-77 -11 -26 -12 -27 -27 -10 -9 10 -18 29 -20 43 -2 20 -9 25 -33 25 -16 0
-37 5 -47 10 -32 19 -388 349 -396 368 -2 4 -12 16 -22 25 -28 27 -181 234
-191 260 -5 12 -13 22 -17 22 -5 0 -26 33 -46 73 -53 105 -86 161 -128 218
-43 56 -45 67 -21 76 10 4 35 17 56 30 29 18 37 30 37 52 0 32 -18 41 -82 41
-25 0 -44 -7 -57 -22 -19 -19 -21 -20 -27 -4 -4 10 -2 28 5 42 15 33 14 44 -4
44 -8 0 -19 9 -25 19 -10 20 -41 156 -38 169 1 4 -3 18 -9 32 -15 34 -43 197
-43 246 0 21 -5 55 -10 74 -6 19 -12 87 -14 150 -2 63 -7 143 -11 178 -7 57 9
295 22 332 3 8 6 52 8 98 1 46 5 85 8 89 3 3 29 0 57 -7 48 -12 54 -11 72 8
29 29 17 68 -28 89 -28 14 -39 15 -54 5 -42 -26 -41 -1 1 39 30 28 31 30 14
49 -17 18 -16 21 5 62 12 24 29 51 38 61 9 11 17 32 18 49 1 17 11 43 23 59
11 15 21 35 21 42 0 23 41 110 66 140 13 16 24 33 24 38 0 6 21 42 48 82 26
40 54 85 62 101 8 17 32 48 52 69 21 22 47 58 59 81 11 22 42 66 68 96 65 77
303 310 316 310 6 0 26 -21 43 -46 29 -40 36 -45 65 -42 31 3 32 5 35 50 3 39
-1 49 -17 58 -11 6 -31 8 -45 4 -13 -3 -26 -1 -30 4 -9 14 32 46 62 48 15 1
30 3 33 3 4 1 9 13 12 29 6 27 70 73 194 139 54 28 59 29 66 1 2 -13 8 -31 12
-40 6 -15 2 -18 -20 -18 -28 0 -28 0 -10 -20 18 -20 18 -21 -2 -40 -12 -10
-36 -63 -53 -116 -31 -92 -32 -102 -27 -203 3 -58 12 -126 20 -151 29 -91 88
-196 143 -258 31 -35 55 -64 53 -66 -21 -15 -83 -46 -93 -46 -7 0 -18 11 -24
24 -6 13 -21 27 -33 31 -34 11 -49 -18 -49 -91 0 -35 -4 -65 -9 -68 -17 -11
-43 34 -62 110 -24 96 -34 108 -52 64 -13 -31 -12 -37 14 -96 16 -35 29 -66
29 -69 0 -3 -16 -5 -35 -5 -28 0 -35 -4 -35 -20 0 -20 -1 -20 -26 -3 -25 16
-27 16 -36 -1 -7 -13 -13 -14 -23 -6 -15 13 -19 9 -38 -48 -13 -38 -8 -67 8
-42 3 5 10 10 14 10 11 0 57 -90 65 -126 6 -28 4 -33 -28 -52 -26 -16 -36 -28
-36 -47 0 -35 36 -33 83 6 44 36 47 64 17 132 -17 38 -18 50 -9 71 14 29 31
33 49 11 7 -8 18 -15 25 -15 13 0 35 41 35 66 0 10 10 13 33 12 31 -3 32 -2
35 42 2 33 9 49 23 58 26 17 34 -3 20 -54 -6 -21 -8 -40 -5 -43 10 -10 43 40
50 75 5 28 14 38 53 57 25 13 55 29 66 36 19 12 27 9 72 -25 28 -21 95 -61
150 -90 77 -41 97 -56 94 -71 -2 -10 -5 -39 -8 -65 -4 -42 -2 -48 21 -64 20
-13 39 -15 79 -11 l53 5 74 -141 c73 -142 96 -180 135 -227 45 -54 136 -220
176 -322 11 -28 29 -64 40 -79 10 -15 19 -31 19 -37 0 -5 -29 -13 -64 -17 -35
-3 -72 -13 -83 -21 -17 -13 -17 -15 0 -28 9 -7 17 -20 17 -28 0 -8 20 -28 45
-44 25 -15 45 -34 45 -42 0 -8 -20 -45 -45 -82 -73 -109 -62 -119 75 -70 46
17 87 27 91 23 5 -5 9 -51 11 -102 2 -59 7 -96 14 -98 11 -4 23 8 121 116 l40
45 65 -47 c36 -25 68 -53 71 -62 9 -22 35 -18 42 7 4 11 4 61 0 110 -5 62 -3
88 5 88 25 0 140 56 140 69 0 7 -28 39 -62 71 l-63 57 30 41 c68 94 75 106 75
120 0 11 -7 13 -27 8 -81 -20 -133 -28 -146 -23 -11 4 -17 29 -22 96 -4 50
-11 91 -16 91 -12 0 -93 -80 -114 -112 -9 -16 -20 -28 -24 -28 -3 0 -28 42
-55 93 -43 81 -79 138 -213 337 -67 100 -103 160 -103 173 0 7 -23 40 -50 72
-68 80 -71 95 -25 137 31 28 38 42 40 78 2 37 -2 47 -28 72 -24 22 -41 28 -74
28 l-43 0 0 143 c0 162 -23 278 -79 401 -37 82 -37 82 64 121 109 41 115 44
115 54 0 22 -21 19 -84 -9 -36 -17 -73 -30 -81 -30 -9 0 -28 -6 -44 -14 -27
-15 -28 -14 -93 58 -53 58 -82 80 -144 111 -106 51 -263 100 -277 86 -16 -16
-37 -13 -37 5 0 8 -5 12 -11 8 -6 -3 -15 0 -20 7 -20 32 -8 47 64 82 143 69
454 187 562 212 90 22 379 69 448 74 14 1 17 -8 17 -48z m70 -21 c0 -5 -2 -10
-4 -10 -3 0 -8 5 -11 10 -3 6 -1 10 4 10 6 0 11 -4 11 -10z m-1670 -137 c36
-16 134 -51 217 -79 84 -27 153 -53 153 -59 0 -10 -158 -107 -192 -118 -11 -4
-18 -16 -18 -31 0 -22 -35 -56 -58 -56 -6 0 -21 25 -36 55 -14 30 -30 55 -35
55 -5 0 -12 -14 -16 -30 -5 -22 -1 -41 15 -67 l22 -37 -93 -86 c-236 -217
-309 -307 -460 -562 -35 -60 -67 -108 -71 -108 -10 0 235 720 282 825 22 50
56 133 76 185 20 52 45 112 55 132 l19 37 37 -13 c21 -8 67 -27 103 -43z
m3052 -225 c-15 -15 -26 -4 -18 18 5 13 9 15 18 6 9 -9 9 -15 0 -24z m-2359
-17 c43 -16 109 -48 148 -71 74 -44 179 -139 179 -163 0 -14 -40 -37 -65 -37
-7 0 -16 8 -20 18 -17 52 -127 140 -258 206 -54 27 -97 55 -97 62 0 21 26 17
113 -15z m-173 -51 c0 -6 -9 -29 -21 -51 -68 -134 -11 -392 110 -501 55 -50
160 -108 195 -108 12 0 27 -4 35 -9 11 -7 5 -14 -25 -29 -21 -10 -57 -25 -79
-32 -22 -7 -45 -17 -52 -22 -15 -12 -75 26 -124 78 -99 107 -168 346 -140 491
15 74 43 147 68 175 18 20 33 23 33 8z m90 -35 c0 17 1 17 20 0 11 -10 25 -36
32 -57 6 -22 15 -35 20 -30 5 5 3 27 -6 53 -8 24 -13 45 -11 47 12 12 63 -42
74 -77 13 -44 31 -55 31 -19 0 20 1 21 20 3 11 -10 25 -37 32 -59 l12 -41 5
34 c5 27 8 31 17 20 15 -19 32 -72 27 -85 -2 -7 -31 -22 -65 -35 -49 -18 -64
-20 -80 -10 -20 13 -38 7 -38 -12 0 -7 13 -27 29 -46 29 -35 51 -35 51 -1 0
13 15 26 46 40 26 11 48 20 50 20 2 0 4 -21 4 -47 0 -58 12 -48 20 15 4 35 10
48 24 50 17 4 18 -1 11 -65 -6 -64 -6 -67 10 -48 15 19 16 17 10 -39 -5 -52
-4 -57 10 -46 23 19 19 -14 -9 -75 l-23 -50 -18 40 -19 40 -5 -40 c-6 -42 -10
-43 -61 -29 -21 5 -23 4 -12 -7 17 -18 15 -39 -4 -39 -29 0 -128 54 -171 93
-58 54 -97 127 -118 222 -30 132 -24 272 10 259 10 -4 15 0 15 13 0 31 12 35
37 11 21 -20 23 -20 23 -3z m2968 -112 c31 -21 64 -45 72 -54 24 -25 143 -126
283 -240 71 -57 166 -134 210 -171 45 -37 118 -95 162 -130 44 -34 105 -83
137 -109 31 -25 88 -66 127 -90 41 -25 71 -51 71 -60 0 -9 -17 -37 -37 -62
-21 -25 -74 -88 -118 -141 -44 -53 -95 -115 -114 -139 -52 -65 -57 -65 -77 0
-16 55 -20 99 -12 153 2 20 -2 26 -20 28 -12 2 -27 13 -33 24 -9 18 -8 24 7
35 10 7 27 13 38 13 12 0 28 5 36 10 13 9 12 12 -5 26 -18 14 -34 14 -85 -1
-11 -4 -20 9 -32 43 -17 47 -107 212 -133 242 -6 8 -34 51 -60 95 -27 44 -67
103 -89 131 -23 29 -69 87 -103 130 -35 44 -114 130 -177 192 -63 61 -112 112
-109 112 2 0 30 -17 61 -37z m-3409 -12 c-16 -5 -33 15 -24 30 6 9 12 7 22 -7
9 -13 10 -20 2 -23z m926 -138 c53 -112 63 -165 70 -363 l7 -179 -52 -26 c-29
-15 -70 -39 -92 -55 -26 -19 -45 -26 -56 -22 -9 4 -60 29 -112 56 -106 54
-163 93 -155 106 7 12 113 61 150 69 27 7 31 4 41 -23 14 -40 28 -36 32 10 3
32 6 35 25 29 12 -4 33 -9 46 -12 37 -9 21 19 -22 40 -20 9 -37 20 -37 23 0 3
14 10 32 16 28 10 29 12 14 24 -16 11 -16 15 3 58 25 53 28 156 7 207 -7 19
-17 48 -20 65 -6 28 -3 34 26 52 41 26 47 21 93 -75z m-654 -536 c-1 -12 -15
-9 -19 4 -3 6 1 10 8 8 6 -3 11 -8 11 -12z m844 -44 c17 -25 17 -28 0 -60 -24
-43 -65 -74 -166 -123 -87 -42 -108 -46 -139 -30 -15 8 -17 15 -8 49 12 49 41
76 148 140 100 59 139 65 165 24z m-975 -104 c0 -6 -4 -7 -10 -4 -5 3 -10 11
-10 16 0 6 5 7 10 4 6 -3 10 -11 10 -16z m-92 -48 c3 -8 -1 -12 -9 -9 -7 2
-15 10 -17 17 -3 8 1 12 9 9 7 -2 15 -10 17 -17z m1051 -92 c46 -69 46 -69 28
-69 -8 0 -22 -9 -32 -20 -21 -24 -53 -26 -61 -5 -4 8 -12 15 -20 15 -14 0 -64
67 -64 85 0 14 69 54 92 55 9 0 34 -27 57 -61z m-2017 -25 c-10 -66 -35 -125
-57 -140 -23 -15 -24 -17 -9 -46 10 -19 13 -40 9 -60 -6 -26 -10 -29 -33 -23
-15 3 -39 15 -54 25 -34 25 -48 25 -48 2 0 -24 25 -47 74 -67 29 -12 36 -20
30 -33 -19 -44 -42 -257 -45 -414 -4 -211 -1 -299 17 -402 12 -73 12 -110 -1
-75 -15 41 -68 230 -85 304 -21 90 -35 132 -99 309 -22 60 -50 143 -61 185
-11 42 -31 112 -44 156 -48 156 -56 184 -56 198 0 11 20 18 73 26 39 7 101 18
137 26 36 8 76 15 90 15 14 0 52 9 85 19 69 22 81 21 77 -5z m4888 7 c0 -12
-20 -25 -27 -18 -7 7 6 27 18 27 5 0 9 -4 9 -9z m-2773 -123 c30 -34 46 -69
36 -79 -5 -5 -23 -6 -40 -3 -26 5 -30 10 -28 33 1 15 5 33 10 40 4 8 2 17 -6
22 -8 5 -9 9 -3 9 6 0 20 -10 31 -22z m-107 3 c0 -6 -4 -13 -10 -16 -22 -14
-9 -27 20 -21 35 6 40 -8 9 -25 -18 -9 -26 -7 -48 9 -14 10 -27 26 -29 35 -3
14 3 17 51 26 4 0 7 -3 7 -8z m69 -107 c2 -2 -4 -13 -14 -24 -17 -19 -19 -19
-37 -4 -30 28 -23 44 15 37 17 -3 34 -7 36 -9z m151 -76 c18 -35 36 -67 41
-72 15 -16 10 -36 -6 -29 -9 3 -24 -2 -34 -11 -16 -15 -20 -15 -30 -2 -16 19
-6 36 20 36 32 0 21 30 -18 46 -25 11 -33 18 -23 24 24 15 0 31 -36 24 -26 -5
-34 -3 -34 8 0 17 35 36 66 37 17 1 29 -13 54 -61z m-134 -13 c4 -9 18 -22 33
-30 24 -12 24 -14 7 -21 -14 -5 -25 0 -43 22 -12 16 -23 32 -23 37 0 13 21 7
26 -8z m74 -115 c0 -5 -4 -12 -10 -15 -5 -3 -10 -4 -10 -1 0 2 -3 12 -6 20 -5
12 -2 15 10 10 9 -3 16 -10 16 -14z m179 -67 c11 -21 43 -72 70 -113 28 -41
51 -82 51 -91 0 -9 -24 -27 -60 -44 -33 -16 -60 -32 -60 -37 0 -4 -6 -8 -13
-8 -11 0 -147 261 -147 283 0 4 13 7 29 7 17 0 31 6 35 16 4 10 13 13 25 9 11
-3 22 -1 26 5 11 18 24 11 44 -27z m2805 -125 c44 -172 93 -381 100 -423 10
-59 137 -481 166 -550 35 -86 50 -126 50 -138 0 -14 -34 -26 -225 -77 -60 -16
-140 -44 -177 -62 -37 -17 -70 -29 -73 -27 -4 5 12 95 32 187 3 12 13 27 23
32 14 7 16 19 12 60 -6 61 7 65 63 20 43 -34 51 -36 59 -15 9 24 -2 39 -49 67
-50 31 -53 40 -30 114 56 182 65 582 19 877 -11 68 3 38 30 -65z m-2540 -29
c8 -41 8 -79 0 -79 -21 0 -84 25 -84 33 0 14 53 75 66 76 6 1 14 -13 18 -30z
m133 -135 c-27 -43 -36 -45 -62 -10 -17 23 -18 28 -5 36 8 5 32 10 53 10 l37
0 -23 -36z m-129 -4 c23 -16 48 -43 57 -59 18 -35 20 -119 4 -154 -25 -55
-156 -86 -242 -58 -44 15 -62 35 -77 88 -19 63 -6 107 49 164 46 48 48 49 108
49 51 0 66 -5 101 -30z m-298 -65 c0 -11 -41 -85 -47 -85 -3 0 -27 17 -52 38
l-46 37 60 6 c33 3 66 6 73 7 6 1 12 0 12 -3z m458 -85 c17 -16 32 -32 32 -34
0 -7 -80 -46 -95 -46 -18 0 -18 2 -6 32 5 13 12 35 15 51 8 34 13 34 54 -3z
m-468 -41 c0 -6 10 -24 21 -41 18 -24 19 -32 8 -39 -17 -10 -89 -23 -95 -16
-8 7 45 107 56 107 6 0 10 -5 10 -11z m366 -134 c3 -25 3 -49 0 -53 -8 -7 -96
37 -96 48 0 8 67 48 82 49 4 1 10 -19 14 -44z m-194 -13 c10 -10 -49 -75 -62
-67 -5 3 -10 24 -10 47 0 40 0 40 32 34 18 -3 36 -10 40 -14z m2496 -401 c3
-8 -1 -12 -9 -9 -7 2 -15 10 -17 17 -3 8 1 12 9 9 7 -2 15 -10 17 -17z m-5038
-63 c6 -24 17 -64 24 -89 8 -29 11 -64 6 -93 -8 -52 -5 -59 21 -45 16 8 22 3
40 -32 24 -49 20 -55 -47 -72 -34 -8 -50 -18 -52 -31 -4 -19 1 -19 109 0 l36
6 43 -84 c92 -180 185 -330 286 -458 95 -120 117 -150 110 -150 -2 0 -43 33
-90 73 -47 39 -149 122 -226 182 -78 61 -155 121 -170 135 -16 14 -56 45 -90
70 -34 25 -94 74 -133 109 -39 35 -88 74 -108 87 -21 13 -40 28 -43 33 -6 9
61 127 95 166 25 29 149 218 149 227 0 4 7 8 15 8 8 0 19 -17 25 -42z m193
-273 c-3 -8 -9 -15 -14 -15 -10 0 -12 24 -3 33 11 11 24 -3 17 -18z m4744
-242 c-8 -15 -19 -44 -25 -63 -6 -19 -29 -80 -52 -135 -22 -55 -50 -131 -61
-170 -22 -73 -87 -240 -114 -291 -8 -16 -15 -34 -15 -41 0 -7 -7 -27 -14 -45
-8 -18 -27 -64 -41 -102 -15 -38 -31 -77 -36 -85 -9 -17 -72 -181 -83 -218
-12 -37 -29 -33 -196 44 -36 17 -96 40 -135 53 -38 12 -81 27 -94 32 l-24 9
23 24 c13 14 28 25 33 25 5 0 22 11 39 25 16 14 38 25 49 25 14 0 19 7 19 28
0 29 47 92 68 92 6 0 19 -22 29 -50 19 -53 28 -61 37 -32 5 17 3 43 -9 92 -5
20 1 32 27 56 131 124 220 221 295 324 22 30 54 70 72 89 17 18 31 35 31 37 0
3 20 35 44 72 24 37 66 111 93 165 26 54 49 92 51 83 2 -8 -3 -27 -11 -43z
m-709 -722 c3 -8 -1 -12 -9 -9 -7 2 -15 10 -17 17 -3 8 1 12 9 9 7 -2 15 -10
17 -17z m-3280 -142 c37 -29 70 -60 74 -70 5 -12 17 -19 35 -19 15 0 43 -9 62
-21 l34 -20 -47 -48 c-53 -53 -57 -71 -19 -71 18 0 41 13 69 41 l41 40 35 -23
c58 -40 207 -109 343 -159 33 -12 65 -25 70 -29 16 -12 262 -77 380 -101 61
-12 112 -24 115 -27 3 -2 -74 -2 -170 2 -96 3 -281 9 -410 12 -486 12 -711 21
-721 31 -7 7 -7 24 1 53 7 26 11 123 11 243 0 110 2 204 5 209 10 15 24 8 92
-43z m243 -92 c-8 -8 -11 -7 -11 4 0 9 3 19 7 23 4 4 9 2 11 -4 3 -7 -1 -17
-7 -23z m2598 -170 c-24 -19 -107 -71 -184 -117 -77 -46 -158 -98 -180 -115
-34 -27 -125 -86 -228 -149 -15 -9 -69 -39 -120 -65 -94 -50 -131 -71 -304
-174 l-98 -58 -20 26 c-11 14 -36 45 -56 68 -19 23 -57 74 -84 112 -27 39 -67
89 -88 112 -21 23 -36 47 -32 53 4 6 30 10 58 10 69 -1 198 5 217 11 12 3 15
-5 13 -43 -2 -27 1 -48 6 -48 20 0 60 43 63 68 3 27 3 27 123 39 66 7 136 17
155 22 19 5 60 14 90 21 195 41 437 126 600 210 113 58 127 61 69 17z m-2479
-397 c0 -5 -4 -10 -10 -10 -5 0 -10 5 -10 10 0 6 5 10 10 10 6 0 10 -4 10 -10z
m520 -94 c0 -3 -4 -8 -10 -11 -5 -3 -10 -1 -10 4 0 6 5 11 10 11 6 0 10 -2 10
-4z"></path>
<path d="M3093 5523 c-7 -2 -13 -15 -13 -27 0 -31 -20 -87 -38 -108 -13 -16
-13 -18 1 -24 9 -3 26 -4 39 -2 20 3 23 8 20 44 -5 60 14 63 29 4 7 -27 16
-50 21 -50 4 0 17 18 28 40 11 22 25 40 31 40 16 0 23 -31 11 -51 -18 -28 -16
-29 41 -29 49 0 53 2 64 30 8 20 18 30 32 30 23 0 28 -19 10 -37 -18 -18 -2
-31 35 -31 19 0 39 -3 45 -6 22 -14 20 16 -4 61 -14 26 -32 65 -40 86 -8 20
-21 37 -29 37 -9 0 -30 -25 -47 -55 -17 -30 -35 -55 -39 -55 -5 0 -17 25 -26
55 -19 59 -47 75 -57 33 -4 -13 -12 -31 -20 -42 -13 -18 -15 -16 -34 20 -19
38 -35 48 -60 37z"></path>
<path d="M3532 5500 c-12 -5 -30 -25 -39 -45 -16 -33 -16 -37 0 -70 14 -30 22
-35 50 -35 42 0 63 17 72 58 6 31 5 32 -24 32 -25 0 -31 -4 -31 -21 0 -30 -24
-18 -28 14 -4 32 20 46 43 27 13 -11 20 -9 40 10 14 13 25 27 25 32 0 11 -79
9 -108 -2z"></path>
<path d="M3646 5429 c-14 -57 -15 -74 -5 -80 21 -13 29 0 29 43 0 49 11 43 25
-15 14 -56 47 -64 64 -15 6 18 28 49 47 69 35 36 36 37 16 48 -11 6 -32 11
-45 11 -21 0 -24 -4 -23 -36 1 -52 -19 -53 -30 -2 -8 36 -13 43 -35 46 -24 3
-27 -1 -43 -69z"></path>
<path d="M3859 5464 c-1 -5 0 -25 1 -44 0 -19 -6 -54 -14 -77 -17 -48 -13 -54
52 -68 26 -5 36 -3 47 12 22 28 18 32 -25 26 -33 -5 -40 -3 -40 11 0 10 9 16
24 16 35 0 42 18 12 30 -25 9 -32 21 -20 33 3 3 18 1 32 -4 21 -8 29 -6 46 10
24 24 19 31 -31 41 -21 5 -48 12 -60 15 -13 4 -23 3 -24 -1z"></path>
<path d="M4022 5400 c-18 -29 -15 -61 10 -87 20 -21 20 -23 3 -23 -10 0 -26 7
-36 15 -15 15 -17 14 -23 -11 -4 -15 -2 -32 4 -38 15 -15 84 -13 104 3 22 19
20 58 -4 71 -23 13 -27 40 -5 40 8 0 15 -4 15 -10 0 -14 33 -13 48 2 18 18 15
24 -22 42 -46 22 -79 20 -94 -4z"></path>
<path d="M3672 5113 c-15 -17 -28 -23 -40 -18 -9 3 -39 9 -66 12 -40 5 -51 3
-62 -12 -8 -11 -14 -21 -14 -25 0 -3 37 -6 82 -7 89 -2 121 9 131 46 8 31 -5
33 -31 4z"></path>
<path d="M3877 5073 c-14 -13 -6 -24 15 -21 27 4 36 28 11 28 -11 0 -23 -3
-26 -7z"></path>
<path d="M3048 5024 c-63 -45 -64 -103 -3 -128 29 -13 35 -20 35 -45 0 -26 -4
-31 -23 -31 -13 0 -28 5 -34 11 -8 8 -17 8 -33 -1 -42 -22 -6 -47 72 -49 33
-1 41 4 60 34 27 41 32 42 52 14 20 -29 39 -15 32 25 -4 21 0 41 14 64 37 60
43 43 37 -98 -5 -119 -4 -130 12 -130 32 0 41 22 41 96 0 70 1 74 30 90 16 10
30 27 32 38 2 11 9 21 16 24 8 2 12 -10 12 -41 0 -27 6 -49 15 -57 12 -10 18
-6 34 21 18 29 19 35 6 49 -23 25 -19 30 30 39 6 1 12 -25 15 -56 l5 -58 45
58 c25 31 48 57 51 57 4 0 10 -24 14 -52 4 -29 9 -57 12 -61 9 -16 33 16 33
44 0 29 30 69 51 69 11 0 9 -35 -7 -89 -6 -19 -4 -22 12 -19 13 2 21 15 25 41
6 41 29 75 29 44 0 -21 17 -22 37 -2 21 21 34 9 23 -21 -6 -14 -10 -34 -10
-45 0 -22 28 -26 36 -4 10 25 31 17 43 -15 5 -16 15 -30 22 -30 6 0 34 20 61
45 58 52 73 56 64 18 -4 -16 -10 -41 -13 -56 -5 -27 -4 -28 15 -16 12 8 27 26
33 41 10 25 44 46 55 35 3 -3 1 -22 -5 -44 -17 -61 -15 -66 19 -48 42 22 50
19 50 -20 0 -39 7 -42 36 -20 27 20 34 19 34 -10 0 -28 13 -31 50 -10 34 19
38 19 42 -7 2 -18 9 -22 27 -20 58 6 108 52 57 52 -14 0 -26 2 -26 5 0 3 12
28 26 56 22 44 28 50 47 44 54 -17 76 -17 91 1 27 32 23 39 -20 36 -23 -2 -45
1 -48 7 -9 14 41 49 80 57 58 11 34 29 -32 26 -45 -3 -65 -9 -84 -27 -18 -18
-29 -22 -40 -15 -20 13 -80 13 -80 0 0 -5 11 -12 24 -16 14 -3 32 -14 41 -24
16 -17 15 -21 -9 -63 -33 -55 -61 -81 -80 -74 -12 5 -13 13 -5 39 5 18 9 44 9
57 0 22 -3 23 -42 18 -22 -3 -54 -15 -69 -26 -16 -12 -35 -21 -43 -21 -13 0
-13 4 0 36 18 43 6 58 -36 48 -13 -3 -29 -6 -35 -7 -5 -1 -11 8 -13 21 -4 25
-17 27 -52 7 -39 -22 -53 -19 -48 10 3 14 2 28 -3 31 -13 7 -50 -14 -81 -47
-38 -40 -50 -37 -42 11 7 43 4 46 -27 29 -16 -8 -23 -7 -33 7 -9 11 -19 15
-31 10 -11 -4 -22 0 -29 9 -10 14 -15 13 -46 -10 -46 -34 -54 -32 -46 15 3 22
3 40 -1 40 -16 0 -32 -16 -42 -43 -11 -29 -31 -37 -31 -12 0 24 -24 28 -74 11
-61 -21 -66 -20 -66 8 0 39 -16 39 -46 -1 -27 -35 -28 -36 -37 -15 -10 23 -31
29 -42 12 -4 -6 -13 -5 -25 2 -15 10 -22 9 -38 -5 -23 -21 -32 -21 -48 0 -7
10 -14 16 -16 13 -27 -36 -58 -88 -58 -97 0 -18 -70 8 -81 30 -15 26 -4 47 24
47 13 0 31 6 42 13 17 13 17 15 -6 30 -30 21 -27 22 -71 -9z m152 -94 c0 -5
-2 -10 -4 -10 -3 0 -8 5 -11 10 -3 6 -1 10 4 10 6 0 11 -4 11 -10z m128 -12
c-4 -27 -28 -36 -28 -10 0 20 8 32 22 32 5 0 8 -10 6 -22z m632 -18 c0 -11 -4
-20 -9 -20 -14 0 -23 18 -16 30 10 17 25 11 25 -10z m330 -69 c0 -12 -42 -42
-49 -36 -5 6 29 45 41 45 4 0 8 -4 8 -9z"></path>
<path d="M4481 4681 c-22 -22 -30 -91 -11 -91 23 0 61 50 58 77 -4 34 -22 39
-47 14z"></path>
<path d="M3117 3664 c-13 -13 -7 -24 14 -24 11 0 19 5 17 12 -5 14 -22 21 -31
12z"></path>
<path d="M4095 3471 c-62 -93 -201 -241 -225 -241 -25 0 -50 -10 -50 -21 0
-11 74 -49 95 -49 8 0 15 8 15 18 1 26 25 52 48 52 31 0 35 -15 13 -58 -23
-45 -20 -52 25 -52 52 0 50 -19 -3 -22 l-48 -4 39 -18 c68 -31 98 -31 133 -2
33 27 47 23 55 -19 4 -24 47 -32 79 -14 l23 12 -27 14 c-29 15 -46 58 -29 75
8 8 15 8 26 -2 9 -7 29 -10 46 -8 36 5 38 -7 10 -57 -23 -40 -26 -75 -7 -75
21 0 34 14 41 42 3 15 20 43 36 62 17 18 30 36 30 40 0 3 -17 6 -39 6 -31 0
-40 4 -44 21 -5 20 -11 21 -66 16 -58 -5 -61 -4 -61 18 0 30 -24 48 -51 40
-19 -6 -21 -12 -15 -55 6 -43 4 -49 -20 -65 -14 -9 -27 -15 -29 -13 -33 40
-32 93 6 214 41 134 50 174 47 198 -2 16 -15 4 -53 -53z m-65 -180 c0 -24 -18
-37 -32 -23 -8 8 -7 16 2 27 17 21 30 19 30 -4z"></path>
<path d="M4222 3518 c6 -18 28 -21 28 -4 0 9 -7 16 -16 16 -9 0 -14 -5 -12
-12z"></path>
<path d="M4410 3271 c0 -41 3 -51 21 -56 25 -8 25 -9 33 37 6 31 3 39 -16 52
-34 24 -38 20 -38 -33z"></path>
<path d="M4624 3146 c-3 -8 -1 -23 5 -34 11 -21 -7 -55 -41 -80 -10 -7 -18
-23 -18 -35 0 -12 -5 -29 -10 -37 -9 -13 -11 -13 -19 -1 -8 12 -12 12 -25 2
-20 -16 -21 -55 -2 -70 27 -23 63 4 96 71 17 35 49 83 70 107 45 50 43 46 30
72 -13 23 -78 27 -86 5z"></path>
<path d="M4420 3098 c-25 -27 -25 -33 1 -66 24 -31 8 -43 -22 -16 -21 19 -33
13 -43 -23 -6 -19 -2 -23 34 -33 23 -6 50 -8 60 -5 25 8 37 52 21 76 -15 25
-14 39 4 39 8 0 15 -7 15 -15 0 -22 12 -18 33 11 15 20 16 28 7 39 -19 23 -86
19 -110 -7z"></path>
<path d="M4792 3060 c-43 -26 -36 -45 15 -45 22 0 46 -5 54 -11 8 -7 42 -26
76 -43 34 -17 64 -35 68 -41 8 -13 65 -13 65 -1 0 12 -73 72 -115 95 -16 9
-45 28 -64 41 -41 30 -56 31 -99 5z"></path>
<path d="M4694 2990 c-25 -10 -41 -30 -25 -30 18 0 12 -21 -15 -57 -14 -18
-22 -38 -19 -43 11 -18 46 -11 77 15 29 25 58 33 58 17 0 -5 -13 -21 -30 -37
-16 -16 -30 -35 -30 -42 0 -22 47 -14 80 13 38 32 50 25 21 -12 -31 -39 -27
-47 18 -40 l40 6 3 -37 c3 -38 3 -38 45 -36 24 1 53 9 65 17 34 24 38 20 31
-34 -6 -49 -5 -50 21 -50 15 0 45 9 68 21 38 19 40 20 33 2 -4 -10 -8 -29 -9
-43 -1 -21 4 -25 32 -28 28 -3 32 -7 32 -31 0 -38 5 -40 53 -29 51 11 55 15
33 31 -15 11 -12 18 39 71 51 53 58 57 73 43 25 -23 70 -31 87 -17 22 19 19
27 -20 46 -19 9 -35 20 -35 25 0 14 46 29 86 29 30 0 34 3 34 26 0 23 -2 25
-15 14 -12 -10 -21 -10 -41 -1 -35 15 -75 14 -102 -4 -16 -12 -27 -13 -41 -5
-37 19 -121 9 -121 -16 0 -10 12 -14 38 -14 21 0 47 -7 58 -15 18 -15 17 -17
-34 -65 -29 -28 -62 -50 -74 -50 -11 0 -18 3 -16 8 2 4 10 19 17 34 19 37 8
62 -23 54 -17 -4 -26 -1 -30 10 -14 36 -4 63 45 117 28 31 48 61 44 67 -3 5
-22 10 -40 10 -29 0 -39 -6 -58 -37 -14 -21 -46 -58 -73 -83 l-49 -45 -5 30
c-6 30 -6 30 -68 28 -57 -1 -61 0 -52 17 6 10 10 29 10 41 0 20 -4 21 -39 15
-36 -5 -40 -4 -43 16 -2 19 -9 23 -43 24 -37 0 -40 2 -40 29 0 32 -16 40 -51
25z m266 -204 c0 -3 -4 -8 -10 -11 -5 -3 -10 -1 -10 4 0 6 5 11 10 11 6 0 10
-2 10 -4z m150 -60 c0 -8 -6 -16 -14 -19 -10 -4 -12 0 -9 14 6 22 23 26 23 5z"></path>
<path d="M5293 2853 c-30 -20 -29 -43 1 -43 29 0 49 22 40 44 -7 19 -13 19
-41 -1z"></path>
<path d="M1051 2638 c0 -7 4 -22 8 -33 8 -19 8 -19 15 2 8 24 1 43 -15 43 -5
0 -9 -6 -8 -12z"></path>
<path d="M5390 2581 c0 -37 -2 -41 -25 -41 -26 0 -45 -25 -45 -59 0 -12 5 -21
11 -21 16 0 89 42 90 52 5 65 0 103 -15 106 -13 3 -16 -5 -16 -37z"></path>
<path d="M2500 2536 c0 -8 5 -18 10 -21 6 -3 10 3 10 14 0 12 -4 21 -10 21 -5
0 -10 -6 -10 -14z"></path>
<path d="M2413 2495 c-36 -17 -42 -30 -78 -195 -24 -108 -24 -116 -8 -127 28
-21 56 -15 96 22 32 30 37 40 37 79 0 35 -5 49 -20 58 -11 7 -20 21 -20 31 0
10 9 35 20 57 20 39 27 91 13 89 -5 0 -22 -7 -40 -14z m-3 -224 c0 -11 -4 -23
-10 -26 -6 -4 -10 5 -10 19 0 14 5 26 10 26 6 0 10 -9 10 -19z"></path>
<path d="M2777 2445 c-20 -14 -37 -33 -37 -42 0 -9 -9 -46 -20 -83 -18 -60
-23 -68 -49 -73 -15 -3 -36 -17 -45 -32 -16 -24 -16 -28 0 -60 19 -40 17 -40
49 -19 24 16 25 16 25 -9 0 -13 7 -30 15 -37 12 -10 19 -7 39 15 29 31 46 26
46 -13 l1 -27 23 27 c16 18 22 34 19 49 -4 15 1 27 18 40 47 36 50 22 14 -65
-13 -33 -23 -62 -20 -64 2 -2 20 1 39 8 26 8 38 19 42 38 9 39 32 72 50 72 13
0 15 -7 10 -30 -3 -16 -9 -43 -12 -60 -4 -16 -3 -30 2 -30 5 0 28 19 51 42
l43 42 0 -46 c0 -74 20 -99 50 -63 16 19 40 19 40 1 0 -26 19 -28 54 -7 45 28
56 26 56 -9 0 -49 45 -53 74 -7 8 12 6 24 -6 44 -12 20 -14 33 -7 46 14 24 26
21 33 -8 4 -16 13 -25 26 -25 17 0 20 -7 20 -44 0 -80 19 -96 59 -49 l24 26
13 -32 14 -33 34 21 c43 27 46 26 46 -4 0 -37 32 -32 80 11 22 20 40 31 40 26
0 -22 -91 -190 -105 -196 -8 -3 -15 -15 -15 -26 0 -24 -1 -24 43 -5 27 11 38
24 47 52 7 21 32 80 56 131 24 51 44 97 44 102 0 24 -24 18 -62 -14 -54 -46
-72 -47 -63 -3 11 48 39 98 75 132 17 17 38 42 46 58 13 24 13 28 -1 33 -8 4
-29 0 -46 -7 -26 -10 -39 -29 -72 -98 -41 -88 -80 -141 -104 -141 -16 0 -17
19 -3 55 6 15 8 31 5 35 -10 16 -49 -6 -65 -35 -29 -52 -44 -45 -37 19 5 48 3
57 -9 52 -8 -3 -20 -9 -28 -12 -9 -3 -17 5 -24 25 -6 17 -13 31 -15 31 -20 0
-78 -35 -106 -64 -54 -55 -59 -49 -36 46 7 26 6 26 -40 25 -27 -1 -50 3 -52 9
-2 6 8 27 22 48 22 32 34 86 20 86 -10 0 -130 -132 -137 -151 -12 -31 -27 -22
-30 19 -3 39 -13 43 -65 27 -20 -6 -23 -4 -23 19 0 26 -13 35 -25 16 -12 -20
-35 -10 -35 14 0 39 -17 40 -60 4 -30 -25 -40 -40 -40 -63 0 -30 -15 -55 -33
-55 -5 0 -7 28 -5 63 4 61 22 107 74 194 39 65 17 82 -49 38z m71 -237 c-6
-18 -28 -21 -28 -4 0 9 7 16 16 16 9 0 14 -5 12 -12z m-158 -8 c0 -5 -7 -10
-16 -10 -8 0 -12 5 -9 10 3 6 10 10 16 10 5 0 9 -4 9 -10z m496 -65 c7 -16
-20 -65 -36 -65 -13 0 -22 37 -15 60 7 23 43 27 51 5z"></path>
<path d="M3237 2323 c-26 -47 -7 -95 27 -70 17 13 17 15 2 45 -17 33 -22 37
-29 25z"></path>
<path d="M2507 2293 c-12 -12 -7 -31 10 -37 17 -7 33 9 33 32 0 13 -32 17 -43
5z"></path>
<path d="M3665 2282 c-6 -4 -18 -19 -28 -34 -18 -29 -45 -36 -65 -16 -9 9 -16
7 -32 -7 -40 -36 -11 -63 55 -51 51 10 131 117 87 116 -4 0 -12 -4 -17 -8z"></path>
<path d="M2475 2160 c-9 -15 4 -30 26 -30 12 0 19 7 19 20 0 21 -33 29 -45 10z"></path>
<path d="M4070 2110 c-8 -4 -27 -13 -42 -18 -18 -8 -36 -29 -53 -65 -15 -29
-38 -60 -52 -69 -26 -15 -26 -16 -5 -22 25 -8 25 -8 11 -61 -11 -40 -35 -75
-50 -75 -5 0 -16 15 -25 32 l-17 33 -15 -33 c-15 -30 -14 -33 8 -57 31 -33 67
-32 111 5 30 24 37 38 43 79 4 34 13 54 25 60 27 15 32 3 15 -37 -15 -36 -13
-62 5 -62 5 0 37 16 71 36 33 20 63 34 66 31 3 -3 -2 -19 -11 -37 -9 -17 -15
-37 -13 -44 6 -24 47 1 62 39 17 40 31 45 39 14 5 -19 7 -20 37 -4 17 9 35 13
40 10 15 -10 12 -50 -7 -84 -10 -16 -15 -33 -11 -36 12 -13 59 21 76 55 21 41
41 50 49 20 3 -13 11 -19 19 -16 8 3 21 9 29 12 20 8 19 -4 -4 -51 -10 -22
-17 -45 -14 -52 8 -21 41 -15 58 11 17 25 91 51 101 35 3 -5 -4 -21 -15 -35
-12 -15 -21 -31 -21 -35 0 -11 41 -12 56 -1 15 9 54 87 54 107 0 17 -45 21
-55 5 -10 -17 -24 -2 -18 20 6 24 -22 60 -46 60 -9 0 -25 -7 -35 -15 -28 -22
-63 -19 -69 5 -4 16 -11 19 -35 14 -26 -5 -31 -3 -34 17 -4 29 -39 37 -58 14
-18 -22 -50 -19 -50 5 0 22 -24 27 -36 8 -5 -7 -10 -4 -16 11 l-8 23 -36 -23
-36 -22 4 24 c3 24 1 24 -75 24 -82 0 -87 3 -65 50 10 22 16 24 43 19 38 -7
60 14 51 50 -7 27 -24 37 -46 26z m31 -213 c-8 -8 -11 -7 -11 4 0 20 13 34 18
19 3 -7 -1 -17 -7 -23z m449 -97 c0 -5 -5 -10 -11 -10 -5 0 -7 5 -4 10 3 6 8
10 11 10 2 0 4 -4 4 -10z"></path>
<path d="M4718 1706 c-22 -16 -23 -39 -3 -56 13 -10 19 -9 36 6 38 35 8 82
-33 50z"></path>
<path d="M3451 3493 c-45 -22 -58 -53 -41 -101 11 -36 51 -72 79 -72 6 0 27
10 46 23 59 38 65 98 14 142 -35 29 -52 31 -98 8z m94 -43 c4 -6 3 -24 0 -41
-9 -40 -48 -56 -81 -34 -28 18 -30 32 -8 63 16 23 77 32 89 12z"></path>
<path d="M2650 6430 c-8 -4 -36 -11 -61 -14 -27 -4 -54 -15 -64 -27 -25 -27
-15 -32 28 -14 20 8 49 15 65 15 16 0 37 9 46 19 19 21 10 34 -14 21z"></path>
<path d="M2645 6350 c-12 -13 -25 -17 -44 -14 -19 4 -32 -1 -50 -19 -18 -20
-30 -24 -55 -20 -30 5 -34 2 -50 -31 -17 -37 -36 -48 -36 -22 0 26 -20 28 -40
4 -25 -29 -25 -44 -1 -51 13 -3 22 -17 26 -41 4 -20 13 -36 20 -36 14 0 17 8
30 64 l6 29 23 -22 c47 -44 86 -18 86 58 0 53 12 52 35 -1 11 -24 21 -45 23
-48 8 -11 22 29 22 68 0 51 16 54 36 6 13 -30 17 -34 30 -23 11 9 14 22 9 48
-13 71 -36 88 -70 51z m-127 -119 c3 -16 -1 -22 -10 -19 -7 3 -15 15 -16 27
-3 16 1 22 10 19 7 -3 15 -15 16 -27z"></path>
<path d="M2743 6325 c-3 -9 -3 -18 0 -21 9 -9 27 6 27 22 0 19 -19 18 -27 -1z"></path>
<path d="M2346 6315 c-4 -12 -1 -16 11 -13 18 3 21 20 5 26 -5 1 -12 -4 -16
-13z"></path>
<path d="M5302 6272 c-9 -6 -11 -18 -6 -38 9 -41 33 -64 63 -64 18 0 30 -7 36
-22 11 -26 49 -35 70 -18 11 9 12 17 3 33 -6 11 -11 41 -12 65 l-1 45 -70 4
c-38 1 -76 -1 -83 -5z m69 -57 c0 -5 -9 -11 -21 -13 -20 -3 -27 8 -13 22 10 9
34 3 34 -9z"></path>
<path d="M2130 6234 c0 -17 22 -14 28 4 2 7 -3 12 -12 12 -9 0 -16 -7 -16 -16z"></path>
<path d="M1366 6123 c-17 -17 -36 -77 -30 -95 13 -43 69 -45 80 -2 4 16 13 24
28 24 30 0 46 18 46 52 0 32 -6 34 -30 13 -14 -13 -19 -13 -44 0 -32 17 -40
18 -50 8z m34 -74 c0 -5 -4 -9 -10 -9 -5 0 -10 7 -10 16 0 8 5 12 10 9 6 -3
10 -10 10 -16z"></path>
<path d="M1845 5980 c-4 -12 -15 -20 -28 -20 -12 0 -28 -9 -34 -19 -7 -11 -25
-21 -40 -23 -16 -2 -29 -10 -31 -19 -3 -17 62 -92 72 -82 3 4 6 28 6 56 0 60
18 60 40 -1 8 -23 18 -42 22 -42 15 0 20 50 9 82 -17 47 3 59 28 17 12 -19 21
-37 21 -41 0 -5 4 -8 9 -8 15 0 22 30 15 65 -4 24 -13 34 -38 43 -42 16 -44
15 -51 -8z"></path>
<path d="M6790 5820 c0 -5 5 -10 11 -10 5 0 7 5 4 10 -3 6 -8 10 -11 10 -2 0
-4 -4 -4 -10z"></path>
<path d="M1240 5550 c-10 -25 -10 -34 4 -55 20 -30 25 -31 42 -8 16 23 24 14
31 -36 7 -50 23 -44 23 9 0 97 -71 161 -100 90z m40 -10 c0 -5 -4 -10 -10 -10
-5 0 -10 5 -10 10 0 6 5 10 10 10 6 0 10 -4 10 -10z"></path>
<path d="M232 4493 c-7 -12 -25 -26 -41 -31 -24 -8 -30 -17 -33 -44 -5 -54 10
-78 49 -78 37 0 53 21 33 44 -9 12 -7 19 9 35 24 24 27 49 7 76 -13 18 -14 18
-24 -2z"></path>
<path d="M6670 3700 c0 -5 5 -10 11 -10 5 0 7 5 4 10 -3 6 -8 10 -11 10 -2 0
-4 -4 -4 -10z"></path>
<path d="M6820 2369 c0 -5 5 -7 10 -4 6 3 10 8 10 11 0 2 -4 4 -10 4 -5 0 -10
-5 -10 -11z"></path>
<path d="M235 2299 c6 -25 3 -34 -14 -45 -36 -26 -26 -50 35 -83 30 -16 61
-27 69 -25 22 9 26 34 11 65 -8 16 -18 43 -21 61 -9 38 -30 57 -63 58 -21 0
-23 -3 -17 -31z"></path>
<path d="M6880 1270 c0 -11 4 -20 9 -20 5 0 7 9 4 20 -3 11 -7 20 -9 20 -2 0
-4 -9 -4 -20z"></path>
<path d="M5726 854 c-9 -24 -7 -54 4 -54 12 0 30 33 30 54 0 21 -26 21 -34 0z"></path>
<path d="M1417 727 c-3 -7 1 -24 8 -38 9 -15 11 -41 8 -71 l-6 -48 34 0 c19 0
51 -5 72 -11 31 -8 43 -7 63 6 14 9 28 23 31 31 8 21 -41 62 -79 66 -25 2 -34
8 -36 25 -6 41 -82 73 -95 40z"></path>
<path d="M3013 705 c-41 -18 -56 -33 -74 -67 -27 -52 -29 -124 -4 -161 23 -36
115 -70 164 -61 100 18 147 74 139 169 -6 69 -40 109 -112 130 -60 18 -50 19
-113 -10z m138 -40 c16 -9 35 -27 41 -40 22 -49 -18 -136 -57 -121 -9 3 -18
-1 -21 -9 -9 -22 -24 -18 -24 5 0 11 -7 20 -15 20 -8 0 -15 7 -15 15 0 22 -16
18 -38 -10 -36 -45 -46 -22 -11 26 23 32 11 38 -26 13 -15 -9 -25 -12 -25 -6
0 15 39 50 62 58 29 9 15 29 -18 26 l-29 -4 24 25 c20 22 30 25 72 21 27 -2
63 -11 80 -19z"></path>
</g>
</svg>