<?xml version="1.0" standalone="no"?>
<!DOCTYPE svg PUBLIC "-//W3C//DTD SVG 20010904//EN"
 "http://www.w3.org/TR/2001/REC-SVG-20010904/DTD/svg10.dtd">
<svg version="1.0" xmlns="http://www.w3.org/2000/svg"
 width="786.000000pt" height="808.000000pt" viewBox="0 0 786.000000 808.000000"
 preserveAspectRatio="xMidYMid meet">
<metadata>
Created by potrace 1.16, written by Peter Selinger 2001-2019
</metadata>
<g transform="translate(0.000000,808.000000) scale(0.100000,-0.100000)"
fill="#000000" stroke="none">
<path d="M2580 8061 c-5 -11 -10 -27 -10 -35 0 -9 -5 -16 -11 -16 -7 0 -9 -11
-5 -32 4 -18 8 -40 9 -48 4 -24 80 -128 97 -134 8 -3 29 -14 45 -25 20 -13 42
-18 65 -15 l35 4 -40 -14 c-22 -8 -69 -23 -105 -34 -36 -12 -74 -24 -84 -28
-11 -4 -17 -3 -14 2 3 5 -30 45 -73 89 -60 60 -76 82 -67 90 7 5 19 18 27 28
12 15 11 20 -9 37 -29 25 -33 25 -55 0 -23 -26 -24 -26 -63 11 l-33 31 -25
-23 -24 -23 32 -33 c30 -31 31 -34 18 -59 -13 -24 -13 -28 9 -45 17 -14 27
-17 35 -9 5 5 16 10 24 10 15 0 42 -24 42 -37 0 -5 20 -29 45 -53 l44 -44 -42
-18 c-23 -11 -71 -31 -107 -45 -36 -13 -90 -38 -121 -54 -49 -25 -58 -27 -63
-13 -7 19 30 74 50 74 8 0 14 5 14 10 0 14 33 13 48 -2 16 -16 52 17 52 47 0
28 -17 35 -79 35 -37 0 -57 -7 -89 -30 -23 -17 -42 -36 -42 -44 0 -8 -6 -16
-12 -18 -8 -3 -13 -26 -14 -62 l-1 -58 -104 -60 c-57 -32 -120 -70 -139 -82
-19 -13 -66 -43 -105 -67 -61 -38 -191 -132 -205 -148 -3 -3 -12 -10 -21 -16
-19 -11 -117 -93 -197 -163 -43 -38 -237 -231 -277 -276 -115 -127 -315 -387
-315 -409 0 -3 -13 -21 -30 -39 -16 -18 -30 -37 -30 -42 0 -5 -8 -16 -19 -25
-10 -9 -21 -26 -25 -37 -4 -12 -26 -55 -49 -96 -23 -41 -51 -93 -61 -116 -15
-33 -23 -41 -38 -36 -19 6 -24 -6 -8 -22 7 -7 -1 -32 -21 -74 -17 -36 -35 -74
-40 -85 -72 -172 -114 -301 -167 -505 -65 -251 -102 -473 -117 -700 -15 -241
-11 -224 -66 -279 -27 -27 -49 -56 -49 -63 0 -7 22 9 48 35 26 26 50 47 52 47
3 0 6 -68 7 -150 1 -83 -1 -148 -6 -146 -5 3 -12 -9 -15 -27 -5 -25 -2 -36 14
-49 16 -13 23 -39 35 -132 8 -63 22 -150 30 -193 8 -43 15 -81 15 -84 0 -4
-24 -1 -54 6 -74 17 -103 10 -111 -27 -10 -43 -13 -42 123 -51 28 -2 54 -6 55
-8 5 -7 27 -86 27 -98 0 -7 -9 -9 -24 -5 -44 11 -68 -4 -64 -38 3 -28 9 -33
55 -49 28 -9 53 -15 55 -13 3 2 12 -21 22 -51 16 -51 16 -56 0 -80 -20 -31
-37 -32 -64 -2 -18 19 -31 22 -85 21 -57 0 -67 -4 -90 -28 -25 -27 -25 -29
-25 -192 l0 -164 53 -2 c28 0 60 0 71 1 10 0 24 -3 30 -7 6 -5 66 -9 133 -8
68 1 123 -2 123 -6 0 -4 6 -5 13 -2 8 3 32 -35 67 -107 30 -62 75 -146 99
-188 23 -42 54 -95 67 -118 13 -23 24 -44 24 -47 0 -3 -15 -7 -32 -9 -29 -3
-28 -4 8 -5 26 -1 44 -8 47 -16 5 -14 113 -180 130 -201 29 -36 111 -146 131
-175 13 -19 35 -47 49 -62 14 -15 27 -31 28 -36 16 -42 414 -445 532 -539 39
-31 75 -61 78 -65 6 -10 156 -118 207 -149 17 -12 32 -25 32 -30 0 -5 5 -9 11
-9 6 0 43 -22 82 -48 239 -160 588 -322 917 -424 69 -21 143 -43 165 -48 22
-5 69 -16 105 -24 161 -39 296 -60 520 -81 36 -4 68 -12 72 -18 6 -9 12 -9 28
1 11 6 27 12 35 12 8 0 15 7 15 16 0 11 -6 15 -19 11 -19 -5 -20 1 -17 122 2
69 4 154 5 189 l1 62 163 0 c285 0 623 45 869 114 195 55 565 195 634 241 30
20 30 20 43 -13 6 -15 44 -90 86 -167 41 -77 74 -143 75 -146 0 -8 -194 -103
-265 -130 -27 -11 -59 -23 -70 -28 -60 -26 -90 -36 -195 -71 -364 -120 -727
-181 -1092 -184 -115 0 -208 -5 -208 -10 0 -9 445 -2 505 8 17 2 55 7 85 11
381 42 826 174 1172 346 45 23 80 35 83 29 9 -14 27 -12 22 3 -2 7 33 34 87
65 101 59 130 78 226 142 195 131 201 136 375 285 138 117 366 354 437 452 13
17 52 69 88 115 35 46 88 119 117 163 29 44 56 85 61 90 4 6 30 51 57 100 26
50 59 106 72 125 12 19 23 38 23 42 0 4 25 59 55 123 30 63 55 117 55 119 0 3
13 33 29 68 83 178 194 557 231 788 27 167 48 339 55 468 l7 112 49 0 c35 0
51 -5 58 -17 17 -31 45 8 48 65 1 26 5 89 9 140 4 59 3 92 -4 92 -19 0 -32
-28 -30 -66 3 -47 -23 -193 -34 -195 -4 -1 -15 -1 -23 -1 -8 0 -28 0 -45 1
l-30 1 0 122 c0 227 -38 545 -95 793 -42 185 -116 439 -145 500 -5 11 -21 51
-35 89 -14 38 -41 101 -59 140 -18 39 -37 82 -41 96 -4 14 -16 37 -26 52 -11
14 -19 33 -19 42 0 9 -4 16 -9 16 -5 0 -12 13 -16 30 -4 16 -10 32 -15 35 -5
3 -25 33 -44 68 -20 34 -42 71 -49 82 -210 336 -242 379 -460 625 -110 125
-154 166 -165 155 -4 -3 3 -14 14 -23 20 -16 189 -201 230 -251 10 -13 34 -40
52 -60 18 -20 46 -56 63 -81 27 -41 28 -45 12 -52 -15 -7 -14 -8 4 -4 26 5 70
-49 152 -184 29 -47 70 -114 92 -150 23 -36 47 -79 54 -96 l12 -30 -86 -49
c-47 -27 -121 -71 -165 -97 -46 -29 -76 -42 -72 -33 3 9 2 14 -3 11 -4 -3 -18
14 -30 37 -58 110 -256 403 -310 458 -9 9 -38 46 -66 82 -65 86 -334 351 -454
447 -51 41 -107 87 -124 102 -18 15 -37 28 -44 28 -6 0 -13 4 -15 8 -1 5 -47
37 -100 72 -85 55 -96 65 -87 82 5 10 15 15 21 12 7 -5 8 -2 4 5 -7 11 1 27
75 139 16 23 29 45 29 47 0 15 63 104 71 99 5 -3 6 -10 3 -16 -5 -7 -2 -8 5
-4 10 7 119 -56 165 -96 6 -5 52 -38 101 -74 107 -77 136 -104 129 -115 -3 -5
1 -7 8 -4 7 3 27 -7 44 -22 18 -16 66 -57 107 -93 42 -36 79 -73 82 -84 5 -13
10 -15 18 -7 13 13 -2 27 -175 179 -54 46 -95 89 -91 95 3 6 1 7 -5 3 -7 -4
-47 20 -94 57 -46 35 -113 83 -150 108 -36 24 -65 46 -62 50 2 3 -3 15 -11 25
-13 16 -14 17 -9 2 3 -10 4 -18 1 -18 -7 0 -151 81 -157 89 -3 3 -21 14 -40
24 -19 10 -51 26 -70 37 -243 131 -652 291 -860 334 -36 7 -83 18 -105 24 -75
21 -180 42 -230 47 -27 3 -57 8 -65 10 -31 9 -189 26 -319 35 -81 6 -137 14
-141 21 -5 7 -9 8 -11 1 -3 -7 -55 -12 -139 -13 -272 -5 -583 -42 -792 -95
-32 -7 -62 -14 -68 -14 -18 0 -11 20 16 45 23 21 27 35 32 96 3 39 1 74 -4 78
-14 9 -34 49 -34 66 0 12 -14 15 -66 15 -69 0 -73 -6 -28 -43 21 -16 64 -92
64 -112 0 -4 -7 -25 -17 -46 -14 -32 -22 -39 -55 -44 -42 -7 -93 8 -118 35
-29 31 -60 79 -60 94 0 8 -5 18 -11 22 -8 5 -6 10 5 16 9 5 14 14 10 19 -7 12
14 39 41 49 14 6 3 9 -37 9 -47 1 -59 -3 -68 -18z m1326 -300 c-2 -64 -4 -152
-5 -196 l-1 -80 -123 0 c-187 -1 -416 -21 -400 -35 4 -4 76 -1 158 6 83 6 198
13 258 13 l107 1 0 -44 0 -43 -166 -2 c-310 -3 -650 -59 -939 -156 -217 -73
-325 -116 -458 -186 -56 -30 -59 -30 -72 -12 -33 44 -29 49 114 119 75 36 172
79 216 96 78 29 113 48 86 48 -22 0 -281 -105 -370 -150 -67 -35 -85 -40 -92
-29 -5 8 -6 22 -3 33 5 14 3 16 -7 11 -11 -6 -11 -5 -2 5 12 13 10 17 -20 75
-23 43 -115 138 -127 130 -5 -3 -16 -3 -22 2 -14 8 -18 9 -58 12 -23 2 -22 4
15 23 21 11 41 17 42 12 2 -5 8 -16 13 -24 13 -21 23 -5 11 18 -8 15 -7 23 2
30 15 12 65 27 55 17 -14 -14 26 -34 69 -35 42 0 93 17 93 31 0 4 23 19 50 33
49 26 51 26 75 9 29 -22 30 -26 8 -61 -36 -54 -52 -64 -96 -60 -33 3 -47 -1
-64 -19 -22 -21 -31 -45 -15 -41 4 1 21 -6 39 -15 36 -19 69 -22 78 -7 4 6 10
8 15 5 9 -6 110 82 108 94 -1 3 4 19 10 34 15 35 16 87 1 87 -5 0 -8 4 -4 9 3
6 -7 21 -22 35 -26 24 -48 31 -83 26 -28 -4 -4 9 63 35 73 27 92 31 82 15 -3
-5 -1 -10 5 -10 6 0 8 -5 4 -12 -5 -8 0 -9 14 -6 12 4 20 3 17 -1 -2 -5 6 -14
19 -21 20 -10 28 -9 52 6 34 23 63 54 64 71 0 6 -7 18 -15 27 -14 13 -11 16
27 26 24 7 72 21 108 31 36 11 79 22 95 25 17 2 44 9 60 13 17 5 64 14 105 21
41 6 97 16 123 21 94 18 325 40 477 45 85 3 156 7 157 8 1 0 17 2 37 2 l36 1
-4 -116z m149 97 c52 -6 92 -15 89 -20 -3 -4 -1 -8 5 -8 5 0 11 5 13 10 6 19
296 -19 503 -66 276 -63 601 -177 835 -293 144 -72 267 -138 296 -159 l21 -17
-65 -105 c-36 -58 -76 -125 -90 -150 -13 -25 -28 -50 -33 -57 -11 -12 -13 -11
-124 53 -125 71 -443 216 -525 238 -14 4 -34 11 -45 16 -22 9 -160 51 -246 74
-46 13 -170 40 -274 60 -111 22 -329 45 -422 46 l-73 0 0 179 c0 99 3 186 6
195 7 19 9 19 129 4z m150 -414 c66 -8 142 -18 168 -21 33 -4 44 -9 35 -15 -8
-6 -2 -7 19 -3 66 13 522 -114 698 -195 33 -15 70 -30 83 -34 12 -4 20 -12 17
-17 -3 -5 0 -6 8 -3 12 4 96 -30 137 -57 8 -5 29 -16 45 -24 17 -9 46 -25 65
-36 19 -12 56 -32 82 -46 l47 -25 -16 -34 c-9 -19 -21 -34 -27 -34 -6 0 -64
29 -129 65 -65 36 -123 65 -128 65 -23 0 -5 -18 39 -40 26 -13 74 -40 107 -60
34 -20 69 -39 78 -43 9 -3 17 -11 17 -16 0 -5 -26 -52 -58 -103 -33 -51 -74
-119 -93 -150 -18 -32 -37 -58 -41 -58 -4 0 -8 -6 -8 -14 0 -24 -26 -38 -40
-21 -7 8 -16 12 -21 9 -5 -3 -9 -1 -9 4 0 5 -71 44 -157 87 -87 42 -166 81
-175 86 -10 5 -22 9 -28 9 -5 0 -33 11 -62 24 -92 41 -295 101 -463 137 -107
23 -370 58 -438 59 l-48 0 2 138 c1 75 4 142 7 147 4 6 5 41 3 79 l-3 68 49
-6 c26 -3 89 -8 138 -11 50 -4 117 -11 150 -17 33 -6 69 -12 80 -13 97 -14
176 -29 263 -51 57 -14 106 -23 109 -20 8 7 -1 10 -147 45 -69 17 -161 35
-205 41 -44 6 -107 15 -140 20 -65 10 -172 19 -247 20 l-48 0 0 43 0 43 83 -3
c45 -2 136 -11 202 -19z m-306 -221 c-1 -81 -4 -178 -7 -215 l-4 -67 -97 1
c-203 2 -511 -39 -716 -97 -33 -10 -71 -19 -85 -22 -14 -2 -34 -8 -45 -13 -11
-5 -42 -16 -70 -26 -27 -9 -54 -21 -60 -26 -5 -4 -16 -8 -25 -8 -8 -1 -33 -9
-55 -20 -22 -11 -43 -19 -47 -20 -4 0 -48 -20 -99 -45 -50 -25 -95 -42 -100
-39 -5 3 -30 45 -55 92 -25 48 -68 127 -95 177 -27 49 -49 92 -49 95 1 6 219
111 305 146 201 82 498 161 725 194 41 6 91 13 110 16 75 11 211 20 338 22
l133 3 -2 -148z m-1929 76 c0 -6 9 -9 19 -6 30 7 131 -79 131 -113 0 -9 5 -21
11 -27 18 -18 -24 -83 -55 -83 -8 0 -18 -5 -21 -11 -10 -15 -66 0 -98 27 -16
13 -34 24 -40 24 -18 0 -51 78 -49 113 3 33 39 76 59 70 6 -2 14 1 18 6 8 14
25 14 25 0z m-156 -17 c-31 -20 -33 -94 -4 -152 21 -41 104 -127 129 -134 9
-2 28 -7 44 -10 36 -8 34 -18 -5 -39 -18 -10 -45 -25 -59 -34 -26 -16 -27 -16
-64 26 -46 51 -104 82 -148 80 -61 -3 -77 0 -71 16 7 17 -13 20 -35 6 -11 -7
-11 -10 3 -18 14 -8 10 -14 -24 -38 -28 -21 -42 -40 -46 -64 -7 -35 -31 -71
-48 -71 -16 0 -46 -32 -46 -50 0 -10 8 -20 18 -24 33 -11 77 -44 75 -55 -2 -6
9 -14 24 -18 57 -14 56 -26 -8 -87 -59 -57 -61 -57 -102 -50 -23 5 -47 9 -54
9 -6 0 -15 4 -19 8 -4 4 -20 7 -36 7 -15 0 -28 3 -28 8 0 4 -17 8 -37 9 -21 1
-53 5 -71 8 -34 8 -72 -14 -72 -41 0 -7 -5 -14 -11 -16 -12 -4 38 -84 66 -108
8 -7 15 -19 15 -26 0 -8 4 -14 9 -14 4 0 21 -18 35 -41 l28 -41 -45 -56 c-72
-92 -141 -186 -188 -256 -24 -36 -51 -66 -59 -66 -8 0 -23 -7 -34 -15 -21 -16
-9 -21 -196 101 -98 64 -105 71 -95 92 5 12 13 22 17 22 5 0 8 4 8 9 0 11 60
111 76 126 5 6 21 27 35 47 13 21 27 38 32 38 4 0 7 5 7 11 0 13 135 180 231
284 40 44 82 90 93 103 11 12 26 22 33 22 7 0 13 4 13 9 0 7 93 101 154 156
106 96 429 333 456 334 10 0 11 -2 4 -7z m446 -279 c0 -6 -10 -15 -22 -19 -13
-3 -30 -12 -38 -19 -8 -7 -40 -25 -70 -41 -30 -15 -59 -33 -65 -39 -10 -12
-138 -95 -146 -95 -12 0 1 94 13 101 8 5 39 24 67 44 29 19 67 38 85 41 17 3
40 16 51 29 11 13 36 33 55 44 l34 20 18 -27 c10 -15 18 -32 18 -39z m33 -60
c13 -21 44 -76 69 -123 26 -47 62 -113 81 -147 l36 -63 -60 -35 c-32 -19 -65
-33 -72 -31 -6 1 -8 1 -3 -2 4 -2 -32 -31 -80 -63 -133 -89 -177 -121 -279
-208 l-92 -80 -107 112 c-81 85 -103 114 -94 122 7 5 18 24 24 42 14 37 4 50
-33 47 -13 0 -23 2 -23 7 0 5 -7 5 -17 2 -11 -4 -14 -3 -9 6 4 7 17 9 29 6 17
-5 19 -4 7 4 -12 8 -10 14 13 35 31 29 38 32 35 14 -2 -7 4 -12 14 -10 9 1 25
-9 36 -23 11 -14 23 -25 28 -25 4 0 19 -11 33 -24 43 -40 64 -41 91 -4 15 21
19 33 12 36 -7 2 -30 19 -52 37 -22 19 -49 37 -60 40 -11 4 -20 10 -20 15 0
11 46 40 65 40 8 0 24 20 36 48 18 40 34 56 112 108 51 34 106 69 122 78 17
10 53 30 80 46 28 16 51 30 52 30 2 0 13 -17 26 -37z m-554 -16 c20 -12 46
-27 56 -33 40 -22 30 -48 -45 -107 -39 -32 -74 -57 -79 -57 -5 0 -28 18 -50
39 -36 35 -40 44 -38 80 3 40 19 62 62 86 30 18 55 15 94 -8z m3934 -4 c23
-15 54 -38 69 -51 14 -13 29 -23 33 -22 4 1 31 -15 60 -36 41 -30 53 -44 51
-60 -4 -18 0 -21 23 -18 28 3 55 -15 185 -129 71 -62 209 -201 276 -277 145
-165 210 -246 205 -257 -2 -7 1 -12 7 -10 6 1 21 -14 34 -33 13 -19 42 -62 64
-95 109 -161 175 -279 165 -295 -4 -6 -13 -10 -21 -10 -8 0 -14 -4 -14 -9 0
-17 -31 -21 -37 -5 -7 20 -113 194 -168 279 -46 69 -201 269 -260 335 -22 24
-64 70 -92 101 -29 30 -50 59 -45 63 4 4 2 6 -3 4 -14 -4 -86 63 -79 74 3 5 2
7 -3 6 -5 -2 -28 15 -51 36 -24 22 -66 57 -95 79 -29 21 -65 51 -82 66 -27 25
-181 137 -277 201 -38 25 -38 37 -4 76 14 17 10 18 59 -13z m-1958 -4 c-2 -3
-5 -37 -6 -75 -1 -38 -6 -75 -11 -81 -7 -9 -2 -16 18 -24 34 -13 79 -1 79 21
0 21 25 57 31 45 17 -37 23 -40 40 -24 13 14 14 20 2 38 -7 11 -22 20 -33 19
-11 0 -35 0 -54 0 -33 2 -33 2 -26 40 4 20 8 38 9 39 1 1 31 5 66 8 l63 5 -7
-398 c-3 -218 -6 -625 -7 -903 l0 -506 -49 -32 c-27 -17 -82 -65 -122 -106
-40 -41 -76 -75 -80 -75 -5 0 -8 7 -8 16 0 10 -6 14 -15 10 -8 -3 -15 -2 -15
3 0 5 15 12 33 15 l32 7 -24 19 c-25 21 -91 28 -91 9 0 -6 5 -20 11 -31 9 -17
8 -23 -5 -30 -13 -7 -14 -12 -3 -31 23 -41 34 -48 47 -32 10 12 9 15 -4 15 -9
0 -16 5 -16 11 0 6 7 8 16 5 9 -3 20 -6 25 -6 5 0 -11 -28 -36 -61 -25 -34
-66 -101 -92 -148 -25 -47 -48 -88 -50 -91 -3 -3 -18 11 -35 30 -17 19 -85 91
-152 160 -67 69 -197 205 -289 302 -92 97 -167 173 -167 168 0 -12 47 -66 130
-151 36 -37 124 -129 195 -205 72 -75 136 -143 143 -151 12 -11 10 -17 -13
-35 -20 -15 -24 -23 -15 -32 11 -11 30 6 44 38 3 6 38 -25 79 -68 74 -79 75
-80 62 -110 -27 -63 -64 -229 -71 -311 -4 -57 -11 -85 -19 -85 -13 0 -72 62
-115 119 -14 19 -65 83 -115 143 -49 59 -126 153 -170 209 -74 93 -193 234
-270 320 -50 56 -64 80 -58 98 4 13 3 14 -6 1 -5 -8 -12 -12 -14 -10 -2 3 -11
15 -19 28 -9 12 -35 44 -60 70 -61 66 -256 289 -298 341 -19 25 -34 48 -32 53
1 5 -1 7 -6 4 -5 -3 -26 16 -47 42 -22 26 -43 48 -47 50 -11 5 38 74 68 97 15
11 48 37 73 58 46 37 61 44 61 28 0 -17 349 -391 365 -391 15 0 -25 46 -147
172 -180 185 -218 226 -218 235 1 5 48 45 105 89 l104 82 -27 30 c-86 96 -111
122 -119 122 -5 0 -39 -28 -75 -62 -36 -35 -102 -94 -148 -133 -45 -38 -99
-85 -119 -102 -20 -18 -41 -33 -48 -33 -6 0 -14 -6 -17 -12 -3 -10 -8 -8 -16
4 -6 9 -16 23 -23 30 -6 7 -34 40 -62 73 -71 86 -85 100 -85 89 0 -11 26 -50
49 -74 53 -53 91 -109 85 -126 -5 -15 -4 -16 5 -4 5 8 11 12 13 10 34 -45 98
-119 116 -134 13 -10 21 -25 18 -32 -3 -8 -2 -13 2 -12 10 4 159 -157 210
-227 16 -22 53 -62 81 -89 37 -37 48 -53 40 -62 -8 -9 -5 -11 10 -7 12 3 21 1
21 -3 0 -5 10 -21 23 -34 12 -14 47 -55 77 -90 30 -36 57 -67 61 -70 3 -3 37
-43 74 -89 38 -47 76 -92 84 -101 53 -54 90 -104 84 -113 -3 -5 -1 -7 4 -4 6
4 16 0 23 -8 7 -8 9 -15 4 -15 -5 0 2 -7 14 -16 12 -8 19 -20 16 -26 -4 -6 -2
-8 4 -4 6 3 23 -10 39 -31 15 -21 35 -45 43 -53 23 -23 50 -76 43 -84 -4 -4
-1 -5 7 -2 10 3 31 -16 59 -54 25 -33 80 -99 123 -148 42 -48 78 -93 78 -101
0 -11 -6 -9 -22 5 l-23 19 18 -22 c11 -12 24 -19 31 -17 7 3 19 -2 26 -11 11
-14 6 -15 -51 -11 -35 3 -149 7 -254 9 -324 8 -1032 36 -1431 57 -209 11 -398
20 -419 20 -35 0 -37 1 -20 13 10 8 15 19 12 24 -4 6 0 16 8 23 15 13 19 8 16
-21 -2 -22 25 -32 51 -18 15 8 17 14 9 22 -6 6 -11 25 -11 42 0 42 -21 80 -45
79 -36 -1 -63 -14 -68 -34 -6 -24 1 -25 22 -6 14 13 18 12 28 -11 10 -21 10
-24 -3 -19 -9 4 -12 2 -8 -5 6 -10 -41 -58 -58 -59 -5 0 -5 16 -2 35 3 22 1
35 -5 35 -6 0 -12 -12 -13 -27 0 -16 -1 -35 -2 -43 -1 -17 -46 -27 -46 -11 0
6 -5 11 -10 11 -7 0 -7 -6 0 -20 6 -11 14 -19 18 -19 36 6 39 -7 46 -206 7
-186 33 -355 86 -560 24 -94 94 -303 120 -361 11 -22 28 -63 38 -90 11 -27 38
-85 61 -129 36 -70 40 -91 15 -85 -4 1 -10 -2 -13 -7 -11 -17 -284 -166 -384
-210 -27 -12 -27 -12 -63 59 -19 40 -38 77 -43 83 -4 5 -22 46 -40 90 -18 44
-40 96 -48 115 -69 158 -182 552 -169 586 3 9 1 24 -4 34 -10 19 -53 211 -48
215 2 1 20 5 40 8 l37 6 6 -47 c11 -83 28 -158 33 -139 2 9 -1 39 -7 65 -5 26
-13 82 -17 125 -6 70 -14 91 -28 69 -7 -11 -36 -9 -58 4 -19 10 -30 89 -13 89
5 0 9 -2 8 -5 -1 -3 23 -5 52 -6 39 -1 52 2 48 11 -2 7 0 16 6 20 21 12 12 43
-14 49 -22 6 -25 11 -25 56 0 39 4 50 19 55 24 7 91 82 91 101 0 8 10 14 22
14 19 0 20 2 6 13 -10 7 -18 34 -21 73 -5 65 -14 79 -72 121 -31 22 -32 25
-26 112 1 9 9 11 28 7 16 -4 36 -7 45 -7 9 0 19 -6 22 -14 3 -10 14 -11 40 -5
32 7 36 6 36 -12 0 -15 5 -18 20 -13 14 4 20 2 20 -9 0 -10 -8 -13 -30 -11
-34 5 -37 -1 -14 -33 11 -16 24 -22 42 -20 22 2 28 9 30 35 3 34 -23 82 -45
83 -15 0 -17 12 -4 26 5 5 13 26 16 47 6 33 5 37 -13 37 -12 0 -24 5 -27 10
-12 19 -24 10 -27 -22 -3 -37 -26 -47 -62 -30 -11 6 -29 12 -39 14 -22 4 -22
0 -13 74 6 60 8 61 34 58 33 -4 140 -21 168 -28 12 -2 45 -7 75 -11 30 -3 69
-10 88 -15 19 -5 38 -7 43 -4 5 3 6 -15 3 -43 -4 -26 -12 -93 -19 -148 -7 -55
-10 -104 -7 -110 6 -11 13 28 31 165 14 110 44 262 64 323 8 23 24 77 35 120
30 111 103 292 171 421 86 165 88 169 105 191 9 11 40 57 69 102 29 46 56 80
60 75 4 -4 6 -2 4 3 -3 9 75 118 110 154 12 12 15 12 24 0 8 -11 9 -10 4 4 -6
20 17 50 29 39 5 -4 5 -1 1 5 -7 12 32 56 112 127 l33 29 50 -49 c27 -26 49
-44 49 -38 0 5 -21 29 -46 54 l-46 44 44 41 c58 53 105 93 158 135 25 19 47
38 48 42 2 4 9 8 15 8 6 0 18 6 26 14 44 39 278 177 293 173 9 -3 16 -1 15 4
-3 15 192 114 288 144 22 7 65 22 95 33 204 73 434 124 660 145 156 14 170 15
165 6z m412 -9 c140 -18 363 -61 463 -90 41 -12 84 -24 95 -27 22 -5 60 -20
87 -34 10 -5 23 -9 29 -9 6 0 25 -6 42 -14 18 -8 66 -28 108 -45 79 -32 235
-110 279 -140 14 -10 40 -23 58 -30 35 -14 38 -22 22 -52 -14 -25 2 -25 18 1
12 19 13 19 60 -10 26 -17 59 -40 74 -52 15 -12 31 -18 35 -13 5 4 2 10 -4 12
-7 3 -39 22 -70 44 -32 21 -62 40 -66 42 -12 4 50 112 63 109 6 -1 9 2 5 8 -7
11 92 180 106 180 5 0 9 9 9 20 0 11 7 20 16 20 8 0 13 4 9 9 -3 5 -1 12 4 15
19 12 363 -234 357 -256 -1 -7 -1 -10 1 -5 8 13 25 7 20 -7 -4 -10 -1 -13 8
-10 8 4 88 -69 207 -188 195 -194 353 -384 463 -558 26 -41 56 -87 66 -102 28
-40 69 -115 69 -127 0 -5 -53 -38 -117 -72 -65 -35 -143 -78 -173 -96 -30 -18
-60 -33 -65 -33 -6 0 -26 26 -44 58 -19 31 -47 76 -62 100 -16 23 -29 45 -29
48 0 3 -11 22 -25 42 -27 40 -31 52 -14 52 5 0 8 -4 5 -9 -3 -5 1 -12 10 -15
13 -5 12 0 -4 28 -15 25 -17 33 -6 29 8 -3 14 -1 14 5 0 18 -28 21 -41 5 -11
-13 -19 -9 -56 33 -24 27 -60 71 -81 98 -20 27 -65 78 -99 114 l-62 65 30 28
c17 16 35 26 40 23 5 -3 8 -1 7 4 -2 5 45 58 104 117 102 102 116 126 82 139
-9 3 -14 -2 -15 -14 -1 -11 -2 -23 -3 -28 -2 -14 -86 -89 -92 -83 -4 3 -4 1
-1 -5 8 -14 -92 -106 -106 -97 -6 3 -7 2 -4 -4 4 -5 -7 -22 -23 -38 l-28 -27
-89 78 c-48 43 -91 82 -95 88 -4 6 -10 7 -14 3 -5 -4 8 -21 27 -38 129 -115
169 -166 126 -163 -8 1 -13 -4 -11 -10 4 -10 -64 -81 -160 -166 -9 -8 -62 -60
-117 -115 -55 -55 -204 -202 -330 -328 l-230 -228 -32 18 c-18 10 -35 22 -39
27 -9 13 -38 -12 -38 -31 0 -10 -7 -14 -20 -10 -11 3 -18 1 -15 -3 3 -5 1 -11
-4 -15 -6 -3 -15 4 -21 15 -7 13 -18 19 -26 16 -8 -3 -26 -1 -41 5 -22 8 -30
6 -47 -11 -17 -17 -18 -20 -4 -20 26 0 33 -39 11 -56 -12 -9 -14 -16 -7 -21 6
-5 14 -18 18 -30 9 -29 23 -29 31 -2 9 28 56 69 74 66 8 -1 16 -15 18 -32 3
-16 6 -32 9 -34 4 -4 -220 -236 -266 -275 -14 -12 -78 -73 -142 -135 -88 -86
-118 -110 -118 -95 0 33 -94 216 -157 306 -58 84 -126 156 -220 237 -29 25
-50 48 -47 53 3 4 -2 5 -10 2 -11 -4 -16 0 -17 12 -1 49 2 1382 4 1551 l2 193
72 0 c39 0 107 -5 150 -10z m-2532 -466 c14 -9 25 -25 25 -36 0 -10 7 -48 16
-84 14 -53 20 -64 34 -59 9 3 23 -2 30 -10 11 -14 10 -17 -8 -21 -27 -8 -35
-30 -23 -68 11 -33 22 -113 22 -158 0 -19 -22 -56 -69 -115 -89 -113 -182
-247 -182 -262 0 -6 -4 -11 -8 -11 -12 0 -112 56 -141 79 -27 21 -23 50 8 58
19 5 41 42 41 70 0 17 -28 42 -47 43 -7 0 -13 -7 -13 -15 0 -21 -8 -19 -75 15
-32 17 -65 30 -72 30 -7 0 -13 5 -13 10 0 12 90 148 112 171 8 8 28 34 46 59
17 25 41 56 52 69 l20 24 35 -39 c19 -21 34 -43 35 -47 0 -9 46 -57 54 -57 3
0 13 14 22 31 18 36 13 52 -43 127 -23 30 -30 48 -25 62 7 19 127 150 137 150
3 0 17 -7 30 -16z m134 -101 c114 -115 168 -177 148 -170 -10 4 -16 3 -13 -2
7 -10 -91 -107 -104 -104 -5 2 -7 -4 -4 -12 4 -8 1 -15 -5 -15 -6 0 -14 -1
-18 -2 -7 -3 -20 38 -28 82 -2 14 -7 40 -11 58 -5 25 -3 32 9 32 16 0 27 20
27 50 0 12 -10 21 -29 25 -23 5 -31 14 -40 48 -16 59 -21 87 -14 87 3 0 40
-35 82 -77z m-417 -58 c9 -21 14 -23 26 -12 20 16 -10 -33 -58 -93 -53 -67
-55 -70 -104 -136 -25 -34 -46 -65 -46 -69 0 -4 -8 -17 -17 -29 -19 -23 -53
-24 -53 -1 0 8 -7 11 -21 8 -18 -5 -13 6 27 68 27 41 57 83 67 93 9 11 17 23
17 26 0 7 4 12 75 96 22 26 44 53 48 60 12 21 26 17 39 -11z m1038 -184 c0 -4
12 -22 28 -39 52 -59 53 -59 41 -84 -6 -13 -31 -39 -55 -58 -25 -19 -72 -59
-104 -87 -33 -29 -64 -53 -68 -53 -5 0 -41 -31 -80 -70 l-72 -69 -32 41 c-18
22 -42 50 -53 62 l-20 21 103 78 c57 43 107 75 111 72 5 -3 7 3 4 14 -6 23 16
38 29 20 8 -11 9 -11 5 2 -4 12 12 31 53 62 32 25 66 57 76 71 19 25 34 33 34
17z m-1619 -76 c25 -16 76 -48 112 -70 47 -28 65 -44 60 -55 -3 -8 -11 -28
-17 -45 -6 -16 -13 -32 -16 -35 -3 -3 -6 -16 -6 -30 -1 -14 -5 -34 -10 -44 -5
-14 -4 -17 4 -12 15 9 7 -12 -42 -113 -31 -65 -76 -126 -76 -104 0 10 -27 -35
-36 -59 -3 -10 -10 -18 -14 -18 -9 0 -12 -42 -9 -125 0 -16 -10 -64 -24 -105
-18 -57 -31 -80 -54 -95 -60 -41 -85 -139 -57 -225 22 -65 5 -170 -27 -170 -5
0 -9 9 -9 20 0 11 -3 20 -7 21 -5 0 -18 2 -31 5 -23 4 -30 -5 -37 -43 -2 -17
-24 -20 -35 -4 -3 4 -21 7 -40 6 -33 0 -35 -2 -38 -35 -3 -35 -2 -36 40 -45
35 -8 42 -14 40 -31 -2 -14 6 -24 23 -32 36 -16 46 -15 43 6 -2 13 3 16 22 14
13 -1 28 -6 32 -10 6 -7 -7 -101 -17 -110 -2 -3 -25 -6 -50 -7 -37 -1 -50 -7
-74 -34 -39 -43 -64 -98 -67 -141 l-1 -35 -74 3 c-80 4 -91 7 -69 23 12 9 11
9 -5 4 -11 -4 -26 -9 -33 -12 -7 -3 -10 0 -8 8 3 8 7 66 11 129 7 129 10 166
20 248 4 31 9 73 11 92 2 19 8 55 14 80 5 25 12 63 14 85 6 50 51 245 71 305
8 25 27 88 43 140 34 109 119 324 163 414 69 137 126 245 152 288 12 18 1 23
108 -47z m5230 -53 c110 -119 141 -159 259 -327 85 -122 132 -204 126 -220 -3
-9 0 -12 10 -8 13 5 18 -8 17 -44 -1 -7 3 -10 8 -8 12 8 118 -218 179 -384 28
-78 42 -125 91 -311 45 -172 96 -672 71 -708 -6 -9 -26 -10 -72 -5 -56 5 -61
8 -44 20 10 7 26 10 36 7 19 -6 48 11 48 27 0 15 -60 10 -66 -5 -6 -16 -38
-10 -56 11 -16 20 7 35 47 29 38 -5 78 20 55 34 -8 5 -26 10 -40 10 -14 0 -41
3 -60 6 -31 5 -36 2 -47 -22 -20 -43 -16 -81 10 -99 21 -15 18 -15 -48 -10
-38 3 -123 8 -188 11 -64 3 -120 10 -123 15 -5 8 9 13 28 10 4 0 5 5 2 13 -3
8 -1 17 5 21 6 3 11 24 11 46 0 32 -4 41 -22 48 -13 5 -27 5 -33 1 -5 -5 -21
-10 -34 -12 -17 -2 -28 -12 -34 -33 -12 -36 -27 -48 -44 -33 -18 14 -16 26 3
24 24 -2 41 29 26 47 -13 16 -52 12 -52 -5 0 -5 -14 0 -31 13 -45 32 -138 53
-156 35 -12 -11 20 -36 56 -42 20 -4 30 -9 24 -11 -8 -3 -13 -22 -13 -49 0
-39 2 -44 23 -44 13 0 32 7 43 15 26 19 32 19 39 -5 7 -22 44 -27 61 -10 7 7
17 4 30 -11 l19 -22 -165 7 c-91 4 -187 9 -215 11 -27 3 -102 7 -165 10 -63 3
-133 8 -155 10 -22 2 -112 7 -200 10 -88 3 -173 8 -190 10 -38 6 -435 27 -498
26 -60 0 -97 34 -97 89 0 58 -36 261 -58 321 l-20 57 77 73 c42 41 169 165
282 277 187 184 209 202 226 191 16 -9 25 -8 47 6 15 10 31 26 37 36 17 32 32
22 26 -16 -6 -38 6 -45 45 -24 18 10 20 9 15 -5 -4 -9 -1 -15 6 -13 22 4 20
-51 -2 -65 -23 -14 -28 -28 -10 -28 14 0 67 58 75 83 3 9 -4 30 -16 48 -12 16
-19 33 -15 37 4 4 12 0 19 -10 9 -12 16 -14 29 -7 23 13 21 36 -3 49 -27 14
-55 5 -80 -27 l-20 -26 0 32 c0 33 -9 38 -42 20 -12 -7 -18 -7 -14 -1 3 6 2
12 -3 14 -12 4 48 66 320 333 213 210 254 245 279 238 13 -4 13 -3 0 6 -13 9
-12 14 8 33 20 20 24 21 33 8 9 -12 10 -12 5 4 -5 14 19 42 101 122 60 57 111
104 114 104 4 0 31 -26 60 -58z m1266 -169 c3 -10 12 -25 19 -33 7 -8 13 -18
13 -23 0 -4 13 -35 29 -70 64 -136 80 -174 95 -217 8 -25 34 -94 57 -155 140
-367 230 -869 230 -1282 l0 -93 -191 0 -191 0 4 100 c2 55 1 100 -3 100 -4 0
-7 35 -8 78 -2 86 -21 257 -46 402 -53 305 -184 698 -326 977 l-26 51 47 31
c26 17 51 31 54 31 4 0 23 11 44 24 58 38 166 95 180 96 7 0 15 -8 19 -17z
m-6186 -27 c-6 -7 -9 -21 -5 -30 3 -9 1 -16 -5 -16 -7 0 -11 -24 -11 -63 0
-59 2 -65 35 -97 19 -19 35 -43 35 -53 0 -22 19 -59 34 -69 6 -4 21 -8 34 -8
16 0 22 6 23 23 2 28 2 27 -6 60 -6 20 -4 27 8 27 18 0 67 55 67 76 0 8 7 14
15 14 17 0 20 16 5 25 -5 3 -10 11 -10 16 0 6 24 -3 53 -20 28 -17 51 -36 49
-42 -1 -6 2 -8 8 -4 5 3 19 1 30 -5 l21 -11 -21 -32 c-51 -78 -165 -326 -215
-467 -49 -140 -54 -159 -80 -290 -9 -45 -29 -90 -39 -90 -7 0 -48 9 -91 20
-43 11 -91 20 -107 20 -36 0 -36 11 2 32 27 15 32 16 36 3 4 -8 10 -15 15 -15
13 0 30 76 23 105 -4 15 -2 25 5 25 6 0 10 3 10 8 -3 19 2 32 13 29 18 -3 22
32 7 75 -10 31 -17 38 -38 38 -14 0 -35 7 -45 15 -28 21 -49 19 -41 -4 4 -14
0 -21 -16 -26 -22 -7 -22 -8 10 -36 43 -37 46 -83 8 -114 -15 -11 -27 -26 -27
-32 0 -6 -8 -13 -17 -16 -10 -2 -25 -7 -33 -11 -24 -9 -53 19 -41 41 16 31 51
126 57 161 4 18 11 35 15 38 22 13 8 43 -22 49 -28 6 -31 10 -25 38 3 17 8 32
10 34 6 6 109 -28 125 -41 11 -8 15 -8 18 2 3 6 17 12 31 12 63 1 161 95 147
140 -9 29 19 25 44 -6 11 -14 25 -23 31 -19 8 5 8 11 0 20 -7 8 -9 19 -5 25 4
6 3 10 -2 8 -10 -2 -88 72 -88 84 0 4 -4 9 -10 9 -5 1 -18 15 -27 30 -20 32
-43 30 -51 -4 -6 -25 -1 -120 8 -156 14 -57 -64 -80 -139 -41 -22 10 -43 17
-48 14 -16 -10 63 190 127 319 69 141 101 197 111 197 4 0 1 -6 -5 -14z m5884
-276 c108 -215 211 -516 264 -770 53 -252 74 -440 51 -455 -5 -3 -10 -11 -10
-17 0 -7 6 -6 15 2 13 11 15 3 15 -61 0 -41 3 -118 7 -171 l6 -98 -41 2 -41 1
-6 61 c-3 34 -5 70 -3 81 13 91 -52 600 -89 695 -3 8 -8 24 -10 34 -24 126
-104 368 -178 534 -20 47 -34 91 -30 100 3 9 3 13 -1 10 -3 -4 -15 3 -25 15
-26 32 -23 14 10 -57 16 -33 39 -86 51 -116 12 -30 28 -68 35 -85 28 -63 104
-315 141 -470 17 -72 50 -259 59 -335 3 -30 8 -71 10 -90 3 -19 8 -112 11
-207 l7 -171 -69 4 c-38 2 -136 6 -217 10 l-149 6 5 57 c4 55 -4 193 -18 331
-15 141 -63 365 -117 545 -31 103 -48 148 -100 270 -17 39 -45 105 -64 147
l-33 77 47 27 c25 15 69 39 96 54 28 15 88 48 132 74 79 44 112 57 99 37 -6
-11 35 -85 43 -77 2 3 -5 27 -18 53 -12 26 -18 49 -14 50 5 2 20 9 34 16 23
12 26 11 44 -18 10 -16 33 -59 51 -95z m-2953 -447 c-15 -13 -14 -13 6 -3 21
10 28 6 80 -47 62 -62 74 -78 155 -198 49 -73 100 -168 126 -236 8 -23 6 -30
-19 -54 l-29 -28 -12 29 c-27 70 -94 204 -101 204 -4 0 -8 5 -8 11 0 6 -20 40
-45 76 -25 35 -42 69 -39 75 4 6 2 8 -4 4 -13 -8 -74 68 -64 79 4 5 2 5 -4 2
-18 -10 -100 71 -96 95 4 20 2 21 -13 8 -16 -14 -17 -13 -10 10 15 50 26 53
61 19 31 -30 32 -33 16 -46z m-94 4 c-2 -27 -14 -43 -53 -76 -59 -49 -54 -44
-105 -101 -77 -85 -210 -302 -210 -342 0 -24 -12 -22 -39 6 l-23 24 33 63 c17
35 37 74 43 86 6 13 14 23 19 23 4 0 7 5 7 10 0 18 97 144 151 195 29 28 49
44 44 36 -5 -10 -4 -12 3 -7 7 4 12 12 12 17 0 13 102 99 118 99 1 0 1 -15 0
-33z m212 -236 c0 -4 8 -16 18 -27 9 -11 25 -35 35 -52 9 -18 25 -46 35 -64 9
-18 23 -38 30 -46 6 -7 12 -19 12 -25 0 -7 7 -25 15 -40 8 -15 19 -44 24 -63
9 -31 7 -39 -13 -58 l-22 -23 -39 34 c-80 69 -191 106 -315 106 -108 -1 -232
-42 -278 -94 l-29 -32 -22 32 c-23 32 -23 33 -6 79 21 56 96 189 125 219 11
12 20 26 20 30 1 4 19 26 40 48 22 22 40 44 40 48 0 5 10 5 23 2 14 -4 18 -3
9 3 -10 6 -1 20 35 53 l48 44 5 -195 c3 -107 8 -190 11 -185 4 6 5 95 4 200
-2 104 -1 194 3 199 5 9 192 -179 192 -193z m-613 -375 c-28 -87 -35 -122 -32
-165 2 -22 -1 -43 -6 -47 -5 -3 -9 -25 -9 -50 0 -44 0 -44 -36 -44 l-37 0 7
68 c9 90 40 241 61 297 l17 44 26 -26 25 -25 -16 -52z m403 69 c0 -19 5 -35
10 -35 6 0 10 15 10 34 0 34 0 35 38 29 59 -9 140 -40 192 -73 84 -54 84 -53
-1 -133 -151 -146 -189 -178 -199 -172 -6 4 -9 1 -8 -6 2 -6 -3 -14 -9 -16
-10 -4 -13 32 -14 154 -1 95 -4 148 -9 133 -4 -14 -8 -84 -9 -157 -1 -72 -5
-134 -10 -137 -7 -5 -291 284 -291 297 0 16 146 90 201 102 97 21 99 20 99
-20z m489 -42 c28 -110 50 -231 51 -272 0 -44 0 -44 -20 -26 -12 10 -18 25
-15 32 2 8 1 12 -4 9 -15 -10 -39 28 -45 74 -4 25 -15 75 -24 112 -13 56 -14
69 -2 83 7 9 19 14 26 11 8 -3 11 0 7 10 -3 7 -1 14 4 14 5 0 15 -21 22 -47z
m-538 -337 c11 -18 5 -18 -158 -12 -180 8 -223 13 -223 26 0 17 28 115 42 145
7 17 26 52 42 79 l30 49 128 -134 c71 -74 134 -142 139 -153z m-3328 206 c-1
-31 -2 -76 -2 -99 -1 -31 -5 -43 -16 -43 -8 0 -15 7 -15 16 0 8 -5 12 -10 9
-6 -3 -18 2 -27 11 -17 17 -16 17 20 11 21 -3 37 -2 37 4 0 5 -20 9 -44 9 -49
0 -55 8 -50 59 5 41 19 60 58 76 45 19 52 11 49 -53z m3722 26 c-5 -18 -4 -20
4 -8 9 13 12 12 17 -7 4 -13 10 -23 14 -23 16 0 59 -119 66 -183 l7 -67 -44 5
c-50 6 -304 25 -331 25 -42 0 -13 37 131 166 30 27 70 64 89 82 41 38 56 41
47 10z m-3992 -119 c15 0 27 -4 27 -9 0 -6 5 -10 11 -10 5 0 7 5 4 10 -4 6 6
10 23 10 30 0 42 -14 42 -51 0 -10 7 -19 15 -19 8 0 15 -4 15 -10 0 -5 7 -10
15 -10 8 0 15 -4 15 -9 0 -5 16 -12 36 -16 47 -8 59 -21 67 -67 5 -33 3 -37
-16 -36 -12 1 -27 6 -34 11 -7 5 -23 7 -36 5 -13 -1 -30 2 -38 9 -8 6 -36 13
-64 15 l-50 3 -3 -38 c-3 -31 0 -39 20 -46 13 -5 29 -6 36 -4 7 3 18 1 25 -5
6 -5 39 -13 72 -17 33 -4 66 -12 73 -17 6 -6 13 -7 13 -2 2 13 16 -47 18 -73
1 -18 -4 -23 -23 -23 -14 0 -28 5 -32 11 -3 6 -19 9 -35 5 -15 -3 -31 -1 -34
4 -3 6 -26 10 -50 10 -24 0 -47 5 -50 10 -4 6 -12 10 -18 9 -7 -2 -34 2 -62 6
-27 5 -55 8 -61 7 -14 -3 -24 30 -24 76 0 31 1 32 45 32 35 0 43 3 39 15 -4 8
-1 21 5 29 15 18 -11 40 -38 31 -10 -3 -22 -1 -26 5 -3 6 -11 8 -16 5 -5 -4
-10 11 -10 32 -1 21 -3 49 -4 63 -5 43 12 63 48 55 18 -3 44 -6 60 -6z m1122
-44 c39 -3 126 -7 195 -10 69 -2 161 -7 205 -9 85 -6 250 -12 510 -21 88 -3
212 -7 275 -10 63 -3 185 -7 270 -10 266 -9 321 -14 337 -31 8 -8 18 -12 21
-9 4 3 0 10 -8 15 -10 7 8 10 56 10 108 0 119 -12 127 -137 5 -89 40 -284 55
-308 19 -30 3 -51 -140 -186 -83 -79 -223 -215 -311 -301 -89 -86 -166 -154
-171 -151 -6 4 -8 3 -4 -2 6 -6 -72 -88 -220 -228 l-24 -22 7 25 c4 18 0 34
-16 53 -25 33 -19 45 16 29 14 -7 28 -12 30 -12 11 0 4 49 -7 54 -10 5 -10 7
0 12 6 3 12 13 13 22 0 13 3 11 11 -5 16 -32 48 -30 48 3 0 21 4 24 20 19 14
-5 20 -2 20 10 0 12 6 15 20 10 15 -5 22 0 30 20 12 32 5 46 -18 38 -15 -6
-15 -5 -3 10 13 16 14 16 26 0 14 -19 45 -11 45 12 0 8 6 15 13 15 8 0 8 3 -2
9 -8 5 -20 7 -27 4 -7 -2 -18 5 -24 16 -11 21 -11 21 -41 -9 -17 -16 -34 -30
-38 -30 -5 0 -7 -12 -5 -26 2 -25 2 -25 -17 -8 -19 17 -33 14 -35 -9 0 -7 -2
-20 -2 -29 -2 -12 -9 -17 -24 -15 -18 2 -24 -4 -26 -26 -3 -25 -6 -27 -19 -15
-14 11 -17 11 -21 0 -2 -8 -18 -29 -34 -48 -24 -27 -33 -32 -44 -23 -12 9 -14
4 -14 -28 0 -44 28 -80 55 -69 13 4 15 1 10 -14 -5 -14 -2 -20 9 -20 9 0 16 5
16 10 0 6 6 10 12 10 17 0 -63 -77 -82 -80 -34 -5 -40 1 -40 43 0 27 -3 37 -9
28 -7 -10 -13 -11 -30 -2 -29 16 -39 7 -35 -31 3 -30 2 -32 -11 -14 -17 22
-45 15 -45 -13 0 -12 -6 -18 -17 -17 -13 1 -19 -8 -21 -27 -2 -15 -7 -25 -11
-22 -5 2 -16 -4 -26 -15 -10 -11 -24 -20 -30 -20 -7 0 -23 -15 -36 -34 -13
-19 -27 -32 -31 -30 -4 3 -8 -9 -8 -25 0 -17 -4 -31 -10 -31 -5 0 -10 5 -10
11 0 5 -4 8 -9 4 -5 -3 -12 -1 -16 5 -11 17 -22 2 -23 -30 0 -24 5 -33 24 -40
14 -6 22 -14 19 -20 -3 -5 3 -10 14 -10 18 0 21 6 21 38 0 23 3 32 8 24 5 -7
16 -10 26 -6 15 6 17 3 11 -16 -6 -19 -4 -22 11 -17 11 4 -48 -58 -131 -138
-149 -144 -150 -145 -167 -124 -10 12 -15 25 -12 30 3 5 0 8 -7 7 -6 -2 -46
38 -88 88 -110 132 -117 140 -178 239 -31 50 -68 108 -82 130 -15 22 -36 58
-46 80 -11 22 -22 42 -25 45 -6 6 -80 156 -108 220 -66 148 -129 344 -171 525
-25 113 -63 342 -59 364 1 9 0 21 -4 26 -3 6 -9 72 -13 149 l-6 138 118 -6
c65 -3 150 -8 188 -11z m2066 -112 c5 -132 9 -159 56 -358 3 -13 -6 -29 -24
-48 l-29 -27 -21 87 c-23 94 -40 202 -43 268 l-1 40 21 -23 c12 -12 18 -27 15
-32 -3 -6 1 -7 9 -4 22 9 20 16 -14 49 -16 16 -30 39 -30 52 0 19 5 23 30 23
26 0 30 -4 31 -27z m294 12 c61 -2 113 -4 118 -5 27 -1 -10 -50 -124 -162
l-131 -128 -34 42 c-46 57 -71 112 -85 181 -17 84 -13 89 73 82 40 -3 123 -7
183 -10z m539 -31 l78 -7 -4 -53 c-5 -61 -62 -186 -102 -223 l-25 -23 -53 58
c-29 32 -73 79 -98 104 -66 68 -123 140 -110 140 6 0 8 5 4 12 -7 11 116 8
310 -8z m-379 -210 c-1 -112 -4 -206 -6 -208 -2 -2 -33 4 -69 13 -71 18 -210
102 -210 127 0 8 11 20 25 26 14 6 25 17 25 25 0 7 3 13 8 13 15 0 202 189
202 204 0 9 6 13 14 10 11 -4 13 -45 11 -210z m545 182 c-1 -62 -26 -209 -50
-286 -39 -123 -41 -126 -69 -97 l-22 24 26 88 c14 48 28 113 32 144 3 31 7 63
9 71 1 8 3 23 3 32 1 9 8 23 16 31 16 17 55 12 55 -7z m72 -9 c10 -11 20 -28
23 -38 4 -11 13 -19 21 -19 8 0 14 -7 14 -15 0 -8 3 -15 8 -15 4 0 25 -23 47
-51 39 -50 210 -264 243 -304 56 -68 102 -137 97 -145 -4 -6 -1 -9 6 -8 7 2
46 -40 88 -93 42 -53 94 -118 116 -144 22 -26 50 -59 62 -74 13 -14 23 -29 23
-32 0 -8 47 -59 55 -59 6 0 -46 79 -67 102 -7 7 -26 31 -42 53 -16 22 -42 54
-59 72 -16 17 -27 36 -23 41 5 9 -32 50 -41 44 -2 -2 -21 19 -41 45 -20 26
-51 64 -69 83 -18 19 -33 39 -33 43 0 5 -6 14 -12 21 -7 7 -24 27 -38 45 -14
18 -41 52 -60 75 -72 86 -105 129 -114 145 -5 9 -12 18 -16 21 -26 20 -90 116
-90 135 0 13 -5 27 -11 31 -8 4 -9 -1 -4 -17 l6 -24 -21 25 c-11 14 -30 38
-41 53 l-21 28 56 -4 c43 -3 61 -9 78 -28 14 -16 19 -18 15 -7 -9 26 26 31
146 24 310 -20 967 -57 1242 -71 61 -3 187 -10 280 -16 94 -6 224 -13 290 -17
l120 -7 -1 -50 c-5 -229 -69 -578 -148 -795 -76 -211 -63 -178 -126 -315 -23
-49 -64 -127 -91 -171 -27 -45 -49 -84 -49 -87 0 -11 -89 -138 -177 -254 -92
-119 -262 -303 -280 -303 -9 0 -155 154 -160 169 -2 3 31 39 72 80 41 41 75
80 75 87 0 35 25 17 87 -63 37 -49 72 -91 77 -95 23 -15 17 3 -12 40 -17 21
-36 50 -43 65 -7 15 -16 27 -20 27 -8 0 -76 82 -158 190 -19 25 -41 51 -48 58
-7 8 -10 18 -7 24 4 7 2 8 -4 4 -6 -4 -19 6 -29 21 -10 15 -22 31 -27 34 -5 4
-5 12 -1 19 5 8 4 11 -3 6 -6 -4 -16 4 -23 16 -7 13 -15 25 -19 28 -4 3 -11
12 -16 21 -5 9 -34 45 -64 79 -30 34 -72 86 -94 114 -50 67 -126 150 -131 144
-3 -2 10 -21 29 -41 18 -20 49 -57 67 -82 65 -88 122 -155 130 -155 5 0 9 -5
9 -12 0 -6 36 -56 81 -110 46 -57 77 -103 73 -110 -4 -6 -3 -8 4 -4 6 3 13 2
16 -3 3 -5 -18 -27 -47 -49 -28 -22 -74 -63 -100 -91 l-48 -50 -45 52 c-25 29
-73 83 -107 120 -34 38 -64 73 -66 78 -1 6 -13 20 -25 32 -38 41 -159 172
-251 272 -49 54 -111 121 -138 148 -46 49 -47 51 -30 71 17 20 17 20 -1 4 -17
-15 -22 -12 -87 54 -45 47 -66 75 -62 86 5 11 3 13 -6 7 -13 -7 -34 13 -149
144 -26 30 -82 90 -125 135 -85 88 -89 101 -53 178 27 61 66 252 66 330 0 31
3 36 18 31 9 -4 25 -15 34 -26z m-322 -258 l20 -27 -50 -32 c-65 -41 -120 -61
-194 -68 l-58 -5 5 204 c3 112 6 206 6 209 1 7 246 -247 271 -281z m2864 144
l137 -6 -6 -111 c-9 -184 -60 -504 -106 -659 -11 -38 -19 -76 -17 -85 5 -27
85 310 103 435 26 179 35 270 35 340 l0 83 40 0 40 0 0 -97 c0 -239 -84 -674
-185 -953 -81 -226 -222 -526 -285 -607 l-16 -21 -34 21 c-18 11 -28 23 -22
25 7 2 10 7 8 10 -2 4 11 32 29 62 101 166 303 655 281 677 -6 6 -26 -41 -26
-60 0 -14 -57 -167 -108 -287 -36 -88 -75 -164 -97 -190 -7 -8 -15 -27 -18
-41 -6 -25 -68 -134 -86 -152 -13 -13 -104 41 -95 55 4 7 2 8 -5 4 -12 -8 -31
2 -179 97 -51 33 -89 63 -85 66 5 3 19 29 33 56 14 28 28 52 31 55 8 7 91 181
119 250 12 30 32 80 45 110 66 155 144 492 164 715 6 66 13 140 16 165 2 25 4
46 4 48 2 4 147 2 285 -5z m627 -25 c6 -10 5 -39 -6 -198 -11 -157 -23 -248
-57 -420 -44 -231 -132 -540 -189 -667 -10 -24 -19 -46 -19 -49 0 -18 -166
-375 -179 -384 -4 -3 -24 -35 -45 -72 -20 -38 -39 -68 -42 -68 -4 0 -47 24
-97 54 -51 29 -109 63 -130 75 -32 18 -80 47 -96 57 -2 2 17 40 42 86 95 176
109 203 127 247 10 25 28 69 41 96 90 201 188 533 224 760 8 55 19 125 25 155
8 46 30 291 30 337 0 12 29 13 183 7 100 -4 185 -11 188 -16z m-7465 -68 c5
-5 43 -12 84 -16 41 -4 80 -10 85 -14 10 -8 137 -24 152 -20 9 2 32 -110 25
-123 -2 -4 -9 -4 -15 2 -51 41 -200 54 -254 21 -18 -11 -33 -17 -33 -14 0 13
-45 -39 -55 -63 -10 -24 -13 -12 -27 97 -8 69 -13 128 -11 133 6 10 37 9 49
-3z m3398 -75 c10 -8 15 -19 10 -26 -5 -8 -3 -10 6 -4 7 4 15 4 19 -1 6 -9 32
-24 96 -58 17 -8 56 -23 88 -31 l59 -16 -4 -90 c-2 -49 0 -89 3 -89 4 0 11 40
15 90 l7 90 36 5 c108 16 206 54 262 101 13 12 19 10 41 -14 l26 -27 -25 -55
c-55 -122 -138 -245 -227 -337 -49 -50 -104 -100 -123 -110 l-35 -18 -69 75
c-38 41 -69 78 -69 83 0 4 -8 15 -17 25 -45 44 -147 228 -139 249 3 8 2 12 -2
9 -5 -3 -16 20 -26 50 -17 53 -17 57 0 75 10 11 23 18 30 15 8 -3 11 1 7 10
-7 18 6 18 31 -1z m-89 -102 c33 -89 86 -195 126 -255 22 -33 38 -66 35 -73
-3 -8 0 -12 7 -9 7 2 29 -17 50 -44 20 -27 62 -72 92 -101 31 -28 53 -55 50
-60 -3 -6 -1 -12 5 -16 5 -3 10 -2 10 4 0 6 7 8 15 5 19 -8 19 10 0 26 -12 10
0 26 81 104 53 50 101 90 106 88 5 -1 6 3 2 9 -3 6 -3 14 2 18 16 11 90 124
124 188 18 35 37 60 43 56 6 -3 7 -1 3 5 -3 6 -1 25 7 43 l13 33 22 -31 22
-31 -20 -44 c-48 -105 -129 -227 -204 -305 -33 -34 -64 -60 -68 -57 -5 3 -7 1
-6 -3 4 -12 -46 -61 -99 -96 -36 -25 -44 -27 -65 -16 -21 11 -22 11 -9 -5 9
-11 11 -20 4 -27 -13 -13 -168 145 -245 252 -34 46 -87 139 -119 206 l-59 122
28 30 c15 16 28 30 28 30 1 1 9 -20 19 -46z m-3052 -48 c43 -20 61 -40 75 -81
9 -28 7 -36 -19 -67 -26 -32 -75 -52 -124 -51 -25 1 -94 34 -120 57 -25 23
-25 85 1 119 33 45 120 55 187 23z m3025 -115 c14 -30 37 -73 51 -95 14 -22
31 -50 38 -62 45 -85 302 -347 321 -329 3 3 -1 12 -7 20 -10 12 -2 22 46 57
112 82 219 197 303 325 44 67 80 128 80 135 1 8 6 24 13 37 13 22 15 21 98
-68 81 -88 106 -122 79 -105 -9 5 -11 4 -6 -4 4 -6 11 -9 16 -6 4 3 26 -15 48
-40 22 -24 42 -41 46 -38 3 4 6 1 6 -5 0 -11 36 -52 164 -186 26 -28 69 -76
95 -106 25 -30 53 -61 62 -70 9 -8 66 -69 126 -135 59 -66 117 -130 128 -141
11 -11 49 -54 85 -94 36 -41 76 -87 90 -102 14 -16 30 -34 35 -41 6 -6 31 -36
57 -66 46 -53 46 -54 30 -80 -20 -30 -82 -87 -93 -84 -3 1 -6 -3 -5 -10 1 -13
-58 -87 -69 -87 -3 0 -16 -9 -28 -21 -22 -20 -22 -20 -2 -35 23 -17 139 -128
143 -138 1 -3 4 -6 7 -6 3 0 10 0 15 0 6 0 10 7 10 15 0 8 5 15 11 15 11 0 30
16 135 112 16 14 38 36 49 48 l20 21 82 -87 c97 -104 104 -82 -67 -217 -63
-51 -117 -94 -120 -97 -3 -3 -23 -17 -45 -30 -22 -13 -42 -27 -45 -31 -3 -3
-15 -9 -27 -13 -13 -4 -23 -12 -23 -17 0 -17 22 -9 60 21 21 16 41 30 44 30 9
0 186 135 259 198 l59 50 69 -76 c38 -43 101 -115 141 -160 l72 -84 -45 -41
c-73 -70 -257 -217 -270 -217 -4 0 -14 -6 -21 -14 -25 -24 -328 -210 -334
-204 -1 2 -33 62 -70 133 -37 72 -75 142 -85 157 -11 14 -19 33 -19 41 0 8 -7
20 -15 27 -8 7 -15 10 -15 7 0 -5 73 -149 133 -262 65 -123 68 -108 -28 -157
-46 -23 -83 -43 -82 -45 5 -4 74 22 88 34 8 6 30 18 50 26 l36 15 17 -35 c9
-20 15 -37 13 -39 -8 -8 -217 -104 -282 -129 -38 -15 -83 -33 -100 -41 -16 -7
-77 -26 -135 -43 -58 -17 -118 -36 -135 -42 -16 -6 -39 -12 -50 -14 -11 -1
-58 -12 -105 -23 -205 -48 -426 -72 -672 -72 l-198 0 -1 33 c-2 30 -2 30 -6 5
-4 -27 -7 -28 -64 -28 -112 0 -512 68 -644 109 -16 5 -70 22 -120 36 -49 15
-94 31 -100 35 -5 4 -21 11 -35 15 -14 4 -49 18 -78 31 -29 13 -55 24 -59 24
-10 0 -256 112 -271 123 -14 11 -103 61 -142 80 -14 6 -31 17 -38 24 -7 7 -37
27 -66 44 l-54 32 21 32 c20 31 21 32 49 16 15 -9 28 -19 28 -23 0 -5 5 -8 11
-8 13 0 131 -70 140 -83 4 -5 15 -7 25 -5 14 2 -1 15 -50 43 -38 22 -80 48
-95 58 -14 9 -34 20 -44 23 -10 4 -16 13 -13 20 3 9 0 11 -11 7 -14 -5 -14 -4
-1 18 170 274 211 339 215 339 3 0 24 -13 48 -29 23 -16 73 -45 111 -66 38
-21 84 -54 102 -74 18 -20 29 -28 26 -17 -4 11 -3 17 2 14 5 -3 32 -16 59 -28
28 -12 79 -36 115 -52 85 -40 342 -125 433 -143 221 -46 335 -65 416 -71 80
-6 91 -9 91 -25 0 -11 5 -19 10 -19 6 0 10 8 10 18 0 15 11 18 98 18 215 1
535 32 637 63 17 5 48 12 70 16 22 4 65 15 95 25 30 10 80 25 110 34 156 47
568 244 579 276 4 13 2 13 -12 1 -9 -7 -23 -11 -32 -7 -8 3 -14 1 -12 -5 1 -6
-43 -33 -98 -62 -55 -29 -101 -55 -103 -59 -2 -5 -10 -8 -18 -8 -8 0 -36 -10
-62 -23 -100 -50 -326 -128 -447 -156 -137 -31 -271 -54 -375 -66 -100 -11
-117 -11 -127 2 -6 8 -9 21 -7 28 7 17 -10 27 -30 19 -12 -5 -14 -10 -6 -19 8
-9 6 -17 -5 -29 -23 -23 -243 -24 -251 -1 -4 8 -10 15 -16 15 -5 0 -6 -4 -3
-10 7 -11 -65 -14 -103 -4 -19 6 -22 11 -17 33 7 29 25 53 25 33 0 -7 9 -12
20 -12 11 0 20 -6 20 -12 0 -9 3 -9 9 1 5 8 16 11 26 8 9 -4 14 -3 10 2 -3 5
-1 20 4 33 9 22 10 22 10 -6 1 -16 3 -27 6 -25 2 3 7 81 10 174 3 94 8 198 10
233 2 34 -1 62 -6 62 -5 0 -9 -8 -9 -18 0 -9 -3 -91 -6 -182 -4 -91 -6 -174
-6 -184 1 -16 -4 -14 -31 13 -21 19 -43 31 -60 31 -32 0 -69 -33 -61 -55 4 -8
2 -21 -3 -28 -17 -21 -23 -60 -11 -74 6 -8 9 -16 6 -19 -6 -6 -183 21 -273 41
-33 8 -71 16 -85 19 -34 6 -194 57 -315 100 -105 37 -465 214 -465 228 0 4 -5
8 -10 8 -16 0 -232 153 -341 241 -54 44 -142 123 -194 176 l-95 95 31 39 c17
22 40 45 50 53 11 7 44 36 73 64 30 28 57 48 61 44 5 -4 5 -2 2 4 -4 7 12 27
36 47 23 19 98 90 167 158 69 68 184 178 255 245 72 67 213 204 315 305 246
244 301 293 310 279 5 -8 10 -9 14 -2 3 6 1 12 -6 14 -6 2 42 56 108 120 l119
117 19 -42 c10 -23 30 -67 44 -97z m-2863 -155 c69 -260 142 -456 249 -673 31
-62 56 -114 56 -116 0 -3 -63 -37 -180 -97 -19 -10 -30 -18 -24 -19 5 0 55 22
109 50 67 34 102 47 110 40 6 -5 24 -33 40 -62 43 -81 259 -406 284 -428 4 -3
25 -30 48 -60 22 -30 54 -69 70 -86 52 -58 88 -106 85 -115 -1 -5 4 -9 11 -9
7 0 54 -42 104 -92 92 -93 158 -153 223 -205 38 -29 59 -48 88 -73 19 -18 89
-70 113 -85 8 -5 36 -25 61 -43 l45 -34 -96 -159 c-53 -87 -99 -159 -102 -159
-15 0 -215 150 -339 256 -158 134 -411 389 -480 483 -14 19 -32 41 -41 50 -8
9 -29 34 -45 56 -16 22 -39 51 -51 65 -13 14 -23 28 -23 32 0 5 -9 17 -20 28
-23 23 -238 350 -260 395 -8 17 -23 43 -34 59 -16 23 -16 30 -5 37 11 7 11 9
-3 9 -11 0 -35 36 -72 110 -70 136 -80 161 -62 154 7 -3 40 4 72 15 l59 20
-42 1 -41 0 -5 48 c-3 26 -6 87 -6 135 -1 140 -33 182 -144 190 -32 2 -59 6
-61 8 -2 3 -36 99 -36 104 0 1 12 0 28 -2 108 -13 190 -18 210 -15 20 4 23 10
20 41 l-3 36 -60 0 c-33 0 -66 4 -73 9 -7 4 -29 7 -50 6 -86 -4 -90 -3 -101
38 -19 66 -16 72 34 72 25 0 45 -5 45 -10 0 -6 19 -11 43 -10 23 0 77 -3 120
-6 l77 -7 0 26 c0 14 -5 27 -12 29 -8 3 -5 12 10 28 12 13 22 28 22 34 0 22 9
-4 35 -99z m-213 -367 c32 -15 57 -73 47 -108 -4 -14 -7 -51 -8 -82 -2 -92 -9
-83 -70 80 -17 46 -31 92 -31 103 0 22 24 25 62 7z m-223 -26 c12 -12 16 -38
16 -111 l0 -96 -45 -3 c-24 -2 -59 -1 -77 3 l-33 6 0 85 c0 53 5 95 14 112 13
25 18 27 62 23 26 -2 55 -10 63 -19z m166 -73 c15 -41 33 -88 41 -106 8 -17
14 -35 14 -40 0 -7 -119 -6 -127 1 -1 1 -2 42 -3 91 -2 88 3 117 23 143 13 17
18 9 52 -89z m1065 -100 c0 -5 15 -34 33 -65 17 -31 43 -75 56 -97 64 -112
258 -364 336 -439 20 -19 19 -20 -95 -129 -63 -61 -132 -127 -153 -147 l-38
-37 -25 29 c-14 15 -28 26 -31 23 -3 -3 7 -18 21 -32 21 -21 24 -30 15 -41 -6
-7 -16 -11 -23 -7 -6 3 -8 3 -4 -2 4 -4 3 -14 -4 -22 -9 -11 -18 -6 -49 29
-21 24 -39 49 -39 55 0 7 -4 12 -8 10 -10 -3 -48 42 -143 168 -65 87 -91 123
-121 169 -28 42 -136 220 -158 261 l-27 50 33 17 33 17 45 -84 c26 -45 46 -89
46 -96 0 -9 3 -10 11 -2 7 7 8 20 3 34 -4 13 -8 31 -8 39 -1 8 -7 15 -14 15
-7 0 -25 23 -41 51 l-29 50 144 74 c79 41 144 78 144 82 0 5 9 8 20 8 11 0 23
6 26 13 5 15 44 20 44 6z m4978 -299 c5 0 15 -7 22 -15 7 -9 71 -52 141 -96
149 -95 146 -80 47 -219 -128 -178 -227 -297 -366 -438 -74 -73 -76 -73 -107
33 -25 86 -34 107 -44 101 -15 -10 -45 32 -34 46 7 8 10 61 8 134 l-3 120 41
49 c66 77 148 188 192 258 l40 65 26 -19 c15 -10 31 -19 37 -19z m-616 -34
c37 -40 68 -93 63 -107 -6 -17 -65 -55 -78 -51 -5 1 -6 -2 -3 -7 3 -4 -17 -31
-44 -58 -45 -45 -51 -48 -64 -34 -7 9 -14 31 -14 50 -1 38 -14 51 -54 51 -47
0 -33 26 63 122 83 83 92 90 102 72 6 -10 19 -27 29 -38z m-227 -210 c2 -45 7
-49 46 -48 18 0 38 -6 46 -14 13 -12 8 -21 -36 -65 -45 -46 -53 -50 -69 -38
-15 13 -16 12 -4 -3 11 -14 7 -22 -33 -60 -26 -24 -51 -44 -55 -46 -4 -2 -21
11 -38 28 -17 16 -36 30 -42 30 -6 0 -9 4 -5 10 3 5 -6 17 -20 26 -27 17 -33
34 -12 34 13 0 97 75 97 87 0 16 80 94 90 88 5 -3 10 2 10 11 0 34 22 -3 25
-40z m1194 17 c17 -10 31 -20 31 -23 -1 -6 -184 -268 -207 -295 -10 -11 -53
-63 -97 -115 -103 -123 -223 -243 -236 -235 -6 3 -7 -1 -4 -9 9 -24 -10 -19
-40 11 l-27 27 77 72 c43 40 82 70 87 67 6 -3 7 -1 3 5 -4 6 4 24 17 39 119
137 162 189 213 261 84 119 114 164 124 190 11 27 19 27 59 5z m255 -153 c4 0
19 -8 34 -19 15 -10 39 -26 55 -35 l27 -17 -27 -47 c-76 -133 -225 -330 -379
-502 -159 -177 -302 -309 -519 -478 -58 -45 -251 -176 -310 -210 -123 -72
-160 -92 -172 -92 -7 0 -38 50 -69 112 -31 61 -66 127 -78 147 -45 71 -45 74
36 120 89 50 88 49 223 138 173 114 350 257 468 378 160 163 255 275 357 415
30 41 76 105 103 142 l49 66 98 -59 c54 -32 101 -59 104 -59z m-5026 -60 c116
-112 144 -136 197 -175 21 -17 51 -41 65 -55 14 -14 54 -43 88 -65 34 -22 62
-47 61 -55 0 -8 -18 -42 -39 -75 -22 -33 -49 -76 -60 -95 -11 -19 -32 -53 -45
-75 -14 -22 -34 -57 -45 -78 -12 -21 -25 -35 -30 -32 -5 3 -8 0 -5 -7 3 -7 -5
-26 -18 -42 l-24 -29 -33 24 c-19 13 -43 32 -54 42 -11 9 -23 17 -26 17 -4 0
-16 8 -28 18 -11 9 -30 24 -42 32 -12 8 -30 22 -40 30 -9 8 -36 31 -60 50 -23
19 -64 53 -90 76 -60 52 -240 232 -240 240 0 10 54 49 63 46 5 -1 6 2 3 7 -5
8 293 306 299 299 2 -2 48 -46 103 -98z m4058 62 c-2 -4 1 -45 8 -92 8 -49 9
-92 4 -102 -15 -31 -8 -54 22 -76 18 -13 30 -32 30 -45 0 -12 9 -46 20 -75 11
-30 17 -52 12 -50 -12 4 -242 260 -249 276 -4 8 26 46 73 93 73 73 92 91 80
71z m153 -533 c13 -17 22 -31 20 -33 -2 -1 -51 -41 -109 -89 -162 -133 -169
-139 -219 -170 -25 -16 -55 -37 -66 -47 -11 -10 -38 -28 -60 -40 -22 -12 -85
-48 -140 -80 l-100 -59 -18 36 c-10 19 -17 36 -15 37 2 2 30 18 63 36 125 70
353 218 385 250 3 3 48 39 100 79 52 41 101 83 108 93 17 24 23 22 51 -13z
m-3999 -376 c8 -4 17 -9 20 -13 14 -18 220 -134 320 -181 36 -16 76 -36 90
-43 36 -20 283 -114 311 -119 14 -3 42 -12 63 -21 111 -46 460 -120 647 -137
191 -17 170 2 163 -147 -4 -105 -10 -203 -13 -245 -2 -15 -443 31 -473 49 -5
3 -22 7 -36 9 -39 3 -264 56 -282 65 -9 5 -45 16 -80 25 -36 9 -69 20 -75 24
-5 4 -30 13 -55 20 -25 6 -65 20 -90 30 -25 11 -65 27 -90 36 -80 31 -205 90
-208 97 -2 5 -10 8 -18 8 -17 0 -153 72 -244 128 -36 23 -96 60 -135 83 -38
23 -71 43 -73 44 -2 2 30 54 71 116 40 63 86 136 101 162 27 46 29 47 50 32
11 -8 28 -18 36 -22z"/>
<path d="M3602 6488 c-27 -43 -27 -50 -4 -71 26 -24 59 -21 85 7 15 16 28 22
36 17 10 -6 9 -10 -4 -15 -21 -8 -12 -41 21 -77 31 -33 30 -39 -6 -39 -28 0
-30 -2 -27 -34 1 -25 6 -32 17 -28 8 3 2 -5 -13 -17 -15 -13 -36 -39 -46 -60
-16 -31 -17 -39 -6 -55 8 -10 18 -16 22 -13 5 3 17 -7 27 -24 15 -25 15 -29 2
-29 -20 0 -20 -14 0 -46 9 -13 15 -26 13 -27 -2 -2 -16 -11 -31 -20 -32 -20
-36 -35 -10 -33 11 0 15 -4 13 -14 -9 -33 -2 -61 20 -79 23 -18 23 -18 34 2 5
12 21 24 34 27 30 7 37 23 16 40 -21 17 -19 30 5 30 17 0 18 3 8 19 -6 11 -26
23 -42 27 l-31 8 35 3 c19 3 39 8 43 12 13 13 -21 41 -49 41 -14 0 -24 6 -24
14 0 10 8 13 22 11 12 -3 39 0 60 6 l38 10 -15 29 c-9 17 -19 30 -24 30 -14 0
-22 32 -11 45 7 8 1 18 -20 33 -16 12 -34 22 -40 22 -5 0 -10 5 -10 10 0 6 16
10 35 10 40 0 40 -1 20 36 -14 27 -13 29 5 36 27 10 33 29 20 64 -11 27 -12
28 -25 10 -13 -18 -41 -14 -29 5 7 12 -59 79 -77 79 -8 0 -21 -4 -29 -10 -11
-7 -17 -2 -25 17 l-11 27 -22 -36z"/>
<path d="M3582 5581 c-14 -9 -7 -81 8 -81 5 0 3 -16 -3 -36 -10 -32 -9 -38 8
-51 21 -16 16 -16 -32 4 -14 6 -13 1 5 -21 24 -31 28 -52 11 -58 -8 -3 -9 -17
-2 -49 6 -30 6 -50 -1 -61 -8 -13 -5 -21 15 -37 l24 -21 -25 3 c-38 3 -39 -36
-2 -73 31 -31 24 -44 -19 -33 -19 5 -21 3 -16 -18 4 -13 7 -27 7 -30 0 -10 64
-5 76 7 8 6 9 16 3 26 -6 12 -3 17 13 21 20 6 20 7 4 31 -14 23 -14 26 -1 26
19 0 19 10 -1 38 -14 20 -14 22 1 22 10 0 14 5 10 13 -4 6 3 1 14 -13 18 -21
22 -23 31 -10 14 21 12 32 -7 60 -22 33 -33 40 -65 40 -15 0 -29 4 -32 8 -3 5
8 8 24 7 37 -2 40 22 5 35 -35 13 -31 28 5 24 17 -2 30 0 30 4 0 15 -16 30
-35 35 -16 4 -14 5 7 6 37 1 50 28 32 63 -8 16 -10 28 -5 28 6 0 8 7 5 15 -7
18 7 20 24 3 7 -7 12 -8 12 -1 0 18 -48 63 -63 57 -8 -2 -20 2 -27 11 -14 17
-20 18 -38 6z"/>
<path d="M2006 4388 c2 -4 -5 -9 -16 -13 -15 -5 -18 -10 -11 -24 11 -20 -2
-47 -18 -37 -6 4 -9 11 -6 16 3 5 0 18 -6 28 -10 16 -20 18 -58 14 -25 -2 -50
-8 -55 -13 -15 -13 -33 -11 -50 6 -13 14 -16 13 -28 -7 -20 -38 -17 -43 26
-43 34 0 41 -3 42 -20 1 -11 2 -26 3 -32 2 -19 28 -16 37 5 4 9 6 20 6 25 -1
4 2 7 7 7 10 0 9 19 -2 37 -5 9 -3 11 6 7 20 -7 41 -50 34 -68 -3 -8 -2 -18 4
-22 14 -9 39 15 32 32 -7 19 11 18 27 -1 7 -8 18 -15 24 -15 8 0 11 -13 8 -35
-5 -46 3 -44 26 5 10 22 22 37 26 33 5 -5 4 2 -3 14 -6 12 -16 25 -21 28 -14
8 -13 35 1 35 6 0 9 -7 5 -15 -3 -9 0 -15 10 -15 8 0 19 12 24 26 18 47 14 54
-34 52 -24 -2 -42 -6 -40 -10z"/>
<path d="M4542 5298 c-7 -7 -12 -44 -12 -96 0 -90 -1 -89 52 -67 13 5 15 2 11
-14 -6 -23 7 -27 37 -11 13 7 21 7 25 0 9 -15 45 7 39 24 -3 8 -1 17 5 20 7 5
7 13 2 24 -5 9 -12 26 -16 36 -5 18 -10 16 -45 -21 -26 -28 -45 -40 -57 -37
-16 5 -18 14 -15 80 4 72 -2 86 -26 62z"/>
<path d="M4053 5254 c-36 -18 -45 -39 -13 -29 15 5 20 2 20 -14 0 -12 -9 -23
-22 -27 l-23 -8 25 -6 c18 -4 25 -13 27 -30 0 -14 1 -31 2 -38 2 -25 21 -1 21
27 0 21 8 31 35 44 l35 17 0 -26 c0 -22 3 -24 23 -18 46 14 68 36 65 63 -2 22
-7 25 -29 23 -17 -2 -29 3 -33 13 -4 12 -10 13 -24 6 -20 -11 -62 -4 -62 10 0
13 -10 11 -47 -7z"/>
<path d="M5620 5155 c-10 -13 -10 -19 4 -34 14 -15 14 -20 3 -29 -8 -7 -16 -9
-19 -7 -3 3 -3 -6 0 -21 10 -55 56 -81 97 -54 16 10 22 19 15 22 -8 2 -2 11
14 21 35 23 49 13 42 -28 -8 -41 15 -54 44 -25 19 19 19 19 25 -1 9 -27 47
-24 85 7 39 33 37 64 -5 76 -35 9 -72 -6 -81 -34 -9 -31 -24 -20 -24 18 l0 37
-40 -7 c-37 -6 -41 -4 -50 19 -6 15 -17 25 -29 25 -10 0 -24 7 -31 15 -16 19
-34 19 -50 0z"/>
<path d="M5294 5135 c-18 -14 -18 -15 -1 -26 15 -9 17 -18 12 -50 -4 -21 -4
-39 0 -39 15 0 35 30 35 54 0 14 4 26 9 26 5 0 16 3 25 6 13 5 16 -2 16 -45 0
-70 25 -68 39 2 10 49 28 43 29 -9 1 -26 3 -49 5 -51 11 -10 37 31 37 58 0 22
5 29 19 29 15 0 19 -6 17 -30 -3 -45 7 -56 39 -42 20 9 24 17 20 37 -3 14 -7
37 -10 51 -6 27 -21 29 -67 9 -13 -5 -18 -3 -18 9 0 19 -21 21 -38 4 -9 -9
-17 -9 -36 1 -19 10 -28 11 -46 1 -20 -11 -25 -10 -35 4 -15 20 -26 20 -51 1z"/>
<path d="M5704 4142 c-29 -4 -55 -79 -33 -93 30 -19 67 -6 48 17 -11 14 -4 34
12 34 5 0 9 -8 9 -18 0 -10 7 -28 16 -40 l15 -22 32 22 c17 12 28 17 24 11
-12 -19 19 -36 42 -23 21 10 29 30 13 30 -4 0 -9 12 -10 27 -1 15 -6 31 -10
35 -13 13 -118 26 -158 20z"/>
<path d="M6844 4802 c4 -10 0 -27 -8 -38 -13 -17 -12 -21 1 -36 10 -11 12 -18
5 -18 -23 0 -11 -17 28 -39 46 -25 57 -65 18 -60 -53 7 -64 -32 -20 -74 33
-31 66 -39 39 -9 -10 10 -17 24 -17 30 0 17 35 15 50 -3 7 -8 16 -15 21 -15
11 0 -1 69 -17 101 -10 19 -10 29 -2 37 17 17 -7 56 -48 78 -23 13 -34 26 -34
41 0 13 -5 23 -11 23 -6 0 -8 -8 -5 -18z"/>
<path d="M2686 3264 c-4 -10 10 -34 36 -66 54 -63 77 -77 93 -54 7 9 21 16 32
16 31 0 63 34 63 66 l0 29 -18 -23 c-14 -18 -24 -22 -45 -17 -15 4 -27 11 -27
16 0 11 7 11 29 0 15 -9 17 -6 13 20 -9 59 -72 20 -72 -44 0 -15 -10 -9 -41
27 -44 50 -54 54 -63 30z"/>
<path d="M6973 3744 c-3 -9 1 -36 10 -60 l16 -43 -27 2 c-20 2 -27 -4 -32 -23
-7 -28 8 -60 29 -60 10 0 11 3 2 13 -16 20 -5 26 41 19 40 -5 41 -4 35 20 -5
20 -2 27 19 37 22 10 25 16 19 39 -12 51 -33 72 -71 72 -23 0 -37 -6 -41 -16z"/>
<path d="M4113 3069 c-7 -7 -10 -24 -7 -38 9 -42 -59 -90 -71 -50 -4 10 -11
19 -16 19 -17 0 -69 -57 -70 -77 0 -10 -2 -28 -3 -41 -2 -13 1 -25 5 -28 15
-9 39 29 41 64 1 36 1 36 7 -8 7 -49 34 -67 57 -36 10 14 13 15 24 1 16 -19
34 -19 50 0 7 8 16 15 21 15 5 0 9 -7 9 -15 0 -17 45 -21 55 -5 4 6 10 8 14 5
5 -2 13 7 20 22 13 29 23 25 27 -13 4 -38 13 -42 36 -14 11 14 15 26 9 28 -6
2 -7 12 -1 27 5 14 6 26 1 29 -12 8 -51 -5 -51 -18 0 -6 -10 4 -22 22 -15 24
-24 30 -31 23 -6 -6 -26 -11 -44 -11 -28 0 -31 2 -25 21 11 28 2 89 -12 89 -7
0 -17 -5 -23 -11z"/>
<path d="M3757 3036 c-15 -12 -16 -18 -7 -35 10 -19 8 -21 -17 -19 -15 1 -38
9 -51 17 -21 13 -25 12 -45 -7 -19 -19 -19 -22 -4 -22 9 0 17 -7 17 -15 0 -8
-9 -15 -20 -15 -18 0 -25 14 -21 46 1 6 -5 17 -13 23 -18 16 -61 -10 -69 -40
-5 -20 -4 -20 12 -5 17 16 19 15 25 -6 4 -17 -1 -28 -16 -39 l-21 -17 23 -7
c20 -6 22 -11 16 -51 -7 -58 8 -57 24 1 16 57 46 82 70 60 15 -14 21 -14 53 0
35 14 36 14 39 -8 4 -29 52 -36 79 -11 37 33 26 -29 -13 -79 -35 -44 -33 -56
5 -27 14 11 27 20 29 20 2 0 3 -33 2 -72 -7 -184 -6 -414 1 -407 2 3 7 106 10
230 6 239 15 318 41 357 9 13 11 21 5 18 -6 -4 -11 0 -11 9 0 8 -6 18 -14 21
-8 3 -12 12 -10 19 3 7 1 16 -4 19 -6 3 -13 -5 -16 -18 -5 -22 -41 -42 -50
-28 -2 4 -7 28 -10 55 -8 51 -11 54 -39 33z"/>
<path d="M4514 3044 c-7 -3 -9 -33 -6 -86 3 -59 2 -79 -7 -74 -6 4 -11 22 -11
41 0 28 -3 32 -20 28 -11 -3 -34 -18 -50 -33 l-29 -27 -6 28 c-7 32 -26 37
-45 14 -10 -12 -10 -18 1 -32 8 -9 13 -18 12 -20 -2 -1 -3 -13 -3 -25 0 -20 1
-21 20 -3 11 10 20 13 20 7 0 -7 11 -12 25 -12 14 0 25 5 25 11 0 6 7 3 16 -5
11 -11 21 -13 32 -7 12 7 22 5 34 -6 24 -21 53 0 38 27 -6 10 -10 32 -10 47 0
24 10 35 63 69 34 23 71 45 82 49 20 8 20 9 -1 12 -23 4 -148 -70 -137 -81 4
-3 1 -6 -5 -6 -7 0 -12 17 -12 45 0 44 -3 48 -26 39z"/>
<path d="M3759 1959 c-7 -5 -24 -9 -35 -9 -12 0 -27 -7 -34 -15 -15 -18 -47
-20 -52 -3 -4 10 -16 9 -54 -3 l-49 -15 -3 -58 c-3 -49 1 -65 23 -97 14 -22
32 -39 40 -39 8 0 15 -4 15 -10 0 -15 77 -12 83 3 3 8 10 7 23 -7 14 -13 15
-17 4 -14 -8 3 -25 1 -38 -3 -18 -7 -22 -14 -16 -31 3 -12 14 -30 23 -39 21
-23 108 -62 121 -54 18 11 -3 37 -44 56 -41 18 -41 19 -10 19 44 0 55 15 36
53 -11 22 -12 32 -4 35 17 5 15 62 -1 62 -7 0 -18 -5 -25 -12 -13 -13 -17 -11
-26 18 -5 16 -2 23 14 27 23 6 26 -3 8 -23 -11 -12 -10 -12 5 -1 9 7 17 20 17
28 0 7 6 16 14 19 22 8 20 101 -3 113 -10 6 -23 6 -32 0z"/>
<path d="M5135 1250 c-3 -5 -3 -19 0 -30 4 -11 2 -20 -4 -20 -6 0 -11 9 -11
20 0 29 -30 13 -36 -20 -3 -14 -12 -27 -20 -27 -17 0 -17 3 -4 27 22 40 -42
60 -77 24 -15 -14 -17 -80 -4 -88 5 -3 5 -22 1 -42 -5 -19 -6 -33 -3 -30 4 3
12 1 19 -5 9 -8 23 -1 53 27 23 20 41 43 41 51 0 11 4 11 21 2 12 -6 19 -7 16
-2 -3 5 8 22 24 37 21 20 29 36 27 55 -3 27 -31 41 -43 21z"/>
<path d="M4440 1097 c-36 -18 -57 -72 -52 -129 4 -47 4 -47 26 -31 17 13 21
25 18 52 l-3 36 20 -42 c21 -44 37 -54 47 -29 3 8 18 17 32 21 23 5 92 58 92
70 0 2 -10 15 -23 29 -22 24 -24 24 -37 6 -7 -10 -19 -16 -26 -13 -17 6 -27
-14 -27 -56 1 -35 1 -35 -7 -8 -5 16 -13 34 -19 41 -6 7 -12 25 -13 40 -1 14
-3 26 -3 26 0 0 -11 -6 -25 -13z"/>
<path d="M3526 1013 c-30 -20 -37 -29 -34 -51 2 -20 9 -28 26 -30 22 -3 23 -1
17 29 -7 30 -6 32 9 20 18 -15 21 -63 6 -91 -7 -13 -7 -21 1 -26 15 -9 28 7
44 52 l14 39 1 -32 c0 -28 4 -33 24 -33 25 0 86 44 86 61 0 5 -14 18 -32 29
-29 18 -35 18 -55 4 -19 -12 -23 -12 -23 -1 0 7 -10 22 -23 33 l-23 20 -38
-23z"/>
<path d="M3878 997 c-33 -27 -41 -75 -15 -91 15 -9 22 -6 41 16 18 19 27 23
35 15 16 -16 14 -30 -14 -72 -15 -20 -24 -40 -21 -43 8 -7 45 38 63 78 11 24
17 30 21 20 12 -36 47 -39 85 -6 17 15 27 33 27 51 0 24 -3 26 -25 21 -14 -4
-25 -2 -25 3 0 18 -27 1 -40 -25 l-14 -24 -12 29 c-13 32 -18 36 -54 44 -18 4
-33 0 -52 -16z"/>
<path d="M284 1779 c-101 -9 -157 -43 -170 -103 -3 -17 -12 -38 -19 -46 -9
-11 -10 -34 -4 -94 13 -116 69 -207 134 -219 11 -2 28 -8 38 -12 23 -10 138 2
151 15 6 6 20 10 32 10 12 0 27 7 34 15 7 8 18 15 24 15 7 0 22 20 34 45 18
37 22 63 22 135 0 49 -4 92 -10 95 -5 3 -10 13 -10 21 0 24 -59 100 -88 115
-31 15 -67 17 -168 8z m144 -53 c84 -44 116 -178 68 -280 -22 -45 -32 -56 -73
-73 -92 -38 -226 -17 -240 38 -3 10 -9 19 -14 19 -5 0 -9 9 -9 19 0 11 -5 21
-12 23 -7 3 -9 11 -4 24 8 18 8 18 17 -4 11 -29 47 -64 82 -80 34 -14 93 -16
102 -2 3 6 15 10 25 10 32 0 87 31 102 58 15 30 14 127 -4 160 -8 15 -21 22
-40 22 l-28 0 20 -32 c30 -49 27 -109 -7 -142 -16 -17 -34 -25 -45 -23 -10 3
-21 1 -24 -4 -11 -18 -82 -10 -109 14 -20 18 -26 32 -27 72 0 28 2 58 7 68 6
14 2 17 -23 17 -32 0 -42 -17 -42 -72 0 -16 -5 -28 -11 -28 -19 0 -2 108 21
132 11 12 20 26 20 30 0 5 19 18 43 28 51 24 165 27 205 6z"/>
<path d="M518 710 c-73 -9 -157 -40 -186 -67 -7 -7 -21 -13 -30 -13 -10 0 -23
-14 -31 -32 -8 -18 -19 -36 -25 -40 -16 -11 -13 -182 3 -202 7 -8 10 -20 6
-26 -3 -5 -1 -10 4 -10 6 0 11 -13 11 -29 0 -17 5 -33 11 -36 6 -4 8 -13 5
-20 -5 -14 24 -45 42 -45 12 0 24 5 70 29 12 6 43 14 67 18 25 3 48 10 51 14
3 5 27 11 54 15 28 4 50 10 50 14 0 3 34 15 75 25 41 11 75 23 75 27 0 4 10 7
23 5 19 -2 22 2 19 28 -5 54 -8 75 -15 82 -4 3 -7 17 -7 30 0 12 -4 23 -10 23
-5 0 -10 9 -10 20 0 59 -94 180 -139 180 -11 0 -23 5 -26 10 -3 6 -12 9 -18 9
-7 -1 -38 -5 -69 -9z m66 -79 c3 -5 14 -7 24 -4 29 7 85 -71 110 -151 11 -39
19 -73 17 -77 -3 -4 -25 -10 -50 -13 -24 -4 -47 -11 -50 -17 -4 -5 -17 -9 -29
-9 -13 0 -37 -7 -52 -15 -16 -8 -41 -15 -56 -15 -15 0 -30 -5 -33 -10 -4 -6
-11 -8 -16 -4 -5 3 -15 1 -22 -4 -18 -14 -85 -24 -91 -13 -3 5 -8 29 -11 52
-3 24 -10 48 -15 53 -13 13 -13 83 1 108 16 29 51 68 62 68 6 0 33 11 61 25
28 13 67 26 86 28 19 2 40 5 47 5 6 1 14 -2 17 -7z"/>
<path d="M3718 158 c-30 -37 -21 -98 14 -98 11 0 28 5 39 11 19 9 20 7 17 -28
-3 -33 0 -38 19 -41 19 -3 22 3 28 45 11 81 11 82 54 76 48 -7 61 10 26 33
-20 13 -40 16 -90 12 -36 -3 -62 -2 -59 3 12 19 -32 7 -48 -13z"/>
</g>
</svg>
