<?xml version="1.0" standalone="no"?>
<!DOCTYPE svg PUBLIC "-//W3C//DTD SVG 20010904//EN"
 "http://www.w3.org/TR/2001/REC-SVG-20010904/DTD/svg10.dtd">
<svg version="1.0" xmlns="http://www.w3.org/2000/svg"
 width="912.000000pt" height="863.000000pt" viewBox="0 0 912.000000 863.000000"
 preserveAspectRatio="xMidYMid meet">
<metadata>
Created by potrace 1.16, written by Peter Selinger 2001-2019
</metadata>
<g transform="translate(0.000000,863.000000) scale(0.100000,-0.100000)"
fill="#000000" stroke="none">
<path d="M4335 8588 c-5 -13 -11 -34 -14 -48 -6 -24 -8 -24 -91 -22 -137 4
-193 3 -223 -4 -15 -3 -33 -1 -40 4 -12 10 -49 7 -202 -18 -38 -6 -80 -8 -92
-5 -13 3 -39 -1 -59 -10 -35 -14 -60 -12 -49 5 3 4 -2 13 -10 20 -12 10 -16 9
-20 -4 -3 -9 -7 -23 -10 -32 -3 -10 -11 -14 -21 -10 -9 4 -22 2 -28 -3 -6 -4
-33 -12 -61 -16 -27 -5 -52 -9 -55 -10 -3 0 -32 -4 -65 -9 -91 -11 -178 -27
-200 -36 -11 -4 -49 -14 -85 -21 -36 -7 -68 -17 -71 -22 -4 -5 -35 -16 -70
-24 -73 -16 -119 -34 -119 -46 0 -5 -9 -6 -19 -2 -13 4 -23 0 -29 -11 -6 -11
-25 -19 -49 -21 -21 -1 -74 -21 -116 -43 -43 -22 -89 -40 -102 -40 -13 0 -34
-12 -47 -27 -30 -34 -82 -63 -113 -63 -13 0 -28 -6 -32 -13 -4 -7 -38 -28 -75
-46 -36 -18 -74 -41 -84 -52 -9 -10 -23 -19 -31 -19 -7 0 -13 -4 -13 -9 0 -5
-14 -11 -31 -15 -17 -3 -49 -21 -72 -38 -22 -18 -52 -40 -67 -48 -61 -34 -130
-82 -130 -91 0 -5 -5 -9 -11 -9 -9 0 -68 -43 -113 -82 -11 -10 -28 -18 -38
-18 -10 0 -18 -7 -18 -15 0 -9 -11 -20 -24 -24 -13 -5 -26 -16 -29 -24 -3 -9
-17 -21 -30 -29 -13 -7 -43 -23 -66 -36 -23 -13 -45 -31 -49 -40 -4 -10 -28
-37 -55 -61 l-47 -44 -25 29 c-14 16 -25 32 -25 37 0 4 -9 7 -20 7 -26 0 -25
-4 9 -59 l28 -47 -34 -34 c-19 -19 -39 -43 -44 -52 -5 -10 -14 -18 -19 -18
-13 0 -50 -32 -50 -44 0 -9 -4 -13 -97 -111 -32 -33 -62 -67 -68 -76 -33 -53
-68 -101 -99 -135 -20 -22 -36 -43 -36 -47 0 -9 -13 -26 -47 -63 -13 -14 -23
-27 -23 -31 0 -3 -10 -18 -23 -33 -12 -15 -28 -36 -35 -46 -36 -56 -78 -123
-95 -154 -11 -19 -26 -39 -33 -43 -8 -4 -14 -16 -14 -25 0 -10 -5 -23 -10 -28
-6 -6 -18 -26 -28 -45 -10 -19 -33 -60 -50 -92 -18 -31 -32 -64 -32 -72 0 -8
-4 -15 -8 -15 -14 0 -82 -149 -82 -179 0 -21 -36 -35 -45 -17 -3 6 -3 -1 0
-15 4 -23 -5 -53 -51 -174 -9 -22 -22 -60 -29 -85 -8 -25 -24 -74 -35 -110
-30 -91 -71 -245 -82 -310 -5 -30 -14 -63 -19 -74 -6 -10 -13 -42 -15 -70 -3
-28 -9 -71 -15 -96 -11 -53 -9 -229 3 -236 4 -3 8 4 8 15 0 23 19 28 38 9 16
-16 15 -43 -1 -57 -9 -7 -12 -26 -10 -57 7 -71 -4 -114 -27 -114 -19 0 -20 -8
-20 -167 1 -144 3 -164 13 -139 12 28 13 24 15 -45 2 -69 11 -187 17 -234 1
-11 3 -40 4 -65 2 -41 3 -43 16 -26 8 10 12 23 9 27 -2 5 -7 102 -10 217 -4
176 -3 211 10 221 8 7 42 13 75 14 41 1 62 6 66 15 4 11 -3 13 -30 10 -19 -2
-35 0 -35 4 0 4 -18 8 -41 8 l-41 0 5 150 c3 93 9 155 16 164 7 8 28 31 47 51
18 20 34 40 34 45 0 5 -15 13 -32 18 -35 9 -38 21 -24 92 3 14 10 57 15 95 20
131 22 135 45 135 22 0 54 16 46 22 -3 2 -17 9 -31 15 l-26 11 13 59 c23 102
127 420 170 519 18 41 36 55 54 44 8 -6 11 -10 5 -10 -16 -1 67 -30 100 -35
17 -3 35 -11 41 -20 6 -8 16 -15 23 -15 6 0 11 -4 11 -9 0 -5 11 -12 25 -15
29 -7 31 -22 8 -56 -18 -25 -113 -302 -113 -327 0 -20 -31 -116 -42 -130 -6
-7 -7 -16 -4 -21 3 -6 2 -23 -3 -38 -5 -16 -15 -69 -22 -119 -6 -49 -16 -95
-20 -101 -7 -9 -12 -40 -24 -169 -1 -16 -8 -68 -14 -115 -7 -46 -14 -121 -16
-165 -3 -100 -1 -93 -27 -97 l-23 -3 22 -21 c22 -19 23 -30 29 -230 3 -115 9
-225 13 -244 4 -19 7 -66 7 -105 l-1 -70 -55 -8 c-102 -14 -115 -15 -166 -21
l-51 -5 -13 69 c-7 39 -16 70 -20 70 -4 0 -5 -32 -3 -71 3 -63 2 -70 -14 -67
-13 2 -20 16 -24 48 -3 25 -11 56 -18 70 -15 33 -9 -243 7 -281 6 -14 12 -46
13 -70 2 -24 8 -57 14 -74 7 -16 13 -53 14 -82 1 -29 12 -76 23 -105 24 -65
36 -105 52 -184 7 -34 33 -99 58 -145 25 -46 43 -89 41 -96 -4 -11 14 -61 39
-107 5 -10 11 -26 13 -35 18 -72 34 -116 43 -114 6 2 9 -4 6 -11 -3 -8 0 -24
6 -37 10 -17 14 -19 21 -8 6 9 9 0 7 -28 -1 -23 1 -46 5 -49 4 -4 7 -2 7 4 0
6 7 9 15 6 20 -8 19 7 -4 59 -10 23 -33 76 -51 117 -18 41 -38 86 -45 100 -7
14 -10 30 -8 37 2 6 -1 14 -6 18 -6 3 -11 13 -11 22 0 9 -6 24 -14 32 -11 13
-46 129 -46 154 0 4 8 3 19 -2 10 -6 21 -8 24 -5 7 7 37 -61 72 -164 15 -45
32 -82 37 -82 10 0 0 45 -18 80 -26 52 -65 163 -60 175 2 7 -4 29 -14 48 -11
20 -22 46 -24 59 -8 34 -43 175 -59 238 -30 111 -53 220 -63 293 -6 44 -5 47
16 47 20 0 123 22 180 39 35 10 79 -6 85 -32 5 -23 14 -61 40 -167 9 -36 18
-72 22 -80 3 -8 7 -22 8 -30 7 -51 29 -147 35 -155 4 -5 15 -32 24 -60 15 -44
15 -51 2 -61 -12 -8 -13 -13 -4 -22 7 -7 18 -12 25 -12 7 0 13 -4 13 -10 0
-10 81 -220 110 -285 10 -22 28 -65 40 -95 13 -30 33 -77 46 -104 13 -27 21
-53 18 -57 -3 -5 -30 -25 -62 -46 -37 -25 -51 -39 -40 -41 10 -2 15 -9 11 -18
-8 -20 5 -18 71 16 33 17 60 29 62 28 1 -2 16 -30 33 -63 18 -33 41 -73 51
-90 24 -38 48 -80 71 -126 10 -20 35 -56 55 -80 20 -24 43 -58 50 -76 7 -17
19 -37 27 -45 7 -7 28 -34 47 -61 18 -26 37 -47 42 -47 20 0 4 -19 -53 -60
-33 -25 -83 -63 -111 -86 l-51 -41 -24 21 c-14 11 -41 48 -61 81 -19 33 -42
64 -49 68 -8 5 -19 18 -24 30 -17 37 -37 69 -47 76 -12 8 -60 83 -90 141 -30
58 -38 66 -55 52 -14 -12 -27 -7 -27 9 0 5 7 6 16 2 9 -3 15 -2 13 3 -22 47
-45 90 -51 92 -5 2 -8 12 -8 22 0 10 -4 22 -10 25 -17 11 -11 35 10 35 10 0
31 12 47 27 15 16 29 26 31 25 2 -2 6 -1 9 2 4 3 1 6 -6 6 -7 0 -9 5 -6 10 3
6 1 10 -5 10 -6 0 -13 -7 -17 -16 -5 -13 -7 -13 -14 -2 -7 10 -9 8 -9 -7 -1
-18 -2 -18 -13 -4 -10 14 -14 14 -25 3 -6 -7 -12 -18 -12 -24 0 -6 -8 -6 -21
2 -18 12 -23 10 -44 -16 l-23 -29 -21 34 c-12 19 -21 37 -21 42 0 6 -48 0 -57
-8 -6 -4 22 -65 30 -65 4 0 6 -4 2 -10 -3 -5 12 -27 34 -49 21 -21 45 -55 52
-75 7 -20 19 -36 27 -36 7 0 10 -5 7 -10 -4 -6 3 -27 14 -46 12 -19 21 -41 21
-48 0 -7 16 -26 35 -42 19 -16 35 -37 35 -46 0 -30 23 -69 37 -64 7 3 13 1 13
-5 0 -11 56 -98 74 -114 6 -5 24 -28 41 -50 16 -22 48 -60 72 -85 23 -25 43
-51 43 -57 0 -7 4 -13 9 -13 5 0 19 -15 30 -33 27 -45 67 -87 75 -80 3 4 6 -1
6 -10 0 -9 7 -17 15 -17 9 0 15 -9 15 -23 0 -16 9 -28 25 -35 14 -6 25 -16 25
-22 0 -6 4 -8 10 -5 5 3 10 2 10 -4 0 -6 10 -21 23 -35 55 -61 158 -163 186
-186 36 -29 39 -50 11 -68 -11 -7 -20 -17 -20 -22 0 -14 43 -13 58 2 9 9 18 6
39 -15 50 -48 174 -147 183 -147 6 0 20 -11 32 -25 12 -14 27 -25 34 -25 6 0
14 -6 17 -14 3 -8 31 -26 62 -41 31 -15 62 -37 70 -49 8 -11 15 -17 15 -13 0
5 10 1 22 -7 26 -18 42 -21 33 -6 -4 6 -57 48 -118 94 -111 83 -154 122 -146
131 3 2 20 -9 38 -25 18 -17 47 -38 64 -46 18 -9 46 -31 62 -49 17 -18 45 -36
63 -39 18 -4 32 -14 32 -22 0 -8 6 -14 14 -14 7 0 21 -11 30 -25 16 -25 16
-25 -11 -25 -22 0 -25 -2 -13 -10 8 -5 11 -10 5 -10 -5 -1 7 -10 28 -21 20
-11 37 -24 37 -29 0 -6 9 -10 20 -10 11 0 20 -4 20 -10 0 -5 8 -19 18 -29 9
-11 23 -27 30 -35 7 -9 22 -16 33 -16 18 0 32 -11 112 -88 15 -15 34 -26 42
-24 8 1 26 -5 40 -14 14 -9 28 -14 32 -11 3 4 24 -6 47 -22 22 -15 56 -34 74
-42 17 -8 32 -17 32 -21 0 -5 8 -8 19 -8 10 0 29 -8 42 -18 41 -32 135 -73
169 -74 17 -1 34 -7 37 -15 3 -8 12 -12 20 -9 8 4 27 -3 43 -14 15 -11 35 -20
45 -20 9 0 29 -7 44 -15 16 -8 41 -16 56 -19 15 -3 35 -12 45 -21 9 -8 35 -16
57 -18 22 -1 47 -8 55 -14 8 -7 25 -10 39 -7 19 5 21 4 9 -5 -11 -8 15 -11
103 -10 67 1 117 5 117 11 0 5 -4 7 -9 3 -5 -3 -13 0 -17 6 -7 13 69 3 98 -12
9 -5 74 -9 145 -8 128 1 128 1 74 14 -30 8 -59 11 -63 9 -5 -3 -14 -1 -21 5
-7 5 -35 13 -62 16 -28 4 -55 11 -61 16 -6 5 -28 12 -50 17 -38 8 -39 9 -39
52 0 25 6 58 14 74 18 37 32 102 31 139 0 25 17 37 33 21 9 -10 67 -13 67 -5
0 4 -21 14 -47 22 -45 13 -48 16 -47 47 2 22 -2 32 -13 32 -11 0 -14 -7 -9
-25 4 -15 2 -25 -4 -25 -16 0 -27 -37 -45 -146 -18 -111 -33 -154 -53 -154
-19 0 -153 39 -174 51 -10 5 -26 9 -36 9 -9 0 -26 6 -37 14 -11 7 -37 16 -58
20 -20 4 -70 21 -110 38 -39 16 -91 35 -114 42 -23 6 -46 15 -50 20 -9 9 -11
66 -2 60 4 -2 9 7 11 21 3 13 0 26 -6 29 -6 2 -3 5 7 5 19 1 24 21 5 22 -7 0
-3 4 10 9 22 9 31 30 12 30 -5 0 -10 -4 -10 -10 0 -5 -6 -10 -14 -10 -14 0
-31 -27 -27 -44 1 -5 -10 -26 -24 -47 -25 -35 -29 -37 -53 -26 -15 6 -34 17
-43 24 -8 7 -23 13 -31 13 -8 0 -44 15 -79 34 -147 77 -204 108 -228 125 -14
10 -41 24 -58 32 -18 8 -33 17 -33 21 0 5 -5 8 -10 8 -6 0 -33 16 -61 35 -28
19 -55 35 -59 35 -5 0 -10 10 -12 22 -2 16 -11 24 -28 27 -14 1 -27 6 -30 10
-3 3 -20 14 -38 24 -18 11 -48 34 -66 52 -19 18 -49 41 -67 50 -19 10 -54 37
-77 61 -24 24 -50 44 -57 44 -21 0 -185 153 -185 173 0 5 4 6 9 3 12 -8 61 32
61 50 0 8 4 13 9 10 5 -3 14 8 21 24 7 17 16 30 21 30 5 0 27 18 49 41 l40 41
42 -40 c53 -51 129 -106 122 -89 -2 6 -28 32 -56 57 -28 25 -62 56 -75 69
l-25 23 32 33 c21 22 38 31 51 28 10 -3 19 -9 19 -14 0 -5 6 -9 14 -9 8 0 17
-6 20 -12 3 -9 9 -8 20 6 19 23 39 12 30 -17 -6 -20 -5 -21 11 -7 17 14 18 13
12 -2 -4 -12 -1 -18 9 -18 8 0 19 -11 24 -25 9 -23 21 -30 43 -26 5 1 6 -3 3
-8 -4 -5 -2 -12 4 -16 5 -3 10 -1 10 6 0 6 20 -5 44 -25 24 -20 49 -36 55 -36
6 0 11 -4 11 -10 0 -5 -8 -6 -17 -3 -16 6 -16 5 -4 -10 8 -10 21 -15 32 -12
10 3 21 0 26 -8 4 -8 17 -19 28 -25 17 -10 18 -11 3 -12 -10 0 -18 -4 -18 -8
0 -5 12 -7 28 -4 24 3 28 0 30 -23 2 -26 -40 -104 -64 -118 -8 -4 -14 -14 -14
-21 0 -7 -8 -21 -18 -32 -9 -11 -28 -41 -42 -67 -25 -47 -40 -60 -40 -32 0 8
-7 15 -16 15 -15 0 -15 -2 1 -26 13 -21 14 -31 6 -57 -12 -32 -2 -55 19 -42 8
5 8 10 -1 21 -9 11 -8 14 3 14 15 0 88 82 88 99 0 5 8 15 18 20 9 6 13 11 8
11 -5 0 -2 8 6 18 9 9 28 40 43 67 15 28 36 59 46 71 11 11 19 26 19 33 0 7 5
9 11 6 6 -4 8 -13 5 -21 -7 -18 8 -18 24 1 10 12 9 16 -4 21 -18 7 -21 31 -5
36 7 2 12 18 13 35 1 18 6 29 12 26 6 -2 14 7 18 21 3 14 11 26 16 26 6 0 10
5 10 12 0 6 7 20 17 30 15 16 15 18 0 18 -11 0 -14 5 -10 16 3 8 11 13 18 10
6 -2 16 -1 22 2 10 7 98 152 127 209 9 18 28 44 42 60 14 15 32 43 40 61 12
29 18 33 38 28 14 -3 28 -1 32 6 4 7 3 8 -4 4 -14 -8 -17 25 -3 40 4 5 11 21
15 37 6 24 4 27 -20 27 -17 0 -28 -6 -31 -19 -5 -21 -33 -37 -42 -24 -3 5 -18
14 -33 20 -40 18 -38 -10 1 -33 l30 -17 -21 -41 c-11 -23 -28 -50 -38 -61 -21
-24 -125 -194 -152 -247 -10 -20 -23 -40 -29 -43 -5 -4 -14 -17 -20 -28 -9
-23 -17 -36 -61 -104 -16 -23 -28 -46 -28 -52 0 -19 -35 -12 -48 9 -7 11 -17
20 -22 20 -6 0 -36 20 -68 45 -31 25 -61 49 -67 53 -27 19 -123 101 -161 137
-23 22 -52 48 -64 58 -17 14 -20 25 -15 45 3 15 6 36 6 47 0 15 2 16 8 6 7
-11 15 -9 40 10 17 12 33 31 36 40 3 10 14 21 24 24 10 3 22 14 27 25 5 11 48
60 97 109 48 49 87 94 87 100 0 6 5 11 10 11 6 0 10 6 10 14 0 8 14 24 31 36
19 14 30 30 28 44 -3 45 -1 47 32 30 17 -8 51 -34 75 -56 60 -55 68 -41 10 15
-25 25 -46 47 -46 50 0 3 18 25 40 48 22 24 39 48 37 54 -2 5 -18 11 -36 13
-25 3 -37 -3 -59 -27 -14 -17 -31 -31 -37 -31 -10 0 -195 186 -195 196 0 4
-12 21 -27 39 -74 86 -72 82 -43 115 20 23 19 40 -3 40 -7 0 -18 -9 -25 -20
-16 -27 -25 -25 -44 7 -9 16 -25 37 -36 49 -11 11 -48 69 -82 127 -35 59 -67
107 -72 107 -4 0 -8 6 -8 14 0 8 -16 37 -35 66 -19 29 -35 55 -35 59 0 3 -11
22 -24 41 -12 19 -29 53 -36 75 -7 22 -17 46 -23 53 -27 34 -120 289 -111 304
3 4 -2 8 -10 8 -9 0 -16 9 -16 20 0 11 -9 53 -19 93 -58 214 -72 277 -74 322
-1 28 -6 53 -11 56 -5 4 -10 24 -11 45 -1 22 -6 82 -9 134 -15 211 -16 236
-10 278 4 25 11 41 18 39 6 -2 20 0 31 6 19 10 19 9 5 -8 -14 -17 -13 -18 3
-12 10 4 22 7 27 7 5 0 9 8 8 18 0 28 9 75 21 106 11 27 49 63 61 59 3 -1 12
-42 21 -91 11 -66 12 -89 4 -89 -7 0 -10 8 -8 16 3 13 -4 16 -39 14 -24 -1
-45 -2 -48 -2 -3 -1 8 -9 23 -20 22 -14 49 -18 122 -19 52 -1 104 2 116 6 20
8 20 9 4 25 -9 9 -21 17 -26 17 -13 0 -11 -18 4 -23 9 -4 9 -6 0 -6 -17 -1
-53 30 -53 46 0 7 -8 21 -18 31 -14 14 -21 41 -25 97 -4 43 -9 80 -12 83 -15
15 -125 -56 -125 -81 0 -5 -10 -17 -23 -27 -13 -10 -32 -39 -42 -65 -13 -30
-25 -45 -35 -43 -12 3 -14 17 -12 78 2 41 5 89 7 105 2 17 7 64 11 105 3 41
10 77 13 80 4 3 7 23 8 46 0 22 6 51 13 65 8 13 14 45 14 71 1 25 4 50 9 54 4
4 7 20 7 35 0 16 9 52 19 81 11 29 29 87 41 128 30 101 54 148 77 145 21 -2
55 -14 135 -49 43 -19 60 -20 75 -5 9 9 9 17 0 33 -19 33 -37 44 -115 67 -41
13 -76 28 -78 34 -6 13 22 81 36 90 5 3 10 14 10 23 0 18 43 107 75 155 21 33
50 82 67 115 12 23 32 29 43 12 3 -5 17 -10 31 -10 14 0 27 -7 30 -15 6 -14
110 -85 125 -85 4 0 9 6 12 14 8 21 -22 51 -78 77 -62 28 -115 67 -115 84 0 7
11 24 25 39 14 15 25 31 25 36 0 4 15 26 33 48 17 22 45 56 61 76 l30 36 12
-30 c7 -16 26 -38 42 -47 16 -10 27 -24 24 -32 -3 -10 0 -12 12 -8 9 4 15 3
11 -2 -3 -5 8 -20 23 -33 16 -13 33 -31 38 -40 5 -9 43 -53 84 -98 41 -46 77
-87 78 -91 2 -5 7 -9 12 -9 5 0 35 -26 68 -57 33 -32 69 -65 81 -73 11 -8 21
-20 21 -26 0 -6 20 -30 45 -52 25 -22 45 -45 45 -50 0 -9 26 -25 40 -25 3 0
15 -11 27 -24 12 -12 21 -23 19 -23 -7 0 89 -104 128 -140 72 -65 166 -162
166 -171 0 -5 4 -9 9 -9 6 0 17 -12 27 -27 9 -16 29 -38 44 -50 24 -19 29 -20
34 -8 4 10 -3 19 -19 25 -14 5 -25 13 -25 18 0 18 -183 212 -200 212 -6 0 -9
4 -6 9 7 10 -271 297 -284 294 -6 -2 -9 0 -8 5 3 14 -37 72 -54 78 -10 3 -18
9 -18 14 0 5 -32 39 -71 77 -116 112 -173 170 -194 198 -18 25 -50 61 -147
168 -21 23 -38 46 -38 51 0 6 14 25 32 43 33 34 49 33 87 -5 10 -10 16 -11 19
-3 3 8 9 8 24 0 33 -17 29 -6 -13 40 -44 50 -46 57 -22 83 9 11 11 18 5 18 -7
0 -12 -4 -12 -9 0 -26 -33 -14 -80 27 -63 56 -118 91 -143 92 -14 0 -17 5 -12
20 5 15 3 18 -9 14 -11 -4 -16 -1 -16 10 0 9 -4 24 -8 34 -9 17 -30 60 -49 97
-5 11 -20 40 -32 65 -13 25 -39 77 -60 115 -30 58 -35 74 -26 91 10 19 12 20
33 6 12 -8 22 -21 22 -28 0 -8 7 -14 16 -14 8 0 47 -32 85 -72 52 -54 70 -79
69 -98 -3 -45 11 -66 67 -100 40 -25 57 -30 62 -21 6 9 22 -1 57 -35 27 -25
59 -53 72 -61 23 -16 30 -43 11 -43 -5 0 -7 -5 -4 -10 4 -6 3 -16 -3 -23 -5
-7 -12 -20 -16 -31 -5 -15 0 -14 29 9 23 17 44 25 56 22 16 -4 19 -2 13 15 -5
17 5 31 47 70 30 27 66 55 81 63 15 9 38 26 52 40 30 30 50 31 76 5 37 -37 51
-20 30 36 -8 19 -7 30 2 41 12 14 157 112 188 126 8 4 35 18 59 32 24 14 49
25 54 25 6 0 21 10 34 21 l22 22 10 -24 c14 -38 49 -72 65 -66 15 6 16 33 4
112 -2 15 5 22 35 29 20 5 37 13 37 18 0 4 4 8 9 8 6 0 47 18 93 39 110 52
138 54 170 16 14 -17 28 -43 32 -58 6 -27 31 -46 43 -34 5 6 -9 96 -22 142 -5
17 2 22 52 38 32 9 73 20 91 23 17 4 32 10 32 15 0 14 -14 11 -91 -16 -38 -13
-76 -22 -83 -19 -13 5 -32 44 -62 124 -50 138 -95 267 -97 280 -1 8 -9 26 -16
39 -8 14 -24 56 -36 95 -13 39 -26 78 -30 87 -7 18 6 25 123 59 75 23 90 42
37 48 -28 4 -73 -14 -87 -33 -10 -14 -85 -16 -96 -2 -5 6 -14 31 -20 55 -11
47 -14 43 53 68 24 9 22 8 63 18 17 4 32 11 32 14 0 4 21 8 48 9 26 1 72 9
102 17 30 8 82 20 115 26 33 6 74 15 92 20 25 6 37 4 54 -11 11 -10 19 -22 16
-26 -3 -5 -2 -27 3 -51 l7 -42 -46 -2 c-101 -3 -137 -9 -233 -35 -33 -9 -58
-21 -58 -29 0 -19 12 -23 40 -12 14 6 35 12 46 13 68 10 98 16 117 27 12 6 23
10 25 9 1 -2 20 0 42 4 21 4 48 4 58 0 18 -5 36 -38 33 -59 -1 -5 5 -6 14 -2
9 3 19 6 23 6 3 0 -5 11 -18 25 -13 14 -20 28 -17 32 4 3 14 -2 22 -13 11 -14
15 -15 14 -4 -3 33 2 39 39 40 70 1 77 2 113 11 19 5 133 11 252 14 l217 5 1
-22 c3 -57 -11 -575 -17 -624 l-5 -41 -122 -2 c-67 -2 -142 -3 -166 -3 -25 1
-50 -2 -55 -7 -14 -10 -82 -14 -107 -6 -26 9 -45 50 -53 115 -22 175 -51 282
-82 294 -32 12 -34 -4 -3 -35 12 -12 15 -19 8 -17 -18 6 -46 -21 -54 -52 -8
-32 -27 -57 -45 -61 -20 -3 -89 12 -95 20 -2 4 12 22 31 40 19 18 39 42 45 53
11 20 9 20 -36 13 -54 -8 -92 -22 -118 -44 -16 -13 -19 -13 -27 -1 -14 23 -91
16 -134 -12 -32 -20 -36 -27 -31 -52 7 -39 43 -96 61 -96 27 0 64 32 91 77 24
41 54 63 88 63 7 0 1 -13 -16 -31 -47 -50 -35 -71 49 -85 53 -8 105 10 146 52
l34 35 7 -37 c4 -23 2 -39 -5 -44 -7 -4 -4 -15 10 -32 28 -36 39 -158 16 -177
-13 -11 -176 -50 -208 -51 -5 0 -8 -4 -8 -9 0 -4 50 1 111 12 l110 20 28 -27
c31 -29 41 -32 41 -12 0 8 8 23 18 35 19 23 121 36 350 46 l123 5 -3 -87 -3
-88 -30 -3 c-16 -2 -42 -7 -56 -13 -24 -9 -30 -7 -60 24 -39 40 -67 43 -82 10
-22 -48 32 -153 78 -153 14 0 40 14 59 30 39 35 76 47 76 25 0 -20 -54 -55
-84 -55 -25 0 -26 -2 -21 -33 6 -29 3 -33 -25 -44 -27 -10 -31 -16 -25 -35 4
-13 15 -32 24 -43 24 -28 53 -75 46 -75 -3 0 -19 7 -35 15 -43 22 -172 32
-186 14 -15 -19 -26 -79 -15 -79 5 0 13 -15 16 -32 8 -37 36 -68 61 -68 9 0
32 16 51 36 19 20 35 35 37 33 10 -12 40 -75 38 -81 -1 -5 4 -8 11 -8 16 0 57
-37 57 -50 0 -5 -12 -12 -27 -16 -67 -15 -64 -10 -62 -87 2 -43 -3 -81 -10
-95 -10 -20 -9 -29 13 -69 34 -60 33 -69 -10 -78 -41 -7 -41 1 5 -124 34 -94
51 -120 51 -78 0 19 8 31 30 42 17 9 30 22 30 30 0 8 4 15 9 15 15 0 23 37 16
69 -4 18 -16 33 -37 42 -17 8 -35 24 -39 37 -7 19 -5 22 21 22 15 0 35 3 44 6
17 6 22 34 7 34 -5 0 -11 9 -14 20 -5 20 -27 28 -27 10 0 -5 -12 -10 -26 -10
-16 0 -24 5 -22 13 4 10 22 19 77 33 15 5 7 69 -11 92 -8 9 -6 12 5 12 25 0
28 14 10 60 -16 40 -16 44 0 72 25 43 22 88 -9 121 l-25 27 20 27 c23 29 26
58 11 99 -11 29 -24 24 -33 -11 -3 -11 -5 0 -6 25 0 29 2 40 8 31 5 -7 10 -9
12 -3 2 6 15 12 28 14 l23 3 2 -168 c0 -93 -1 -171 -4 -173 -9 -10 2 -90 15
-103 11 -11 14 -10 20 8 4 13 1 28 -5 36 -9 11 -9 19 -2 28 6 7 14 80 17 162
4 83 9 188 11 235 3 47 6 137 8 201 2 64 6 121 11 129 6 9 38 11 139 6 72 -3
154 -8 181 -11 41 -3 37 -2 -20 10 -38 8 -122 20 -185 27 l-115 13 -2 115 c-1
63 -3 138 -3 165 -1 72 9 255 15 290 3 17 8 47 11 68 6 36 7 37 48 37 80 -1
381 -40 540 -72 l58 -11 -4 -49 c-4 -36 -1 -51 11 -60 9 -7 13 -8 9 -4 -4 5
-3 15 3 23 9 9 8 13 0 13 -6 0 -11 5 -11 10 0 6 7 10 15 10 14 0 20 12 16 34
-2 9 66 3 124 -12 44 -12 48 -11 39 11 -3 9 -17 15 -32 15 -86 -2 -120 27
-102 90 16 58 20 61 70 52 51 -10 96 -13 88 -5 -3 3 -31 10 -63 15 -32 5 -62
13 -67 18 -4 4 -4 21 1 37 16 51 44 169 49 203 5 36 26 41 79 21 15 -6 51 -15
78 -20 53 -10 201 -54 328 -97 85 -30 92 -40 58 -96 -11 -17 -29 -60 -41 -96
-12 -36 -28 -78 -35 -95 -8 -16 -21 -56 -30 -88 -16 -56 -18 -58 -43 -52 -15
4 -28 11 -30 16 -2 5 -14 9 -27 9 -13 0 -26 4 -29 9 -7 10 -76 11 -76 1 0 -4
19 -13 43 -20 23 -8 47 -17 52 -20 6 -4 22 -10 38 -14 33 -8 36 -41 8 -95 -24
-46 -42 -101 -36 -111 3 -4 -2 -10 -10 -14 -8 -3 -15 -14 -15 -25 0 -11 -4
-22 -9 -25 -8 -6 -47 -116 -53 -151 -2 -11 -5 -22 -8 -25 -13 -13 -58 -109
-64 -136 -4 -17 -16 -41 -27 -52 -23 -25 -37 -82 -20 -82 6 0 21 12 34 26 12
15 28 32 35 40 6 7 12 20 12 29 0 16 11 22 137 69 39 15 97 46 129 68 50 36
55 43 40 53 -18 14 -21 25 -6 25 13 0 100 62 100 71 0 4 -16 21 -35 38 -46 40
-79 40 -139 -1 -52 -34 -66 -55 -46 -68 19 -12 48 10 43 31 -8 31 35 35 64 6
14 -14 23 -29 19 -35 -3 -5 -31 -22 -63 -37 -51 -24 -56 -28 -40 -40 33 -24 3
-53 -101 -100 -34 -15 -65 -25 -69 -21 -4 3 3 30 15 59 12 29 22 62 22 75 0
12 3 22 8 22 9 0 42 74 42 94 0 8 5 16 10 18 6 2 13 27 17 56 4 33 11 52 19
52 7 0 16 16 20 35 3 19 10 35 14 35 8 0 26 58 22 73 -1 4 1 7 6 7 21 -1 101
-23 132 -37 19 -9 55 -25 80 -36 58 -25 260 -126 324 -161 30 -16 57 -24 69
-20 13 4 17 2 13 -5 -4 -6 0 -14 8 -17 14 -5 14 -9 1 -34 -8 -16 -15 -35 -15
-43 0 -7 -8 -22 -18 -33 -10 -10 -32 -40 -49 -66 -17 -26 -40 -59 -51 -75 -10
-15 -57 -85 -103 -155 -46 -71 -89 -128 -96 -128 -6 0 -9 -8 -6 -19 3 -12 -3
-24 -16 -33 -12 -8 -18 -18 -15 -21 4 -4 -5 -22 -20 -41 -14 -19 -26 -39 -26
-45 0 -6 -4 -11 -9 -11 -9 0 -24 -30 -18 -36 7 -7 67 27 67 37 0 6 13 24 30
42 l29 31 28 -20 c35 -25 63 -36 63 -24 0 5 -8 11 -18 14 -11 4 -29 17 -41 30
l-22 23 25 39 c14 22 31 46 38 54 7 8 18 24 24 35 6 11 21 38 33 59 13 22 21
50 18 62 -2 14 0 21 8 18 11 -5 65 62 65 80 0 4 7 14 15 23 8 8 12 19 9 25 -5
7 -2 8 5 4 8 -5 14 0 18 13 3 12 9 21 14 21 5 0 9 8 9 19 0 10 8 29 19 42 10
13 16 29 14 36 -3 7 3 9 16 6 15 -4 21 -1 21 10 0 24 19 31 39 13 10 -9 26
-16 36 -16 14 0 15 3 5 15 -7 8 -21 15 -31 15 -25 0 -25 2 18 66 21 32 42 53
49 50 8 -3 11 0 7 10 -3 9 -1 25 5 37 6 12 16 37 24 55 7 17 18 32 25 32 6 0
15 11 20 24 4 13 25 42 46 65 l37 41 103 -62 c56 -34 140 -93 186 -131 47 -38
92 -72 100 -75 20 -8 71 -53 71 -63 0 -4 -13 -22 -29 -40 -16 -17 -27 -37 -24
-44 2 -7 0 -16 -6 -20 -7 -3 -8 0 -5 10 5 11 2 14 -10 9 -9 -3 -16 -12 -16
-18 0 -19 -86 -106 -104 -106 -10 0 -16 -9 -16 -24 0 -17 7 -26 25 -30 14 -4
30 -4 35 -1 6 4 10 1 10 -6 0 -7 3 -10 6 -6 3 3 1 13 -4 23 -8 14 0 26 35 61
24 24 40 49 37 55 -4 7 -3 8 4 4 7 -4 12 -1 12 6 0 8 14 22 30 32 17 9 39 27
50 38 l19 21 38 -29 c91 -68 393 -365 393 -385 0 -9 -13 -22 -28 -28 -15 -6
-48 -30 -72 -53 -76 -69 -101 -88 -116 -88 -7 0 -37 25 -66 55 -29 30 -58 59
-64 66 -36 37 -146 138 -174 159 -18 14 -42 33 -52 43 -11 10 -21 17 -24 15
-6 -6 75 -87 131 -133 59 -47 85 -72 85 -82 0 -12 109 -123 121 -123 22 0 5
-42 -34 -84 -47 -49 -57 -55 -57 -31 0 9 -20 35 -45 59 -25 25 -45 49 -45 55
0 6 -4 11 -9 11 -5 0 -13 10 -16 21 -8 24 -83 109 -96 109 -15 0 -1 -59 21
-90 12 -16 25 -30 29 -30 11 0 151 -138 151 -148 0 -4 -12 -16 -25 -27 -14
-11 -40 -33 -58 -48 -18 -16 -42 -36 -54 -44 -21 -14 -34 -41 -14 -29 5 4 11
2 13 -4 4 -11 87 50 88 65 0 6 14 19 30 29 17 9 28 22 25 27 -11 16 11 9 33
-11 27 -25 42 -25 42 -1 0 23 -16 37 -22 19 -3 -7 -5 1 -5 19 0 21 4 30 13 26
7 -2 20 7 29 21 25 38 46 36 88 -9 20 -22 37 -43 37 -47 0 -5 7 -8 15 -8 8 0
15 5 15 10 0 6 -7 10 -15 10 -8 0 -15 7 -15 15 0 8 -3 15 -8 15 -9 0 -33 37
-37 60 -2 12 9 24 38 38 23 12 73 46 111 76 67 53 69 54 91 38 13 -9 32 -30
44 -47 11 -16 33 -44 48 -60 45 -48 106 -126 134 -170 14 -22 33 -47 41 -56 9
-9 32 -40 51 -70 19 -30 44 -63 55 -75 24 -25 38 -64 22 -64 -6 0 -22 -11 -36
-25 -13 -14 -28 -24 -32 -23 -11 2 -62 -24 -62 -32 0 -4 -18 -15 -39 -25 -22
-10 -42 -24 -46 -33 -5 -12 -10 -11 -30 8 -13 13 -22 26 -20 30 5 9 -28 53
-65 89 -14 13 -24 28 -22 33 1 5 -9 19 -23 30 -14 11 -25 28 -25 38 0 10 -23
40 -51 66 -27 27 -59 63 -70 81 -19 31 -39 43 -39 24 0 -4 23 -32 50 -62 28
-30 50 -59 50 -65 0 -6 7 -17 15 -24 20 -16 100 -131 121 -173 9 -18 27 -44
41 -58 l25 -27 -24 -22 c-27 -26 -95 -60 -102 -52 -4 3 -6 16 -6 29 0 14 -6
23 -15 23 -8 0 -15 9 -15 20 0 11 -4 20 -10 20 -5 0 -10 7 -10 16 0 8 -5 12
-10 9 -11 -7 -33 42 -25 55 6 10 -30 42 -38 33 -4 -3 -7 -1 -7 5 0 6 -11 23
-24 37 -13 14 -27 37 -31 52 -9 36 -54 93 -74 93 -21 0 -61 40 -61 60 0 10 -3
11 -10 4 -12 -12 -3 -44 11 -44 4 0 14 -11 21 -24 12 -21 40 -56 116 -145 13
-14 39 -53 59 -86 20 -33 54 -83 75 -111 21 -28 38 -55 38 -60 0 -5 -33 -27
-73 -49 -39 -22 -97 -54 -127 -71 -30 -16 -74 -42 -97 -57 -23 -15 -60 -35
-83 -44 -27 -12 -40 -24 -40 -38 0 -15 -2 -17 -9 -6 -8 13 -50 -5 -126 -55
-24 -16 -65 -12 -65 7 0 5 -9 20 -20 32 -11 12 -33 44 -49 72 -16 28 -36 57
-45 64 -9 7 -16 19 -16 25 0 7 -10 22 -22 33 -13 11 -39 39 -58 61 -22 27 -37
37 -42 29 -4 -6 12 -33 38 -63 24 -29 44 -56 44 -61 0 -5 12 -20 28 -34 60
-56 123 -147 126 -184 1 -6 13 -23 27 -38 14 -16 37 -50 50 -77 13 -28 27 -50
32 -50 4 0 7 -4 7 -9 0 -5 18 -40 39 -78 21 -37 45 -85 52 -105 7 -21 16 -38
20 -38 16 0 20 22 7 38 -12 14 -52 89 -111 207 -6 11 -14 27 -19 35 -4 8 -13
27 -19 42 -6 16 -15 25 -20 22 -18 -11 -8 9 15 31 14 13 26 19 28 14 3 -10
111 39 116 53 2 4 10 8 18 8 8 0 14 5 14 10 0 6 9 10 20 10 11 0 20 4 20 9 0
5 10 13 23 17 12 4 47 23 77 43 78 51 92 59 118 71 13 5 43 24 67 40 24 17 49
30 55 30 7 0 10 7 6 15 -4 13 -2 14 14 5 11 -6 30 -32 42 -58 12 -26 35 -66
50 -89 16 -24 27 -43 24 -43 -3 0 12 -30 33 -67 32 -59 64 -126 67 -143 0 -3
13 -31 28 -63 15 -33 26 -60 24 -62 -2 -1 -25 -10 -53 -20 -27 -10 -54 -22
-60 -26 -5 -3 -26 -10 -45 -14 -19 -4 -59 -21 -89 -36 -30 -16 -65 -29 -78
-29 -13 0 -26 -6 -29 -14 -3 -7 -15 -14 -27 -14 -35 0 -119 -40 -111 -53 4 -8
9 -7 15 2 7 11 9 10 9 -3 0 -19 15 -24 25 -9 3 5 20 13 38 16 17 4 39 13 48
21 9 8 40 19 71 24 30 6 72 19 93 30 22 11 46 20 55 20 8 0 24 7 34 15 10 8
23 12 27 9 5 -3 9 5 9 18 0 16 3 19 8 10 6 -9 16 -10 33 -4 37 13 54 5 68 -33
7 -19 17 -35 22 -35 5 0 9 -10 9 -22 0 -13 13 -63 29 -113 32 -97 61 -200 65
-227 1 -10 5 -21 9 -24 4 -4 7 -22 7 -40 0 -19 6 -34 15 -38 11 -4 15 -16 12
-43 -3 -31 -9 -39 -33 -46 -16 -5 -34 -14 -41 -19 -7 -5 -22 -7 -35 -3 -16 4
-19 3 -10 -3 10 -6 -4 -10 -41 -11 -31 0 -66 -5 -79 -10 -14 -5 -51 -12 -84
-15 -56 -6 -68 -8 -131 -22 l-26 -5 29 -18 c21 -12 44 -16 82 -13 28 2 52 7
52 11 0 4 41 13 90 20 70 11 90 17 90 30 0 12 2 13 9 3 8 -14 40 -10 94 10 20
8 31 7 42 -2 9 -7 13 -15 11 -17 -3 -3 -1 -16 4 -29 5 -13 12 -52 15 -87 7
-84 18 -165 25 -184 3 -8 5 -41 8 -150 2 -48 7 -68 22 -83 21 -21 27 -35 10
-25 -5 3 -12 -7 -16 -22 -13 -62 36 -55 -412 -55 -156 0 -285 2 -289 5 -3 3
-7 54 -9 114 -2 59 -9 137 -14 173 -9 56 -17 135 -20 190 0 12 -2 12 -10 -1
-6 -10 -8 -32 -5 -50 13 -91 34 -291 37 -349 3 -71 -5 -93 -30 -86 -10 3 -43
6 -74 8 -38 2 -58 7 -58 15 0 7 4 13 8 13 11 0 42 94 42 125 0 13 -13 37 -30
55 -26 28 -34 31 -68 26 -52 -7 -93 -26 -117 -53 -11 -13 -26 -23 -32 -23 -6
0 -20 -11 -31 -25 -24 -31 -38 -32 -45 -4 -5 19 -10 21 -49 15 -23 -4 -45 -10
-48 -14 -10 -14 -70 -52 -81 -52 -8 0 -10 12 -6 35 7 42 -1 44 -60 9 -25 -14
-45 -24 -47 -22 -1 1 -8 21 -15 43 -22 62 -58 113 -83 117 -18 2 -22 8 -20 30
4 38 -12 65 -50 84 -27 14 -41 15 -102 5 -76 -12 -164 -38 -183 -53 -10 -8 -9
-15 3 -34 23 -34 71 -55 111 -48 41 8 53 24 18 24 -23 0 -75 41 -75 60 0 12
135 26 167 18 53 -14 85 -91 56 -135 -8 -12 -13 -30 -9 -38 14 -37 -77 -172
-96 -142 -4 7 -8 20 -8 29 0 30 -36 41 -72 24 -34 -17 -50 -13 -47 12 3 32 -1
32 -43 2 -50 -36 -58 -37 -58 -5 0 27 -12 30 -60 16 -19 -6 -31 -2 -52 17 -15
14 -29 24 -31 21 -1 -2 -19 -23 -40 -47 -20 -23 -37 -48 -37 -55 0 -6 12 3 26
21 35 45 48 41 42 -13 -3 -24 -3 -47 1 -50 3 -4 6 -12 6 -18 1 -7 7 -11 15 -9
8 2 22 4 31 5 9 1 15 6 12 13 -2 6 -13 9 -25 6 -19 -5 -19 -4 3 31 32 49 54
49 45 2 -4 -19 -3 -35 1 -35 4 0 28 11 52 25 54 32 65 31 58 -1 -3 -16 0 -28
9 -31 8 -3 11 -10 7 -16 -4 -6 3 -8 21 -3 15 4 26 2 26 -4 0 -6 34 -10 86 -10
47 0 83 4 80 9 -9 14 24 71 41 71 22 0 74 -33 70 -45 -2 -5 -14 -11 -28 -12
-22 -2 -22 -2 -4 7 15 7 11 8 -20 6 -24 -2 -40 -8 -40 -16 0 -17 133 -24 152
-8 9 7 13 7 13 0 0 -17 310 -14 338 4 14 9 21 10 20 3 -2 -6 3 -14 10 -16 8
-3 11 3 8 19 -4 24 -33 27 -49 5 -6 -8 -7 -5 -3 6 6 19 -10 22 -34 7 -13 -9
-13 -11 0 -20 13 -8 12 -10 -2 -10 -19 0 -23 17 -10 36 4 5 23 15 42 20 l35
10 -47 12 c-30 8 -48 18 -48 27 0 18 16 20 26 4 4 -7 21 -9 46 -5 35 6 40 4
34 -10 -4 -11 1 -22 13 -31 15 -10 19 -21 15 -42 -5 -23 -2 -29 15 -34 11 -2
22 0 24 7 3 8 8 8 17 -1 11 -10 16 -9 27 5 12 16 13 16 6 -2 -5 -16 -3 -18 11
-13 14 5 17 3 12 -8 -5 -15 5 -21 17 -9 4 4 58 9 121 11 114 5 115 5 121 -18
9 -35 8 -53 -3 -175 -17 -176 -32 -246 -52 -251 -27 -7 -33 -43 -8 -43 22 0
22 -3 -12 -140 -10 -41 -21 -95 -24 -120 -6 -40 -18 -86 -34 -130 -3 -8 -7
-19 -7 -25 -1 -5 -9 -27 -19 -47 -9 -21 -16 -42 -16 -48 0 -5 -4 -10 -9 -10
-4 0 -11 -20 -14 -43 -4 -24 -13 -57 -20 -73 -53 -109 -107 -242 -107 -262 0
-7 -4 -10 -10 -7 -5 3 -23 -21 -39 -53 -20 -39 -38 -62 -53 -66 -16 -4 -19 -8
-11 -14 13 -8 6 -52 -8 -52 -5 0 -9 -6 -9 -13 0 -8 -9 -22 -20 -32 -11 -10
-20 -22 -20 -27 0 -6 -9 -21 -20 -35 -30 -39 -24 -50 10 -18 17 16 30 34 30
40 0 6 9 18 20 28 12 10 19 21 17 25 -3 4 6 18 19 32 13 13 24 19 24 12 0 -6
8 -12 18 -12 10 0 29 -11 41 -24 12 -13 43 -34 69 -47 26 -13 49 -27 52 -31 9
-12 80 -39 89 -34 4 3 20 -6 35 -20 15 -14 34 -23 42 -20 8 3 14 -1 14 -9 0
-8 5 -15 10 -15 21 0 9 27 -17 41 -16 7 -44 25 -62 39 -19 14 -31 18 -27 10 5
-8 -1 -5 -13 8 -12 12 -27 22 -34 22 -7 0 -23 12 -36 26 -13 13 -53 39 -88 56
-66 31 -85 52 -74 78 14 34 54 90 62 90 6 0 9 6 8 13 -6 33 36 119 69 140 6 4
12 15 12 23 0 8 7 25 15 38 9 13 15 28 14 32 -2 10 6 35 24 71 l10 23 33 -25
c18 -14 42 -25 54 -25 12 0 19 -3 16 -8 -2 -4 30 -18 72 -31 43 -14 80 -29 83
-33 7 -11 55 -22 92 -21 16 0 24 -3 17 -7 -11 -7 62 -40 88 -40 7 0 30 -11 52
-25 21 -14 56 -27 76 -29 46 -6 59 -18 46 -42 -6 -11 -18 -41 -28 -69 -29 -85
-199 -419 -233 -459 -20 -23 -61 -107 -61 -123 0 -7 -4 -13 -9 -13 -6 0 -27
-26 -48 -57 -21 -32 -43 -64 -50 -71 -7 -7 -13 -17 -13 -22 0 -5 -14 -24 -30
-42 -17 -18 -33 -42 -36 -53 -4 -11 -22 -33 -40 -49 -33 -27 -36 -28 -54 -11
-20 18 -40 13 -40 -9 0 -8 7 -19 15 -26 21 -17 19 -33 -5 -48 -17 -11 -21 -10
-26 5 -3 10 -12 32 -20 48 -9 19 -12 42 -8 62 6 29 2 37 -35 71 -47 44 -81
101 -81 136 0 19 7 25 33 30 43 8 85 45 88 76 1 14 -5 41 -14 60 -15 33 -14
35 3 38 35 6 70 52 70 92 0 40 -33 83 -69 93 -47 12 -91 -44 -56 -73 20 -16
20 -70 0 -70 -34 0 -65 -23 -65 -50 0 -34 8 -42 32 -29 15 8 24 7 39 -7 27
-24 24 -37 -12 -53 -26 -11 -35 -11 -56 0 -13 7 -29 22 -35 34 -6 11 -17 24
-24 28 -32 18 -11 82 44 136 19 18 21 25 11 37 -22 26 -40 14 -69 -48 -17 -35
-30 -69 -30 -75 0 -7 -7 -13 -15 -13 -8 0 -15 6 -15 14 0 7 -16 30 -35 51 -25
26 -34 43 -30 56 4 10 2 19 -3 19 -6 0 -12 -5 -14 -12 -3 -7 -21 5 -45 28 -22
21 -87 82 -144 136 -57 53 -159 150 -226 216 -68 65 -125 117 -128 114 -7 -8
-35 19 -29 29 7 11 -41 59 -59 59 -16 0 -50 34 -42 42 3 3 -7 5 -22 5 -25 0
-14 -12 101 -121 123 -116 339 -329 362 -357 6 -8 37 -36 68 -63 31 -27 54
-51 51 -54 -3 -3 -13 2 -23 11 -10 10 -24 17 -30 17 -25 0 -9 -21 51 -66 34
-26 64 -49 66 -51 2 -1 -3 -11 -12 -21 -10 -10 -14 -22 -11 -25 4 -4 13 1 20
11 11 16 13 16 33 -2 12 -11 21 -24 21 -31 0 -6 24 -22 53 -36 55 -26 79 -59
92 -132 9 -44 -4 -48 -49 -14 -17 12 -48 31 -68 42 -21 11 -38 25 -38 32 0 7
-6 13 -12 13 -17 0 -58 64 -58 90 0 15 -7 20 -25 20 -20 0 -26 -7 -35 -37 -6
-23 -34 -64 -69 -103 -58 -62 -60 -64 -79 -47 -17 16 -20 16 -25 2 -4 -8 -2
-15 3 -15 6 0 10 -8 10 -17 -1 -20 -54 -83 -70 -83 -5 0 -10 -4 -10 -10 0 -5
-6 -10 -12 -10 -7 0 -18 -11 -25 -25 -9 -20 -8 -25 3 -25 8 0 20 11 26 25 6
14 14 25 18 25 4 0 27 18 50 40 31 29 48 39 62 34 16 -5 19 -2 14 13 -6 21 1
34 29 49 11 6 25 21 31 33 6 12 24 35 39 51 l28 29 65 -70 c36 -39 99 -93 141
-120 41 -27 81 -58 88 -69 8 -11 19 -18 24 -15 5 4 9 1 9 -4 0 -6 20 -40 45
-77 25 -36 45 -68 45 -71 0 -3 14 -25 30 -50 l30 -44 -35 -32 c-19 -17 -35
-36 -35 -42 0 -6 -11 -17 -24 -24 -21 -12 -27 -9 -66 28 -39 37 -45 40 -59 26
-14 -14 -12 -18 17 -45 18 -17 36 -30 40 -30 22 0 5 -43 -34 -84 -24 -26 -44
-45 -44 -43 0 2 -27 -21 -59 -52 -33 -31 -74 -68 -93 -83 -18 -14 -30 -29 -27
-33 10 -9 60 6 53 16 -3 5 0 9 7 9 12 0 109 98 109 110 0 3 16 14 35 24 19 11
35 24 35 31 0 6 13 23 28 38 28 27 29 27 47 7 10 -11 26 -22 36 -25 11 -4 19
-11 19 -17 0 -5 10 -18 21 -27 18 -15 20 -21 10 -39 -16 -30 0 -28 27 3 29 33
28 47 -3 39 -20 -5 -25 -2 -25 13 0 10 -13 34 -30 53 -36 43 -37 60 -5 90 14
13 25 29 25 36 0 17 40 39 49 27 6 -8 56 -82 145 -213 21 -30 48 -67 61 -81
30 -35 45 -63 45 -88 0 -31 -17 -34 -62 -11 -22 11 -43 19 -45 16 -3 -3 4 -24
16 -47 24 -44 22 -51 -26 -94 -13 -11 -23 -26 -23 -33 0 -7 -5 -12 -10 -12 -6
0 -23 -12 -39 -28 -17 -15 -55 -49 -87 -77 -31 -27 -78 -71 -105 -98 -27 -26
-61 -52 -75 -57 -24 -10 -31 -6 -84 50 -59 62 -82 75 -73 40 3 -11 10 -17 15
-14 6 4 8 -1 4 -14 -4 -11 -1 -26 6 -33 20 -21 61 -80 57 -82 -2 -2 -24 -19
-49 -38 -25 -20 -56 -42 -70 -49 -30 -16 -99 -68 -121 -92 -8 -9 -27 -20 -41
-23 -15 -4 -34 -15 -44 -26 -9 -10 -21 -19 -25 -19 -12 0 -127 -70 -140 -86
-6 -8 -22 -14 -34 -14 -18 0 -25 7 -30 29 -6 30 -74 144 -75 126 0 -5 -9 1
-20 15 -27 34 -27 96 0 105 11 3 20 10 20 14 0 4 16 13 35 20 19 7 35 17 35
22 0 5 7 9 16 9 8 0 12 5 9 10 -4 6 -34 -4 -76 -26 -67 -35 -99 -39 -99 -11 0
17 -44 59 -53 50 -4 -3 -7 0 -7 9 0 21 32 48 57 48 11 0 28 12 38 26 9 14 22
23 30 21 7 -3 23 5 36 19 12 13 31 24 41 24 10 0 17 5 16 12 -2 6 14 16 35 21
21 5 37 15 37 23 0 8 4 14 9 14 5 0 23 12 40 27 16 16 42 36 56 46 14 10 25
23 25 28 0 9 -75 -43 -90 -62 -3 -3 -21 -14 -40 -24 -19 -10 -37 -21 -40 -24
-3 -3 -22 -15 -42 -25 -21 -11 -38 -23 -38 -27 0 -4 -13 -10 -29 -14 -16 -3
-37 -15 -47 -27 -23 -24 -67 -48 -90 -48 -9 0 -42 -15 -73 -34 -31 -18 -73
-39 -93 -45 -20 -7 -53 -23 -73 -37 -20 -13 -44 -24 -55 -24 -10 0 -21 -4 -25
-9 -3 -5 -19 -12 -35 -16 -17 -4 -30 -11 -30 -16 0 -5 -3 -8 -7 -7 -5 1 -21
-4 -36 -10 -16 -7 -33 -12 -38 -12 -5 0 -9 -9 -9 -20 0 -12 -7 -20 -17 -20
-16 0 -16 2 -3 11 22 14 -57 0 -94 -17 -16 -8 -48 -14 -72 -14 -36 0 -42 3
-37 17 4 10 2 14 -4 10 -15 -9 -23 -59 -13 -78 9 -17 70 -15 70 2 0 5 8 9 18
9 13 0 14 2 4 9 -9 6 -5 8 15 8 44 0 153 43 153 61 0 13 3 13 12 4 7 -7 18
-12 26 -12 12 0 12 3 2 15 -10 12 -10 15 3 15 8 0 18 -6 20 -12 3 -8 6 -6 6 4
1 11 6 15 16 12 8 -4 15 -2 15 4 0 5 17 12 39 16 43 7 94 30 85 39 -3 3 3 3
15 0 13 -3 21 -1 21 6 0 7 5 9 11 6 5 -4 41 10 80 30 38 20 74 33 79 30 6 -4
22 -28 35 -55 23 -46 24 -50 7 -60 -14 -10 -14 -11 0 -6 16 5 52 -15 54 -31 0
-4 6 -21 12 -36 7 -16 12 -30 12 -33 0 -2 13 -22 29 -45 17 -22 35 -56 42 -76
10 -30 9 -37 -9 -53 -11 -10 -47 -28 -79 -38 -33 -11 -68 -24 -79 -30 -10 -5
-37 -18 -59 -28 -22 -11 -46 -25 -53 -32 -7 -6 -22 -12 -33 -12 -10 0 -41 -9
-69 -19 -27 -11 -50 -15 -50 -10 0 5 -5 9 -10 9 -6 0 -9 -5 -8 -11 2 -6 -10
-16 -27 -21 -16 -5 -37 -12 -45 -15 -8 -3 -23 -5 -32 -4 -10 1 -18 -3 -18 -9
0 -13 -31 -25 -87 -34 -38 -6 -43 -4 -43 14 0 32 -29 94 -50 108 -24 15 -26 7
-3 -16 16 -16 15 -17 -2 -21 -10 -1 -13 -6 -8 -10 6 -3 13 -26 16 -49 5 -44 5
-44 -38 -63 -23 -10 -69 -23 -101 -28 -33 -5 -93 -18 -134 -29 -41 -11 -99
-23 -127 -27 -49 -6 -53 -5 -53 14 0 12 -4 21 -9 21 -5 0 -9 10 -8 23 0 25 -5
50 -32 155 -14 57 -15 72 -4 68 17 -7 43 3 43 16 0 6 -7 8 -15 4 -8 -3 -21 2
-30 10 -11 11 -15 12 -15 3 0 -8 -7 -5 -16 7 -11 13 -14 14 -11 3 6 -18 -33
-35 -98 -43 -22 -3 -70 -9 -106 -14 -36 -6 -76 -8 -90 -6 -23 4 -68 -20 -58
-31 3 -2 66 2 140 11 74 8 152 16 173 17 l40 2 13 -70 c8 -38 15 -83 17 -100
1 -16 6 -47 10 -67 8 -36 7 -37 -25 -47 -64 -18 264 -13 334 5 34 9 66 18 72
22 5 3 25 7 45 9 19 2 48 8 64 13 35 12 56 13 56 3 0 -9 -130 -51 -175 -57
-16 -2 12 -3 63 -2 52 2 97 7 100 13 10 15 42 12 42 -4 0 -7 5 -13 10 -13 6 0
10 8 10 18 0 19 53 47 70 37 5 -3 10 0 10 7 0 10 2 10 9 -1 6 -9 16 -11 27 -7
11 4 21 7 22 6 2 -1 9 6 16 16 7 9 18 14 23 11 6 -4 16 -1 22 7 7 8 21 12 31
9 22 -6 28 12 8 20 -7 3 -1 6 15 6 15 1 27 6 27 12 0 17 -120 -10 -195 -45
-68 -31 -105 -40 -105 -24 0 7 39 26 88 42 48 15 103 35 122 44 19 8 42 16 51
18 8 2 29 10 45 19 16 8 38 15 49 15 11 0 56 18 100 40 44 22 84 40 88 40 15
0 162 72 168 82 4 6 9 5 14 -2 5 -8 1 -18 -11 -26 -10 -7 -24 -18 -31 -24 -7
-5 -17 -10 -23 -10 -26 0 -293 -118 -298 -132 -2 -4 -10 -8 -18 -8 -8 0 -14
-4 -14 -9 0 -14 49 -7 55 8 4 11 8 11 20 1 13 -10 19 -10 33 4 10 9 28 16 39
16 25 0 83 28 83 41 0 5 6 9 14 9 7 0 19 6 26 14 6 8 19 12 27 9 11 -4 14 -2
9 5 -5 8 2 12 21 13 24 0 25 2 8 8 -16 6 -14 9 15 14 52 11 110 39 110 54 0 8
6 13 13 12 14 -3 116 45 169 79 21 13 40 33 43 43 4 12 16 19 31 19 13 0 24 5
24 10 0 6 -7 10 -16 10 -25 0 -84 -31 -78 -41 3 -5 -2 -9 -12 -9 -14 0 -15 -2
-3 -17 13 -15 12 -15 -10 -2 -18 11 -25 11 -28 2 -3 -7 -9 -13 -14 -13 -6 0
-34 -16 -64 -35 -33 -21 -57 -30 -61 -24 -8 13 33 52 60 56 11 2 27 9 35 16
15 11 43 28 86 51 11 6 53 34 94 61 41 28 92 59 113 70 21 11 45 30 53 43 9
12 24 22 34 22 10 0 24 7 31 15 7 8 16 15 21 15 20 0 5 -17 -44 -49 -28 -19
-70 -49 -92 -66 -22 -17 -48 -34 -57 -38 -9 -3 -22 -15 -28 -26 -9 -17 -8 -21
4 -21 9 0 20 9 26 20 7 14 17 19 29 15 10 -3 24 1 31 10 7 8 16 13 20 10 4 -2
17 7 30 20 13 13 26 22 30 20 4 -3 23 11 43 30 22 21 46 35 61 35 22 0 25 4
21 29 -4 32 11 46 75 71 40 16 41 16 140 112 41 40 88 82 104 93 16 11 40 30
53 43 13 12 27 22 32 22 4 0 13 11 19 25 11 24 36 34 44 18 4 -11 65 -53 75
-53 5 0 21 -12 36 -26 35 -32 45 -26 21 12 -14 20 -15 29 -6 32 14 4 17 32 3
32 -5 0 -11 14 -15 31 -3 17 -15 43 -26 59 -24 34 -25 41 -5 33 9 -3 15 -1 13
5 -5 19 36 72 65 85 15 6 27 15 27 19 0 4 17 7 38 6 56 -2 67 8 42 39 -21 28
-26 53 -10 53 6 0 10 7 10 15 0 9 16 32 35 51 20 19 33 39 30 44 -4 6 2 7 11
3 12 -4 15 -3 10 5 -4 7 8 33 26 59 18 26 36 54 40 63 4 9 7 10 7 3 2 -27 20
-11 23 20 2 24 7 31 21 29 9 -2 17 3 17 11 0 8 7 17 15 21 8 3 15 11 15 17 0
7 11 36 25 64 21 46 29 54 62 60 37 7 37 7 15 23 -27 21 -21 55 20 96 15 17
28 38 28 48 0 10 11 28 25 40 14 12 25 31 25 44 0 12 6 27 14 33 8 7 14 20 13
29 0 9 11 36 26 59 15 24 27 46 27 50 0 5 13 34 29 66 27 52 28 57 11 57 -12
0 -22 -12 -31 -37 -11 -36 -99 -211 -139 -280 -11 -18 -33 -59 -50 -92 -17
-33 -38 -65 -46 -72 -19 -15 -18 -11 7 40 11 24 18 45 16 48 -8 7 49 117 72
137 11 10 18 23 15 28 -3 5 2 21 12 36 26 38 50 80 73 128 10 23 24 45 31 49
6 4 8 15 5 26 -4 10 -2 19 3 19 17 0 45 78 39 109 -6 29 -5 30 17 19 23 -10
24 -12 11 -47 -7 -20 -20 -49 -29 -66 -8 -16 -13 -31 -11 -33 10 -10 24 12 44
68 18 50 26 60 47 61 57 3 63 11 28 38 -19 15 -24 24 -16 33 5 7 13 29 17 48
4 19 11 40 15 45 4 6 10 18 13 28 5 14 3 18 -11 15 -9 -2 -17 -8 -18 -13 0 -6
-6 -23 -13 -40 -8 -16 -16 -41 -20 -55 -4 -14 -16 -27 -25 -28 -16 -3 -18 1
-13 30 14 80 20 100 34 105 8 3 11 13 8 23 -4 13 1 20 15 25 13 4 20 15 20 32
0 15 8 35 17 45 14 16 15 21 4 28 -18 10 -7 68 14 84 10 7 17 31 19 66 2 31 8
65 14 75 5 11 15 39 21 63 7 24 18 42 26 42 11 0 12 -7 4 -32 -5 -18 -9 -46
-8 -63 0 -25 2 -27 8 -10 5 11 7 23 5 27 -3 4 5 13 17 21 15 11 19 21 14 36
-4 13 -2 21 6 21 8 0 10 11 6 36 -6 35 -5 36 20 31 26 -5 93 27 93 44 0 5 -22
6 -49 3 -39 -4 -50 -2 -55 11 -3 9 -3 22 1 28 4 7 13 53 20 102 7 50 16 104
19 120 2 17 7 71 10 120 2 50 6 122 8 162 2 39 7 76 10 82 4 6 2 20 -4 31 -19
35 11 34 76 -3 32 -19 58 -39 56 -46 -2 -8 4 -10 16 -7 11 4 29 -2 43 -12 13
-11 47 -32 76 -46 28 -15 57 -34 64 -42 6 -8 17 -14 25 -14 7 0 20 -7 28 -16
15 -14 16 7 16 235 l0 251 -37 -16 c-36 -15 -187 -69 -227 -81 -16 -5 -17 -3
-7 15 14 26 3 33 -35 23 -17 -4 -34 -19 -42 -35 -10 -21 -18 -25 -34 -20 -14
4 -18 2 -14 -5 4 -6 3 -11 -1 -11 -5 0 -9 37 -9 83 0 73 -8 219 -18 332 -2 22
-11 78 -20 123 -9 46 -13 88 -10 93 3 6 -2 21 -10 34 -11 16 -14 34 -10 51 4
14 2 35 -5 47 -11 22 -30 95 -35 132 -4 34 -17 65 -27 65 -14 0 -3 -60 31
-172 8 -28 -1 -44 -20 -33 -5 3 -10 14 -10 25 0 10 -7 21 -16 24 -12 5 -15 14
-10 38 3 17 1 37 -5 44 -6 8 -9 20 -6 28 3 7 -1 24 -10 36 -10 14 -13 32 -9
51 3 18 -1 45 -10 67 -15 34 -27 77 -41 144 -3 15 -11 33 -19 39 -8 6 -14 17
-14 24 0 7 -6 18 -14 25 -8 6 -12 18 -9 26 3 8 2 22 -2 32 -4 9 -9 29 -10 44
-1 16 -10 40 -20 54 -9 14 -14 33 -10 42 5 12 14 0 35 -44 15 -34 33 -78 40
-98 12 -36 30 -49 30 -21 0 9 -8 32 -18 53 -10 20 -25 64 -32 97 -10 40 -22
66 -38 79 -13 10 -21 24 -18 32 3 7 -6 29 -20 49 -13 20 -24 40 -24 44 0 5
-13 36 -30 69 -16 34 -30 64 -30 67 0 4 -9 18 -20 32 -14 18 -20 21 -20 10 0
-17 40 -90 52 -95 4 -2 8 -10 8 -19 0 -15 12 -46 51 -129 22 -49 25 -76 5 -68
-17 7 -36 48 -36 80 0 13 -7 27 -15 30 -8 4 -13 10 -10 14 3 4 -6 30 -19 57
-23 45 -106 216 -115 238 -2 6 3 4 12 -4 10 -7 17 -20 17 -27 0 -8 4 -14 9
-14 5 0 12 -10 16 -22 3 -13 9 -18 11 -11 7 16 -53 146 -72 156 -8 4 -14 16
-14 26 0 10 -7 32 -15 47 -13 26 -13 30 0 40 8 6 15 16 15 23 0 11 -8 14 -50
15 -19 1 -28 10 -42 46 -9 25 -17 41 -17 35 -1 -5 -12 7 -26 28 -14 20 -30 37
-34 37 -5 0 -12 8 -15 18 -14 37 -42 81 -63 100 -13 11 -23 22 -23 26 0 7 -14
25 -41 54 -9 9 -24 34 -34 55 -10 21 -29 45 -41 54 -13 8 -24 22 -24 29 0 8
-5 14 -10 14 -14 0 -80 64 -80 77 0 6 7 16 15 23 21 18 19 40 -5 40 -11 0 -20
-4 -20 -9 0 -5 -9 -11 -20 -14 -13 -3 -24 3 -36 22 -9 14 -23 30 -31 34 -7 4
-13 16 -13 26 0 11 -7 21 -14 24 -21 8 -124 90 -125 99 -2 14 -45 58 -57 58
-6 0 -24 15 -39 34 -14 18 -37 39 -50 46 -13 7 -29 26 -36 42 -7 18 -17 27
-25 24 -18 -7 -34 25 -27 52 6 26 -5 29 -23 5 -11 -16 -16 -14 -57 28 -25 25
-64 53 -86 64 -23 10 -41 22 -41 27 0 5 -16 16 -35 24 -40 16 -48 17 -43 5 4
-10 103 -91 143 -117 34 -21 65 -53 65 -66 0 -11 0 -11 -45 12 -22 11 -44 20
-50 20 -6 0 -16 14 -22 30 -7 20 -16 28 -26 24 -9 -3 -16 3 -20 17 -4 13 -9
20 -12 17 -6 -6 -17 1 -59 37 -20 16 -49 35 -81 49 -16 8 -42 24 -57 36 -16
12 -28 18 -28 15 0 -4 -15 4 -34 19 -19 14 -42 26 -50 26 -20 0 -20 10 -2 35
13 18 14 18 50 -4 20 -13 42 -28 49 -35 17 -17 79 -47 85 -41 11 10 -25 38
-95 72 -59 30 -73 41 -73 59 0 19 -5 23 -27 22 -16 -1 -39 1 -53 5 -23 7 -23
7 -7 -6 18 -15 23 -42 8 -51 -7 -5 -326 150 -354 172 -7 5 -24 12 -40 16 -15
3 -60 22 -100 40 -39 19 -83 37 -97 41 -14 4 -41 15 -60 25 -19 10 -43 21 -52
24 -15 4 -16 10 -8 32 13 33 3 46 -37 50 -18 2 -23 0 -14 -5 11 -7 10 -12 -6
-28 -18 -18 -28 -19 -63 -6 -8 3 -24 8 -36 10 -11 2 -49 14 -84 28 -35 14 -72
25 -83 25 -10 0 -25 7 -33 15 -9 9 -34 15 -60 15 -25 0 -57 6 -73 14 -15 8
-49 17 -76 20 -51 6 -67 19 -58 44 6 14 20 14 108 -3 28 -6 29 -5 12 8 -10 8
-38 18 -62 22 -25 3 -47 11 -51 16 -3 6 -19 7 -35 4 -16 -4 -29 -2 -29 3 0 5
-33 15 -72 21 -40 7 -87 17 -103 22 -17 5 -42 9 -55 9 -39 -1 -126 7 -147 14
-31 10 -84 16 -188 21 -55 2 -113 8 -130 12 -16 4 -36 6 -42 4 -8 -1 -13 9
-13 23 0 31 -17 76 -29 76 -5 0 -12 -10 -16 -22z m295 -127 c41 -5 131 -17
199 -26 69 -8 143 -20 165 -25 23 -5 63 -11 90 -14 27 -3 51 -7 52 -9 7 -7 -9
-46 -17 -41 -5 3 -22 8 -37 10 -15 3 -47 12 -72 19 -25 8 -63 16 -85 19 -22 3
-62 10 -90 15 -27 5 -99 14 -160 21 -60 6 -134 16 -164 21 -30 5 -72 9 -93 9
-21 0 -38 4 -38 10 0 11 139 6 250 -9z m-312 -55 c4 -2 5 -66 2 -143 l-5 -138
-93 -1 c-50 0 -97 -5 -103 -11 -7 -7 20 -9 90 -7 56 2 102 0 102 -4 6 -34 7
-100 1 -107 -4 -6 -25 -18 -47 -28 -32 -15 -41 -16 -50 -5 -12 15 -221 19
-244 4 -8 -5 -55 -11 -105 -13 -49 -2 -93 -8 -96 -14 -8 -12 -130 -9 -130 4 0
4 7 7 16 7 13 0 15 9 11 55 -5 51 -3 55 17 56 11 0 30 2 41 4 45 8 133 18 180
20 83 4 155 16 149 26 -3 5 -16 9 -30 9 -13 0 -24 4 -24 8 0 5 -33 5 -72 0
-40 -4 -120 -9 -177 -10 l-105 -3 -12 60 c-6 33 -18 88 -27 123 -12 47 -13 64
-4 67 28 10 139 25 227 31 52 3 96 8 98 9 5 5 382 6 390 1z m255 -10 c49 -3
91 -8 95 -10 4 -2 50 -9 102 -15 99 -11 114 -14 195 -31 28 -6 71 -15 97 -19
26 -4 50 -10 54 -13 3 -3 1 -30 -5 -60 -6 -29 -18 -87 -26 -128 -8 -41 -22
-80 -30 -86 -10 -7 -12 -13 -5 -16 14 -4 -5 -97 -25 -124 -12 -16 -17 -17 -35
-6 -11 7 -25 10 -29 8 -5 -3 -42 1 -82 10 -41 9 -94 17 -119 20 -24 2 -48 8
-52 12 -5 5 -31 5 -58 2 -34 -4 -57 -2 -68 6 -11 8 -51 12 -110 11 l-92 -2 -5
30 c-3 17 -4 46 -3 65 l2 35 90 -2 c50 -1 99 -5 109 -8 10 -4 38 -5 63 -2 25
2 73 -2 107 -9 33 -8 66 -13 72 -10 7 2 48 -2 91 -10 97 -17 101 -17 87 -3 -7
7 -42 15 -80 20 -37 4 -114 17 -169 27 -105 21 -114 22 -201 21 -28 0 -54 5
-58 11 -3 5 -23 10 -43 10 -55 0 -63 10 -69 86 -5 72 -4 174 2 184 4 6 47 5
198 -4z m-998 -59 c11 -11 10 -15 -5 -25 -22 -13 -30 -74 -13 -91 7 -6 13 -24
13 -39 -1 -25 -2 -25 -14 -9 -7 9 -16 17 -18 17 -11 0 -15 -38 -6 -51 8 -11 9
-10 4 4 -7 21 7 22 28 1 20 -20 21 -44 1 -45 -8 -1 -19 -3 -25 -4 -5 -1 -15
-3 -21 -4 -6 0 -9 -7 -6 -15 4 -11 0 -12 -23 -3 -21 8 -35 7 -63 -6 -19 -9
-44 -17 -54 -17 -11 0 -23 -3 -27 -7 -9 -10 -13 -10 -84 -12 -46 -1 -62 -6
-84 -26 -15 -14 -36 -25 -46 -25 -10 0 -41 -7 -68 -15 -54 -16 -64 -10 -64 37
0 14 -4 28 -8 30 -8 3 -37 85 -52 144 l-7 31 81 26 c114 36 169 52 261 72 44
10 103 23 130 30 68 18 153 18 170 2z m-700 -87 c-16 -11 -38 -20 -47 -20 -9
0 -21 -7 -26 -16 -5 -9 -12 -15 -15 -15 -41 6 -67 -1 -67 -16 0 -16 -2 -16
-10 -3 -9 13 -12 12 -25 -4 -8 -11 -15 -16 -15 -12 0 4 -6 4 -12 -1 -7 -4 -19
-8 -27 -10 -8 -1 -26 -10 -40 -21 -15 -11 -38 -23 -51 -27 -14 -4 -34 -14 -45
-21 -11 -8 -25 -14 -33 -14 -20 0 -118 -48 -132 -65 -17 -21 -40 -19 -40 4 0
15 24 31 98 66 53 25 110 53 125 61 16 8 36 14 46 14 9 0 21 4 27 10 5 5 41
21 79 35 39 15 84 33 100 41 30 13 96 31 125 33 8 0 2 -8 -15 -19z m25 -90 c0
-27 34 -133 50 -155 4 -5 10 -24 13 -41 7 -36 11 -34 -124 -78 -43 -13 -85
-29 -95 -34 -25 -13 -58 -26 -117 -47 -26 -9 -53 -22 -60 -29 -6 -6 -31 -22
-55 -34 l-42 -22 -25 28 c-25 28 -69 40 -80 22 -3 -6 2 -23 11 -39 17 -28 16
-30 -7 -59 -13 -17 -29 -29 -36 -27 -7 2 -19 -2 -27 -10 -8 -8 -22 -15 -30
-15 -9 0 -29 -13 -44 -30 -16 -16 -34 -30 -41 -30 -6 0 -11 -4 -11 -9 0 -5
-13 -11 -30 -14 -18 -4 -30 -13 -30 -22 0 -8 -6 -16 -12 -17 -7 0 -18 -2 -24
-2 -15 -2 -84 -49 -84 -58 0 -5 -7 -8 -16 -8 -8 0 -31 -11 -51 -25 -34 -22
-37 -23 -49 -7 -8 9 -14 21 -14 25 0 10 -37 62 -67 97 -22 23 -23 23 -23 4 0
-11 6 -26 13 -33 10 -10 8 -11 -7 -5 -19 7 -18 5 3 -24 12 -18 26 -32 30 -32
3 0 7 -8 8 -17 1 -10 5 -31 9 -46 6 -24 1 -33 -27 -58 -19 -16 -49 -36 -66
-45 -18 -9 -33 -21 -33 -28 0 -6 -12 -20 -27 -31 -15 -11 -39 -33 -53 -48 -62
-70 -81 -86 -97 -80 -20 8 -145 134 -168 170 -22 33 -21 35 145 175 41 34 80
68 85 74 11 11 55 42 89 61 11 7 39 28 61 49 41 38 230 163 323 214 29 16 69
41 89 55 21 14 42 25 47 25 5 0 18 7 28 16 16 16 19 15 37 -7 11 -13 20 -19
21 -13 0 7 8 15 17 18 15 6 15 5 -1 -13 -16 -18 -17 -25 -6 -50 21 -52 46 -74
72 -65 13 4 28 7 33 6 6 -1 2 4 -9 12 -10 8 -15 19 -12 24 3 6 -1 12 -9 16 -8
3 -15 15 -15 26 0 27 -18 26 -23 -2 -2 -13 -4 -3 -4 22 0 25 -2 51 -4 58 -7
23 230 135 441 209 119 41 130 42 130 3z m2979 -81 c29 -10 67 -27 85 -38 17
-10 55 -26 85 -36 30 -10 68 -26 85 -35 17 -10 48 -23 69 -30 20 -6 37 -16 37
-21 0 -5 8 -9 19 -9 10 0 33 -10 52 -23 19 -12 55 -31 81 -40 25 -10 52 -25
58 -33 7 -7 18 -14 26 -14 22 0 27 -20 10 -39 -9 -10 -16 -24 -16 -32 0 -8
-14 -30 -31 -49 -18 -19 -37 -48 -45 -65 -7 -16 -22 -40 -33 -52 -19 -20 -23
-21 -50 -7 -16 8 -34 21 -41 29 -7 8 -20 15 -29 15 -9 0 -27 7 -39 16 -12 8
-22 12 -22 8 0 -13 33 -44 47 -44 7 0 13 -4 13 -10 0 -5 16 -12 35 -16 56 -10
60 -25 24 -83 -34 -54 -52 -63 -68 -32 -6 10 -41 31 -78 47 -37 15 -74 32 -80
37 -30 22 -119 63 -130 60 -6 -2 -33 7 -60 21 -44 23 -108 48 -158 63 -11 4
-31 14 -44 25 -13 10 -30 18 -38 18 -10 0 -12 6 -7 23 5 12 8 34 9 48 0 14 8
33 18 43 9 10 17 21 17 26 0 5 5 21 12 37 6 15 13 36 15 46 1 10 14 30 27 44
13 14 22 31 20 38 -3 7 2 19 10 28 8 8 18 27 22 41 5 20 11 25 23 21 9 -4 40
-16 70 -26z m-3636 -98 c-5 -19 -64 -59 -192 -129 -35 -19 -72 -43 -82 -53
-10 -10 -30 -21 -44 -25 -14 -3 -25 -10 -25 -15 0 -5 -9 -9 -21 -9 -13 0 -23
-8 -26 -21 -3 -11 -11 -18 -17 -16 -6 3 -25 -9 -41 -25 -17 -17 -40 -34 -52
-39 -13 -5 -23 -15 -23 -22 0 -8 -18 -19 -40 -26 -22 -6 -40 -17 -40 -24 0 -7
-16 -21 -35 -31 -19 -11 -47 -34 -61 -53 -14 -18 -32 -33 -40 -33 -7 0 -14 -6
-14 -12 0 -7 -18 -21 -40 -31 -22 -10 -40 -23 -40 -29 0 -11 -30 -40 -68 -66
-15 -10 -26 -12 -33 -5 -7 7 7 25 42 57 28 25 55 46 59 46 4 0 34 26 67 58 32
31 76 71 98 87 21 17 46 37 55 46 12 11 23 13 39 7 18 -6 22 -5 18 5 -3 8 -2
18 1 23 9 12 149 124 156 124 2 0 57 33 123 73 65 41 125 77 133 80 8 4 40 23
70 42 63 40 80 44 73 16z m762 -126 c22 -47 16 -69 -17 -73 -15 -2 -33 -11
-40 -20 -7 -9 -31 -23 -53 -30 -48 -16 -80 -29 -118 -49 -16 -8 -45 -16 -65
-17 -43 -2 -82 -21 -82 -40 0 -15 -73 -47 -86 -37 -5 3 -22 25 -38 48 l-29 43
24 20 c13 11 35 23 48 26 13 4 54 22 92 40 38 19 76 34 84 34 8 0 15 5 15 10
0 6 8 10 18 11 9 0 55 15 102 34 111 44 124 44 145 0z m36 -126 c12 -6 19 -19
18 -32 -2 -31 12 -87 22 -87 5 0 9 -8 9 -18 0 -11 9 -45 20 -77 11 -31 17 -62
13 -68 -4 -6 -8 -23 -9 -37 -7 -62 -12 -67 -61 -73 -31 -3 -51 -1 -55 6 -12
19 -2 64 21 92 28 36 27 53 -4 65 -21 8 -25 16 -25 48 0 21 4 42 9 48 15 16
23 54 12 54 -6 0 -11 -11 -11 -24 0 -14 -5 -28 -11 -31 -16 -11 -60 -117 -57
-140 2 -12 12 -21 26 -23 27 -4 27 1 1 -85 -11 -38 -17 -73 -12 -78 7 -7 133
6 139 14 1 1 17 25 37 54 l35 52 15 -37 c8 -20 18 -53 22 -72 4 -19 11 -39 15
-45 4 -5 16 -35 25 -66 17 -53 17 -58 1 -80 -9 -13 -16 -18 -16 -12 0 6 -14 3
-37 -8 -21 -10 -48 -19 -60 -19 -24 0 -63 -18 -74 -34 -4 -5 -12 -6 -18 -2 -6
4 -20 -2 -32 -13 -12 -11 -26 -18 -30 -15 -5 3 -22 -2 -40 -11 -29 -15 -32
-15 -45 2 -7 10 -14 22 -14 26 0 5 -13 28 -30 52 -16 24 -30 48 -30 53 0 5
-21 40 -46 78 -25 38 -47 76 -49 85 -3 16 -69 143 -85 164 -14 19 -61 107 -58
110 8 6 47 25 53 25 3 0 3 -4 0 -10 -3 -5 -1 -10 5 -10 6 0 10 6 9 13 -4 29 2
38 19 33 11 -4 33 3 53 17 38 25 91 51 129 62 14 4 48 17 75 30 89 39 96 41
126 24z m-611 -92 c0 -7 11 -29 24 -48 25 -36 25 -37 5 -57 -26 -29 -24 -35
11 -29 35 7 47 -7 110 -129 23 -43 46 -88 53 -99 39 -63 55 -93 62 -114 4 -14
15 -32 24 -42 9 -10 27 -39 41 -66 14 -26 33 -59 43 -72 32 -44 14 -81 -47
-95 -16 -4 -38 -18 -48 -32 -11 -13 -29 -24 -41 -24 -12 0 -31 -11 -41 -25
-10 -14 -24 -25 -30 -25 -17 0 -89 -40 -109 -61 -26 -27 -55 -24 -70 8 -6 15
-33 49 -59 76 -38 39 -47 45 -51 30 -5 -18 -11 28 -8 55 2 11 -12 17 -32 13
-5 -1 -6 8 -2 19 4 11 3 20 -2 19 -23 -4 -32 2 -26 18 5 12 2 15 -8 11 -9 -4
-14 2 -15 18 -1 13 -16 41 -33 63 -17 21 -31 45 -32 52 0 8 -4 5 -9 -6 -5 -11
-9 -14 -9 -7 -1 6 -8 12 -16 12 -9 0 -12 6 -9 15 4 10 0 15 -10 15 -13 0 -15
-6 -10 -27 4 -16 11 -32 15 -37 5 -6 9 -16 9 -24 0 -7 7 -20 15 -28 17 -17 20
-44 6 -44 -6 0 -13 5 -16 10 -8 13 -35 -6 -35 -24 0 -12 60 -49 68 -42 3 3 -3
8 -12 12 -17 6 -23 34 -7 34 5 0 17 3 26 6 12 5 20 -4 32 -35 13 -33 21 -41
35 -38 13 4 18 0 18 -14 0 -16 -4 -17 -26 -8 -23 8 -25 7 -16 -4 7 -8 9 -17 5
-20 -11 -12 -22 -7 -28 13 -3 11 -9 19 -13 18 -4 -1 -17 4 -30 11 -18 10 -26
10 -38 0 -12 -10 -12 -14 -2 -20 9 -6 6 -9 -9 -9 -13 0 -23 6 -23 14 0 19 -17
29 -31 20 -8 -4 -8 -9 -1 -13 7 -4 8 -12 2 -21 -8 -12 -10 -12 -15 1 -4 11
-15 14 -36 11 -20 -3 -28 -9 -25 -18 3 -7 1 -16 -4 -19 -6 -4 -10 -19 -10 -34
0 -17 -10 -37 -26 -52 l-26 -24 -31 38 c-18 20 -37 37 -43 37 -7 0 -19 11 -28
25 -9 14 -20 23 -25 21 -9 -6 -45 34 -48 54 -1 8 -9 20 -18 26 -15 11 -11 18
29 58 25 25 46 48 46 51 0 11 -43 -18 -78 -52 l-34 -35 -44 44 c-24 24 -44 47
-44 52 0 10 91 98 133 128 16 11 43 34 60 50 18 16 55 45 82 64 80 56 110 78
153 112 22 18 44 32 48 32 5 1 25 14 44 30 19 17 40 30 47 30 7 0 13 4 13 8 0
5 17 17 38 28 20 10 66 38 102 60 89 56 102 63 123 64 9 0 17 -6 17 -13z
m-1010 -555 c0 -4 11 -19 25 -34 26 -28 32 -48 15 -48 -5 0 -12 -11 -16 -24
-3 -15 -14 -26 -27 -28 -12 -2 -26 -13 -32 -25 -10 -24 -51 -48 -75 -44 -11 1
-12 -1 -3 -6 13 -9 -19 -56 -92 -138 -19 -22 -41 -55 -47 -73 -7 -18 -17 -31
-22 -29 -11 4 -46 -35 -46 -50 0 -5 -12 -20 -26 -34 -14 -13 -39 -46 -55 -74
-16 -27 -41 -63 -56 -80 -15 -16 -27 -34 -25 -39 2 -5 -6 -18 -16 -30 -11 -11
-27 -34 -36 -51 -17 -31 -29 -51 -57 -95 -9 -14 -24 -48 -33 -76 -9 -28 -25
-68 -36 -90 -11 -21 -20 -43 -20 -50 0 -6 -7 -17 -15 -24 -8 -7 -15 -19 -15
-27 0 -8 -8 -27 -19 -41 -10 -15 -23 -40 -28 -57 -7 -23 -15 -29 -31 -27 -15
2 -22 -2 -22 -13 0 -9 -4 -13 -10 -10 -5 3 -10 14 -10 24 0 33 -25 46 -98 50
-13 0 -21 5 -18 10 3 5 -14 21 -39 35 -25 15 -45 29 -45 32 0 3 7 18 15 34 9
17 13 30 10 30 -4 0 3 12 14 26 12 15 21 31 21 37 0 12 80 179 90 187 3 3 23
39 44 80 21 41 49 89 62 107 13 17 24 36 24 41 0 4 11 19 25 32 14 13 25 18
25 12 0 -6 20 -21 45 -32 25 -11 45 -25 45 -30 0 -6 7 -10 17 -10 9 0 31 -11
49 -25 43 -33 66 -33 28 0 -16 14 -34 25 -40 25 -6 0 -24 11 -39 24 -16 14
-32 23 -37 20 -4 -3 -8 -1 -8 5 0 5 -14 18 -30 28 -36 21 -37 32 -7 63 12 13
38 49 57 80 19 31 50 74 68 96 18 21 74 91 125 154 92 114 122 136 145 107 12
-14 62 -12 62 2 0 4 -13 12 -29 18 -46 17 -31 51 61 138 l79 76 54 -76 c30
-42 55 -79 55 -83z m-338 -17 c-2 -14 -9 -25 -16 -25 -6 0 -23 -19 -38 -43
-15 -24 -45 -61 -66 -83 -22 -22 -46 -53 -55 -70 -9 -17 -29 -45 -46 -63 -17
-18 -31 -37 -31 -42 0 -5 -4 -9 -10 -9 -5 0 -10 -6 -10 -12 -1 -7 -14 -29 -30
-48 -17 -19 -30 -39 -30 -45 0 -16 -60 -75 -76 -75 -18 0 -18 -1 5 43 17 33
35 57 108 143 10 11 26 36 36 55 10 19 43 62 75 96 31 33 74 86 95 116 20 31
49 62 65 70 15 8 28 15 28 16 1 1 -1 -10 -4 -24z m438 -122 c11 -21 26 -45 32
-55 25 -35 -74 -125 -108 -97 -8 6 -11 15 -8 20 3 5 -2 9 -10 9 -9 0 -15 6
-13 13 1 6 -6 11 -15 11 -23 -2 -12 22 29 66 18 19 33 38 33 43 0 4 7 7 15 7
8 0 15 5 15 10 0 19 10 10 30 -27z m745 -109 c14 -9 25 -23 25 -31 0 -10 6
-13 17 -9 10 4 14 4 11 0 -4 -4 2 -18 12 -32 11 -13 20 -30 20 -37 0 -6 9 -20
20 -30 26 -24 25 -39 -3 -62 -13 -10 -29 -28 -36 -41 -6 -12 -17 -22 -24 -22
-7 0 -18 -9 -25 -20 -7 -11 -17 -20 -23 -20 -6 0 -25 -16 -43 -35 -38 -40 -67
-44 -89 -12 -9 12 -40 48 -70 79 -53 57 -54 58 -49 111 2 31 -1 63 -7 76 -7
11 -9 21 -7 21 7 0 56 -49 56 -55 0 -3 7 -19 16 -36 14 -29 17 -30 33 -15 10
9 23 16 29 16 7 0 12 4 12 9 0 5 9 11 20 14 11 3 20 14 20 25 0 10 11 32 25
48 25 29 29 38 26 62 -2 16 5 15 34 -4z m-594 -136 c27 -54 49 -102 49 -108 0
-6 -9 -6 -25 0 -21 8 -25 7 -25 -10 0 -12 5 -17 14 -14 8 3 16 -4 20 -20 3
-14 11 -26 18 -26 44 0 105 -137 114 -259 3 -36 13 -83 21 -103 16 -37 16 -38
-20 -81 -19 -24 -42 -60 -51 -80 -8 -20 -19 -37 -23 -37 -5 0 -17 -14 -27 -31
-10 -17 -21 -27 -25 -21 -3 6 -19 14 -34 17 -15 4 -31 12 -35 19 -9 15 -53 39
-59 33 -12 -13 21 -47 67 -68 44 -21 67 -49 40 -49 -5 0 -10 -6 -10 -14 0 -8
-3 -16 -7 -18 -5 -1 -19 -28 -33 -58 -27 -61 -90 -172 -100 -180 -14 -10 -50
-89 -50 -110 0 -11 -3 -20 -7 -20 -18 0 -103 30 -139 48 -22 10 -66 27 -99 37
-33 9 -78 26 -100 38 -22 12 -41 20 -42 20 -2 -1 -28 9 -58 22 -31 14 -59 25
-63 25 -4 0 -18 6 -32 13 -14 7 -46 21 -72 31 -34 13 -48 23 -48 37 0 10 5 19
10 19 6 0 10 7 10 15 0 8 9 32 20 52 11 21 20 45 20 55 0 9 5 20 10 23 6 3 19
25 31 48 40 82 78 150 93 166 8 9 23 32 31 51 44 94 44 93 105 55 22 -14 44
-25 50 -25 5 0 10 -6 10 -14 0 -14 37 -29 51 -20 14 8 -3 35 -19 32 -8 -2 -33
14 -56 35 -23 20 -47 37 -54 37 -21 0 -5 56 24 85 22 22 32 45 19 45 -11 0
-55 -44 -55 -55 0 -7 -9 -20 -20 -30 -19 -17 -21 -17 -54 9 -42 31 -46 32 -46
5 0 -12 8 -23 20 -26 11 -3 20 -9 20 -14 0 -5 7 -9 15 -9 16 0 20 -12 8 -24
-4 -3 -8 -14 -9 -22 -1 -9 -12 -23 -23 -31 -12 -8 -21 -20 -21 -28 0 -17 -57
-132 -70 -140 -5 -3 -17 -23 -26 -43 -51 -116 -79 -172 -86 -172 -4 0 -8 -7
-8 -15 0 -27 -23 -65 -41 -65 -9 0 -20 -6 -22 -12 -3 -8 -6 -6 -6 4 -1 10 -16
24 -35 32 -18 8 -36 18 -39 23 -6 10 26 81 111 251 53 104 165 283 184 293 11
6 17 13 15 16 -10 9 15 63 29 63 8 0 13 3 13 8 -3 17 3 29 31 62 16 19 30 40
30 47 0 6 3 13 8 15 12 5 72 86 72 98 0 6 4 9 8 6 5 -3 16 8 26 25 9 16 21 29
27 29 5 0 9 6 9 14 0 19 99 118 111 110 5 -3 7 -10 4 -15 -4 -5 -1 -9 4 -9 6
0 11 5 11 10 0 6 6 5 14 -2 8 -7 11 -17 8 -22 -3 -5 4 -7 15 -4 17 5 20 1 18
-23 -1 -16 -9 -37 -19 -47 -9 -10 -16 -22 -16 -25 0 -13 28 -7 33 7 3 8 20 21
37 30 29 14 31 14 26 0 -5 -13 -2 -15 14 -11 14 4 20 0 21 -11 0 -10 3 -12 5
-5 3 6 -2 23 -11 37 -21 31 -13 55 25 81 16 11 30 25 30 30 1 21 44 -44 91
-137z m-1005 -172 c6 -16 -9 -51 -36 -81 -10 -11 -28 -38 -40 -60 -25 -48 -37
-67 -72 -122 -16 -23 -28 -48 -28 -55 0 -8 -11 -29 -25 -48 -14 -18 -28 -50
-31 -69 -4 -20 -16 -49 -28 -66 -12 -16 -30 -47 -40 -69 -20 -42 -45 -37 -30
5 4 13 9 26 9 29 2 6 28 63 83 177 24 50 50 97 58 104 8 6 14 20 14 30 0 10 5
21 10 24 6 4 23 29 38 57 52 98 57 106 77 132 22 29 33 32 41 12z m7348 -238
c14 -18 32 -40 40 -48 8 -8 37 -63 66 -122 29 -60 56 -108 61 -108 5 0 9 -6 9
-14 0 -8 9 -30 19 -48 26 -44 82 -189 76 -198 -3 -4 -28 -15 -57 -24 -29 -9
-62 -21 -73 -26 -11 -5 -44 -19 -74 -30 -58 -23 -81 -16 -81 24 0 18 -2 19
-11 6 -9 -12 -10 -10 -6 8 4 15 -3 36 -19 59 -13 20 -27 48 -31 62 -6 26 -40
71 -54 71 -4 0 3 -19 15 -42 12 -24 33 -70 46 -103 13 -33 32 -72 42 -87 l18
-26 -43 -21 c-24 -12 -49 -21 -56 -21 -20 0 -49 34 -55 65 -3 16 -12 33 -21
37 -8 5 -15 19 -15 31 0 41 -12 67 -28 65 -12 -2 -18 9 -24 41 -6 33 -16 52
-43 74 -26 21 -34 34 -30 48 4 11 2 19 -4 19 -6 0 -11 9 -11 20 0 12 -16 36
-35 56 -19 19 -35 36 -35 39 0 15 15 35 27 35 8 0 11 5 8 11 -4 6 0 9 11 7 13
-2 18 2 16 15 -2 9 2 17 8 17 5 0 10 -3 10 -7 0 -5 14 -8 30 -8 17 0 30 5 30
12 0 6 16 17 35 24 19 7 35 17 35 21 0 4 7 8 15 8 9 0 18 7 21 15 4 8 14 15
25 15 10 0 38 13 61 30 24 16 46 30 50 30 3 0 18 -15 32 -32z m-7679 -407 c3
-6 -3 -25 -13 -43 -16 -30 -52 -121 -82 -208 -7 -19 -14 -48 -16 -65 -2 -16
-8 -39 -12 -50 -27 -61 -96 -327 -107 -413 -3 -20 -10 -63 -17 -95 -6 -32 -9
-60 -6 -63 10 -9 -20 -79 -34 -79 -18 0 -22 46 -8 103 6 26 18 84 26 129 7 45
25 126 39 179 14 53 25 104 25 114 0 9 6 30 14 46 8 16 16 40 18 54 2 14 9 35
16 47 7 12 12 28 12 36 0 8 8 36 19 63 10 27 26 74 36 104 39 122 71 171 90
141z m368 -173 c6 -4 17 1 25 10 13 16 13 16 8 -1 -5 -14 1 -21 23 -30 27 -10
28 -13 18 -41 -6 -17 -24 -56 -40 -86 -16 -30 -33 -68 -37 -85 -5 -16 -16 -57
-25 -90 -10 -33 -23 -85 -30 -115 -25 -108 -39 -150 -52 -150 -16 0 -17 -17
-1 -22 9 -3 7 -15 -5 -46 -10 -24 -14 -54 -11 -70 3 -16 1 -39 -6 -51 -6 -12
-13 -41 -16 -64 -2 -23 -7 -58 -10 -77 -3 -19 -5 -74 -5 -122 1 -49 -2 -88 -6
-88 -5 0 -8 -36 -8 -80 0 -47 -5 -84 -12 -91 -8 -8 -30 -9 -69 -4 l-57 7 6
121 c7 124 21 264 32 308 3 13 7 42 9 64 5 43 47 246 70 335 34 130 67 242 75
258 5 9 23 60 41 112 31 95 60 145 69 118 2 -7 9 -16 14 -20z m7645 -80 c13
-35 29 -76 37 -93 8 -16 26 -75 40 -130 14 -55 29 -109 34 -120 16 -36 34
-115 27 -122 -3 -3 0 -13 8 -22 15 -19 40 -137 31 -151 -3 -6 -16 -10 -28 -10
-12 0 -47 -7 -77 -15 -60 -17 -69 -18 -210 -39 -52 -8 -102 -16 -110 -18 -11
-2 -16 8 -18 37 -2 22 -9 47 -17 55 -8 9 -10 23 -5 35 4 11 4 25 0 30 -4 6
-13 35 -20 65 -7 30 -18 62 -25 70 -7 8 -16 38 -20 66 -4 32 -15 61 -31 79
-13 15 -25 36 -25 47 -2 22 -3 27 -14 52 -4 10 -8 31 -9 47 -1 16 -4 29 -8 29
-5 0 -8 6 -8 13 0 7 21 19 48 27 26 8 52 16 59 18 12 3 39 -50 47 -92 2 -12
13 -42 23 -66 29 -66 53 -142 53 -167 0 -13 5 -23 10 -23 6 0 10 -13 10 -29 0
-17 4 -32 9 -36 5 -3 12 -19 16 -35 4 -17 11 -30 17 -30 6 0 7 8 3 18 -4 9 -9
34 -12 55 -3 21 -10 40 -14 43 -5 3 -9 20 -9 39 0 19 -4 37 -10 40 -5 3 -10
14 -10 24 0 10 -11 38 -23 62 -23 43 -37 84 -43 125 -1 11 -12 37 -23 57 l-21
37 23 0 c12 0 34 8 47 17 21 15 94 39 174 58 10 2 21 7 24 10 15 15 29 -1 50
-57z m-7468 6 c30 -10 61 -25 69 -32 7 -7 26 -16 42 -19 16 -3 29 -9 29 -13 0
-6 36 -18 100 -35 18 -4 70 -37 70 -44 0 -5 20 -11 44 -14 24 -4 65 -18 89
-32 25 -14 56 -25 69 -26 13 0 17 -3 11 -6 -7 -2 -13 -9 -13 -14 0 -6 5 -7 10
-4 6 3 10 2 10 -4 0 -5 -5 -13 -10 -16 -7 -4 -3 -14 10 -25 23 -20 27 -35 6
-27 -11 4 -13 -3 -11 -29 2 -18 0 -36 -5 -39 -4 -2 -7 -16 -7 -31 0 -14 -5
-29 -10 -33 -17 -11 -35 -69 -28 -90 3 -11 1 -28 -4 -38 -6 -10 -15 -44 -21
-75 -11 -55 -23 -73 -32 -46 -2 6 -21 13 -41 14 -21 2 -54 8 -75 14 -47 13
-72 13 -72 0 0 -6 8 -13 18 -16 9 -4 35 -14 57 -24 22 -10 55 -21 74 -25 32
-7 33 -8 28 -47 -3 -23 -11 -44 -17 -48 -9 -5 -9 -9 -1 -14 15 -9 14 -51 -3
-106 -7 -25 -12 -56 -11 -68 1 -13 -4 -26 -12 -29 -7 -3 -13 -13 -13 -22 0
-14 2 -14 11 -1 7 11 8 -2 4 -45 -4 -32 -8 -63 -11 -66 -2 -4 0 -10 6 -14 5
-3 9 -21 8 -40 -1 -31 -4 -35 -28 -35 -33 0 -36 -28 -4 -42 20 -9 22 -17 22
-101 0 -115 18 -297 44 -452 11 -66 22 -146 24 -177 2 -32 12 -72 24 -93 11
-19 20 -49 20 -65 0 -16 5 -32 10 -35 9 -6 15 -55 6 -55 -2 0 -39 -7 -82 -15
-79 -15 -106 -13 -63 4 17 7 19 10 7 10 -10 1 -25 -10 -33 -23 -12 -18 -40
-32 -99 -50 -89 -28 -100 -30 -92 -18 2 4 1 14 -4 22 -6 10 -1 21 16 37 17 15
24 33 24 57 0 31 -6 40 -40 62 -25 17 -39 33 -36 41 9 21 -18 74 -52 107 -29
27 -33 28 -64 16 -42 -17 -74 -46 -93 -84 -21 -42 -1 -61 65 -61 26 0 51 -3
55 -6 3 -4 -5 -19 -19 -34 -15 -16 -26 -32 -26 -36 0 -5 -28 -8 -61 -6 -68 2
-75 -5 -64 -69 8 -44 72 -89 116 -80 47 9 99 37 99 52 0 21 15 17 47 -11 l28
-25 -22 -6 c-13 -3 -23 -10 -23 -14 0 -4 -19 -10 -42 -12 -24 -3 -63 -14 -88
-26 -25 -11 -59 -24 -75 -28 -16 -4 -40 -13 -53 -20 -21 -11 -22 -13 -5 -17
10 -3 0 -5 -22 -4 -22 0 -53 -3 -70 -7 l-30 -6 -24 87 c-13 49 -32 122 -43
163 -11 41 -26 98 -34 125 -7 28 -16 85 -20 128 l-6 77 31 0 c17 0 31 4 31 9
0 4 18 8 40 8 22 0 40 -4 40 -8 0 -5 5 -9 10 -9 6 0 10 6 10 14 0 14 16 19
124 36 36 6 64 17 72 28 7 9 16 14 20 9 4 -4 2 -7 -4 -7 -7 0 -12 -4 -12 -8 0
-11 113 -9 122 2 3 5 44 11 90 13 45 2 84 8 86 13 2 4 20 6 41 3 23 -3 41 -1
45 6 4 6 15 11 26 11 23 0 34 27 14 38 -9 5 -43 4 -77 -1 -63 -9 -94 -13 -134
-15 -12 -1 -28 -8 -35 -14 -7 -7 -40 -14 -73 -16 -33 -1 -80 -5 -105 -7 -25
-3 -73 -8 -107 -11 -35 -4 -63 -10 -63 -14 0 -4 -11 -5 -25 -2 -14 2 -25 10
-25 18 0 7 -5 16 -11 20 -8 4 -9 0 -4 -15 8 -25 -3 -50 -15 -32 -4 8 -19 9
-46 4 -74 -16 -80 -12 -93 80 -14 99 -18 152 -27 368 l-7 166 34 6 c19 3 45 9
58 13 16 5 22 4 17 -4 -3 -6 2 -13 13 -17 16 -5 19 -16 20 -67 1 -69 11 -132
19 -123 6 6 7 16 10 128 2 66 3 68 25 61 36 -12 147 -12 140 0 -4 6 1 5 10 -3
13 -10 20 -11 31 -2 15 12 75 6 90 -9 5 -5 17 -5 28 1 10 5 18 6 18 1 0 -5 18
-6 43 -2 23 5 47 5 52 0 10 -8 69 -5 85 5 5 3 11 1 15 -5 10 -16 45 -12 45 5
0 11 -13 15 -52 16 -140 3 -151 6 -127 35 14 17 16 14 -39 53 -16 11 -19 24
-18 67 0 30 4 54 9 54 4 0 7 -4 7 -10 0 -5 9 -10 20 -10 24 0 44 34 37 63 -3
12 3 54 12 92 10 39 16 75 14 81 -6 17 -119 17 -146 0 -32 -22 -68 -2 -80 44
-5 19 -12 39 -16 43 -13 13 -30 -71 -21 -101 18 -59 43 -108 66 -128 l24 -21
-22 -29 c-13 -16 -30 -36 -40 -44 -22 -20 -34 -80 -16 -80 7 0 46 -22 85 -49
l72 -49 -67 -1 c-37 -1 -116 4 -176 10 l-108 12 6 41 c10 64 28 254 31 326 3
82 26 230 35 230 4 0 5 12 2 27 -6 32 23 60 45 42 23 -20 14 -1 -12 23 -23 22
-24 25 -11 68 126 423 153 503 170 497 6 -2 36 -12 66 -23z m7755 -769 c39
-221 76 -685 55 -685 -9 0 -32 114 -30 154 4 89 -2 150 -18 189 -15 35 -15 44
0 49 8 3 7 13 -4 35 -9 17 -14 45 -12 63 2 17 -3 44 -10 59 -10 17 -13 42 -9
70 5 33 2 45 -12 55 -13 9 -16 19 -10 32 4 10 7 23 6 28 -1 4 4 15 11 23 11
13 13 11 20 -13 4 -16 10 -42 13 -59z m-87 23 c28 -110 43 -221 59 -439 9
-130 13 -244 10 -253 -6 -15 -26 -16 -219 -10 -117 3 -218 11 -225 16 -8 6 -9
17 -3 32 5 13 5 40 0 60 -4 20 -4 52 0 71 5 20 4 33 -1 29 -5 -3 -9 4 -9 15 0
12 -6 21 -12 21 -9 0 -10 3 -2 8 6 4 10 29 9 57 -4 89 -17 220 -23 230 -3 5
-7 20 -8 33 -2 13 -8 30 -14 37 -9 11 -8 21 2 42 11 23 21 29 61 33 26 3 51 3
56 0 4 -3 11 -27 15 -55 11 -81 17 -105 25 -100 5 2 1 35 -7 71 -17 75 -10 98
29 101 72 6 220 31 228 39 11 11 19 1 29 -38z m-548 -752 c52 -2 104 -4 114
-5 18 -1 19 -8 12 -143 -4 -79 -8 -156 -10 -173 -17 -139 -36 -267 -44 -282
-4 -10 -9 -36 -11 -58 -4 -69 -33 -175 -47 -175 -17 0 -18 -17 -1 -23 6 -3 3
-6 -8 -7 -19 -1 -19 -1 -2 -14 12 -9 14 -16 8 -21 -6 -3 -11 -18 -11 -31 0
-14 -16 -78 -36 -142 -20 -64 -38 -126 -39 -137 -1 -11 -7 -30 -13 -42 l-12
-21 -66 24 c-36 13 -70 21 -75 18 -5 -3 -8 0 -7 8 2 8 -9 14 -27 16 -16 2 -37
10 -46 18 -9 8 -47 25 -85 38 -302 103 -357 127 -335 149 6 6 11 20 11 32 0
11 7 30 15 41 8 12 19 52 25 90 6 38 14 78 19 89 35 81 51 148 54 220 0 11 5
23 11 27 5 3 11 50 13 104 2 54 8 116 14 139 12 42 14 204 4 236 -8 25 12 29
180 32 139 2 215 1 395 -7z m294 -16 c14 -5 27 -6 30 -1 3 4 56 6 118 5 62 -2
128 -3 147 -4 l34 0 -6 -157 c-9 -197 -43 -513 -58 -527 -6 -6 -106 13 -159
29 -25 8 -63 16 -85 18 l-39 4 3 42 c1 24 -2 41 -8 41 -6 0 -11 -16 -11 -35 0
-32 -7 -40 -32 -36 -15 2 -8 -17 7 -23 12 -4 14 -16 10 -48 -4 -30 -3 -37 4
-23 4 11 7 23 4 28 -2 4 -1 7 4 7 8 0 134 -23 213 -39 25 -5 46 -9 48 -10 1 0
10 -4 19 -9 28 -16 -30 -257 -156 -647 -3 -11 -11 -28 -17 -38 -9 -16 -13 -17
-40 -2 -16 8 -36 15 -45 15 -8 0 -19 4 -25 8 -5 5 -45 21 -89 37 -44 15 -81
29 -83 30 -2 2 6 18 16 36 10 19 22 50 25 69 8 39 12 60 21 105 6 28 -19 -17
-52 -95 -10 -24 -11 -23 -11 13 -1 28 -5 37 -18 37 -15 0 -16 -2 -3 -10 11 -7
12 -14 5 -27 -12 -20 -12 -57 -1 -90 6 -19 4 -23 -13 -23 -11 0 -26 6 -33 13
-7 6 -26 17 -42 22 -24 8 -29 16 -29 40 1 67 3 74 31 87 24 12 27 19 27 65 -1
33 3 49 10 46 7 -2 17 19 24 51 7 31 15 55 19 54 4 -1 15 2 24 6 16 7 16 11 4
40 -9 21 -10 39 -4 56 5 13 6 41 3 61 -4 23 -2 47 6 61 7 13 12 33 10 45 -1
14 5 23 18 28 19 6 31 47 14 44 -19 -3 -33 2 -33 12 0 6 6 9 14 6 10 -4 17 7
24 36 16 61 22 186 13 229 -5 22 -5 36 0 32 5 -3 9 2 9 10 0 9 -4 16 -10 16
-5 0 -10 5 -10 11 0 6 7 8 16 5 15 -6 16 3 11 76 -3 59 0 97 10 131 15 45 17
47 54 47 21 0 49 -4 63 -10z m402 -102 c-3 -40 -9 -120 -11 -178 -3 -58 -7
-118 -10 -135 -3 -16 -7 -59 -10 -95 -5 -67 -23 -168 -32 -184 -3 -4 -9 -2
-14 5 -4 7 -3 19 2 25 11 14 17 65 23 219 3 55 10 113 16 129 8 22 8 37 -1 59
-10 23 -10 30 1 37 9 6 13 34 12 99 0 76 2 91 15 91 13 0 15 -11 9 -72z
m-8615 -424 c4 -28 11 -60 18 -72 6 -11 11 -32 11 -45 0 -13 9 -59 20 -102 11
-42 21 -101 22 -130 2 -29 5 -51 7 -49 2 2 10 -7 17 -21 11 -21 20 -57 49
-199 4 -17 1 -17 -19 5 -14 14 -31 56 -44 104 -39 152 -91 390 -100 460 -5 39
-13 78 -17 89 -6 14 -4 17 11 14 15 -2 20 -15 25 -54z m1269 -295 c0 -6 6 -9
13 -6 28 11 41 -13 104 -193 9 -25 22 -52 29 -61 8 -8 14 -21 14 -27 0 -7 9
-29 20 -49 11 -21 20 -45 20 -53 0 -9 5 -21 12 -28 15 -15 3 -16 -20 -1 -15 9
-26 7 -58 -13 -21 -14 -57 -33 -79 -43 -22 -10 -64 -34 -93 -52 -29 -18 -58
-33 -65 -33 -7 0 -17 -4 -22 -9 -6 -5 -30 -20 -55 -34 -81 -43 -175 -99 -180
-105 -3 -4 -14 -8 -24 -10 -30 -6 -66 -33 -66 -51 0 -13 -2 -14 -9 -2 -8 12
-13 12 -35 -2 -36 -24 -53 -21 -61 10 -3 15 -31 78 -61 139 -30 61 -54 116
-54 121 0 6 -14 40 -30 77 -17 36 -30 68 -30 71 -1 3 -7 23 -15 46 -19 53 -19
69 0 69 8 0 15 6 15 14 0 7 7 19 15 26 18 15 20 -1 3 -18 -8 -8 -8 -12 -1 -12
6 0 16 7 23 15 13 16 31 20 29 8 -3 -20 2 -24 15 -14 8 6 18 11 22 10 17 -4
74 23 68 32 -3 5 1 6 9 3 8 -3 47 6 88 20 41 13 90 27 109 31 19 4 54 18 76
30 23 13 64 25 91 28 48 5 107 29 148 61 24 18 35 20 35 5z m243 -467 c9 -10
23 -33 32 -52 8 -19 19 -42 24 -50 5 -8 17 -31 27 -51 27 -51 53 -86 100 -134
23 -23 50 -57 60 -75 10 -19 28 -43 38 -53 19 -20 19 -20 0 -34 -10 -7 -47
-41 -82 -73 -34 -33 -85 -76 -112 -96 -28 -20 -50 -40 -50 -45 0 -5 -4 -9 -10
-9 -5 0 -19 -8 -29 -17 -35 -32 -103 -88 -135 -110 -17 -11 -39 -30 -48 -42
-26 -31 -1 -38 31 -7 15 14 32 26 39 26 7 0 12 7 12 16 0 8 5 12 10 9 6 -3 23
3 38 15 55 43 107 86 163 135 31 28 71 61 90 75 18 14 50 40 72 58 21 17 45
32 52 32 14 0 45 -26 45 -38 0 -4 36 -45 80 -92 44 -46 80 -90 80 -97 0 -7 5
-13 12 -13 16 0 78 -61 78 -76 0 -19 -68 -104 -167 -209 -51 -53 -93 -103 -93
-110 0 -18 -32 -27 -63 -20 -23 6 -24 9 -16 43 13 55 12 59 -21 66 -37 7 -39
23 -5 36 21 8 65 62 65 81 0 4 -18 9 -40 13 -23 3 -49 16 -62 31 -13 13 -39
27 -58 30 -19 3 -36 8 -38 10 -8 8 -102 -79 -102 -95 0 -30 117 -31 193 -1 15
6 27 7 27 3 0 -16 -18 -31 -80 -71 -36 -23 -65 -48 -65 -54 0 -14 57 -16 93
-3 19 6 22 4 22 -18 0 -13 -4 -35 -9 -49 -9 -22 -7 -24 50 -36 l59 -12 -27
-37 c-15 -20 -32 -40 -38 -44 -38 -27 -45 -33 -45 -41 0 -4 -5 -14 -12 -21
-13 -14 -35 3 -142 106 -73 71 -72 70 -87 51 -12 -15 -12 -16 5 -10 14 6 17 4
12 -8 -4 -10 1 -15 15 -15 13 0 18 -4 13 -12 -4 -6 -3 -8 3 -5 13 8 49 -30 39
-41 -4 -4 -13 1 -20 10 -7 10 -16 15 -19 11 -12 -11 -8 -23 8 -23 8 0 15 -6
15 -12 0 -7 19 -24 42 -37 36 -20 40 -21 34 -5 -7 17 -6 17 14 -1 27 -24 26
-38 -2 -29 -22 6 -22 6 -5 -13 9 -11 17 -24 17 -30 0 -16 -52 -73 -67 -73 -12
0 -18 5 -69 61 -17 19 -44 46 -60 60 -16 14 -44 42 -62 63 -18 20 -38 36 -45
33 -6 -2 41 -57 106 -122 133 -134 130 -120 45 -208 -22 -23 -53 -55 -69 -72
-16 -16 -29 -35 -29 -42 0 -25 -20 -22 -53 7 -19 16 -38 30 -42 30 -5 0 -5 -3
-2 -7 4 -3 2 -12 -3 -18 -7 -8 -4 -18 10 -30 11 -10 20 -22 20 -26 0 -11 49
-59 59 -59 10 0 61 -61 61 -73 0 -4 -7 -2 -15 7 -8 8 -25 23 -38 33 -13 10
-29 28 -36 41 -6 12 -19 22 -28 22 -16 0 -255 238 -301 300 -14 19 -48 57 -74
83 -27 26 -46 52 -43 57 8 13 25 13 25 0 0 -13 26 -45 78 -93 23 -23 42 -44
42 -48 0 -12 57 -69 69 -69 6 0 11 -7 11 -15 0 -8 4 -15 10 -15 5 0 21 -17 35
-38 13 -21 38 -45 54 -55 l29 -17 -10 37 c-5 21 -25 54 -44 73 -19 20 -34 39
-34 44 0 4 -11 19 -25 34 -14 15 -57 65 -97 112 -39 47 -75 88 -80 91 -5 3
-15 18 -23 32 -16 31 -12 35 120 130 l90 65 62 -67 c34 -36 62 -61 63 -55 0 7
-7 14 -15 18 -8 3 -15 11 -15 19 0 7 -11 23 -25 35 -14 12 -25 29 -25 37 0 8
-4 15 -10 15 -17 0 -11 19 11 38 12 9 37 29 54 45 l33 27 20 -32 c12 -18 30
-39 41 -46 12 -7 21 -19 21 -26 0 -8 11 -23 25 -34 14 -11 25 -29 25 -40 0
-18 18 -32 41 -32 5 0 9 7 9 15 0 8 -4 15 -9 15 -4 0 -20 17 -33 38 -14 20
-49 62 -77 92 -32 34 -50 62 -49 75 2 14 -3 20 -16 20 -11 0 -22 7 -24 15 -3
8 -26 42 -52 75 -25 33 -57 77 -70 99 -13 21 -33 49 -46 63 -12 13 -30 40 -39
59 -9 20 -19 34 -21 31 -6 -6 24 -74 36 -82 6 -3 20 -25 31 -48 12 -23 49 -78
81 -122 33 -43 63 -85 65 -93 3 -7 -16 -33 -43 -58 l-49 -45 -20 24 c-20 23
-80 105 -100 136 -5 8 -29 43 -52 77 -24 35 -43 67 -43 72 0 5 -9 17 -20 27
-11 10 -20 24 -20 32 0 7 -4 13 -8 13 -5 0 -19 25 -32 56 -13 31 -33 62 -44
69 -16 12 -45 73 -46 97 0 5 66 50 80 54 36 10 50 19 55 35 4 10 12 16 20 13
13 -5 22 0 60 34 7 6 18 12 23 12 5 0 23 7 38 15 16 8 37 15 47 15 9 0 17 5
17 10 0 6 7 10 14 10 8 0 41 15 73 33 32 18 77 42 100 53 24 10 43 22 43 26 0
4 21 13 46 19 25 7 48 18 51 25 3 8 11 14 18 14 7 0 15 7 19 15 7 20 19 19 39
-3z m6389 -57 c54 -18 80 -41 59 -55 -23 -13 -80 -181 -62 -180 10 1 50 92 57
133 3 20 10 37 14 37 5 0 10 9 12 20 3 19 4 19 48 -2 25 -12 50 -22 55 -24 27
-6 84 -35 90 -44 3 -5 19 -10 34 -10 16 0 34 -6 40 -14 12 -15 10 -25 -29
-111 -12 -28 -29 -66 -38 -85 -15 -35 -52 -110 -133 -272 -24 -48 -50 -88 -57
-88 -7 0 -10 -5 -7 -10 3 -6 -3 -22 -14 -35 -11 -16 -22 -21 -26 -15 -3 6 -11
8 -16 5 -5 -4 -9 1 -9 11 0 11 -6 15 -19 11 -12 -3 -27 3 -36 13 -25 27 -83
52 -105 45 -24 -8 -27 -35 -4 -35 9 0 27 -9 41 -20 14 -11 31 -20 37 -20 6 0
17 -9 23 -20 7 -11 26 -23 43 -27 29 -8 29 -9 16 -35 -60 -115 -145 -243 -191
-287 -19 -19 -35 -38 -35 -44 0 -6 -18 -34 -41 -64 -53 -70 -62 -68 -198 57
-27 25 -56 51 -65 58 -18 14 -21 32 -6 32 6 0 10 5 10 12 0 6 -7 4 -18 -5 -21
-19 -52 -23 -52 -6 0 5 -5 7 -12 3 -8 -5 -9 -2 -5 9 3 9 2 19 -3 22 -4 3 -11
-1 -13 -7 -4 -9 -6 -7 -6 3 -1 9 -10 24 -21 34 -23 21 -26 45 -6 45 8 0 25 19
39 43 14 23 41 59 61 79 20 20 36 42 36 47 0 6 11 18 25 27 14 9 25 25 25 35
0 10 16 35 35 56 19 21 35 46 35 57 0 12 5 16 15 12 11 -4 15 2 15 20 0 13 7
27 16 31 9 3 14 13 11 24 -3 11 2 23 10 28 9 5 17 21 19 37 2 15 12 39 24 53
11 15 27 42 36 61 38 83 48 100 56 100 5 0 6 -4 3 -10 -3 -5 -1 -10 4 -10 13
0 15 27 2 34 -13 8 -1 47 21 70 10 11 18 30 18 42 0 28 71 168 79 156 3 -5 32
-18 63 -27z m88 -859 c0 -8 -6 -21 -14 -28 -7 -8 -17 -24 -20 -36 -4 -12 -12
-22 -17 -22 -5 0 -9 -5 -9 -12 0 -6 -19 -36 -42 -67 -47 -61 -60 -79 -100
-139 -15 -22 -37 -50 -50 -61 -12 -12 -18 -21 -14 -21 4 0 1 -6 -6 -14 -7 -7
-24 -26 -38 -42 -25 -29 -25 -29 -28 -6 -2 14 5 29 18 40 20 16 39 44 59 88 5
11 22 32 38 45 38 33 75 87 78 113 4 35 5 36 19 36 22 0 66 63 66 94 0 18 7
29 23 36 31 12 37 12 37 -4z m-740 -201 c26 -8 70 -49 70 -65 0 -5 10 -12 22
-16 22 -7 78 -61 78 -76 0 -5 6 -8 13 -8 6 0 36 -23 65 -51 l52 -51 -24 -26
c-14 -15 -36 -39 -50 -54 -14 -16 -31 -28 -38 -28 -17 0 -58 54 -87 115 -5 11
-21 31 -35 44 -14 14 -26 33 -26 44 0 10 -13 32 -30 49 -16 16 -30 33 -30 37
0 4 -13 21 -30 37 -32 31 -37 53 -18 72 9 9 15 9 27 -2 9 -7 27 -17 41 -21z"/>
<path d="M2850 7423 c-14 -3 -37 -16 -52 -30 -22 -21 -26 -32 -22 -57 12 -71
43 -123 67 -113 21 9 80 154 73 182 -6 25 -14 27 -66 18z"/>
<path d="M2334 7463 c-12 -13 -29 -23 -38 -23 -9 0 -16 -5 -16 -11 0 -6 -7 -8
-17 -5 -9 4 -19 3 -22 -3 -6 -8 -157 -125 -190 -146 -8 -5 -30 -19 -48 -31
-18 -12 -50 -36 -71 -55 -21 -19 -46 -39 -57 -45 -10 -5 -30 -26 -44 -45 -20
-26 -21 -31 -6 -19 11 8 22 18 25 22 3 3 12 8 19 10 8 2 27 15 42 29 16 14 45
34 66 45 21 10 44 27 51 37 8 10 71 55 141 100 166 108 161 105 196 121 17 8
39 21 50 29 19 15 18 16 -20 14 -27 -1 -47 -9 -61 -24z"/>
<path d="M2449 7413 c0 -5 0 -35 1 -68 2 -77 -9 -105 -54 -136 -19 -13 -43
-38 -53 -56 -9 -18 -30 -42 -45 -53 -15 -11 -28 -28 -28 -36 0 -31 32 -84 51
-84 10 0 21 -4 24 -10 29 -47 96 53 91 135 -1 25 -8 50 -15 55 -10 6 -10 9 -1
15 13 8 30 -11 30 -33 0 -8 7 -29 16 -48 12 -26 24 -35 51 -40 57 -11 78 21
100 152 5 30 3 31 -39 40 -23 4 -54 8 -68 8 -24 1 -25 5 -34 84 -5 45 -13 82
-17 82 -5 0 -9 -3 -10 -7z"/>
<path d="M1641 6476 c-61 -11 -64 -12 -76 -49 -7 -20 -18 -44 -25 -52 -7 -8
-10 -28 -8 -44 4 -28 2 -29 -44 -35 -43 -6 -49 -10 -63 -43 -18 -41 -12 -93
14 -125 15 -17 24 -19 59 -13 46 7 63 28 69 80 7 74 11 78 54 71 35 -6 43 -3
69 24 17 17 30 37 30 45 0 20 26 19 34 -1 11 -29 6 -67 -16 -115 -16 -37 -26
-48 -42 -46 -15 1 -22 -5 -24 -22 -7 -46 16 -49 53 -6 79 91 94 166 53 253
-12 26 -22 52 -21 59 0 6 -5 9 -12 7 -7 -3 -15 2 -18 10 -4 9 -10 16 -14 15
-4 -1 -37 -6 -72 -13z"/>
<path d="M1228 5955 c-12 -27 -5 -36 102 -128 39 -33 34 -47 -7 -18 -15 11
-48 25 -72 31 -56 15 -87 0 -97 -44 -3 -17 -17 -40 -29 -52 -13 -11 -27 -32
-30 -47 -13 -50 1 -71 63 -101 74 -35 94 -32 105 17 11 46 5 72 -28 121 -14
20 -25 39 -25 41 0 8 74 -28 107 -52 59 -43 92 -21 93 60 0 28 7 59 18 74 9
15 11 24 5 20 -8 -5 -13 -3 -13 3 0 6 -6 10 -12 9 -27 -3 -39 1 -32 13 5 7 3
8 -5 3 -8 -4 -23 3 -39 18 -15 13 -42 32 -60 41 -32 16 -32 16 -44 -9z"/>
<path d="M1049 5412 c-36 -23 -71 -68 -98 -124 -13 -27 -26 -48 -31 -48 -5 0
-20 -21 -35 -47 -36 -64 -29 -87 32 -103 27 -6 53 -13 60 -15 20 -6 46 33 47
74 0 22 5 37 10 34 5 -4 6 6 2 21 -6 23 -4 27 11 24 11 -2 20 -17 25 -41 4
-21 18 -51 30 -67 21 -29 23 -29 46 -14 50 33 70 67 77 128 9 72 -6 90 -58 75
-47 -13 -47 -13 -47 37 0 49 -14 84 -33 83 -7 0 -24 -8 -38 -17z"/>
<path d="M742 4059 c-24 -12 -46 -28 -49 -36 -7 -18 34 -53 101 -88 65 -32 88
-32 108 3 16 27 16 30 -2 60 -11 18 -16 32 -12 33 4 1 33 1 64 1 32 -1 60 3
62 7 13 21 -18 30 -119 36 -101 6 -114 5 -153 -16z"/>
<path d="M7684 4065 c-4 -8 0 -30 9 -48 8 -17 17 -51 21 -74 l6 -43 -33 0
c-18 0 -42 -6 -52 -14 -17 -12 -18 -18 -7 -66 7 -28 12 -66 12 -84 0 -68 40
-108 70 -71 7 8 17 15 23 15 15 0 57 53 57 73 0 9 5 17 12 17 22 0 80 -53 96
-89 l17 -36 3 32 c2 18 -4 45 -12 60 -8 16 -22 43 -31 61 -8 17 -19 32 -23 32
-4 0 -20 16 -35 35 l-28 36 25 44 c37 63 35 88 -11 108 -61 25 -112 31 -119
12z"/>
<path d="M7601 3436 c-8 -9 -7 -52 2 -156 3 -36 -28 -38 -41 -3 -14 36 -46 73
-64 73 -20 0 -45 -57 -53 -121 -6 -46 -4 -58 15 -82 21 -26 65 -37 72 -18 2 5
12 11 22 13 16 2 24 -8 41 -52 11 -30 26 -55 33 -54 7 1 18 2 25 3 15 1 48 55
60 96 8 28 11 65 8 110 -1 11 1 44 5 72 8 63 1 74 -67 107 -35 16 -52 20 -58
12z"/>
<path d="M1031 3075 c-16 -14 -33 -35 -36 -45 -4 -11 -13 -20 -21 -20 -24 0
-16 -30 11 -40 16 -6 34 -6 51 0 26 10 124 3 124 -9 -1 -14 -37 -49 -57 -55
-12 -4 -39 -23 -59 -42 -21 -19 -44 -32 -50 -30 -15 6 -28 -24 -16 -36 11 -11
113 -28 166 -28 22 0 36 3 32 7 -8 8 77 32 117 33 17 0 27 5 27 15 0 8 -3 16
-7 16 -40 7 -65 5 -107 -7 -27 -8 -63 -14 -80 -14 l-31 1 26 22 c14 12 38 31
53 42 52 37 90 74 83 82 -4 4 -20 9 -35 11 -35 4 -39 9 -24 33 19 29 0 54 -55
73 -63 21 -76 20 -112 -9z"/>
<path d="M1262 2502 c-22 -18 -34 -39 -39 -64 -5 -36 -4 -38 20 -38 50 0 72
18 71 56 -1 24 2 34 12 34 19 0 35 -41 22 -57 -6 -7 -5 -14 2 -18 16 -10 71 5
77 21 12 33 -60 94 -111 94 -12 0 -36 -13 -54 -28z"/>
<path d="M1430 2396 c-54 -17 -60 -24 -60 -67 0 -33 4 -41 26 -49 14 -6 37
-10 51 -10 26 0 26 0 8 20 -18 20 -18 21 1 47 26 35 40 39 47 13 15 -57 -46
-140 -102 -140 -38 0 -77 33 -84 70 -5 23 -12 30 -31 30 -13 0 -30 -7 -37 -16
-21 -26 55 -88 140 -115 l68 -22 33 24 c69 49 78 61 85 105 4 31 1 53 -10 78
-22 46 -62 56 -135 32z"/>
<path d="M4174 7742 c-8 -5 -11 -44 -9 -122 4 -157 4 -163 14 -179 8 -12 13
-12 35 3 15 9 24 21 21 25 -2 5 3 19 14 32 28 37 33 69 11 69 -10 0 -21 -6
-23 -12 -3 -7 -6 14 -6 47 -2 116 -21 162 -57 137z"/>
<path d="M4997 7723 c-3 -5 -8 -30 -12 -58 -4 -27 -9 -57 -11 -65 -2 -8 -11
-42 -18 -75 -8 -33 -19 -76 -25 -95 -5 -19 -12 -51 -14 -70 -3 -19 -10 -47
-15 -61 -6 -15 -8 -30 -5 -33 6 -6 -16 -68 -28 -76 -12 -9 -20 -48 -11 -54 15
-9 55 35 76 80 12 29 16 52 11 75 -4 25 -3 30 4 19 8 -11 11 -3 11 33 0 26 4
47 10 47 5 0 9 8 8 18 -1 9 0 37 0 61 2 37 4 42 17 31 12 -10 23 -6 62 19 50
33 61 34 76 9 16 -24 1 -47 -43 -64 -44 -18 -53 -34 -17 -34 12 0 40 -9 61
-21 21 -11 44 -18 51 -15 7 2 29 -4 49 -14 38 -19 99 -18 124 3 9 7 12 32 10
81 l-3 71 -29 -2 c-15 -1 -33 -8 -40 -16 -6 -7 -30 -25 -54 -40 -35 -23 -46
-26 -63 -16 -20 10 -20 11 11 39 36 32 35 59 -4 80 -30 15 -81 1 -145 -42
l-44 -29 7 33 c4 18 12 60 17 92 6 33 13 64 16 69 3 5 -1 13 -8 18 -17 11 -26
11 -32 2z"/>
<path d="M4501 7664 c-22 -29 -25 -37 -14 -47 3 -4 5 -34 4 -67 -3 -64 6 -73
50 -49 16 8 30 7 60 -5 22 -9 50 -16 63 -16 33 0 86 67 86 110 0 40 -16 70
-37 70 -31 0 -105 -42 -115 -66 -6 -13 -19 -24 -30 -24 -15 0 -17 6 -13 41 3
23 8 46 12 52 6 10 -14 27 -34 27 -6 0 -21 -12 -32 -26z"/>
<path d="M3983 7636 c-19 -19 -21 -30 -18 -86 7 -100 38 -113 106 -46 29 28
77 131 67 142 -2 2 -33 5 -69 8 -56 3 -67 1 -86 -18z"/>
<path d="M5850 7300 c-119 -45 -123 -49 -80 -90 62 -58 157 -61 172 -5 13 49
17 86 11 101 -7 18 -46 16 -103 -6z"/>
<path d="M6265 7113 c-11 -3 -25 -13 -32 -23 -6 -9 -35 -28 -63 -41 -49 -23
-51 -26 -47 -56 5 -26 2 -33 -14 -38 -31 -10 -23 -28 10 -22 22 5 39 -1 76
-28 38 -27 54 -32 80 -28 25 4 39 0 56 -16 13 -11 30 -21 39 -21 28 0 58 29
65 63 4 17 14 44 23 59 9 15 13 30 10 33 -7 7 -85 -15 -143 -41 -43 -19 -75
-19 -87 0 -13 19 -9 25 25 42 39 20 77 54 77 69 0 13 -38 56 -48 54 -4 -1 -16
-4 -27 -6z"/>
<path d="M6608 6771 c-18 -16 -30 -33 -26 -37 5 -4 18 1 30 12 l22 19 -22 -37
c-27 -43 -23 -47 57 -63 l54 -11 -59 -34 c-67 -37 -87 -59 -73 -76 14 -18 50
-5 89 31 19 17 56 49 83 70 26 20 47 44 47 51 0 16 -46 19 -55 4 -8 -13 -58
-13 -72 1 -7 7 -8 21 -2 42 5 18 9 38 9 44 0 23 -49 13 -82 -16z"/>
<path d="M6780 6596 c-36 -19 -75 -45 -88 -59 -21 -22 -22 -26 -7 -40 19 -20
67 -30 119 -25 35 3 39 6 56 51 21 56 21 101 0 104 -8 1 -44 -13 -80 -31z"/>
<path d="M4298 6335 c-3 -6 -11 -30 -18 -53 -10 -39 -9 -47 7 -65 10 -11 12
-17 6 -13 -10 5 -13 -3 -14 -31 0 -21 -2 -112 -4 -203 -3 -91 -6 -367 -9 -613
-2 -247 -7 -451 -10 -455 -4 -3 -29 18 -57 48 -51 57 -80 98 -60 86 6 -4 11
-3 11 1 0 5 -10 13 -22 18 -13 6 -22 17 -20 26 1 9 -9 22 -23 29 -18 10 -22
16 -13 21 10 6 8 12 -7 23 -11 8 -17 17 -13 21 4 4 -25 38 -65 76 -64 62 -72
67 -79 49 -6 -18 -13 -19 -65 -14 -59 6 -75 0 -203 -70 -16 -9 -66 -74 -85
-110 -13 -26 -30 -30 -46 -12 -84 90 -216 216 -226 216 -21 0 -15 -31 7 -37
11 -3 20 -9 20 -14 0 -19 194 -216 222 -224 9 -4 20 -15 23 -26 4 -10 13 -19
21 -19 8 0 14 -7 14 -15 0 -8 10 -20 23 -26 12 -7 25 -17 29 -23 5 -7 11 -7
17 -1 7 7 0 21 -19 43 -22 26 -28 42 -28 79 0 84 77 171 141 159 24 -4 28 -3
17 5 -38 26 100 -13 169 -48 24 -13 49 -23 56 -23 6 0 21 -10 33 -23 24 -25
29 -43 10 -31 -7 4 -2 -7 11 -25 16 -22 28 -30 39 -26 9 3 14 3 10 0 -3 -4 1
-15 10 -25 25 -27 37 -42 56 -73 10 -15 23 -27 29 -27 25 0 65 -62 71 -110 7
-51 24 -66 33 -30 3 11 9 20 13 20 7 0 67 -60 155 -158 27 -30 54 -51 62 -48
7 3 13 1 13 -3 0 -5 -5 -11 -10 -13 -11 -3 57 -78 71 -78 16 0 10 15 -12 30
-11 8 -25 24 -31 35 -6 11 32 -20 83 -70 51 -49 107 -103 125 -120 136 -126
155 -151 102 -137 -14 3 -19 2 -14 -7 4 -6 12 -9 17 -6 5 4 9 1 9 -5 0 -6 8
-9 18 -6 13 4 39 -12 88 -56 123 -110 143 -126 149 -120 3 3 5 0 5 -6 0 -18
27 -15 34 4 3 9 2 12 -5 9 -5 -4 -18 3 -28 14 -10 12 -26 21 -36 21 -9 0 -19
9 -22 20 -3 11 -8 20 -12 20 -3 0 -19 12 -34 25 -19 17 -26 31 -22 44 5 16 11
17 48 10 65 -13 78 -11 84 12 4 16 11 19 32 14 14 -3 36 -7 49 -10 12 -2 26
-6 30 -9 4 -2 9 4 9 15 2 22 7 21 -197 21 -137 1 -159 8 -180 58 -7 17 -16 28
-20 25 -13 -8 -262 223 -255 235 3 4 -7 11 -21 14 -19 5 -24 11 -19 24 3 9 3
13 -1 9 -4 -4 -13 -2 -21 4 -9 9 -17 8 -27 0 -10 -8 -16 -8 -25 3 -7 9 -8 17
-2 20 5 3 11 0 14 -6 2 -7 8 -10 12 -6 9 8 -51 68 -68 68 -16 0 -148 140 -142
151 4 5 3 14 -1 21 -13 20 -16 218 -4 218 6 0 8 5 4 12 -5 7 -7 53 -5 103 6
184 6 245 -3 245 -4 0 -5 12 -1 28 9 35 15 829 6 862 -4 14 -10 20 -13 15z"/>
<path d="M6960 6313 c-16 -16 -33 -42 -36 -60 -5 -26 -1 -36 21 -57 36 -33
103 -36 130 -6 17 18 17 21 1 45 -18 27 -28 30 -56 15 -12 -6 -17 -17 -14 -28
5 -16 5 -16 -6 0 -8 13 -7 26 4 53 12 28 20 34 41 33 14 -1 40 -17 57 -35 23
-24 41 -33 64 -33 44 0 49 13 19 48 -27 32 -86 52 -154 52 -30 0 -48 -7 -71
-27z"/>
<path d="M7124 6155 c-4 -8 -11 -15 -16 -15 -15 0 -82 -33 -90 -44 -14 -21 35
-57 83 -62 15 -2 31 -4 36 -5 26 -5 42 4 52 29 6 15 16 34 23 43 18 26 -14 69
-53 69 -17 0 -32 -6 -35 -15z"/>
<path d="M7300 5790 c-30 -11 -64 -19 -74 -20 -35 0 -126 -34 -123 -44 4 -12
46 -10 117 4 25 5 62 11 82 14 l38 5 -20 -22 c-11 -11 -20 -24 -20 -29 0 -4
-18 -27 -40 -49 -45 -46 -48 -56 -22 -62 30 -6 65 20 136 102 39 45 76 81 83
81 31 0 10 28 -24 34 -57 9 -73 7 -133 -14z"/>
<path d="M7392 5633 c-87 -30 -116 -61 -87 -93 20 -22 89 -39 133 -32 26 3 33
11 46 52 22 66 21 100 -1 99 -10 0 -51 -12 -91 -26z"/>
<path d="M7625 5325 c-16 -7 -32 -23 -35 -36 -8 -34 -78 -32 -101 4 -15 22
-36 -3 -42 -48 -7 -46 -6 -49 44 -106 28 -33 55 -59 59 -59 5 0 11 -13 15 -30
14 -64 115 -86 176 -39 l24 19 -35 30 c-19 17 -49 36 -67 42 -34 12 -41 22
-23 33 6 3 10 19 10 35 0 28 1 28 32 19 46 -13 98 -1 108 25 10 25 -9 58 -54
98 -34 30 -65 33 -111 13z"/>
<path d="M3081 4913 c25 -41 39 -54 50 -47 4 2 9 -7 13 -19 3 -13 18 -36 33
-50 16 -15 44 -42 63 -60 19 -19 51 -52 71 -73 46 -50 97 -94 107 -94 5 0 23
-23 42 -51 18 -28 39 -53 47 -56 9 -3 29 -19 45 -35 16 -15 33 -28 39 -28 6 0
7 -4 4 -10 -3 -5 -1 -10 5 -10 18 0 7 52 -13 64 -27 16 -87 76 -87 87 0 5 -11
14 -25 19 -14 5 -28 16 -31 24 -3 8 -12 12 -20 9 -9 -3 -12 0 -9 8 3 8 -22 41
-60 78 -36 34 -65 58 -65 51 0 -6 -5 -8 -10 -5 -6 4 -8 10 -5 15 6 10 -61 81
-69 73 -3 -3 -8 6 -12 21 -3 14 -10 26 -15 26 -4 0 -30 23 -56 50 -57 59 -73
64 -42 13z"/>
<path d="M4271 4726 c-8 -9 -13 -73 -16 -178 -2 -89 -4 -166 -4 -170 -1 -5 -8
-8 -16 -8 -8 0 -15 -4 -15 -9 0 -5 7 -14 15 -21 19 -16 20 -60 1 -60 -8 0 -16
-8 -18 -17 -3 -15 -16 -17 -103 -17 -55 1 -86 -1 -70 -3 17 -3 35 -9 40 -15 7
-8 5 -9 -7 -5 -10 4 -18 2 -18 -3 0 -15 87 -12 93 3 4 10 6 10 6 0 1 -7 9 -13
19 -13 22 0 47 -42 39 -64 -4 -10 -1 -16 7 -16 22 0 45 -43 39 -73 -4 -18 -1
-27 8 -27 8 0 5 -6 -7 -15 -20 -15 -16 -19 10 -9 12 4 16 20 16 55 0 49 0 49
34 49 18 0 45 9 59 20 14 11 27 20 29 20 3 0 34 -28 69 -62 35 -34 67 -61 72
-60 4 1 7 -2 7 -8 0 -5 7 -10 15 -10 9 0 15 9 15 25 0 14 -4 25 -8 25 -5 0
-44 35 -87 77 -60 59 -75 79 -61 81 13 3 7 9 -21 24 -21 11 -45 27 -53 37 -8
9 -22 20 -31 23 -21 8 -27 56 -19 140 4 35 3 65 -2 66 -15 6 -8 30 10 35 16 4
16 5 -1 6 -15 1 -17 8 -13 51 2 29 0 52 -6 56 -6 4 -8 24 -5 45 5 41 -2 49
-22 25z"/>
<path d="M7634 4716 c-4 -9 -4 -31 0 -49 13 -71 13 -72 -17 -70 -21 1 -27 -2
-25 -14 3 -17 79 -43 138 -48 43 -3 150 34 150 52 0 20 -53 73 -77 76 -11 2
-38 15 -60 30 -51 35 -100 46 -109 23z"/>
<path d="M1670 4603 c-41 -15 -82 -83 -50 -83 6 0 10 -10 10 -23 0 -35 17 -47
51 -35 32 11 35 18 18 35 -16 16 -5 39 20 46 16 4 21 0 21 -16 0 -12 3 -33 7
-46 5 -20 10 -22 40 -18 25 4 49 -1 88 -20 57 -28 82 -25 132 16 22 18 22 19
5 70 -10 30 -23 51 -31 51 -8 0 -48 -16 -89 -36 -79 -39 -92 -37 -92 14 0 21
-3 23 -30 17 -37 -8 -70 2 -70 21 0 15 -5 16 -30 7z"/>
<path d="M7712 4508 c-18 -18 -14 -56 10 -105 28 -55 53 -71 77 -49 10 9 29
16 42 16 27 0 69 25 69 42 0 26 -125 108 -164 108 -12 0 -27 -5 -34 -12z"/>
<path d="M3620 4369 c0 -7 15 -27 34 -45 19 -18 36 -37 38 -42 4 -13 82 -78
119 -99 16 -10 27 -23 25 -29 -6 -16 52 -67 66 -58 7 5 9 2 6 -8 -4 -8 8 -28
28 -48 19 -18 34 -36 34 -40 0 -4 16 -15 35 -26 19 -10 35 -24 35 -30 0 -15
67 -85 113 -119 21 -15 35 -30 33 -32 -3 -3 11 -19 30 -35 24 -22 33 -36 29
-49 -5 -14 -1 -19 11 -19 12 0 14 -3 6 -12 -18 -22 -20 -164 -2 -153 6 3 10
-4 10 -17 0 -18 -2 -20 -10 -8 -12 19 -13 4 -15 -225 -1 -93 -3 -222 -4 -286
-1 -88 -5 -120 -17 -135 -15 -19 -15 -18 -11 4 4 17 1 22 -14 22 -16 0 -18 -4
-10 -17 6 -12 5 -26 -5 -45 -9 -17 -10 -28 -4 -28 5 0 10 5 10 10 0 6 5 10 11
10 5 0 7 -4 4 -10 -3 -5 1 -10 9 -10 8 0 17 8 19 18 4 15 5 15 6 -1 0 -11 -7
-21 -18 -24 -23 -6 -37 -33 -17 -33 35 0 38 -25 40 -348 2 -175 6 -325 10
-333 5 -8 -8 3 -27 25 -34 37 -37 37 -59 22 -25 -18 -58 -21 -58 -7 0 5 -15
26 -34 45 -87 93 -146 -13 -64 -116 19 -25 38 -38 53 -38 41 0 75 -73 40 -86
-8 -4 -15 -14 -15 -23 0 -12 -5 -10 -20 9 -25 33 -32 23 -14 -19 9 -21 19 -31
28 -28 9 4 21 -11 35 -45 27 -66 28 -98 1 -98 -11 0 -20 -5 -20 -11 0 -12 20
-52 30 -59 4 -3 14 -19 23 -35 11 -22 12 -36 5 -49 -9 -17 -14 -15 -48 23 -21
22 -42 41 -48 41 -5 0 -17 -12 -27 -26 -20 -30 -11 -58 38 -126 22 -31 26 -43
17 -46 -24 -8 -60 -50 -60 -70 0 -21 43 -90 69 -109 22 -17 46 -16 81 2 34 17
39 49 15 81 -8 10 -15 25 -15 33 0 14 -33 59 -75 103 -30 30 -38 80 -15 85 9
2 32 -18 54 -48 l39 -52 13 39 c13 36 12 43 -12 97 -23 52 -24 60 -10 70 14
11 14 18 2 56 -13 44 -12 45 18 72 l31 27 5 -146 c3 -81 3 -223 0 -317 l-5
-170 -30 -2 c-16 0 -43 -2 -60 -2 l-30 -2 34 -14 c18 -8 46 -15 62 -15 l30 0
-6 -337 c-3 -185 -8 -339 -11 -342 -3 -3 -31 -6 -62 -6 -54 0 -57 -1 -57 -24
0 -13 6 -26 13 -29 7 -2 10 2 6 12 -10 25 74 19 87 -6 15 -29 7 -134 -10 -130
-8 2 -69 5 -135 7 -90 2 -108 1 -71 -6 112 -19 167 -26 195 -24 l30 2 0 -106
c0 -146 2 -151 57 -151 l45 0 -8 43 c-5 23 -8 66 -8 95 0 28 -3 52 -7 52 -4 0
-8 49 -8 109 -1 96 1 110 19 126 19 17 20 17 20 -1 0 -14 2 -16 9 -5 6 9 11
10 15 2 11 -17 37 -13 53 6 13 17 13 17 11 -2 -3 -17 2 -19 27 -17 16 2 36 9
44 15 12 10 13 9 6 -2 -7 -12 -1 -13 31 -7 21 4 59 7 84 7 34 0 40 2 25 9 -17
7 -17 9 -3 9 9 1 21 -6 26 -14 7 -13 14 -14 37 -5 21 8 30 8 36 -1 4 -7 14 -9
25 -4 24 9 38 11 148 19 50 3 93 11 97 17 4 8 13 7 28 -3 19 -11 24 -11 34 3
7 9 33 18 60 21 32 4 54 13 66 27 14 16 21 18 24 9 4 -10 6 -10 6 0 1 15 41
17 41 2 0 -13 73 -2 78 12 2 5 19 6 38 2 26 -5 35 -2 40 10 3 9 15 16 25 16
11 0 19 7 19 16 0 14 -8 16 -52 10 -29 -4 -71 -13 -94 -21 -22 -7 -62 -16 -89
-19 -26 -3 -53 -10 -59 -14 -6 -5 -40 -10 -76 -11 -36 -1 -66 -6 -68 -11 -2
-6 -36 -10 -75 -10 -40 0 -103 -5 -142 -11 -78 -11 -168 -18 -330 -24 -60 -3
-125 -6 -143 -8 -38 -4 -59 21 -44 50 7 13 8 118 2 118 0 0 -2 115 -4 256 l-3
257 48 9 c26 6 62 8 81 6 71 -8 283 0 311 12 9 4 25 4 34 1 9 -4 19 -3 22 2 3
5 34 11 69 14 58 4 62 3 56 -15 -5 -16 -3 -19 11 -14 9 4 19 7 21 7 3 0 2 4
-1 10 -3 5 -1 19 6 31 11 21 9 21 -22 15 -45 -8 -162 -20 -314 -31 -111 -9
-288 -13 -313 -8 -21 5 -22 7 -7 23 9 10 12 21 7 24 -6 3 -10 33 -11 67 0 33
-3 64 -6 70 -4 5 -3 15 2 22 10 15 12 367 3 367 -4 0 -5 11 -2 25 3 17 0 25
-9 25 -10 1 -10 3 2 10 12 7 15 20 11 57 -2 26 -8 54 -12 62 -4 8 -4 22 0 30
18 37 31 94 30 128 -1 21 -3 59 -4 85 0 25 -4 44 -8 41 -11 -6 -10 5 4 43 9
27 9 38 -2 58 -9 18 -10 29 -3 38 6 7 10 65 11 128 0 63 0 144 0 180 1 73 1
71 1 230 -1 63 0 126 1 140 3 31 2 69 -3 185 -2 50 -1 115 3 145 4 30 6 58 3
62 -2 4 -6 45 -8 90 -3 50 -10 85 -17 90 -9 5 -8 8 5 8 9 0 17 7 17 16 0 11
-6 14 -17 10 -16 -5 -16 -5 -2 6 8 7 19 22 23 33 7 18 8 19 17 3 5 -10 70 -78
143 -151 74 -74 137 -144 140 -155 8 -26 50 -39 153 -48 98 -9 154 7 190 55
63 81 74 104 79 158 5 49 3 54 -13 51 -18 -3 -33 -29 -53 -92 -16 -52 -69
-122 -102 -136 -29 -13 -118 -5 -118 10 0 4 -19 11 -42 15 -37 7 -57 22 -152
116 -61 60 -114 109 -119 109 -12 0 -46 42 -47 57 0 7 -11 15 -25 19 -14 3
-25 11 -25 16 0 5 -8 20 -19 33 -15 20 -17 32 -10 77 5 29 6 83 2 121 -5 56
-9 67 -24 67 -16 0 -19 -9 -20 -57 -2 -89 2 -128 12 -131 11 -5 -8 -42 -22
-42 -6 0 -7 4 -4 10 3 5 -9 25 -27 44 -18 18 -59 61 -91 95 -32 33 -64 61 -71
61 -8 0 -16 7 -20 15 -3 8 -11 14 -18 13 -7 -2 -12 3 -10 11 4 19 -49 73 -65
67 -7 -3 -12 -1 -10 4 4 16 -34 64 -78 99 -24 19 -41 39 -39 45 2 6 -9 20 -26
29 -17 10 -56 43 -87 73 -57 54 -73 64 -73 43z"/>
<path d="M5604 3588 c10 -16 22 -28 27 -28 5 0 14 -12 19 -26 6 -14 14 -23 19
-19 5 3 12 -4 16 -15 3 -11 10 -20 15 -20 4 0 6 -8 3 -18 -5 -19 40 -80 89
-120 36 -30 35 -24 -2 23 -64 80 -24 49 116 -91 87 -88 141 -149 135 -154 -17
-10 69 -86 97 -86 25 0 28 11 8 32 -17 16 -30 19 -21 4 3 -6 -1 -7 -10 -4 -8
4 -15 11 -14 18 3 23 -1 36 -12 36 -6 0 -8 -7 -5 -16 3 -9 2 -12 -5 -9 -6 4
-8 13 -5 20 6 16 -112 146 -159 175 -19 12 -35 26 -35 31 0 10 -237 251 -274
279 -19 15 -19 14 -2 -12z"/>
<path d="M7426 2904 c-3 -8 -10 -13 -15 -10 -5 3 -11 -4 -14 -15 -3 -13 6 -41
24 -72 16 -29 33 -58 37 -65 4 -7 20 -21 35 -30 28 -17 29 -17 52 12 38 48 44
126 9 126 -8 0 -17 7 -20 15 -7 18 -65 55 -87 55 -8 0 -18 -7 -21 -16z"/>
<path d="M7276 2728 c-21 -101 -19 -113 24 -158 23 -24 53 -58 67 -77 47 -61
103 -74 103 -23 0 14 -47 69 -104 120 -26 22 -51 68 -43 76 2 2 24 -9 48 -25
47 -31 122 -56 145 -47 18 7 18 50 1 65 -8 6 -42 22 -78 35 -35 13 -77 31 -94
40 -42 22 -64 20 -69 -6z"/>
<path d="M3793 2015 c-10 -29 4 -99 36 -176 29 -69 67 -126 77 -116 2 2 8 26
13 53 11 56 -6 225 -23 236 -24 17 -28 4 -22 -89 8 -117 -4 -149 -31 -88 -11
27 -17 66 -18 118 0 56 -4 77 -13 77 -7 0 -15 -7 -19 -15z"/>
<path d="M6630 2006 c0 -13 9 -33 20 -46 11 -13 20 -27 20 -31 0 -4 9 -10 20
-14 15 -5 17 -11 11 -28 -11 -32 -6 -176 7 -189 14 -14 98 18 117 45 13 19 15
18 60 -24 48 -45 83 -65 94 -53 3 4 0 9 -6 11 -7 3 -13 9 -13 13 0 5 -9 20
-21 32 -11 13 -38 43 -61 68 -22 25 -52 61 -67 80 -14 19 -32 39 -40 44 -7 4
-32 27 -55 49 -22 23 -51 47 -63 54 -21 11 -23 10 -23 -11z"/>
<path d="M6556 1775 c-6 -18 -36 -20 -36 -3 0 6 -3 8 -6 5 -10 -9 16 -38 28
-31 5 4 8 -12 6 -38 -3 -46 -7 -48 -77 -37 -20 3 -26 -2 -34 -27 -7 -25 -5
-36 8 -51 27 -32 100 -8 117 37 l10 25 18 -35 c10 -19 32 -48 49 -64 l31 -30
25 24 c30 28 35 75 7 66 -22 -7 -70 54 -102 128 -20 47 -34 57 -44 31z"/>
<path d="M2210 1641 c8 -5 12 -13 8 -16 -3 -4 5 -33 18 -65 13 -33 24 -61 24
-64 0 -2 -15 -9 -32 -16 -52 -19 -83 -34 -90 -44 -8 -12 56 -72 86 -80 15 -4
28 0 36 9 7 9 29 15 52 15 l39 0 -6 53 c-6 50 -6 53 24 70 43 25 39 39 -8 31
-38 -6 -40 -5 -67 37 -34 55 -44 65 -74 73 -19 5 -21 5 -10 -3z"/>
<path d="M2045 1579 c-37 -58 -24 -69 76 -69 76 0 79 1 85 26 11 41 -9 70 -53
77 -72 12 -81 9 -108 -34z"/>
<path d="M2830 1581 c0 -12 42 -41 95 -65 71 -33 113 -56 143 -77 25 -18 24
-41 -5 -109 -17 -41 -24 -59 -49 -120 -18 -45 -35 -87 -81 -190 -13 -30 -28
-64 -33 -75 -5 -11 -16 -43 -25 -72 -25 -81 -32 -82 -128 -34 -45 23 -86 41
-91 41 -5 0 -31 14 -59 31 l-50 30 7 -25 c5 -19 3 -26 -9 -26 -8 0 -15 5 -15
11 0 5 -13 15 -30 20 -16 6 -30 15 -30 20 0 5 -4 9 -10 9 -14 0 1 -33 23 -49
43 -31 283 -151 303 -151 23 0 28 -26 14 -76 -8 -29 -20 -48 -33 -53 -19 -7
-19 -8 -3 -14 11 -4 16 -13 12 -22 -3 -8 -1 -17 5 -20 5 -4 7 -11 4 -16 -11
-17 4 -9 28 15 14 14 21 29 17 36 -4 7 2 34 13 61 19 44 23 48 46 42 14 -3 36
-13 49 -21 12 -8 30 -16 40 -17 45 -4 142 -30 142 -37 0 -5 9 -4 19 2 29 15
38 12 15 -5 -18 -13 -17 -14 17 -15 25 0 39 -5 43 -16 4 -10 14 -14 25 -11 10
2 26 0 36 -6 32 -18 84 -26 79 -12 -3 6 2 12 11 12 8 0 15 -4 15 -9 0 -20 2
-23 21 -30 15 -6 18 -14 14 -39 l-6 -31 30 30 c24 23 38 29 67 28 20 -1 42 -9
48 -17 14 -19 54 -30 62 -18 3 5 10 9 15 9 6 0 7 -4 4 -10 -3 -5 -2 -10 4 -10
5 0 13 5 17 11 10 16 64 2 91 -23 14 -13 23 -17 23 -9 0 9 8 11 28 6 15 -4 38
-9 51 -11 14 -3 28 -7 33 -10 4 -3 11 2 14 11 6 13 8 14 15 3 6 -9 9 -10 9 -1
0 7 7 10 15 7 8 -4 15 -12 15 -19 0 -15 35 -29 49 -20 6 3 7 13 4 22 -6 15 -5
16 9 3 9 -8 13 -19 10 -24 -3 -5 2 -6 12 -3 10 4 20 7 22 7 15 0 -1 19 -23 28
-33 13 -213 35 -221 27 -3 -2 -11 0 -18 5 -6 6 -36 13 -65 16 -46 4 -95 15
-229 52 -32 9 -37 41 -15 98 9 24 13 49 9 55 -4 8 -3 9 4 5 7 -4 13 0 13 11 4
55 8 72 23 113 9 25 19 71 22 103 4 31 10 57 14 57 4 0 10 12 13 28 34 189 39
204 61 198 19 -6 40 -10 156 -31 33 -6 34 -5 16 9 -11 9 -35 19 -54 22 -19 4
-47 13 -61 20 -14 8 -38 14 -53 14 -16 0 -28 5 -28 11 0 7 -12 9 -35 5 -19 -4
-35 -3 -35 2 0 12 -46 32 -74 32 -13 0 -50 13 -82 29 -33 15 -84 36 -114 46
-30 10 -77 28 -105 40 -27 12 -86 37 -130 56 -44 18 -96 43 -115 55 -19 11
-45 24 -57 28 -13 4 -23 12 -23 17 0 5 -4 9 -10 9 -5 0 -10 -4 -10 -9z m426
-222 c27 -13 60 -31 73 -41 15 -12 32 -16 48 -12 14 4 28 2 32 -4 3 -6 20 -13
35 -16 16 -3 54 -10 84 -17 61 -12 59 -2 24 -129 -11 -41 -26 -111 -32 -154
-15 -103 -16 -103 -62 -127 -41 -21 -78 -18 -78 6 0 17 44 52 88 71 19 7 32
19 30 25 -4 13 -69 39 -117 46 -19 3 -44 17 -55 30 -41 47 -184 39 -188 -11
-6 -89 -3 -109 20 -144 11 -16 68 6 97 39 29 32 79 51 107 40 13 -5 32 -12 42
-16 16 -5 9 -13 -42 -46 -65 -42 -75 -61 -43 -79 32 -17 83 -11 127 14 27 15
47 21 55 15 8 -5 9 -9 4 -9 -6 0 -19 -37 -28 -82 -10 -46 -21 -94 -24 -108 -4
-14 -6 -28 -5 -31 1 -4 -8 -15 -19 -25 -15 -13 -22 -15 -31 -6 -7 7 -21 12
-32 12 -21 0 -208 56 -238 71 -10 5 -26 9 -37 9 -10 0 -24 6 -30 14 -6 7 -45
26 -86 42 -51 19 -75 34 -75 45 0 25 22 83 36 94 6 6 15 31 19 58 3 26 10 47
16 47 5 0 9 7 9 17 0 9 13 43 28 77 16 34 37 86 47 116 11 30 24 62 30 70 7 8
18 31 25 50 33 90 31 88 66 80 17 -4 53 -18 80 -31z"/>
<path d="M5900 1555 c-36 -19 -73 -34 -82 -35 -10 0 -18 -4 -18 -8 0 -10 -141
-82 -160 -82 -16 0 -143 -61 -151 -73 -4 -5 -11 -7 -16 -4 -5 3 -15 2 -23 -4
-11 -6 -6 -9 17 -9 17 0 34 4 37 9 3 4 27 11 54 15 27 3 63 17 80 30 18 13 54
31 80 41 26 10 54 24 63 32 15 12 17 10 22 -23 6 -38 32 -74 53 -74 18 0 12
61 -8 82 -17 17 -15 48 2 48 10 0 130 79 130 85 0 10 -17 4 -80 -30z"/>
<path d="M6225 1520 c-4 -6 -8 -42 -11 -81 -2 -39 -6 -75 -9 -80 -4 -5 -3 -18
0 -29 6 -17 12 -20 41 -14 22 4 34 2 34 -5 0 -6 -8 -11 -17 -12 -10 0 -27 -2
-38 -5 -41 -8 -65 5 -65 35 0 15 -3 50 -6 76 -7 46 -8 47 -37 41 -59 -12 -77
-32 -77 -84 0 -26 -4 -64 -9 -85 -8 -31 -6 -39 9 -47 10 -6 30 -10 44 -10 l26
0 -3 -81 c-2 -44 1 -83 5 -85 4 -3 8 5 9 18 1 21 3 42 12 88 6 38 27 58 69 64
31 5 52 17 80 47 21 22 38 47 38 55 0 8 9 24 20 36 44 48 14 121 -63 153 -43
18 -44 18 -52 5z"/>
<path d="M2935 1380 c-3 -5 -16 -10 -29 -10 -12 0 -43 -13 -69 -30 -54 -34
-65 -36 -93 -15 -22 17 -125 20 -154 5 -16 -8 -18 -20 -14 -96 2 -47 6 -90 9
-94 12 -20 47 -4 60 25 7 19 27 38 48 49 35 16 37 16 57 -4 11 -11 27 -20 35
-20 27 0 16 -21 -19 -35 -19 -8 -38 -20 -41 -25 -4 -6 -18 -15 -31 -20 -30
-12 -31 -36 -1 -46 12 -4 46 -18 75 -31 66 -30 99 -22 124 28 30 59 78 162 78
166 0 1 -7 3 -15 3 -8 0 -15 -6 -15 -14 0 -7 -10 -24 -23 -38 -13 -14 -33 -46
-46 -72 l-22 -47 -27 19 c-15 11 -33 17 -39 15 -7 -3 -13 3 -13 12 0 9 26 32
60 53 33 20 58 41 57 47 -2 5 -18 13 -35 17 -57 15 -41 54 47 117 34 25 61 46
61 48 0 7 -19 2 -25 -7z"/>
<path d="M5229 1335 c-1 -5 -1 -18 0 -27 3 -26 -37 -42 -174 -69 -27 -6 -57
-17 -65 -25 -12 -12 -8 -14 37 -14 29 0 54 4 57 9 5 8 71 25 101 26 6 0 13 4
16 9 11 14 49 -4 49 -24 0 -10 6 -32 13 -49 18 -42 39 -23 26 22 -17 61 -13
73 40 96 27 11 56 21 64 21 8 0 20 7 27 15 14 17 1 20 -28 6 -9 -4 -39 -16
-66 -25 l-50 -16 -23 27 c-12 16 -23 24 -24 18z"/>
<path d="M5742 1181 c-42 -52 -86 -145 -79 -165 10 -24 90 -21 137 5 56 32 67
58 46 111 -17 41 -52 88 -66 88 -4 0 -21 -17 -38 -39z"/>
<path d="M5538 1181 c-63 -13 -126 -111 -113 -177 3 -19 9 -34 13 -34 18 0 31
25 26 50 -3 14 1 43 10 63 12 31 20 37 45 37 40 0 47 -25 22 -89 l-19 -51 34
-15 c19 -8 38 -24 43 -37 11 -29 3 -86 -17 -116 -8 -12 -13 -25 -10 -27 8 -8
47 35 67 73 43 86 35 152 -21 171 -30 10 -30 12 -23 53 18 106 14 113 -57 99z"/>
<path d="M5211 978 c-53 -55 -92 -108 -87 -117 6 -10 -16 -21 -42 -21 -13 0
-10 6 10 25 24 22 47 72 37 78 -2 1 -18 12 -36 25 -40 28 -42 28 -88 -4 -21
-14 -43 -23 -50 -20 -23 9 -38 -10 -26 -33 9 -16 8 -27 -4 -51 -9 -17 -13 -35
-10 -39 8 -14 55 12 53 29 -2 12 15 53 27 68 4 5 65 -27 65 -34 0 -10 -43 -68
-67 -91 -22 -21 -31 -53 -15 -53 4 0 17 7 29 15 12 8 43 18 70 21 26 4 55 13
64 21 12 10 23 11 43 3 40 -15 64 -12 83 9 9 11 20 18 24 15 5 -2 16 10 25 27
15 29 15 34 -2 71 -16 36 -56 78 -74 78 -4 0 -17 -10 -29 -22z"/>
<path d="M4364 913 c-10 -23 -16 -62 -15 -88 1 -11 3 -68 4 -128 3 -113 13
-141 42 -117 10 8 15 30 15 64 0 71 9 99 26 85 7 -6 17 -8 22 -5 6 3 24 1 42
-5 46 -16 94 8 109 54 11 32 9 39 -20 81 -26 37 -37 45 -53 40 -33 -10 -73
-53 -80 -85 -5 -28 -27 -59 -40 -59 -3 0 -4 21 -1 48 7 73 -4 132 -25 132 -10
0 -21 -8 -26 -17z"/>
<path d="M4092 877 c-25 -11 -27 -18 -42 -130 -13 -100 -13 -97 8 -97 18 0 62
49 62 69 0 5 5 11 12 13 7 3 9 11 4 24 -5 10 -8 42 -7 70 3 58 -4 66 -37 51z"/>
<path d="M3873 868 c-34 -11 -51 -41 -35 -61 5 -7 12 -24 16 -39 9 -37 34 -60
58 -52 11 3 38 24 59 45 21 21 44 39 49 39 6 0 10 11 10 25 0 18 -6 26 -25 30
-14 3 -36 7 -49 10 -13 3 -30 7 -38 9 -7 2 -28 -1 -45 -6z"/>
</g>
</svg>