 <?xml version="1.0" standalone="no"?>
<!DOCTYPE svg PUBLIC "-//W3C//DTD SVG 20010904//EN"
 "http://www.w3.org/TR/2001/REC-SVG-20010904/DTD/svg10.dtd">
<svg version="1.0" xmlns="http://www.w3.org/2000/svg"
 width="992.000000pt" height="927.000000pt" viewBox="0 0 992.000000 927.000000"
 preserveAspectRatio="xMidYMid meet">
<metadata>
Created by potrace 1.16, written by Peter Selinger 2001-2019
</metadata>
<g transform="translate(0.000000,927.000000) scale(0.100000,-0.100000)"
fill="#000000" stroke="none">
<path d="M4512 9071 c-7 -15 -10 -36 -6 -45 7 -19 17 -18 -168 -16 -101 1
-148 -2 -148 -9 0 -8 -11 -7 -32 2 -34 14 -58 13 -213 -12 -38 -7 -79 -10 -90
-7 -11 3 -38 -1 -60 -8 l-40 -14 -17 36 c-10 21 -17 29 -18 20 0 -30 -22 -67
-39 -66 -9 0 -67 -10 -129 -21 -63 -12 -135 -24 -160 -26 -26 -3 -65 -10 -87
-15 -22 -6 -71 -19 -110 -27 -38 -9 -74 -23 -78 -30 -4 -7 -19 -13 -32 -13
-34 0 -155 -41 -155 -52 0 -5 -9 -7 -19 -3 -13 4 -24 -1 -35 -16 -11 -16 -21
-20 -38 -16 -22 6 -95 -22 -128 -49 -8 -7 -38 -18 -65 -25 -28 -7 -63 -25 -80
-39 -44 -39 -82 -60 -106 -60 -12 0 -29 -8 -38 -18 -9 -11 -27 -22 -41 -25
-14 -4 -47 -22 -75 -42 -27 -19 -58 -38 -67 -41 -10 -4 -18 -10 -18 -14 0 -4
-15 -11 -32 -14 -18 -3 -49 -20 -68 -37 -19 -18 -50 -38 -68 -46 -18 -7 -41
-21 -52 -31 -36 -33 -49 -42 -60 -42 -6 0 -13 -7 -16 -15 -4 -8 -11 -15 -18
-15 -6 0 -23 -11 -38 -25 -15 -14 -31 -25 -36 -25 -6 0 -12 -6 -15 -14 -3 -8
-22 -20 -41 -27 -20 -7 -36 -19 -36 -26 0 -8 -11 -18 -24 -22 -13 -5 -26 -17
-29 -25 -4 -9 -15 -20 -24 -24 -40 -16 -123 -75 -123 -86 0 -7 -18 -25 -40
-42 -22 -16 -40 -35 -40 -41 0 -26 -31 -12 -51 22 -12 20 -29 35 -40 35 -25 0
-24 -4 11 -62 34 -55 35 -58 17 -58 -7 0 -27 -19 -45 -41 -17 -23 -42 -47 -54
-53 -12 -6 -28 -22 -34 -34 -6 -13 -21 -30 -33 -38 -11 -8 -21 -20 -21 -26 0
-6 -22 -33 -50 -59 -28 -26 -50 -55 -50 -63 0 -9 -4 -16 -10 -16 -5 0 -23 -20
-40 -45 -17 -25 -43 -57 -57 -73 -14 -15 -40 -51 -59 -79 -19 -29 -38 -53 -44
-53 -5 0 -10 -5 -10 -11 0 -6 -10 -24 -23 -39 -46 -58 -57 -74 -57 -85 0 -5
-11 -22 -24 -36 -13 -14 -31 -41 -40 -61 -9 -19 -25 -44 -34 -54 -9 -11 -34
-53 -55 -94 -20 -41 -54 -104 -74 -140 -52 -94 -74 -138 -94 -195 -9 -27 -24
-51 -31 -53 -8 -1 -20 -26 -27 -54 -8 -28 -20 -62 -27 -77 -8 -14 -14 -33 -14
-41 0 -8 -9 -33 -20 -55 -11 -22 -19 -47 -20 -56 0 -9 -9 -38 -19 -65 -23 -57
-77 -260 -97 -357 -7 -37 -16 -72 -20 -78 -3 -6 -8 -32 -10 -57 -3 -26 -9 -69
-14 -97 -5 -27 -12 -76 -15 -107 l-6 -58 -42 0 c-46 0 -127 -27 -127 -42 0 -6
14 -8 32 -4 18 4 54 9 81 12 44 6 47 5 47 -17 l1 -24 15 25 c8 14 13 17 10 8
-3 -10 -1 -20 4 -23 6 -4 10 3 10 14 0 23 19 28 38 9 15 -15 15 -41 0 -56 -7
-7 -11 -33 -9 -62 4 -72 -6 -110 -30 -110 -10 0 -19 5 -19 10 0 18 -25 11 -40
-11 -8 -11 -32 -29 -52 -40 -73 -37 -88 -59 -88 -128 0 -60 0 -61 28 -61 15 0
42 4 60 9 28 9 32 7 32 -10 0 -11 -4 -27 -9 -37 -6 -9 -27 -52 -47 -94 -20
-43 -43 -78 -51 -78 -9 0 -13 -14 -13 -45 0 -25 4 -45 8 -45 5 0 25 17 45 38
48 49 67 65 73 59 3 -3 7 -53 9 -112 6 -174 18 -213 49 -161 7 12 8 20 1 22
-6 2 -10 43 -9 97 0 50 -2 96 -5 102 -7 14 -2 81 11 143 12 56 28 79 28 40 2
-160 18 -377 30 -396 6 -11 8 66 4 229 -4 199 -2 248 9 257 7 6 41 12 75 14
39 1 63 7 66 15 3 8 -3 13 -17 14 -12 1 -29 2 -37 3 -8 2 -32 3 -54 4 l-38 2
5 150 c5 162 0 148 70 222 34 38 34 47 -3 55 -35 7 -38 17 -26 93 39 240 36
230 63 230 13 0 21 4 18 10 -3 6 1 7 9 4 9 -3 16 -2 16 3 0 5 -13 13 -29 19
-28 11 -28 11 -18 65 5 30 16 68 23 86 8 17 14 35 14 40 0 35 136 412 156 433
12 12 18 12 45 -4 29 -17 31 -17 49 -1 19 17 18 18 -25 47 -25 17 -45 32 -45
34 0 3 7 18 15 34 9 17 13 30 10 30 -4 0 3 13 14 29 12 16 21 32 21 36 0 10
83 179 90 185 4 3 13 20 21 38 8 17 17 32 20 32 4 0 9 10 13 23 7 31 104 177
116 177 6 0 10 -4 10 -10 0 -5 8 -10 19 -10 10 0 24 -7 31 -15 7 -8 16 -12 21
-9 5 3 9 1 9 -5 0 -6 11 -13 25 -17 14 -3 25 -10 25 -15 0 -5 6 -9 14 -9 7 0
19 -7 26 -15 7 -8 20 -15 30 -15 34 0 23 -25 -88 -195 -15 -22 -27 -42 -27
-45 -2 -23 -29 -100 -34 -100 -4 0 -13 -22 -21 -50 -7 -27 -19 -51 -27 -54 -7
-3 -13 -13 -13 -22 0 -9 -8 -28 -18 -42 -10 -15 -24 -41 -31 -58 -10 -26 -16
-30 -41 -26 -18 2 -30 10 -30 19 0 10 -6 12 -21 8 -12 -4 -19 -3 -16 2 3 5
-10 13 -29 19 -26 9 -38 8 -52 -2 -15 -12 -15 -15 -2 -23 9 -6 19 -6 24 -1 5
5 15 3 23 -6 8 -8 19 -12 24 -9 5 4 9 -1 9 -9 0 -9 7 -16 15 -16 8 0 15 -5 15
-12 0 -6 7 -3 16 8 13 16 15 16 10 2 -3 -10 2 -21 12 -27 15 -8 14 -14 -10
-63 -30 -60 -94 -246 -107 -310 -5 -24 -19 -74 -30 -113 -19 -63 -35 -147 -47
-245 -2 -19 -9 -47 -15 -61 -5 -14 -12 -45 -14 -70 -9 -88 -14 -135 -24 -214
-6 -44 -13 -118 -15 -165 -3 -47 -5 -86 -5 -87 -1 -1 -11 -3 -23 -5 l-23 -3
23 -21 c22 -21 23 -29 28 -230 3 -115 9 -225 13 -244 4 -19 7 -66 7 -105 l-1
-70 -45 -7 c-44 -8 -85 -12 -183 -22 -43 -4 -47 -3 -48 17 -1 12 -1 26 0 30 2
13 -19 47 -30 47 -6 0 -7 -19 -3 -51 6 -46 5 -51 -12 -47 -13 2 -20 13 -22 33
-6 77 -44 138 -54 88 -5 -26 11 -144 32 -238 6 -27 16 -81 21 -119 5 -38 14
-77 19 -87 6 -10 10 -39 10 -66 0 -44 15 -102 32 -129 4 -6 12 -29 18 -52 5
-23 15 -61 21 -85 6 -23 11 -54 11 -69 1 -16 5 -28 10 -28 4 0 8 -4 8 -10 0
-5 14 -32 30 -58 17 -27 30 -57 30 -66 0 -16 11 -21 23 -9 4 3 3 11 -2 17 -11
14 -31 108 -25 118 3 5 11 5 17 1 7 -4 16 -8 22 -8 5 0 30 -55 55 -122 25 -68
48 -123 52 -123 8 0 0 37 -17 75 -36 79 -65 167 -65 198 0 20 -5 37 -10 39
-13 4 -92 300 -115 430 -3 17 -8 34 -10 38 -5 8 -13 49 -21 113 -7 48 -4 52
37 48 9 -1 28 3 43 8 40 16 156 32 176 26 13 -4 22 -23 30 -63 7 -31 16 -62
21 -68 5 -6 11 -28 14 -50 10 -66 55 -245 81 -317 26 -73 30 -102 14 -92 -6 4
-7 -1 -3 -11 6 -15 1 -16 -35 -10 -26 4 -42 2 -42 -4 0 -5 -9 -10 -21 -10 -11
0 -18 -4 -14 -9 3 -6 -10 -8 -32 -6 -30 4 -33 3 -13 -4 24 -8 23 -8 -13 -16
-20 -4 -37 -13 -37 -20 0 -10 10 -12 37 -8 43 7 123 41 123 53 0 4 10 8 23 7
12 0 29 3 38 7 11 5 18 -2 27 -26 23 -69 64 -175 84 -218 31 -67 34 -30 2 42
-45 107 -51 122 -62 158 -19 66 -22 84 -10 72 8 -8 16 -5 29 11 9 12 21 18 25
14 5 -4 2 -12 -6 -17 -8 -6 -10 -10 -4 -10 6 0 17 7 24 15 14 17 35 21 25 5
-3 -5 -2 -10 3 -10 10 0 136 37 162 47 8 4 17 7 20 7 3 1 10 4 15 7 6 3 30 11
55 18 77 21 162 52 170 62 3 3 28 9 55 13 62 9 101 23 141 53 17 13 34 20 38
15 4 -4 17 -7 29 -7 22 0 44 -47 93 -195 10 -30 24 -59 31 -63 7 -4 13 -19 13
-32 0 -13 5 -27 11 -30 11 -7 22 -33 33 -79 6 -26 5 -28 -8 -16 -14 11 -26 8
-79 -20 -34 -18 -65 -38 -69 -44 -4 -6 -8 -7 -8 -2 0 4 -12 0 -27 -9 -14 -10
-54 -32 -87 -50 -34 -18 -77 -41 -96 -51 -19 -11 -37 -21 -40 -24 -3 -3 -31
-18 -63 -35 -32 -16 -67 -38 -77 -48 -11 -9 -28 -17 -38 -17 -10 0 -27 -8 -38
-17 -10 -10 -32 -23 -49 -29 -16 -6 -38 -15 -47 -19 -14 -6 -22 4 -43 52 -45
103 -60 133 -67 133 -5 0 -8 9 -8 19 0 11 -5 23 -11 27 -16 10 -4 -39 22 -89
10 -21 19 -44 19 -52 0 -8 4 -15 8 -15 4 0 15 -20 24 -45 l17 -45 -42 -29
c-23 -16 -55 -41 -70 -55 -15 -14 -38 -26 -50 -26 -18 0 -19 -2 -7 -11 11 -8
8 -9 -17 -5 -20 3 -35 0 -42 -8 -7 -8 -20 -12 -31 -9 -14 4 -23 -2 -31 -20
-21 -46 -48 -13 -109 128 -5 11 -25 56 -44 99 -20 43 -36 84 -36 91 0 7 -7 18
-15 25 -8 7 -13 15 -10 19 8 15 -24 86 -40 89 -15 3 -16 -1 -11 -25 4 -15 16
-46 27 -69 10 -22 19 -48 19 -57 0 -9 4 -18 9 -21 5 -3 12 -22 15 -41 8 -42
46 -116 64 -122 6 -3 12 -15 12 -27 0 -17 -2 -18 -10 -6 -5 8 -10 11 -10 5 0
-16 14 -30 29 -30 8 0 16 -5 18 -12 3 -7 -3 -9 -18 -6 -19 5 -20 3 -14 -18 12
-37 27 -53 36 -37 4 7 12 9 16 4 4 -4 0 -14 -10 -21 -18 -13 -17 -15 15 -47
19 -18 49 -64 68 -103 19 -38 38 -72 43 -73 4 -2 7 -12 7 -22 0 -10 18 -38 40
-61 22 -24 40 -49 40 -56 0 -21 23 -63 31 -57 5 3 9 -2 9 -11 0 -9 4 -14 8
-11 4 3 16 -11 27 -30 10 -19 22 -34 27 -34 4 0 8 -7 8 -15 0 -9 6 -18 14 -21
8 -3 20 -19 26 -35 11 -27 21 -34 43 -30 5 1 6 -3 2 -9 -4 -6 14 -31 39 -57
25 -25 46 -51 46 -57 0 -7 8 -19 18 -27 22 -21 52 -58 52 -65 0 -3 18 -22 39
-43 21 -21 41 -46 43 -57 2 -10 8 -19 13 -20 23 -2 44 -17 38 -27 -3 -6 -1 -7
5 -3 7 4 12 2 12 -3 0 -6 8 -20 18 -31 26 -30 157 -161 192 -192 36 -33 36
-35 8 -65 -13 -14 -18 -27 -12 -32 12 -11 54 4 54 20 0 7 8 2 19 -9 10 -12 23
-22 29 -22 5 0 13 -7 16 -16 3 -8 10 -12 16 -9 5 3 10 -1 10 -9 0 -9 4 -16 9
-16 5 0 27 -16 48 -36 21 -20 49 -42 63 -49 14 -7 39 -25 55 -40 46 -41 97
-73 128 -80 44 -11 31 7 -42 58 -70 50 -132 107 -115 107 5 0 24 -14 43 -30
18 -17 47 -38 64 -47 18 -9 46 -31 62 -48 17 -18 45 -36 63 -40 17 -3 32 -13
32 -20 0 -8 8 -16 17 -20 10 -3 26 -17 36 -31 l19 -25 -34 14 c-19 8 -49 28
-68 46 -34 30 -50 38 -50 24 1 -18 68 -73 90 -73 5 0 10 -9 10 -19 0 -11 9
-23 22 -27 12 -3 28 -12 35 -18 32 -28 39 -32 53 -28 13 5 13 3 0 -13 -14 -17
-13 -18 2 -12 9 3 22 -1 28 -9 7 -8 9 -14 6 -14 -4 0 -1 -7 8 -15 8 -8 24 -15
35 -15 11 0 34 -12 50 -28 85 -79 102 -92 111 -87 5 3 21 -2 35 -11 14 -9 28
-14 32 -11 3 4 19 -3 35 -14 16 -12 35 -18 43 -15 8 3 17 1 20 -4 3 -5 -3 -11
-12 -13 -11 -3 -8 -5 10 -6 15 0 27 -4 27 -9 0 -4 19 -16 43 -26 23 -10 50
-25 59 -33 10 -9 24 -13 33 -9 9 3 14 2 11 -3 -5 -8 12 -29 24 -29 3 -1 19 -6
35 -13 17 -6 45 -11 63 -10 19 1 31 -2 28 -8 -9 -13 20 -21 32 -9 8 8 13 7 18
-5 3 -9 12 -17 20 -17 8 0 14 -4 14 -10 0 -5 10 -10 23 -10 13 0 42 -9 65 -20
22 -11 51 -20 62 -20 12 0 18 -4 15 -10 -3 -5 7 -12 22 -16 15 -3 34 -8 41
-10 7 -2 22 1 33 6 15 8 19 7 19 -4 0 -18 27 -29 36 -14 5 7 10 3 15 -10 5
-12 16 -22 24 -22 9 0 26 -5 38 -12 12 -6 36 -13 52 -15 73 -7 115 -15 120
-23 3 -5 25 -7 50 -5 24 2 47 0 50 -5 3 -5 19 -7 35 -3 25 4 30 2 31 -13 0
-11 3 -14 6 -6 7 17 43 15 43 -3 0 -9 9 -15 25 -15 14 0 25 4 25 10 0 5 -8 7
-17 3 -13 -4 -15 -3 -7 6 7 8 21 6 52 -9 43 -21 68 -27 42 -10 -12 8 -11 10 8
10 13 0 22 -6 22 -15 0 -21 8 -19 36 8 34 32 30 38 -23 38 -83 0 -123 4 -123
10 0 4 -15 10 -32 14 l-33 7 35 8 c19 5 37 5 40 1 8 -12 108 -21 112 -10 2 6
17 3 35 -6 17 -9 70 -21 117 -27 47 -6 86 -15 86 -20 0 -8 -73 -4 -138 8 -35
7 -62 -8 -62 -35 0 -11 3 -12 8 -4 5 8 13 9 22 3 9 -5 19 -5 26 1 7 6 21 6 38
-1 15 -5 37 -10 48 -10 11 0 27 -8 34 -17 8 -11 13 -13 14 -5 0 16 37 16 43 0
4 -10 7 -10 14 -1 7 10 15 9 35 -1 22 -12 82 -23 138 -27 9 0 17 -10 17 -21 3
-34 19 -42 41 -22 11 11 22 28 24 39 2 11 10 19 16 17 7 -1 12 4 12 11 0 8 7
14 15 14 8 0 15 -4 15 -9 0 -4 5 -8 11 -8 5 0 7 5 4 10 -3 6 -2 10 4 10 5 0
11 -4 13 -10 2 -6 18 -6 43 0 25 6 41 6 43 0 5 -15 42 -12 42 3 0 8 4 7 10 -3
7 -10 12 -12 18 -4 9 14 165 14 174 0 5 -7 8 -4 8 7 0 14 4 16 19 7 14 -7 22
-7 26 0 4 6 28 10 53 8 26 -1 53 1 60 6 12 7 76 14 172 17 14 0 29 6 33 12 6
9 10 9 13 1 5 -12 44 -7 44 5 0 15 59 30 103 26 33 -2 63 2 94 16 30 13 70 20
111 20 36 1 60 4 54 8 -6 3 8 7 30 7 22 1 43 7 47 13 4 6 22 15 39 20 25 8 32
7 32 -5 0 -8 5 -14 10 -14 6 0 10 6 8 14 -2 8 0 14 3 13 4 -1 15 5 25 14 23
19 67 32 58 17 -10 -15 47 0 66 17 9 8 35 17 58 21 26 4 42 12 42 20 0 8 7 14
15 14 8 0 15 5 15 11 0 7 -9 9 -22 5 -13 -4 -44 -11 -70 -16 -26 -5 -73 -20
-105 -33 -87 -37 -103 -40 -103 -25 0 8 37 25 93 42 50 16 112 38 137 49 59
26 77 33 126 46 23 6 72 27 110 46 37 19 72 35 77 35 6 0 47 19 94 41 46 23
86 39 89 36 7 -7 -74 -67 -90 -67 -14 0 -163 -62 -225 -93 -74 -37 -81 -41
-81 -50 0 -10 53 3 61 16 4 5 11 7 17 3 16 -9 102 16 102 30 0 7 8 10 19 7 11
-3 29 5 45 22 16 15 33 24 42 21 8 -3 17 1 20 9 4 8 16 15 28 15 15 0 17 3 8
9 -9 5 5 14 42 25 30 10 60 24 67 32 6 8 16 14 22 14 5 0 26 10 46 22 20 13
38 23 41 24 3 0 22 9 42 19 25 12 35 22 28 30 -6 7 -2 11 13 10 12 0 22 3 22
6 0 11 34 39 49 39 8 0 18 5 21 10 10 16 -28 10 -60 -10 -16 -11 -44 -26 -60
-33 -17 -8 -38 -20 -46 -28 -8 -8 -38 -27 -67 -42 -42 -23 -52 -25 -52 -12 0
8 7 18 15 21 8 4 15 12 15 19 0 7 10 12 23 12 13 0 60 24 105 52 45 28 84 51
87 51 3 0 11 5 18 10 36 30 107 77 140 92 22 10 41 27 44 38 3 13 14 20 28 20
12 0 28 7 35 15 18 22 32 18 18 -5 -7 -11 -18 -20 -24 -20 -6 0 -21 -9 -34
-20 -13 -11 -26 -20 -30 -20 -4 0 -24 -16 -44 -35 -21 -19 -43 -35 -51 -35 -7
0 -20 -12 -30 -26 -16 -24 -16 -26 1 -22 10 1 16 7 15 12 -4 12 20 26 47 26
12 0 22 4 22 10 0 5 6 7 13 4 7 -2 24 7 37 21 13 14 28 25 34 25 6 0 26 15 45
32 26 24 42 32 64 29 26 -2 28 -1 18 18 -19 34 -12 46 34 65 25 11 45 23 45
28 0 5 6 8 12 6 7 -3 18 0 25 6 42 35 90 79 103 94 34 37 112 107 121 108 5 1
14 2 19 3 6 0 10 8 10 16 0 9 12 20 26 25 14 6 23 14 20 18 -2 4 3 13 13 19
13 8 26 5 59 -18 24 -16 45 -29 48 -29 4 0 19 -11 36 -25 16 -14 35 -25 41
-25 8 0 8 3 2 8 -5 4 -16 18 -23 31 -11 19 -11 25 -2 31 10 6 6 23 -15 69 -16
34 -32 61 -37 61 -4 0 -8 5 -8 11 0 6 7 9 15 5 11 -4 15 1 15 17 0 25 48 75
90 95 14 6 40 11 58 10 43 -1 50 7 25 35 -28 31 -36 57 -18 57 8 0 15 6 15 13
0 7 13 29 30 47 16 18 30 39 30 46 0 8 6 11 15 8 11 -4 13 -2 10 9 -4 8 0 21
7 28 7 8 24 30 37 50 14 20 30 35 37 32 8 -3 14 7 16 29 2 21 8 32 16 30 14
-3 51 35 52 53 0 5 12 33 27 62 24 49 39 60 76 54 14 -2 7 27 -8 33 -22 8 -9
53 27 91 15 16 28 37 28 46 0 8 11 26 25 39 14 13 25 31 25 41 0 19 60 142 72
147 4 2 8 10 8 18 0 8 9 34 21 57 11 23 29 68 39 100 11 32 26 73 35 91 14 30
20 33 50 29 41 -4 45 7 10 33 -16 12 -23 25 -19 34 22 54 56 158 59 182 2 16
13 48 23 71 20 42 33 91 37 137 1 14 6 41 10 60 15 68 -5 22 -29 -66 -46 -168
-64 -229 -77 -259 -7 -16 -20 -50 -29 -75 -18 -50 -50 -68 -50 -28 0 36 30
119 41 112 5 -3 9 9 9 25 0 21 5 31 15 31 9 0 15 9 15 23 0 12 7 33 16 46 13
18 14 25 4 31 -17 11 -4 80 15 80 17 0 17 -3 19 73 1 31 8 63 14 69 7 7 12 24
12 38 0 14 7 36 16 48 16 24 36 30 29 10 -12 -32 -22 -108 -14 -108 5 0 9 9 9
20 0 11 9 29 20 40 15 15 19 27 14 47 -5 20 -4 24 6 18 10 -6 12 0 7 27 -5 33
-4 35 20 32 25 -3 93 31 93 47 0 5 -22 6 -49 3 -39 -4 -50 -2 -55 12 -3 9 -2
22 4 29 6 7 10 26 10 41 -1 16 3 56 10 89 19 108 20 119 24 210 2 50 6 98 11
108 4 9 5 34 3 55 -3 20 -1 50 3 65 4 16 4 40 -2 54 -9 24 -8 25 17 19 15 -4
51 -23 80 -42 30 -18 56 -34 59 -34 3 0 34 -18 70 -40 36 -22 69 -40 74 -40 5
0 11 -4 13 -9 2 -4 23 -20 47 -35 38 -25 49 -27 90 -20 25 4 54 9 64 10 26 2
87 21 183 55 44 16 83 29 87 29 3 0 31 11 61 25 30 14 59 25 65 25 5 0 32 10
60 23 l51 22 0 66 c0 64 -1 67 -27 74 -64 16 -353 159 -353 175 0 5 -16 18
-36 31 -33 20 -40 21 -73 10 -44 -15 -103 -38 -157 -62 -23 -10 -82 -31 -130
-48 -49 -16 -97 -32 -108 -37 -16 -6 -17 -5 -6 15 15 30 7 36 -32 25 -21 -6
-38 -20 -46 -38 -10 -19 -19 -26 -30 -21 -8 3 -18 1 -22 -5 -3 -5 -6 27 -6 72
1 46 -3 130 -7 188 -4 58 -8 114 -8 125 -1 11 -10 67 -20 124 -11 57 -17 106
-15 109 3 2 -1 19 -8 37 -8 18 -11 44 -9 59 3 14 0 32 -6 40 -6 7 -14 34 -17
60 -4 26 -10 49 -15 52 -4 2 -6 11 -2 19 3 9 -2 26 -10 39 -9 13 -19 43 -22
67 -3 24 -9 61 -12 82 -3 20 -9 37 -13 37 -4 0 -11 20 -14 45 -4 25 -11 45
-17 45 -5 0 -9 9 -9 19 0 11 -9 36 -21 55 -11 19 -18 40 -14 46 3 5 -5 38 -19
73 -13 34 -28 80 -32 102 -4 23 -17 47 -31 58 -13 10 -22 25 -21 31 2 7 -13
44 -32 81 -43 84 -52 62 -10 -28 33 -71 38 -99 16 -91 -16 6 -36 47 -36 74 0
10 -6 25 -12 32 -7 7 -14 18 -15 23 -4 19 -76 180 -83 185 -10 8 -44 100 -38
105 3 3 15 -16 29 -41 13 -25 25 -41 27 -35 5 15 -66 161 -79 161 -5 0 -9 11
-9 25 0 14 -4 25 -9 25 -18 0 -20 44 -4 63 15 16 15 19 3 28 -8 5 -25 7 -38 4
-19 -5 -25 1 -38 30 -15 36 -32 60 -71 101 -12 13 -24 33 -28 44 -3 11 -11 20
-16 20 -5 0 -9 6 -9 13 0 7 -16 30 -35 51 -19 21 -35 41 -35 45 0 4 -13 21
-30 39 -16 18 -30 40 -30 48 0 8 -4 14 -10 14 -5 0 -10 6 -10 14 0 7 -11 21
-25 30 -14 9 -25 23 -25 31 0 8 -5 15 -11 15 -15 0 -79 62 -79 76 0 6 7 17 15
24 38 32 4 53 -39 25 -21 -14 -24 -13 -54 24 -18 22 -32 44 -32 49 0 5 -31 34
-69 63 -39 30 -70 58 -70 62 -1 10 -48 57 -57 57 -3 0 -37 30 -74 68 -37 37
-76 72 -86 78 -13 8 -18 21 -16 43 2 35 -2 38 -25 16 -14 -14 -20 -12 -58 27
-23 24 -60 52 -81 63 -21 11 -47 28 -58 38 -11 9 -23 17 -27 17 -4 0 -14 3
-23 6 -9 3 -16 1 -16 -5 0 -7 8 -15 17 -18 9 -4 24 -14 33 -22 23 -22 89 -74
109 -85 20 -12 51 -46 51 -58 0 -11 0 -11 -45 12 -22 11 -44 20 -50 20 -6 0
-16 14 -22 31 -7 17 -16 28 -22 25 -5 -4 -15 3 -21 14 -6 11 -15 20 -21 20 -5
0 -33 18 -62 39 -29 22 -71 47 -94 56 -24 10 -43 21 -43 26 0 5 -15 15 -34 23
-18 8 -37 19 -40 25 -4 6 -16 11 -27 11 -23 0 -24 9 -4 36 8 10 15 32 15 48 0
24 -3 27 -21 23 -12 -3 -32 -2 -45 3 -27 11 -32 3 -9 -14 12 -9 12 -14 1 -28
-12 -16 -26 -11 -177 65 -90 46 -171 87 -179 92 -8 5 -20 10 -26 11 -14 2 -75
29 -134 58 -25 13 -57 26 -71 29 -14 4 -51 18 -81 32 -46 21 -55 29 -51 45 3
11 10 20 15 20 6 0 5 7 -2 15 -17 20 -32 19 -59 -6 -22 -21 -29 -21 -105 -5
-16 4 -56 18 -89 31 -33 14 -69 25 -79 25 -11 0 -26 7 -34 15 -9 9 -34 15 -60
15 -25 0 -57 6 -73 14 -15 8 -49 17 -75 20 -59 7 -65 11 -59 35 7 28 27 32 67
16 20 -8 43 -15 53 -15 16 1 16 2 -2 13 -24 14 -101 38 -135 41 -14 2 -32 5
-40 8 -33 13 -188 42 -231 44 -26 1 -52 4 -58 8 -5 4 -25 6 -43 4 -19 -1 -39
2 -46 6 -15 9 -68 15 -173 20 -144 7 -199 16 -200 34 -1 10 -2 22 -4 27 -1 6
-3 20 -3 33 -3 31 -25 28 -40 -7z m228 -112 c140 -16 382 -49 485 -66 59 -11
59 -11 77 -12 9 -1 15 -8 14 -18 -4 -24 -38 -25 -110 -2 -32 11 -68 19 -80 19
-11 0 -52 6 -91 14 -66 14 -106 19 -250 32 -32 3 -64 8 -69 12 -11 6 -20 7
-103 10 -29 1 -53 5 -53 10 0 11 84 11 180 1z m-238 -66 c2 -5 1 -69 -2 -143
l-5 -135 -88 -1 c-49 -1 -93 -6 -98 -11 -5 -5 31 -8 86 -6 52 2 96 0 96 -4 12
-65 6 -123 -14 -123 -6 0 -25 -7 -42 -16 -27 -14 -31 -14 -41 0 -11 16 -64 19
-64 3 0 -4 -4 -5 -10 -2 -25 16 -128 13 -185 -4 -35 -11 -62 -15 -66 -9 -7 11
-113 0 -117 -13 -4 -11 -72 -12 -88 -1 -7 4 -14 32 -17 64 l-5 56 62 7 c33 3
84 10 111 15 28 5 63 8 78 6 15 -2 49 1 75 6 26 5 61 10 77 10 l30 0 -25 10
c-29 12 -149 15 -309 8 l-114 -5 -18 85 c-11 47 -22 103 -25 125 l-6 41 73 12
c41 7 124 15 184 18 61 4 112 8 114 10 8 8 350 4 353 -3z m213 -8 c119 -5 273
-25 400 -50 44 -9 101 -20 127 -24 26 -4 50 -10 53 -13 4 -3 1 -30 -5 -59 -6
-30 -17 -86 -24 -125 -7 -38 -16 -76 -21 -84 -4 -7 -10 -33 -12 -58 -6 -74
-46 -127 -68 -91 -4 6 -12 8 -19 6 -6 -3 -43 1 -81 9 -39 7 -92 16 -120 19
-27 4 -54 9 -59 13 -15 9 -79 2 -91 -9 -5 -6 -2 -9 10 -9 25 -1 154 -17 180
-23 11 -3 40 -8 65 -11 25 -4 68 -12 97 -18 50 -11 51 -12 55 -49 2 -22 0 -39
-4 -39 -5 0 -6 -11 -2 -25 4 -15 2 -25 -5 -25 -13 0 -34 -77 -28 -107 2 -13 1
-23 -4 -23 -11 0 -32 -107 -23 -121 4 -7 3 -9 -3 -6 -6 4 -15 -18 -22 -51 -7
-31 -18 -77 -24 -102 -6 -25 -12 -49 -12 -55 -2 -27 -18 -75 -25 -75 -11 0
-21 -43 -11 -53 10 -10 61 35 61 55 0 9 5 18 12 20 7 3 12 24 13 51 0 26 3 47
6 47 8 0 18 66 22 138 2 48 4 52 23 48 12 -3 32 2 45 12 51 36 66 42 84 28 27
-20 14 -49 -32 -71 -24 -11 -43 -23 -43 -26 0 -4 16 -10 35 -13 19 -4 46 -13
61 -21 14 -7 32 -11 39 -8 8 2 25 -3 39 -12 30 -20 110 -22 132 -4 11 9 14 30
12 83 -3 64 -5 71 -24 74 -12 2 -28 -3 -35 -10 -8 -8 -35 -29 -61 -46 -41 -28
-51 -31 -70 -21 -22 12 -22 12 11 41 36 32 35 57 -3 78 -30 15 -81 1 -143 -41
-36 -25 -42 -26 -47 -12 -4 9 -3 19 2 22 13 8 22 53 27 135 2 38 8 72 12 75 5
3 15 24 22 47 12 37 16 41 42 38 17 -2 37 -8 47 -12 19 -10 82 -23 82 -18 0
23 -17 36 -45 36 -43 0 -92 18 -99 37 -7 18 12 95 26 104 5 3 28 2 51 -2 23
-4 53 -8 67 -8 45 -1 0 17 -62 24 -38 5 -58 11 -58 20 0 8 4 16 9 19 4 3 11
27 14 53 6 53 39 179 50 189 5 6 41 -1 187 -36 19 -5 58 -16 85 -25 28 -9 81
-25 120 -36 38 -11 74 -24 80 -29 5 -4 25 -11 43 -15 39 -8 42 -29 9 -88 -13
-23 -31 -69 -41 -102 -10 -33 -26 -78 -36 -100 -10 -22 -21 -53 -25 -70 -8
-42 -33 -74 -44 -57 -4 7 -12 12 -17 10 -5 -2 -10 2 -11 7 -3 16 -133 44 -133
29 0 -8 80 -42 138 -59 21 -6 23 -11 17 -43 -4 -21 -11 -41 -16 -46 -5 -6 -9
-20 -9 -32 0 -13 -4 -25 -10 -29 -5 -3 -7 -12 -3 -20 3 -8 0 -15 -7 -15 -7 0
-10 -7 -6 -15 3 -8 1 -15 -4 -15 -10 0 -37 -56 -50 -105 -14 -51 -52 -148 -77
-194 -13 -24 -28 -62 -34 -84 -6 -22 -18 -41 -28 -44 -22 -6 -24 -70 -1 -65 8
2 20 12 27 22 8 11 20 25 27 33 8 7 15 22 18 32 2 13 21 26 53 37 112 41 165
67 219 106 42 31 46 37 32 47 -22 16 -21 18 19 39 19 11 35 23 35 28 0 4 6 8
14 8 32 0 28 24 -9 57 -47 42 -82 43 -138 2 -64 -47 -75 -76 -23 -63 16 4 25
12 24 21 -2 9 5 20 14 26 14 9 22 6 43 -13 14 -13 25 -29 25 -36 0 -6 -25 -22
-55 -34 -52 -21 -70 -43 -42 -53 23 -8 -40 -61 -108 -91 -36 -16 -68 -26 -70
-24 -3 3 1 26 9 51 13 44 12 51 -7 48 -5 -1 -6 3 -2 8 3 6 12 8 19 5 9 -3 18
7 25 27 14 41 14 52 -1 43 -7 -4 -8 -3 -4 4 4 7 13 12 20 12 8 0 17 16 20 35
4 19 11 35 15 35 5 0 12 17 17 38 4 20 8 39 9 42 0 3 9 21 20 40 10 19 18 41
17 48 -2 6 2 12 8 12 6 0 10 6 9 13 -5 26 21 68 39 64 9 -3 38 -10 65 -17 26
-7 50 -17 53 -21 6 -11 34 -12 34 -1 0 4 -33 22 -73 41 -39 19 -74 36 -75 37
-6 4 18 73 44 131 13 28 24 60 24 71 0 10 11 29 25 42 14 13 25 33 25 46 0 12
7 27 15 34 8 7 15 20 15 29 0 32 17 46 42 34 13 -6 37 -16 53 -23 17 -6 53
-22 80 -35 28 -13 73 -32 100 -41 28 -10 59 -23 70 -30 11 -6 41 -19 68 -29
26 -10 47 -22 47 -26 0 -5 8 -9 19 -9 10 0 35 -11 55 -25 20 -14 39 -25 42
-25 9 0 78 -33 84 -40 3 -3 17 -11 33 -17 31 -14 34 -25 12 -43 -8 -7 -15 -18
-15 -25 0 -8 -16 -34 -35 -59 -19 -25 -43 -63 -55 -85 -11 -23 -26 -41 -32
-41 -18 0 -88 33 -88 42 0 4 -8 8 -18 8 -10 0 -27 7 -38 15 -29 20 -39 7 -11
-15 33 -26 88 -52 95 -46 8 8 42 -24 42 -40 0 -7 -4 -14 -8 -16 -5 -1 -19 -19
-33 -39 -20 -31 -28 -35 -47 -28 -12 5 -22 13 -22 18 0 5 -35 24 -77 41 -43
18 -80 35 -83 39 -10 12 -98 53 -121 55 -14 2 -46 15 -73 30 -46 25 -76 28
-76 7 0 -5 11 -12 25 -15 25 -6 229 -105 330 -160 27 -14 54 -25 60 -23 5 2
17 -4 26 -13 14 -15 13 -22 -12 -76 -16 -33 -36 -68 -46 -79 -15 -17 -49 -67
-98 -146 -74 -120 -170 -251 -178 -243 -3 3 -3 -3 -1 -13 3 -11 -2 -25 -10
-32 -9 -8 -16 -19 -16 -26 0 -8 -11 -27 -25 -43 -14 -17 -25 -33 -25 -37 0 -3
-7 -13 -15 -21 -17 -18 -20 -34 -5 -34 6 0 10 5 10 10 0 6 9 10 20 10 11 0 20
4 20 9 0 5 15 26 34 47 l35 39 28 -21 c16 -12 40 -24 53 -28 24 -7 24 -7 5 8
-11 8 -32 25 -47 37 l-26 22 19 38 c11 21 27 43 34 49 8 7 22 26 31 44 48 91
58 112 56 119 -1 4 3 7 9 7 6 0 9 7 5 15 -3 8 0 15 7 15 7 0 24 19 39 43 15
23 39 59 54 80 14 22 27 48 29 59 4 19 69 99 87 106 4 2 11 -3 14 -12 7 -19
48 -22 42 -3 -3 6 -14 13 -26 15 -27 4 -28 12 -4 38 10 10 27 34 37 52 11 17
23 32 27 32 4 0 8 8 8 18 0 10 4 22 9 27 5 6 14 27 21 48 6 20 18 37 25 37 7
0 18 13 23 29 6 15 26 45 46 64 l36 36 95 -57 c53 -31 108 -66 123 -79 50 -42
149 -118 196 -150 25 -18 46 -37 46 -42 0 -4 -18 -28 -41 -52 -22 -24 -49 -55
-60 -70 -18 -26 -18 -28 -2 -32 14 -4 13 -5 -4 -6 -13 0 -23 -5 -23 -11 0 -5
-7 -10 -15 -10 -9 0 -18 -7 -21 -15 -4 -8 -16 -15 -29 -15 -48 0 -3 -61 47
-65 13 -1 16 4 12 20 -5 21 34 72 116 151 73 71 65 69 118 29 78 -59 382 -357
382 -375 0 -9 -16 -24 -35 -33 -20 -9 -38 -24 -41 -32 -4 -8 -11 -15 -18 -15
-6 0 -29 -18 -50 -40 -22 -22 -48 -42 -58 -46 -22 -7 -73 29 -103 72 -25 35
-86 94 -98 94 -5 0 -7 -8 -5 -17 2 -10 10 -17 16 -15 7 1 12 -4 12 -11 0 -14
108 -127 122 -127 4 0 8 -9 8 -20 0 -19 -71 -100 -88 -100 -4 0 -18 18 -32 39
-13 22 -27 38 -31 36 -8 -6 -41 33 -59 70 -15 29 -99 125 -101 115 -11 -41 -2
-66 39 -104 75 -70 135 -132 175 -180 21 -25 45 -46 52 -46 23 0 18 40 -7 63
-17 15 -18 18 -6 14 12 -4 23 2 34 19 30 45 49 48 86 10 39 -40 59 -64 112
-131 22 -27 41 -52 43 -54 1 -2 6 -2 9 1 6 7 -78 121 -117 158 -23 22 -49 60
-49 73 0 3 24 20 53 38 28 18 63 42 77 54 14 12 42 34 62 49 l37 28 30 -34
c36 -40 138 -163 168 -204 102 -135 136 -182 144 -201 5 -13 13 -23 18 -23 5
0 21 -21 37 -47 20 -36 24 -48 14 -51 -8 -3 -24 -15 -35 -26 -12 -12 -26 -21
-32 -19 -5 2 -26 -9 -46 -25 -20 -16 -50 -35 -67 -42 -16 -7 -30 -16 -30 -21
0 -16 -22 -9 -41 13 -11 11 -19 26 -19 33 0 6 -13 25 -30 41 -16 16 -30 34
-30 41 0 6 -16 24 -35 40 -20 15 -37 38 -38 51 -1 12 -14 34 -29 49 -26 25
-28 25 -28 7 0 -11 8 -29 18 -40 31 -35 102 -134 109 -151 3 -10 18 -34 33
-53 43 -56 43 -56 -8 -89 -60 -38 -82 -40 -82 -6 0 16 -6 25 -15 25 -8 0 -15
7 -15 15 0 9 -11 26 -24 38 -13 13 -28 38 -33 57 -7 25 -16 36 -31 38 -12 2
-20 8 -17 13 3 5 -6 21 -20 36 -14 16 -28 39 -32 53 -10 42 -53 90 -79 90 -17
0 -29 10 -42 36 -11 21 -22 32 -26 26 -7 -12 3 -42 15 -42 4 0 14 -11 21 -24
12 -22 63 -85 117 -145 12 -14 32 -42 42 -61 11 -19 44 -70 74 -114 30 -43 55
-81 55 -85 0 -4 -24 -19 -52 -34 -29 -14 -71 -37 -93 -50 -133 -80 -195 -114
-233 -132 -31 -15 -41 -25 -38 -37 2 -10 0 -21 -5 -24 -5 -3 -9 2 -9 11 0 9
-6 15 -12 12 -7 -2 -12 -9 -11 -14 1 -5 -10 -10 -24 -11 -15 -1 -34 -8 -42
-15 -37 -31 -101 -41 -101 -16 0 5 -9 20 -21 32 -11 12 -28 35 -36 52 -13 25
-47 72 -108 153 -5 7 -20 23 -32 34 -13 12 -23 28 -23 35 0 7 -5 13 -12 13 -6
0 -20 7 -30 17 -10 9 -18 11 -18 5 0 -6 8 -16 18 -21 9 -6 13 -11 8 -11 -5 0
12 -24 38 -54 25 -30 46 -58 46 -63 0 -5 12 -20 28 -34 32 -29 82 -87 82 -94
0 -3 12 -23 26 -45 15 -22 24 -43 20 -47 -3 -4 5 -18 18 -32 32 -34 112 -167
165 -275 23 -47 47 -86 52 -86 6 0 8 -4 5 -9 -5 -7 19 -91 41 -141 3 -8 8 -23
10 -34 5 -30 53 -104 53 -83 0 26 -31 117 -40 117 -4 0 -7 15 -8 34 -1 30 3
36 29 45 21 7 28 7 23 -1 -4 -6 -1 -9 7 -6 8 3 15 12 17 21 3 14 -4 16 -46 11
l-49 -5 -26 48 c-14 26 -47 90 -72 140 -26 51 -51 95 -56 98 -5 4 -9 13 -9 22
0 9 -6 24 -14 32 -8 9 -16 23 -18 31 -2 8 -9 20 -17 26 -12 10 -11 14 10 25
13 7 29 13 34 14 19 2 115 49 115 57 0 4 7 8 15 8 8 0 15 5 15 10 0 6 9 10 20
10 11 0 20 4 20 9 0 5 10 11 23 15 19 5 20 8 7 17 -13 9 -13 10 2 6 18 -6 68
13 68 26 0 4 7 7 15 7 8 0 15 4 15 9 0 5 10 11 23 13 12 2 21 9 20 16 -2 6 3
12 11 12 8 0 40 16 72 35 33 19 67 38 77 41 10 4 16 13 13 20 -4 11 0 11 18
-1 13 -9 27 -28 31 -42 8 -34 57 -103 69 -100 17 6 18 27 1 27 -11 0 -15 6
-10 19 4 13 -5 30 -30 57 -39 41 -40 53 -6 70 16 8 19 13 9 17 -7 3 -2 6 12 6
19 1 22 3 10 11 -19 12 -6 24 17 15 27 -11 64 -12 60 -1 -3 10 79 56 101 56 6
0 12 6 12 13 0 7 10 13 21 14 12 1 29 8 38 16 9 8 31 21 48 30 l33 15 50 -63
c27 -34 50 -66 50 -69 0 -15 83 -176 91 -176 5 0 9 -6 9 -14 0 -8 9 -30 19
-48 11 -18 32 -67 47 -108 15 -41 32 -78 36 -81 5 -3 -19 -16 -54 -28 -35 -12
-72 -26 -83 -31 -11 -5 -44 -19 -74 -30 -60 -23 -75 -18 -85 31 -3 16 -16 44
-30 62 -13 18 -27 43 -31 57 -4 14 -17 39 -29 55 -11 17 -21 32 -21 35 -1 13
-27 51 -32 47 -3 -3 18 -52 45 -109 27 -57 53 -114 57 -128 4 -14 16 -37 26
-52 l19 -26 -43 -21 c-47 -23 -77 -27 -77 -11 0 6 -7 10 -15 10 -15 0 -18 9
-15 47 1 13 -7 26 -19 33 -13 7 -21 21 -21 38 0 31 -14 57 -31 57 -6 0 -17 21
-24 46 -11 45 -66 110 -73 88 -3 -8 35 -94 58 -129 5 -8 23 -46 40 -85 17 -38
37 -83 45 -100 13 -28 13 -31 -8 -47 -12 -10 -29 -18 -37 -18 -8 0 -33 -9 -55
-20 -22 -11 -46 -19 -53 -20 -7 0 -42 -13 -77 -30 -35 -16 -70 -30 -78 -30 -7
0 -22 -7 -33 -15 -10 -8 -31 -15 -46 -15 -22 0 -28 -5 -28 -22 0 -17 -3 -19
-9 -9 -7 10 -15 11 -37 3 -16 -6 -21 -11 -12 -11 9 -1 18 -5 20 -11 3 -10 92
13 113 30 6 5 40 15 76 22 36 7 65 18 65 26 3 25 4 27 12 15 14 -22 151 35
137 57 -1 3 17 6 42 6 44 2 46 0 61 -37 8 -22 19 -39 24 -39 4 0 8 -11 8 -25
0 -14 4 -33 9 -43 15 -32 51 -151 51 -171 0 -11 5 -23 11 -26 5 -4 8 -12 6
-18 -2 -7 2 -27 10 -45 7 -18 11 -37 8 -42 -3 -5 -2 -11 3 -14 4 -2 9 -19 10
-38 2 -18 9 -36 17 -41 18 -10 13 -80 -6 -85 -8 -3 -29 -11 -46 -19 -19 -9
-44 -13 -58 -9 -14 4 -25 2 -25 -4 0 -5 -18 -10 -40 -10 -22 0 -40 -3 -40 -7
0 -5 -10 -8 -22 -9 -54 -1 -206 -26 -243 -40 -11 -4 -24 -12 -28 -18 -6 -8
-10 -7 -14 1 -3 10 -8 9 -20 -2 -10 -11 -19 -13 -27 -6 -7 6 -21 10 -31 10
-43 0 -80 16 -82 36 -2 11 -5 38 -7 60 -5 53 -5 52 -16 35 -7 -11 -10 -4 -10
26 0 23 -7 55 -15 70 -8 16 -15 36 -15 45 0 8 -7 24 -15 35 -17 23 -19 15 -5
-21 6 -15 20 -68 31 -118 12 -51 30 -130 41 -177 36 -160 67 -383 69 -495 0
-48 2 -55 10 -36 10 24 5 130 -11 241 -5 36 -11 90 -13 120 -2 30 -9 65 -15
77 -7 12 -12 33 -12 47 0 25 0 25 77 21 51 -3 73 -1 63 5 -12 8 -9 10 13 10
15 0 27 4 27 9 0 14 44 21 55 9 7 -8 5 -9 -7 -5 -10 4 -18 2 -18 -4 0 -6 15
-8 38 -5 20 3 54 7 75 8 20 1 37 5 37 8 0 3 8 6 18 7 36 3 188 34 241 49 52
15 88 13 77 -5 -3 -4 -1 -23 4 -42 6 -19 13 -63 16 -99 4 -36 10 -87 15 -115
5 -27 12 -97 15 -154 5 -107 15 -141 38 -141 13 0 13 16 2 200 -8 152 -17 224
-28 231 -6 4 -8 12 -4 18 4 6 0 24 -9 41 -14 27 -14 33 0 60 14 27 21 30 60
30 25 0 48 0 53 0 4 1 12 -31 18 -70 6 -39 17 -76 24 -83 10 -10 11 -7 6 13
-32 111 -30 160 7 159 43 -1 139 12 194 26 31 8 58 13 60 11 2 -2 13 -46 24
-97 23 -109 45 -316 55 -512 l7 -139 -219 7 c-140 5 -222 11 -228 19 -14 14
-17 46 -4 46 16 0 3 23 -15 26 -11 1 -19 -7 -23 -24 -13 -60 31 -55 -428 -54
-198 0 -271 3 -276 12 -6 9 -10 8 -17 -5 -8 -13 -16 -15 -34 -9 -13 4 -37 8
-54 9 -83 3 -91 5 -75 18 24 19 50 84 50 123 0 44 -45 94 -84 94 -38 0 -108
-30 -131 -57 -11 -13 -24 -23 -29 -23 -5 0 -19 -11 -32 -25 -28 -31 -41 -32
-49 -4 -6 18 -13 20 -41 16 -19 -3 -55 -20 -80 -36 -59 -40 -68 -39 -61 4 7
42 -2 44 -62 10 -51 -30 -51 -30 -51 -7 0 9 -15 44 -33 77 -22 42 -39 61 -54
63 -23 3 -27 11 -24 44 3 27 -17 57 -51 74 -27 14 -41 15 -102 5 -86 -14 -166
-39 -185 -57 -13 -12 -12 -16 4 -34 30 -33 75 -51 112 -44 35 7 46 24 14 24
-19 0 -71 42 -71 58 0 12 59 22 126 22 63 0 92 -20 104 -74 6 -30 5 -45 -7
-62 -8 -13 -12 -31 -9 -40 8 -20 -47 -125 -74 -142 -18 -11 -21 -10 -26 18
-11 54 -27 57 -106 25 -13 -5 -17 0 -20 25 -3 31 -3 31 -24 12 -20 -19 -57
-42 -68 -42 -3 0 -6 11 -6 25 0 28 -13 31 -56 15 -23 -9 -31 -7 -55 16 l-28
26 -33 -37 c-46 -53 -58 -71 -51 -78 3 -4 15 8 27 25 34 50 50 49 43 -3 -3
-23 -1 -51 4 -61 12 -23 59 -24 59 -2 0 11 -6 15 -19 11 -19 -5 -19 -3 2 29
30 46 51 45 43 0 l-7 -35 41 16 c22 9 40 20 40 25 0 4 8 8 19 8 12 0 20 -9 24
-26 3 -19 1 -24 -10 -20 -8 3 -11 1 -8 -4 3 -6 13 -10 21 -10 8 0 13 -4 10 -9
-3 -4 18 -11 47 -15 72 -8 167 -8 165 2 -1 4 2 19 6 34 9 32 37 44 66 28 25
-13 27 -50 3 -50 -14 0 -15 2 -4 9 9 6 10 11 2 15 -6 4 -14 0 -17 -8 -3 -9
-11 -16 -16 -16 -6 0 -8 7 -5 14 4 10 1 13 -9 9 -7 -3 -14 -11 -14 -18 0 -22
246 -34 297 -14 13 5 23 5 23 0 0 -4 52 -7 115 -7 109 1 115 2 115 21 0 18 -6
20 -55 20 -30 -1 -55 3 -55 7 0 4 11 8 24 8 14 0 36 4 50 10 20 7 30 5 48 -11
16 -14 19 -22 11 -25 -18 -8 -16 -31 3 -38 22 -9 32 3 14 14 -22 14 -2 12 23
-2 21 -12 26 -13 55 -16 7 -1 10 -6 7 -12 -7 -11 8 -14 19 -3 3 4 53 9 109 11
56 2 104 5 106 7 2 2 10 -3 18 -11 13 -12 14 -34 8 -122 -4 -59 -13 -152 -21
-207 -7 -55 -14 -103 -14 -107 0 -5 -9 -8 -20 -8 -13 0 -20 -7 -20 -20 0 -11
7 -20 15 -20 8 0 15 -1 15 -3 0 -1 -7 -34 -15 -72 -9 -39 -22 -104 -30 -145
-17 -86 -33 -147 -46 -172 -5 -10 -9 -27 -9 -37 0 -11 -4 -23 -10 -26 -5 -3
-10 -17 -10 -31 0 -14 -6 -27 -14 -30 -7 -3 -16 -26 -20 -50 -3 -25 -12 -58
-20 -72 -8 -15 -21 -43 -29 -62 -9 -19 -26 -60 -40 -90 -28 -64 -40 -95 -35
-95 2 0 -7 -11 -19 -25 -13 -13 -23 -32 -23 -42 0 -11 -4 -17 -9 -14 -5 3 -12
-6 -15 -19 -4 -14 -18 -31 -32 -37 -15 -7 -20 -14 -14 -18 12 -8 -21 -80 -46
-101 -8 -6 -14 -16 -14 -21 0 -5 -9 -22 -21 -36 -12 -16 -16 -28 -10 -30 13
-4 50 37 51 54 0 6 7 17 15 24 9 7 23 28 31 46 16 32 34 45 34 24 0 -5 9 -10
20 -10 11 0 20 -4 20 -10 0 -5 6 -10 14 -10 8 0 16 -6 19 -13 2 -7 27 -24 53
-37 27 -13 63 -35 80 -47 17 -13 43 -23 58 -23 18 0 25 -4 20 -11 -5 -8 1 -10
19 -7 18 4 24 1 20 -9 -4 -9 0 -11 11 -7 10 4 18 0 22 -10 4 -9 17 -16 33 -15
17 0 21 3 11 7 -9 4 -36 22 -62 40 -26 17 -57 32 -70 32 -17 0 -19 3 -9 9 10
6 4 12 -23 22 -20 7 -36 16 -36 21 0 13 -122 79 -137 74 -8 -3 -12 -2 -9 3 3
5 -5 16 -19 25 -30 20 -31 35 -5 69 11 14 20 32 20 40 0 9 9 19 20 22 11 4 20
12 19 18 -6 33 45 133 74 145 4 2 7 10 7 18 0 8 7 26 16 39 9 13 13 29 10 34
-4 5 -2 12 3 15 5 3 12 22 15 41 8 42 16 43 52 10 14 -13 30 -23 34 -20 4 3
13 -1 19 -9 7 -8 28 -17 49 -22 47 -10 38 -6 106 -37 32 -15 64 -27 72 -27 7
0 16 -5 20 -11 4 -8 9 -8 17 0 14 14 28 14 24 0 -1 -6 18 -18 43 -27 25 -8 72
-28 105 -44 33 -15 67 -28 75 -28 39 -1 40 -15 11 -91 -47 -121 -202 -431
-235 -469 -21 -24 -66 -109 -66 -125 0 -8 -4 -15 -10 -15 -5 0 -10 -7 -10 -16
0 -8 -4 -12 -10 -9 -5 3 -10 1 -10 -5 0 -7 -8 -22 -18 -35 -9 -12 -24 -33 -32
-45 -8 -12 -34 -47 -57 -77 -24 -31 -43 -60 -44 -67 -1 -17 -70 -71 -77 -60
-4 5 -26 22 -49 38 -24 16 -43 33 -43 38 0 5 -4 6 -10 3 -5 -3 -10 -2 -10 4 0
5 -14 22 -31 38 -36 34 -69 93 -69 126 0 19 7 26 31 31 17 3 44 15 60 27 32
23 37 51 17 107 -11 29 -11 36 0 40 7 2 26 15 42 29 50 42 39 114 -24 146 -57
30 -112 -18 -72 -62 20 -22 21 -71 1 -71 -8 0 -26 -5 -40 -12 -21 -9 -25 -18
-23 -42 3 -27 6 -31 31 -28 60 7 77 -41 21 -57 -42 -11 -55 -5 -98 45 -40 49
-32 90 33 153 21 21 22 24 7 39 -25 25 -46 5 -75 -71 -14 -37 -32 -67 -39 -67
-8 0 -12 6 -10 12 3 7 -13 28 -34 47 -34 30 -38 39 -32 65 6 29 5 30 -11 15
-16 -16 -20 -14 -55 20 -21 20 -91 86 -156 146 -65 61 -152 144 -193 185 -41
41 -78 74 -82 73 -5 -2 -14 7 -20 20 -14 25 -41 47 -50 41 -10 -6 -32 24 -25
34 7 12 -26 42 -54 47 -28 5 -51 25 -44 36 3 5 1 9 -5 9 -16 0 -73 59 -67 69
7 11 -186 211 -202 211 -21 0 -13 -12 72 -96 49 -50 77 -84 67 -84 -10 0 3
-18 34 -47 268 -248 463 -438 541 -526 6 -6 37 -34 68 -61 32 -26 55 -51 52
-54 -3 -2 -11 0 -18 5 -7 6 -24 14 -38 18 l-25 8 20 -23 c11 -12 40 -36 65
-53 57 -39 63 -48 44 -68 -8 -8 -12 -18 -9 -21 3 -3 -10 -9 -30 -12 -30 -6
-36 -11 -33 -29 1 -14 -9 -36 -29 -57 -17 -19 -47 -53 -66 -75 l-36 -40 -24
23 c-21 20 -25 21 -31 7 -3 -9 -2 -13 4 -10 14 9 23 -20 16 -48 -3 -12 -26
-38 -51 -57 -25 -19 -54 -47 -65 -62 l-20 -28 25 12 c13 6 27 19 30 30 4 10
10 18 15 18 5 0 27 18 49 41 31 30 47 39 61 34 11 -4 20 -3 19 2 -5 28 4 50
23 58 13 6 28 20 34 32 18 37 77 89 82 73 3 -8 14 -24 26 -36 12 -13 26 -29
32 -36 23 -26 95 -88 103 -88 4 0 16 -9 26 -20 10 -11 24 -20 32 -20 7 0 13
-4 13 -10 0 -5 7 -10 15 -10 9 0 21 -11 27 -25 6 -14 16 -25 23 -25 6 0 22
-18 35 -41 14 -22 35 -53 48 -69 12 -15 22 -32 22 -37 0 -5 14 -28 31 -52 29
-39 30 -43 14 -55 -14 -10 -15 -15 -5 -21 7 -4 15 -2 19 4 9 14 24 -2 84 -89
126 -187 150 -220 158 -220 11 0 32 -69 25 -86 -6 -15 -44 -11 -56 6 -8 11
-50 22 -50 13 0 -5 9 -26 20 -47 18 -31 19 -40 8 -54 -14 -18 -90 -92 -229
-222 -50 -47 -98 -93 -107 -102 -27 -26 -67 -32 -83 -13 -8 10 -33 37 -57 62
-73 76 -76 31 -4 -70 19 -26 33 -49 31 -50 -2 -2 -24 -19 -49 -38 -25 -20 -56
-42 -70 -49 -23 -12 -98 -68 -110 -81 -3 -3 -12 -9 -20 -13 -26 -12 -57 -31
-73 -45 -9 -7 -33 -22 -54 -33 -21 -11 -50 -26 -64 -34 -14 -8 -34 -23 -44
-34 -31 -35 -53 -25 -79 35 -14 30 -43 73 -65 97 -33 34 -41 49 -41 80 0 21 4
38 9 38 5 0 16 6 23 13 8 6 31 21 53 32 21 11 41 27 43 35 5 13 3 13 -13 0
-10 -8 -21 -14 -24 -13 -3 1 -22 -8 -41 -20 -60 -37 -69 -38 -81 -14 -17 32
-48 59 -59 52 -6 -3 -10 0 -10 7 0 21 44 64 62 60 20 -4 29 9 19 27 -8 13 -48
0 -121 -40 -33 -18 -83 -42 -160 -77 -19 -9 -42 -21 -50 -27 -8 -6 -33 -17
-55 -24 -51 -16 -163 -69 -170 -81 -3 -5 -1 -11 4 -14 5 -3 12 1 15 10 5 13 9
14 21 4 10 -8 19 -9 32 -1 17 10 17 10 0 11 -10 0 -16 4 -12 10 3 5 12 7 20 3
8 -3 15 0 15 7 0 10 3 10 14 1 10 -8 16 -9 21 -1 3 5 20 10 36 10 20 0 28 4
23 12 -4 6 -3 8 3 5 16 -10 60 16 56 33 -4 12 -3 12 5 2 6 -9 18 -11 38 -6 30
7 135 62 144 75 10 14 26 -5 53 -61 25 -51 26 -55 10 -62 -14 -6 -12 -7 7 -5
20 2 29 -6 46 -40 12 -23 24 -50 27 -60 8 -22 28 -54 43 -68 7 -5 17 -27 23
-47 11 -33 10 -39 -8 -57 -11 -11 -46 -29 -78 -39 -61 -21 -115 -43 -123 -52
-12 -12 -100 -49 -155 -65 -33 -10 -64 -21 -70 -25 -5 -5 -27 -11 -48 -15 -20
-4 -40 -11 -42 -16 -3 -4 -13 -5 -22 -2 -9 4 -21 -1 -28 -10 -13 -18 -105 -42
-115 -30 -4 4 -12 26 -18 48 -7 22 -16 47 -22 55 -9 13 -11 13 -20 0 -9 -13
-6 -56 6 -101 6 -23 -68 -58 -146 -69 -33 -5 -82 -15 -108 -24 -42 -14 -158
-36 -188 -36 -12 0 -24 29 -29 70 -3 27 -41 177 -51 205 -5 11 -2 16 7 15 27
-4 49 0 49 9 0 15 -61 18 -101 5 -43 -14 -211 -38 -259 -36 -37 1 -80 -15 -80
-31 0 -5 18 -7 43 -3 23 3 76 8 117 12 41 3 79 8 83 11 5 3 31 7 58 9 56 4 52
13 79 -156 5 -30 12 -69 15 -87 7 -30 6 -32 -33 -42 -35 -10 -155 -24 -297
-36 -22 -2 -130 -6 -241 -10 l-200 -7 -15 59 c-7 32 -14 84 -13 115 0 32 -4
58 -8 58 -15 0 -11 210 4 228 12 14 48 7 60 -12 5 -6 8 -7 8 -1 0 6 32 9 82 8
45 -1 87 1 92 6 20 15 56 20 56 7 0 -6 9 -12 20 -12 12 0 19 5 16 12 -3 7 3
10 15 7 10 -3 19 -10 19 -15 0 -5 8 -7 18 -4 10 4 42 7 71 7 28 1 54 6 57 11
3 5 20 6 36 3 21 -5 33 -3 39 6 7 11 9 10 9 -4 0 -11 5 -17 13 -14 6 2 11 9
10 15 -1 6 10 7 32 2 35 -8 40 -4 36 28 -1 6 3 12 9 12 6 0 9 -4 6 -8 -3 -5 6
-15 19 -22 21 -11 27 -11 44 4 10 9 22 16 27 15 22 -5 85 15 93 30 5 9 13 13
17 9 4 -4 13 0 20 10 9 11 13 13 14 4 0 -7 4 -10 10 -7 6 3 10 1 10 -5 0 -11
63 -4 85 9 6 3 24 6 40 6 19 0 29 5 27 13 -1 7 9 12 29 12 27 0 29 2 15 15
-19 19 -27 19 -117 -4 -41 -10 -94 -22 -118 -25 -24 -4 -49 -10 -55 -13 -6 -4
-38 -9 -70 -11 -33 -1 -65 -7 -70 -11 -6 -5 -60 -11 -121 -15 -60 -3 -148 -11
-195 -16 -86 -11 -316 -23 -380 -21 -37 1 -54 17 -43 41 4 8 6 40 4 70 -1 30
-3 172 -4 314 l-2 259 25 3 c26 3 94 4 170 2 25 0 90 3 145 6 55 4 112 8 128
8 15 1 27 5 27 9 0 5 22 9 49 9 28 0 53 5 56 10 10 17 25 1 25 -26 0 -14 4
-22 10 -19 6 3 10 15 10 25 0 10 8 26 17 36 17 17 16 17 -22 11 -73 -13 -309
-35 -390 -37 -182 -5 -212 -7 -223 -14 -7 -4 -12 -2 -12 3 0 6 -8 11 -17 11
-17 1 -17 1 0 14 19 15 23 36 6 36 -6 0 -9 8 -6 19 2 10 1 42 -4 72 -6 35 -5
57 2 66 6 7 9 23 6 35 -4 12 -2 28 4 34 7 9 7 19 0 32 -6 11 -8 67 -6 135 2
63 0 130 -5 148 -5 18 -6 37 -2 43 10 13 8 83 -2 107 -4 9 2 54 13 99 15 61
17 89 10 108 -6 14 -7 59 -4 100 4 52 2 78 -6 89 -10 11 -10 19 -1 33 12 19
14 54 8 158 -2 34 0 93 4 130 4 37 4 72 0 77 -4 6 -6 30 -4 55 10 105 10 136
0 148 -6 8 -6 16 0 20 11 8 12 52 2 68 -4 7 -3 26 3 42 7 22 8 47 0 84 -10 54
-9 106 2 126 4 5 2 12 -4 14 -7 2 -8 24 -1 73 11 88 5 152 -15 160 -9 3 -19 3
-22 -1 -5 -5 -10 -234 -11 -522 0 -71 -4 -111 -10 -107 -6 3 -10 0 -10 -9 0
-8 -5 -16 -12 -18 -7 -3 -9 -12 -4 -23 6 -16 9 -17 16 -5 5 8 12 12 15 9 7 -8
-7 -48 -17 -48 -5 -1 -7 -4 -5 -8 1 -5 6 -7 10 -5 5 1 5 -3 1 -9 -3 -6 -1 -14
5 -18 8 -6 13 -99 15 -330 l4 -322 -22 18 c-11 10 -24 22 -27 26 -3 5 -21 -1
-40 -12 -40 -25 -49 -26 -49 -7 0 8 -15 31 -34 51 -65 69 -126 27 -96 -65 14
-43 74 -105 91 -94 14 8 49 -25 49 -47 0 -10 -7 -24 -15 -33 -8 -8 -15 -21
-15 -28 0 -7 -8 -3 -18 10 -24 31 -35 17 -16 -20 9 -17 21 -27 29 -25 8 4 20
-12 34 -45 27 -66 28 -98 1 -98 -11 0 -20 -5 -20 -11 0 -12 20 -52 30 -59 4
-3 14 -19 23 -36 13 -25 14 -35 4 -48 -11 -16 -14 -15 -35 9 -12 14 -22 29
-22 34 0 5 -10 11 -22 15 -17 4 -28 -1 -40 -17 -10 -12 -18 -26 -18 -31 0 -5
18 -40 39 -77 l40 -69 -30 -17 c-41 -24 -46 -54 -18 -100 44 -72 72 -85 127
-57 39 19 40 37 5 105 -27 55 -33 64 -69 103 -30 32 -46 65 -40 82 10 26 33
14 67 -36 37 -54 49 -61 49 -30 0 11 5 29 11 39 10 14 7 29 -15 75 -24 51 -26
59 -12 69 14 11 14 18 2 56 -13 44 -12 45 15 68 16 13 31 25 34 26 5 2 6 -465
1 -593 l-1 -35 -55 -3 c-56 -3 -87 -16 -47 -19 12 0 41 -4 64 -8 l43 -8 -6
-335 c-2 -184 -7 -339 -10 -343 -3 -5 -32 -6 -64 -2 -52 5 -60 4 -60 -11 0 -9
6 -16 13 -16 9 0 8 -3 -2 -9 -9 -6 -10 -11 -2 -15 6 -4 14 -1 17 8 8 22 71 15
87 -9 20 -30 10 -122 -13 -128 -10 -3 -22 -1 -27 4 -4 4 -25 4 -46 0 -20 -5
-39 -6 -41 -2 -3 4 -19 8 -36 9 -18 1 -29 -2 -25 -7 6 -11 77 -23 148 -25 l48
-2 2 -139 2 -140 -105 0 c-145 1 -363 21 -462 44 -20 5 -39 6 -42 3 -3 -2 -11
0 -18 5 -7 6 -35 14 -63 18 -27 4 -62 13 -77 21 -15 8 -36 14 -47 14 -11 0
-22 4 -25 8 -7 11 7 89 30 167 9 33 16 72 15 87 -1 31 -1 31 50 19 21 -5 43
-5 50 -1 8 6 -1 11 -27 15 -65 11 -76 16 -70 31 3 9 -1 14 -14 14 -19 0 -32
-29 -45 -100 -3 -19 -15 -76 -26 -127 l-20 -92 -47 15 c-26 8 -51 16 -57 18
-5 2 -30 7 -53 11 -24 4 -46 14 -49 21 -3 8 -9 12 -13 9 -10 -6 -103 25 -111
38 -4 5 -11 7 -17 3 -5 -3 -54 12 -107 34 -54 22 -106 40 -115 40 -32 0 -38
19 -24 67 8 26 14 56 14 68 0 13 7 28 15 35 9 7 13 15 11 17 -12 12 -59 -47
-60 -75 0 -17 -4 -28 -8 -26 -4 2 -13 -5 -21 -17 -12 -17 -21 -20 -45 -14 -17
3 -36 13 -43 21 -6 8 -19 14 -29 14 -17 0 -79 30 -225 110 -33 17 -65 37 -72
42 -7 5 -18 6 -24 2 -7 -4 -9 -3 -6 3 4 6 0 16 -8 23 -8 7 -15 9 -15 6 0 -4
-13 2 -29 13 -16 12 -32 21 -36 21 -13 0 -109 73 -132 99 -12 14 -22 22 -23
17 0 -5 -8 -3 -17 5 -28 22 -61 39 -78 39 -8 0 -15 6 -15 14 0 15 -71 76 -88
76 -6 0 -37 25 -69 55 -32 30 -62 55 -68 55 -16 0 -84 59 -149 128 -32 34 -63
62 -68 62 -5 0 -19 11 -32 25 -27 29 -41 33 -32 9 5 -12 2 -15 -11 -10 -17 7
-10 -4 34 -52 16 -16 16 -19 3 -27 -11 -7 -242 223 -288 285 -14 19 -50 60
-80 91 -30 31 -50 59 -45 62 5 3 29 -19 53 -49 25 -30 55 -61 68 -69 12 -9 22
-20 22 -24 0 -5 32 -41 70 -80 39 -39 70 -75 70 -80 0 -5 14 -16 30 -25 17 -8
30 -11 30 -6 0 5 3 16 7 26 4 12 3 15 -5 10 -7 -4 -12 -1 -12 6 0 8 -16 29
-35 48 -19 19 -35 38 -35 43 0 8 -9 19 -90 106 -22 24 -40 46 -40 50 0 3 -20
26 -43 51 -24 25 -49 54 -55 66 -13 25 -4 34 132 132 74 53 90 62 97 49 5 -9
27 -35 49 -58 22 -24 40 -47 40 -51 0 -4 4 -8 10 -8 13 0 -30 70 -47 77 -7 3
-13 11 -13 18 0 8 -7 21 -15 29 -12 12 -14 20 -5 36 6 11 14 20 19 20 4 0 26
14 49 32 46 36 58 78 22 78 -11 0 -20 5 -20 11 0 10 -60 91 -85 114 -5 6 -15
22 -22 36 -6 15 -25 42 -41 60 -16 19 -39 54 -51 77 -12 24 -24 42 -27 39 -3
-2 6 -24 20 -48 14 -24 34 -61 46 -82 22 -40 96 -145 130 -185 23 -28 26 -62
5 -62 -8 0 -19 -9 -25 -21 -7 -11 -14 -18 -17 -15 -3 3 -14 -4 -24 -15 -18
-21 -18 -21 -51 27 -18 26 -45 62 -61 80 -15 17 -27 36 -27 41 0 6 -9 18 -20
28 -11 10 -20 22 -20 27 0 5 -11 24 -25 42 -14 18 -25 37 -25 43 0 5 -8 17
-19 27 -10 9 -35 50 -55 91 -20 41 -42 75 -47 75 -9 0 -49 81 -49 100 0 11 74
58 104 66 14 3 26 10 26 15 0 5 15 15 33 22 17 8 38 21 46 30 7 10 22 17 32
17 10 0 20 4 24 9 3 5 19 13 36 16 17 4 59 23 93 41 33 19 87 46 119 61 31 14
57 29 57 34 0 4 18 13 40 19 21 6 46 17 54 25 8 8 18 15 22 15 4 0 13 8 20 17
12 17 14 16 38 -7 15 -13 24 -30 22 -37 -3 -7 -2 -13 2 -13 4 0 12 -10 18 -23
6 -12 26 -50 43 -85 17 -34 38 -65 46 -68 8 -4 15 -12 15 -19 0 -7 17 -28 38
-46 21 -19 47 -49 58 -68 10 -19 27 -43 37 -53 17 -18 15 -21 -50 -81 -37 -34
-81 -74 -96 -89 -16 -16 -32 -28 -37 -28 -14 0 -105 -81 -102 -91 1 -6 -2 -8
-7 -5 -14 9 -95 -69 -87 -82 5 -9 12 -9 29 0 24 12 129 97 164 132 11 11 32
29 45 39 52 39 153 122 159 131 14 19 55 -4 72 -39 9 -20 25 -39 34 -42 21 -8
43 -28 43 -40 0 -4 18 -25 40 -47 22 -21 40 -45 40 -52 0 -8 6 -14 14 -14 14
0 76 -64 76 -79 0 -17 -75 -108 -167 -206 -51 -53 -93 -105 -93 -116 0 -20
-10 -23 -57 -13 -30 6 -30 7 -21 47 8 35 6 44 -8 54 -10 7 -23 13 -29 13 -7 0
-12 7 -12 15 0 8 8 15 18 15 21 0 59 45 59 70 0 13 -11 20 -41 25 -28 5 -43
14 -51 30 -10 22 -45 36 -92 35 -31 -1 -108 -72 -100 -93 7 -19 47 -33 65 -22
6 4 28 9 48 10 41 3 77 11 91 20 12 7 13 -5 2 -21 -4 -6 -36 -30 -72 -53 -36
-23 -65 -48 -65 -54 0 -14 58 -16 94 -3 24 8 24 8 17 -43 -5 -38 -4 -51 6 -51
31 0 88 -22 88 -33 0 -14 -78 -97 -92 -97 -4 0 -8 -5 -8 -11 0 -6 -6 -16 -13
-23 -11 -11 -21 -6 -58 28 -58 52 -109 100 -133 126 -10 10 -23 17 -27 14 -15
-9 -10 -24 7 -24 8 0 12 -4 9 -10 -3 -5 -1 -10 4 -10 17 0 51 -33 51 -48 0
-12 -3 -12 -15 -2 -29 24 -27 1 1 -24 49 -43 52 -45 60 -38 4 4 4 -1 1 -10 -4
-12 -2 -15 9 -11 7 3 14 9 14 15 0 5 5 6 11 2 7 -4 7 -10 1 -16 -6 -6 -6 -19
0 -36 9 -24 6 -32 -25 -65 -21 -23 -37 -34 -42 -28 -12 20 -26 12 -15 -8 5
-11 10 -22 10 -24 0 -2 -30 -35 -67 -74 -109 -113 -114 -119 -107 -136 3 -10
11 -17 17 -17 14 0 57 41 57 54 0 6 9 17 20 24 11 7 20 19 20 26 0 8 9 17 20
21 11 3 33 22 49 42 l30 37 54 -50 c76 -70 97 -86 110 -81 6 2 -6 16 -27 32
-57 44 -126 111 -126 123 0 6 -6 13 -12 16 -7 3 -4 4 8 1 13 -4 30 4 48 20 29
27 45 24 81 -12 16 -16 18 -16 31 1 7 10 18 15 24 11 7 -4 8 -11 1 -18 -6 -8
-1 -18 17 -31 15 -11 21 -13 14 -6 -6 8 -12 19 -12 24 0 6 10 -4 21 -21 12
-18 26 -33 32 -33 6 0 7 -3 4 -7 -4 -3 1 -12 11 -19 9 -7 19 -8 22 -3 3 4 24
-8 46 -29 23 -20 45 -38 50 -39 5 -2 10 -7 10 -13 1 -5 2 -14 3 -20 0 -5 9
-10 19 -10 14 0 15 2 2 10 -8 5 -10 10 -5 10 21 0 35 -17 29 -33 -5 -13 -2
-16 10 -11 9 3 28 -1 42 -11 14 -9 28 -14 31 -11 9 8 -17 36 -33 36 -8 0 -14
5 -14 10 0 6 -7 10 -15 10 -8 0 -15 4 -15 8 0 5 -29 30 -65 56 -36 26 -65 52
-65 57 0 5 -6 9 -14 9 -7 0 -43 29 -79 63 -36 35 -76 70 -87 78 -18 12 -21 20
-15 52 4 21 13 37 21 37 7 0 17 6 21 13 4 6 17 17 28 23 11 7 19 19 19 28 -1
9 4 16 11 16 7 0 27 17 43 38 17 20 64 71 106 112 42 41 76 81 76 88 0 6 5 12
10 12 6 0 10 6 10 14 0 8 14 24 31 36 20 15 29 29 27 44 -1 11 1 27 6 34 8 14
42 -6 109 -66 22 -18 42 -31 45 -27 4 4 -9 21 -29 38 -66 59 -66 61 -20 109
23 23 40 46 38 52 -2 6 -18 12 -36 14 -25 3 -37 -3 -59 -27 -14 -17 -31 -31
-37 -31 -15 0 -155 148 -259 276 -28 34 -33 54 -15 54 6 0 8 7 5 16 -3 8 -2
12 3 9 15 -8 25 15 12 28 -8 8 -18 4 -37 -14 -24 -22 -27 -23 -37 -7 -7 10
-25 36 -42 59 -91 128 -256 410 -304 519 -6 14 -15 32 -20 40 -11 19 -73 169
-96 232 -9 26 -14 52 -10 58 3 5 -1 10 -9 10 -10 0 -16 9 -16 24 0 14 -4 36
-10 51 -5 14 -12 36 -14 48 -5 24 -14 63 -46 182 -31 117 -43 198 -54 355 -3
47 -9 117 -12 156 -3 40 -3 94 1 122 6 44 9 50 31 50 13 0 21 -4 18 -9 -7 -12
3 -11 27 1 12 7 19 21 19 39 0 43 27 110 52 131 29 23 34 20 42 -32 4 -24 9
-58 13 -77 4 -26 3 -32 -7 -26 -7 4 -15 2 -19 -4 -6 -8 -15 -9 -34 -2 -22 9
-25 7 -24 -9 1 -23 -5 -22 112 -26 113 -5 156 2 148 21 -3 10 -19 15 -44 15
-33 0 -39 3 -39 21 0 12 -8 27 -17 34 -12 9 -19 35 -24 95 -4 45 -10 84 -13
87 -14 14 -76 -23 -123 -74 -29 -32 -53 -58 -53 -60 0 -16 -37 -83 -46 -83
-20 0 -23 26 -14 117 5 48 12 124 16 168 4 44 9 82 13 85 4 3 7 23 8 46 0 22
6 51 13 65 7 13 14 45 14 71 1 25 4 50 9 54 4 4 7 18 7 30 0 23 15 75 66 229
47 142 54 151 102 126 45 -23 146 -61 161 -61 3 0 12 4 19 9 12 7 12 12 0 32
-16 28 -59 65 -72 61 -10 -3 -106 28 -120 39 -10 8 9 64 30 89 6 8 15 31 19
50 4 19 11 37 15 40 4 3 17 23 29 45 11 22 34 63 51 90 17 28 36 60 42 73 8
15 17 21 27 16 9 -4 27 -9 41 -12 14 -3 34 -15 46 -27 11 -12 42 -35 68 -50
39 -23 50 -26 57 -14 5 8 9 17 9 20 0 9 -48 40 -95 62 -53 24 -105 65 -105 82
0 8 8 22 18 32 10 10 30 38 46 61 15 24 38 56 51 70 13 15 33 38 44 52 l20 25
1 -23 c0 -12 7 -25 15 -28 8 -4 15 -12 15 -20 0 -8 5 -14 10 -14 13 0 76 -65
152 -156 32 -38 77 -88 100 -111 24 -23 70 -69 104 -103 33 -33 65 -60 71 -60
6 0 19 -12 29 -27 24 -37 118 -133 131 -133 5 0 15 -11 23 -24 8 -16 18 -22
28 -19 9 4 13 2 9 -5 -8 -11 52 -84 117 -142 40 -36 109 -105 177 -176 21 -23
39 -46 39 -52 0 -6 13 -20 29 -31 24 -17 30 -18 34 -7 6 15 -6 29 -35 39 -10
4 -18 12 -18 20 0 7 -45 59 -100 115 -54 56 -96 102 -92 102 4 0 -12 17 -36
39 -23 21 -42 43 -42 49 0 11 -30 26 -45 23 -5 -2 -7 1 -2 5 9 9 -22 44 -40
44 -7 0 -13 6 -13 13 0 6 -44 58 -98 114 -53 56 -115 121 -138 145 -22 24 -77
77 -122 118 -45 41 -81 79 -82 84 0 11 -38 56 -126 149 -41 42 -74 84 -74 91
0 14 58 76 71 76 3 0 18 -12 33 -27 22 -22 29 -24 36 -13 7 11 11 12 24 0 28
-23 27 -5 -2 26 -55 58 -56 61 -37 90 9 14 14 28 11 31 -3 3 -8 -2 -12 -11
-10 -26 -36 -19 -89 27 -28 24 -65 52 -83 62 -17 11 -32 23 -32 28 0 4 -4 5
-10 2 -5 -3 -18 -1 -27 4 -13 8 -14 10 -4 11 12 0 12 2 -1 13 -8 6 -25 38 -38
69 -12 32 -28 62 -36 69 -8 6 -14 17 -14 24 0 11 -11 34 -89 180 -21 40 -24
55 -16 71 10 19 12 20 33 6 12 -8 22 -20 22 -27 0 -12 48 -31 56 -22 2 2 -4
13 -13 25 -57 67 -56 56 -7 106 24 25 44 51 44 58 -1 9 -5 7 -14 -4 -7 -10
-16 -18 -19 -18 -2 0 -19 -13 -37 -30 -18 -16 -37 -30 -44 -30 -11 0 -66 53
-80 78 -8 13 51 74 124 130 19 15 52 43 73 64 21 20 47 40 58 43 10 4 19 10
19 15 0 5 10 12 23 15 12 4 31 16 42 26 50 48 128 100 141 95 7 -3 13 -2 12 2
-3 15 15 42 28 42 8 0 14 5 14 10 0 6 6 10 13 10 8 0 27 11 43 25 16 14 34 25
40 25 6 0 50 25 99 55 48 30 95 55 104 55 9 0 22 -13 28 -31 8 -20 16 -28 24
-23 8 4 9 3 5 -5 -4 -6 -3 -18 3 -25 8 -10 6 -18 -9 -31 -28 -26 -25 -38 9
-32 36 8 57 -18 121 -148 25 -49 57 -108 71 -130 15 -22 30 -51 34 -64 4 -13
14 -32 24 -42 14 -18 62 -98 92 -156 17 -32 5 -51 -43 -72 -24 -10 -52 -28
-62 -40 -11 -11 -30 -21 -42 -21 -14 0 -30 -10 -40 -25 -9 -14 -21 -25 -28
-25 -17 0 -89 -40 -109 -61 -27 -28 -56 -24 -68 10 -5 15 -21 34 -34 41 -14 7
-25 18 -25 24 0 19 -39 46 -56 39 -14 -5 -15 -3 -5 15 7 12 8 22 2 22 -5 0 -8
8 -7 18 1 11 -6 16 -17 15 -12 0 -16 4 -13 13 3 8 1 14 -5 14 -5 0 -14 12 -19
26 -6 14 -14 23 -18 20 -4 -2 -9 7 -10 20 -1 14 -15 39 -32 57 -16 18 -30 38
-30 45 0 21 -14 13 -27 -15 -17 -35 -16 -51 2 -69 9 -9 13 -25 9 -38 -4 -19
-1 -23 17 -22 15 1 27 -9 38 -31 9 -18 24 -33 34 -33 9 0 17 -6 17 -14 0 -18
56 -76 66 -68 4 4 5 -1 1 -10 -3 -9 0 -19 7 -21 7 -3 27 -30 45 -61 27 -48 29
-59 19 -76 -7 -11 -18 -20 -25 -20 -6 0 -15 -9 -18 -20 -3 -11 -11 -20 -16
-20 -5 0 -19 -11 -31 -25 -12 -14 -26 -25 -30 -25 -5 0 -24 -16 -42 -35 -30
-31 -76 -48 -76 -27 0 4 -31 39 -69 79 l-68 72 5 55 c3 37 0 61 -8 71 -7 9
-10 18 -7 22 9 8 42 -32 68 -81 20 -37 22 -39 35 -22 8 11 19 16 30 12 12 -4
15 -2 10 9 -4 11 1 15 19 15 14 0 25 5 25 11 0 6 -9 8 -20 4 -16 -5 -20 -2
-20 14 0 12 5 21 11 21 5 0 7 -4 4 -10 -3 -5 1 -10 9 -10 9 0 15 3 15 8 -3 20
2 32 16 32 15 0 41 44 40 70 -1 22 -15 41 -26 34 -5 -3 -7 -9 -4 -14 3 -5 -11
-16 -30 -26 -35 -16 -36 -16 -60 6 -29 27 -25 42 4 16 12 -11 27 -15 39 -12
23 8 26 38 3 33 -9 -2 -15 -9 -13 -16 1 -7 -2 -10 -8 -6 -5 3 -10 12 -10 20 0
20 -23 25 -45 9 -10 -8 -15 -14 -11 -14 4 0 4 -6 0 -12 -6 -9 -10 -5 -14 11
-3 14 -12 27 -19 29 -10 3 -12 0 -8 -11 7 -19 -12 -35 -22 -19 -4 6 -16 9 -28
6 -21 -6 -32 -28 -47 -96 -4 -16 -13 -28 -20 -28 -8 0 -17 -6 -20 -12 -3 -9
-17 0 -38 25 -18 20 -39 37 -45 37 -7 0 -18 9 -25 20 -12 18 -38 28 -38 14 0
-3 25 -31 55 -62 41 -41 55 -63 54 -82 -3 -43 10 -64 62 -98 37 -24 54 -30 63
-23 10 8 24 0 58 -31 24 -24 56 -53 70 -65 26 -21 29 -49 8 -78 -4 -5 -10 -18
-13 -28 -6 -16 -5 -16 18 -1 14 9 25 21 25 26 0 6 14 8 30 6 26 -4 29 -2 24
15 -6 18 29 67 47 67 4 0 23 15 42 33 49 46 117 97 129 97 5 0 21 -9 35 -20
14 -11 30 -20 34 -20 12 0 11 37 -2 61 -12 24 7 51 55 76 16 8 34 19 40 24 23
20 122 81 154 94 17 8 32 19 32 24 0 6 7 8 16 4 8 -3 25 4 39 17 l23 22 16
-34 c17 -35 51 -62 66 -53 8 5 7 47 -2 109 -2 15 6 22 32 30 19 5 37 13 40 16
3 4 23 15 45 25 22 10 60 27 85 38 24 12 60 23 79 27 31 5 39 1 62 -25 14 -16
29 -43 33 -58 6 -27 31 -46 43 -34 5 6 -9 97 -22 142 -5 17 2 23 47 37 37 11
45 17 28 17 -15 1 -31 -4 -37 -10 -17 -17 -48 -2 -62 29 -7 15 -33 83 -57 152
-25 69 -51 140 -59 158 -8 18 -15 42 -15 53 0 11 -7 30 -15 43 -9 13 -26 57
-39 97 -13 41 -27 81 -31 90 -7 19 30 34 165 69 47 12 90 25 95 29 6 4 19 8
30 9 33 2 76 9 150 26 97 22 104 21 116 -14 14 -39 34 -38 37 2 2 18 5 34 7
36 4 4 74 13 105 14 8 0 32 4 52 9 20 5 134 11 252 14 l216 4 2 -37 c0 -20 1
-44 0 -52 -1 -8 -4 -121 -7 -250 -3 -129 -7 -260 -9 -290 l-3 -55 -124 -2
c-68 -1 -127 -2 -131 -2 -5 -1 -8 -9 -8 -18 0 -10 4 -14 8 -8 4 6 62 12 130
13 l122 4 0 -81 c0 -45 1 -84 3 -88 1 -5 -18 -10 -43 -13 -25 -3 -55 -11 -67
-18 -20 -11 -23 -10 -23 5 0 22 -58 60 -82 55 -26 -5 -32 -46 -14 -98 17 -51
39 -73 72 -74 12 0 25 -7 28 -16 11 -27 6 -54 -8 -54 -23 0 -46 -29 -39 -48 4
-9 22 -37 40 -61 19 -24 32 -46 29 -48 -2 -3 -21 3 -42 13 -24 12 -62 18 -107
18 -88 1 -97 -9 -78 -86 17 -65 38 -98 61 -98 22 0 70 37 70 55 0 7 7 16 16
19 8 3 12 2 9 -4 -3 -6 -2 -10 3 -10 6 0 12 -10 16 -23 5 -23 25 -47 65 -79
36 -30 30 -36 -42 -52 -27 -7 -28 -7 -26 -79 1 -41 -3 -83 -10 -94 -9 -18 -6
-31 14 -71 14 -28 25 -54 25 -60 0 -5 -16 -13 -35 -16 -38 -7 -42 -17 -22 -56
7 -14 21 -50 31 -81 9 -31 24 -65 31 -75 14 -18 14 -18 15 6 0 18 9 31 30 43
17 10 30 24 30 31 0 7 9 21 19 30 18 17 19 14 15 -106 -11 -364 -11 -984 -1
-997 9 -12 9 -13 0 -7 -8 4 -13 1 -13 -8 0 -25 -9 -19 -67 42 -52 56 -83 103
-83 127 0 7 -7 15 -15 19 -8 3 -15 14 -15 25 0 10 -7 22 -15 25 -9 3 -15 12
-13 19 3 12 -118 137 -133 137 -4 0 -9 -7 -13 -15 -4 -12 -16 -14 -60 -9 -40
5 -65 2 -88 -8 -18 -9 -37 -17 -43 -19 -62 -23 -142 -102 -155 -154 -7 -25
-34 -31 -52 -11 -27 33 -97 103 -162 165 -52 50 -70 61 -76 50 -12 -18 17 -50
38 -42 10 4 13 2 8 -5 -3 -6 18 -36 49 -67 30 -31 55 -60 55 -64 0 -5 9 -18
20 -31 11 -13 20 -20 20 -16 0 5 26 -15 59 -43 32 -28 61 -48 63 -45 3 3 8 -7
12 -21 4 -14 10 -25 15 -25 5 0 17 -7 26 -16 10 -11 20 -13 26 -7 6 6 -2 21
-20 42 -24 27 -29 40 -27 79 4 97 69 164 158 164 52 0 70 -6 191 -61 61 -28
103 -61 78 -61 -6 0 -2 -13 11 -30 12 -16 28 -30 35 -30 7 0 24 -18 38 -40 14
-22 30 -40 35 -40 6 0 10 -6 10 -12 0 -7 13 -22 28 -32 33 -22 71 -74 70 -96
-4 -55 17 -85 29 -40 3 11 8 20 12 20 9 0 102 -97 187 -195 78 -90 82 -95 107
-114 16 -12 17 -12 10 5 -3 10 -18 29 -32 41 -14 12 -23 24 -20 27 2 3 57 -45
120 -107 63 -62 139 -133 167 -159 58 -52 66 -72 26 -62 -19 5 -25 4 -20 -5 4
-6 12 -9 17 -6 5 4 9 -1 9 -9 0 -18 11 -21 26 -6 8 8 32 -8 80 -51 38 -34 85
-76 104 -93 19 -17 38 -30 42 -29 5 2 8 -4 8 -13 0 -8 4 -13 8 -10 4 2 51 -37
104 -87 54 -51 145 -137 203 -192 185 -174 195 -184 195 -194 0 -6 9 -15 20
-21 11 -6 18 -15 15 -21 -4 -5 1 -9 9 -9 10 0 13 -6 10 -15 -8 -19 27 -69 79
-115 30 -26 37 -29 29 -13 -22 40 -12 42 26 8 20 -19 39 -30 40 -25 3 9 -174
191 -298 307 -63 58 -299 301 -332 341 -15 17 -31 32 -37 32 -6 0 -11 6 -11
14 0 8 -5 18 -12 22 -8 5 -9 2 -4 -11 6 -16 4 -16 -11 -4 -10 8 -27 22 -37 32
-11 9 -28 17 -38 17 -10 0 -18 7 -18 15 0 8 -16 30 -37 48 -50 46 -39 61 39
53 53 -5 60 -4 65 13 5 18 22 19 63 3 27 -10 59 -8 64 5 9 22 -13 25 -175 26
-87 0 -159 4 -159 9 0 4 -6 8 -12 8 -7 0 -22 12 -32 27 -11 14 -14 23 -8 19 7
-4 12 -5 12 -2 0 3 -18 15 -40 26 -23 12 -43 27 -46 35 -3 8 -14 17 -23 20
-10 3 -24 17 -31 30 -7 14 -19 25 -26 25 -15 0 -120 109 -117 121 2 5 -3 9
-10 9 -7 0 -42 27 -77 60 -35 33 -68 60 -74 60 -19 0 -146 140 -140 155 4 8 2
15 -4 15 -10 0 -3 783 9 1125 3 85 -6 335 -12 335 -5 0 -6 7 -3 15 4 8 1 15
-6 15 -8 0 -11 -11 -8 -29 2 -17 1 -28 -3 -26 -15 10 -17 -41 -3 -64 9 -13 11
-20 5 -17 -11 7 -16 -31 -14 -109 l1 -40 -10 33 c-7 21 -19 34 -35 38 -24 6
-53 39 -53 60 0 7 8 10 20 7 29 -8 70 5 70 22 0 8 -4 15 -10 15 -5 0 -10 9
-10 20 0 11 -4 20 -10 20 -5 0 -10 -4 -10 -10 0 -5 -12 -10 -26 -10 -41 0 -27
34 16 40 41 6 48 26 26 71 -15 31 -13 55 4 44 18 -11 19 14 3 54 -16 40 -16
45 2 76 22 43 15 99 -17 127 -20 17 -21 20 -6 29 21 12 31 57 22 103 -8 44
-16 45 -35 4 -8 -17 -21 -33 -29 -36 -11 -2 -11 0 3 11 9 8 17 28 17 45 0 25
5 32 31 41 18 6 35 11 38 11 5 0 6 -335 1 -350 -6 -17 4 -77 15 -94 13 -18 14
-18 21 9 4 18 2 30 -7 35 -9 6 -10 12 -2 22 6 7 14 91 18 188 3 96 9 207 11
245 3 39 6 117 8 175 1 58 6 112 11 119 6 11 36 13 144 8 75 -3 150 -10 167
-15 17 -6 37 -6 43 -2 16 9 -31 19 -119 26 -36 3 -72 8 -80 10 -8 3 -44 8 -79
10 -36 3 -68 7 -73 10 -4 3 -7 53 -7 112 0 59 -1 134 -2 167 -2 101 10 290 21
319 5 15 10 39 10 53 l0 26 113 -7 c105 -6 110 -5 84 9 -20 12 -50 15 -115 13
l-87 -3 -2 66 -2 65 97 -5 c53 -2 129 -5 167 -6 39 -1 93 -7 122 -14 29 -7 56
-11 60 -8 4 3 46 -1 93 -9 103 -16 96 -16 84 -4 -6 6 -42 14 -81 19 -40 5 -75
11 -80 14 -22 14 -223 38 -300 37 -31 -1 -53 3 -53 9 0 6 -20 11 -44 11 -25 0
-48 5 -51 10 -15 24 -22 241 -9 262 3 4 15 6 27 3 12 -2 72 -7 132 -10z m-966
-54 c12 -8 12 -12 -2 -26 -20 -19 -22 -56 -5 -102 13 -37 6 -52 -17 -33 -12
10 -15 10 -15 -4 0 -8 10 -18 23 -21 30 -8 37 -55 8 -55 -31 0 -51 -11 -51
-28 0 -13 -2 -13 -18 1 -16 14 -21 15 -45 2 -38 -20 -133 -42 -191 -44 -34 -1
-58 -9 -81 -27 -17 -13 -41 -24 -53 -24 -12 0 -40 -7 -63 -16 -44 -18 -58 -11
-59 27 0 9 -8 34 -17 55 -9 22 -24 67 -34 101 l-16 62 51 16 c28 9 59 20 68
26 10 5 26 9 36 9 10 0 38 6 63 14 24 7 80 21 124 31 44 10 103 23 130 30 59
16 144 18 164 6z m-698 -91 c-13 -11 -31 -20 -40 -20 -9 0 -21 -4 -27 -10 -5
-5 -27 -13 -49 -18 -22 -5 -39 -14 -37 -20 1 -7 -2 -12 -8 -12 -5 0 -10 6 -10
13 -1 8 -4 7 -13 -3 -7 -8 -23 -16 -35 -18 -13 -2 -44 -17 -70 -33 -25 -16
-51 -29 -58 -29 -6 0 -17 -7 -24 -15 -7 -8 -22 -15 -34 -15 -11 0 -54 -18 -94
-40 -40 -22 -75 -40 -78 -40 -2 0 -4 9 -4 19 0 15 24 31 98 66 53 26 109 53
124 61 14 8 32 14 40 14 8 0 38 11 66 25 29 14 57 25 63 25 6 0 23 6 37 14 36
19 58 27 112 42 64 17 68 16 41 -6z m37 -127 c7 -38 17 -69 22 -71 6 -2 10
-11 10 -21 0 -9 4 -21 9 -26 4 -6 11 -24 14 -40 6 -35 4 -36 -113 -74 -36 -12
-78 -28 -95 -35 -58 -27 -80 -35 -122 -47 -23 -7 -50 -19 -60 -28 -10 -9 -37
-27 -60 -39 -41 -21 -43 -21 -60 -3 -26 27 -59 42 -77 35 -18 -7 -18 -7 -10
-28 3 -9 11 -13 17 -9 6 4 7 1 2 -7 -4 -7 -3 -15 4 -19 7 -5 0 -18 -19 -40
-17 -18 -34 -30 -39 -27 -5 4 -16 -1 -24 -9 -9 -8 -22 -15 -30 -15 -7 0 -33
-18 -57 -40 -24 -22 -51 -40 -60 -40 -9 0 -29 -11 -44 -25 -15 -14 -33 -25
-41 -25 -8 0 -30 -13 -48 -30 -19 -16 -40 -30 -46 -30 -6 0 -29 -11 -51 -25
-31 -20 -40 -22 -40 -10 0 8 -7 15 -16 15 -8 0 -12 5 -9 11 4 6 -2 19 -14 30
-11 11 -28 33 -36 49 -9 17 -20 30 -25 30 -13 0 -13 -27 0 -35 6 -4 8 -15 5
-25 -3 -10 -1 -21 5 -25 5 -3 10 -15 10 -26 0 -11 4 -18 9 -14 6 3 13 -11 17
-31 7 -39 10 -36 -56 -81 -14 -10 -42 -35 -62 -55 -21 -21 -40 -38 -42 -38 -3
0 -20 -16 -38 -36 -68 -76 -89 -93 -105 -87 -19 8 -152 142 -171 173 -14 24
-8 35 48 87 47 44 234 195 261 212 15 9 47 34 71 55 45 40 325 226 340 226 5
0 32 16 61 35 28 19 56 35 61 35 5 0 18 8 28 17 19 17 20 16 39 -7 l19 -25 0
29 c0 24 2 27 15 16 13 -11 13 -14 0 -27 -18 -18 -19 -22 -1 -65 22 -53 57
-71 82 -43 13 13 0 55 -16 55 -5 0 -10 6 -10 14 0 8 -10 31 -21 51 -21 35 -21
36 -3 51 11 8 39 24 64 36 25 11 79 36 120 55 76 36 86 40 245 98 129 48 128
48 143 -32z m697 -100 c5 -10 10 -43 12 -73 4 -46 3 -52 -9 -42 -8 6 -17 9
-20 7 -3 -3 -32 -8 -64 -10 -96 -8 -128 -13 -156 -24 -14 -5 -29 -7 -32 -4 -3
3 -17 -6 -31 -21 -14 -15 -25 -22 -25 -16 0 6 -4 9 -9 6 -5 -4 -11 -2 -13 3
-4 12 -79 -14 -93 -31 -11 -15 -91 -17 -104 -2 -4 5 -13 28 -19 52 -8 36 -8
44 7 51 24 13 148 48 211 60 30 6 89 18 130 27 159 36 205 40 215 17z m-1355
-35 c-1 -18 -25 -48 -39 -48 -6 0 -30 -11 -52 -26 -41 -26 -78 -47 -138 -80
-19 -11 -42 -27 -52 -36 -10 -10 -30 -20 -44 -24 -14 -3 -25 -10 -25 -14 0 -4
-11 -11 -25 -14 -14 -4 -25 -13 -25 -22 0 -8 -6 -14 -13 -12 -7 2 -27 -12 -45
-29 -17 -18 -39 -33 -48 -33 -9 0 -18 -9 -21 -20 -6 -23 -28 -27 -37 -5 -5 14
36 65 52 65 4 0 21 13 38 29 17 16 46 37 65 46 32 17 88 54 99 65 3 3 27 17
53 30 26 14 56 32 65 40 10 8 35 24 57 35 22 11 55 30 74 42 38 26 61 29 61
11z m759 -152 c12 -46 8 -56 -25 -56 -13 0 -29 -9 -36 -20 -7 -11 -20 -20 -30
-20 -9 0 -20 -4 -23 -10 -3 -5 -14 -10 -24 -10 -9 0 -42 -12 -71 -26 -30 -14
-70 -27 -90 -29 -47 -3 -68 -13 -75 -35 -3 -10 -25 -25 -49 -33 l-44 -15 -31
50 -31 50 22 19 c13 10 34 22 47 25 13 4 55 23 95 42 39 20 76 36 81 37 6 1
19 5 30 10 27 11 186 72 205 78 21 7 36 -12 49 -57z m35 -111 c12 -9 16 -20
12 -32 -4 -10 1 -35 12 -58 11 -22 28 -70 39 -107 19 -60 19 -72 8 -123 -8
-31 -15 -58 -17 -60 -2 -2 -25 -5 -53 -7 l-50 -3 1 37 c1 21 11 49 23 64 27
35 27 52 -3 64 -20 7 -25 17 -28 52 l-3 43 -28 -60 c-32 -69 -32 -99 1 -103
27 -4 27 1 2 -84 -12 -37 -18 -73 -15 -79 6 -9 71 -5 117 7 9 3 35 28 57 55
36 45 41 48 50 31 5 -10 12 -30 15 -43 4 -25 12 -50 26 -84 43 -107 47 -145
17 -145 -8 0 -20 -7 -27 -15 -6 -7 -33 -17 -58 -21 -26 -4 -49 -10 -52 -13
-12 -15 -50 -30 -63 -25 -8 3 -17 -2 -20 -10 -4 -9 -16 -16 -27 -16 -12 0 -35
-7 -51 -16 -17 -8 -32 -14 -34 -12 -10 12 -63 102 -87 148 -45 84 -54 99 -75
123 -11 12 -19 27 -17 32 3 6 -12 37 -31 69 -19 32 -35 64 -35 71 0 8 -4 15
-8 17 -4 2 -23 29 -41 61 -31 56 -31 60 -14 73 10 7 23 13 28 13 6 0 2 -6 -7
-13 -20 -15 -23 -26 -8 -26 5 0 16 14 25 30 9 17 19 30 24 30 12 0 69 26 106
49 17 10 48 24 70 31 37 11 81 29 145 58 34 15 52 14 74 -3z m-1364 -115 c0
-5 -9 -12 -20 -15 -11 -3 -20 -13 -20 -21 0 -8 -7 -14 -14 -14 -8 0 -37 -22
-64 -50 -27 -27 -52 -50 -55 -50 -8 0 -53 -38 -107 -91 -26 -26 -56 -50 -68
-53 -24 -8 -42 13 -21 25 8 4 31 24 53 43 21 20 42 36 46 36 4 0 31 24 61 53
30 28 74 68 99 87 24 19 51 42 59 51 16 15 51 14 51 -1z m-271 -510 c3 -3 18
-23 34 -46 29 -43 35 -66 15 -61 -7 1 -12 -5 -13 -13 0 -8 -11 -20 -24 -27
-14 -6 -31 -23 -38 -36 -7 -14 -23 -27 -37 -31 -13 -3 -33 -21 -45 -38 -38
-60 -56 -83 -93 -121 -20 -21 -40 -52 -43 -68 -4 -17 -12 -28 -18 -26 -12 4
-47 -34 -47 -51 0 -6 -12 -21 -28 -34 -15 -12 -37 -42 -48 -64 -48 -98 -81
-116 -128 -72 -11 10 -24 18 -29 18 -4 0 -24 11 -43 25 -19 14 -50 36 -69 51
-38 27 -37 40 3 84 9 10 28 37 42 61 14 23 41 61 60 84 74 89 105 128 114 144
5 9 16 23 25 32 31 31 61 69 61 77 0 5 12 15 28 22 15 8 31 16 36 19 5 2 6 -1
3 -6 -4 -6 7 -16 24 -22 18 -6 38 -19 45 -28 7 -10 14 -13 14 -6 0 6 -4 14
-10 18 -5 3 -7 12 -4 19 6 14 -29 32 -44 22 -4 -2 -5 12 -3 32 3 31 17 49 83
110 l79 72 46 -67 c26 -38 49 -70 52 -73z m-331 -47 c2 -7 -3 -13 -10 -13 -8
0 -21 -11 -28 -25 -7 -14 -17 -25 -22 -25 -4 0 -8 -6 -8 -13 0 -7 -22 -36 -50
-64 -27 -28 -50 -55 -50 -60 0 -5 -34 -53 -76 -108 -41 -55 -84 -116 -96 -136
-20 -36 -62 -68 -74 -57 -3 4 2 18 11 32 9 14 13 31 9 38 -4 7 -4 10 0 6 9 -7
76 64 76 80 0 7 11 19 25 28 14 9 25 22 25 29 0 16 67 104 103 135 16 13 36
38 44 55 43 83 108 135 121 98z m460 -140 c12 -18 22 -38 22 -43 0 -19 -89
-100 -105 -94 -8 3 -15 11 -15 17 0 5 -11 24 -24 42 l-24 31 21 28 c12 15 35
42 51 59 27 29 30 30 40 13 6 -10 21 -34 34 -53z m62 -95 c0 -6 7 -16 15 -22
15 -11 105 -189 105 -207 0 -6 -6 -7 -12 -2 -24 14 -38 11 -38 -9 0 -17 3 -18
15 -8 10 9 15 9 15 1 0 -6 10 -11 21 -11 18 0 19 -2 9 -15 -7 -8 -16 -12 -21
-9 -5 3 -9 0 -9 -5 0 -6 7 -11 15 -11 27 0 64 -44 85 -100 25 -69 30 -89 37
-170 3 -36 12 -78 20 -93 13 -25 12 -31 -6 -60 -11 -18 -29 -44 -41 -56 -11
-13 -20 -29 -20 -36 0 -6 -8 -20 -18 -31 -10 -11 -27 -32 -37 -47 -12 -19 -20
-24 -25 -16 -4 6 -13 8 -19 5 -6 -4 -11 -3 -11 2 0 5 -10 14 -22 20 -13 6 -38
21 -56 32 -29 20 -32 20 -25 4 8 -23 65 -74 75 -68 4 2 10 -2 15 -10 4 -8 11
-15 16 -15 4 -1 6 -4 5 -8 -6 -31 -12 -43 -19 -43 -5 0 -9 -5 -9 -11 0 -16
-91 -194 -101 -197 -5 -2 -9 -13 -9 -23 0 -11 -5 -17 -10 -14 -6 3 -13 -2 -16
-12 -3 -10 -12 -30 -20 -45 -8 -14 -14 -33 -14 -41 0 -9 -4 -18 -8 -21 -12 -7
-93 15 -132 37 -19 11 -55 25 -79 31 -48 13 -63 30 -32 39 13 3 21 17 26 46 8
47 -6 92 -38 128 -26 29 -19 36 17 18 16 -8 33 -15 38 -15 6 0 26 -13 44 -30
19 -16 40 -27 48 -24 20 8 38 57 41 107 1 23 5 49 9 58 4 9 1 21 -9 29 -10 8
-15 9 -15 2 0 -13 -29 -4 -48 15 -35 34 -81 63 -100 63 -12 0 -22 -2 -22 -4 0
-2 -3 -11 -6 -20 -5 -14 29 -54 99 -113 40 -34 32 -47 -10 -19 -47 30 -111 41
-135 23 -9 -7 -21 -31 -27 -54 -7 -26 -19 -44 -30 -48 -20 -6 -36 -63 -27 -93
3 -9 29 -28 56 -41 59 -28 67 -37 40 -44 -11 -3 -18 -2 -15 3 2 4 -15 15 -38
25 -23 9 -50 21 -59 26 -9 4 -63 27 -120 50 -57 22 -109 43 -115 46 -18 7 -17
15 16 85 16 35 33 75 36 91 4 15 11 27 15 27 4 0 10 8 13 18 3 9 20 41 37 71
106 184 143 241 156 241 8 0 14 -4 14 -9 0 -5 14 -12 30 -16 17 -4 28 -11 24
-16 -3 -5 7 -9 23 -9 l28 1 -25 20 c-14 11 -33 27 -43 35 -9 7 -22 14 -28 14
-18 0 0 58 27 87 13 14 24 30 24 36 0 15 -44 -18 -55 -41 -5 -12 -13 -22 -17
-22 -5 0 -8 -7 -8 -15 0 -8 -9 -15 -20 -15 -11 0 -20 5 -20 10 0 6 -5 10 -11
10 -6 0 -17 6 -25 14 -7 8 -19 16 -25 18 -17 6 -2 58 16 58 8 0 15 8 15 18 0
9 11 30 25 46 14 16 25 33 25 37 0 5 8 16 18 26 10 10 47 56 81 102 127 169
140 181 182 180 28 0 31 -2 14 -9 -18 -8 -18 -9 -2 -9 10 -1 20 -8 23 -16 4
-8 11 -12 17 -8 7 4 8 -7 4 -33 -4 -21 -11 -40 -17 -42 -5 -2 -10 -8 -10 -13
0 -17 25 -9 49 17 18 19 26 22 32 12 6 -9 9 -8 10 7 1 17 2 17 6 3 2 -10 11
-18 19 -18 8 0 14 -5 14 -12 0 -6 3 -9 6 -5 3 3 -2 21 -11 40 -19 41 -11 65
29 87 14 7 26 17 26 22 0 5 5 6 10 3 6 -3 10 -11 10 -17z m-930 -298 c0 -9
-14 -37 -32 -61 -18 -24 -45 -69 -61 -99 -16 -30 -43 -74 -58 -97 -16 -23 -29
-48 -29 -55 0 -7 -11 -30 -25 -50 -14 -20 -25 -44 -25 -52 0 -8 -5 -18 -10
-21 -6 -4 -8 -11 -4 -16 3 -5 -5 -24 -18 -42 -13 -18 -32 -49 -42 -71 -20 -42
-45 -37 -30 5 4 13 7 30 6 37 -2 6 1 12 6 12 5 0 15 15 22 33 6 17 25 58 41
89 16 31 29 62 29 68 0 5 14 29 30 52 17 22 30 45 30 51 0 5 11 22 25 39 14
16 25 35 25 41 0 7 9 23 20 37 11 14 20 33 20 43 0 9 4 17 8 17 5 0 17 15 27
34 19 35 45 39 45 6z m340 -210 c0 -5 16 -17 35 -26 20 -9 34 -19 33 -23 -2
-3 -10 -18 -17 -33 -8 -16 -18 -28 -22 -28 -5 0 -11 -16 -15 -35 -3 -19 -10
-35 -14 -35 -5 0 -14 -16 -20 -35 -7 -20 -23 -48 -36 -62 -13 -14 -24 -32 -24
-39 0 -8 -4 -14 -8 -14 -4 0 -9 -12 -10 -26 -1 -14 -8 -32 -16 -40 -8 -7 -20
-31 -26 -51 -7 -21 -18 -45 -25 -53 -7 -8 -17 -28 -22 -45 -11 -36 -41 -43
-77 -20 -14 9 -30 14 -35 10 -25 -15 -22 46 4 102 59 127 72 152 136 264 102
178 117 199 139 199 11 0 20 -4 20 -10z m-677 -428 c3 -4 -2 -23 -12 -42 -9
-19 -25 -57 -35 -85 -9 -27 -22 -59 -27 -70 -17 -39 -39 -110 -39 -130 0 -11
-12 -51 -26 -90 -13 -38 -29 -90 -35 -115 -5 -25 -14 -63 -20 -85 -17 -71 -67
-354 -68 -388 -1 -12 -7 -17 -18 -15 -13 2 -20 16 -24 45 -3 23 -2 40 1 38 9
-6 33 112 26 124 -4 6 -2 18 3 28 6 10 15 41 21 68 6 28 18 77 26 110 8 33 18
76 20 95 3 19 12 49 20 67 8 17 14 45 14 62 0 17 4 31 9 31 5 0 12 15 16 33 4
17 14 48 22 67 9 19 20 48 24 65 33 128 83 219 102 187z m360 -165 c2 -7 26
-18 51 -25 35 -9 46 -16 44 -30 -2 -9 -5 -19 -8 -22 -11 -11 -80 -156 -80
-167 0 -6 -11 -47 -24 -90 -13 -43 -32 -112 -41 -153 -9 -41 -24 -86 -32 -98
-13 -22 -16 -22 -32 -8 -10 9 -22 12 -30 7 -7 -5 -22 -6 -32 -4 -10 3 -19 2
-19 -1 0 -10 52 -29 76 -28 12 1 27 -5 34 -13 7 -8 8 -15 3 -15 -14 0 -33 -62
-27 -87 3 -12 0 -39 -7 -60 -8 -21 -14 -42 -14 -48 -1 -5 -5 -41 -10 -80 -4
-38 -7 -102 -6 -142 1 -41 -3 -74 -9 -78 -7 -4 -7 -12 0 -24 5 -10 7 -20 5
-23 -3 -3 -7 -29 -10 -59 -2 -32 -10 -58 -19 -65 -19 -13 -21 -31 -5 -36 6 -2
13 -24 15 -48 2 -25 6 -70 10 -100 l8 -55 7 45 c4 25 8 71 8 104 l1 58 28 -8
c36 -10 164 -14 177 -5 9 6 31 7 38 1 10 -9 92 -12 165 -6 17 2 32 0 32 -4 0
-11 84 -6 92 5 5 6 8 5 8 -2 0 -7 9 -13 20 -13 11 0 20 7 20 15 0 12 -10 16
-42 15 -44 -2 -140 9 -147 16 -2 2 2 11 10 20 11 14 10 18 -6 30 -48 32 -56
47 -50 87 5 24 2 43 -5 52 -17 20 -5 19 15 -1 10 -10 24 -14 40 -10 22 6 25
11 24 54 -1 26 3 70 9 98 15 70 15 68 13 82 -1 14 -141 18 -141 3 0 -15 -30
-22 -49 -11 -17 8 -25 24 -46 85 -7 19 -8 19 -17 -5 -5 -14 -10 -41 -10 -60 1
-43 41 -133 72 -160 l23 -20 -24 -28 c-13 -15 -31 -34 -40 -42 -22 -20 -33
-80 -15 -80 11 0 116 -68 141 -92 11 -10 -203 -4 -289 8 l-48 7 6 41 c9 55 26
245 30 326 4 84 36 281 48 297 5 6 16 9 24 6 10 -3 12 0 8 10 -3 9 -12 18 -21
21 -10 4 -13 12 -8 24 4 9 18 55 30 102 38 138 62 214 77 246 8 16 18 45 22
64 3 19 14 54 22 77 15 38 19 42 43 37 14 -4 36 -13 48 -20 12 -8 29 -11 37
-8 9 3 16 1 16 -5 0 -12 72 -48 165 -81 33 -11 71 -29 85 -39 14 -10 43 -21
64 -24 22 -3 42 -10 45 -14 10 -13 80 -43 104 -44 12 0 16 -3 10 -6 -23 -9
-13 -20 15 -17 15 2 20 1 12 -3 -29 -12 -38 -28 -25 -40 7 -7 16 -9 19 -6 3 4
6 -1 6 -10 0 -9 -4 -19 -10 -22 -5 -3 -10 -1 -10 5 0 6 -5 8 -11 4 -8 -5 -8
-8 0 -13 13 -8 11 -61 -2 -61 -5 0 -7 -6 -4 -12 2 -7 -6 -34 -19 -59 -12 -25
-23 -61 -22 -80 0 -31 -28 -158 -37 -168 -2 -2 -11 3 -19 11 -8 8 -35 15 -60
16 -25 1 -57 7 -71 12 -37 14 -55 12 -49 -4 3 -7 43 -26 90 -42 82 -28 84 -30
84 -61 0 -17 -6 -38 -14 -45 -10 -11 -11 -19 -3 -33 7 -13 6 -37 -2 -79 -7
-34 -13 -70 -15 -80 -1 -11 -8 -22 -14 -24 -7 -2 -12 -11 -12 -20 0 -15 2 -15
10 -2 11 18 12 -46 1 -95 -4 -16 -3 -37 2 -46 15 -24 0 -69 -23 -69 -28 0 -36
-21 -14 -36 39 -27 42 -33 35 -66 -4 -18 -4 -76 0 -128 4 -52 10 -129 14 -170
3 -41 15 -129 26 -195 12 -66 23 -145 25 -175 2 -30 13 -74 24 -97 11 -24 20
-54 20 -67 0 -14 5 -28 10 -31 6 -3 10 -17 10 -30 0 -25 0 -25 -122 -46 -38
-6 -68 -14 -68 -19 0 -7 -97 -42 -152 -54 -22 -5 -26 -3 -21 10 3 9 0 19 -6
23 -8 6 -4 13 13 25 51 33 28 114 -38 139 -11 4 -16 13 -12 23 8 21 -30 95
-60 117 -22 16 -29 17 -57 6 -41 -16 -75 -46 -94 -83 -15 -28 -14 -31 7 -48
13 -11 31 -16 42 -12 10 3 32 2 49 -1 28 -6 29 -8 15 -24 -9 -10 -16 -21 -16
-25 0 -23 -32 -35 -86 -33 -58 2 -59 2 -62 -27 -5 -41 13 -78 51 -103 37 -26
54 -28 94 -12 58 24 73 33 73 46 0 20 16 16 47 -12 l28 -25 -22 -6 c-13 -3
-23 -10 -23 -15 0 -5 -13 -9 -30 -9 -30 0 -56 -9 -127 -43 -23 -11 -50 -21
-60 -22 -10 -1 -34 -6 -53 -10 -29 -7 -31 -9 -15 -16 14 -5 8 -8 -22 -8 -24
-1 -43 -5 -43 -10 0 -5 -8 -7 -19 -4 -14 3 -22 21 -31 64 -7 33 -17 62 -21 65
-5 3 -9 15 -9 26 0 11 -8 51 -19 87 -26 96 -49 199 -56 256 -3 28 -8 58 -11
68 -4 13 1 17 25 17 16 0 32 4 35 9 8 12 86 10 86 -3 0 -6 7 -3 14 7 7 9 23
17 34 17 11 0 23 4 26 9 6 10 97 21 196 23 36 1 68 6 71 10 3 5 43 11 90 13
46 3 85 8 87 13 1 4 20 6 41 4 21 -2 42 1 45 7 4 6 15 11 26 11 22 0 33 25 17
38 -13 11 -208 -12 -242 -28 -11 -5 -29 -10 -40 -9 -29 0 -105 -10 -115 -16
-5 -3 -48 -7 -97 -10 -48 -3 -102 -8 -118 -11 -27 -5 -32 -2 -43 23 l-12 28 6
-28 c5 -32 -4 -56 -16 -38 -5 9 -19 9 -49 2 -69 -15 -75 -9 -89 77 -16 101
-27 279 -27 422 l0 114 38 9 c46 11 47 24 5 35 l-33 8 1 95 c2 166 15 277 61
514 22 114 92 393 110 435 3 8 7 17 8 20 64 212 100 284 118 237z m7726 -62
c12 -33 27 -69 31 -80 15 -36 58 -178 75 -249 9 -38 21 -81 27 -95 12 -31 37
-131 45 -181 3 -19 10 -41 16 -48 7 -9 7 -16 -1 -24 -14 -14 -32 -1 -32 23 0
11 -7 22 -16 26 -12 4 -14 14 -10 39 4 18 2 35 -4 39 -5 3 -10 19 -10 34 0 15
-6 36 -14 46 -10 14 -11 25 -4 38 7 14 4 34 -10 75 -25 71 -46 145 -44 154 1
3 -5 12 -13 18 -8 7 -15 20 -15 30 0 10 -8 21 -17 24 -12 5 -13 10 -5 18 8 8
8 17 -1 32 -6 12 -12 35 -13 53 -2 17 -10 43 -19 57 -9 14 -14 30 -10 36 10
16 17 5 44 -65z m-73 -21 c46 -103 138 -407 138 -456 0 -20 5 -36 10 -35 5 1
10 -7 11 -18 2 -11 8 -44 14 -74 6 -29 11 -57 11 -61 0 -4 -19 -10 -42 -13
-24 -3 -86 -15 -138 -26 -52 -11 -126 -24 -165 -29 -38 -5 -77 -11 -85 -13
-10 -3 -16 7 -20 36 -3 22 -10 46 -14 54 -5 7 -10 32 -11 55 -2 48 -23 125
-41 146 -7 8 -15 36 -19 63 -4 26 -16 58 -27 72 -20 26 -46 101 -51 153 -2 17
-9 37 -15 45 -10 11 -3 16 36 25 26 6 54 13 63 17 12 5 21 -3 33 -26 9 -18 16
-38 16 -46 0 -8 5 -11 13 -7 9 5 9 4 0 -6 -10 -11 -7 -23 14 -61 15 -28 23
-57 20 -68 -3 -12 -2 -19 3 -16 8 5 36 -83 32 -102 -1 -6 2 -14 8 -18 5 -3 10
-14 10 -23 0 -24 33 -102 44 -102 4 0 5 8 1 18 -4 9 -9 34 -12 55 -3 21 -10
40 -14 43 -5 3 -9 20 -9 38 0 17 -4 36 -8 42 -5 5 -14 29 -21 53 -7 24 -19 50
-26 57 -7 8 -16 33 -20 56 -4 24 -12 54 -17 68 -5 14 -10 27 -10 30 -1 3 -8
12 -17 20 -13 13 -12 15 5 18 10 1 37 11 59 22 35 17 187 68 208 69 4 1 19
-24 33 -55z m289 -770 c8 -38 15 -85 15 -104 0 -19 4 -51 9 -70 6 -19 12 -77
15 -128 3 -52 8 -98 11 -103 8 -12 13 -267 6 -274 -9 -9 -30 87 -30 135 0 25
0 56 0 70 1 48 -8 105 -19 133 -15 35 -15 44 0 49 8 3 7 13 -4 35 -9 17 -13
42 -11 55 3 14 -2 42 -11 62 -11 26 -14 51 -9 79 5 32 2 43 -12 53 -12 9 -15
19 -10 31 9 19 11 29 13 53 4 31 23 -8 37 -76z m-635 -728 c58 -2 112 -7 121
-11 17 -6 17 -25 0 -230 -14 -159 -38 -340 -49 -362 -5 -10 -9 -34 -10 -53 -4
-69 -33 -180 -48 -180 -8 0 -14 -10 -14 -25 0 -14 5 -25 12 -25 9 0 9 -3 0
-12 -7 -7 -12 -24 -12 -38 0 -22 -29 -123 -71 -249 -8 -23 -8 -35 -1 -40 6 -4
1 -14 -12 -27 -24 -21 -22 -21 -101 11 -96 39 -96 39 -106 24 -7 -12 -9 -12
-9 1 0 18 -43 42 -120 69 -135 46 -267 94 -293 107 -25 13 -27 18 -21 52 3 20
12 47 20 59 7 12 18 52 24 90 6 37 14 77 19 88 27 61 40 109 46 173 5 47 12
73 22 76 8 3 12 10 9 15 -3 5 4 7 16 5 23 -4 23 -4 -1 8 -21 11 -23 16 -16 58
3 25 8 65 10 90 1 25 7 74 11 110 5 36 6 97 3 135 -3 39 -3 72 -1 75 10 13
364 17 572 6z m294 -16 c14 -5 27 -6 30 -2 2 4 55 6 118 5 62 -1 128 -2 146
-2 l32 -1 0 -87 c0 -153 -44 -581 -61 -597 -4 -4 -77 10 -204 38 -38 9 -72 16
-75 16 -3 0 -4 20 -2 45 3 28 0 45 -7 45 -6 0 -11 -18 -11 -40 0 -34 -4 -41
-24 -46 -24 -6 -24 -6 -5 -25 15 -15 17 -24 9 -44 -12 -32 -12 -35 -1 -35 5 0
12 11 15 25 7 29 4 29 156 -2 41 -9 82 -17 90 -17 8 -1 24 -7 34 -13 18 -10
18 -14 -8 -144 -32 -156 -131 -489 -162 -542 -12 -20 -1 -23 -126 32 -26 12
-57 21 -67 21 -11 0 -22 4 -26 9 -3 5 -19 12 -35 16 -35 8 -34 4 -15 43 14 27
28 73 49 165 12 52 -11 27 -30 -33 -18 -57 -34 -78 -34 -45 0 8 -4 15 -10 15
-5 0 -10 -11 -10 -25 0 -14 -4 -25 -9 -25 -6 0 -4 -12 4 -27 8 -15 12 -30 9
-35 -7 -12 -42 -10 -46 3 -2 5 -10 11 -18 13 -28 4 -61 27 -54 37 3 6 6 28 6
49 -1 37 12 59 33 58 19 -1 34 43 24 70 -8 20 -6 28 5 34 7 4 19 30 26 58 9
37 17 50 30 50 21 0 32 21 20 39 -8 14 -4 153 6 213 5 30 12 39 43 51 31 13
36 13 39 1 4 -18 22 -18 22 0 0 16 -34 31 -50 21 -5 -3 -10 0 -11 7 0 10 -2
10 -6 1 -6 -16 -33 9 -32 29 0 10 2 10 6 1 9 -24 20 -13 32 30 13 48 21 287 9
287 -4 0 -8 5 -8 10 0 6 6 9 12 8 17 -4 25 68 13 115 -7 27 -6 43 3 57 7 11
12 30 12 43 0 13 3 27 7 30 10 10 78 8 107 -3z m401 -117 c-4 -49 -7 -99 -6
-112 1 -22 -7 -112 -25 -291 -13 -120 -25 -180 -37 -180 -6 0 -7 13 -2 33 8
35 10 56 19 217 4 58 12 123 18 144 10 31 10 40 0 44 -16 5 -16 39 0 44 9 3
12 26 10 76 -4 77 3 112 20 112 7 0 8 -27 3 -87z m-8629 -361 c6 -4 14 -33 18
-64 4 -32 11 -60 15 -63 5 -2 11 -32 15 -66 4 -33 12 -73 18 -87 5 -15 14 -58
19 -96 5 -38 16 -80 24 -92 13 -20 29 -82 51 -191 2 -13 0 -23 -6 -23 -6 0 -8
5 -5 10 3 6 1 10 -4 10 -20 0 -78 163 -70 196 1 5 0 16 -4 24 -3 8 -13 47 -22
85 -9 39 -23 93 -30 120 -8 28 -16 75 -20 105 -7 77 -12 102 -20 123 -7 18 2
22 21 9z m7908 -864 c34 -12 63 -26 64 -30 2 -4 12 -8 23 -8 11 0 36 -7 57
-16 20 -10 44 -18 53 -20 9 -2 36 -15 60 -29 24 -13 54 -25 65 -25 44 0 49
-25 19 -93 -15 -34 -34 -78 -42 -97 -24 -54 -175 -353 -186 -368 -5 -7 -18
-27 -27 -45 -19 -33 -47 -39 -63 -11 -4 8 -15 14 -23 14 -9 0 -30 11 -47 24
-18 13 -49 27 -69 30 -34 6 -38 5 -38 -14 0 -11 7 -20 14 -20 17 0 97 -52 116
-75 7 -8 21 -15 30 -15 30 0 28 -21 -7 -74 -18 -28 -33 -56 -33 -62 0 -6 -7
-17 -16 -25 -8 -7 -24 -29 -34 -48 -10 -20 -45 -67 -79 -105 -34 -38 -61 -74
-61 -81 0 -7 -16 -28 -35 -48 -39 -41 -51 -40 -103 5 -18 15 -38 28 -44 28 -6
0 -9 3 -5 6 5 5 -22 31 -101 95 -10 8 -10 14 -1 25 7 9 8 14 1 14 -6 0 -14 -4
-17 -10 -9 -15 -19 -12 -45 10 -13 11 -26 20 -29 20 -7 0 -51 63 -51 73 0 4 6
7 14 7 8 0 18 10 21 23 4 12 20 34 36 49 16 15 29 31 29 36 0 5 11 17 25 26
14 9 25 23 25 31 0 7 8 20 19 27 10 7 22 24 26 38 8 27 35 70 35 56 0 -5 9 3
20 17 11 14 20 30 20 36 0 5 6 14 13 18 15 9 47 69 47 88 0 7 7 15 15 19 8 3
12 12 9 20 -6 17 9 49 42 89 13 16 27 41 30 55 4 15 16 43 28 62 11 19 19 42
18 52 -2 9 9 28 23 42 15 15 25 36 25 53 0 16 7 39 16 51 8 12 13 26 10 31 -3
5 1 12 10 15 8 3 12 10 9 16 -3 5 -1 10 4 10 6 0 11 7 11 15 0 19 2 19 74 -7z
m427 -193 c-4 -5 -7 -17 -6 -25 1 -8 -7 -28 -18 -43 -10 -15 -16 -35 -13 -43
3 -8 2 -12 -3 -9 -5 3 -13 -5 -16 -17 -18 -59 -210 -428 -247 -475 -6 -7 -15
-10 -20 -7 -6 4 -5 10 3 15 8 4 14 12 14 16 1 4 6 18 13 30 7 12 11 26 10 30
-1 4 6 25 15 47 9 21 17 41 17 44 0 3 12 19 27 34 15 15 28 38 30 50 2 12 7
25 12 28 5 3 16 21 25 40 33 69 58 115 73 132 8 9 12 22 8 28 -3 6 6 25 20 42
23 27 26 38 21 74 -5 41 -5 42 19 31 13 -7 20 -16 16 -22z m-7535 -227 c3 -16
9 -28 14 -28 4 0 15 -15 24 -32 20 -40 35 -65 59 -97 9 -13 17 -31 17 -39 0
-9 18 -37 41 -64 22 -26 50 -65 62 -86 36 -61 109 -162 118 -162 5 0 9 -7 9
-15 0 -8 -4 -15 -10 -15 -5 0 -12 0 -15 0 -3 0 -13 -8 -23 -18 -9 -9 -52 -43
-94 -75 -92 -70 -98 -68 -162 31 -23 37 -50 73 -59 81 -10 7 -17 18 -17 23 0
10 -39 68 -57 83 -11 10 -29 40 -78 131 -12 22 -34 53 -49 69 -14 15 -26 34
-26 41 0 8 -5 14 -11 14 -5 0 -8 4 -4 9 3 5 1 12 -5 16 -10 6 -40 70 -40 86 0
5 9 9 20 9 12 0 32 11 46 25 13 13 27 25 29 25 3 0 5 3 6 8 2 14 22 32 36 32
12 0 13 -3 4 -14 -10 -12 -8 -13 11 -9 13 3 35 15 51 25 15 11 27 16 27 12 0
-5 6 -2 13 5 10 10 16 7 34 -16 12 -15 25 -40 29 -55z m5978 -71 c11 -25 26
-37 54 -45 47 -14 67 -35 87 -91 28 -80 17 -95 -40 -55 -17 11 -47 29 -67 39
-21 11 -38 25 -38 32 0 7 -6 13 -12 13 -14 0 -58 62 -58 80 0 18 32 60 45 60
7 0 20 -15 29 -33z m1226 -371 c0 -7 -7 -19 -15 -26 -8 -7 -15 -16 -15 -21 0
-4 -13 -28 -30 -52 -16 -25 -30 -48 -30 -51 0 -4 -12 -19 -26 -34 -14 -15 -32
-39 -40 -54 -8 -16 -18 -28 -23 -28 -4 0 -18 -21 -31 -46 -13 -25 -33 -52 -44
-60 -11 -8 -17 -14 -13 -14 4 0 -7 -16 -24 -35 -36 -39 -46 -43 -51 -17 -2 9
5 21 16 27 19 10 39 38 72 103 9 17 22 32 30 32 15 0 74 82 74 103 0 26 12 47
26 47 20 0 64 64 64 94 0 18 7 29 23 36 31 12 37 12 37 -4z m-741 -201 c16 0
71 -55 71 -71 0 -10 6 -14 15 -10 15 5 85 -58 85 -76 0 -4 8 -8 18 -8 9 0 28
-14 42 -31 35 -44 48 -56 62 -62 10 -4 8 -9 -4 -20 -10 -8 -18 -17 -18 -20 0
-3 -18 -24 -40 -47 l-41 -42 -25 27 c-14 15 -30 37 -35 49 -19 40 -37 67 -63
95 -18 19 -28 41 -29 64 -1 19 -5 33 -9 31 -10 -7 -48 19 -48 32 0 6 -13 24
-30 40 -33 33 -38 59 -14 72 12 7 23 4 36 -7 10 -9 23 -16 27 -16z m-2219
-1764 c0 -10 -33 -19 -98 -26 -23 -2 -48 -7 -54 -11 -6 -4 -34 -8 -62 -10 -28
-1 -114 -7 -191 -13 -173 -13 -375 -14 -395 -1 -12 7 -8 10 15 10 252 6 330
10 455 25 25 2 101 9 169 15 69 6 127 13 130 15 8 9 31 5 31 -4z"/>
<path d="M4352 8228 c-5 -8 -8 -60 -7 -123 3 -149 4 -158 13 -172 13 -20 50
-3 57 25 4 15 12 34 20 42 7 8 16 25 19 38 6 18 3 22 -13 22 -12 0 -22 -6 -22
-12 -1 -7 -5 23 -9 67 -4 44 -10 90 -14 103 -8 24 -28 29 -44 10z"/>
<path d="M3850 8168 c0 -4 6 -8 14 -8 19 0 40 -26 26 -35 -5 -3 -10 1 -10 9 0
9 -4 16 -10 16 -18 0 -11 -29 13 -51 12 -12 16 -19 9 -14 -14 7 -52 -20 -52
-38 0 -22 -33 -77 -50 -82 -10 -3 -28 -1 -41 4 -13 5 -33 12 -43 16 -17 5 -14
11 27 53 26 26 47 51 47 55 0 20 -150 -19 -165 -42 -3 -6 -18 -4 -38 4 -37 15
-77 9 -124 -20 -37 -21 -38 -27 -21 -75 14 -42 38 -70 59 -70 21 0 74 51 94
90 9 17 27 35 41 40 47 18 54 11 23 -22 -38 -42 -37 -56 6 -74 69 -28 151 -7
198 52 l21 28 7 -25 c4 -13 7 -35 8 -49 1 -20 -1 -22 -9 -10 -5 8 -10 11 -10
7 0 -5 9 -22 20 -37 14 -19 22 -52 26 -102 6 -73 6 -73 -22 -85 -15 -7 -34
-13 -41 -13 -7 0 -13 -4 -13 -9 0 -6 16 -7 36 -4 29 5 40 1 64 -22 17 -16 31
-27 32 -24 2 2 10 17 18 34 17 32 45 42 137 47 37 2 53 7 53 17 0 9 -8 12 -27
7 -53 -12 -115 -18 -137 -12 -27 7 -42 48 -56 156 -12 100 -52 275 -64 288
-10 9 -46 10 -46 0z"/>
<path d="M4681 8159 c-22 -24 -26 -40 -14 -53 5 -4 6 -34 5 -67 -4 -64 5 -72
49 -48 16 8 30 7 60 -5 62 -25 84 -21 118 23 34 43 41 93 16 125 -13 17 -19
18 -54 8 -22 -7 -53 -27 -70 -47 -40 -46 -61 -46 -56 -1 1 18 6 43 10 55 3 12
2 21 -4 21 -5 0 -16 3 -24 6 -8 3 -24 -5 -36 -17z"/>
<path d="M4163 8126 c-18 -18 -21 -30 -17 -85 3 -63 15 -91 38 -91 21 0 95 60
101 83 3 12 13 39 22 60 9 20 14 39 11 42 -2 3 -33 7 -69 9 -55 3 -67 1 -86
-18z"/>
<path d="M2515 7955 c-27 -27 -65 -46 -77 -39 -5 3 -15 0 -21 -8 -18 -22 -163
-130 -213 -159 -25 -14 -64 -44 -87 -67 -24 -23 -47 -42 -52 -42 -16 -1 -58
-40 -51 -47 6 -6 64 22 76 37 12 15 78 60 87 60 6 0 27 15 46 33 40 37 64 57
70 57 2 0 46 28 98 62 51 34 119 74 151 90 31 15 59 32 63 37 11 19 -70 6 -90
-14z"/>
<path d="M2630 7830 c0 -88 4 -80 -78 -151 -16 -15 -33 -35 -36 -46 -3 -11
-20 -29 -36 -41 -34 -26 -36 -40 -15 -86 14 -29 58 -56 93 -56 6 0 23 23 37
51 21 43 24 60 19 100 -5 36 -11 49 -23 49 -14 0 -14 2 -1 10 25 16 28 12 45
-45 12 -43 22 -58 41 -65 59 -23 87 -5 99 61 3 17 10 40 15 50 13 23 13 56 0
64 -15 9 -50 16 -90 19 l-35 2 -9 82 c-5 45 -13 82 -17 82 -5 0 -9 -36 -9 -80z"/>
<path d="M6035 7791 c-108 -38 -123 -48 -102 -72 43 -50 115 -77 161 -60 20 8
26 20 33 63 16 94 5 102 -92 69z"/>
<path d="M6450 7603 c-8 -3 -23 -13 -33 -22 -11 -9 -40 -28 -65 -42 -41 -23
-47 -30 -46 -56 1 -25 -4 -34 -30 -47 l-31 -17 41 6 c35 4 48 0 85 -27 31 -23
53 -31 77 -30 20 2 44 -5 62 -18 41 -29 77 -18 97 29 8 20 22 51 31 69 8 17
13 35 9 38 -3 3 -34 -4 -69 -16 -124 -42 -135 -45 -152 -31 -22 18 -20 30 7
40 31 12 87 60 87 75 0 14 -37 56 -48 55 -4 0 -14 -3 -22 -6z"/>
<path d="M6790 7261 c-19 -16 -32 -32 -28 -36 4 -5 14 -2 23 5 20 16 19 6 -1
-25 -16 -25 -16 -25 20 -40 19 -8 50 -15 68 -15 l33 0 -25 -20 c-14 -11 -28
-20 -33 -20 -19 0 -77 -47 -77 -62 0 -32 49 -21 94 20 23 20 61 53 84 72 23
19 42 41 42 48 0 14 -46 16 -55 2 -8 -13 -58 -13 -72 1 -7 7 -8 21 -2 42 5 18
9 38 9 44 0 23 -45 14 -80 -16z"/>
<path d="M6965 7088 c-65 -33 -92 -53 -106 -80 -15 -27 39 -50 108 -46 l57 3
20 61 c19 62 17 94 -6 94 -7 -1 -40 -15 -73 -32z"/>
<path d="M7144 6805 c-53 -42 -56 -98 -7 -131 52 -33 138 -9 126 36 -12 45
-68 50 -76 7 -3 -20 -4 -20 -11 6 -10 35 15 77 47 77 13 0 37 -15 56 -35 26
-28 40 -35 72 -35 46 0 48 8 14 48 -18 22 -40 34 -76 41 -77 17 -111 13 -145
-14z"/>
<path d="M7304 6645 c-4 -8 -10 -15 -15 -15 -5 0 -27 -8 -49 -17 -67 -30 -45
-78 42 -89 14 -2 30 -4 35 -5 25 -4 40 4 50 29 7 15 18 34 24 43 18 25 -15 69
-52 69 -17 0 -32 -6 -35 -15z"/>
<path d="M7510 6289 c-19 -5 -44 -14 -55 -19 -11 -4 -41 -11 -68 -14 -50 -6
-113 -33 -103 -44 9 -8 82 -3 121 8 17 4 49 10 72 13 37 4 41 3 28 -10 -8 -8
-15 -18 -15 -22 0 -4 -20 -29 -45 -55 -51 -55 -58 -79 -20 -72 38 7 51 17 116
91 34 39 72 77 85 85 33 20 30 36 -7 44 -40 8 -65 7 -109 -5z"/>
<path d="M7575 6125 c-60 -22 -104 -54 -105 -76 -1 -27 98 -63 146 -53 23 4
33 15 47 49 21 50 19 99 -3 102 -8 1 -46 -9 -85 -22z"/>
<path d="M7798 5813 c-27 -11 -37 -21 -35 -36 1 -15 -4 -20 -23 -22 -26 -3
-60 11 -71 28 -15 22 -36 -3 -42 -48 -7 -45 -5 -49 39 -101 26 -30 52 -54 58
-54 7 0 17 -17 22 -37 17 -68 111 -91 175 -42 l24 18 -35 31 c-19 17 -50 36
-67 42 -34 12 -41 22 -23 33 6 3 10 19 10 35 0 28 1 28 32 19 45 -12 99 -1
105 22 3 10 10 16 15 13 21 -13 -27 53 -61 83 -40 36 -66 39 -123 16z"/>
<path d="M4453 5218 c-12 -17 -14 -45 -16 -210 -1 -76 -4 -138 -7 -138 -3 0
-24 18 -45 40 -44 45 -56 50 -48 20 3 -11 9 -20 13 -20 5 0 10 -8 12 -17 2
-10 12 -18 23 -18 13 0 19 -6 17 -16 -1 -9 5 -22 13 -29 19 -16 20 -60 1 -60
-7 0 -16 -9 -19 -19 -4 -18 -12 -19 -68 -15 -35 2 -74 6 -86 9 -13 3 -23 1
-23 -5 0 -5 10 -11 23 -11 16 -1 18 -2 5 -6 -30 -8 -20 -23 15 -23 23 0 28 3
17 10 -20 12 -9 21 18 13 12 -3 19 -9 16 -14 -3 -5 -1 -9 5 -9 5 0 13 5 17 11
10 16 64 -41 64 -68 0 -13 4 -23 10 -23 16 0 39 -55 30 -70 -6 -9 -4 -18 3
-23 9 -7 9 -10 0 -14 -21 -8 -15 -22 7 -16 17 4 20 14 20 54 l0 49 37 0 c24 0
45 8 59 21 l23 21 60 -53 c34 -29 61 -56 61 -60 0 -6 46 -29 58 -29 4 0 8 9 8
20 0 11 -3 20 -6 20 -14 0 -170 161 -165 170 3 5 -12 21 -35 35 -22 14 -40 29
-40 34 0 5 -9 11 -20 14 -22 6 -25 28 -21 122 2 32 8 55 19 63 14 11 14 12 0
12 -22 0 -27 20 -22 88 3 44 1 62 -10 71 -11 9 -13 19 -5 37 5 14 9 30 9 35 0
13 -16 11 -27 -3z"/>
<path d="M7814 5206 c-4 -9 -4 -31 0 -49 13 -71 13 -72 -16 -72 -29 0 -39 -16
-16 -26 85 -41 167 -45 230 -13 15 8 31 14 35 14 5 -1 9 5 11 13 4 21 -47 77
-70 77 -11 0 -38 13 -61 30 -53 38 -104 49 -113 26z"/>
<path d="M1844 5090 c-24 -10 -54 -47 -54 -68 0 -7 5 -10 10 -7 6 3 10 -3 10
-14 0 -47 31 -66 69 -42 12 8 12 12 2 25 -17 20 -9 42 18 49 16 4 21 0 21 -16
0 -46 12 -67 36 -67 12 0 25 4 28 9 3 5 32 -4 64 -21 66 -32 90 -31 134 7 l27
23 -17 51 c-9 28 -23 51 -30 51 -7 0 -47 -16 -89 -36 -80 -38 -93 -37 -93 14
0 21 -3 23 -30 17 -37 -8 -70 2 -70 21 0 16 -6 16 -36 4z"/>
<path d="M7890 4991 c-15 -29 -13 -50 11 -98 26 -54 53 -71 78 -49 10 9 29 16
42 16 27 0 69 25 69 42 0 15 -58 64 -103 88 -48 25 -83 26 -97 1z"/>
<path d="M3783 4873 c9 -2 17 -9 17 -15 0 -5 17 -27 39 -48 29 -29 36 -41 27
-51 -8 -9 -8 -10 1 -5 9 5 35 -12 111 -74 6 -6 12 -8 12 -4 0 3 7 1 15 -6 8
-7 15 -20 15 -29 0 -10 10 -27 23 -39 25 -24 43 -29 31 -10 -4 7 -3 8 4 4 6
-4 9 -13 6 -20 -6 -16 95 -119 111 -112 7 2 19 -13 28 -33 17 -38 68 -91 120
-124 15 -10 27 -22 27 -28 0 -6 14 -22 30 -36 22 -18 29 -31 25 -44 -4 -11 -3
-19 2 -19 4 0 7 -36 5 -80 -3 -61 0 -83 12 -95 8 -8 16 -15 18 -15 2 0 2 33 2
72 -1 40 2 81 7 90 8 16 15 12 52 -30 23 -26 87 -92 141 -146 54 -55 102 -110
107 -123 5 -12 15 -23 24 -23 8 0 15 -4 15 -8 0 -5 8 -8 18 -8 9 0 47 -3 84
-8 136 -17 187 7 252 118 35 61 47 150 19 144 -19 -4 -35 -32 -54 -95 -6 -23
-31 -63 -54 -90 -42 -47 -44 -48 -99 -47 -32 0 -60 5 -64 11 -4 6 -25 14 -47
18 -28 5 -52 20 -78 46 -21 22 -42 39 -47 39 -6 0 -10 4 -10 9 0 13 -122 131
-137 131 -7 0 -13 6 -13 14 0 8 -7 16 -15 20 -8 3 -15 12 -15 19 0 8 -11 19
-25 25 -14 6 -25 15 -25 19 0 5 -11 21 -25 36 -14 15 -22 27 -17 27 14 0 21
85 15 163 -5 57 -9 67 -24 67 -16 0 -19 -8 -20 -47 -1 -27 -3 -61 -4 -78 -1
-16 3 -42 10 -57 11 -22 11 -29 -1 -39 -11 -9 -14 -9 -14 1 0 21 -218 232
-232 224 -7 -5 -9 -2 -5 8 6 17 -65 93 -76 82 -4 -4 -7 -1 -7 7 0 23 -102 123
-114 112 -3 -4 -6 -1 -6 6 0 6 7 14 15 17 8 4 13 10 10 15 -3 4 -12 6 -19 3
-7 -3 -20 2 -29 10 -9 9 -18 16 -22 16 -4 0 -24 19 -45 41 -45 49 -89 79 -110
78 -11 -1 -10 -3 3 -6z"/>
<path d="M7601 3393 c-6 -10 -11 -13 -12 -8 0 6 -4 -1 -8 -15 -9 -32 57 -150
95 -171 25 -13 28 -12 49 15 41 51 43 119 4 129 -10 3 -19 11 -19 19 -1 14
-61 48 -85 48 -8 0 -19 -8 -24 -17z"/>
<path d="M7456 3218 c-20 -97 -18 -115 16 -150 18 -19 54 -58 80 -87 35 -39
53 -52 70 -49 42 6 34 41 -23 97 -29 28 -56 51 -60 51 -6 0 -39 62 -39 74 0 3
16 -2 35 -11 19 -9 35 -20 35 -25 0 -11 108 -41 126 -34 15 6 19 43 6 62 -4 6
-18 15 -32 18 -26 8 -68 25 -136 57 -53 25 -73 24 -78 -3z"/>
<path d="M1442 2992 c-22 -18 -34 -39 -39 -64 -5 -37 -5 -38 23 -38 44 1 69
21 69 55 0 20 5 30 15 30 11 0 15 -10 14 -39 l-1 -38 35 6 c50 8 60 21 42 53
-18 32 -66 61 -100 62 -14 0 -40 -12 -58 -27z"/>
<path d="M1611 2888 c-46 -13 -61 -30 -61 -71 0 -37 27 -57 77 -57 26 0 26 0
8 20 -18 20 -18 21 1 47 28 37 41 39 47 6 7 -37 -14 -84 -49 -112 -49 -39
-133 -14 -134 40 0 37 -47 52 -71 23 -21 -26 55 -88 140 -115 l68 -22 33 24
c69 49 78 61 85 105 4 31 1 53 -10 78 -22 46 -60 56 -134 34z"/>
<path d="M3975 2488 c-6 -38 -4 -51 24 -132 26 -75 69 -148 83 -144 19 7 26
92 16 206 -8 80 -12 92 -34 92 -13 0 -14 -15 -8 -104 4 -73 3 -105 -5 -110
-21 -13 -45 64 -45 147 -1 53 -4 77 -13 77 -7 0 -15 -15 -18 -32z"/>
<path d="M6795 2510 c-4 -6 -1 -10 4 -10 6 0 11 -6 11 -13 0 -8 9 -22 20 -32
11 -10 20 -26 20 -37 0 -12 7 -18 21 -18 17 0 19 -4 13 -22 -4 -13 -8 -59 -8
-103 l0 -80 47 1 c40 0 52 5 73 30 l25 29 45 -48 c28 -29 57 -49 75 -52 l30
-5 -22 29 c-12 17 -28 32 -36 35 -7 3 -13 11 -13 17 0 13 -47 65 -175 193 -72
72 -119 103 -130 86z"/>
<path d="M2570 2384 c0 -5 17 -23 37 -39 20 -17 44 -37 52 -45 9 -8 29 -21 44
-27 15 -7 27 -18 27 -25 0 -7 13 -22 29 -32 26 -18 27 -22 17 -49 -6 -16 -20
-39 -31 -52 -11 -12 -25 -31 -32 -41 -67 -108 -93 -156 -88 -164 3 -6 0 -10
-8 -10 -8 0 -22 -19 -33 -42 -10 -24 -25 -50 -34 -58 -16 -17 -36 -46 -47 -70
-3 -8 -19 -34 -35 -57 -15 -23 -28 -46 -28 -52 0 -11 -21 -15 -70 -13 -16 0
-19 -1 -7 -5 9 -2 14 -9 11 -15 -4 -6 3 -5 16 2 20 11 19 5 -13 -52 -20 -34
-43 -64 -52 -66 -8 -2 -15 -12 -15 -23 0 -10 -9 -27 -20 -36 -11 -10 -20 -21
-20 -25 0 -4 -11 -24 -25 -44 -14 -20 -30 -54 -37 -75 -6 -22 -15 -39 -20 -39
-4 0 -3 -9 4 -19 14 -24 32 -16 25 10 -6 21 8 26 16 7 4 -8 6 -7 6 3 1 9 17
34 36 55 19 22 35 47 35 57 0 9 8 17 18 18 11 0 13 2 4 6 -10 4 -9 8 5 18 10
7 34 42 52 79 19 36 38 66 43 66 5 0 13 10 18 23 l9 22 7 -22 c5 -17 9 -19 19
-10 11 10 11 15 0 27 -10 12 -9 23 6 58 10 23 23 42 29 42 11 0 14 26 3 33 -5
2 -2 2 4 1 7 -2 20 10 28 26 18 34 19 44 5 35 -5 -3 -10 -3 -10 2 0 14 16 34
26 32 24 -4 36 2 30 17 -3 8 -2 13 2 10 7 -4 109 155 121 188 2 6 18 29 36 51
18 22 35 50 39 62 9 27 29 35 62 23 40 -16 53 -11 15 6 -31 13 -33 16 -19 32
8 9 18 32 21 50 6 29 4 32 -17 32 -15 0 -27 -9 -34 -25 -6 -14 -16 -25 -22
-25 -11 0 -51 21 -60 31 -3 3 -23 18 -45 35 -22 16 -44 34 -50 40 -20 22 -85
66 -85 58z"/>
<path d="M6734 2263 c-4 -10 -6 -39 -5 -65 3 -47 2 -48 -27 -48 -17 0 -34 5
-37 10 -11 18 -35 10 -47 -15 -17 -39 3 -75 42 -75 39 0 80 26 80 51 0 28 16
23 29 -8 7 -16 27 -45 45 -65 l33 -37 27 28 c32 33 36 76 7 66 -15 -4 -27 4
-50 39 -17 25 -40 66 -51 91 -21 48 -33 56 -46 28z"/>
<path d="M7172 2147 c-14 -16 43 -81 64 -73 8 3 14 1 14 -4 0 -6 -4 -10 -10
-10 -5 0 -7 -6 -4 -14 5 -14 -138 -159 -215 -218 -51 -38 -62 -58 -32 -58 14
0 51 31 103 85 45 47 90 88 100 91 10 3 18 11 18 18 0 20 44 56 68 56 12 0 22
-6 22 -14 0 -8 8 -13 17 -12 10 0 19 -7 21 -18 2 -11 14 -27 26 -37 18 -15 19
-21 9 -38 -18 -29 -16 -31 11 -18 13 6 22 17 19 23 -2 7 0 15 6 19 6 3 11 11
11 16 0 6 -5 7 -10 4 -17 -11 -49 5 -43 21 3 9 -7 27 -26 44 -38 36 -39 63 -6
92 26 22 34 53 13 46 -6 -2 -16 -13 -22 -23 -13 -23 -37 -44 -51 -45 -6 0 -29
18 -51 40 -33 31 -44 37 -52 27z"/>
<path d="M2388 2132 c7 -5 12 -13 10 -18 -1 -5 8 -35 20 -68 22 -56 22 -59 5
-72 -10 -7 -25 -14 -34 -14 -21 0 -68 -23 -73 -36 -5 -12 80 -84 99 -84 7 0
18 7 25 15 7 9 29 15 51 15 l39 0 -6 54 c-6 53 -6 55 25 70 43 23 39 35 -11
33 -34 -2 -44 2 -53 20 -21 40 -60 80 -85 87 -16 5 -20 4 -12 -2z"/>
<path d="M2226 2071 c-14 -22 -26 -45 -26 -50 0 -15 29 -21 105 -21 77 0 85 5
85 55 0 32 -18 43 -82 51 l-56 7 -26 -42z"/>
<path d="M6080 2048 c-47 -22 -92 -45 -100 -50 -8 -4 -26 -14 -40 -20 -14 -7
-31 -18 -38 -25 -7 -7 -22 -13 -32 -13 -10 0 -22 -4 -25 -10 -3 -5 -15 -10
-26 -10 -11 0 -37 -11 -58 -25 -22 -13 -51 -27 -65 -31 -14 -3 -26 -10 -26
-15 0 -5 -12 -9 -27 -10 -25 0 -26 -1 -8 -9 13 -5 28 -3 42 6 12 7 41 16 65
20 24 3 54 14 68 24 36 25 107 60 121 60 7 0 21 7 31 17 17 15 18 15 18 -15 0
-18 10 -43 25 -60 14 -17 25 -36 26 -43 0 -8 5 0 10 16 5 19 5 31 -1 33 -6 2
-7 15 -4 28 4 15 2 24 -5 24 -6 0 -11 11 -11 25 0 16 6 25 16 25 9 0 30 11 48
25 17 14 45 37 61 50 17 13 28 24 25 24 -3 0 -43 -18 -90 -41z"/>
<path d="M3010 2072 c0 -13 88 -71 120 -79 14 -3 37 -14 52 -24 14 -11 30 -19
34 -19 4 0 18 -10 30 -21 18 -17 22 -28 17 -53 -3 -17 -9 -35 -13 -41 -3 -5
-15 -32 -25 -60 -20 -56 -35 -91 -77 -181 -15 -34 -28 -64 -28 -67 0 -3 -13
-34 -29 -69 -16 -35 -35 -82 -42 -106 -20 -69 -37 -74 -109 -31 -8 5 -35 19
-60 30 -25 12 -66 32 -91 45 -54 28 -78 32 -60 10 22 -27 -4 -24 -47 5 -30 20
-42 24 -42 14 0 -18 81 -73 99 -67 9 3 11 0 6 -8 -6 -10 -2 -12 13 -8 12 4 20
3 17 -2 -7 -11 167 -100 194 -100 17 0 21 -6 21 -30 0 -32 -29 -100 -42 -100
-5 0 -6 -5 -2 -12 13 -20 13 -68 0 -61 -6 4 -5 -1 3 -10 13 -16 15 -15 32 13
10 16 24 30 30 30 9 0 9 4 0 14 -8 10 -6 25 11 64 19 42 27 50 43 46 25 -6 94
-33 117 -45 10 -5 28 -9 42 -9 13 0 40 -7 60 -15 21 -9 36 -11 36 -5 0 5 5 10
10 10 6 0 10 -7 8 -16 -2 -10 3 -19 10 -21 6 -3 12 2 12 11 0 24 15 19 29 -10
8 -19 17 -25 31 -21 11 3 20 1 20 -4 0 -4 7 -6 15 -3 8 4 12 10 9 15 -3 5 2 6
10 3 8 -3 12 -12 9 -20 -3 -8 1 -14 10 -14 9 0 23 -3 31 -6 12 -5 15 -2 10 10
-10 25 10 19 38 -12 19 -22 24 -36 20 -60 -2 -18 -9 -32 -14 -32 -6 0 -5 -6 2
-15 16 -20 28 -11 28 21 0 38 36 64 81 57 20 -3 41 -11 46 -17 17 -20 48 -28
57 -14 6 10 10 10 18 -2 9 -13 11 -13 20 0 16 24 13 26 -57 44 -126 33 -118
27 -116 81 1 26 6 51 11 54 8 5 21 56 27 106 2 21 18 70 25 80 4 6 11 35 15
65 4 30 15 82 25 115 10 33 24 91 31 128 12 62 15 68 33 62 12 -3 44 -10 71
-14 28 -5 62 -12 78 -16 17 -5 27 -3 27 4 0 5 -19 15 -42 21 -24 6 -57 18 -75
26 -17 8 -43 14 -57 14 -14 0 -26 5 -26 11 0 7 -12 9 -35 5 -19 -4 -35 -3 -35
2 0 14 -48 32 -85 32 -19 0 -35 4 -35 8 0 10 -84 48 -164 73 -33 11 -78 28
-100 38 -23 10 -70 31 -106 46 -74 31 -150 68 -197 97 -18 11 -33 15 -33 10z
m331 -186 c26 -8 66 -24 90 -35 23 -12 47 -21 52 -21 6 0 15 -8 22 -17 8 -11
25 -16 54 -15 22 1 41 -2 41 -7 0 -9 17 -14 80 -26 91 -17 87 -12 64 -80 -8
-26 -16 -56 -18 -68 -1 -12 -5 -29 -8 -37 -4 -8 -9 -42 -13 -75 -11 -108 -21
-133 -66 -155 -55 -29 -97 -13 -71 26 4 6 30 23 59 38 31 15 50 31 48 39 -6
14 -62 36 -113 44 -18 3 -46 18 -62 34 -23 23 -37 29 -73 29 -47 0 -106 -24
-108 -43 -9 -78 -5 -109 19 -145 11 -16 68 6 97 39 29 32 79 51 107 40 13 -5
32 -12 42 -16 16 -5 9 -13 -42 -46 -34 -22 -62 -46 -62 -53 0 -40 98 -51 143
-15 29 22 67 33 67 19 0 -4 -5 -10 -12 -12 -6 -2 -12 -15 -14 -29 -1 -13 -8
-44 -14 -69 -6 -25 -12 -67 -12 -95 -1 -27 -3 -44 -5 -37 -3 8 -10 6 -21 -8
-16 -18 -20 -19 -62 -6 -25 8 -85 26 -135 41 -49 15 -98 31 -107 36 -10 5 -26
9 -37 9 -10 0 -24 7 -31 15 -7 8 -18 15 -24 15 -6 0 -27 8 -46 18 -19 11 -47
22 -62 26 -18 4 -28 13 -28 25 0 22 21 84 31 91 10 7 29 82 23 92 -3 4 2 11
10 14 9 3 16 16 16 28 0 12 6 30 13 41 8 11 31 63 52 115 21 52 42 99 46 105
5 5 9 17 9 27 0 10 3 18 8 18 4 0 12 17 19 37 10 32 9 39 -5 50 -22 16 -17 16
39 -1z"/>
<path d="M6405 2009 c-4 -5 -9 -44 -10 -85 -2 -40 -6 -78 -9 -83 -4 -5 -3 -17
0 -26 5 -13 14 -15 43 -10 23 4 32 3 26 -3 -13 -13 -87 -23 -101 -14 -6 4 -14
35 -16 68 -7 79 -12 87 -51 78 -45 -9 -67 -36 -67 -81 -1 -21 -5 -58 -10 -83
-4 -25 -6 -47 -4 -49 2 -2 21 -7 41 -10 42 -7 38 3 42 -125 1 -56 15 -54 17 2
4 86 19 122 50 122 41 0 90 26 118 62 14 19 26 40 26 47 0 6 9 21 20 33 44 47
13 121 -62 153 -44 18 -45 18 -53 4z"/>
<path d="M3115 1870 c-3 -5 -16 -10 -29 -10 -12 0 -43 -13 -69 -30 -55 -35
-56 -35 -93 -15 -33 17 -126 20 -154 5 -17 -9 -18 -19 -14 -97 2 -48 8 -91 12
-95 14 -14 48 3 58 31 14 36 83 71 95 48 5 -8 20 -18 34 -21 36 -9 31 -22 -16
-48 -23 -13 -52 -29 -64 -36 -25 -13 -24 -52 1 -52 7 0 39 -11 70 -25 49 -22
62 -24 90 -15 20 7 34 19 38 34 3 13 20 55 37 92 35 80 35 78 13 83 -12 2 -15
-2 -11 -13 4 -9 2 -16 -3 -16 -6 0 -10 -6 -10 -14 0 -7 -6 -19 -14 -25 -8 -7
-24 -32 -35 -57 l-22 -45 -27 19 c-15 11 -33 17 -39 15 -7 -3 -13 3 -13 12 0
9 26 32 60 53 61 38 70 55 32 60 -28 4 -45 27 -37 51 3 11 35 42 71 68 35 26
64 48 64 50 0 7 -19 2 -25 -7z"/>
<path d="M5409 1817 c-1 -7 -1 -17 0 -24 3 -20 -30 -33 -169 -65 -25 -5 -51
-10 -57 -11 -7 0 -13 -6 -13 -14 0 -15 85 -19 94 -4 4 5 29 12 56 16 27 4 52
11 56 16 8 13 44 11 48 -3 2 -7 9 -33 16 -57 10 -39 13 -42 27 -29 12 12 13
20 4 36 -16 30 -14 77 4 92 9 7 18 10 22 7 3 -4 15 0 27 8 11 8 30 15 42 15
12 0 27 7 34 15 10 12 10 15 -3 15 -9 0 -19 -4 -22 -10 -3 -5 -16 -10 -29 -10
-12 0 -26 -4 -31 -9 -6 -4 -23 -11 -38 -15 -23 -6 -30 -3 -34 13 -6 22 -32 37
-34 18z"/>
<path d="M5922 1670 c-42 -52 -86 -144 -79 -164 10 -24 90 -21 137 5 53 30 65
56 48 105 -31 91 -64 108 -106 54z"/>
<path d="M5720 1673 c-69 -13 -144 -150 -111 -202 14 -21 44 5 35 31 -8 25 4
75 23 93 21 21 60 19 68 -4 3 -10 -3 -42 -14 -70 l-19 -51 33 -14 c18 -8 36
-20 40 -27 13 -20 6 -110 -10 -126 -8 -8 -15 -19 -15 -24 0 -41 74 59 91 124
17 61 7 91 -37 112 -35 17 -36 18 -29 59 14 80 12 101 -10 102 -11 1 -31 0
-45 -3z"/>
<path d="M5392 1468 c-42 -43 -92 -110 -92 -124 0 -9 -10 -14 -27 -14 l-28 1
21 17 c24 20 44 54 44 74 0 7 -18 23 -40 36 -37 21 -42 22 -70 7 -16 -9 -30
-20 -30 -26 0 -5 -12 -8 -27 -7 -26 3 -28 0 -28 -32 0 -19 -6 -46 -13 -59 -17
-28 -5 -42 25 -30 15 5 21 14 17 23 -3 9 4 29 16 46 17 23 25 28 38 20 46 -26
46 -26 21 -61 -24 -36 -49 -58 -62 -59 -5 0 -5 5 -1 12 4 7 3 8 -5 4 -8 -6 -9
-12 -2 -20 6 -7 8 -16 4 -19 -3 -4 -1 -13 5 -20 7 -8 9 -17 5 -20 -3 -4 -1 -7
6 -7 7 0 11 6 8 13 -7 19 25 36 81 44 26 3 54 12 62 19 12 10 24 10 57 1 39
-10 45 -9 66 11 13 12 28 22 34 22 6 0 16 13 23 29 10 24 9 35 -5 62 -21 41
-54 79 -69 79 -6 0 -21 -10 -34 -22z"/>
<path d="M4535 1363 c-13 -44 -14 -61 -5 -78 7 -12 10 -58 8 -113 -2 -74 0
-95 12 -102 31 -19 39 11 43 150 5 164 1 200 -24 200 -13 0 -22 -15 -34 -57z"/>
<path d="M4693 1373 c-17 -9 -36 -27 -43 -42 -7 -14 -19 -40 -27 -58 -20 -41
-12 -60 26 -61 17 0 40 -3 51 -7 19 -6 54 7 76 30 21 21 26 71 9 85 -9 8 -23
26 -31 42 -17 32 -18 32 -61 11z"/>
<path d="M4262 1362 c-14 -14 -21 -40 -26 -88 -4 -38 -10 -84 -13 -101 -4 -27
-2 -33 13 -33 20 0 64 45 64 66 0 7 4 14 8 16 13 5 -1 151 -15 155 -6 2 -20
-4 -31 -15z"/>
<path d="M4045 1353 c-16 -9 -33 -20 -36 -25 -6 -10 38 -109 54 -119 18 -12
49 4 98 51 56 54 62 77 22 85 -16 3 -42 10 -59 15 -39 13 -43 12 -79 -7z"/>
<path d="M3029 7913 c-15 -2 -38 -17 -53 -32 -25 -26 -26 -30 -16 -77 12 -54
43 -99 62 -91 22 9 81 154 74 182 -6 25 -12 27 -67 18z"/>
<path d="M1845 6969 c-73 -9 -95 -18 -95 -37 0 -9 -9 -32 -20 -50 -23 -37 -26
-72 -7 -91 10 -11 9 -12 -1 -6 -7 4 -33 4 -58 0 -39 -5 -46 -11 -59 -42 -17
-41 -11 -106 13 -130 21 -21 91 -11 113 15 9 11 16 41 17 67 3 63 8 68 53 61
41 -7 72 13 98 62 10 19 15 21 27 11 34 -28 -9 -176 -48 -163 -22 6 -37 -41
-19 -59 25 -25 121 119 121 181 0 55 -23 120 -55 155 -29 31 -32 33 -80 26z"/>
<path d="M1227 5901 c-33 -22 -69 -69 -98 -129 -12 -24 -28 -46 -35 -49 -8 -3
-14 -9 -14 -14 0 -6 -10 -23 -21 -39 -36 -48 -21 -74 52 -92 60 -15 61 -15 76
9 9 13 16 37 17 53 1 17 5 30 10 30 4 0 6 11 3 25 -3 20 -1 25 11 23 10 -2 20
-19 24 -43 19 -94 72 -109 123 -35 22 32 28 52 29 97 l1 58 -51 -1 c-50 -2
-51 -1 -52 30 -3 49 -17 91 -33 93 -8 1 -27 -6 -42 -16z"/>
<path d="M920 4547 c-25 -14 -46 -32 -48 -40 -2 -8 19 -29 50 -49 73 -48 71
-47 111 -53 32 -6 37 -3 52 25 14 27 14 33 0 52 -26 39 -19 44 50 42 36 -2 65
1 65 5 0 21 -33 30 -130 36 -99 6 -107 5 -150 -18z"/>
<path d="M7866 4552 c-4 -10 0 -32 9 -48 8 -16 15 -39 15 -52 0 -13 4 -31 10
-41 8 -16 4 -19 -37 -24 -51 -5 -66 -20 -58 -57 3 -14 8 -50 11 -80 6 -63 22
-110 37 -110 11 0 76 38 94 56 7 6 15 23 19 38 3 14 12 26 19 26 19 0 95 -75
95 -94 0 -9 5 -16 11 -16 8 0 9 13 5 40 -7 42 -25 80 -38 80 -5 0 -8 9 -8 19
0 11 -10 28 -22 38 -13 10 -31 28 -42 40 -18 22 -18 23 8 67 37 63 35 92 -8
110 -18 7 -51 17 -74 21 -34 5 -41 4 -46 -13z"/>
<path d="M7780 3925 c-6 -8 -8 -36 -5 -71 11 -105 11 -108 -7 -112 -11 -2 -18
3 -18 11 0 22 -53 86 -71 87 -20 0 -45 -59 -54 -127 -6 -40 -3 -52 15 -75 23
-31 60 -37 80 -14 18 22 39 8 50 -33 14 -52 33 -75 56 -67 26 8 65 71 66 107
1 16 4 29 8 29 9 0 7 66 -2 75 -4 4 -3 18 3 32 14 36 11 99 -5 112 -7 6 -34
22 -60 35 -36 18 -48 21 -56 11z"/>
<path d="M0 8973 c0 -32 5 -42 25 -53 37 -20 32 -90 -6 -90 -14 0 -19 -7 -19
-26 0 -14 4 -23 9 -19 17 10 20 -11 5 -39 -7 -16 -14 -48 -14 -73 l0 -45 30
29 c92 85 139 269 84 323 -10 10 -40 22 -66 25 l-48 7 0 -39z"/>
<path d="M1206 3556 c-20 -18 -36 -38 -36 -45 0 -6 -7 -11 -15 -11 -8 0 -15
-7 -15 -15 0 -21 44 -37 73 -26 25 10 108 4 120 -8 5 -5 -6 -19 -23 -32 -17
-13 -45 -36 -63 -50 -18 -14 -47 -34 -64 -44 -39 -23 -41 -32 -10 -44 37 -14
191 -26 184 -14 -4 6 23 15 64 23 64 12 89 24 76 36 -13 13 -63 13 -109 -1
-28 -8 -65 -15 -82 -15 l-31 1 26 22 c14 12 36 29 49 37 35 23 78 64 82 79 2
8 -8 14 -26 16 -38 5 -42 11 -26 40 17 32 4 48 -60 69 -67 22 -73 21 -114 -18z"/>
<path d="M1240 347 c0 -7 -9 -23 -20 -35 -11 -12 -20 -34 -20 -50 0 -15 -4
-32 -9 -38 -5 -5 -14 -47 -20 -94 -6 -47 -13 -95 -17 -108 -6 -21 -3 -22 44
-22 l49 0 18 88 c20 106 22 251 3 263 -19 12 -28 11 -28 -4z"/>
</g>
</svg>