 <svg version="1.1" xmlns="http://www.w3.org/2000/svg" width="700.000000pt" height="682.000000pt" viewBox="0 0 700.000000 682.000000" preserveAspectRatio="xMidYMid meet">
<metadata>
Created by potrace 1.12, written by Peter Selinger 2001-2015
</metadata>
<g transform="translate(0.000000,682.000000) scale(0.100000,-0.100000)" fill="#000000" stroke="none">
<path d="M3489 6755 c-3 -2 -41 -7 -85 -10 -134 -9 -198 -15 -224 -20 -54 -11
-99 -16 -202 -20 -59 -2 -117 -9 -128 -15 -11 -6 -30 -8 -43 -5 -15 4 -28 1
-36 -9 -8 -9 -22 -16 -33 -16 -10 0 -31 -6 -46 -14 -15 -8 -54 -17 -87 -21
-33 -4 -82 -17 -110 -30 -27 -13 -79 -33 -114 -45 -36 -12 -82 -30 -102 -41
-21 -10 -46 -19 -56 -19 -10 0 -27 -6 -38 -13 -11 -7 -51 -26 -90 -42 -38 -15
-77 -34 -86 -41 -8 -8 -31 -17 -50 -21 -18 -3 -42 -17 -53 -30 -10 -14 -25
-22 -33 -19 -8 3 -24 -3 -36 -15 -30 -28 -126 -79 -149 -79 -10 0 -18 -7 -18
-15 0 -9 -11 -20 -24 -25 -13 -5 -28 -15 -33 -23 -4 -7 -24 -22 -43 -33 -19
-10 -37 -21 -40 -24 -3 -3 -13 -9 -22 -15 -56 -34 -130 -89 -135 -100 -2 -8
-41 -42 -86 -76 -45 -35 -110 -91 -145 -126 -35 -35 -67 -63 -72 -63 -6 0 -10
-4 -10 -10 0 -13 -41 -50 -50 -45 -5 3 -17 -15 -29 -40 -15 -31 -27 -45 -41
-45 -12 0 -20 -7 -20 -16 0 -9 -10 -27 -22 -39 -48 -47 -94 -101 -101 -118 -3
-9 -13 -17 -22 -17 -8 0 -15 -6 -15 -13 0 -8 -9 -22 -20 -32 -11 -10 -20 -25
-20 -34 0 -16 -53 -94 -122 -179 -21 -26 -38 -54 -38 -63 0 -9 -7 -22 -15 -29
-8 -6 -17 -22 -21 -33 -4 -12 -15 -34 -25 -49 -11 -14 -19 -33 -19 -42 0 -8
-11 -25 -24 -38 -13 -13 -27 -36 -30 -53 -10 -42 -68 -165 -77 -165 -5 0 -16
-26 -24 -57 -20 -72 -101 -297 -121 -334 -8 -16 -14 -40 -14 -54 0 -14 -6 -39
-14 -54 -8 -15 -14 -41 -14 -58 1 -17 -3 -36 -7 -43 -5 -8 -4 -11 3 -6 12 7 5
-91 -8 -109 -10 -14 -32 -144 -26 -154 3 -4 -2 -21 -10 -37 -15 -29 -12 -83
12 -187 l7 -29 -47 7 -47 7 2 -103 c3 -127 10 -153 42 -144 62 18 60 18 53 -1
-12 -32 -16 -233 -5 -282 6 -26 14 -76 19 -112 5 -36 18 -103 29 -150 12 -47
26 -118 31 -158 6 -40 27 -117 46 -170 39 -107 60 -174 68 -213 3 -14 16 -41
29 -60 13 -19 29 -56 36 -83 6 -26 25 -71 41 -100 17 -29 30 -61 30 -72 0 -10
13 -27 28 -38 15 -10 43 -48 62 -85 42 -83 124 -213 167 -267 18 -23 33 -47
33 -53 0 -7 11 -27 24 -44 13 -18 27 -42 30 -54 4 -12 16 -25 27 -28 10 -4 19
-13 19 -21 0 -8 5 -14 11 -14 12 0 179 -169 179 -182 0 -4 7 -8 15 -8 8 0 15
-7 15 -15 0 -8 11 -22 25 -31 14 -9 25 -22 25 -28 0 -13 57 -66 71 -66 5 0 9
-7 9 -15 0 -9 7 -18 15 -21 8 -4 15 -10 15 -15 0 -17 64 -98 78 -99 9 0 8 7
-4 25 -16 24 -16 25 2 18 11 -3 28 -15 39 -24 11 -10 40 -36 65 -58 25 -22 65
-50 90 -63 25 -12 64 -38 86 -58 23 -19 59 -44 80 -55 22 -12 71 -41 109 -66
39 -25 90 -54 115 -64 25 -11 68 -34 97 -52 29 -18 54 -33 57 -33 5 0 104 -45
211 -95 109 -51 346 -135 383 -135 11 0 39 -7 63 -16 70 -24 233 -54 387 -69
79 -8 151 -19 162 -25 10 -5 25 -8 32 -5 11 4 180 10 468 19 92 2 281 29 372
52 32 8 70 17 85 19 110 18 246 53 293 75 8 4 42 15 75 24 33 10 77 24 98 32
20 8 44 14 53 14 9 0 27 9 41 20 14 11 33 20 42 20 9 0 57 20 106 44 116 57
202 96 210 96 4 0 30 15 58 34 29 19 79 48 111 66 33 17 80 49 105 69 43 36
95 73 197 143 22 15 60 45 82 68 23 22 46 40 51 40 4 0 35 27 69 60 33 33 64
60 68 60 5 0 38 33 74 72 36 39 83 90 105 114 22 23 51 56 65 74 14 18 40 48
58 68 17 19 32 38 32 42 0 3 16 24 35 46 19 21 35 44 35 50 0 5 16 25 35 44
19 19 35 41 35 49 0 8 6 22 14 30 8 9 33 52 56 96 23 44 66 116 95 160 29 44
63 105 75 135 12 30 37 84 55 120 18 36 36 80 40 97 4 18 10 33 14 33 4 0 18
33 31 72 13 40 32 84 42 97 10 13 18 35 18 50 0 14 10 60 21 101 12 41 30 111
40 155 11 44 23 94 28 110 5 19 4 37 -3 48 -8 13 -7 23 3 39 12 18 14 66 13
226 -1 112 -4 208 -7 212 -3 5 -1 11 4 14 5 4 11 -8 13 -26 3 -30 6 -33 40
-36 l36 -3 -5 59 c-3 33 0 83 7 111 7 29 10 55 7 58 -9 9 -54 -5 -71 -23 -9
-8 -16 -27 -16 -42 0 -18 -3 -23 -9 -14 -4 7 -6 76 -4 152 2 94 -1 162 -11
212 -8 40 -17 107 -20 149 -3 41 -12 92 -21 112 -8 20 -15 47 -15 59 -1 13
-12 55 -26 93 -14 39 -29 88 -35 110 -5 22 -13 49 -18 60 -21 51 -34 93 -39
125 -2 19 -10 44 -17 55 -7 11 -16 36 -20 55 -4 19 -11 40 -15 45 -4 6 -15 35
-25 65 -10 30 -24 61 -32 68 -7 7 -13 20 -13 28 0 8 -4 14 -9 14 -5 0 -11 14
-15 32 -3 17 -17 46 -31 64 -14 18 -25 37 -25 43 0 6 -4 11 -9 11 -5 0 -15 16
-21 35 -6 19 -17 38 -24 42 -7 5 -27 35 -45 68 -19 32 -51 82 -72 111 -22 28
-39 54 -39 58 0 16 -142 182 -283 330 -167 176 -156 164 -247 237 -36 29 -90
74 -120 102 -73 67 -222 177 -301 223 -35 20 -109 65 -164 99 -162 101 -299
174 -356 189 -75 20 -122 37 -138 50 -15 12 -71 28 -181 51 -36 8 -101 24
-145 36 -135 36 -265 63 -272 55 -3 -3 -18 1 -33 9 -15 8 -30 12 -32 9 -8 -7
-228 15 -247 25 -9 5 -67 11 -129 14 -62 2 -115 7 -119 10 -7 8 -18 9 -24 2z
m-149 -79 c0 -3 -4 -8 -10 -11 -5 -3 -10 -1 -10 4 0 6 5 11 10 11 6 0 10 -2
10 -4z m385 -6 c4 -6 -32 -10 -99 -10 -64 0 -106 4 -106 10 0 6 40 10 99 10
56 0 103 -4 106 -10z m-490 -10 c-22 -4 -105 -13 -185 -20 -80 -6 -183 -21
-230 -32 -47 -11 -101 -23 -120 -28 -19 -4 -62 -15 -94 -24 -71 -19 -84 -15
-24 7 134 48 264 79 389 91 150 15 332 19 264 6z m750 -6 c28 -3 67 -10 88
-15 20 -6 41 -7 46 -5 5 3 22 1 37 -4 16 -5 46 -11 67 -13 21 -3 44 -10 50
-17 10 -10 6 -11 -18 -6 -43 9 -229 34 -374 52 -69 8 -127 17 -130 20 -6 7
137 -1 234 -12z m-585 -27 c0 -7 -7 -22 -15 -33 -8 -10 -15 -27 -15 -36 0 -15
9 -17 58 -15 l57 2 8 -100 c11 -153 29 -139 -190 -153 -103 -7 -209 -15 -235
-19 l-47 -5 -9 38 c-21 84 -62 269 -62 275 0 16 64 28 175 34 66 3 136 10 155
14 57 14 120 13 120 -2z m90 -22 c0 -19 -4 -35 -10 -35 -12 0 -24 45 -15 59
13 22 25 10 25 -24z m240 21 c124 -7 315 -27 322 -34 4 -4 0 -36 -8 -72 -8
-36 -19 -96 -24 -135 -12 -97 -17 -108 -49 -101 -14 3 -111 10 -216 16 -104 6
-196 13 -203 15 -9 3 -12 38 -11 137 1 73 -2 145 -6 160 l-7 27 63 -5 c35 -2
98 -6 139 -8z m-822 -38 c5 -7 17 -53 26 -103 10 -49 24 -118 32 -153 8 -35
12 -67 9 -73 -4 -5 -23 -9 -44 -9 -20 0 -41 -4 -46 -9 -6 -5 -30 -13 -55 -19
-47 -10 -211 -53 -292 -77 -45 -13 -48 -13 -62 7 -8 11 -25 46 -36 77 -12 31
-37 88 -56 128 -19 39 -34 74 -34 77 0 3 15 9 33 15 17 5 64 21 102 34 75 26
115 37 210 61 94 22 179 46 184 51 8 8 18 5 29 -7z m1307 -18 c116 -24 234
-53 322 -82 72 -23 71 -15 26 -143 -14 -38 -34 -97 -45 -130 -11 -33 -24 -64
-28 -68 -4 -5 -25 -1 -46 8 -43 19 -138 49 -199 64 -22 5 -74 18 -115 29 l-75
19 2 53 c3 50 29 230 38 258 5 15 1 16 120 -8z m145 10 c0 -5 -4 -10 -10 -10
-5 0 -10 5 -10 10 0 6 5 10 10 10 6 0 10 -4 10 -10z m-2112 -149 c-20 -10 -63
-28 -95 -41 -32 -13 -62 -26 -68 -30 -5 -4 -19 -10 -30 -14 -16 -5 -15 -2 5
14 14 11 28 20 32 20 4 0 36 13 70 29 78 35 89 39 108 40 8 1 -2 -7 -22 -18z
m2577 -43 c65 -24 161 -72 186 -94 8 -8 21 -14 28 -14 21 0 91 -44 91 -58 0
-7 -11 -24 -25 -38 -14 -14 -25 -27 -25 -30 0 -5 -99 -206 -104 -211 -1 -2
-37 15 -79 37 -42 22 -81 40 -87 40 -6 0 -38 13 -71 30 -33 16 -91 39 -129 50
-39 12 -70 24 -70 28 0 3 23 77 52 163 l51 156 61 -19 c34 -10 88 -29 121 -40z
m-2498 15 c6 -17 27 -68 58 -138 8 -16 25 -57 39 -90 l25 -60 -52 -26 c-29
-14 -123 -62 -210 -107 l-158 -80 -39 76 c-22 42 -53 100 -69 127 -17 28 -37
62 -45 77 l-16 26 113 60 c126 67 222 112 240 113 7 0 30 9 52 19 51 24 54 24
62 3z m2779 -89 c20 -8 55 -29 78 -45 22 -16 115 -79 206 -139 91 -61 188
-131 215 -156 61 -56 44 -48 -55 26 -41 31 -102 73 -135 95 -33 21 -82 52
-110 70 -80 52 -206 130 -257 159 -56 32 -63 43 -13 21 19 -8 51 -22 71 -31z
m-3081 16 c-3 -5 -11 -10 -16 -10 -6 0 -7 5 -4 10 3 6 11 10 16 10 6 0 7 -4 4
-10z m-48 -26 c-3 -3 -12 -4 -19 -1 -8 3 -5 6 6 6 11 1 17 -2 13 -5z m-52 -24
c-3 -5 -14 -10 -23 -10 -15 0 -15 2 -2 10 20 13 33 13 25 0z m1683 -50 c3 -44
-9 -64 -35 -56 -14 4 -22 19 -26 43 -8 45 -2 55 31 51 23 -3 27 -8 30 -38z
m197 -10 c0 -42 -2 -45 -28 -48 -33 -4 -42 14 -33 64 6 31 10 35 34 32 25 -3
27 -7 27 -48z m-394 3 c8 -40 5 -43 -42 -43 -33 0 -38 3 -44 30 -9 41 1 52 43
48 32 -3 37 -7 43 -35z m-221 -24 l0 -50 -32 3 c-31 3 -33 6 -39 46 -3 23 -3
44 -1 47 3 3 20 5 39 5 l33 0 0 -51z m796 37 c3 -7 1 -29 -4 -47 -6 -27 -13
-34 -33 -34 -21 0 -24 4 -21 29 2 17 8 38 13 48 11 21 37 24 45 4z m-992 -38
c13 -50 7 -65 -26 -72 -38 -8 -55 6 -60 49 -3 26 1 31 27 36 49 11 52 10 59
-13z m1157 12 c13 0 11 -47 -2 -73 -16 -30 -15 -30 -38 -17 -35 18 -20 109 16
96 8 -3 19 -6 24 -6z m-2371 -5 c0 -6 -108 -79 -140 -94 -37 -18 32 37 89 71
51 30 51 30 51 23z m3485 -49 c84 -55 90 -59 166 -116 41 -31 90 -66 110 -78
50 -30 73 -57 62 -75 -4 -8 -46 -55 -93 -105 -47 -49 -93 -100 -103 -112 -12
-14 -22 -18 -30 -12 -152 116 -307 222 -325 222 -5 0 -18 11 -31 23 l-22 24
69 104 c38 57 75 119 83 137 12 28 18 32 39 27 14 -3 48 -21 75 -39z m-3416
-13 c12 -27 40 -77 62 -113 23 -36 50 -82 60 -102 19 -37 19 -38 -1 -58 -10
-10 -63 -49 -117 -85 -54 -36 -120 -81 -148 -100 -27 -19 -54 -35 -60 -35 -6
0 -29 24 -50 52 -22 29 -68 85 -102 124 -35 40 -63 76 -63 81 1 4 46 40 102
78 55 39 128 91 161 118 33 26 65 47 72 47 6 0 20 9 30 20 10 11 21 20 25 20
4 0 17 -21 29 -47z m929 -5 c12 -47 5 -58 -39 -58 -41 0 -70 83 -31 93 49 13
59 8 70 -35z m1594 -29 c-5 -47 -13 -52 -61 -39 -34 9 -41 15 -41 36 0 14 4
34 10 44 9 16 14 17 52 5 41 -12 43 -14 40 -46z m-858 7 c6 -25 0 -909 -10
-1351 -3 -137 -8 -416 -10 -620 l-4 -370 -71 -7 c-47 -5 -87 -16 -116 -33
l-45 -25 -37 33 c-21 17 -84 84 -142 147 -57 63 -151 161 -209 217 -58 55
-109 107 -115 114 -5 6 -65 67 -132 134 -67 67 -136 139 -153 160 -17 21 -103
114 -193 207 -89 93 -163 174 -165 179 -2 5 -9 9 -16 9 -6 0 -18 10 -26 22 -8
12 -23 30 -32 40 -10 10 -18 24 -18 32 0 7 -24 35 -54 62 -80 73 -109 101
-126 121 -8 10 -37 42 -63 70 l-48 52 74 93 c41 51 91 109 112 128 20 19 46
53 57 75 24 46 37 53 -118 -65 -105 -79 -221 -147 -232 -135 -4 4 9 20 28 36
19 17 61 53 92 80 32 28 81 66 110 85 29 20 60 42 68 49 13 12 30 22 111 66
13 8 41 24 61 37 21 14 44 22 52 19 8 -3 20 1 26 9 7 8 19 14 26 14 8 0 22 8
32 18 10 9 37 28 61 41 36 19 45 21 53 10 8 -11 9 -10 4 3 -6 19 35 46 83 54
14 3 30 9 36 15 5 5 21 9 36 9 15 0 58 12 95 26 98 38 196 64 296 79 47 7 90
15 95 18 24 15 250 50 363 56 69 4 132 9 141 9 10 1 19 -8 23 -22z m261 14
c145 -16 251 -40 580 -130 161 -44 248 -74 348 -119 27 -11 54 -21 61 -21 7 0
27 -11 46 -25 19 -14 40 -25 47 -25 7 0 39 -17 72 -37 32 -21 95 -60 140 -88
44 -27 81 -53 81 -57 0 -4 21 -17 46 -29 42 -22 83 -59 308 -278 85 -83 200
-209 221 -242 43 -68 112 -169 132 -193 56 -67 233 -394 257 -475 8 -26 23
-68 35 -94 12 -25 21 -50 21 -54 0 -5 12 -44 26 -88 48 -152 73 -257 89 -378
9 -67 20 -151 26 -187 6 -36 9 -87 7 -115 l-3 -50 -110 2 c-289 5 -617 7
-1270 5 -390 -1 -772 1 -848 5 -138 6 -138 6 -183 40 -28 22 -55 55 -74 94
-17 32 -39 65 -50 71 -11 7 -20 17 -20 23 0 16 -130 73 -175 77 -39 4 -40 5
-38 39 3 47 5 411 5 859 0 206 2 379 5 384 6 9 5 854 -1 1001 -2 44 -2 83 1
88 5 9 116 8 218 -3z m-1196 -50 c13 -38 6 -56 -22 -64 -26 -7 -53 17 -62 56
-5 20 -3 27 12 31 46 12 61 7 72 -23z m1979 4 c25 -7 30 -40 9 -68 -10 -14
-21 -17 -45 -11 -36 7 -36 9 -21 54 11 32 18 35 57 25z m-2157 -76 c21 -40 21
-42 3 -55 -28 -21 -47 -12 -63 31 -14 36 -13 40 4 52 28 20 33 18 56 -28z
m-911 -8 c-44 -38 -61 -47 -59 -32 0 9 81 70 94 71 6 1 -10 -17 -35 -39z
m3270 5 c35 -18 35 -17 15 -55 -18 -34 -34 -37 -64 -12 -19 15 -20 20 -9 50
14 37 18 38 58 17z m-2524 -82 c13 -30 12 -32 -18 -51 -36 -23 -51 -20 -67 14
-16 36 -14 42 17 58 37 21 53 16 68 -21z m2692 1 c28 -8 29 -44 2 -69 -17 -15
-24 -16 -45 -7 -25 11 -25 12 -7 47 19 38 18 37 50 29z m-3623 -80 c-79 -73
-108 -94 -99 -69 4 8 9 15 13 15 4 0 36 27 71 60 35 33 69 60 74 60 6 -1 -20
-30 -59 -66z m4626 -175 c197 -214 283 -319 260 -319 -8 0 -35 32 -114 134
-48 63 -183 208 -283 304 -57 56 -104 104 -104 108 0 12 148 -127 241 -227z
m-4512 181 c12 -17 60 -76 106 -131 47 -55 85 -104 85 -107 -1 -4 -21 -29 -46
-56 l-45 -49 -36 34 c-19 19 -67 71 -105 117 -39 46 -74 80 -79 75 -4 -4 -9
-57 -10 -118 -1 -60 -5 -146 -10 -190 -7 -66 -6 -82 6 -91 17 -13 19 -30 5
-39 -10 -6 -88 55 -180 142 -25 23 -56 51 -69 61 l-25 19 31 39 c44 55 327
324 341 324 5 0 18 -14 31 -30z m631 -57 c0 -14 -8 -24 -22 -29 -17 -5 -27 0
-45 22 -29 36 -29 49 0 69 21 15 23 14 44 -12 13 -15 23 -38 23 -50z m3612 68
c2 -4 42 -43 91 -84 48 -42 108 -100 133 -128 26 -29 59 -63 75 -76 36 -30 36
-46 4 -71 -14 -11 -67 -59 -117 -106 -50 -47 -96 -86 -101 -86 -9 0 -54 44
-88 85 -9 11 -64 64 -122 118 -59 54 -107 103 -107 109 0 6 37 50 83 97 46 47
92 101 102 119 19 31 40 42 47 23z m-542 -76 c0 -6 -10 -21 -23 -33 l-23 -21
-27 22 -27 22 20 33 20 33 30 -23 c17 -12 30 -27 30 -33z m-3214 -51 l19 -36
-25 -20 -24 -20 -23 27 c-29 33 -29 50 -1 69 30 22 32 21 54 -20z m3372 -37
l22 -24 -21 -26 c-20 -27 -21 -27 -50 -10 -33 20 -35 30 -13 61 19 28 35 28
62 -1z m-3512 -89 c7 -23 -12 -48 -35 -48 -10 0 -28 11 -41 25 l-24 26 29 24
c27 21 32 22 47 8 10 -9 20 -24 24 -35z m-362 -30 c31 -40 81 -98 111 -128 33
-33 59 -69 65 -90 13 -47 91 -124 117 -116 14 4 26 -3 43 -26 13 -18 40 -50
61 -72 20 -23 58 -66 85 -96 26 -30 156 -163 288 -295 132 -132 271 -276 309
-320 38 -44 144 -152 235 -240 92 -88 178 -173 192 -189 24 -28 51 -57 255
-266 l89 -92 66 35 c79 42 132 51 191 33 24 -7 64 -19 89 -26 80 -23 180 -101
180 -141 0 -7 39 -53 88 -103 48 -49 141 -146 207 -214 66 -69 140 -146 165
-171 25 -26 117 -123 205 -216 195 -206 591 -609 941 -959 l262 -261 -5 -53
c-6 -72 -1 -90 47 -150 l40 -50 -15 -64 c-8 -34 -15 -85 -15 -113 l0 -50 -64
70 c-120 132 -134 151 -159 206 -23 53 -60 89 -91 89 -8 0 -26 12 -40 28 -15
15 -85 88 -157 164 -71 75 -142 152 -157 172 -15 19 -32 35 -39 36 -6 0 -21
12 -33 27 -12 16 -101 110 -198 209 -97 100 -193 199 -212 220 -20 22 -89 96
-155 167 -66 70 -120 133 -120 140 0 22 -42 67 -62 67 -11 0 -49 32 -90 78
-39 42 -120 124 -179 182 -60 58 -125 122 -146 143 -20 20 -41 37 -46 37 -5 0
-19 -12 -33 -26 -30 -32 -87 -62 -151 -79 -39 -10 -60 -10 -106 0 -111 24
-166 61 -219 149 -21 33 -89 113 -153 176 -63 64 -149 154 -190 200 -41 47
-93 103 -115 125 -22 23 -67 72 -100 109 -33 38 -255 264 -494 505 -239 240
-455 461 -480 491 -26 30 -113 121 -193 201 l-146 146 -5 54 c-7 73 -17 111
-34 131 -12 13 -14 32 -8 90 5 40 9 100 11 133 1 33 3 61 3 63 3 7 13 -5 65
-70z m4031 -12 c18 -13 18 -15 -10 -40 -31 -28 -43 -29 -59 -3 -8 12 -5 21 8
36 22 25 35 26 61 7z m-3816 -57 c22 -29 23 -31 6 -49 -25 -27 -40 -25 -64 8
l-20 29 22 21 c27 27 27 27 56 -9z m4432 -38 c8 -10 41 -51 74 -91 59 -72 71
-89 169 -246 l48 -78 -28 -23 c-16 -13 -32 -23 -36 -23 -3 0 -54 -27 -112 -60
-58 -33 -109 -60 -113 -60 -5 0 -24 23 -43 51 -54 78 -209 292 -230 316 -19
23 -19 23 120 132 41 32 84 68 94 80 24 26 39 27 57 2z m-4998 -38 c29 -27 67
-59 86 -73 18 -14 51 -41 73 -61 l41 -35 -55 -75 c-30 -41 -75 -93 -98 -117
-42 -42 -130 -166 -130 -183 0 -17 -22 -9 -59 20 -45 35 -108 72 -189 111
l-64 30 23 37 c65 110 289 393 311 393 4 0 32 -21 61 -47z m-133 28 c0 -16
-49 -67 -50 -52 0 7 10 24 23 37 25 27 27 28 27 15z m879 -9 c-8 -11 -36 -49
-63 -85 -27 -37 -55 -67 -61 -67 -7 0 -20 9 -30 20 -21 23 -13 38 44 72 20 12
38 25 41 28 6 7 73 50 79 50 2 0 -3 -8 -10 -18z m3762 -12 c32 -24 30 -39 -10
-63 -27 -16 -29 -16 -50 6 -26 29 -26 31 1 57 27 24 24 24 59 0z m137 -130
c22 -18 22 -20 7 -44 -22 -33 -44 -40 -66 -20 -24 22 -24 33 3 61 26 28 27 28
56 3z m548 -17 c-7 -7 -26 7 -26 19 0 6 6 6 15 -2 9 -7 13 -15 11 -17z m32
-58 c-3 -3 -9 2 -12 12 -6 14 -5 15 5 6 7 -7 10 -15 7 -18z m-4977 -29 c14
-29 4 -76 -14 -76 -8 0 -24 11 -37 25 l-23 25 23 25 c29 31 38 31 51 1z m5019
-27 c0 -6 -4 -7 -10 -4 -5 3 -10 11 -10 16 0 6 5 7 10 4 6 -3 10 -11 10 -16z
m-506 -11 c23 -32 20 -45 -14 -63 -39 -20 -45 -19 -58 10 -11 23 -9 29 15 50
35 30 38 30 57 3z m-4306 -207 c125 -134 137 -145 201 -205 23 -22 49 -52 59
-68 9 -15 20 -28 24 -28 8 0 651 -644 833 -835 66 -69 176 -182 244 -251 l123
-126 -83 7 c-203 17 -1287 7 -1784 -16 -137 -7 -289 -9 -337 -5 l-88 8 0 51
c0 107 64 521 91 582 7 17 13 38 14 48 2 10 7 28 13 40 6 12 22 58 36 102 14
44 38 116 52 160 32 97 81 200 134 280 22 33 44 70 50 82 18 43 90 140 204
275 l59 71 19 -24 c10 -13 71 -80 136 -148z m4856 153 c4 -10 1 -14 -6 -12
-15 5 -23 28 -10 28 5 0 13 -7 16 -16z m-5166 -62 c21 -16 21 -19 7 -40 -21
-28 -36 -28 -65 3 -19 20 -21 27 -10 40 16 20 40 19 68 -3z m-455 -92 c53 -33
100 -60 105 -60 5 0 17 -9 27 -20 10 -11 27 -20 37 -20 29 0 33 -28 9 -68 -35
-59 -130 -253 -142 -291 -22 -69 -27 -73 -57 -57 -15 8 -83 33 -152 55 -69 22
-133 43 -142 46 -25 10 -22 43 7 101 14 27 25 52 25 57 0 4 11 24 24 45 12 20
27 48 31 62 4 14 13 32 20 40 7 8 26 40 42 70 36 70 56 100 64 100 4 0 50 -27
102 -60z m5201 38 c9 -12 16 -27 16 -33 0 -15 -56 -46 -72 -40 -21 8 -43 48
-29 53 6 2 21 12 33 22 29 25 34 25 52 -2z m479 -85 c30 -60 61 -121 70 -138
9 -16 37 -74 64 -128 55 -112 59 -102 -57 -143 -41 -14 -107 -38 -147 -53
l-71 -28 -26 47 c-14 26 -26 57 -26 69 0 22 -105 231 -141 282 -10 15 -19 31
-19 36 0 5 19 19 43 31 60 30 188 102 212 118 11 8 25 14 32 14 6 0 36 -48 66
-107z m7 77 c0 -5 -4 -10 -10 -10 -5 0 -10 5 -10 10 0 6 5 10 10 10 6 0 10 -4
10 -10z m34 -56 c11 -28 6 -39 -9 -20 -8 11 -15 23 -15 28 0 14 18 9 24 -8z
m-5380 -47 c8 -13 6 -21 -9 -36 -20 -19 -21 -19 -43 -1 -19 16 -21 22 -11 43
9 20 16 24 32 18 12 -4 26 -15 31 -24z m4978 -64 c27 -24 22 -39 -19 -58 -26
-12 -41 -15 -52 -8 -27 17 -24 47 6 65 36 21 43 21 65 1z m489 -61 c67 -145
77 -176 58 -170 -7 2 -22 32 -35 66 -12 33 -34 82 -48 108 -14 25 -26 53 -26
61 0 27 21 1 51 -65z m-5548 -32 c4 -4 -1 -17 -11 -30 -18 -22 -19 -22 -50 -6
-32 16 -33 23 -10 53 9 11 47 2 71 -17z m5162 -100 c21 -41 19 -57 -9 -64 -13
-3 -31 -9 -40 -12 -12 -4 -20 4 -31 30 -19 46 -20 44 18 60 44 20 45 20 62
-14z m-5257 -76 c2 -2 1 -16 -3 -33 -7 -33 -20 -37 -60 -19 -29 13 -31 25 -10
55 14 20 19 21 43 11 15 -7 29 -13 30 -14z m5758 -91 c3 -18 10 -36 15 -39 14
-8 10 -24 -6 -24 -18 0 -18 -1 -1 -47 19 -49 42 -145 51 -208 4 -27 13 -72 21
-99 7 -27 12 -52 9 -56 -8 -12 -226 -51 -310 -54 -28 -1 -30 2 -42 59 -26 126
-48 203 -85 300 -21 55 -38 101 -38 102 0 2 7 3 15 3 8 0 29 7 47 15 78 34
263 96 265 88 2 -4 14 -26 28 -48 27 -44 34 -35 10 11 -8 16 -15 38 -15 49 1
20 1 20 15 1 8 -11 18 -34 21 -53z m-6149 14 c65 -24 138 -50 163 -57 25 -8
47 -15 49 -16 2 -2 -3 -25 -12 -51 -57 -181 -92 -307 -105 -376 -4 -28 -6 -29
-51 -23 -44 7 -314 57 -318 60 -1 1 5 29 13 61 8 33 21 87 29 120 36 153 94
325 109 325 3 0 58 -19 123 -43z m5728 -37 c15 -29 15 -31 -10 -40 -38 -14
-56 -12 -71 8 -19 24 -17 29 14 46 39 22 50 20 67 -14z m-5905 10 c0 -5 -4
-10 -10 -10 -5 0 -10 5 -10 10 0 6 5 10 10 10 6 0 10 -4 10 -10z m-35 -92 c-3
-18 -10 -44 -15 -58 -4 -14 -11 -34 -14 -44 -4 -10 -8 -17 -11 -15 -4 4 17 98
30 137 9 25 16 11 10 -20z m519 9 c14 -10 15 -18 7 -40 -12 -30 -19 -32 -56
-15 -25 11 -30 24 -19 52 7 19 44 21 68 3z m5485 -109 c13 -38 7 -46 -38 -50
-30 -3 -35 1 -44 26 -8 24 -7 32 9 43 32 23 61 16 73 -19z m-6049 -82 c0 -8
-4 -18 -10 -21 -5 -3 -10 3 -10 14 0 12 5 21 10 21 6 0 10 -6 10 -14z m494 8
c17 -7 21 -50 7 -72 -7 -11 -15 -11 -45 2 -40 17 -40 15 -26 50 9 26 31 32 64
20z m-517 -66 c-3 -8 -6 -5 -6 6 -1 11 2 17 5 13 3 -3 4 -12 1 -19z m6543 -45
c0 -45 -5 -40 -13 10 -3 22 -2 35 4 32 5 -4 9 -22 9 -42z m-412 -5 c11 -41 0
-54 -50 -63 -41 -8 -39 -11 -42 62 -1 10 9 20 24 24 49 14 59 10 68 -23z
m-6148 -53 c0 -8 -4 -15 -10 -15 -5 0 -7 7 -4 15 4 8 8 15 10 15 2 0 4 -7 4
-15z m478 -21 c15 -4 22 -14 22 -30 0 -29 -13 -37 -50 -29 -23 5 -30 12 -30
29 0 36 12 42 58 30z m-348 -33 c30 -5 95 -17 144 -26 49 -8 91 -17 93 -19 2
-2 -6 -92 -17 -200 -12 -108 -20 -202 -19 -209 1 -6 1 -26 0 -44 l-1 -32 -112
3 c-62 2 -141 4 -175 5 -63 1 -63 1 -63 30 0 21 9 37 32 55 36 28 32 45 -7 28
-13 -6 -26 -8 -28 -4 -3 4 -1 45 4 92 15 166 30 295 35 319 5 25 -2 25 114 2z
m6418 -43 c12 -24 39 -227 44 -341 3 -55 1 -67 -10 -62 -22 8 -42 -14 -42 -45
0 -26 -3 -27 -61 -34 -87 -9 -174 -8 -201 3 -21 8 -23 15 -26 92 -2 46 -7 113
-12 149 -5 36 -14 98 -20 139 -5 41 -7 77 -4 80 5 5 229 34 300 39 12 1 25 -7
32 -20z m-360 -70 c3 -34 2 -36 -33 -40 -32 -4 -38 -1 -46 20 -15 40 -11 51
24 55 48 6 52 3 55 -35z m409 -10 c-3 -7 -5 -2 -5 12 0 14 2 19 5 13 2 -7 2
-19 0 -25z m-6127 -68 l0 -40 -40 0 c-36 0 -40 3 -40 24 0 44 10 56 46 56 33
0 34 -1 34 -40z m5738 -117 c3 -32 2 -33 -37 -33 -38 0 -41 2 -41 28 0 37 8
44 45 40 26 -3 30 -7 33 -35z m-6261 -85 c-3 -7 -5 -2 -5 12 0 14 2 19 5 13 2
-7 2 -19 0 -25z m503 -8 c0 -39 -1 -39 -35 -38 -32 1 -35 4 -35 33 0 39 6 45
42 45 26 0 28 -3 28 -40z m6179 -47 c-1 -39 -2 -43 -9 -23 -12 36 -12 70 0 70
6 0 10 -21 9 -47z m-6709 -34 c0 -10 -4 -19 -10 -19 -5 0 -10 12 -10 26 0 14
4 23 10 19 6 -3 10 -15 10 -26z m6677 -26 c-3 -10 -5 -2 -5 17 0 19 2 27 5 18
2 -10 2 -26 0 -35z m-375 12 c3 -14 2 -27 -2 -30 -11 -7 -80 7 -80 15 0 27 15
40 45 40 27 0 34 -4 37 -25z m-6303 -69 c6 -7 9 -22 6 -32 -3 -11 1 -7 8 9 7
15 16 24 20 21 11 -12 8 -186 -3 -179 -5 3 -10 31 -10 61 0 40 -4 56 -15 61
-18 6 -47 58 -38 67 10 9 20 7 32 -8z m4741 2 c229 1 873 0 1005 -2 77 -1 196
1 265 4 69 3 136 3 149 1 l24 -4 -6 -126 c-4 -69 -14 -166 -22 -216 -9 -49
-21 -117 -26 -150 -6 -33 -19 -85 -28 -115 -10 -30 -24 -80 -31 -110 -7 -30
-16 -64 -20 -75 -4 -11 -13 -45 -20 -75 -7 -30 -21 -73 -30 -95 -10 -22 -23
-59 -29 -83 -19 -69 -173 -368 -202 -392 -3 -3 -21 -32 -39 -65 -33 -60 -75
-121 -96 -140 -6 -5 -25 -31 -43 -57 l-31 -47 -127 137 c-69 75 -148 156 -174
179 -123 105 -1352 1348 -1395 1411 l-15 22 138 -4 c76 -3 179 -1 228 3 50 5
164 6 255 4 91 -3 212 -5 270 -5z m-4467 -9 c133 -1 137 -1 138 -22 0 -12 2
-33 3 -47 2 -14 8 -88 14 -165 7 -77 14 -161 17 -187 l4 -46 -42 -7 c-23 -4
-95 -18 -161 -31 -65 -13 -122 -24 -127 -24 -18 0 -54 287 -47 376 3 32 1 76
-4 98 -12 54 -6 66 34 60 18 -2 95 -5 171 -5z m261 -21 c8 -38 -11 -58 -55
-58 -23 0 -28 5 -32 33 -2 17 -3 34 -1 36 2 3 53 16 75 20 4 1 9 -14 13 -31z
m190 23 c177 2 1218 4 1521 3 143 0 345 0 449 0 l188 1 46 -50 c25 -27 63 -75
85 -105 103 -140 186 -202 287 -215 l45 -5 2 -798 c1 -438 5 -964 9 -1168 4
-204 4 -382 1 -395 -6 -24 -7 -24 -129 -24 -73 0 -131 5 -143 12 -11 6 -63 14
-115 18 -89 7 -161 21 -233 45 -18 6 -86 26 -152 44 -66 19 -147 46 -179 60
-32 14 -64 26 -71 26 -7 0 -32 11 -57 24 -24 13 -55 27 -69 31 -31 9 -189 87
-250 123 -26 15 -65 37 -87 49 -22 13 -43 27 -47 33 -3 5 -13 10 -21 10 -17 0
-124 76 -124 88 0 4 -12 15 -27 24 -63 37 -360 331 -443 438 -23 30 -51 64
-62 75 -32 32 -108 136 -108 148 0 5 -12 26 -27 46 -46 59 -73 101 -73 112 0
6 -9 24 -21 40 -26 38 -100 173 -143 264 -44 94 -104 282 -98 307 1 4 -5 23
-13 42 -8 19 -15 51 -15 70 0 19 -7 61 -15 93 -35 132 -54 249 -60 355 -3 62
-8 125 -11 140 -7 34 3 51 23 43 9 -3 70 -5 137 -4z m5896 -9 c0 -4 -3 -22 -6
-40 -8 -40 -2 -47 25 -30 14 8 21 23 21 43 1 25 2 27 11 12 6 -9 8 -25 5 -35
-3 -9 -10 -73 -16 -142 -14 -172 -31 -303 -40 -313 -8 -10 -123 5 -239 29
l-73 16 6 31 c3 18 9 113 13 212 4 138 9 175 17 161 6 -11 26 -37 45 -58 31
-35 37 -38 87 -38 53 0 54 0 54 30 0 34 -30 70 -59 70 -11 0 -27 -10 -36 -22
-19 -28 -42 -17 -64 28 -8 16 -18 32 -24 35 -5 4 -7 11 -4 16 7 12 277 7 277
-5z m77 -74 c-2 -13 -4 -5 -4 17 -1 22 1 32 4 23 2 -10 2 -28 0 -40z m-399
-22 c4 -34 -10 -46 -55 -46 -32 0 -33 1 -33 41 l0 40 43 -3 c38 -3 42 -6 45
-32z m197 -5 c7 -12 -12 -24 -25 -16 -11 7 -4 25 10 25 5 0 11 -4 15 -9z m203
-161 c-5 -63 -10 -131 -11 -150 -1 -19 -6 -34 -12 -32 -5 1 -10 5 -10 10 14
227 24 321 35 302 4 -8 3 -67 -2 -130z m-6160 26 c-3 -28 -6 -31 -38 -31 -33
0 -35 2 -35 35 0 28 4 35 25 40 34 9 52 -7 48 -44z m-491 -28 c-3 -8 -6 -5 -6
6 -1 11 2 17 5 13 3 -3 4 -12 1 -19z m6245 -27 c-1 -19 -4 -36 -6 -38 -2 -2
-22 -1 -45 3 -36 6 -41 10 -41 34 0 36 7 41 55 38 39 -3 40 -4 37 -37z m-2620
-48 c34 -32 94 -89 133 -128 40 -38 121 -115 181 -170 161 -149 366 -362 388
-403 5 -9 21 -28 35 -42 14 -14 50 -53 80 -85 30 -33 183 -191 341 -351 158
-160 306 -312 329 -337 l42 -45 -43 -83 c-25 -48 -69 -110 -105 -149 -35 -37
-63 -70 -63 -74 0 -15 22 -3 72 40 72 62 216 156 233 152 9 -2 -11 -22 -47
-48 -128 -94 -255 -181 -313 -214 -33 -19 -77 -47 -97 -64 -32 -25 -86 -54
-253 -133 -22 -10 -48 -19 -57 -19 -9 0 -19 -4 -22 -9 -3 -5 -38 -19 -78 -32
-40 -12 -77 -26 -83 -29 -5 -4 -32 -13 -60 -20 -27 -7 -54 -16 -60 -20 -23
-16 -278 -82 -300 -77 -14 2 -25 1 -25 -3 0 -10 -55 -20 -170 -31 -52 -4 -143
-16 -202 -25 -58 -9 -113 -14 -122 -11 -18 7 -18 254 -1 1662 7 624 7 647 0
685 l-6 36 66 18 c36 11 80 30 98 42 17 13 35 23 40 24 4 0 35 -26 69 -57z
m-3112 -64 c19 -34 5 -51 -37 -47 -39 3 -52 21 -39 54 9 22 63 18 76 -7z
m5695 -119 c0 -34 -1 -35 -39 -33 -50 3 -59 13 -46 47 9 24 15 27 47 24 36 -3
38 -5 38 -38z m184 -1 c20 -6 65 -16 101 -22 l65 -12 -2 -35 c-6 -87 -25 -166
-74 -311 -16 -48 -29 -96 -29 -107 0 -12 -5 -32 -11 -46 -9 -19 -16 -23 -28
-17 -9 5 -54 21 -101 36 -80 27 -190 72 -190 79 0 1 9 29 21 62 31 89 65 213
79 290 7 38 18 79 26 90 12 20 18 21 60 13 26 -5 64 -14 83 -20z m228 -1 c-3
-7 -5 -2 -5 12 0 14 2 19 5 13 2 -7 2 -19 0 -25z m-6213 14 c3 -5 12 -42 21
-83 43 -194 71 -298 90 -337 17 -34 13 -52 -12 -52 -18 0 -218 -67 -255 -86
-15 -8 -31 -14 -35 -14 -5 0 -17 26 -27 58 -10 31 -22 64 -26 73 -10 19 -77
289 -86 346 -8 49 -22 43 173 78 152 27 150 27 157 17z m144 -92 c9 -26 8 -31
-9 -41 -27 -14 -75 -8 -71 10 1 7 -2 19 -9 27 -12 14 -8 18 36 27 39 9 43 7
53 -23z m6026 -157 c-9 -35 -22 -67 -27 -70 -6 -4 -8 3 -4 18 3 13 11 53 17
89 7 36 15 69 18 75 15 23 12 -52 -4 -112z m-421 67 c21 0 23 -33 2 -50 -17
-14 -85 -5 -85 11 0 27 22 51 43 45 12 -3 30 -6 40 -6z m-5554 -116 c7 -19 11
-37 9 -39 -9 -8 -78 -23 -82 -17 -2 4 -7 24 -11 44 -6 30 -4 37 12 41 47 12
59 7 72 -29z m5489 -59 c12 -3 22 -13 22 -21 0 -13 -15 -50 -26 -62 -6 -8 -74
23 -74 34 0 32 21 65 38 60 9 -2 27 -7 40 -11z m437 -62 c-4 -10 -10 -28 -12
-41 -6 -24 -23 -41 -23 -21 0 22 24 79 33 79 5 0 6 -8 2 -17z m-5864 -54 c14
-27 3 -38 -43 -45 -30 -5 -36 -3 -41 15 -4 15 2 24 21 35 38 20 50 19 63 -5z
m5526 -46 c121 -47 223 -98 223 -110 0 -7 -32 -75 -72 -150 -83 -160 -117
-228 -129 -260 l-8 -22 -61 28 c-34 16 -69 36 -78 43 -28 23 -101 68 -126 78
l-24 9 22 43 c12 24 29 54 38 68 9 14 21 43 28 65 6 22 20 58 30 80 11 22 30
66 44 98 14 31 30 57 35 57 6 0 41 -12 78 -27z m-5636 -10 c6 -16 21 -51 35
-80 13 -28 24 -55 24 -60 0 -4 27 -57 60 -118 56 -102 59 -111 43 -123 -10 -7
-29 -16 -43 -19 -14 -3 -61 -30 -106 -59 -110 -73 -121 -73 -159 -3 -16 31
-38 71 -48 89 -11 18 -30 61 -43 97 -13 35 -40 95 -59 134 -32 63 -34 70 -18
75 10 3 32 11 48 19 17 7 59 23 95 34 36 11 79 24 95 30 50 16 65 13 76 -16z
m5935 -18 c-10 -41 -56 -139 -62 -133 -6 6 22 111 38 141 14 27 31 21 24 -8z
m-473 1 c18 -14 22 -43 9 -64 -11 -16 -72 -5 -79 15 -8 22 14 63 34 63 10 0
26 -7 36 -14z m-5828 -64 c6 -21 5 -23 -13 -13 -11 6 -22 24 -24 41 -5 30 -4
30 13 13 9 -10 20 -29 24 -41z m552 -42 c11 -28 9 -31 -17 -45 -41 -21 -59
-19 -70 11 -13 33 -15 29 22 52 38 24 50 21 65 -18z m5194 -57 c31 -18 33 -22
23 -47 -10 -27 -41 -38 -64 -24 -20 13 -26 42 -14 72 8 20 19 20 55 -1z m487
-10 c-3 -5 -10 -23 -17 -40 -7 -18 -17 -33 -22 -33 -5 0 -2 16 6 36 8 20 15
38 15 40 0 2 5 4 11 4 6 0 9 -3 7 -7z m-6151 -58 c9 -25 -4 -29 -17 -6 -7 15
-7 21 0 21 6 0 13 -7 17 -15z m563 -52 c0 -7 -16 -21 -35 -30 -33 -16 -35 -16
-54 8 l-19 24 37 21 c32 19 38 19 54 6 9 -8 17 -21 17 -29z m-520 -52 c-1 -13
-4 -12 -15 3 -8 11 -15 27 -15 35 1 13 4 12 15 -3 8 -11 15 -27 15 -35z m6031
2 c-15 -28 -40 -59 -41 -50 0 16 31 67 41 67 6 0 6 -6 0 -17z m-487 -47 c-14
-46 -36 -52 -77 -21 -18 13 -18 15 -1 43 17 30 17 30 51 14 26 -13 32 -20 27
-36z m-5017 -123 c42 -65 103 -149 135 -186 32 -38 58 -72 58 -77 0 -4 -12
-13 -27 -18 -16 -6 -72 -47 -126 -92 -53 -45 -101 -80 -106 -78 -21 8 -219
261 -249 318 -7 13 -22 39 -33 56 -17 28 -17 33 -4 44 18 15 166 100 174 100
3 1 20 12 36 25 17 14 38 25 47 25 12 0 45 -42 95 -117z m89 58 c-3 -4 -19
-14 -36 -21 -24 -10 -33 -10 -45 0 -23 19 -18 36 18 57 l32 19 18 -23 c10 -12
16 -27 13 -32z m5042 17 c43 -22 93 -52 112 -65 19 -12 38 -23 43 -23 4 0 18
-7 31 -16 l24 -15 -39 -64 c-38 -63 -49 -92 -29 -80 19 12 10 -14 -22 -62 -40
-61 -37 -57 -44 -50 -4 4 5 22 20 41 29 39 37 78 11 56 -8 -7 -25 -30 -37 -51
-12 -22 -25 -39 -30 -39 -4 0 -16 -17 -27 -37 -11 -21 -34 -52 -53 -70 -33
-32 -33 -32 -66 -16 -18 9 -43 28 -56 43 -12 15 -33 33 -47 40 -30 16 -109 91
-109 103 0 5 34 51 75 102 41 52 75 102 75 112 0 10 18 40 40 67 22 26 40 52
40 57 0 14 7 12 88 -33z m-5548 -85 c51 -86 235 -353 267 -389 15 -16 63 -73
105 -125 43 -52 100 -116 128 -144 57 -57 66 -78 16 -40 -30 23 -97 94 -187
199 -19 22 -45 51 -59 65 -14 14 -43 53 -64 86 -22 33 -49 71 -61 85 -12 14
-35 47 -51 74 -16 26 -33 56 -39 65 -5 9 -20 30 -31 46 -24 34 -74 121 -74
129 0 19 20 -2 50 -51z m5835 21 c-23 -23 -28 -13 -8 16 10 14 18 19 21 12 2
-7 -4 -19 -13 -28z m-512 -17 l29 -22 -22 -28 c-26 -33 -37 -34 -67 -6 -22 21
-22 23 -6 50 21 35 30 36 66 6z m460 -66 c-19 -33 -36 -42 -26 -13 7 20 35 54
40 48 2 -2 -4 -17 -14 -35z m-5170 -11 c21 -35 18 -43 -24 -60 -29 -12 -33
-12 -50 11 -23 30 -23 38 -2 61 25 27 56 22 76 -12z m5127 -59 c-6 -12 -15
-21 -21 -21 -5 0 -2 11 8 24 21 28 29 27 13 -3z m-520 -26 c-1 -31 -17 -37
-54 -20 -35 17 -36 23 -13 52 7 10 16 9 38 -4 16 -10 29 -22 29 -28z m-4478
-127 c-31 -34 -39 -34 -69 -6 -28 26 -41 17 -20 -14 8 -13 80 -90 160 -172
l144 -150 -51 -55 c-29 -31 -71 -82 -95 -114 -24 -31 -50 -57 -58 -57 -7 0
-35 20 -61 46 -125 120 -216 214 -262 269 l-50 60 34 30 c19 17 71 57 115 90
45 33 94 72 108 88 15 15 32 27 38 27 7 0 20 9 30 20 l19 21 22 -28 22 -28
-26 -27z m4356 9 c22 -24 22 -24 2 -42 -19 -17 -20 -17 -30 9 -21 57 -8 72 28
33z m172 -39 c36 -35 92 -83 123 -107 l58 -44 -33 -36 c-164 -177 -273 -286
-314 -317 l-29 -21 -60 65 c-33 35 -82 86 -110 113 -49 47 -49 48 -31 68 40
44 52 39 147 -59 72 -74 93 -89 104 -80 9 8 11 19 6 33 -12 32 -5 173 12 235
14 52 14 54 -10 83 l-25 29 32 37 c18 20 37 42 44 49 6 7 13 13 15 14 3 0 34
-28 71 -62z m-4387 -63 c17 -23 17 -25 -10 -50 -34 -31 -49 -31 -74 -2 -25 30
-24 32 14 56 41 26 48 26 70 -4z m3925 13 c11 -15 -2 -58 -18 -58 -5 0 -18 -8
-28 -17 -28 -29 -74 -63 -84 -63 -5 0 2 15 15 33 14 17 28 43 32 57 15 52 59
77 83 48z m752 -22 c0 -3 -4 -8 -10 -11 -5 -3 -10 -1 -10 4 0 6 5 11 10 11 6
0 10 -2 10 -4z m-71 -86 c-19 -23 -35 -37 -36 -33 -4 10 59 84 65 78 2 -2 -11
-22 -29 -45z m-4471 -32 c19 -19 14 -42 -12 -67 -23 -22 -25 -22 -50 -6 -37
25 -32 43 19 73 25 15 28 15 43 0z m3767 -65 c30 -35 30 -44 0 -66 -24 -17
-24 -17 -51 18 -26 34 -26 36 -9 55 24 26 31 25 60 -7z m600 -23 c-10 -11 -20
-18 -23 -15 -7 6 18 35 31 35 5 0 2 -9 -8 -20z m-4205 -44 c9 -12 7 -21 -11
-45 -24 -33 -48 -34 -77 -5 -11 12 -9 18 15 39 32 28 55 31 73 11z m3791 -141
c30 -38 58 -75 62 -82 11 -19 -180 -174 -328 -267 l-90 -57 -22 28 c-13 15
-30 42 -38 58 -9 17 -35 57 -60 90 -24 33 -44 65 -44 71 -1 9 22 28 136 111
41 30 147 118 216 179 l29 25 42 -43 c23 -24 67 -74 97 -113z m-3941 114 c35
-31 179 -138 286 -212 l55 -38 -19 -32 c-11 -18 -48 -80 -82 -139 -35 -60 -64
-108 -65 -108 -5 0 -51 26 -92 53 -24 15 -47 27 -51 27 -11 0 -182 137 -234
188 -21 20 -38 42 -38 48 0 7 28 44 63 83 34 39 78 90 97 115 19 25 37 45 40
45 3 0 21 -13 40 -30z m4285 -9 c-16 -16 -31 -28 -33 -25 -7 7 39 55 52 55 5
0 -3 -13 -19 -30z m-676 -26 c23 -38 21 -48 -9 -64 -16 -9 -23 -4 -44 27 -24
34 -24 38 -9 55 24 26 39 22 62 -18z m-4033 -66 c34 -37 211 -193 255 -223 28
-19 37 -35 21 -35 -7 0 -70 52 -119 98 -13 12 -27 22 -31 22 -8 1 -139 125
-161 153 -24 30 4 18 35 -15z m733 15 l21 -18 -20 -32 c-23 -38 -38 -41 -71
-14 l-24 19 29 31 c35 36 37 37 65 14z m3911 13 c0 -14 -354 -317 -390 -335
-33 -17 26 39 154 144 53 44 127 106 164 137 69 59 72 61 72 54z m-785 -81
l19 -36 -26 -26 c-29 -29 -41 -25 -64 20 -16 30 -16 31 12 54 16 13 31 23 34
23 3 0 14 -16 25 -35z m-2972 -29 c22 -17 22 -25 -6 -59 -21 -26 -25 -28 -50
-16 -33 15 -33 20 -1 58 29 35 32 36 57 17z m2779 -68 c28 -44 29 -57 3 -74
-29 -19 -50 -8 -67 35 -7 21 -5 28 14 43 30 23 33 22 50 -4z m-2815 -40 c27
-18 58 -39 68 -45 31 -20 154 -77 220 -103 89 -35 90 -37 66 -101 -53 -143
-90 -224 -105 -227 -9 -2 -56 13 -104 34 -99 42 -349 171 -357 184 -5 8 51
118 85 170 6 8 21 39 34 68 14 28 29 52 34 52 6 0 32 -15 59 -32z m208 18 c19
-14 19 -16 2 -50 -18 -40 -33 -44 -77 -21 l-30 15 23 35 c24 38 51 44 82 21z
m2832 -154 c41 -68 73 -125 71 -126 -66 -41 -100 -59 -183 -98 -55 -26 -122
-56 -150 -68 -27 -11 -67 -30 -88 -41 -20 -11 -42 -19 -48 -17 -7 2 -19 28
-29 58 -10 30 -32 93 -49 139 -17 46 -31 85 -31 86 0 1 19 10 43 20 23 9 112
52 197 96 85 43 163 77 174 76 12 -1 44 -45 93 -125z m-387 76 c18 -40 18 -44
3 -55 -30 -23 -53 -15 -69 22 -19 45 -18 50 9 63 34 16 37 15 57 -30z m-2240
-13 c10 -12 10 -21 0 -45 -7 -17 -16 -33 -21 -36 -11 -6 -71 24 -66 34 24 51
33 62 52 62 13 0 28 -7 35 -15z m-930 -27 c0 -6 -6 -5 -15 2 -8 7 -15 14 -15
16 0 2 7 1 15 -2 8 -4 15 -11 15 -16z m2985 -40 c16 -56 16 -55 -5 -58 -31 -5
-40 1 -55 36 -20 49 -19 62 8 67 12 2 25 5 29 6 4 0 14 -22 23 -51z m-2827
-68 c6 -6 12 -15 12 -20 0 -5 -22 6 -48 23 -52 35 -112 83 -112 90 0 5 123
-73 148 -93z m952 72 c19 -15 20 -22 12 -52 -8 -32 -12 -35 -43 -32 -47 4 -52
12 -32 60 20 46 30 50 63 24z m2771 -6 c-10 -12 -111 -78 -171 -112 -11 -6
-28 -18 -37 -26 -42 -36 -359 -195 -369 -185 -2 2 47 29 109 59 62 30 143 74
181 97 37 22 70 41 72 41 2 0 38 24 79 53 105 72 129 87 139 87 5 0 3 -6 -3
-14z m-1088 -49 c11 -45 4 -67 -22 -67 -20 0 -28 14 -41 67 -6 25 -4 33 9 36
33 9 45 1 54 -36z m-1494 12 c31 -11 32 -14 26 -48 -9 -49 -17 -55 -62 -44
-43 10 -51 29 -33 74 14 32 22 34 69 18z m1310 -60 c7 -27 11 -53 8 -55 -3 -3
-23 -8 -46 -11 -36 -5 -41 -3 -46 20 -12 46 -2 81 25 88 43 12 46 10 59 -42z
m-1612 16 c34 -13 97 -31 304 -85 101 -26 96 -16 75 -155 -3 -16 -10 -63 -16
-104 -6 -41 -13 -77 -15 -80 -3 -2 -27 1 -53 7 -26 7 -78 16 -117 21 -79 11
-365 101 -365 115 0 5 6 17 13 25 7 9 19 36 26 61 12 40 39 122 62 188 10 26
33 28 86 7z m521 -5 c13 0 16 -39 6 -76 -5 -19 -11 -21 -52 -16 -26 2 -48 6
-50 7 -1 1 7 24 18 50 17 41 23 46 43 41 12 -3 28 -6 35 -6z m882 -12 c0 -7 3
-29 6 -49 6 -36 5 -37 -31 -43 -27 -5 -40 -4 -46 6 -10 16 -12 82 -2 91 12 12
73 8 73 -5z m626 -5 c6 -20 82 -221 90 -239 9 -19 -109 -62 -266 -95 -52 -11
-128 -31 -169 -45 -40 -13 -76 -22 -81 -19 -4 2 -10 41 -14 86 -4 45 -11 89
-16 99 -5 9 -12 39 -15 66 l-7 49 54 12 c29 7 105 26 168 44 241 66 248 67
256 42z m-1276 -19 c0 -12 -3 -36 -6 -53 -6 -30 -9 -32 -43 -29 -30 2 -35 7
-33 23 2 11 3 35 2 53 -1 32 0 33 40 30 34 -2 40 -5 40 -24z m190 -8 c0 -13
-3 -38 -6 -55 -6 -27 -11 -32 -33 -29 -24 3 -26 7 -29 56 l-3 52 35 0 c31 0
36 -3 36 -24z m235 -25 c0 -41 -2 -45 -30 -53 -46 -12 -55 -4 -55 52 l0 51 43
-3 42 -3 0 -44z m-1873 3 c150 -85 435 -217 535 -248 26 -8 73 -24 103 -36 67
-25 276 -81 345 -91 28 -4 69 -12 93 -18 73 -19 303 -41 441 -42 105 -1 131
-4 131 -15 0 -15 -14 -17 -135 -16 -87 1 -137 5 -293 28 -57 8 -107 12 -111 9
-5 -2 -40 2 -77 11 -246 56 -288 68 -429 124 -283 112 -390 158 -474 202 -99
52 -211 118 -211 124 0 10 24 1 82 -32z m1259 -69 c63 -8 171 -16 242 -16
l127 -1 0 -44 c0 -44 0 -44 -45 -55 -51 -13 -75 -45 -75 -98 0 -34 20 -51 85
-71 90 -28 65 -56 -46 -53 -197 5 -350 14 -407 24 l-62 11 4 32 c3 17 8 69 11
116 10 142 15 170 34 170 10 0 69 -7 132 -15z m953 -7 c2 -13 10 -61 17 -108
6 -47 18 -102 25 -124 8 -21 14 -41 14 -45 0 -4 -64 -15 -142 -24 -79 -10
-167 -22 -197 -28 -30 -5 -101 -9 -158 -9 l-103 0 0 25 c0 21 5 25 30 25 26 0
30 4 30 28 0 15 5 33 11 39 22 22 2 43 -41 43 -36 0 -40 3 -40 24 0 19 4 23
19 19 13 -3 21 2 26 16 8 26 -2 42 -23 39 -13 -2 -17 5 -17 29 l0 32 175 6
c96 3 209 12 250 19 108 20 119 20 124 -6z m696 -138 c-20 -13 -33 -13 -25 0
3 6 14 10 23 10 15 0 15 -2 2 -10z m-1280 -55 c0 -59 -8 -67 -40 -35 -24 24
-25 38 -4 68 28 40 44 28 44 -33z m1230 41 c0 -2 -13 -9 -30 -15 -35 -12 -41
-5 -7 9 25 10 37 12 37 6z m-1182 -79 c5 -37 -15 -34 -20 3 -3 19 -1 29 6 27
6 -2 12 -16 14 -30z m1027 23 c-82 -34 -199 -71 -240 -75 l-50 -6 40 14 c22 8
74 25 115 37 41 12 84 26 95 30 11 5 29 9 40 9 l20 0 -20 -9z m-295 -85 c0 -8
-74 -24 -226 -51 -153 -27 -480 -48 -498 -32 -6 5 -4 8 5 8 139 2 463 35 624
65 81 15 95 17 95 10z"></path>
<path d="M3258 6485 c-39 -35 -49 -70 -26 -93 8 -8 17 -8 30 -1 11 6 22 8 25
5 10 -9 -19 -36 -61 -59 -31 -16 -37 -22 -23 -25 47 -10 123 43 133 93 7 39
-12 115 -29 115 -7 0 -29 -16 -49 -35z m32 -35 c0 -5 -5 -10 -11 -10 -5 0 -7
5 -4 10 3 6 8 10 11 10 2 0 4 -4 4 -10z"></path>
<path d="M3379 6494 c-7 -8 -14 -37 -17 -64 -4 -47 -3 -49 23 -56 22 -5 31 -2
46 17 19 24 25 75 11 95 -12 18 -50 23 -63 8z m41 -58 c0 -15 -18 -31 -26 -23
-7 7 7 37 17 37 5 0 9 -6 9 -14z"></path>
<path d="M3611 6506 c-13 -14 -24 -38 -24 -58 -2 -30 0 -33 26 -31 35 2 34 -9
-4 -42 -41 -34 -30 -44 17 -15 44 28 74 74 74 116 0 56 -49 73 -89 30z m39
-46 c0 -5 -4 -10 -10 -10 -5 0 -10 5 -10 10 0 6 5 10 10 10 6 0 10 -4 10 -10z"></path>
<path d="M3762 6514 c-17 -8 -52 -78 -52 -104 0 -28 24 -35 72 -21 31 10 43
20 54 47 16 37 11 74 -9 74 -7 0 -21 2 -32 5 -11 2 -26 1 -33 -1z m38 -63 c0
-15 -28 -33 -40 -26 -8 5 -8 11 1 21 13 15 39 19 39 5z"></path>
<path d="M2651 6457 c-41 -20 -49 -90 -15 -124 7 -8 11 -20 8 -28 -3 -7 0 -23
6 -35 16 -30 67 -24 93 12 l21 28 -22 30 c-14 18 -22 44 -22 68 0 58 -22 73
-69 49z m34 -75 c-8 -9 -25 20 -18 31 3 5 10 2 15 -7 6 -10 7 -20 3 -24z m23
-69 c-4 -22 -22 -20 -26 1 -2 10 3 16 13 16 10 0 15 -7 13 -17z"></path>
<path d="M2802 6427 c-16 -19 -18 -68 -3 -95 10 -19 18 -22 39 -17 15 4 28 7
28 8 13 18 30 66 27 78 -4 16 -43 39 -67 39 -8 0 -18 -6 -24 -13z m48 -47 c0
-11 -7 -20 -15 -20 -17 0 -18 2 -9 24 9 23 24 20 24 -4z"></path>
<path d="M4138 6493 c-25 -6 -32 -40 -14 -67 9 -15 13 -36 10 -57 -3 -21 0
-41 8 -51 19 -24 59 -32 82 -15 17 12 17 17 6 52 -10 29 -10 40 -1 43 12 4 15
51 3 69 -4 6 -20 17 -35 22 -29 11 -31 12 -59 4z m62 -52 c0 -12 -20 -25 -27
-18 -7 7 6 27 18 27 5 0 9 -4 9 -9z m0 -85 c0 -8 -7 -16 -15 -20 -15 -5 -21
14 -8 27 11 12 23 8 23 -7z"></path>
<path d="M4291 6409 c-25 -15 -31 -25 -31 -53 0 -36 27 -66 61 -66 22 0 45 29
53 65 6 26 2 34 -22 52 -29 21 -29 21 -61 2z m39 -54 c0 -8 -7 -15 -15 -15 -8
0 -15 7 -15 15 0 8 7 15 15 15 8 0 15 -7 15 -15z"></path>
<path d="M4656 6303 c-13 -13 -5 -31 15 -36 27 -7 17 -23 -29 -45 -19 -9 -37
-23 -40 -29 -6 -21 29 -15 82 15 28 16 64 32 79 36 16 4 27 12 25 17 -6 18
-120 54 -132 42z"></path>
<path d="M4785 6225 c-29 -28 -31 -46 -9 -80 20 -31 43 -32 78 -4 23 18 26 26
20 53 -13 61 -47 74 -89 31z m45 -50 c0 -8 -4 -15 -9 -15 -13 0 -22 16 -14 24
11 11 23 6 23 -9z"></path>
<path d="M2261 6271 c-19 -19 -21 -57 -6 -107 6 -19 44 -23 61 -7 23 24 15
102 -13 120 -19 13 -24 12 -42 -6z m39 -56 c0 -8 -4 -15 -10 -15 -5 0 -10 7
-10 15 0 8 5 15 10 15 6 0 10 -7 10 -15z"></path>
<path d="M2165 6235 c-16 -8 -42 -19 -57 -24 -18 -7 -28 -18 -28 -31 0 -26 22
-35 51 -20 20 11 21 10 16 -11 -21 -96 -21 -91 -2 -87 14 2 25 25 44 86 27 92
23 109 -24 87z"></path>
<path d="M2220 6140 c0 -5 7 -10 15 -10 8 0 15 5 15 10 0 6 -7 10 -15 10 -8 0
-15 -4 -15 -10z"></path>
<path d="M5194 6045 c-60 -20 -84 -43 -84 -80 0 -41 26 -60 70 -50 41 9 64 38
57 74 -6 27 -4 29 40 40 25 7 43 15 39 18 -10 11 -88 9 -122 -2z m4 -78 c2
-12 -3 -17 -17 -17 -12 0 -21 6 -21 13 0 31 32 34 38 4z"></path>
<path d="M5258 5938 c-35 -9 -38 -13 -38 -46 0 -55 10 -65 56 -56 52 9 64 20
64 60 0 23 -6 37 -19 44 -11 5 -21 10 -23 9 -2 -1 -20 -6 -40 -11z m46 -37 c7
-10 -22 -37 -30 -28 -9 8 3 37 15 37 5 0 12 -4 15 -9z"></path>
<path d="M1686 6003 c-10 -21 -20 -62 -23 -91 -5 -46 -3 -56 17 -77 30 -32 53
-32 79 1 25 32 26 52 6 101 -12 29 -18 33 -29 23 -8 -6 -17 -19 -19 -28 -3 -9
-3 1 -1 23 2 22 7 50 10 63 11 38 -20 26 -40 -15z m61 -127 c-8 -19 -37 -21
-37 -3 0 7 5 18 12 25 15 15 33 -1 25 -22z"></path>
<path d="M1785 5996 c-14 -20 -14 -29 -4 -48 13 -23 38 -47 52 -48 15 0 47 41
47 60 0 26 -34 60 -60 60 -11 0 -27 -11 -35 -24z m50 -34 c0 -18 -20 -15 -23
4 -3 10 1 15 10 12 7 -3 13 -10 13 -16z"></path>
<path d="M3269 5683 c-4 -28 6 -61 24 -80 25 -28 39 -29 62 -3 10 11 25 20 33
20 9 0 13 -7 9 -20 -4 -17 0 -20 25 -20 29 0 30 2 24 33 -7 34 -38 67 -65 67
-9 0 -24 -12 -34 -27 l-17 -28 2 30 c3 27 0 30 -29 33 -18 2 -33 0 -34 -5z"></path>
<path d="M3259 5563 c-1 -10 -1 -21 -1 -24 3 -31 1 -142 -4 -172 l-6 -39 68 6
c66 5 68 5 30 -7 -22 -8 -52 -29 -68 -47 -26 -32 -28 -40 -28 -127 0 -94 10
-119 32 -83 10 16 23 20 65 20 90 0 101 -14 55 -69 -28 -34 -28 -34 -54 -17
-24 16 -29 16 -56 2 -20 -10 -33 -26 -37 -45 -7 -35 -14 -191 -8 -207 2 -7 31
-9 82 -6 55 3 81 1 86 -8 13 -22 -15 -35 -88 -40 -45 -3 -72 -9 -72 -17 0 -6
17 -29 37 -52 l36 -41 -31 -22 c-42 -29 -47 -37 -47 -74 l0 -31 69 5 c45 3 71
1 75 -7 13 -21 46 -13 46 12 0 37 -14 51 -38 38 -25 -13 -72 -15 -72 -2 0 5
18 22 40 38 l39 30 -45 32 c-59 41 -53 57 20 54 46 -2 56 1 57 15 7 114 5 144
-8 158 -23 22 -33 17 -31 -17 4 -40 -18 -50 -32 -15 -11 31 -26 34 -33 6 -6
-23 -35 -27 -43 -5 -4 8 -1 22 6 30 10 12 10 18 0 30 -19 23 -8 27 77 29 77 1
78 1 81 29 3 25 2 26 -23 17 -27 -10 -45 -6 -45 10 0 5 15 24 34 42 39 38 53
80 31 98 -7 6 -12 17 -9 24 3 8 -15 12 -66 12 -80 1 -108 16 -76 40 23 16 102
19 111 4 3 -5 13 -10 22 -10 13 0 15 11 11 62 -4 51 -9 65 -31 84 l-27 23 28
3 c20 2 28 9 30 28 3 25 2 25 -72 25 -46 0 -80 5 -87 12 -19 19 -9 23 77 31
l79 7 3 44 c3 43 -7 60 -35 61 -9 0 -10 -7 -3 -26 15 -38 13 -44 -14 -44 -18
0 -26 6 -28 22 -5 35 -28 34 -28 -2 0 -25 -4 -31 -17 -28 -13 3 -18 13 -18 38
0 19 -4 45 -8 58 -10 26 -36 30 -38 5z m132 -304 c30 -30 19 -44 -39 -47 -59
-3 -65 6 -27 43 29 30 39 31 66 4z m-51 -309 c0 -5 -9 -10 -20 -10 -11 0 -20
5 -20 10 0 6 9 10 20 10 11 0 20 -4 20 -10z"></path>
<path d="M3591 6095 c-26 -34 -26 -47 -2 -69 14 -13 17 -26 14 -59 -6 -49 15
-82 57 -92 21 -5 29 -1 40 19 7 14 17 26 22 26 16 0 8 47 -12 65 -15 14 -18
26 -14 59 6 51 -1 62 -47 71 -32 6 -39 3 -58 -20z m75 -26 c10 -17 -23 -46
-37 -32 -7 7 -9 19 -6 27 7 18 33 21 43 5z m11 -105 c8 -20 -17 -36 -34 -22
-10 8 -10 14 -2 24 15 18 28 18 36 -2z"></path>
<path d="M5460 3683 c0 -5 4 -25 9 -45 5 -20 6 -39 3 -42 -2 -3 -25 15 -49 39
l-44 45 -72 0 c-99 0 -121 -7 -111 -34 10 -29 10 -107 0 -128 -7 -16 -2 -18
47 -18 41 0 56 4 61 16 11 29 6 33 -30 27 -32 -5 -36 -4 -32 13 2 11 13 20 26
22 27 4 29 22 2 22 -12 0 -20 7 -20 16 0 13 7 15 34 10 27 -5 37 -3 45 11 17
29 31 -3 31 -74 0 -56 2 -63 20 -63 17 0 18 5 13 50 -3 28 -4 50 -1 50 2 0 21
-22 42 -50 21 -28 46 -50 56 -50 16 0 18 6 13 55 -4 41 -2 61 11 79 26 41 21
56 -19 56 -19 0 -35 -3 -35 -7z"></path>
<path d="M5587 3679 c-22 -13 -46 -60 -39 -79 2 -8 14 -23 26 -32 11 -9 17
-20 13 -24 -4 -4 -13 -2 -19 4 -19 19 -28 14 -28 -18 0 -38 21 -39 67 -4 38
29 42 48 13 66 -29 18 -24 31 9 23 24 -5 29 -2 34 16 13 47 -30 75 -76 48z"></path>
<path d="M4440 3640 c-27 -34 -31 -46 -26 -75 15 -78 121 -115 166 -57 46 58
-6 172 -78 172 -23 0 -38 -9 -62 -40z m88 -28 c21 -14 27 -76 8 -91 -34 -29
-69 14 -54 67 9 32 22 39 46 24z"></path>
<path d="M4835 3650 c-41 -18 -64 -46 -71 -86 -8 -46 85 -86 116 -49 10 13 9
15 -12 15 -30 0 -61 31 -52 53 6 17 31 30 44 22 10 -6 40 33 40 52 0 17 -17
15 -65 -7z"></path>
<path d="M4924 3657 c-3 -9 2 -29 10 -45 12 -23 14 -41 7 -76 -8 -45 -8 -46
19 -46 26 0 27 1 27 68 0 37 2 76 4 87 3 16 -2 21 -29 23 -21 2 -34 -2 -38
-11z"></path>
<path d="M5024 3655 c-3 -8 1 -22 10 -30 20 -20 20 -61 1 -99 -20 -37 -20 -36
18 -36 45 0 117 51 117 83 0 43 -13 68 -41 82 -37 20 -98 20 -105 0z m96 -66
c9 -15 8 -24 -1 -35 -19 -23 -29 -16 -29 21 0 39 14 46 30 14z"></path>
<path d="M4662 3629 c-36 -35 -40 -58 -16 -94 20 -31 83 -53 95 -34 14 22 11
27 -17 31 -53 6 -58 68 -6 76 25 4 46 27 37 42 -13 21 -61 10 -93 -21z"></path>
<path d="M4205 3502 c-34 -7 -40 -20 -12 -27 33 -9 64 7 45 21 -7 6 -22 9 -33
6z"></path>
<path d="M4130 3480 c0 -5 5 -10 10 -10 6 0 10 5 10 10 0 6 -4 10 -10 10 -5 0
-10 -4 -10 -10z"></path>
<path d="M5600 5675 c-11 -28 -14 -29 -40 -15 -10 5 -26 7 -34 4 -39 -15 0
-53 56 -54 30 0 41 6 58 30 23 33 40 39 40 15 0 -17 38 -35 73 -35 l21 0 -22
20 c-12 12 -22 30 -22 40 0 18 -7 20 -60 20 -55 0 -61 -2 -70 -25z"></path>
<path d="M5678 5588 c-59 -21 -17 -78 57 -78 46 0 65 14 65 45 0 15 -10 25
-33 33 -39 14 -52 14 -89 0z m63 -33 c0 -5 -9 -11 -21 -13 -20 -3 -27 8 -13
22 10 9 34 3 34 -9z"></path>
<path d="M3385 3520 c-11 -5 -41 -9 -67 -9 -53 -1 -58 -9 -27 -37 17 -15 20
-28 18 -84 l-3 -65 57 -9 c52 -8 59 -7 81 13 20 19 28 21 45 12 30 -16 65 -4
85 29 21 37 13 74 -20 89 -35 16 -52 14 -85 -10 -22 -16 -29 -28 -29 -54 0
-31 -3 -35 -36 -41 -37 -7 -62 6 -50 25 4 6 13 11 21 11 25 0 26 30 0 40 -16
6 -25 17 -25 31 0 22 -1 22 58 3 13 -4 22 2 30 21 7 14 12 30 12 35 0 12 -38
12 -65 0z m149 -106 c19 -18 12 -34 -14 -34 -25 0 -35 17 -20 35 15 18 15 18
34 -1z"></path>
<path d="M5923 5303 c-51 -5 -54 -17 -13 -38 35 -18 37 -29 9 -49 -12 -8 -18
-19 -14 -25 9 -16 46 -13 66 5 11 10 25 14 36 10 16 -7 15 -10 -9 -28 -16 -11
-28 -28 -28 -37 0 -35 95 -56 120 -26 17 21 5 61 -21 68 -12 3 -18 10 -14 17
4 6 -1 17 -11 25 -18 13 -18 15 -1 43 9 17 17 33 17 36 0 6 -62 6 -137 -1z
m57 -23 c0 -5 -7 -10 -16 -10 -8 0 -12 5 -9 10 3 6 10 10 16 10 5 0 9 -4 9
-10z m68 -128 c2 -7 -6 -12 -17 -12 -21 0 -27 11 -14 24 9 9 26 2 31 -12z"></path>
<path d="M1007 5323 c-4 -3 -7 -22 -7 -40 0 -36 44 -93 73 -93 16 0 37 41 37
71 0 42 -77 88 -103 62z"></path>
<path d="M924 5163 c9 -95 19 -108 52 -70 20 24 27 27 39 17 17 -15 45 -6 45
13 0 8 -9 22 -19 31 -12 11 -17 25 -13 38 4 18 2 20 -25 14 -22 -5 -34 -2 -48
14 -32 36 -38 24 -31 -57z m41 -3 c3 -5 1 -10 -4 -10 -6 0 -11 5 -11 10 0 6 2
10 4 10 3 0 8 -4 11 -10z"></path>
<path d="M907 3693 c-8 -16 -20 -45 -26 -66 -7 -20 -28 -59 -47 -87 -47 -68
-45 -80 11 -80 l46 0 -7 35 c-6 31 -4 35 15 35 25 0 39 -26 22 -43 -6 -6 -11
-15 -11 -19 0 -10 107 -11 113 0 3 4 -3 23 -14 42 -46 88 -59 117 -59 140 0
35 -11 70 -21 70 -5 0 -15 -12 -22 -27z m13 -120 c0 -7 -9 -13 -20 -13 -23 0
-24 4 -9 32 9 17 13 18 20 7 5 -8 9 -20 9 -26z"></path>
<path d="M718 4859 c-10 -5 -18 -16 -18 -24 0 -24 20 -60 41 -73 49 -31 85 59
37 92 -26 18 -36 19 -60 5z m42 -50 c0 -5 -4 -9 -10 -9 -5 0 -10 7 -10 16 0 8
5 12 10 9 6 -3 10 -10 10 -16z"></path>
<path d="M624 4735 c-16 -40 -18 -74 -4 -95 9 -13 11 -13 20 0 5 8 10 25 10
38 0 28 16 29 23 1 4 -15 11 -20 21 -16 41 16 62 -23 26 -45 -31 -20 -24 -27
15 -15 40 12 54 44 36 83 -8 19 -18 24 -45 24 -28 0 -38 6 -53 30 -22 39 -31
38 -49 -5z"></path>
<path d="M6240 4929 c0 -7 12 -26 27 -41 29 -30 21 -35 -35 -19 -30 9 -32 8
-32 -16 0 -20 -4 -24 -17 -18 -36 15 -53 17 -53 8 0 -16 33 -40 63 -45 23 -4
31 -1 39 17 11 26 51 38 67 22 18 -18 35 7 22 31 -6 11 -11 30 -11 41 0 12 -6
21 -12 21 -7 0 -23 3 -35 6 -15 4 -23 2 -23 -7z"></path>
<path d="M6263 4772 c-11 -7 -17 -26 -14 -48 0 -5 15 -20 32 -33 27 -20 34
-21 60 -11 53 22 31 80 -36 94 -16 3 -35 3 -42 -2z m67 -53 c0 -5 -9 -9 -20
-9 -11 0 -20 6 -20 14 0 9 7 12 20 9 11 -3 20 -9 20 -14z"></path>
<path d="M6470 4404 c0 -5 7 -18 15 -28 26 -34 19 -45 -20 -33 -19 6 -38 7
-42 3 -13 -13 13 -61 40 -74 35 -17 46 -9 24 16 -26 29 -21 35 23 28 44 -7 46
-3 25 34 -9 18 -10 29 -3 37 8 9 7 13 -3 13 -8 0 -24 3 -36 6 -13 4 -23 2 -23
-2z"></path>
<path d="M6488 4229 c-26 -15 -22 -44 8 -68 48 -38 94 -22 94 31 0 42 -58 63
-102 37z m62 -39 c0 -5 -11 -10 -25 -10 -14 0 -25 5 -25 10 0 6 11 10 25 10
14 0 25 -4 25 -10z"></path>
<path d="M483 4373 c-22 -8 -15 -62 12 -88 27 -28 37 -30 66 -15 57 31 -17
128 -78 103z m53 -61 c-9 -9 -37 8 -31 18 5 8 11 7 21 -1 8 -6 12 -14 10 -17z"></path>
<path d="M507 4218 c-5 -18 -9 -20 -19 -10 -30 30 -78 -12 -56 -51 11 -21 28
-22 28 -3 0 13 4 13 28 0 24 -12 28 -12 40 4 15 20 12 74 -4 79 -6 2 -14 -6
-17 -19z"></path>
<path d="M372 3828 c-19 -19 -14 -57 13 -83 27 -28 45 -31 63 -13 18 18 14 52
-9 82 -22 28 -48 33 -67 14z m56 -51 c2 -10 -3 -17 -12 -17 -18 0 -29 16 -21
31 9 14 29 6 33 -14z"></path>
<path d="M330 3687 c0 -24 38 -54 76 -61 39 -8 50 -2 56 29 2 15 -6 23 -32 32
-48 16 -100 16 -100 0z"></path>
<path d="M6567 3870 c-50 -9 -56 -18 -30 -39 17 -14 34 -17 75 -13 29 2 54 6
56 7 2 2 -4 15 -13 29 -18 27 -25 28 -88 16z"></path>
<path d="M6578 3768 c-51 -18 -29 -77 35 -93 70 -18 77 73 7 97 -8 3 -27 1
-42 -4z m47 -49 c-11 -17 -35 -9 -35 11 0 18 3 19 20 10 11 -6 18 -15 15 -21z"></path>
<path d="M6147 3379 c-39 -11 -55 -26 -62 -60 -9 -39 16 -76 63 -95 20 -8 45
-19 54 -24 30 -17 38 -11 38 25 0 31 -3 35 -26 35 -38 0 -64 18 -64 44 0 35
61 51 89 24 10 -11 12 -6 9 22 -3 33 -5 35 -38 36 -19 0 -48 -3 -63 -7z"></path>
<path d="M5764 2535 c-7 -18 3 -35 21 -35 21 0 28 19 15 35 -16 19 -29 19 -36
0z"></path>
<path d="M5565 1850 c-4 -6 -3 -16 3 -22 6 -6 12 -6 17 2 4 6 3 16 -3 22 -6 6
-12 6 -17 -2z"></path>
<path d="M372 3308 c-19 -19 -13 -52 14 -71 29 -21 62 -19 78 5 8 14 5 23 -19
48 -31 32 -53 38 -73 18z m48 -48 c0 -5 -4 -10 -9 -10 -6 0 -13 5 -16 10 -3 6
1 10 9 10 9 0 16 -4 16 -10z"></path>
<path d="M352 3148 c-20 -20 -13 -53 18 -83 24 -23 32 -26 45 -15 8 7 15 21
15 32 0 29 28 33 61 9 28 -21 29 -21 29 -2 0 45 -135 92 -168 59z m53 -38 c3
-5 1 -10 -4 -10 -6 0 -11 5 -11 10 0 6 2 10 4 10 3 0 8 -4 11 -10z"></path>
<path d="M1114 3284 c0 -44 -4 -91 -8 -106 -8 -26 -6 -28 23 -28 l32 0 -7 46
c-8 53 1 53 44 2 14 -16 34 -28 48 -28 33 0 30 13 -12 49 -34 30 -35 32 -23
66 16 44 0 64 -58 72 l-40 5 1 -78z m66 15 c0 -5 -7 -9 -15 -9 -15 0 -20 12
-9 23 8 8 24 -1 24 -14z"></path>
<path d="M1527 3298 c-4 -35 -9 -76 -13 -91 -6 -26 -4 -28 17 -25 21 3 24 9
27 56 2 28 7 52 11 52 4 0 23 -27 42 -60 52 -91 71 -83 83 35 3 28 6 59 8 70
2 15 -3 21 -23 23 -26 3 -27 2 -22 -42 3 -26 3 -46 0 -46 -4 0 -28 20 -54 45
-26 24 -53 45 -59 45 -6 0 -14 -27 -17 -62z"></path>
<path d="M1295 3260 c-1 -56 3 -90 9 -90 6 0 45 5 88 12 64 10 78 16 87 35 10
22 -2 43 -14 23 -6 -10 -45 -14 -45 -4 0 16 23 44 35 44 8 0 15 7 15 15 0 9
-6 15 -13 13 -7 -2 -14 2 -15 7 -1 6 9 11 23 13 46 6 26 22 -29 22 l-53 0 4
-47 c5 -52 -14 -92 -37 -78 -9 5 -10 24 -6 66 l7 59 -28 0 -28 0 0 -90z"></path>
<path d="M1761 3331 c-25 -25 -27 -44 -6 -61 19 -16 20 -34 1 -27 -16 7 -30
-8 -40 -40 -6 -19 -4 -23 14 -23 11 0 36 7 55 14 31 13 35 20 35 50 0 19 -4
38 -10 41 -16 10 -12 19 11 30 32 15 28 30 -8 33 -22 2 -38 -3 -52 -17z"></path>
<path d="M952 3333 c-17 -7 -42 -57 -42 -85 0 -32 24 -63 62 -82 31 -16 33
-15 59 10 14 14 35 41 45 59 17 33 17 34 -7 69 -21 31 -29 36 -64 35 -22 0
-46 -3 -53 -6z m76 -38 c20 -25 20 -56 0 -82 -26 -33 -77 49 -56 90 12 24 33
21 56 -8z"></path>
<path d="M2040 2925 c0 -8 5 -15 10 -15 6 0 10 7 10 15 0 8 -4 15 -10 15 -5 0
-10 -7 -10 -15z"></path>
<path d="M3265 809 c-4 -6 2 -13 13 -16 30 -7 45 -106 20 -131 -14 -14 2 -17
62 -12 58 4 87 24 95 67 6 34 4 40 -29 70 -32 30 -42 33 -95 33 -33 0 -63 -5
-66 -11z m132 -41 c25 -29 17 -68 -17 -85 -13 -7 -26 -10 -28 -8 -3 2 -4 25
-4 50 2 70 14 81 49 43z"></path>
<path d="M6542 3176 c-16 -36 17 -86 58 -86 40 0 54 27 34 66 -27 50 -73 61
-92 20z m58 -37 c0 -6 -4 -7 -10 -4 -5 3 -10 11 -10 16 0 6 5 7 10 4 6 -3 10
-11 10 -16z"></path>
<path d="M3636 2414 c-39 -40 -36 -93 6 -129 27 -23 39 -26 75 -22 53 6 73 21
73 57 0 98 -92 155 -154 94z m96 -41 c38 -34 11 -80 -41 -68 -16 3 -36 14 -45
24 -14 15 -14 19 0 39 18 26 60 29 86 5z"></path>
<path d="M3594 2234 c3 -9 6 -31 6 -50 l0 -34 25 16 c18 12 39 15 75 12 28 -3
53 -8 56 -11 4 -3 -3 -19 -15 -34 -54 -70 -62 -78 -67 -65 -3 6 -16 12 -30 12
-32 0 -56 -39 -52 -86 l3 -38 102 -1 101 -1 4 34 c5 41 -8 48 -48 27 -34 -17
-54 -19 -54 -5 0 28 33 70 68 85 38 17 38 17 37 75 0 32 -3 62 -7 65 -4 4 -22
1 -40 -8 -41 -19 -111 -16 -136 6 -23 21 -36 22 -28 1z m76 -204 c0 -18 -5
-25 -19 -27 -22 -3 -31 6 -24 22 6 17 43 21 43 5z"></path>
<path d="M3600 1856 c0 -70 2 -77 25 -92 30 -20 41 -14 26 14 -6 12 -11 25
-11 31 0 15 67 13 112 -3 43 -15 48 -13 48 26 0 33 -24 47 -51 30 -21 -13
-119 -16 -119 -4 0 4 7 18 16 30 19 27 18 28 -19 37 l-27 7 0 -76z"></path>
<path d="M3602 1713 c3 -27 5 -28 56 -25 30 2 52 0 52 -6 0 -6 -25 -24 -55
-41 -46 -26 -55 -36 -55 -59 0 -26 1 -27 62 -28 35 0 75 -4 91 -9 25 -7 27 -5
27 24 0 24 -4 31 -19 31 -11 0 -23 -4 -26 -10 -8 -13 -65 -13 -65 -1 0 6 25
25 55 43 53 32 73 57 60 78 -3 5 -39 10 -80 10 -41 0 -77 5 -80 10 -12 20 -26
9 -23 -17z"></path>
<path d="M3594 1440 c-1 -39 3 -70 7 -70 4 0 19 5 32 11 19 9 37 7 80 -5 30
-9 58 -16 61 -16 3 0 6 27 6 60 0 56 -2 60 -31 75 -31 16 -31 16 -23 -7 4 -13
8 -34 8 -48 1 -34 -36 -35 -44 -1 -8 34 -30 39 -30 7 0 -17 -5 -26 -16 -26
-13 0 -15 7 -11 33 4 26 1 36 -14 45 -10 7 -20 12 -21 12 -2 0 -3 -32 -4 -70z"></path>
<path d="M3586 1279 c-7 -75 -4 -89 20 -89 11 0 14 8 12 28 -3 26 -2 27 42 24
25 -2 60 -13 78 -24 l32 -20 0 56 c0 31 -2 56 -3 56 -2 0 -18 -7 -35 -16 -17
-8 -49 -14 -69 -12 -30 2 -38 7 -38 23 -1 23 -12 45 -24 45 -5 0 -11 -32 -15
-71z"></path>
<path d="M3587 1162 c-3 -4 -9 -31 -13 -60 l-6 -51 74 2 c52 1 80 -2 92 -12
23 -20 38 -2 34 40 -3 34 -3 34 -50 31 -42 -3 -47 -1 -60 25 -13 28 -60 45
-71 25z m51 -34 c19 -19 15 -48 -8 -48 -16 0 -20 7 -20 30 0 32 9 37 28 18z"></path>
<path d="M3695 1002 c5 -9 10 -32 13 -50 4 -31 2 -33 -19 -30 -16 2 -25 11
-27 26 -5 31 -32 29 -32 -3 0 -16 -6 -25 -16 -25 -13 0 -15 7 -11 30 5 23 2
32 -13 40 -24 13 -26 8 -33 -62 l-4 -47 56 5 c31 3 75 1 99 -4 28 -7 44 -7 48
0 7 11 9 116 3 122 -2 2 -19 6 -38 10 -29 5 -32 4 -26 -12z"></path>
<path d="M3557 853 c-15 -15 -5 -66 19 -98 36 -47 51 -50 81 -15 25 30 53 40
53 18 0 -6 -7 -19 -15 -28 -14 -15 -14 -18 0 -30 12 -10 21 -10 40 -2 32 15
33 59 4 96 -18 23 -28 27 -63 24 -37 -3 -41 -6 -46 -32 -6 -34 -23 -41 -28
-12 -2 11 3 25 12 32 15 11 14 14 -10 33 -28 22 -37 25 -47 14z"></path>
<path d="M6477 2792 c-23 -25 -21 -44 5 -77 18 -23 26 -26 55 -22 19 4 43 1
53 -6 26 -15 60 16 60 55 0 53 -46 77 -86 46 -7 -5 -16 -2 -24 7 -17 20 -43
19 -63 -3z m124 -65 c-13 -13 -15 1 -4 30 7 17 8 17 11 -1 2 -10 -1 -23 -7
-29z m-69 18 c0 -5 -5 -11 -11 -13 -6 -2 -11 4 -11 13 0 9 5 15 11 13 6 -2 11
-8 11 -13z"></path>
<path d="M6477 2622 c-23 -26 -21 -55 6 -79 33 -32 58 -32 76 -2 13 24 13 29
-8 63 -25 40 -49 46 -74 18z m43 -36 c0 -17 -14 -29 -23 -20 -8 8 3 34 14 34
5 0 9 -6 9 -14z"></path>
<path d="M411 2771 c-25 -25 -26 -30 -5 -59 34 -50 117 -5 91 49 -16 32 -59
37 -86 10z m47 -30 c3 -8 -1 -12 -9 -9 -7 2 -15 10 -17 17 -3 8 1 12 9 9 7 -2
15 -10 17 -17z"></path>
<path d="M470 2665 c-14 -8 -32 -15 -40 -15 -8 0 -25 -11 -38 -24 l-22 -24 35
-31 c41 -35 48 -37 69 -15 9 8 21 12 26 9 18 -11 60 4 60 22 0 30 -34 93 -49
93 -9 -1 -27 -7 -41 -15z m54 -57 c-3 -5 -12 -4 -20 3 -7 6 -11 15 -8 21 3 5
12 4 20 -3 7 -6 11 -15 8 -21z m-84 -8 c8 -5 12 -12 9 -15 -8 -8 -39 5 -39 16
0 11 11 11 30 -1z"></path>
<path d="M6336 2302 c-3 -6 10 -34 29 -63 19 -30 35 -57 35 -61 0 -19 21 -6
31 20 7 15 16 37 22 49 12 26 3 53 -18 53 -9 0 -18 -12 -21 -30 -4 -16 -10
-30 -14 -30 -4 0 -18 16 -32 36 -14 20 -29 31 -32 26z"></path>
<path d="M6282 2158 c-16 -16 -15 -23 4 -64 17 -36 39 -43 75 -24 13 7 19 21
19 45 0 24 -6 38 -19 45 -26 14 -64 13 -79 -2z m68 -39 c0 -5 -6 -9 -14 -9
-15 0 -28 24 -19 34 7 7 33 -13 33 -25z"></path>
<path d="M581 2241 c-32 -20 34 -97 75 -89 9 2 22 11 28 20 9 15 5 23 -22 48
-34 31 -56 36 -81 21z"></path>
<path d="M587 2103 c7 -44 19 -63 40 -63 11 0 13 7 9 25 -5 18 -2 25 8 25 8 0
18 -4 21 -10 10 -16 52 -12 59 6 9 24 -3 36 -29 30 -13 -3 -39 1 -59 9 -51 22
-55 20 -49 -22z"></path>
<path d="M826 1814 c-31 -30 -15 -64 29 -64 59 0 88 52 39 70 -35 14 -50 12
-68 -6z"></path>
<path d="M887 1712 c-10 -11 -14 -26 -10 -41 6 -22 4 -23 -18 -17 -58 16 -79
18 -79 8 0 -6 32 -21 71 -33 56 -17 76 -19 95 -10 49 22 44 82 -7 100 -18 6
-33 11 -34 11 -1 0 -9 -8 -18 -18z m51 -34 c-6 -18 -28 -21 -28 -4 0 9 7 16
16 16 9 0 14 -5 12 -12z"></path>
<path d="M6079 1824 c-21 -26 8 -68 51 -74 34 -5 35 -7 38 -52 3 -53 18 -64
28 -20 3 15 7 32 9 37 4 16 -33 108 -47 117 -22 13 -65 9 -79 -8z m59 -33 c3
-8 -1 -12 -9 -9 -7 2 -15 10 -17 17 -3 8 1 12 9 9 7 -2 15 -10 17 -17z"></path>
<path d="M6025 1714 c-9 -9 -14 -23 -11 -31 3 -8 6 -21 6 -28 0 -19 48 -47 70
-40 26 8 32 31 20 76 -9 34 -15 39 -40 39 -16 0 -36 -7 -45 -16z m58 -34 c4
-15 0 -20 -14 -20 -18 0 -26 20 -12 33 11 12 21 8 26 -13z"></path>
<path d="M1207 1373 c-15 -3 -35 -16 -44 -30 -16 -25 -16 -26 6 -45 25 -20 48
-17 89 9 58 36 27 77 -51 66z m33 -43 c0 -5 -12 -10 -26 -10 -14 0 -23 4 -19
10 3 6 15 10 26 10 10 0 19 -4 19 -10z"></path>
<path d="M1281 1254 c-22 -28 -23 -28 -36 -10 -20 26 -44 14 -38 -18 5 -23 10
-26 49 -26 24 0 44 5 44 10 0 18 49 35 62 22 16 -16 28 -15 28 2 0 19 -21 35
-57 42 -25 5 -34 1 -52 -22z"></path>
<path d="M5386 1076 c-4 -22 -3 -43 3 -50 7 -9 6 -19 -5 -35 -21 -30 -12 -56
14 -40 16 10 25 8 51 -10 17 -12 35 -20 40 -17 10 6 11 175 1 181 -4 2 -18 -7
-30 -21 l-24 -24 -21 27 -22 27 -7 -38z m94 -56 c0 -19 -11 -26 -23 -14 -8 8
3 34 14 34 5 0 9 -9 9 -20z"></path>
<path d="M5282 968 c-20 -20 -13 -62 15 -92 l27 -29 23 28 c19 22 23 34 17 59
-3 17 -8 34 -11 39 -7 11 -58 8 -71 -5z m46 -47 c3 -8 -1 -12 -9 -9 -7 2 -15
10 -17 17 -3 8 1 12 9 9 7 -2 15 -10 17 -17z"></path>
<path d="M1562 1023 c-31 -6 -50 -47 -31 -69 10 -12 24 -15 52 -11 48 7 57
-11 28 -52 -12 -16 -21 -31 -21 -34 0 -2 33 -2 73 1 75 5 103 16 77 32 -46 28
-46 28 -22 53 12 13 22 28 22 33 0 15 -63 4 -77 -13 -16 -20 -35 -7 -28 18 4
11 1 26 -5 34 -12 15 -24 16 -68 8z m28 -37 c0 -8 -7 -16 -15 -20 -15 -5 -21
14 -8 27 11 12 23 8 23 -7z m105 -96 c3 -5 -3 -10 -14 -10 -12 0 -21 5 -21 10
0 6 6 10 14 10 8 0 18 -4 21 -10z"></path>
<path d="M1998 740 c-38 -32 -41 -52 -10 -77 23 -19 92 20 92 51 0 19 -27 56
-41 56 -2 0 -21 -14 -41 -30z m42 -30 c0 -11 -40 -34 -47 -26 -3 3 -3 12 0 21
7 16 47 21 47 5z"></path>
<path d="M2133 708 c-4 -7 -6 -23 -5 -35 2 -14 -3 -23 -16 -28 -11 -3 -23 -12
-26 -20 -8 -22 60 -48 93 -37 25 9 25 10 -11 17 -44 8 -49 21 -13 35 14 5 25
16 24 22 -4 30 2 38 27 38 14 0 23 4 19 10 -9 14 -82 12 -92 -2z"></path>
<path d="M4978 809 c-25 -14 -25 -86 -1 -91 12 -2 17 -14 17 -43 l1 -40 54 2
c30 2 56 5 59 8 3 3 -3 14 -13 26 -13 14 -26 18 -42 14 -18 -4 -23 -1 -23 14
0 11 5 23 10 26 17 11 11 23 -12 27 -23 3 -27 17 -13 51 8 19 -9 23 -37 6z"></path>
<path d="M4873 676 c-34 -31 -36 -36 -25 -60 20 -45 98 -23 103 29 3 35 -1 44
-21 55 -16 9 -26 5 -57 -24z m47 -26 c0 -5 -9 -14 -20 -20 -22 -12 -27 -1 -8
18 14 14 28 16 28 2z"></path>
<path d="M2530 523 c-44 -16 -67 -67 -35 -79 44 -17 102 38 75 71 -13 16 -16
17 -40 8z m14 -38 c-6 -16 -34 -21 -34 -7 0 13 11 22 26 22 8 0 11 -6 8 -15z"></path>
<path d="M2628 493 c-10 -2 -18 -9 -18 -15 0 -5 6 -8 14 -5 8 3 22 0 32 -7 16
-12 15 -14 -14 -31 -34 -20 -33 -31 4 -45 17 -7 31 -6 44 3 24 14 26 27 5 27
-19 0 -19 14 0 30 11 9 12 17 4 31 -9 18 -33 22 -71 12z"></path>
<path d="M4461 524 c-12 -15 -21 -35 -21 -46 0 -16 3 -15 24 9 29 33 42 26 28
-16 -13 -36 -8 -41 39 -41 25 0 39 5 43 16 8 21 -11 44 -35 44 -15 0 -17 5
-12 30 5 27 3 30 -20 30 -16 0 -34 -10 -46 -26z"></path>
<path d="M4353 488 c-31 -35 -35 -46 -23 -68 25 -47 108 -5 95 48 -12 46 -41
54 -72 20z"></path>
<path d="M3055 393 c-47 -12 -61 -56 -27 -86 26 -24 49 -21 77 8 33 32 32 63
-1 75 -14 6 -26 9 -27 9 -1 -1 -11 -4 -22 -6z m45 -31 c0 -14 -23 -32 -42 -32
-10 0 -18 2 -18 4 0 2 -3 11 -6 20 -5 13 1 16 30 16 20 0 36 -4 36 -8z"></path>
<path d="M3185 388 c-11 -31 -25 -111 -21 -116 3 -2 17 3 31 12 19 12 25 25
25 50 0 19 3 41 6 50 4 12 0 16 -15 16 -12 0 -24 -6 -26 -12z"></path>
<path d="M3060 200 c0 -5 5 -10 10 -10 6 0 10 5 10 10 0 6 -4 10 -10 10 -5 0
-10 -4 -10 -10z"></path>
<path d="M3982 410 c-14 -23 -16 -88 -3 -109 8 -12 12 -13 26 -1 12 10 15 27
13 68 -3 59 -16 74 -36 42z"></path>
<path d="M3840 368 c-26 -42 -25 -74 1 -88 26 -14 44 -8 62 22 25 40 29 65 12
82 -26 25 -53 19 -75 -16z m50 -12 c0 -16 -14 -36 -26 -36 -14 0 -19 22 -7 33
7 8 33 10 33 3z"></path>
<path d="M5840 6749 c-236 -5 -406 -24 -452 -49 -10 -6 -22 -10 -28 -10 -5 0
-35 -12 -67 -26 -66 -30 -149 -102 -176 -152 l-18 -33 32 -55 c46 -82 83 -113
200 -170 175 -86 375 -155 556 -189 115 -23 345 -23 438 -1 109 26 157 43 243
88 98 50 132 74 132 90 0 5 12 20 28 33 92 77 103 252 21 341 -33 36 -211 113
-243 105 -4 -1 -14 3 -21 9 -27 22 -241 29 -645 19z m510 -58 c41 -7 89 -16
105 -21 17 -5 56 -17 88 -26 65 -19 163 -92 178 -132 5 -13 9 -48 9 -78 0 -56
-12 -69 -36 -37 -11 16 -13 15 -19 -12 -10 -47 -36 -103 -56 -121 -23 -20 -23
-14 -5 46 8 27 11 61 7 85 -8 46 -16 38 -26 -25 -4 -25 -14 -61 -22 -80 -14
-34 -89 -120 -105 -120 -5 0 1 19 13 41 25 49 49 139 48 177 0 17 -11 -4 -28
-57 -24 -72 -36 -92 -79 -133 -28 -26 -55 -48 -61 -48 -5 0 4 26 20 58 16 31
29 73 28 92 l0 35 -19 -48 c-23 -59 -76 -125 -121 -151 l-34 -20 31 40 c41 52
76 121 72 142 -3 11 -14 -2 -32 -37 -26 -51 -108 -141 -128 -141 -5 0 7 20 26
43 34 42 72 125 61 135 -2 3 -8 -4 -12 -14 -20 -54 -133 -177 -149 -162 -2 3
9 22 25 42 29 36 76 144 67 153 -2 2 -15 -17 -27 -43 -23 -45 -93 -124 -111
-124 -5 0 3 17 17 38 32 48 47 82 43 101 -2 10 -15 -4 -35 -35 -31 -51 -99
-124 -115 -124 -12 0 -10 18 3 25 20 13 69 88 69 107 0 14 -9 8 -33 -24 -37
-49 -119 -108 -151 -108 -17 0 -11 10 35 53 55 50 104 127 97 149 -2 6 -19
-12 -37 -40 -43 -68 -112 -119 -183 -136 -38 -9 -35 6 5 27 31 17 81 76 72 86
-3 2 -18 -7 -33 -21 -67 -63 -111 -64 -50 0 25 26 49 61 53 77 6 29 5 29 -31
-14 -37 -43 -117 -101 -138 -101 -7 0 -8 3 -1 8 31 23 75 86 75 109 0 24 -2
23 -35 -20 -36 -47 -72 -74 -83 -63 -3 3 4 16 16 29 36 38 25 52 -13 18 -44
-38 -81 -44 -47 -8 37 39 27 52 -20 25 -74 -43 -86 -43 -45 0 46 47 38 62 -12
22 -19 -17 -47 -30 -61 -30 l-25 0 25 20 c32 24 21 36 -17 17 -38 -19 -93 -29
-93 -17 0 6 7 10 15 10 18 0 85 41 85 53 0 10 -4 9 -66 -9 -65 -19 -91 -14
-49 9 30 16 29 16 -32 10 -44 -4 -63 -2 -63 6 0 6 9 11 19 11 11 0 28 3 38 7
14 6 11 9 -16 13 -42 6 -52 27 -17 36 28 7 36 24 11 24 -8 0 -15 4 -15 10 0
16 69 88 91 95 10 4 19 13 19 20 0 16 77 41 150 49 25 3 79 10 120 16 125 18
141 19 345 24 108 2 199 6 201 8 4 5 95 -5 204 -21z m354 -375 c-6 -16 -24
-23 -24 -8 0 10 22 33 27 28 2 -2 1 -11 -3 -20z"></path>
<path d="M6260 6633 c-48 -32 -51 -53 -15 -87 31 -29 31 -36 0 -36 -28 0 -44
-25 -28 -41 7 -7 24 -4 51 10 60 31 67 76 16 100 -14 6 -22 16 -19 21 4 6 17
4 35 -5 33 -17 44 -8 34 30 -7 30 -37 33 -74 8z"></path>
<path d="M5621 6627 c-6 -6 -11 -18 -11 -26 -1 -24 -38 -101 -49 -101 -5 0
-15 25 -21 56 -6 30 -18 58 -26 61 -7 2 -24 -8 -38 -24 l-24 -28 -13 28 c-17
38 -42 34 -63 -9 -9 -21 -33 -56 -52 -79 -18 -23 -34 -47 -34 -52 0 -12 35
-20 68 -15 18 3 21 8 16 24 -7 22 14 98 27 98 9 0 19 -26 19 -50 0 -39 20 -29
46 22 26 51 27 52 36 28 9 -24 7 -52 -7 -98 -7 -23 -7 -23 61 -20 55 2 68 6
65 18 -8 35 -5 45 17 48 13 2 22 -2 23 -10 1 -7 2 -22 3 -33 1 -14 9 -21 30
-23 25 -3 28 -1 22 17 -20 66 -19 66 17 26 34 -39 36 -40 68 -28 28 11 35 11
42 -2 11 -20 67 -20 67 -1 0 8 -4 18 -10 21 -5 3 -10 25 -10 48 l0 42 46 -52
c36 -41 52 -53 75 -53 29 0 29 0 29 61 0 67 16 112 31 88 12 -19 11 -116 -1
-124 -6 -4 -8 -11 -4 -16 10 -16 86 1 112 24 30 28 28 41 -5 32 -44 -11 -45
-11 -50 2 -3 7 7 17 22 23 31 12 23 34 -10 26 -15 -4 -25 -1 -29 9 -7 20 9 28
42 21 20 -5 30 -2 40 14 12 20 10 20 -94 20 -106 0 -106 0 -100 -22 15 -49 19
-98 8 -98 -6 0 -27 27 -48 60 -47 76 -70 80 -79 13 -12 -94 -16 -113 -25 -113
-10 0 -14 26 -10 68 1 19 -3 23 -22 20 -18 -2 -24 -10 -26 -36 -3 -28 -7 -33
-25 -30 -18 2 -22 10 -22 43 0 39 1 40 42 50 47 12 71 29 54 39 -6 4 -36 -1
-67 -10 -45 -13 -58 -22 -68 -45 l-13 -30 -18 40 c-19 43 -36 56 -54 38z"></path>
<path d="M603 5225 c-12 -19 -19 -35 -15 -35 4 0 17 16 30 35 12 19 19 35 15
35 -5 -1 -18 -16 -30 -35z"></path>
<path d="M475 5000 c3 -5 8 -10 11 -10 2 0 4 5 4 10 0 6 -5 10 -11 10 -5 0 -7
-4 -4 -10z"></path>
<path d="M224 2289 c-10 -17 13 -36 27 -22 12 12 4 33 -11 33 -5 0 -12 -5 -16
-11z"></path>
<path d="M636 31 c-4 -5 -2 -12 3 -15 5 -4 12 -2 15 3 4 5 2 12 -3 15 -5 4
-12 2 -15 -3z"></path>
</g>
</svg>