<?xml version="1.0" standalone="no"?>
<!DOCTYPE svg PUBLIC "-//W3C//DTD SVG 20010904//EN"
 "http://www.w3.org/TR/2001/REC-SVG-20010904/DTD/svg10.dtd">
<svg version="1.0" xmlns="http://www.w3.org/2000/svg"
 width="834.000000pt" height="864.000000pt" viewBox="0 0 834.000000 864.000000"
 preserveAspectRatio="xMidYMid meet">
<metadata>
Created by potrace 1.16, written by Peter Selinger 2001-2019
</metadata>
<g transform="translate(0.000000,864.000000) scale(0.100000,-0.100000)"
fill="#000000" stroke="none">
<path d="M4574 8392 c3 -5 40 -12 82 -15 223 -19 607 -104 859 -189 125 -42
309 -115 360 -142 17 -9 33 -16 37 -16 4 0 32 -12 63 -26 46 -22 55 -30 50
-48 -2 -11 -2 -15 1 -8 9 20 21 14 29 -15 3 -16 28 -86 55 -158 26 -71 78
-222 114 -335 157 -485 233 -717 293 -895 36 -104 69 -206 74 -225 6 -19 16
-48 24 -65 20 -42 135 -401 135 -420 0 -8 5 -15 10 -15 26 0 3 -19 -76 -64
-47 -26 -86 -46 -88 -45 -26 36 -69 118 -68 131 0 9 -5 15 -11 13 -7 -3 -39
36 -72 86 -33 50 -70 103 -83 117 -13 15 -43 52 -67 82 -57 71 -275 284 -350
341 -31 24 -76 58 -98 76 -23 18 -64 46 -92 63 -27 17 -77 49 -110 70 -33 22
-88 54 -122 71 -55 29 -61 35 -52 53 9 19 9 19 -4 4 -13 -16 -20 -14 -111 26
-53 24 -104 46 -114 49 -9 3 -55 19 -102 36 -212 77 -664 169 -619 127 2 -2
29 -6 59 -9 31 -3 113 -18 184 -32 332 -67 650 -195 921 -370 264 -171 425
-314 655 -581 59 -69 216 -303 232 -346 9 -22 -34 -52 -51 -35 -24 24 -81 -71
-61 -102 4 -7 20 -11 36 -9 26 3 31 -2 44 -37 16 -42 28 -48 44 -23 6 11 4 27
-8 53 -34 72 -37 93 -13 110 12 8 25 11 29 7 5 -5 36 -64 69 -132 33 -67 62
-120 66 -117 3 4 -23 65 -59 136 l-65 129 49 26 c27 15 53 24 58 21 6 -4 10
-1 10 5 0 5 20 20 45 33 64 32 185 106 218 134 16 12 33 23 38 23 5 0 39 20
75 45 36 25 80 53 98 62 35 18 159 96 196 124 14 11 41 28 60 38 19 11 45 29
57 40 12 12 24 21 27 21 3 0 34 20 69 45 64 45 64 45 59 17 -2 -15 -22 -112
-44 -217 -21 -104 -72 -352 -113 -550 -41 -198 -97 -461 -125 -585 -28 -124
-62 -277 -75 -340 -26 -119 -65 -296 -113 -510 l-28 -125 -85 2 c-77 2 -80 1
-34 -7 28 -5 64 -11 80 -13 17 -3 29 -10 28 -16 -4 -15 14 -14 19 1 3 9 41 9
164 0 160 -12 237 -16 527 -28 89 -4 163 -12 171 -18 12 -9 12 -27 1 -121 -24
-203 -92 -544 -146 -740 -43 -151 -141 -435 -184 -530 -27 -58 -97 -220 -107
-247 -5 -16 -14 -28 -19 -28 -5 0 -9 -4 -9 -9 0 -4 -21 -45 -46 -90 -26 -45
-44 -84 -42 -87 10 -10 149 251 232 436 65 145 190 522 222 670 17 75 79 388
88 440 3 19 9 46 12 60 3 14 10 70 16 125 9 85 15 104 36 128 29 30 20 37 -12
9 -20 -17 -20 -17 -2 12 11 17 14 31 8 35 -5 3 -8 20 -7 36 58 632 10 1257
-134 1755 -11 36 -29 98 -40 139 -25 83 -42 122 -48 104 -3 -7 1 -21 7 -32 27
-51 120 -416 150 -586 75 -434 92 -960 45 -1400 -2 -22 -4 -43 -4 -46 -1 -7
-78 -5 -271 5 -69 4 -213 11 -320 16 -252 13 -283 17 -276 36 3 8 15 61 26
117 11 56 27 129 35 162 8 33 26 112 39 175 14 63 55 252 92 420 60 277 124
577 154 735 7 33 29 141 51 240 72 340 99 471 99 488 0 9 5 17 10 17 6 0 10
-5 10 -10 0 -6 10 -21 21 -33 l21 -22 -16 35 c-9 19 -21 43 -26 52 -5 10 -7
24 -4 33 4 9 0 15 -9 15 -9 0 -19 10 -23 23 -4 12 -19 40 -33 62 -15 22 -32
51 -39 65 -32 65 -170 273 -213 322 -13 14 -32 37 -42 50 -10 12 -32 41 -49
63 -48 61 -421 428 -457 448 -46 26 -38 8 16 -38 166 -142 368 -344 468 -470
75 -93 225 -308 225 -321 0 -3 6 -12 13 -19 24 -28 32 -41 62 -100 17 -33 38
-72 47 -86 17 -25 15 -69 -3 -69 -5 0 -62 -37 -126 -83 -167 -118 -242 -166
-551 -354 -125 -75 -204 -118 -207 -110 -87 280 -162 508 -233 713 -33 93 -88
255 -122 360 -34 104 -77 232 -95 284 -18 52 -53 158 -78 235 -25 77 -75 227
-111 334 -37 107 -64 196 -62 198 15 16 423 -236 591 -364 81 -62 125 -92 125
-85 0 8 -83 77 -140 115 -14 9 -43 30 -65 46 -82 61 -180 127 -224 151 -25 14
-59 34 -76 46 -16 11 -74 44 -128 73 -70 38 -101 61 -109 80 -9 21 -12 23 -15
9 -3 -10 -6 -18 -8 -18 -2 0 -43 18 -92 41 -344 159 -831 301 -1148 334 -104
11 -156 17 -183 21 -20 3 -32 1 -28 -4z"/>
<path d="M3473 8363 c2 -26 -2 -28 -61 -41 -78 -17 -75 -27 4 -13 32 6 61 8
65 4 3 -5 18 -73 33 -153 14 -80 41 -226 59 -325 66 -352 81 -446 70 -453 -6
-4 -14 -18 -18 -32 -4 -13 -14 -30 -21 -38 -8 -7 -14 -21 -14 -30 0 -9 -8 -27
-18 -40 l-18 -23 -57 21 c-31 12 -57 26 -57 31 0 5 -5 9 -11 9 -6 0 -22 9 -36
20 -14 11 -29 18 -33 15 -4 -3 -10 2 -14 10 -3 8 -12 15 -21 15 -19 0 -19 17
0 36 8 9 15 24 15 35 0 11 4 25 10 32 68 84 69 87 43 103 -43 25 -66 6 -102
-89 -8 -20 -18 -37 -21 -37 -3 0 -12 -16 -20 -35 -8 -19 -17 -35 -20 -35 -12
0 -29 -50 -23 -67 4 -9 2 -14 -3 -11 -5 3 -15 0 -22 -8 -7 -8 -9 -14 -5 -14 4
0 0 -5 -10 -11 -9 -6 -15 -14 -12 -19 8 -14 -16 -15 -145 -9 -69 3 -99 6 -68
7 50 2 56 4 53 21 -2 10 8 35 21 55 14 20 23 40 20 45 -3 4 1 17 9 27 21 28
18 41 -12 53 -16 6 -38 15 -49 20 -19 8 -21 7 -17 -12 4 -22 4 -21 -9 1 -12
19 -59 52 -75 52 -2 0 -1 -10 3 -22 3 -13 3 -20 -1 -15 -5 4 -9 17 -11 30 -1
12 -3 24 -3 26 -3 14 -31 -26 -31 -45 0 -19 7 -24 35 -30 19 -3 35 -10 35 -15
0 -4 15 -11 34 -14 21 -4 36 -14 39 -25 3 -12 0 -17 -8 -14 -9 4 -11 -3 -8
-23 4 -22 2 -25 -6 -13 -9 12 -11 11 -11 -7 0 -20 -6 -23 -42 -25 -24 0 -56 0
-71 1 -16 1 -36 -4 -45 -11 -8 -7 -13 -8 -9 -2 7 12 -44 54 -67 54 -8 0 -18 5
-21 10 -3 6 -16 10 -28 10 -12 0 -29 5 -37 11 -11 8 -7 9 18 4 35 -7 47 13 13
22 -16 4 -18 9 -10 30 5 14 7 28 5 31 -2 4 0 33 5 65 12 77 34 112 107 170 29
23 44 27 96 27 35 0 67 -5 74 -12 7 -7 12 -8 12 -3 0 4 17 -9 38 -31 20 -21
40 -38 44 -36 4 1 4 -6 1 -16 -6 -15 -5 -15 10 -3 10 8 17 9 17 3 0 -6 -5 -14
-10 -17 -6 -4 -8 -16 -4 -27 4 -14 2 -18 -5 -14 -6 4 -11 3 -11 -2 0 -7 16
-17 63 -40 13 -6 1 122 -14 148 -24 43 -40 59 -55 53 -8 -3 -17 2 -20 11 -3 9
-16 16 -28 16 -12 0 -27 5 -33 11 -8 8 -20 7 -43 -5 -23 -11 -29 -12 -21 -2 8
10 8 16 -3 25 -20 16 -82 10 -78 -7 1 -8 -2 -11 -7 -8 -25 16 -143 -59 -123
-78 3 -4 -4 -9 -17 -13 -12 -3 -20 -11 -17 -18 2 -6 -4 -18 -14 -25 -11 -8
-22 -32 -26 -54 -3 -23 -11 -44 -16 -47 -14 -9 1 -89 16 -89 7 0 11 -16 11
-41 0 -37 6 -46 55 -90 30 -27 60 -49 66 -49 7 0 14 -5 16 -11 2 -6 33 -13 68
-16 36 -3 67 -7 70 -10 3 -3 -310 -2 -695 2 -385 4 -711 7 -724 6 -22 -1 -21
2 15 40 22 23 66 68 99 101 72 72 53 66 -25 -8 -30 -28 -71 -65 -90 -80 -19
-16 -36 -32 -38 -36 -2 -5 -10 -8 -18 -8 -8 0 -14 -6 -14 -13 0 -7 -17 -31
-38 -53 -21 -21 -67 -73 -103 -114 -35 -41 -66 -77 -70 -80 -3 -3 -18 -23 -34
-45 -16 -22 -34 -45 -39 -50 -26 -24 -76 -95 -76 -106 0 -7 11 2 25 21 59 79
72 97 118 150 150 171 224 250 235 250 10 0 917 -908 917 -918 0 -7 -91 -116
-133 -158 -68 -69 -259 -363 -309 -474 -8 -19 -23 -46 -33 -60 -57 -82 -178
-425 -225 -642 -9 -43 -22 -78 -28 -78 -8 0 -7 -4 1 -12 9 -9 8 -16 -5 -30 -9
-10 -11 -18 -5 -18 6 0 12 6 15 13 2 6 8 9 12 5 4 -4 2 -15 -6 -25 -9 -11 -10
-14 -1 -9 7 4 19 0 28 -8 28 -29 82 -18 125 25 11 11 25 17 31 13 7 -5 9 -2 5
9 -8 20 119 119 218 169 183 93 435 123 620 73 33 -9 68 -18 77 -20 19 -4 169
-82 212 -110 14 -10 26 -13 26 -8 0 22 -154 106 -250 137 -103 32 -223 48
-320 42 l-94 -7 24 26 c17 18 23 35 22 65 -2 34 1 40 18 40 14 0 21 -9 26 -35
11 -59 34 -36 39 38 l3 38 -67 -6 c-36 -4 -80 -13 -98 -21 -30 -14 -31 -16
-29 -72 1 -31 5 -62 9 -68 4 -8 -16 -18 -61 -30 -130 -34 -289 -122 -401 -220
-51 -45 -65 -52 -107 -53 -20 -1 -34 5 -38 15 -9 22 65 318 115 459 41 118 84
221 115 280 9 17 37 70 62 120 101 197 408 603 436 575 17 -17 28 -11 21 10
-5 16 13 39 90 112 54 51 123 111 155 133 32 22 87 61 122 86 67 49 274 171
348 206 133 62 181 82 244 103 65 21 70 22 103 6 33 -16 36 -16 49 1 7 10 14
23 14 29 0 15 35 28 138 55 83 21 107 20 84 -3 -30 -30 14 -88 67 -88 l26 0
-25 -13 c-14 -7 -25 -19 -25 -27 0 -8 -4 -19 -10 -23 -6 -6 -5 -10 3 -14 10
-4 7 -9 -10 -17 -27 -14 -31 -54 -7 -69 13 -8 23 -5 42 10 15 11 24 23 20 27
-3 3 4 14 15 25 12 10 22 25 22 34 0 9 4 18 9 21 5 4 28 33 50 66 40 58 40 60
21 72 -11 7 -20 16 -20 21 0 4 10 1 22 -7 21 -15 23 -14 34 13 8 20 21 30 44
35 51 10 127 7 155 -6 22 -10 28 -9 35 3 8 11 34 13 137 11 70 -1 140 -5 156
-8 15 -3 27 -1 27 4 0 13 -85 22 -204 22 -89 0 -102 2 -124 23 -22 19 -24 20
-18 3 4 -13 -2 -10 -23 10 -43 43 -97 84 -109 84 -6 0 -12 4 -14 9 -1 5 -16
11 -33 13 -16 2 -36 11 -43 21 -7 9 -19 17 -26 17 -8 0 -20 9 -27 19 -17 24
-50 31 -57 12 -3 -10 0 -12 12 -8 10 4 15 3 11 -3 -3 -6 -13 -10 -21 -10 -24
0 -15 -14 27 -43 26 -18 48 -26 62 -23 12 3 16 3 9 0 -10 -5 -8 -10 7 -21 26
-18 27 -35 1 -58 -11 -10 -20 -24 -20 -32 0 -7 -6 -13 -12 -14 -7 -1 -2 -4 12
-8 19 -6 4 -10 -60 -20 -47 -7 -92 -14 -101 -17 -13 -3 -18 8 -27 53 -5 32
-18 100 -28 151 -16 86 -16 94 -1 109 15 15 14 18 -8 37 -21 19 -28 45 -60
231 -20 116 -38 217 -40 225 -5 15 -85 439 -85 447 0 14 23 0 300 -183 74 -49
140 -91 145 -93 6 -2 12 -7 15 -10 3 -3 12 -10 21 -16 35 -22 134 -89 144 -97
19 -15 80 -58 109 -75 16 -10 62 -42 103 -70 41 -29 78 -53 82 -53 5 0 14 -7
21 -15 7 -8 15 -13 19 -11 4 3 18 -4 31 -15 40 -32 190 -129 200 -129 4 0 10
-4 12 -9 3 -7 59 -45 323 -217 33 -21 67 -42 75 -45 8 -4 51 -32 95 -64 44
-32 86 -60 95 -63 8 -3 61 -36 118 -74 57 -37 108 -68 114 -68 5 0 7 -7 4 -16
-3 -9 -6 -19 -6 -24 0 -5 -6 -15 -13 -22 -13 -13 -39 -68 -33 -68 4 0 76 119
76 125 0 2 20 47 45 100 25 54 44 100 41 102 -5 5 -68 -123 -80 -164 -8 -27
-31 -30 -44 -7 -5 9 -13 16 -18 15 -9 0 -70 38 -374 234 -80 52 -187 120 -237
152 -51 32 -142 92 -203 133 -61 41 -147 98 -191 125 -45 28 -101 65 -125 83
-24 17 -46 32 -48 32 -7 0 -411 272 -416 280 -3 4 -21 16 -40 26 -32 17 -162
101 -299 193 -37 24 -60 48 -70 73 -19 44 -31 49 -28 11z m-1113 -1168 c289
-2 583 -4 654 -4 108 -1 127 -3 123 -16 -3 -7 3 -24 13 -37 l19 -23 37 38 36
38 72 -6 c40 -3 110 -6 157 -7 46 -1 76 -4 66 -6 -12 -2 -16 -10 -13 -28 3
-16 1 -22 -6 -18 -7 5 -9 0 -6 -14 4 -15 2 -22 -8 -22 -8 0 -14 -6 -14 -12 1
-50 56 -45 81 7 11 22 24 44 29 49 6 6 10 18 10 28 0 15 8 18 43 18 l43 0 15
-76 c11 -52 12 -77 5 -79 -144 -34 -206 -47 -217 -42 -8 3 -4 6 9 6 13 1 20 5
17 11 -3 6 1 13 9 16 16 6 12 24 -5 24 -6 0 -8 -4 -5 -9 3 -4 -6 -6 -19 -3
-14 2 -22 8 -20 12 3 5 1 11 -5 15 -5 3 -10 -1 -10 -10 0 -8 -7 -18 -16 -22
-8 -3 -13 -12 -10 -19 3 -8 1 -14 -5 -14 -5 0 -9 -8 -7 -17 2 -13 -24 -27
-117 -63 -359 -140 -656 -327 -913 -574 l-52 -51 -130 130 c-71 71 -126 133
-123 138 3 6 1 7 -5 3 -8 -5 -482 461 -662 650 -2 3 88 2 200 -1 113 -3 441
-8 730 -10z"/>
<path d="M639 8344 c-11 -13 -10 -17 4 -25 21 -12 23 -65 3 -85 -11 -11 -16
-11 -19 -1 -3 6 -6 -8 -6 -32 -1 -38 1 -42 14 -31 9 7 18 10 22 6 3 -3 0 -6
-8 -6 -11 0 -11 -2 1 -10 10 -6 11 -10 3 -10 -7 0 -13 -4 -13 -10 0 -5 7 -10
16 -10 11 0 14 -6 9 -22 -4 -13 -12 -27 -18 -33 -7 -7 -8 -6 -4 1 4 7 0 27 -8
45 -13 31 -14 32 -15 9 0 -14 -2 -41 -6 -61 -4 -25 -1 -39 10 -48 9 -8 16 -9
16 -3 0 5 8 9 18 8 14 -1 18 12 25 89 11 117 10 159 -2 163 -7 2 -5 10 4 19
19 19 19 33 0 33 -8 0 -15 7 -15 15 0 20 -14 19 -31 -1z"/>
<path d="M212 8316 c-22 -38 -36 -76 -28 -76 4 0 15 15 26 33 11 17 20 26 20
19 0 -7 -7 -23 -16 -36 -9 -15 -11 -26 -5 -30 5 -4 14 1 19 9 11 22 41 9 48
-21 3 -13 10 -24 15 -24 5 0 9 -9 9 -20 0 -11 7 -23 15 -26 8 -4 15 -18 15
-33 0 -20 -2 -23 -10 -11 -5 8 -10 11 -10 7 0 -5 9 -20 20 -34 11 -14 20 -36
20 -48 0 -26 8 -35 25 -29 7 3 11 14 8 25 -4 12 2 25 13 34 13 10 15 17 8 22
-6 5 -14 18 -18 31 -10 31 -30 28 -22 -3 4 -14 2 -25 -4 -25 -6 0 -10 25 -9
61 1 34 -3 64 -8 68 -5 3 -10 23 -11 44 -2 43 -17 77 -35 77 -7 0 -8 -3 -2 -8
6 -4 11 -17 12 -29 2 -17 -2 -23 -18 -23 -15 0 -19 5 -15 15 4 10 -3 19 -19
25 -16 6 -23 15 -19 25 11 27 -3 16 -24 -19z"/>
<path d="M1124 8254 c0 -13 5 -24 9 -24 5 0 1 -7 -7 -16 -9 -9 -16 -33 -16
-57 0 -37 1 -39 14 -22 8 11 11 26 8 34 -5 14 -4 14 10 1 9 -8 13 -19 8 -25
-4 -5 -12 -23 -18 -40 -6 -17 -11 -22 -11 -12 -1 9 -7 17 -15 17 -9 0 -12 -10
-9 -34 2 -19 -1 -46 -6 -60 -8 -20 -7 -24 4 -19 10 3 15 -1 15 -12 0 -9 -5
-13 -10 -10 -6 3 -13 -2 -16 -12 -3 -10 -10 -27 -14 -38 -14 -31 -23 -125 -13
-125 5 0 14 5 21 12 9 9 12 5 12 -20 0 -28 5 -34 45 -53 29 -14 54 -19 71 -15
15 4 32 2 40 -5 8 -7 30 -9 54 -6 31 4 40 2 40 -10 0 -8 6 -13 13 -10 6 2 12
10 12 18 0 8 7 19 15 26 8 6 12 15 7 19 -4 4 -13 2 -19 -4 -7 -7 -17 -12 -23
-12 -5 0 -4 4 4 9 17 11 -87 24 -123 15 -16 -4 -26 -2 -26 5 0 6 -9 11 -21 11
-11 0 -17 -4 -14 -10 4 -6 -7 -10 -24 -10 -17 0 -31 4 -31 9 0 5 10 7 23 5
l22 -5 -22 12 c-22 12 -32 39 -14 39 5 0 12 35 16 78 4 42 10 82 13 87 4 6 7
24 8 40 6 88 12 128 22 134 5 3 12 24 14 46 3 22 7 47 9 55 3 11 -6 15 -37 16
-38 2 -42 0 -40 -22z"/>
<path d="M160 8099 c-9 -15 -15 -18 -24 -10 -15 12 -22 6 -46 -42 -12 -25 -12
-30 0 -37 24 -16 31 -11 24 14 -3 14 -1 33 6 43 9 15 10 12 5 -14 -4 -21 -3
-33 4 -33 13 0 14 -10 2 -29 -6 -8 -14 -10 -22 -5 -28 17 -42 14 -24 -6 13
-14 13 -19 3 -23 -8 -4 -9 -8 -3 -14 16 -13 16 -31 1 -36 -8 -3 -17 1 -20 9
-3 8 -2 12 3 9 6 -3 8 7 7 22 -2 15 -9 29 -16 31 -9 3 -11 -1 -7 -12 4 -10 1
-19 -8 -22 -7 -3 -12 -11 -9 -18 3 -7 -2 -26 -11 -42 -21 -41 -19 -64 5 -64
32 0 58 21 52 42 -2 10 0 18 6 18 5 0 13 10 17 23 4 12 8 24 10 27 1 3 6 14
10 25 12 28 69 79 73 66 5 -15 49 -14 58 1 5 7 2 9 -7 6 -8 -3 -23 0 -34 8
-22 16 -59 19 -50 4 3 -5 1 -10 -4 -10 -6 0 -11 11 -11 25 0 19 4 23 18 19 13
-4 14 -3 4 4 -11 7 -11 10 2 15 9 4 16 11 16 17 0 17 -19 11 -30 -11z"/>
<path d="M1881 8091 c-6 -10 -7 -21 -4 -25 4 -3 2 -16 -4 -29 -6 -12 -17 -47
-26 -77 -9 -30 -23 -77 -32 -103 -18 -58 -19 -79 -2 -96 10 -11 8 -12 -10 -6
-20 5 -23 3 -23 -18 0 -14 -6 -28 -12 -31 -9 -4 -10 -8 -2 -11 6 -3 9 -17 6
-30 -2 -14 -8 -22 -13 -19 -5 3 -9 -6 -9 -20 0 -14 -5 -26 -11 -26 -5 0 -8 -4
-4 -10 3 -6 15 -6 30 0 45 17 35 -14 -23 -68 -31 -30 -50 -50 -42 -45 16 8
130 93 140 103 24 26 193 139 201 135 5 -4 7 -10 4 -15 -9 -15 33 -21 54 -8
19 11 19 14 4 30 -13 15 -19 16 -31 5 -13 -10 -14 -9 -8 1 13 21 67 45 78 34
7 -7 14 -7 22 -1 6 6 26 19 44 30 21 12 32 25 29 34 -3 7 5 21 19 30 15 10 22
21 17 28 -4 7 -9 21 -10 32 -6 38 -37 84 -68 98 -99 48 -123 56 -143 50 -14
-3 -22 -1 -22 7 0 7 -6 10 -14 7 -7 -3 -25 1 -40 8 -14 8 -26 11 -26 7 0 -3
-5 -1 -12 6 -18 18 -46 15 -57 -7z m174 -88 c102 -33 118 -44 134 -90 8 -21
19 -42 25 -46 6 -5 0 -5 -13 -2 -19 6 -23 4 -18 -8 4 -11 2 -14 -7 -11 -8 3
-17 0 -22 -7 -5 -8 -3 -10 7 -5 20 11 -22 -23 -45 -36 -12 -6 -16 -6 -12 0 7
11 -16 22 -45 22 -11 0 -29 5 -42 12 -48 25 -58 28 -79 28 -26 0 -64 20 -39
20 10 0 12 8 8 30 -4 17 -2 30 3 30 6 0 10 10 10 23 0 26 26 67 43 67 7 0 48
-12 92 -27z m-75 -226 c11 -6 20 -15 20 -19 0 -5 8 -8 17 -8 14 0 12 -4 -7
-25 -13 -14 -25 -23 -27 -21 -3 2 -14 -5 -26 -16 -29 -26 -140 -109 -142 -105
-1 1 0 23 3 50 3 30 9 47 17 47 8 0 14 11 14 28 0 41 9 75 23 84 16 11 82 2
108 -15z"/>
<path d="M2482 7938 c-7 -7 -12 -20 -12 -29 0 -9 -7 -30 -15 -45 -18 -35 -19
-61 -2 -67 6 -3 2 -6 -10 -6 -18 -1 -23 -7 -23 -29 0 -15 -5 -33 -12 -40 -6
-6 -13 -25 -14 -41 -3 -33 -20 -71 -33 -71 -5 0 -14 -28 -21 -62 -7 -35 -19
-73 -27 -86 -13 -21 -12 -23 13 -32 15 -6 31 -13 37 -17 6 -4 8 5 4 25 -4 18
-3 31 1 31 21 -3 32 3 32 19 0 9 7 30 15 46 8 15 13 32 10 36 -3 5 2 13 10 18
9 4 17 24 19 43 1 19 14 60 29 93 16 32 26 61 23 64 -3 2 3 17 13 31 10 14 22
46 26 70 7 41 6 44 -14 38 -14 -3 -21 0 -21 9 0 17 -12 18 -28 2z"/>
<path d="M2088 7671 c-8 -12 -18 -18 -21 -14 -4 3 -7 0 -7 -7 0 -7 8 -19 18
-27 12 -10 14 -16 5 -19 -15 -6 -18 -34 -4 -34 4 0 14 -20 21 -44 10 -38 16
-45 44 -49 17 -2 32 -3 34 -2 2 2 -2 39 -9 84 -8 54 -17 81 -26 81 -7 0 -12 9
-10 22 3 30 -27 35 -45 9z"/>
<path d="M4340 6930 c-11 -11 -20 -15 -20 -8 0 6 -11 1 -25 -12 -13 -12 -22
-27 -19 -31 3 -5 -2 -9 -10 -9 -9 0 -16 -9 -16 -20 0 -11 -4 -20 -10 -20 -5 0
-10 -7 -10 -16 0 -9 5 -12 13 -8 9 5 9 4 0 -6 -19 -20 22 -91 50 -86 12 2 16
1 10 -1 -21 -7 -15 -26 17 -61 17 -18 30 -36 30 -38 0 -3 11 -20 25 -38 14
-18 25 -40 25 -49 0 -9 8 -21 18 -26 15 -9 13 -10 -10 -11 -15 0 -31 -6 -35
-13 -4 -6 -21 -19 -36 -27 -22 -11 -32 -12 -47 -2 -11 7 -27 12 -35 12 -8 0
-15 4 -15 9 0 5 -8 12 -19 16 -16 5 -29 25 -72 116 -4 9 -4 20 0 25 5 5 11 21
15 35 5 23 1 28 -23 39 -37 15 -48 9 -61 -38 -16 -59 -12 -91 17 -136 28 -42
122 -116 149 -116 8 0 14 -4 14 -9 0 -5 29 -8 65 -8 72 1 92 14 134 90 25 46
26 73 0 112 -10 17 -23 39 -28 50 -5 11 -21 31 -35 44 -14 14 -26 30 -26 36 0
20 -57 78 -63 63 -2 -7 -4 -1 -4 14 0 15 6 29 13 32 8 3 14 12 14 20 0 24 49
28 101 10 27 -10 49 -22 49 -26 0 -5 14 -22 30 -40 34 -35 36 -45 15 -84 -14
-27 -13 -30 8 -46 30 -24 43 -22 51 5 13 40 16 106 5 112 -5 4 -7 11 -4 16 4
5 2 9 -4 9 -5 0 -11 -6 -14 -12 -2 -7 -7 -10 -11 -6 -4 3 -2 15 4 25 10 16 8
23 -16 49 -30 31 -90 64 -117 64 -9 0 -19 5 -22 10 -10 16 -44 11 -65 -10z"/>
<path d="M4997 6436 c-9 -13 -38 -47 -65 -75 -27 -28 -46 -51 -43 -51 3 0 -1
-5 -9 -10 -12 -7 -12 -12 -2 -22 6 -6 12 -17 12 -22 0 -6 -7 -2 -15 8 -15 19
-15 19 -40 -4 -14 -13 -25 -27 -25 -31 0 -5 -23 -30 -51 -56 -28 -26 -60 -60
-71 -76 l-21 -29 24 -22 23 -21 72 70 c40 38 76 82 79 97 l7 27 54 -54 55 -54
-2 -71 c-1 -39 -6 -73 -10 -76 -5 -3 -9 -18 -9 -33 0 -15 -4 -31 -9 -37 -15
-15 4 -115 24 -130 28 -21 35 -17 36 19 1 55 16 108 32 119 8 4 8 20 0 52 -6
25 -6 46 -2 46 5 0 9 17 9 37 0 34 1 35 14 17 8 -10 17 -16 21 -12 10 10 -4
28 -29 38 -16 7 -17 9 -4 9 20 1 48 -25 48 -45 0 -10 12 -14 39 -14 58 0 101
39 101 90 0 21 5 42 11 45 7 5 8 -5 4 -29 -5 -24 -3 -36 4 -36 6 0 11 14 11
30 0 17 5 30 10 30 6 0 10 5 10 10 0 6 -10 10 -21 10 -17 0 -19 3 -11 13 15
17 4 53 -23 83 -25 27 -40 31 -32 9 4 -8 1 -17 -4 -21 -7 -4 -9 6 -7 27 2 24
-1 33 -10 31 -8 -1 -11 1 -8 6 6 11 -30 52 -46 52 -7 0 -29 18 -49 40 -43 46
-60 50 -82 16z m76 -87 c11 -7 48 -41 82 -77 l62 -65 -1 -66 c-1 -66 -1 -66
-31 -69 -29 -3 -29 -3 -10 11 11 9 23 13 27 11 5 -3 8 6 8 21 0 25 -1 25 -25
9 -14 -9 -25 -20 -25 -25 0 -5 -9 -9 -21 -9 -11 0 -18 -4 -14 -9 3 -5 1 -12
-5 -16 -5 -3 -10 0 -10 7 0 7 -11 20 -24 28 -48 30 -146 130 -146 149 0 20 84
111 102 111 5 0 19 -5 31 -11z"/>
<path d="M2155 6364 c-16 -14 -142 -110 -280 -214 -256 -194 -283 -214 -468
-360 -59 -47 -145 -112 -191 -145 -46 -33 -105 -78 -132 -100 -27 -22 -76 -61
-109 -85 -33 -25 -85 -64 -115 -88 -88 -69 -100 -78 -211 -160 -58 -42 -130
-96 -160 -119 -134 -105 -183 -142 -186 -139 -1 1 9 65 22 142 29 165 86 402
121 497 26 74 31 106 10 67 -12 -22 -47 -138 -91 -300 -23 -84 -74 -340 -77
-385 -2 -33 -7 -41 -25 -43 -13 -2 -23 -8 -23 -13 0 -5 -21 -9 -47 -10 l-48
-1 40 -10 c56 -13 69 -16 79 -17 8 -1 5 -63 -9 -191 -5 -42 -4 -51 5 -38 12
19 31 206 24 235 -6 26 6 37 166 158 80 60 159 120 176 134 17 14 84 64 148
111 65 47 123 90 130 96 13 12 210 162 242 184 19 13 191 144 219 167 6 5 39
30 75 57 36 27 70 54 75 60 10 12 62 51 445 339 124 93 232 176 240 183 27 26
-12 16 -45 -12z"/>
<path d="M5758 5517 c-16 -6 -28 -19 -28 -28 0 -10 -5 -19 -11 -21 -29 -10
-17 -127 16 -150 5 -4 10 -18 11 -32 0 -15 8 -41 16 -59 44 -90 43 -88 28 -98
-12 -8 -10 -9 6 -4 18 5 21 2 18 -21 -4 -39 -24 -56 -24 -20 0 17 -4 25 -11
20 -6 -3 -9 -14 -6 -24 6 -23 -10 -50 -31 -50 -10 0 -13 3 -7 8 6 4 11 15 13
25 2 12 -4 17 -22 17 -25 0 -48 -20 -24 -20 9 -1 7 -5 -4 -14 -28 -20 -22 -26
27 -26 25 0 45 5 45 10 0 6 11 10 25 10 20 0 25 6 31 35 3 19 14 40 23 45 9 6
11 10 4 10 -7 0 -13 4 -13 10 0 5 7 7 15 4 11 -5 15 1 15 20 0 20 -5 26 -22
27 -19 0 -20 2 -6 7 13 5 15 11 8 22 -5 8 -10 25 -10 38 0 26 -7 28 -32 5 -17
-15 -18 -15 -18 0 0 10 7 17 15 17 8 0 15 7 15 16 0 10 -6 14 -15 10 -8 -3
-15 -1 -15 4 0 6 -5 10 -11 10 -6 0 -9 -9 -6 -20 3 -11 1 -18 -4 -14 -12 7
-11 25 1 44 9 13 11 13 19 0 14 -20 25 -6 12 17 -5 10 -12 26 -15 36 -3 10
-10 15 -16 12 -12 -8 -13 15 -1 35 6 8 7 19 3 24 -10 16 -11 56 -2 56 5 0 12
-4 15 -10 3 -5 10 -10 16 -10 5 0 9 5 9 10 0 6 -7 10 -16 10 -8 0 -12 5 -9 10
3 6 5 10 3 9 -2 -1 -15 -6 -30 -12z"/>
<path d="M5848 5523 c-10 -2 -18 -13 -18 -24 0 -14 7 -19 30 -19 21 0 39 -10
60 -32 16 -18 30 -38 30 -44 0 -7 7 -14 15 -18 22 -8 19 -73 -5 -103 -19 -24
-19 -27 -3 -54 10 -16 20 -29 24 -29 19 0 65 83 55 99 -10 16 -29 13 -23 -3 3
-8 0 -17 -7 -19 -19 -7 -13 33 7 48 18 13 23 40 8 49 -5 4 -12 0 -15 -6 -3 -7
-3 -3 0 9 3 13 -2 33 -10 45 -9 12 -16 30 -16 39 0 19 -43 44 -59 35 -6 -4 -9
-1 -5 7 4 12 -27 30 -46 26 -3 -1 -13 -3 -22 -6z"/>
<path d="M6730 5414 c0 -5 18 -60 40 -120 113 -312 170 -679 156 -1004 -3 -85
-8 -170 -10 -188 -32 -269 -118 -612 -164 -649 -9 -8 -12 -12 -5 -9 7 4 9 -1
6 -14 -8 -29 -20 -33 -19 -7 1 24 -16 25 -67 4 -20 -9 -27 -17 -23 -30 4 -17
3 -18 -13 -3 -10 9 -25 14 -35 10 -17 -7 -23 -54 -6 -54 6 0 10 7 10 15 0 8 5
15 10 15 6 0 10 -6 10 -14 0 -8 -4 -18 -10 -21 -16 -10 -12 -38 16 -94 l25
-53 -34 -72 c-59 -124 -221 -370 -307 -466 -18 -19 -54 -61 -82 -92 -34 -39
-55 -55 -66 -51 -11 5 -14 2 -10 -8 11 -29 -306 -307 -411 -360 -14 -8 -39
-23 -56 -35 -47 -35 -203 -123 -275 -156 -105 -49 -306 -128 -323 -128 -9 0
-19 -5 -23 -11 -9 -15 19 -9 101 21 218 79 464 205 610 311 22 16 64 46 93 66
30 20 56 42 59 50 3 7 11 13 19 13 7 0 19 8 26 18 7 9 24 25 38 34 14 9 56 46
93 82 l68 67 142 -139 c139 -136 328 -318 497 -478 47 -44 113 -108 148 -140
67 -64 94 -119 64 -128 -27 -9 -402 -35 -582 -41 -91 -3 -212 -7 -270 -10 -58
-3 -233 -10 -390 -16 -157 -5 -316 -12 -355 -14 -38 -2 -190 -7 -337 -11
l-266 -7 -11 39 c-5 21 -13 57 -16 79 -3 22 -11 59 -17 83 -12 48 -18 49 -113
27 l-60 -14 76 5 c60 5 76 3 76 -7 0 -17 33 -178 40 -195 2 -6 -6 -15 -19 -19
l-23 -8 25 -4 c25 -4 27 -10 64 -206 21 -111 54 -281 73 -377 19 -96 46 -231
59 -300 13 -69 27 -133 30 -143 5 -17 3 -17 -18 -7 -12 7 -93 58 -178 115 -85
56 -183 119 -216 141 -75 48 -227 148 -397 263 -70 47 -138 92 -152 99 -14 7
-25 17 -25 21 0 5 -8 11 -17 15 -19 6 -25 10 -155 97 -45 31 -93 61 -105 68
-12 6 -27 17 -35 23 -7 7 -31 25 -53 39 -22 14 -75 49 -118 77 -43 29 -80 52
-82 52 -14 0 -170 113 -167 122 1 5 -2 7 -8 3 -12 -7 -145 72 -195 117 -35 30
-45 34 -45 18 0 -10 223 -159 499 -335 61 -38 111 -73 111 -77 0 -5 4 -8 9 -8
5 0 98 -60 208 -133 110 -73 221 -147 249 -165 27 -17 90 -59 139 -92 50 -33
110 -73 134 -88 24 -15 62 -40 85 -57 23 -16 70 -48 106 -69 36 -22 139 -88
229 -148 90 -59 169 -108 175 -109 23 -2 -62 -19 -168 -33 -107 -15 -147 -26
-90 -26 16 0 85 9 153 19 68 11 130 17 137 14 8 -3 14 0 14 6 0 6 8 11 19 11
43 0 392 95 521 142 188 68 395 157 386 165 -3 3 -30 -6 -61 -21 -31 -14 -59
-26 -63 -26 -4 0 -20 -7 -37 -16 -57 -30 -222 -88 -465 -162 -116 -35 -293
-73 -302 -64 -5 6 -21 77 -48 222 -29 150 -41 213 -55 280 -8 41 -19 100 -25
130 -5 30 -23 126 -40 212 -16 86 -30 163 -30 171 0 12 39 16 218 21 119 4
255 9 302 11 215 12 521 25 805 35 276 9 756 35 873 46 39 3 42 2 28 -12 -22
-21 -20 -27 4 -14 11 6 20 15 20 20 0 6 6 10 13 10 8 0 -6 -20 -30 -45 -51
-54 -58 -84 -8 -35 19 18 38 31 41 27 4 -4 -1 -10 -11 -13 -14 -6 -10 -13 25
-45 44 -40 60 -48 60 -27 0 29 12 -5 17 -49 4 -40 1 -51 -16 -67 -24 -22 -29
-45 -6 -26 12 10 15 10 15 0 0 -8 3 -10 7 -7 3 4 12 2 20 -5 17 -14 63 -20 63
-9 0 5 -6 14 -14 20 -19 16 -8 50 26 79 15 13 28 32 28 42 0 14 10 21 35 26
19 3 38 10 40 15 3 4 11 6 19 3 14 -5 69 67 71 94 0 10 5 23 9 31 10 15 11
119 2 128 -3 4 -6 16 -6 29 0 41 -45 109 -89 134 -12 6 -12 13 -1 39 7 17 16
31 20 31 4 0 12 11 18 25 17 36 0 31 -22 -7 -11 -18 -34 -50 -53 -71 -18 -20
-33 -41 -33 -47 0 -18 -48 -62 -52 -48 -4 10 -10 10 -29 2 -55 -27 -98 -44
-107 -44 -11 0 -16 -12 -27 -69 -6 -27 -4 -32 6 -25 12 7 12 5 1 -9 -8 -9 -11
-21 -7 -27 3 -5 2 -10 -3 -10 -19 0 -35 31 -39 74 -7 90 72 176 160 173 24 -1
42 5 48 13 6 11 9 12 9 2 0 -7 4 -11 9 -8 5 4 11 1 13 -5 2 -6 12 0 23 12 19
21 19 22 1 16 -13 -5 -17 -3 -13 7 4 11 -3 14 -32 12 -20 -1 -44 -7 -52 -12
-8 -4 -21 -7 -31 -6 -9 2 -19 -2 -23 -8 -3 -5 -17 -10 -30 -10 -12 0 -25 -7
-29 -15 -3 -8 -12 -15 -21 -15 -8 0 -15 -7 -15 -16 0 -8 -4 -13 -9 -9 -5 3
-13 -5 -16 -17 -4 -13 -15 -32 -24 -42 -12 -14 -13 -20 -3 -23 6 -3 10 -9 7
-14 -3 -5 -1 -19 6 -31 11 -22 10 -22 -17 3 -56 50 -119 107 -149 134 -16 15
-63 57 -104 94 -70 63 -113 104 -341 326 l-102 99 28 24 c16 13 79 62 139 108
61 46 175 136 255 200 140 111 233 178 251 180 5 1 18 2 29 3 20 1 29 31 10
31 -5 0 -10 -4 -10 -9 0 -5 -8 -12 -17 -15 -13 -5 -11 -1 6 18 21 22 25 23 38
10 15 -15 69 -11 104 7 8 4 33 9 55 11 39 3 39 3 42 -34 2 -21 8 -38 14 -38 5
0 8 -6 5 -13 -3 -7 1 -21 8 -30 20 -28 1 -106 -35 -139 -16 -16 -33 -28 -38
-28 -5 0 -15 -6 -21 -14 -23 -28 -191 -69 -191 -46 0 6 -10 10 -22 9 -25 -4
-90 39 -82 52 3 5 -5 21 -16 37 -14 19 -19 38 -16 55 l5 27 -28 -16 c-28 -17
-30 -30 -13 -74 3 -8 6 -18 6 -22 1 -3 4 -10 9 -14 4 -4 7 -14 7 -23 0 -17 58
-71 76 -71 6 0 19 -9 29 -20 13 -14 27 -18 54 -15 90 9 142 18 147 26 3 5 14
9 25 9 11 0 18 4 15 9 -4 5 2 7 12 4 11 -2 26 3 35 11 8 9 20 16 24 16 13 0
46 40 62 75 7 17 17 38 22 47 12 24 11 88 -1 88 -5 0 -10 10 -10 23 0 40 -38
142 -51 139 -9 -2 -9 1 1 14 13 14 12 19 -8 34 -22 18 -30 18 -112 -6 -14 -4
-31 -12 -39 -18 -9 -7 -13 -7 -10 -1 2 6 69 69 149 140 197 174 346 321 509
500 75 83 142 149 148 149 7 -1 10 2 7 7 -6 11 30 60 40 54 3 -3 4 -2 2 1 -3
3 6 18 20 33 14 14 30 34 35 44 16 29 -4 19 -32 -16 -119 -149 -447 -499 -460
-491 -5 3 -8 1 -7 -4 4 -12 -62 -83 -147 -157 -148 -131 -319 -275 -327 -276
-4 -1 -14 -2 -20 -3 -7 -1 -12 -7 -11 -13 1 -6 -4 -17 -13 -23 -12 -11 -13
-10 -8 4 5 12 0 16 -20 16 -14 0 -26 -4 -26 -9 0 -5 -15 -12 -32 -16 -87 -18
-132 -40 -124 -62 9 -22 -4 -14 -15 10 -8 19 -9 18 -3 -8 3 -16 5 -43 5 -59 0
-24 3 -27 22 -22 l22 5 -21 -17 c-36 -28 -105 -85 -143 -117 -38 -33 -159
-127 -237 -185 -26 -19 -55 -43 -65 -52 -40 -38 -52 -38 -89 -4 -19 17 -48 46
-64 63 l-29 32 41 43 c103 109 204 244 339 454 7 10 29 49 48 87 34 64 55 84
55 52 0 -8 3 -15 8 -15 23 -1 34 -18 23 -38 -8 -15 -7 -23 4 -32 8 -7 13 -16
10 -20 -3 -5 4 -6 14 -3 24 6 35 31 21 48 -15 18 -49 122 -43 129 4 3 2 6 -4
6 -6 0 -14 -12 -17 -26 -4 -15 -9 -24 -12 -21 -10 10 82 218 102 230 8 4 14
15 14 23 0 11 5 10 22 -6 12 -11 26 -20 31 -20 5 0 7 -9 4 -19 -3 -12 4 -29
15 -41 11 -11 17 -27 14 -35 -2 -7 2 -19 9 -25 8 -7 17 -27 21 -46 3 -19 14
-39 23 -44 9 -6 11 -10 4 -10 -19 0 -16 -18 6 -29 13 -7 24 -6 37 3 18 13 18
15 0 57 -10 24 -22 53 -27 64 -27 67 -42 102 -50 117 -16 30 -10 54 16 68 20
11 27 11 42 -1 9 -8 14 -9 10 -3 -9 15 65 46 74 32 3 -5 10 -10 15 -10 5 1 8
-6 6 -14 -2 -8 4 -17 12 -20 9 -3 13 -10 10 -15 -3 -6 -2 -15 3 -22 6 -7 16
-37 23 -69 10 -43 16 -55 28 -51 12 5 12 2 2 -16 -13 -26 -4 -43 11 -21 8 11
9 7 4 -14 -5 -24 -4 -27 7 -19 7 6 18 11 23 12 19 0 16 29 -11 87 -15 33 -28
61 -28 64 -1 3 -5 11 -9 18 -5 6 -6 16 -2 21 3 5 1 12 -5 16 -6 4 -8 11 -5 16
4 5 1 9 -4 9 -6 0 -11 14 -11 30 0 22 -5 30 -17 30 -15 0 -16 2 -3 10 11 7 12
14 4 27 -17 27 -43 40 -52 26 -4 -7 -26 -16 -50 -21 -23 -6 -57 -19 -76 -30
-18 -11 -52 -23 -75 -27 -36 -6 -41 -4 -41 12 0 11 4 23 9 29 9 9 22 48 41
120 l10 42 53 0 c103 0 100 -1 92 29 -3 15 -12 31 -18 35 -18 11 -59 10 -52
-2 3 -5 2 -10 -4 -10 -5 0 -13 5 -16 10 -5 8 -11 7 -21 -1 -11 -9 -14 -8 -14
7 0 11 4 34 10 53 32 112 59 412 54 601 -8 265 -20 373 -70 580 -40 169 -144
467 -144 414z m635 -3554 c-6 -19 8 -29 18 -12 2 4 2 1 1 -5 -2 -7 2 -16 9
-20 7 -5 18 -20 26 -35 8 -15 17 -26 20 -23 4 2 5 -11 3 -30 -2 -18 1 -36 7
-39 13 -8 15 -72 2 -80 -5 -3 -12 -20 -15 -38 -8 -42 -36 -75 -70 -84 -14 -3
-26 -10 -26 -14 0 -18 -62 -16 -85 2 -28 22 -55 24 -55 4 0 -24 -16 -26 -38
-5 -12 11 -22 17 -22 14 0 -13 -29 23 -32 40 -2 13 5 18 31 21 19 2 37 6 39 9
9 9 -20 35 -32 28 -11 -7 7 19 32 45 24 26 12 33 -13 7 -31 -30 -31 -30 -31
-5 0 11 3 20 7 20 4 0 5 8 3 18 -6 26 38 72 74 77 36 5 39 0 16 -35 -9 -14 2
-5 24 20 39 43 41 44 59 27 25 -22 28 -21 30 3 2 18 -8 25 -29 21 -10 -1 4 30
27 62 24 32 28 33 20 7z"/>
<path d="M6220 5120 c-8 -11 -23 -20 -34 -22 -24 -4 -34 -28 -12 -28 9 0 16
-4 16 -10 0 -6 -9 -5 -24 1 -20 10 -31 6 -75 -22 -29 -20 -51 -41 -51 -51 0
-10 5 -18 10 -18 6 0 10 8 10 19 0 14 6 17 25 13 24 -4 24 -5 8 -18 -10 -7
-14 -14 -9 -14 4 0 0 -12 -9 -27 -16 -23 -16 -25 -1 -20 10 4 16 1 16 -7 0
-12 -6 -12 -30 -3 l-30 12 22 18 23 18 -27 -7 c-23 -5 -28 -3 -28 12 0 12 -3
15 -8 8 -4 -6 -17 -14 -29 -18 -26 -8 -31 -26 -8 -26 8 0 15 5 15 10 0 6 7 10
16 10 13 0 14 -3 5 -14 -9 -11 -7 -15 13 -20 16 -4 35 -25 55 -61 31 -55 70
-78 55 -33 -6 20 -5 21 10 6 9 -9 13 -24 10 -32 -5 -12 -2 -15 10 -10 18 7 21
20 6 29 -5 3 -10 14 -10 24 0 11 -9 21 -21 24 -12 3 -18 10 -14 16 3 6 -1 18
-9 27 -28 27 -20 62 17 78 17 8 25 15 17 15 -8 1 4 11 28 22 48 24 61 19 88
-33 8 -16 19 -26 25 -23 5 4 9 3 8 -2 -4 -24 2 -53 11 -48 17 10 33 -5 20 -20
-15 -18 13 -27 44 -15 13 5 27 6 30 3 3 -4 6 -1 6 6 0 6 -7 14 -15 17 -8 4
-15 10 -15 15 0 15 -42 59 -51 53 -5 -3 -6 1 -3 9 3 8 -6 26 -20 40 -14 15
-26 31 -26 36 0 6 -11 26 -23 45 -23 32 -25 33 -37 16z"/>
<path d="M2305 4994 c-11 -2 -45 -9 -75 -15 -115 -22 -264 -90 -342 -156 -22
-18 -53 -41 -69 -50 -21 -12 -29 -25 -29 -44 0 -15 4 -29 8 -31 5 -1 15 -15
23 -30 55 -105 217 -288 255 -288 8 0 14 -4 14 -9 0 -5 8 -12 18 -15 22 -8 55
-28 76 -45 9 -8 33 -17 54 -22 20 -4 71 -17 112 -28 129 -36 304 -28 445 22
22 8 46 12 53 9 7 -2 23 5 35 16 12 11 38 28 57 37 45 23 128 85 159 118 13
15 29 24 35 20 6 -3 8 -3 4 2 -4 4 -3 14 3 22 9 10 8 18 -5 31 -9 10 -16 24
-16 30 0 40 -178 245 -245 282 -25 13 -45 28 -45 31 0 4 -11 10 -25 13 -18 5
-24 12 -22 28 2 20 -7 24 -108 44 -104 22 -327 39 -370 28z m280 -97 c90 -25
229 -93 220 -107 -3 -5 0 -7 7 -5 20 8 147 -121 205 -207 l25 -38 -28 -33
c-65 -76 -233 -155 -388 -181 -169 -29 -367 29 -535 159 -57 44 -146 148 -176
205 -14 27 -13 28 44 73 60 47 147 96 222 123 107 39 284 44 404 11z"/>
<path d="M290 4892 c0 -5 35 -13 78 -17 78 -7 184 -20 392 -49 63 -9 165 -23
225 -31 278 -38 318 -45 323 -49 3 -3 -2 -29 -10 -58 -20 -70 -69 -267 -128
-513 -26 -110 -57 -234 -69 -275 -12 -41 -46 -169 -75 -285 -30 -115 -73 -282
-96 -370 -24 -88 -46 -176 -50 -195 -5 -19 -13 -51 -20 -70 -19 -56 -49 -193
-44 -201 2 -4 0 -9 -4 -11 -4 -1 -23 -65 -41 -141 -18 -76 -34 -137 -36 -135
-15 15 -178 359 -194 410 -13 38 -31 60 -31 36 0 -7 11 -36 24 -63 12 -28 29
-68 36 -90 7 -22 37 -89 68 -150 30 -60 63 -126 73 -145 16 -32 16 -35 0 -48
-14 -12 -14 -13 4 -8 17 5 28 -8 65 -71 25 -42 56 -89 68 -105 13 -15 21 -28
18 -28 -4 0 12 -27 34 -61 36 -52 40 -62 28 -77 -11 -15 -11 -16 4 -4 14 11
22 4 67 -60 87 -124 130 -178 131 -161 0 7 -28 50 -62 95 -132 175 -315 468
-304 487 8 12 123 80 216 127 41 21 104 56 140 77 36 22 112 65 170 95 58 29
110 57 115 61 6 5 55 32 110 61 55 29 109 59 120 66 26 19 35 18 35 -5 0 -10
15 -58 34 -107 121 -320 196 -516 256 -669 94 -239 148 -389 142 -399 -2 -4
-9 -2 -14 5 -7 11 -8 9 -4 -4 3 -10 6 -21 6 -24 0 -3 6 -1 13 5 10 9 16 3 26
-26 25 -71 62 -167 71 -184 6 -10 10 -23 10 -29 0 -6 7 -25 15 -42 8 -18 25
-61 38 -97 41 -113 209 -544 219 -563 10 -19 -6 -11 -187 90 -79 44 -129 75
-228 141 -53 36 -65 48 -56 58 8 10 8 14 0 14 -6 0 -11 -4 -11 -10 0 -19 -15
-10 -126 73 -103 76 -162 125 -303 252 -66 58 -351 347 -351 355 0 10 -75 80
-85 80 -6 0 -6 -3 0 -8 6 -4 35 -36 65 -72 53 -63 87 -100 250 -269 73 -77
261 -242 330 -291 37 -26 46 -33 98 -75 73 -60 297 -203 457 -292 94 -52 173
-100 176 -105 4 -6 11 -8 17 -4 5 3 50 -12 98 -35 137 -63 281 -117 449 -169
169 -52 160 -40 -15 20 -208 71 -381 140 -376 149 2 3 -6 7 -19 7 -34 2 -120
50 -117 64 3 13 22 54 186 394 37 76 72 148 77 160 5 11 13 28 18 36 13 19
151 312 241 507 30 67 35 72 58 66 17 -4 23 -2 18 6 -4 6 -14 11 -22 11 -21 0
-17 17 6 23 21 5 39 55 23 66 -5 3 -15 21 -22 39 -17 40 -45 40 -49 0 l-3 -27
-35 22 c-18 12 -34 28 -34 35 0 6 -7 12 -15 12 -29 0 -15 -42 28 -81 23 -22
50 -42 60 -45 9 -3 17 -10 17 -16 0 -6 -8 -7 -17 -3 -10 4 -22 8 -28 9 -5 1
-22 10 -37 20 -15 10 -33 16 -40 13 -13 -4 90 -63 105 -59 11 3 13 9 -72 -174
-116 -250 -153 -329 -260 -549 -54 -110 -126 -260 -161 -332 -35 -73 -66 -133
-70 -133 -7 0 -50 90 -50 104 0 4 -42 114 -94 244 -51 130 -99 255 -106 277
-6 22 -18 54 -25 70 -17 38 -57 138 -57 145 0 3 -4 14 -9 25 -30 75 -59 155
-59 162 0 4 -7 21 -16 38 -8 16 -13 38 -11 47 3 10 2 16 -2 13 -12 -7 -19 9
-100 235 -9 25 -19 50 -22 55 -4 6 -12 28 -19 50 -7 22 -20 58 -30 80 -10 22
-43 105 -74 185 -31 80 -61 154 -65 165 -19 42 -101 275 -101 286 0 10 220
134 225 127 1 -2 34 -57 74 -123 103 -173 218 -319 388 -493 46 -46 80 -88 77
-93 -3 -5 1 -6 8 -4 8 3 31 -13 53 -35 21 -22 43 -40 47 -40 5 0 19 -9 31 -21
39 -37 240 -175 312 -215 90 -49 68 -21 -27 36 -81 48 -231 156 -323 234 -87
72 -281 269 -350 354 -100 123 -275 386 -275 413 0 5 -14 31 -30 58 -121 197
-246 606 -286 935 -5 49 -4 57 7 50 8 -5 25 -9 39 -11 102 -9 116 -2 97 48
-14 35 -24 37 -29 7 -5 -36 -21 -26 -48 30 -24 49 -40 65 -40 40 0 -7 7 -26
15 -42 18 -33 16 -37 -18 -40 -23 -3 -26 1 -32 40 -9 60 -4 464 5 464 5 0 7 8
6 18 -2 9 2 20 8 24 18 12 -34 24 -156 38 -104 11 -118 15 -118 31 0 11 -4 19
-10 19 -5 0 -10 -7 -10 -15 0 -20 -11 -19 -218 10 -256 37 -375 53 -572 75
-96 11 -190 23 -207 26 -19 4 -33 2 -33 -4z m1185 -162 c86 -14 107 -19 113
-24 2 -3 0 -22 -5 -43 -12 -50 -15 -413 -4 -528 11 -111 37 -272 56 -345 72
-279 124 -430 209 -599 26 -52 46 -94 44 -96 -17 -12 -193 -105 -199 -105 -4
0 -9 -6 -12 -12 -3 -8 -9 -1 -16 15 -14 35 -19 34 -17 -4 1 -29 -5 -33 -104
-88 -58 -31 -177 -97 -265 -145 -88 -49 -198 -109 -245 -134 -47 -25 -120 -65
-164 -89 -43 -23 -82 -43 -87 -43 -5 0 -9 -4 -9 -10 0 -5 -5 -10 -11 -10 -7 0
-9 9 -5 23 4 12 12 47 18 77 6 30 14 57 18 60 9 7 50 151 50 175 0 11 7 31 16
43 9 13 14 25 11 28 -2 2 8 55 23 117 82 331 91 363 120 404 33 46 38 68 14
59 -13 -5 -15 -2 -9 16 12 40 33 124 115 463 87 358 92 377 145 569 19 70 35
136 35 146 0 23 25 70 42 81 17 11 50 11 123 -1z"/>
<path d="M3033 4843 c40 -43 79 -87 106 -119 4 -6 23 -36 41 -68 23 -43 31
-67 27 -90 -3 -17 -8 -49 -11 -71 -5 -32 -19 -52 -69 -101 -175 -171 -406
-262 -639 -251 -227 11 -302 35 -482 151 -91 59 -210 169 -221 204 -4 13 -20
43 -36 67 -16 24 -29 48 -29 54 0 6 -4 11 -10 11 -5 0 -10 7 -10 15 0 11 -12
15 -45 15 -38 0 -45 -3 -45 -20 0 -16 7 -20 34 -20 33 0 49 -18 112 -123 21
-34 160 -171 205 -202 24 -16 46 -33 49 -36 10 -13 116 -64 170 -82 113 -38
168 -48 295 -53 112 -5 143 -3 220 15 124 30 206 64 303 127 46 30 87 52 92
49 5 -3 12 0 16 6 4 8 3 9 -4 5 -29 -18 -8 14 29 44 51 41 74 43 254 23 77 -8
146 -14 153 -14 36 3 173 -7 277 -19 163 -20 334 -30 743 -44 84 -3 157 -8
161 -11 5 -2 22 2 39 10 30 16 54 58 48 85 -22 103 -75 128 -270 129 -59 1
-125 5 -145 10 -20 5 -151 12 -291 15 -140 3 -324 11 -408 16 -85 6 -175 11
-200 12 -26 1 -85 10 -132 21 -47 11 -95 21 -107 21 -15 1 -43 31 -96 102 -74
98 -137 164 -158 164 -6 0 9 -21 34 -47z m947 -304 c52 -6 151 -10 219 -10 68
1 149 -3 180 -9 31 -5 86 -12 121 -15 36 -2 81 -7 100 -10 19 -3 57 -6 83 -6
27 -1 54 -7 62 -16 20 -19 19 -88 -1 -118 -15 -22 -21 -24 -72 -20 -99 8 -225
17 -274 18 -27 1 -48 6 -48 11 0 4 -6 6 -12 3 -47 -17 -58 -18 -52 -4 3 8 17
15 30 15 42 0 58 23 45 65 -12 35 -13 35 -64 33 -49 -3 -52 -4 -55 -32 -2 -16
-8 -34 -14 -41 -6 -8 -6 -18 1 -31 10 -19 8 -20 -52 -16 -91 5 -248 15 -282
19 -275 25 -391 34 -442 34 -81 -1 -132 16 -137 44 -13 63 -14 96 -3 101 21 9
568 -3 667 -15z"/>
<path d="M6475 4607 c-27 -17 -59 -39 -69 -49 -11 -10 -26 -18 -33 -18 -8 0
-16 -7 -19 -15 -5 -11 -10 -13 -19 -5 -9 8 -14 6 -18 -4 -3 -8 -29 -25 -56
-38 -40 -18 -51 -28 -51 -46 0 -13 -7 -30 -15 -38 -8 -9 -15 -12 -15 -7 0 5 5
14 12 21 15 15 4 27 -14 16 -7 -5 -19 -9 -27 -11 -8 -1 -17 -6 -20 -11 -3 -5
-15 -11 -26 -13 -25 -5 -34 -49 -11 -49 9 0 16 -4 16 -9 0 -5 11 -4 25 2 15 7
23 18 20 26 -4 11 -2 11 9 2 11 -9 20 -7 41 13 15 14 31 23 36 20 5 -3 9 5 9
17 0 17 3 20 12 11 8 -8 17 -6 36 8 20 16 28 18 46 8 18 -11 19 -13 4 -16 -22
-4 -23 -11 -1 -27 28 -20 30 -129 4 -187 -12 -26 -28 -54 -36 -62 -24 -23 -56
-114 -44 -122 6 -4 15 0 20 7 6 9 7 2 3 -18 -8 -42 7 -42 25 -1 11 24 11 33 3
36 -7 2 -12 8 -12 14 0 6 6 6 15 -2 22 -18 37 -2 31 33 -4 21 -3 26 2 13 7
-17 11 -14 32 20 13 22 24 55 24 77 1 40 14 47 40 22 10 -11 24 -13 43 -9 26
7 27 6 14 -10 -14 -16 -11 -17 43 -14 42 2 60 8 67 20 5 9 18 19 28 23 11 3
27 17 36 31 15 24 15 29 -1 80 -14 47 -19 52 -32 42 -13 -11 -15 -10 -9 4 4
11 2 17 -6 15 -8 -1 -12 12 -13 38 0 52 -23 105 -46 105 -9 0 -20 5 -24 11 -4
8 0 9 15 4 24 -7 27 0 7 20 -7 8 -17 11 -21 7 -5 -4 -5 2 -1 12 4 12 2 23 -6
28 -17 10 -16 11 -73 -25z m34 -44 c-3 -19 2 -25 14 -15 10 8 13 6 14 -10 2
-25 22 -39 45 -32 9 2 19 0 23 -6 3 -6 -3 -10 -14 -10 -22 0 -28 -14 -10 -25
15 -10 58 -107 52 -121 -3 -7 5 -19 16 -26 12 -7 21 -18 21 -25 0 -19 -17 -16
-24 4 -11 27 -26 -5 -19 -39 4 -21 2 -28 -11 -28 -9 0 -16 6 -16 13 0 9 -11
12 -36 9 -24 -3 -32 -7 -23 -13 7 -4 17 -5 21 -3 4 3 5 -2 2 -10 -9 -24 -15
-21 -67 34 -40 42 -51 49 -67 40 -26 -14 -29 -13 -23 11 3 12 11 18 19 15 8
-3 14 -2 14 1 0 16 -25 73 -32 73 -4 0 -15 15 -24 33 -9 17 -21 35 -26 38 -6
4 -6 9 1 13 6 4 11 2 11 -3 0 -6 5 -11 11 -11 18 0 98 54 99 66 0 5 5 15 12
22 14 14 18 15 17 5z"/>
<path d="M255 4618 c-3 -7 -7 -89 -8 -183 -5 -220 20 -531 59 -750 49 -279
122 -563 137 -538 4 6 -4 46 -17 89 -112 374 -165 754 -162 1162 0 127 0 232
-2 232 -1 0 -5 -6 -7 -12z"/>
<path d="M3407 4299 c-29 -17 -49 -67 -42 -107 3 -21 6 -59 7 -85 1 -47 1 -47
20 -30 13 11 19 29 18 53 -3 53 -1 60 13 60 9 0 12 -10 9 -31 -3 -20 0 -34 9
-40 23 -14 38 9 32 48 -5 28 -3 35 8 31 8 -2 15 -21 17 -41 3 -36 23 -50 37
-27 9 15 25 12 25 -5 0 -17 18 -19 40 -5 9 5 19 5 26 -1 7 -6 20 -2 38 12 53
41 81 1 33 -48 -12 -12 -26 -28 -32 -35 -36 -47 -33 -47 14 -3 55 52 94 114
83 131 -4 5 -16 11 -27 12 -11 2 -27 10 -36 18 -18 16 -44 10 -53 -11 -3 -8
-15 -19 -27 -25 -21 -12 -21 -11 -17 54 2 36 1 66 -3 66 -17 0 -39 -47 -39
-83 0 -25 -4 -36 -11 -31 -6 3 -8 17 -5 29 5 18 1 25 -13 30 -10 3 -24 4 -31
3 -6 -2 -17 13 -23 32 -13 37 -38 48 -70 29z"/>
<path d="M4876 4235 c-3 -8 -13 -15 -22 -15 -29 0 -75 -40 -72 -64 5 -37 67
-31 68 7 0 4 -8 7 -17 7 -16 1 -16 2 1 15 18 14 21 13 32 -15 15 -34 29 -37
56 -13 14 12 21 14 30 5 8 -8 1 -26 -30 -70 -23 -33 -46 -72 -52 -86 -14 -39
6 -23 30 22 10 20 31 51 47 68 25 28 33 31 67 26 27 -3 43 0 50 9 6 8 24 23
40 33 23 15 30 16 37 5 5 -8 9 -20 9 -26 0 -7 7 -13 15 -13 11 0 15 11 15 43
0 23 -4 48 -8 55 -12 18 -40 4 -58 -29 -17 -33 -24 -37 -19 -11 1 9 -4 25 -13
34 -14 16 -16 16 -44 -7 l-29 -25 -28 21 c-33 24 -77 18 -66 -8 5 -13 3 -14
-10 -3 -9 7 -14 19 -11 26 3 7 1 16 -3 19 -5 3 -11 -2 -15 -10z"/>
<path d="M2907 4174 c-3 -3 3 -26 13 -50 18 -42 18 -44 1 -44 -25 0 -32 -10
-20 -31 8 -16 18 -18 67 -13 31 3 67 7 78 9 25 5 41 -20 18 -29 -8 -3 -14 -14
-14 -24 0 -11 -7 -25 -15 -32 -20 -17 -19 -49 2 -57 10 -4 23 2 35 17 10 12
22 20 26 16 4 -4 -1 -12 -11 -17 -22 -13 -22 -25 4 -52 17 -19 18 -23 5 -25
-21 -5 -20 -29 2 -41 15 -9 15 -10 -4 -11 -12 0 -27 6 -33 13 -6 8 -23 12 -41
9 -23 -3 -30 -9 -30 -26 0 -27 18 -51 44 -60 18 -6 19 -5 4 11 -8 10 -13 24
-11 31 6 16 53 16 53 -1 0 -7 16 -28 35 -47 29 -28 39 -32 53 -24 24 16 27 51
5 58 -10 3 -24 15 -31 26 -10 17 -10 21 4 27 9 3 25 1 36 -6 21 -13 34 -9 25
6 -3 5 -26 20 -51 33 -47 24 -52 40 -11 40 13 0 27 5 31 11 9 14 -16 30 -38
25 -27 -6 -21 13 7 24 31 12 32 33 2 49 -13 7 -28 21 -35 31 -11 18 -10 19 14
9 15 -5 29 -7 33 -4 8 9 -22 58 -39 63 -13 5 -13 3 0 -13 14 -16 12 -17 -20
-10 -19 3 -42 15 -51 26 -15 16 -18 17 -23 3 -12 -31 -56 -12 -83 36 -30 54
-28 51 -36 44z"/>
<path d="M1787 4152 c-19 -21 -22 -48 -7 -57 6 -3 10 -14 10 -23 0 -13 -2 -13
-16 4 -8 10 -13 14 -10 7 11 -21 -34 -27 -49 -6 -13 17 -14 17 -11 -2 2 -11
-3 -25 -11 -30 -10 -7 -12 -20 -8 -37 7 -29 35 -47 35 -23 0 8 5 15 10 15 6 0
10 -6 10 -12 0 -9 3 -8 10 2 7 12 12 8 21 -17 6 -18 15 -33 20 -33 17 0 9 -19
-11 -25 -30 -9 -25 -22 27 -75 34 -35 51 -46 62 -40 9 5 25 11 36 15 19 6 19
7 -5 25 -20 16 -23 23 -14 37 12 20 12 92 0 111 -4 7 -16 10 -27 7 -13 -4 -19
-2 -19 9 0 9 8 16 19 16 24 0 46 51 37 85 -4 14 -18 31 -31 37 -14 6 -25 15
-25 20 0 15 -37 8 -53 -10z"/>
<path d="M6741 4078 c-30 -31 -45 -87 -18 -72 8 5 9 4 2 -4 -5 -6 -23 -12 -40
-14 -19 -2 -30 -9 -30 -19 0 -15 -28 -49 -40 -49 -4 0 -5 7 -1 15 3 8 2 15 -2
15 -15 -1 -50 -37 -57 -61 -4 -13 -22 -36 -39 -51 -27 -23 -30 -29 -18 -47 17
-29 16 -30 -20 -28 -31 2 -33 0 -30 -28 3 -29 3 -29 -11 -10 -23 30 -30 12
-10 -22 15 -28 21 -30 75 -31 32 0 58 3 58 9 0 5 8 9 18 9 14 0 15 -2 2 -10
-9 -6 -10 -10 -3 -10 6 0 18 7 27 15 15 16 36 20 36 8 0 -5 16 -9 35 -9 19 -1
35 3 35 8 0 5 4 7 10 3 5 -3 31 -7 57 -9 46 -3 49 -2 51 21 1 13 7 33 13 45 9
16 8 19 -3 16 -7 -3 -15 -13 -16 -24 -2 -10 -8 -23 -12 -28 -5 -5 -7 -1 -4 10
5 18 -1 19 -83 18 -108 -2 -112 -2 -93 -14 13 -8 12 -10 -2 -10 -10 0 -18 4
-18 8 0 4 -16 6 -35 4 -19 -2 -35 -8 -35 -13 0 -17 -19 -9 -25 12 -5 16 2 28
31 55 38 33 38 34 19 49 -19 15 -19 16 5 4 19 -9 25 -9 28 1 6 16 113 120 125
120 4 0 7 7 7 15 0 8 7 15 15 15 9 0 18 7 21 15 6 14 8 13 20 -2 19 -26 38 -3
43 50 1 5 6 5 12 1 7 -4 9 -21 5 -43 -3 -20 -7 -49 -9 -66 -2 -16 -7 -40 -11
-52 -10 -30 9 -30 29 0 11 17 45 157 45 186 0 4 -67 -3 -90 -10 -8 -2 -20 -10
-25 -17 -8 -10 -10 -8 -10 10 1 13 5 29 9 36 14 24 -12 11 -43 -20z"/>
<path d="M1856 3723 c-17 -8 -58 -18 -93 -21 -56 -4 -63 -7 -63 -26 0 -21 4
-22 64 -18 61 4 63 3 68 -21 3 -14 1 -30 -5 -36 -7 -7 -6 -20 3 -41 11 -27 11
-33 0 -40 -12 -7 -12 -13 0 -34 14 -27 32 -35 28 -13 -2 7 8 12 25 12 15 -1
27 2 27 5 0 3 25 16 55 30 30 14 55 27 55 30 0 3 -28 6 -61 7 -34 2 -64 5 -67
7 -2 3 3 12 12 21 9 9 16 20 16 24 0 12 -23 38 -45 49 -14 8 -16 12 -5 12 8 0
23 7 33 14 16 12 16 17 5 35 -15 25 -15 25 -52 4z"/>
<path d="M3123 3652 c-6 -4 -14 -19 -18 -34 -6 -24 -3 -29 20 -38 39 -15 21
-30 -35 -30 -27 0 -52 -4 -55 -10 -3 -5 -20 -6 -38 -3 -30 6 -31 5 -18 -11 12
-14 27 -17 73 -14 40 2 58 -1 58 -9 0 -19 20 -26 35 -13 11 9 15 9 15 1 0 -6
-11 -17 -25 -23 -29 -13 -32 -30 -8 -49 13 -11 17 -11 20 -1 6 17 23 15 23 -3
0 -9 -9 -15 -25 -15 -30 0 -32 -19 -5 -51 16 -20 19 -21 20 -7 0 23 18 32 34
19 10 -9 15 -8 19 4 4 8 24 18 47 21 56 9 50 24 -9 24 -52 0 -64 11 -54 49 3
13 -1 29 -11 40 -16 17 -16 20 -2 28 22 12 3 83 -22 84 -11 0 -6 5 12 14 29
12 29 13 8 24 -24 13 -42 14 -59 3z"/>
<path d="M2460 2220 c-14 -9 -20 -31 -21 -73 0 -21 -22 -17 -81 16 -21 11 -41
18 -44 14 -14 -13 7 -37 51 -60 l46 -23 -26 -14 c-17 -9 -23 -19 -20 -31 5
-15 -18 -35 -37 -31 -5 1 -8 -6 -9 -16 0 -10 -3 -12 -6 -4 -2 6 -12 12 -21 12
-12 0 -13 -3 -4 -12 7 -7 12 -25 12 -40 0 -35 32 -68 66 -68 20 0 25 4 20 16
-3 9 -6 19 -6 24 0 5 -7 10 -15 12 -10 2 -12 7 -5 18 7 12 12 12 22 2 23 -23
38 -14 38 24 0 19 4 33 9 29 18 -11 23 16 7 40 -9 13 -16 27 -16 30 0 13 59
-26 64 -42 3 -10 3 -1 0 20 -3 20 -1 37 4 37 12 0 20 30 15 48 -3 6 -12 12
-21 12 -14 1 -14 2 2 12 16 9 23 7 38 -13 53 -66 74 -89 81 -89 4 0 -11 25
-33 55 -22 30 -40 58 -40 63 0 11 -34 42 -46 42 -5 0 -16 -5 -24 -10z"/>
<path d="M2660 1961 c0 -6 -6 -11 -14 -11 -32 0 -62 -79 -52 -134 6 -30 13
-36 52 -50 42 -14 47 -14 78 5 35 21 56 55 56 94 0 32 -30 95 -46 95 -6 0 -26
3 -43 6 -20 4 -31 3 -31 -5z"/>
<path d="M3165 1920 c8 -13 57 -34 155 -67 41 -13 84 -29 95 -33 59 -26 302
-89 405 -105 123 -18 176 -25 263 -31 60 -4 93 -10 85 -15 -10 -7 -9 -9 5 -9
9 0 17 5 17 11 0 5 3 8 8 6 7 -5 285 10 332 17 14 3 35 5 48 5 12 1 22 5 22
11 0 5 -12 7 -27 4 -131 -24 -466 -21 -673 6 -205 27 -466 97 -648 175 -92 38
-96 40 -87 25z"/>
<path d="M2186 1912 c-6 -9 10 -37 21 -37 18 -1 89 -28 98 -37 7 -7 -5 -9 -36
-6 -40 5 -46 3 -42 -12 2 -9 -5 -33 -17 -53 -32 -54 -9 -106 48 -107 29 0 31
39 2 47 -11 3 -20 9 -20 14 0 15 22 21 33 10 19 -19 37 -12 37 13 0 13 7 26
15 30 11 4 13 11 5 31 -8 20 -6 25 6 25 10 0 14 7 12 22 -2 16 -13 25 -40 31
-27 6 -35 13 -31 24 5 13 3 13 -15 2 -16 -10 -26 -10 -46 -1 -14 6 -27 8 -30
4z"/>
<path d="M0 1263 c0 -12 14 -28 38 -41 39 -23 88 -69 80 -77 -2 -3 -26 -8 -52
-11 l-48 -7 7 34 c7 30 6 32 -9 20 -21 -18 -24 -171 -3 -171 26 0 36 21 24 47
-13 30 -6 36 68 52 67 15 83 32 65 67 -36 66 -170 135 -170 87z"/>
<path d="M7075 561 c-10 -9 -5 -42 5 -36 6 3 10 -3 10 -15 0 -12 -3 -19 -7
-17 -5 3 -8 -25 -8 -61 0 -37 -4 -78 -8 -90 -8 -22 -7 -23 15 -18 12 3 17 3
11 0 -16 -7 -17 -74 -2 -74 5 0 8 -4 5 -8 -9 -15 47 -60 89 -71 63 -17 88 -13
125 19 41 35 56 37 72 10 7 -11 23 -20 35 -20 13 0 23 -4 23 -10 0 -5 11 -10
24 -10 14 0 28 5 31 10 3 6 14 10 24 10 25 0 65 48 84 101 13 35 16 69 13 155
-2 60 -4 111 -5 114 -1 3 -42 5 -92 5 -50 0 -93 3 -95 7 -5 8 -341 7 -349 -1z
m245 -151 c6 -105 -3 -137 -44 -164 -14 -9 -38 -16 -54 -16 -36 0 -82 34 -82
61 0 10 -4 19 -8 19 -5 0 -7 15 -5 33 3 17 7 57 9 87 7 81 3 78 96 76 l83 -2
5 -94z m230 -14 c0 -83 -16 -139 -43 -149 -23 -8 -86 5 -100 22 -16 17 -28
186 -15 206 3 6 38 9 82 7 l76 -4 0 -82z"/>
<path d="M7133 62 l-73 -3 0 -29 0 -30 195 0 c107 0 195 4 195 9 0 13 -26 32
-33 24 -4 -3 -17 -1 -30 5 -12 6 -51 13 -87 15 -36 2 -72 5 -80 8 -8 3 -48 3
-87 1z"/>
</g>
</svg>
