<?xml version="1.0" standalone="no"?>
<!DOCTYPE svg PUBLIC "-//W3C//DTD SVG 20010904//EN"
 "http://www.w3.org/TR/2001/REC-SVG-20010904/DTD/svg10.dtd">
<svg version="1.0" xmlns="http://www.w3.org/2000/svg"
 width="758.000000pt" height="894.000000pt" viewBox="0 0 758.000000 894.000000"
 preserveAspectRatio="xMidYMid meet">
<metadata>
Created by potrace 1.16, written by Peter Selinger 2001-2019
</metadata>
<g transform="translate(0.000000,894.000000) scale(0.100000,-0.100000)"
fill="#000000" stroke="none">
<path d="M2737 8933 c-4 -3 -7 -14 -7 -24 0 -24 -29 -51 -47 -45 -8 3 -11 2
-8 -4 10 -16 -6 -62 -21 -56 -10 4 -11 -1 -5 -17 11 -31 3 -54 -21 -60 -11 -3
-17 -10 -14 -16 4 -6 -3 -20 -14 -31 -16 -16 -19 -25 -11 -34 6 -7 8 -16 4
-19 -3 -4 -3 -7 1 -7 4 0 14 15 22 33 21 47 36 68 67 96 15 14 27 31 27 39 0
7 5 10 10 7 6 -3 10 4 10 17 0 13 15 38 36 58 20 19 40 42 45 52 9 16 5 18
-29 18 -21 0 -42 -3 -45 -7z"/>
<path d="M3180 8906 c0 -18 -7 -39 -15 -46 -11 -9 -12 -16 -4 -26 7 -9 7 -19
-1 -35 -11 -20 -10 -21 13 -16 21 6 24 4 20 -16 -4 -18 0 -24 14 -24 26 0 43
16 43 43 0 28 20 74 32 74 5 0 7 4 4 9 -3 5 0 14 8 20 10 8 16 8 26 -4 7 -8
22 -13 33 -11 12 2 29 -6 39 -18 10 -12 17 -16 18 -8 0 7 10 17 23 22 22 9 22
9 -3 10 -22 0 -23 2 -7 11 9 5 17 19 17 29 0 18 -7 20 -64 20 -42 0 -66 -4
-69 -12 -4 -10 -6 -10 -6 0 -1 8 -20 12 -61 12 l-60 0 0 -34z"/>
<path d="M5917 8918 c-4 -13 -9 -54 -12 -93 -3 -38 -8 -82 -10 -97 -4 -27 -3
-28 38 -28 23 0 48 4 55 9 13 8 52 170 52 214 0 14 -9 17 -59 17 -53 0 -59 -2
-64 -22z"/>
<path d="M4265 8614 c-44 -8 -99 -17 -122 -20 -27 -4 -43 -12 -43 -20 0 -8 -6
-14 -14 -14 -8 0 -21 -3 -29 -6 -10 -3 -18 3 -22 17 -4 13 -14 29 -21 37 -12
11 -14 8 -14 -21 0 -33 -3 -36 -45 -50 -25 -9 -45 -12 -45 -6 0 14 -22 11 -63
-10 -20 -10 -37 -14 -37 -9 0 6 -14 8 -35 5 -33 -5 -35 -4 -29 18 7 30 -25 49
-72 42 -22 -4 -37 -1 -45 9 -15 18 -53 18 -68 0 -13 -15 -43 -11 -78 12 -17
10 -30 12 -50 5 -16 -6 -50 -8 -78 -5 -76 8 -226 4 -296 -7 -34 -6 -65 -9 -68
-6 -10 5 -139 -23 -164 -37 -23 -12 -53 -18 -102 -19 -16 0 -39 -4 -50 -9 -65
-26 -114 -40 -127 -35 -9 4 -19 2 -23 -4 -3 -6 -14 -11 -23 -11 -23 0 -186
-53 -190 -62 -2 -5 -12 -8 -23 -8 -11 0 -22 -7 -25 -15 -4 -8 -15 -15 -25 -15
-10 0 -42 -11 -71 -25 -45 -21 -76 -31 -110 -34 -4 -1 -9 -9 -13 -19 -5 -19
-46 -44 -75 -47 -8 -1 -22 -2 -32 -3 -9 -1 -21 -14 -26 -29 -8 -23 -11 -25
-17 -11 -6 16 -8 16 -33 0 -15 -9 -31 -22 -35 -29 -4 -7 -15 -13 -23 -13 -8 0
-17 -7 -20 -15 -4 -8 -10 -12 -16 -9 -5 3 -17 -1 -26 -9 -9 -8 -36 -24 -59
-36 -24 -12 -43 -28 -43 -37 0 -8 -5 -12 -11 -9 -5 4 -27 -11 -47 -33 -20 -22
-47 -42 -58 -46 -12 -4 -41 -25 -65 -48 -140 -131 -183 -176 -195 -203 -8 -20
-19 -30 -35 -30 -15 0 -28 -10 -39 -30 -8 -16 -45 -60 -82 -97 -37 -37 -75
-81 -84 -98 -10 -16 -22 -30 -26 -30 -4 0 -8 -7 -8 -16 0 -8 -18 -33 -39 -55
-37 -36 -81 -115 -81 -145 0 -7 -10 -25 -23 -41 -13 -15 -36 -54 -52 -85 -15
-32 -32 -58 -37 -58 -4 0 -8 -10 -8 -23 0 -12 -12 -35 -26 -50 -14 -15 -27
-40 -29 -55 -1 -15 -7 -26 -11 -25 -5 1 -10 -13 -11 -30 -1 -17 -6 -33 -10
-36 -14 -10 -33 -60 -33 -85 0 -13 -6 -29 -14 -35 -8 -7 -18 -31 -22 -54 -4
-23 -8 -44 -9 -47 0 -3 -6 -15 -13 -26 -6 -12 -9 -23 -7 -26 3 -2 -4 -29 -15
-59 -11 -29 -20 -64 -20 -77 0 -12 -6 -33 -14 -45 -15 -25 -40 -143 -32 -155
3 -5 -2 -35 -11 -68 -10 -38 -13 -78 -9 -111 3 -29 3 -53 -2 -53 -4 0 -9 -34
-11 -76 -1 -41 -6 -85 -10 -97 -12 -32 -5 -323 8 -375 7 -23 10 -46 7 -51 -3
-5 3 -42 13 -82 10 -41 21 -101 25 -134 8 -87 50 -249 85 -330 10 -22 24 -62
31 -90 7 -27 31 -83 52 -122 21 -40 33 -73 28 -73 -6 0 -10 -4 -10 -9 0 -6 12
-9 27 -8 24 2 28 -2 36 -43 5 -25 14 -49 20 -55 7 -5 24 -35 40 -65 49 -98 83
-156 118 -206 19 -27 48 -74 64 -104 15 -30 32 -62 36 -70 5 -8 15 -28 22 -45
8 -16 26 -41 40 -55 15 -14 27 -30 27 -37 0 -14 54 -67 93 -91 15 -9 27 -20
27 -25 0 -13 60 -67 74 -67 6 0 29 -21 51 -47 70 -82 126 -134 160 -149 43
-18 128 -74 138 -92 14 -22 125 -90 159 -97 33 -8 112 -48 139 -71 8 -8 25
-14 37 -14 12 0 22 -4 22 -9 0 -5 12 -12 28 -16 31 -8 72 -42 72 -62 0 -17 17
-17 23 0 4 8 8 8 14 2 4 -5 28 -11 53 -13 27 -2 53 -10 65 -22 12 -11 33 -20
48 -20 14 0 28 -4 31 -9 3 -4 27 -11 52 -15 26 -3 71 -17 101 -31 29 -14 72
-30 96 -35 102 -22 164 -37 173 -42 9 -6 5 -93 -11 -284 l-7 -81 -36 8 c-20 4
-65 9 -100 10 -60 2 -67 0 -89 -26 -24 -27 -24 -31 -22 -184 2 -106 -1 -163
-9 -178 -8 -15 -9 -30 -3 -46 11 -28 49 -39 134 -37 77 1 121 -8 127 -26 8
-21 5 -318 -3 -331 -3 -4 -8 -48 -11 -98 -11 -162 -17 -229 -27 -310 -6 -44
-12 -96 -14 -117 -12 -133 -25 -155 -137 -255 -35 -31 -65 -59 -68 -63 -3 -3
-42 -34 -87 -69 -45 -34 -80 -67 -78 -74 12 -32 -99 -60 -330 -83 -69 -7 -167
13 -254 53 -73 33 -196 157 -211 212 -19 73 -81 54 -140 -44 -27 -44 -46 -68
-74 -96 -23 -22 -120 -36 -140 -20 -7 6 -27 8 -45 5 -36 -8 -38 -22 -19 -117
l12 -59 -36 -32 c-20 -17 -51 -40 -69 -51 -37 -23 -39 -31 -19 -123 9 -43 8
-58 -4 -82 -8 -16 -12 -39 -9 -50 5 -18 10 -20 37 -14 17 4 68 7 113 6 45 -1
85 3 88 8 3 5 11 7 18 5 7 -2 59 -6 116 -10 58 -3 108 -8 112 -11 5 -2 16 1
27 7 13 8 41 9 103 2 53 -6 97 -6 119 0 19 5 52 6 75 2 22 -3 47 -6 55 -6 38
2 67 8 88 20 12 6 28 9 34 5 6 -4 72 -8 147 -10 75 -1 159 -5 186 -8 56 -7
150 7 172 26 12 10 10 14 -11 25 -31 16 -32 24 -7 40 18 11 21 7 40 -52 27
-81 27 -80 -9 -95 -16 -7 -34 -18 -40 -25 -18 -22 36 -45 75 -33 17 5 41 12
55 15 47 11 291 14 343 4 39 -7 60 -6 85 5 34 14 211 22 230 10 6 -3 22 -2 37
4 41 16 294 23 311 9 10 -8 18 -8 27 -1 6 5 28 13 47 16 47 8 284 6 470 -5 14
-1 66 1 115 5 165 12 482 8 505 -6 16 -11 26 -10 56 7 26 14 60 20 132 22 160
5 300 12 442 22 187 14 190 14 184 -4 -8 -19 11 -19 64 -1 26 9 78 14 148 13
60 0 130 3 156 7 30 4 86 1 155 -10 148 -22 304 -22 382 2 58 17 79 42 32 37
-25 -3 -25 -8 -6 64 8 31 15 74 15 95 0 47 28 118 46 118 18 0 18 16 1 23 -8
3 -44 8 -82 12 -52 6 -69 12 -72 25 -6 21 -52 22 -68 3 -8 -10 -17 -9 -40 7
-24 16 -30 27 -30 57 0 36 -2 38 -40 46 -22 4 -60 9 -83 11 -24 2 -47 8 -50
13 -4 6 -22 14 -39 18 -67 14 -141 143 -130 226 4 31 1 41 -13 49 -21 11 -30
4 -30 -25 0 -26 -64 -93 -97 -101 -13 -4 -23 -9 -23 -14 0 -11 -82 -45 -101
-42 -11 2 -19 -6 -23 -23 -5 -21 -12 -25 -46 -25 -21 0 -41 -4 -44 -8 -5 -9
-153 -6 -196 4 -34 8 -9 21 50 27 53 5 100 22 100 37 0 5 -5 10 -12 10 -6 0
-20 8 -31 17 -18 17 -21 16 -58 -5 -21 -12 -39 -18 -39 -12 0 5 -9 10 -20 10
-11 0 -20 -5 -20 -11 0 -12 -20 -11 -142 7 -41 6 -48 4 -48 -10 0 -9 -8 -16
-20 -16 -11 0 -20 5 -20 10 0 6 -13 10 -29 10 -22 0 -37 9 -57 35 -14 19 -34
35 -44 35 -17 0 -80 62 -80 78 -1 23 -18 34 -39 23 -18 -10 -21 -9 -21 7 0 11
7 25 16 33 11 9 14 23 9 53 -4 23 -8 69 -10 104 -2 42 -8 69 -20 82 -12 14
-15 28 -11 47 12 51 11 148 -1 161 -14 14 -15 161 -2 178 5 5 8 21 7 35 -3 46
4 154 9 134 16 -72 25 -95 33 -90 6 3 7 -1 4 -9 -4 -11 0 -16 15 -16 12 0 21
5 21 10 0 6 -4 10 -10 10 -5 0 -10 6 -10 14 0 8 -8 17 -17 19 -17 4 -17 5 0 6
9 0 17 4 18 9 0 4 3 19 5 35 3 20 1 27 -11 27 -8 0 -15 9 -15 20 0 11 -7 20
-16 20 -8 0 -12 -4 -9 -10 3 -5 2 -10 -4 -10 -11 0 -10 58 2 77 5 7 31 12 69
11 57 -1 64 1 90 31 31 35 39 91 13 91 -24 0 -27 41 -11 141 14 89 20 159 17
205 -1 22 -9 23 -153 8 l-56 -6 3 99 c1 54 3 146 4 205 l1 106 63 7 c34 4 70
12 80 17 10 5 31 12 45 14 15 2 43 7 62 10 36 6 143 53 148 67 2 4 14 7 27 7
25 0 40 14 48 45 4 17 5 17 6 -4 1 -15 6 -21 15 -18 8 3 33 11 56 18 22 7 46
21 51 31 5 10 19 18 30 18 11 0 22 7 25 15 5 11 19 15 51 13 36 -1 49 3 62 20
9 12 35 25 59 31 24 5 51 16 60 24 9 8 27 18 39 21 11 4 24 13 27 21 3 8 30
26 59 39 30 13 58 29 61 35 4 6 25 20 47 31 21 11 39 27 39 35 0 8 12 18 28
21 27 7 71 49 72 70 0 12 43 34 66 34 19 0 62 28 99 65 17 16 40 37 51 46 12
9 27 25 35 35 8 11 32 33 54 49 22 17 44 37 49 45 5 8 31 37 57 64 26 26 59
73 74 102 18 35 34 54 45 54 11 0 24 13 32 30 7 16 19 30 25 30 7 0 13 4 13 8
0 5 9 19 20 32 11 13 20 30 20 38 0 8 14 31 30 52 17 21 30 45 30 53 0 9 6 22
13 29 19 20 62 89 82 131 10 21 26 42 36 48 13 6 19 21 19 42 0 18 12 52 26
77 14 25 33 65 41 90 8 25 21 59 28 75 34 74 48 114 66 175 36 127 54 185 63
198 4 8 9 35 11 60 1 26 9 94 18 152 23 153 29 241 32 474 2 129 -1 220 -7
235 -6 14 -12 40 -13 56 -2 17 -8 59 -14 95 -5 36 -13 82 -16 102 -11 74 -34
160 -50 184 -9 13 -13 29 -10 34 3 6 3 15 -1 22 -5 7 -7 28 -5 48 2 39 -20
136 -44 182 -8 17 -15 39 -15 49 0 11 -14 51 -31 91 -17 40 -38 89 -46 109 -8
19 -31 53 -50 75 -20 21 -35 40 -34 42 6 6 -24 68 -42 87 -10 11 -26 37 -34
58 -8 20 -19 37 -23 37 -5 0 -12 10 -16 22 -9 29 -67 112 -122 173 -25 28 -49
60 -55 73 -6 12 -13 22 -17 22 -4 0 -19 18 -33 39 -15 22 -34 42 -44 45 -10 3
-24 19 -31 34 -7 16 -23 34 -36 41 -13 7 -30 24 -37 37 -7 13 -16 24 -21 24
-4 0 -43 34 -85 75 -43 41 -80 75 -84 75 -3 0 -25 18 -49 40 -24 22 -47 40
-51 40 -5 0 -28 19 -53 43 -24 23 -70 55 -102 72 -33 16 -86 46 -119 67 -33
20 -78 48 -100 62 -22 13 -52 27 -67 31 -15 4 -32 13 -39 21 -6 8 -16 14 -22
14 -6 0 -18 6 -26 14 -16 13 -88 36 -126 40 -11 1 -29 7 -40 13 -11 6 -58 23
-105 39 -47 15 -96 33 -109 40 -14 7 -28 11 -32 8 -5 -3 -21 2 -36 9 -15 8
-59 20 -98 26 -38 7 -84 17 -100 22 -17 5 -53 11 -80 14 -28 4 -86 13 -130 21
-44 8 -137 16 -207 18 -71 3 -131 7 -135 9 -5 2 -44 -2 -88 -9z m-950 -95 c7
-10 68 -13 77 -3 9 8 119 14 146 7 12 -3 22 -12 22 -20 0 -12 3 -13 14 -4 14
12 106 27 106 18 0 -11 -54 -34 -68 -30 -7 3 -28 -2 -46 -11 -19 -9 -39 -16
-45 -16 -15 0 -99 -28 -146 -49 -22 -10 -52 -21 -67 -25 -24 -5 -27 -10 -22
-34 5 -26 4 -28 -35 -29 -48 -2 -55 15 -11 24 17 3 30 12 30 19 0 12 -3 12
-22 1 -14 -9 -45 -13 -78 -12 -30 1 -61 -3 -68 -8 -15 -12 -82 -18 -82 -8 0
12 227 69 312 78 48 5 58 9 58 24 0 11 -3 18 -7 18 -21 -3 -31 3 -36 21 -7 26
-33 26 -40 0 -5 -19 -11 -20 -57 -16 -38 3 -59 0 -83 -14 -18 -10 -79 -34
-137 -53 -58 -20 -145 -56 -194 -81 l-90 -46 -28 33 c-15 17 -27 36 -28 40 0
5 -6 14 -12 22 -48 49 -48 51 -4 63 31 9 240 52 253 52 1 0 3 -12 5 -27 4 -38
36 -44 36 -8 0 49 22 60 116 56 87 -3 148 14 160 44 4 12 10 11 35 -1 17 -8
33 -19 36 -25z m965 -59 c0 -4 10 -8 23 -9 12 -1 51 -3 87 -6 36 -3 107 -8
158 -11 51 -4 95 -11 98 -15 3 -5 22 -9 42 -9 20 0 49 -6 63 -14 14 -7 37 -16
50 -19 14 -4 42 -22 62 -42 20 -19 40 -35 46 -35 12 0 38 -81 46 -148 7 -53 7
-54 -17 -51 -32 5 -108 -30 -108 -49 0 -9 6 -12 18 -7 9 4 31 9 47 12 27 4 32
0 50 -33 22 -42 27 -66 18 -108 -4 -21 -15 -33 -49 -47 -41 -19 -45 -19 -76
-3 -48 24 -68 44 -68 69 0 27 23 75 42 86 10 7 10 11 0 21 -9 9 -18 5 -42 -19
-34 -34 -50 -78 -50 -134 0 -82 123 -132 189 -76 9 8 24 17 35 21 11 4 16 12
12 21 -3 8 2 19 13 24 10 6 28 30 41 54 23 44 23 46 7 88 -11 28 -14 46 -7 53
6 6 12 3 16 -7 13 -34 24 -16 24 39 0 53 2 58 44 98 70 68 102 83 171 80 79
-4 125 -14 153 -32 12 -8 22 -10 22 -6 0 5 5 1 11 -8 5 -10 16 -18 24 -18 15
0 111 -47 135 -66 8 -6 26 -15 40 -19 14 -4 31 -12 38 -18 7 -6 25 -12 39 -13
14 -2 29 -7 32 -11 3 -4 13 -9 21 -11 8 -2 17 -8 19 -13 6 -18 48 -59 54 -53
14 15 87 -31 87 -55 0 -6 6 -11 13 -11 7 0 18 -9 25 -20 7 -11 17 -20 23 -20
6 0 19 -10 29 -22 14 -18 15 -26 6 -42 -14 -25 -33 -46 -41 -46 -4 0 -25 -15
-48 -34 -39 -32 -96 -65 -227 -132 -30 -15 -64 -31 -75 -36 -11 -4 -47 -19
-80 -34 -94 -41 -166 -64 -178 -57 -5 3 -16 -2 -23 -11 -7 -10 -36 -24 -66
-31 -29 -7 -45 -13 -34 -14 15 -1 16 -4 6 -16 -7 -8 -18 -15 -25 -15 -7 0 -38
-11 -69 -25 -31 -14 -64 -25 -74 -25 -9 0 -34 -9 -54 -19 -20 -11 -44 -19 -54
-19 -27 2 -174 -43 -174 -53 0 -5 -10 -9 -22 -9 -12 0 -44 -13 -73 -29 -30
-17 -62 -28 -78 -26 -15 2 -42 -3 -60 -12 -92 -43 -138 -69 -135 -78 2 -5 5
-9 8 -9 59 17 68 15 75 -14 4 -19 16 -34 38 -44 18 -9 44 -28 60 -44 100 -105
133 -137 188 -180 34 -27 77 -62 95 -79 56 -51 64 -56 76 -49 6 4 8 3 5 -3 -4
-6 2 -18 13 -28 11 -10 20 -24 20 -32 0 -7 4 -13 8 -13 4 0 23 -16 42 -35 19
-19 43 -35 53 -35 9 0 17 -4 17 -10 0 -5 7 -10 15 -10 8 0 15 -5 15 -10 0 -15
62 -69 80 -70 8 0 24 -11 35 -25 11 -13 32 -39 48 -57 15 -17 27 -35 27 -38 0
-4 11 -12 25 -18 20 -9 25 -9 25 3 0 8 20 -5 47 -30 26 -25 53 -45 60 -45 7 0
17 -10 24 -22 6 -13 38 -48 71 -79 l59 -56 -13 -42 c-7 -22 -18 -41 -25 -41
-6 0 -17 -2 -25 -5 -8 -3 -18 6 -26 22 -7 16 -50 66 -95 113 -97 99 -133 131
-141 123 -3 -4 -6 3 -6 15 0 14 -13 30 -37 46 -38 24 -131 104 -235 202 -32
30 -62 54 -67 54 -14 0 -100 73 -153 130 -49 51 -180 171 -206 187 -15 10 -53
43 -85 73 -58 56 -128 99 -159 100 -22 0 -24 -18 -3 -26 8 -3 17 -13 20 -22 2
-10 17 -23 32 -29 32 -15 77 -55 112 -101 13 -18 32 -32 42 -32 11 0 19 -6 19
-13 0 -7 16 -21 36 -32 44 -24 61 -39 103 -92 18 -24 38 -43 44 -43 7 0 32
-19 56 -42 40 -37 44 -46 44 -89 1 -39 -5 -53 -32 -85 -30 -34 -33 -41 -27
-82 6 -47 29 -92 46 -92 6 0 10 8 10 18 0 9 19 36 41 60 35 35 48 42 83 43
117 3 126 -1 219 -93 34 -32 66 -57 74 -54 7 3 13 -1 13 -9 0 -8 6 -15 14 -15
8 0 17 -9 21 -20 3 -11 28 -41 55 -66 27 -26 52 -55 55 -65 4 -11 17 -22 30
-25 23 -6 55 -43 55 -63 0 -13 -28 -21 -118 -32 -42 -5 -120 -16 -172 -24
-227 -36 -277 -40 -294 -23 -34 35 -40 88 -9 88 8 0 13 7 11 17 -3 18 -75 47
-83 33 -8 -14 24 -116 40 -130 28 -24 18 -41 -22 -38 l-37 3 3 55 c2 56 -6 85
-56 187 -17 36 -42 65 -86 99 -165 129 -236 238 -271 414 -9 44 -15 56 -32 58
-12 2 -28 -4 -37 -12 -9 -9 -18 -16 -21 -16 -6 0 -15 84 -21 210 -3 58 -8 120
-12 139 -4 26 -2 37 12 47 17 12 17 14 2 20 -10 3 -17 11 -17 18 0 6 -7 23
-14 38 -8 16 -14 36 -14 45 0 10 -2 30 -6 44 -9 33 -2 38 65 43 30 2 62 7 72
11 9 4 17 3 17 -3 0 -5 10 -8 23 -7 12 1 28 3 35 4 7 0 17 12 21 24 10 25 56
39 176 52 78 8 108 15 123 28 11 8 16 7 23 -6 13 -23 35 -21 42 3 3 11 13 23
24 27 10 3 39 26 65 50 26 23 56 43 67 43 11 0 31 5 45 11 19 9 31 8 54 -4 30
-14 42 -13 42 4 0 5 -6 6 -13 3 -7 -2 -13 3 -14 14 -2 23 34 42 80 42 42 0
115 26 152 54 17 13 64 35 105 51 41 15 103 40 136 56 34 16 67 29 74 29 6 0
36 11 66 25 30 14 78 36 108 50 30 14 59 25 64 25 11 0 25 30 18 37 -2 2 -12
0 -23 -5 -51 -27 -180 -76 -253 -98 -13 -3 -30 -12 -36 -19 -11 -10 -131 -51
-339 -114 -91 -28 -144 -27 -181 1 -40 31 -63 59 -70 86 -3 12 -10 22 -15 22
-5 0 -9 8 -9 19 0 20 -36 71 -50 71 -6 0 -7 -40 -4 -92 11 -180 -10 -234 -110
-285 -27 -14 -56 -32 -65 -40 -11 -11 -27 -13 -63 -9 -40 6 -53 3 -86 -19 -22
-14 -59 -27 -87 -31 -76 -8 -124 -23 -194 -60 -35 -19 -70 -34 -76 -34 -7 0
-15 17 -17 38 -5 35 19 97 55 140 6 7 11 26 12 42 1 23 -3 30 -16 30 -9 0 -20
-6 -22 -12 -10 -25 -7 107 3 142 14 47 90 132 121 135 13 1 42 8 64 13 22 6
57 14 77 17 34 5 68 27 68 43 0 4 -4 13 -9 20 -7 12 -14 11 -38 -2 -56 -28
-283 0 -283 36 0 5 -18 46 -40 90 -32 65 -40 93 -40 136 0 47 2 53 18 48 16
-6 16 -5 0 7 -12 10 -20 39 -28 103 -15 135 -14 153 10 147 11 -3 20 -9 20
-13z m587 9 c6 -6 9 -18 6 -25 -3 -8 -1 -14 3 -15 44 -4 56 -7 66 -17 8 -8 16
-7 31 1 15 9 21 9 24 0 3 -7 17 -13 33 -13 16 0 30 -4 32 -9 5 -15 60 -18 65
-3 3 6 -3 12 -13 12 -9 0 -15 2 -12 5 11 11 58 -8 58 -23 0 -8 7 -23 16 -33
20 -23 11 -38 -19 -32 -28 5 -78 -18 -116 -53 -33 -31 -37 -30 -56 9 -22 46
-53 80 -123 132 -68 49 -79 75 -34 75 15 0 33 -5 39 -11z m-854 -51 c3 -24 2
-63 -2 -88 -5 -36 -10 -44 -24 -42 -23 4 -97 -29 -97 -42 1 -15 30 -52 30 -38
0 7 7 12 15 12 20 0 19 -36 -1 -44 -21 -8 -8 -26 20 -26 28 0 40 -33 24 -63
-6 -12 -8 -46 -4 -86 6 -61 5 -69 -16 -92 -42 -46 -73 -59 -141 -59 -68 0 -92
-13 -85 -47 3 -16 16 -18 103 -20 55 -1 106 -2 113 -3 6 0 12 -7 12 -16 0 -8
11 -32 25 -52 14 -20 25 -45 25 -55 0 -10 6 -28 14 -40 9 -14 16 -55 18 -109
1 -49 6 -88 9 -88 6 0 13 -23 25 -82 2 -11 -2 -18 -11 -18 -29 0 -120 23 -140
35 -18 12 -73 28 -100 30 -5 1 -52 7 -103 15 -85 13 -95 17 -132 52 -22 21
-40 43 -40 48 0 12 -43 9 -52 -5 -5 -7 -13 -7 -25 1 -27 17 -27 39 1 52 30 13
44 57 27 83 -16 26 -14 29 14 29 40 0 32 30 -10 40 -5 1 -28 9 -49 18 -36 14
-40 14 -51 -2 -7 -9 -15 -39 -19 -66 l-7 -50 -52 -15 c-95 -27 -151 -21 -168
18 -7 17 -8 14 -3 -12 6 -32 5 -33 -17 -28 -13 4 -49 11 -79 17 -67 14 -198
52 -305 90 -87 31 -236 61 -264 53 -10 -3 -24 -16 -32 -29 -11 -21 -10 -26 7
-39 10 -7 49 -17 87 -21 37 -4 70 -11 73 -15 3 -5 17 -9 32 -9 15 0 47 -7 71
-15 24 -9 51 -13 61 -10 11 3 20 0 24 -10 4 -10 13 -14 28 -10 30 7 108 -8
183 -35 37 -14 82 -22 118 -21 32 0 104 -11 160 -25 56 -14 113 -28 127 -31
48 -12 91 -46 111 -89 22 -45 30 -51 89 -58 40 -5 92 -30 110 -51 7 -8 18 -15
26 -15 7 0 16 -5 20 -11 8 -14 -31 -6 -156 33 -52 16 -110 31 -128 33 -18 2
-61 13 -95 24 -105 34 -200 59 -246 66 -25 3 -61 15 -80 25 -20 11 -79 29
-131 40 -52 12 -124 29 -160 40 -90 26 -215 50 -259 50 -32 0 -88 15 -116 31
-18 10 -95 11 -95 0 0 -5 5 -13 10 -16 15 -9 -9 -48 -25 -41 -8 3 -17 1 -21
-5 -10 -16 2 -22 23 -11 16 9 21 6 30 -16 6 -15 14 -45 18 -67 4 -22 13 -53
20 -70 7 -16 21 -64 30 -105 10 -41 21 -79 26 -84 5 -6 9 -21 9 -34 0 -13 12
-49 28 -80 21 -44 27 -71 26 -117 0 -33 2 -62 5 -65 3 -3 14 -30 25 -60 19
-57 50 -133 66 -161 21 -38 49 -190 44 -233 -7 -47 13 -127 26 -106 5 8 9 7
13 -4 4 -9 2 -16 -3 -16 -17 0 -11 -64 9 -106 11 -22 23 -54 26 -70 4 -16 11
-38 15 -49 15 -32 39 -138 35 -146 -3 -4 6 -56 19 -115 14 -60 21 -113 16
-118 -5 -5 -48 -15 -97 -22 -108 -16 -106 -16 -98 -4 8 13 -1 13 -28 -2 -52
-28 -259 -58 -271 -39 -4 6 -20 11 -35 11 -47 0 -134 31 -172 61 -42 33 -52
57 -68 158 -6 40 -17 82 -25 92 -13 19 -14 19 -28 -3 -13 -20 -13 -32 2 -102
24 -112 6 -178 -67 -248 -34 -32 -54 -37 -192 -39 -149 -3 -147 -4 -149 84 -1
41 -5 85 -10 98 -10 28 -6 157 7 244 5 33 14 98 20 144 10 76 21 118 21 79 0
-9 7 -21 15 -28 13 -11 15 -8 15 15 0 41 58 92 115 101 46 6 59 3 128 -33 36
-19 59 -3 33 22 -9 9 -16 20 -16 24 0 3 -13 14 -28 23 -16 9 -41 40 -56 68
-37 69 -46 200 -21 312 19 86 13 115 -16 77 -13 -17 -19 -20 -19 -8 0 8 7 24
15 35 8 10 15 26 15 34 0 8 15 28 33 45 33 30 97 108 97 118 0 3 19 33 43 68
23 34 47 71 54 82 6 11 30 41 52 66 23 25 48 54 56 64 22 25 40 21 43 -10 2
-29 20 -116 30 -143 3 -8 7 -23 9 -33 2 -11 10 -29 18 -40 9 -12 20 -39 26
-59 5 -21 14 -38 19 -38 6 0 10 -6 10 -13 0 -6 14 -55 30 -107 21 -66 31 -119
33 -172 1 -43 5 -78 8 -78 10 0 19 28 20 58 0 26 1 26 11 5 18 -37 1 -145 -28
-176 -13 -14 -24 -30 -24 -34 0 -14 -136 -92 -162 -93 -12 0 -16 -8 -16 -29 1
-15 -2 -33 -5 -38 -18 -29 46 -40 67 -12 7 9 34 15 74 18 49 2 71 -2 104 -19
33 -17 43 -19 50 -8 7 9 8 6 5 -9 -3 -15 1 -24 12 -28 27 -8 53 -87 66 -202 2
-18 8 -47 13 -65 6 -18 13 -71 16 -118 6 -96 30 -161 51 -138 9 9 10 35 4 98
-12 125 -20 183 -30 202 -11 21 -12 85 0 92 4 3 11 26 15 52 6 50 -7 89 -29
80 -9 -3 -17 14 -26 62 -7 37 -12 74 -12 82 0 8 -6 21 -14 28 -7 7 -13 20 -13
28 0 8 -4 22 -9 32 -12 23 -24 73 -76 307 -25 110 -54 229 -65 265 -23 74 -80
321 -80 341 1 10 4 8 11 -3 15 -27 39 -22 39 7 0 23 -17 32 -53 26 -4 -1 -19
25 -32 56 l-26 57 36 36 c19 20 32 39 29 43 -4 4 -3 7 3 7 5 0 64 52 129 115
65 63 127 118 137 121 9 3 17 9 17 14 0 5 8 14 19 19 17 10 18 7 14 -33 -4
-29 -1 -46 8 -51 9 -6 11 -4 6 8 -3 9 5 37 20 63 23 42 28 45 55 40 21 -4 28
-2 26 8 -3 15 30 49 77 80 15 10 67 24 114 32 l86 12 53 -28 c32 -18 54 -24
58 -18 4 6 -1 15 -10 20 -9 5 -16 16 -16 23 0 18 41 20 58 3 9 -9 15 -9 23 -1
8 8 5 16 -11 31 -19 18 -20 21 -5 36 9 9 23 16 31 16 22 0 104 -24 104 -30 0
-3 8 -6 19 -7 40 -3 112 -47 139 -84 33 -48 62 -52 62 -9 0 36 -28 110 -42
110 -6 0 -8 23 -6 55 1 30 0 55 -4 55 -5 0 -8 -19 -8 -42 0 -26 -4 -38 -9 -32
-14 14 -16 105 -4 134 14 33 56 80 71 80 7 0 12 6 12 14 0 21 192 79 305 92
22 3 63 9 90 13 28 5 66 9 86 10 35 1 36 0 42 -41z m-1356 -90 l51 -78 -36
-28 c-52 -41 -72 -46 -91 -25 -31 35 -44 69 -33 90 14 25 9 58 -9 58 -8 0 -18
-10 -24 -22 -11 -26 -25 -30 -25 -8 0 8 -4 15 -10 15 -5 0 -10 -24 -10 -53 0
-38 -5 -58 -17 -70 -67 -64 -96 -88 -123 -102 -17 -9 -29 -22 -27 -28 7 -20
57 -9 82 18 18 19 34 25 65 25 l40 0 -37 -36 c-37 -36 -32 -37 17 -4 37 25 68
30 81 14 14 -17 -4 -44 -31 -44 -23 0 -67 -36 -57 -46 4 -5 11 -4 15 2 4 5 30
20 59 32 81 35 106 27 58 -18 -15 -14 -32 -21 -44 -17 -12 3 -18 0 -15 -7 4
-11 -48 -72 -89 -104 -27 -21 -20 6 8 32 13 13 22 26 18 29 -11 12 -23 7 -23
-9 0 -15 -67 -50 -78 -40 -3 3 -6 14 -7 24 -3 40 -46 29 -106 -29 -30 -28 -70
-59 -89 -69 -47 -24 -90 -70 -67 -70 16 0 50 27 58 46 7 16 114 65 117 54 2
-5 15 -10 29 -10 l26 0 -24 -20 c-13 -11 -29 -23 -34 -28 -6 -5 -18 -8 -28 -6
-12 1 -17 -5 -17 -21 0 -15 -7 -26 -19 -30 -11 -3 -23 -15 -26 -25 -3 -10 -15
-20 -27 -22 -17 -2 -33 -19 -44 -46 -2 -4 -74 39 -74 45 0 2 5 14 11 25 10 18
9 20 -5 15 -19 -7 -33 15 -36 58 -5 69 -3 74 48 89 27 8 46 19 44 26 -2 7 7
19 18 27 15 11 18 19 11 26 -7 7 -15 6 -27 -4 -9 -7 -24 -18 -34 -24 -9 -5
-28 -17 -41 -27 -13 -9 -48 -19 -76 -23 -49 -6 -53 -5 -53 14 0 27 -12 27 -28
0 -13 -20 -15 -19 -61 28 -26 26 -50 56 -54 66 -7 18 17 77 31 77 43 3 90 15
105 28 14 12 17 13 18 1 0 -8 4 -5 9 7 4 11 33 33 64 47 62 29 59 30 123 -30
31 -29 73 -31 73 -3 0 11 4 20 9 20 4 0 6 11 3 25 -8 44 24 109 63 128 23 11
33 21 29 31 -5 13 -1 13 25 3 27 -10 33 -9 46 8 9 13 14 15 15 6 0 -19 30 6
30 25 0 10 7 13 25 8 17 -4 32 -1 43 9 16 14 71 25 117 23 13 -1 37 -27 72
-78z m1472 -14 c20 -26 43 -84 40 -100 -3 -13 12 -64 26 -94 16 -32 36 -228
41 -400 2 -74 6 -178 9 -230 16 -245 20 -390 15 -450 -8 -90 -24 -46 -40 110
-5 47 -16 129 -24 182 -9 54 -16 120 -16 148 0 27 -12 120 -26 207 -27 160
-35 228 -54 453 -6 69 -15 136 -19 150 -5 16 -4 30 3 37 16 18 22 16 45 -13z
m-787 -72 c-4 -71 -5 -74 -25 -67 -12 4 -30 7 -39 8 -10 1 -18 4 -18 8 0 3
-22 9 -49 13 -83 11 -181 -32 -181 -79 0 -33 -34 -57 -93 -66 -77 -12 -108
-19 -128 -29 -10 -6 -23 -10 -30 -10 -23 0 11 26 86 65 39 20 77 43 86 51 12
11 18 11 27 2 9 -9 12 -8 12 4 0 15 62 52 100 60 8 2 21 9 29 16 8 8 24 12 37
9 13 -2 21 1 18 7 -4 11 37 32 110 57 21 8 41 20 44 27 11 29 17 -7 14 -76z
m-1602 -249 c0 -24 28 -69 74 -118 20 -22 51 -56 69 -76 18 -20 44 -50 60 -66
15 -17 27 -35 27 -41 0 -14 -69 -82 -84 -82 -7 0 -33 24 -57 53 -24 28 -49 56
-56 60 -7 5 -19 15 -26 23 -29 36 -71 74 -81 74 -6 0 -17 9 -24 20 -12 19 -42
28 -42 12 0 -16 37 -61 124 -148 50 -51 97 -99 104 -108 14 -18 2 -22 -15 -5
-13 13 -163 2 -163 -12 0 -5 -7 -9 -15 -9 -8 0 -15 8 -15 18 0 9 -7 30 -15 46
-8 15 -15 50 -15 76 0 43 -4 51 -30 70 -29 21 -41 62 -21 74 4 3 11 19 14 36
4 18 13 30 22 30 8 0 24 9 35 20 11 11 35 26 55 34 19 8 35 20 35 25 0 6 9 11
20 11 12 0 20 -7 20 -17z m4440 -256 c0 -8 -7 -17 -15 -21 -8 -3 -15 -14 -15
-24 0 -11 -6 -25 -14 -31 -12 -10 -21 -45 -30 -121 -3 -20 -30 -129 -47 -185
-3 -10 6 -81 17 -137 4 -21 2 -28 -10 -28 -9 0 -16 -5 -16 -11 0 -5 5 -7 11
-3 15 9 3 -107 -16 -152 -7 -17 -16 -55 -20 -85 -4 -30 -15 -87 -26 -126 -10
-40 -19 -86 -19 -103 0 -17 -4 -29 -8 -26 -15 9 -42 -107 -44 -189 -1 -44 -7
-89 -13 -100 -7 -11 -15 -38 -18 -60 -4 -22 -18 -62 -32 -89 -18 -36 -24 -59
-19 -82 4 -23 -1 -45 -20 -80 -14 -27 -26 -54 -26 -60 0 -11 -86 -35 -95 -26
-7 7 -6 47 1 55 4 3 15 2 25 -4 23 -12 24 -6 3 26 -14 22 -14 29 -1 72 9 26
19 64 22 83 4 19 11 40 15 45 5 6 13 36 19 68 6 32 24 103 41 158 17 55 29
106 27 112 -2 7 0 20 5 29 5 10 12 37 17 60 5 24 16 79 25 123 10 44 19 93 21
110 13 89 39 217 55 270 35 121 39 142 46 237 3 60 11 101 19 108 8 6 11 28 9
57 -2 29 3 61 13 81 11 23 14 48 10 83 -10 81 -1 86 54 30 27 -27 49 -56 49
-64z m-4675 64 c3 -11 3 -31 -1 -45 -7 -30 2 -76 16 -76 5 0 10 11 12 25 5 39
23 25 20 -15 -2 -19 -5 -56 -7 -81 -1 -25 -6 -56 -10 -68 -10 -31 15 -24 33
10 13 24 13 24 7 -6 -8 -35 -31 -75 -45 -75 -6 0 -10 -6 -10 -14 0 -8 -7 -16
-15 -20 -17 -6 -20 -26 -5 -26 6 0 33 22 61 50 63 63 69 66 157 75 62 6 72 5
72 -9 0 -9 7 -16 15 -16 44 0 12 -69 -65 -138 -22 -21 -40 -46 -40 -57 0 -19
-72 -109 -87 -110 -57 -4 -70 -48 -15 -53 20 -2 32 -9 32 -18 0 -8 -4 -14 -8
-14 -4 0 -14 -17 -21 -37 -8 -21 -31 -64 -52 -95 -22 -31 -39 -62 -39 -68 0
-6 -20 -10 -51 -9 -47 2 -53 5 -85 47 -25 33 -32 51 -28 66 4 12 11 36 15 54
6 30 5 33 -12 29 -10 -3 -19 -1 -19 4 0 5 -6 9 -13 9 -14 0 -25 -19 -46 -75
-6 -16 -27 -41 -46 -54 -19 -13 -37 -32 -41 -43 -4 -15 -9 -17 -19 -8 -8 7
-19 9 -24 5 -10 -6 -31 -1 -133 27 -24 6 -67 10 -95 9 -32 -1 -53 3 -53 9 0
16 38 88 50 95 5 3 10 14 10 25 0 10 7 20 15 24 8 3 15 16 15 29 0 14 15 37
36 58 20 18 43 48 50 66 17 39 58 53 157 53 64 0 71 -2 97 -30 33 -35 40 -37
40 -9 0 11 7 27 15 35 17 18 20 34 5 34 -6 0 -24 14 -40 30 -36 36 -38 65 -10
139 10 29 17 65 14 80 -4 21 1 31 25 48 16 13 31 33 33 45 2 14 9 23 20 22 9
-1 34 18 55 42 43 49 49 52 58 25z m4495 -88 c0 -10 -7 -49 -15 -88 -16 -74
-21 -112 -30 -240 -3 -44 -8 -89 -12 -100 -3 -11 -7 -36 -9 -55 -4 -54 -16
-94 -30 -103 -8 -4 -14 -14 -14 -21 0 -7 -12 -26 -27 -42 -63 -68 -244 -93
-343 -47 -64 30 -79 33 -85 22 -4 -5 -1 -8 5 -7 7 2 17 -6 23 -17 12 -21 33
-38 41 -33 2 2 12 -4 22 -12 11 -9 37 -22 59 -29 22 -8 52 -22 67 -32 27 -20
88 -110 88 -132 0 -6 7 -25 15 -41 13 -25 14 -50 5 -180 -6 -83 -16 -166 -21
-183 -6 -18 -8 -37 -5 -42 8 -12 -28 -114 -36 -105 -4 4 -4 -7 1 -23 6 -19 4
-35 -4 -46 -10 -14 -16 -12 -50 23 -22 22 -44 40 -50 40 -5 0 -23 19 -40 41
-16 23 -48 53 -69 66 -22 14 -65 51 -96 82 -43 43 -61 71 -79 121 -31 87 -38
173 -17 205 9 13 16 34 16 45 0 28 60 86 97 94 30 7 83 49 83 66 0 6 -10 6
-26 0 -35 -14 -36 -13 -22 10 15 23 4 37 -16 21 -23 -20 -67 -9 -90 22 -17 23
-18 30 -7 36 7 5 11 14 7 19 -9 15 15 52 33 52 11 0 11 -4 -2 -18 -21 -23 -22
-39 -3 -23 8 7 30 11 48 9 24 -2 33 1 33 12 0 8 -10 16 -22 18 -17 3 -23 10
-23 30 0 15 4 22 8 16 4 -6 18 -14 32 -17 18 -4 25 -13 26 -32 2 -33 12 -44
24 -25 16 25 11 52 -16 87 -26 34 -51 41 -84 23 -15 -8 -22 -4 -40 27 -43 73
-5 189 80 243 26 17 51 30 57 30 6 0 16 6 22 14 6 7 25 16 41 19 47 10 248
104 309 145 19 13 44 28 55 33 12 6 32 16 46 24 33 19 40 19 40 -2z m286 -86
c9 -32 55 -104 88 -141 15 -17 46 -69 68 -116 22 -47 53 -101 69 -121 16 -20
29 -44 29 -52 0 -8 7 -20 15 -27 8 -7 15 -23 15 -35 0 -13 6 -25 14 -28 7 -3
16 -22 20 -41 4 -20 11 -36 16 -36 6 0 10 -9 10 -20 0 -11 7 -20 15 -20 17 0
21 48 6 78 -35 71 -46 97 -47 106 -1 28 -20 65 -54 106 -20 25 -47 62 -59 83
-12 20 -26 37 -31 37 -4 0 -13 12 -19 28 -5 15 -20 47 -31 72 l-21 45 29 -30
c16 -16 33 -37 38 -47 5 -9 25 -34 44 -55 20 -21 62 -78 94 -128 32 -49 67
-102 77 -117 11 -15 19 -32 19 -38 0 -5 4 -10 9 -10 4 0 16 -20 25 -45 10 -25
21 -45 25 -45 4 0 13 -16 20 -35 7 -19 17 -35 22 -35 5 0 8 -3 7 -7 -1 -8 14
-50 32 -88 5 -11 14 -36 19 -55 5 -19 10 -29 10 -22 1 6 6 12 12 12 5 0 8 -4
5 -8 -7 -11 13 -79 36 -120 10 -18 18 -41 18 -52 0 -10 5 -22 10 -25 6 -3 10
-15 10 -26 0 -11 7 -33 15 -49 11 -21 12 -36 5 -54 -7 -21 -6 -26 5 -26 8 0
15 -9 15 -21 0 -11 4 -18 9 -15 4 3 8 -7 8 -22 0 -15 5 -52 12 -82 6 -30 13
-73 15 -95 3 -22 6 -47 8 -55 2 -11 -8 -16 -42 -17 -25 -1 -58 -5 -75 -8 -16
-3 -86 -6 -155 -6 -123 -2 -188 10 -175 31 4 6 -4 25 -17 43 -23 31 -59 101
-92 180 -9 20 -21 37 -27 37 -7 0 -8 -7 -4 -17 12 -29 13 -176 1 -195 -6 -10
-19 -18 -28 -18 -10 0 -18 -4 -18 -10 0 -5 5 -10 11 -10 5 0 7 -5 4 -10 -4 -6
-10 -8 -15 -5 -4 3 -7 -3 -6 -12 1 -18 -23 -25 -209 -62 -55 -11 -131 -27
-169 -35 -38 -9 -71 -14 -74 -12 -2 3 8 42 22 88 19 60 28 116 32 194 3 60 7
123 9 139 1 17 4 46 5 65 2 35 2 35 13 9 l10 -26 42 41 c80 79 100 89 160 84
38 -3 64 -12 89 -31 40 -31 66 -35 66 -9 0 27 -11 38 -60 61 -51 24 -85 53
-117 99 -26 36 -30 50 -8 32 9 -8 15 -8 15 -2 0 6 -9 13 -19 17 -25 8 -30 25
-32 105 -1 76 -18 175 -27 165 -4 -4 -7 -10 -7 -13 -2 -26 -17 -62 -26 -62 -8
0 -9 11 -4 33 4 17 7 41 7 52 -1 11 4 54 10 95 15 96 47 161 39 79 -1 -9 6
-19 16 -21 17 -4 18 4 17 105 -1 75 3 118 12 137 8 15 16 58 19 96 3 38 8 77
11 86 7 22 31 12 40 -15z m-3858 -111 c31 -13 84 -27 117 -31 33 -4 74 -11 90
-15 17 -5 65 -15 107 -21 42 -7 75 -15 73 -18 -1 -3 11 -7 28 -8 28 -2 81 -14
127 -31 8 -2 22 -6 30 -8 29 -5 155 -42 183 -53 16 -6 39 -11 52 -11 41 0 78
-63 92 -155 2 -16 6 -35 8 -42 2 -6 -7 -26 -21 -44 -13 -18 -24 -39 -24 -46 0
-7 -9 -18 -20 -25 -11 -7 -20 -22 -20 -34 0 -31 37 -38 75 -14 31 19 31 19 51
-3 l19 -22 5 45 c8 68 42 116 88 125 20 4 42 10 47 15 6 4 28 10 50 13 22 3
71 12 110 20 38 8 76 11 85 7 18 -10 52 -23 62 -24 4 -1 13 -7 20 -13 14 -15
38 -17 38 -3 0 6 7 10 15 10 28 0 110 -32 131 -51 11 -10 25 -19 31 -19 26 0
36 -33 35 -112 -2 -101 -7 -129 -40 -193 -60 -117 -159 -212 -239 -229 -63
-14 -140 -10 -158 7 -9 9 -18 17 -21 17 -10 0 -1 -13 33 -47 20 -21 37 -48 38
-63 2 -21 -5 -28 -36 -42 -21 -9 -48 -14 -59 -11 -20 5 -20 4 5 -43 14 -27 31
-53 38 -59 7 -5 21 -28 32 -49 25 -49 83 -109 97 -100 6 4 0 16 -15 30 -14 13
-29 33 -32 45 -4 13 -11 27 -16 33 -43 52 -69 91 -66 100 2 6 18 13 35 17 38
8 65 28 58 44 -10 27 12 36 85 37 41 0 90 -2 109 -5 19 -2 42 -5 51 -6 9 -1
45 -29 81 -62 l64 -62 -118 -115 c-128 -125 -134 -136 -141 -272 -3 -47 -7
-57 -28 -67 -13 -7 -38 -13 -54 -13 -32 0 -76 -33 -106 -79 -13 -21 -18 -22
-39 -11 -15 8 -43 10 -76 7 -43 -4 -60 -1 -100 20 -51 27 -91 69 -113 117 -16
37 -19 149 -4 168 17 20 27 142 14 167 -15 28 -33 27 -30 -1 4 -44 -39 -153
-68 -171 -7 -5 -11 -12 -8 -18 4 -5 0 -9 -8 -9 -9 0 -30 -13 -49 -30 -100 -90
-141 -110 -267 -129 -90 -14 -104 -24 -99 -68 3 -28 1 -33 -17 -33 -22 0 -28
21 -50 180 -4 25 -13 67 -21 94 -15 54 -19 186 -5 186 5 0 14 -7 21 -15 7 -8
16 -12 20 -10 5 3 -2 16 -15 29 -21 21 -23 30 -18 85 5 55 4 61 -13 62 -11 0
-13 3 -6 6 6 2 12 10 12 16 0 6 14 39 31 74 43 88 139 166 205 166 38 0 51 23
27 50 -12 12 -24 36 -27 53 -8 38 -47 56 -43 21 2 -25 -90 -92 -138 -100 -16
-3 -43 -8 -60 -11 -33 -7 -99 11 -130 34 -26 19 -45 62 -45 101 0 17 -8 43
-19 57 -10 15 -21 38 -24 52 -3 14 -20 75 -37 135 -18 61 -40 144 -50 186 -11
42 -28 100 -38 130 -11 30 -24 72 -31 95 -6 22 -20 49 -31 59 -45 41 -15 46
68 11z m-523 -76 c-10 -11 -13 -20 -7 -20 6 0 16 9 22 20 14 25 30 26 30 1 0
-33 -11 -51 -31 -51 -10 0 -19 -6 -19 -14 0 -8 -13 -24 -30 -36 -16 -11 -46
-38 -67 -59 -58 -58 -119 -85 -73 -31 11 13 20 32 20 42 0 11 9 31 20 45 11
14 20 32 20 39 0 7 23 36 52 64 46 45 53 49 67 36 13 -14 13 -18 -4 -36z
m1689 -47 c3 -4 14 -8 22 -9 50 -8 114 -27 114 -35 0 -6 6 -9 13 -8 6 1 25 -3
42 -10 16 -7 46 -14 66 -16 21 -2 47 -8 58 -14 11 -6 36 -11 55 -11 20 0 36
-4 36 -10 0 -5 12 -10 28 -10 44 0 60 -17 23 -25 -36 -8 -38 -14 -12 -46 17
-21 22 -22 40 -11 20 11 21 10 21 -22 l0 -34 -47 13 c-57 15 -193 75 -193 85
0 3 -29 21 -65 39 -36 18 -65 37 -65 41 0 4 -13 13 -30 18 -54 19 -130 57
-130 64 0 10 14 10 24 1z m575 -52 c-1 -23 5 -100 16 -211 2 -19 9 -96 15
-170 6 -74 13 -162 16 -195 2 -33 7 -107 9 -165 3 -58 7 -131 9 -162 3 -41 1
-60 -10 -69 -11 -9 -14 -9 -14 2 0 8 -5 59 -10 114 -16 159 -29 330 -35 470
-4 72 -10 159 -15 195 -5 36 -10 105 -10 154 0 78 2 87 15 76 8 -7 15 -24 14
-39z m-747 -71 c29 -11 82 -25 118 -31 64 -10 105 -29 63 -29 -26 0 -147 -44
-180 -65 -13 -9 -26 -15 -27 -13 -1 2 -12 30 -23 63 -11 33 -23 68 -27 78 -11
23 10 22 76 -3z m1642 -17 c4 -4 26 -9 49 -10 23 -2 54 -5 68 -6 14 -1 33 -8
42 -16 10 -7 17 -11 17 -7 0 4 10 0 23 -9 13 -8 27 -12 30 -8 4 3 7 1 7 -5 0
-7 7 -12 15 -12 8 0 15 -3 15 -7 0 -5 3 -17 6 -28 4 -14 -4 -31 -25 -53 -34
-35 -41 -84 -21 -152 7 -24 7 -36 0 -38 -16 -6 -40 -58 -40 -85 0 -21 -7 -26
-44 -36 -105 -26 -221 -7 -277 46 -19 18 -38 31 -42 27 -6 -6 -67 27 -90 50
-6 6 -21 18 -33 26 -11 8 -43 42 -69 75 -27 33 -54 64 -62 68 -7 4 -27 21 -45
37 -30 28 -31 30 -10 30 12 0 22 4 22 8 0 5 15 13 33 19 17 6 66 23 107 39 41
15 102 33 135 40 67 13 178 18 189 7z m-804 -318 c0 -22 6 -38 15 -41 23 -9
42 -229 23 -270 -7 -15 -7 -44 1 -88 10 -56 9 -71 -4 -96 -20 -39 -50 -41 -41
-2 28 124 29 395 2 434 -18 25 -22 98 -6 98 6 0 10 -16 10 -35z m-3340 1 c30
-3 74 -10 97 -15 23 -6 65 -13 95 -15 29 -3 53 -6 53 -7 0 -1 28 -2 63 -3 35
-1 67 -7 70 -13 4 -7 14 -11 22 -11 8 1 44 0 79 0 62 -2 63 -2 57 -27 -5 -19
-3 -23 9 -19 8 4 15 4 15 0 0 -14 -58 -95 -64 -89 -3 4 -13 -2 -21 -13 -13
-17 -14 -18 -15 -1 0 13 -5 16 -25 11 -31 -8 -77 -8 -200 0 -112 7 -135 12
-135 29 0 7 -11 25 -25 40 -30 32 -65 36 -65 8 0 -15 -10 -20 -50 -26 -28 -4
-47 -11 -44 -17 3 -5 12 -7 20 -4 7 3 16 1 20 -5 3 -6 30 -21 60 -35 30 -13
54 -31 54 -39 0 -8 3 -15 8 -15 15 0 5 -164 -13 -205 -21 -47 -25 -87 -8 -92
16 -6 41 34 48 77 8 44 26 56 42 27 11 -21 12 -20 31 23 41 93 180 182 246
157 16 -6 14 -13 -35 -111 -14 -27 -16 -41 -9 -46 8 -5 8 -11 -2 -21 -23 -24
-117 -225 -114 -245 2 -10 -5 -34 -16 -52 -10 -18 -18 -40 -18 -50 0 -12 4
-10 13 8 7 14 20 24 28 23 10 -2 14 5 13 25 -1 15 3 32 8 39 5 7 8 16 5 20 -5
7 13 8 91 4 12 0 22 -7 22 -15 0 -8 5 -16 12 -18 8 -3 8 -12 -3 -36 -8 -18
-17 -32 -21 -32 -8 0 1 29 14 47 5 7 5 14 -2 18 -5 3 -12 0 -14 -7 -2 -7 -11
-33 -19 -59 -13 -41 -13 -48 3 -80 20 -40 10 -105 -15 -95 -7 2 -16 0 -19 -7
-5 -9 -7 -9 -11 -1 -4 8 -21 10 -45 7 -36 -5 -39 -4 -42 23 l-4 29 -12 -27
c-6 -16 -16 -28 -22 -28 -13 0 -13 37 0 45 6 4 10 14 8 23 -1 10 3 27 10 39 7
13 8 24 3 28 -5 3 -13 -5 -16 -17 -12 -39 -48 -108 -57 -108 -5 0 -22 15 -39
33 -27 29 -29 36 -24 85 3 28 3 52 1 52 -2 0 -15 -6 -29 -13 -20 -10 -23 -17
-15 -25 9 -9 7 -16 -5 -30 -9 -10 -17 -22 -17 -26 0 -4 -13 -27 -30 -50 l-29
-44 -102 -1 c-88 -2 -101 0 -96 13 10 26 -2 18 -17 -12 -17 -33 -51 -39 -86
-13 -21 17 -23 22 -13 44 6 13 17 77 24 141 7 64 18 121 24 126 26 21 107 60
126 60 11 0 23 8 26 18 4 9 13 22 22 28 25 19 5 42 -44 49 -53 8 -65 24 -65
86 0 47 27 169 41 184 5 5 9 24 9 42 0 18 8 40 18 50 11 10 27 42 36 72 19 59
45 100 61 95 5 -1 35 -5 65 -8z m733 -113 c-10 -21 -27 -50 -38 -64 -12 -14
-31 -54 -44 -87 -16 -45 -26 -60 -36 -55 -10 3 -16 -2 -17 -13 -2 -27 -4 -37
-13 -56 -4 -10 -5 -25 -1 -33 10 -28 -5 -75 -25 -75 -10 0 -27 -13 -39 -30
-12 -16 -28 -30 -37 -30 -13 0 -13 3 -2 16 10 13 10 17 -2 25 -10 6 -10 9 -1
9 6 0 12 8 12 19 0 10 11 44 25 76 14 32 24 63 22 69 -3 6 -10 -2 -16 -19 -29
-71 -58 -135 -71 -155 -5 -8 -16 -31 -23 -50 -18 -45 -99 -93 -119 -71 -7 8
-8 11 -2 8 6 -3 22 23 38 61 16 37 38 83 50 102 12 19 34 63 51 98 28 60 50
77 61 48 3 -8 12 -13 20 -10 49 15 49 15 34 24 -12 8 -10 18 13 65 15 31 32
53 37 50 6 -3 10 -1 10 4 0 6 3 10 8 9 9 -3 72 58 72 71 0 10 28 30 42 31 4 0
0 -17 -9 -37z m2477 -202 c0 -22 5 -43 11 -47 6 -3 9 -19 6 -34 -3 -15 -2 -58
4 -95 5 -37 7 -70 5 -73 -3 -2 -20 12 -38 32 -18 20 -40 36 -48 36 -9 0 -31
11 -50 25 -19 14 -43 25 -53 25 -15 0 -11 7 19 29 62 46 103 88 114 115 14 39
30 31 30 -13z m310 -143 c1 -12 18 -47 79 -162 22 -41 153 -179 192 -202 34
-20 77 -106 84 -170 1 -14 -2 -45 -7 -69 -8 -38 -15 -47 -46 -62 -20 -9 -45
-23 -54 -31 -16 -13 -18 -13 -18 0 0 28 -91 138 -119 144 -14 3 -45 9 -68 15
-49 11 -111 12 -179 2 -44 -6 -56 -14 -126 -85 -43 -43 -78 -83 -78 -89 0 -5
-4 -8 -8 -5 -5 3 -9 -29 -11 -70 -1 -53 3 -84 15 -110 21 -43 87 -94 123 -94
14 0 44 -7 66 -14 22 -8 72 -16 111 -20 58 -4 77 -2 107 14 20 11 42 20 49 20
10 0 78 66 78 76 0 2 12 15 26 29 22 22 25 31 19 65 -6 33 -4 40 9 40 9 0 36
9 61 21 31 15 54 19 72 14 32 -8 65 -39 55 -51 -4 -4 -2 -4 5 0 18 10 93 -104
93 -141 0 -5 13 -22 30 -38 25 -24 39 -28 97 -31 37 -2 84 -7 103 -12 35 -8
34 -9 -108 -80 -79 -40 -152 -72 -163 -72 -11 0 -40 5 -65 11 -32 8 -44 16
-44 30 0 23 -20 35 -30 19 -7 -11 -11 -10 -24 2 -8 9 -12 18 -9 22 12 12 -12
5 -31 -9 -10 -8 -23 -12 -28 -9 -13 8 -37 -26 -38 -53 0 -12 13 -32 30 -46 30
-25 30 -27 30 -124 0 -62 -5 -106 -13 -118 -9 -14 -11 -54 -7 -140 5 -122 -1
-284 -19 -480 -15 -165 -9 -929 8 -948 10 -13 10 -31 2 -86 -14 -90 -14 -154
1 -203 9 -29 9 -41 0 -50 -16 -16 -15 -31 1 -22 10 6 10 4 0 -7 -7 -7 -13 -20
-13 -29 0 -13 2 -13 10 0 6 9 8 -65 7 -205 -1 -183 2 -228 16 -270 23 -70 22
-79 -9 -71 -22 6 -74 12 -158 20 -6 0 -38 -3 -72 -7 -46 -6 -67 -14 -85 -33
-23 -25 -23 -25 -5 -59 18 -33 18 -37 2 -102 -14 -53 -18 -125 -21 -333 -2
-146 -6 -282 -10 -302 -5 -27 -3 -41 8 -53 14 -14 16 -11 22 27 3 24 4 106 2
183 -5 197 -12 184 86 177 45 -3 117 -5 160 -4 42 0 77 -2 77 -5 0 -2 -5 -13
-10 -23 -6 -12 -6 -21 -1 -25 6 -3 8 -48 5 -102 -2 -55 0 -101 6 -108 12 -14
30 -248 30 -390 0 -55 5 -118 10 -139 5 -25 5 -46 -1 -57 -12 -24 15 -190 37
-223 9 -15 23 -26 31 -26 16 0 93 -56 106 -78 30 -47 73 -81 139 -108 40 -17
108 -46 152 -64 68 -29 90 -33 165 -33 47 0 93 2 101 5 8 3 29 8 45 12 34 8
255 115 270 131 31 32 37 45 26 59 -13 16 -4 49 13 43 6 -3 10 -8 9 -13 -1 -5
8 -29 20 -54 18 -36 34 -51 81 -77 45 -23 68 -30 92 -26 43 7 91 -15 104 -48
6 -15 29 -45 51 -68 37 -39 53 -45 112 -44 9 0 17 -4 17 -8 0 -8 77 -24 98
-20 16 3 15 -18 -3 -104 -20 -92 -19 -108 6 -131 l21 -19 -38 -5 c-60 -8 -96
0 -102 22 -3 13 -10 17 -21 12 -9 -4 -32 -6 -51 -5 -120 6 -388 0 -418 -10
-20 -7 -54 -9 -81 -5 -25 4 -69 8 -98 9 -76 4 -77 17 -2 18 35 1 75 3 89 5 14
2 79 4 146 4 128 -1 154 4 154 26 0 11 -22 13 -104 13 -63 -1 -112 4 -126 11
-17 9 -37 10 -79 1 -31 -5 -74 -13 -96 -17 -60 -9 -379 -32 -385 -27 -10 9 25
21 79 26 73 8 111 22 111 42 0 17 -32 20 -76 6 -56 -17 -170 -40 -234 -47 -36
-3 -67 -7 -70 -9 -3 -2 -53 -7 -110 -10 -58 -4 -108 -9 -113 -12 -11 -7 -335
-5 -357 2 -11 4 -18 11 -15 16 8 12 -17 12 -48 0 -28 -11 -247 -25 -362 -23
-76 1 -165 -15 -165 -29 0 -7 -29 -18 -65 -26 -28 -5 -529 -18 -657 -17 -60 1
-106 -2 -103 -6 3 -5 -4 -12 -16 -15 -13 -4 -24 -2 -29 4 -5 9 -24 9 -72 2
-36 -6 -119 -11 -186 -10 l-121 0 -7 37 c-4 20 -10 42 -14 47 -5 6 -11 28 -15
50 -4 22 -20 64 -37 93 -28 51 -28 55 -12 73 9 10 23 19 30 19 7 0 21 10 31
23 10 12 36 31 57 42 22 11 45 25 51 30 50 46 54 48 70 35 9 -7 18 -10 22 -7
3 4 20 -2 37 -12 38 -23 120 -41 187 -41 44 0 51 -3 59 -25 12 -31 26 -32 34
-2 5 22 9 23 53 16 27 -3 73 -14 103 -24 73 -23 179 -23 265 -1 39 10 79 20
90 22 56 9 85 22 119 51 20 18 36 37 36 42 0 10 61 41 82 41 8 0 18 4 24 9 5
4 24 11 43 15 l33 6 -6 -63 c-7 -71 -18 -199 -20 -239 0 -16 3 -29 9 -30 10
-3 19 46 30 164 4 38 10 68 15 68 5 0 11 -26 15 -57 8 -73 12 -86 26 -78 6 4
7 14 4 24 -4 9 -9 88 -11 175 -2 100 -7 162 -14 166 -8 5 -8 15 0 34 5 15 10
45 10 66 0 21 5 42 10 45 6 4 9 40 8 86 -2 52 2 83 10 91 10 10 12 2 10 -41
-2 -40 1 -55 11 -59 10 -3 12 0 8 12 -4 9 -2 16 2 16 13 0 21 -27 15 -45 -4
-8 -10 -12 -15 -9 -20 12 -27 -8 -9 -26 21 -21 26 -40 12 -40 -5 0 -9 -7 -9
-15 0 -8 5 -15 12 -15 13 0 35 -169 29 -220 -5 -33 -4 -34 8 -13 12 20 13 8
11 -85 -2 -79 0 -99 7 -77 30 93 38 329 9 284 -6 -9 -9 7 -9 49 0 34 -4 70 -9
80 -12 22 -29 291 -25 397 1 44 10 122 19 173 18 96 43 189 44 161 1 -9 10
-24 21 -34 11 -10 20 -28 20 -40 0 -25 25 -41 29 -19 4 26 4 79 -1 99 -3 11
-1 26 5 33 7 9 6 11 -7 6 -11 -4 -22 0 -30 11 -18 25 -63 13 -69 -18 -3 -20
-4 -20 -12 -3 -5 12 -3 21 5 26 11 7 11 14 2 35 -15 33 -17 78 -2 55 11 -16
11 -18 15 210 3 190 10 324 18 336 3 6 -4 31 -16 55 -20 38 -23 58 -21 141 1
58 6 104 13 112 7 8 8 17 3 20 -21 13 -19 69 4 112 13 25 19 46 14 49 -6 4
-10 14 -9 23 0 14 2 13 9 -3 7 -15 8 -11 8 20 -1 53 12 370 16 416 3 32 1 36
-15 32 -17 -5 -18 -1 -13 28 9 43 14 49 16 18 0 -13 4 12 8 56 4 44 4 85 -1
90 -6 8 -11 246 -8 350 0 11 2 103 4 205 2 102 5 196 8 210 2 14 2 17 0 8 -3
-10 -10 -15 -19 -11 -13 5 -15 -7 -15 -78 1 -83 -3 -153 -14 -238 -3 -24 -1
-49 4 -55 19 -25 21 -63 3 -84 -24 -28 -49 -149 -33 -165 8 -8 11 0 11 31 0
23 4 42 10 42 10 0 6 -236 -6 -380 -2 -36 -6 -88 -8 -116 -1 -27 -6 -56 -10
-63 -14 -22 -18 -191 -5 -207 6 -8 7 -14 1 -14 -6 0 -10 -83 -10 -225 -1 -124
-4 -230 -7 -235 -3 -4 -7 -120 -10 -255 -2 -136 -6 -250 -9 -252 -3 -3 -12 -3
-21 0 -12 5 -15 30 -16 149 -1 79 0 148 1 153 1 6 2 106 2 222 0 117 3 215 7
217 4 3 5 26 1 52 -4 25 -3 67 2 92 6 26 9 52 9 57 -8 56 -7 281 1 320 14 72
16 124 6 174 -9 45 -3 66 11 42 5 -7 9 39 11 105 1 66 3 142 5 169 10 177 19
261 29 267 8 6 8 8 0 8 -16 0 -8 140 16 320 6 41 10 86 9 100 -1 14 2 45 5 70
9 63 10 129 4 165 -3 17 -3 24 -1 17 3 -7 9 -10 14 -7 13 9 11 43 -3 48 -10 4
-10 8 1 15 9 7 10 12 2 16 -17 11 -13 46 5 46 12 0 15 11 13 48 -2 71 8 254
16 282 7 24 7 24 -7 5 -17 -22 -27 -60 -35 -122 -3 -24 -9 -43 -15 -43 -6 0
-7 13 -3 31 5 20 4 29 -3 25 -26 -16 -42 6 -42 58 0 58 22 102 70 137 34 26
65 68 56 77 -4 3 -19 -6 -34 -20 -15 -14 -39 -28 -54 -32 -33 -8 -36 7 -12 69
25 68 26 76 4 62 -11 -6 -25 -24 -31 -39 -6 -16 -19 -28 -29 -28 -10 0 -23 -7
-31 -16 -10 -12 -26 -14 -67 -11 -29 3 -59 10 -65 16 -6 6 -21 11 -34 11 -13
0 -23 4 -23 10 0 5 -3 9 -7 8 -16 -5 -90 33 -123 63 -39 35 -96 63 -110 54 -6
-4 -10 -1 -10 5 0 6 12 15 28 20 15 6 36 14 47 19 11 5 32 13 48 20 17 7 27
18 27 31 0 11 7 23 15 26 8 4 15 11 15 18 0 7 17 28 39 49 33 31 47 37 99 42
38 4 62 3 67 -4 11 -19 69 -13 82 8 11 17 8 25 -21 60 -32 38 -33 43 -24 83 5
24 7 53 5 66 -2 12 0 25 4 28 5 3 9 18 9 35 0 16 5 29 12 29 7 0 24 11 38 25
14 13 52 51 86 82 33 32 66 67 72 78 10 18 11 18 12 -10 1 -16 5 -39 10 -50 6
-15 9 -8 9 28 1 51 5 58 93 148 20 21 39 52 43 68 6 30 35 44 35 19z m2624
-484 l7 -60 -88 4 c-48 2 -93 9 -100 14 -7 5 -13 5 -17 0 -3 -5 -47 -12 -98
-16 -51 -4 -149 -13 -218 -21 -69 -7 -165 -16 -215 -20 -49 -3 -104 -8 -122
-11 -28 -5 -31 -4 -26 14 4 19 0 20 -44 20 -52 -1 -75 -12 -67 -33 7 -16 -11
-22 -106 -31 -41 -4 -91 -8 -110 -11 -19 -2 -64 -5 -100 -7 -36 -3 -76 -7 -90
-10 -45 -10 -95 -15 -196 -21 -54 -3 -119 -10 -144 -16 -25 -5 -110 -18 -190
-27 l-145 -18 -49 43 c-27 24 -55 42 -63 39 -7 -3 -13 -1 -13 3 0 14 21 18 97
17 59 -1 73 2 73 14 0 10 3 11 8 4 9 -14 109 -16 177 -4 28 5 91 12 140 15 50
4 97 8 105 10 22 6 178 19 230 19 25 1 50 6 55 13 6 7 48 13 103 15 54 2 96 8
100 14 7 11 68 25 122 29 14 1 39 -7 57 -16 17 -10 33 -15 35 -11 2 4 25 15
51 24 41 15 55 16 93 6 37 -10 53 -9 96 5 104 33 95 31 243 43 50 4 99 12 110
17 11 6 30 10 42 8 12 -1 50 3 85 9 34 7 80 12 101 12 26 -1 40 4 44 16 9 21
17 -9 27 -94z m-5716 -66 c9 -9 12 -9 12 0 0 7 4 12 8 12 5 0 7 -15 5 -32 l-3
-33 10 33 c6 17 17 32 25 32 11 0 12 -6 5 -24 -7 -18 -5 -26 6 -30 9 -4 14
-21 14 -56 l0 -50 -46 0 c-40 0 -45 2 -39 18 9 20 10 33 6 82 -3 31 -5 28 -15
-24 -6 -34 -17 -61 -25 -64 -11 -4 -13 7 -7 57 10 91 18 105 44 79z m1982 -5
c0 -19 47 -103 58 -103 4 0 20 -16 36 -36 41 -52 25 -64 -93 -69 -51 -3 -109
-9 -129 -14 -21 -5 -110 -12 -199 -15 -137 -5 -163 -4 -163 8 0 8 -3 21 -6 29
-6 16 32 31 42 16 13 -22 92 -3 212 52 34 16 68 29 76 29 24 0 85 54 86 77 0
25 24 42 58 43 14 0 22 -6 22 -17z m-2252 -6 c31 1 52 -3 52 -9 0 -6 8 -4 18
4 11 10 38 16 75 17 57 1 57 1 57 -28 0 -17 -4 -33 -10 -36 -5 -3 -10 -17 -10
-30 0 -13 -5 -27 -12 -31 -12 -8 -142 -13 -406 -17 -116 -1 -152 1 -152 11 0
6 -4 12 -10 12 -5 0 -7 -7 -4 -15 4 -10 0 -15 -11 -15 -15 0 -45 -22 -45 -34
0 -3 32 -5 72 -5 59 1 73 -2 81 -18 6 -10 27 -35 48 -56 43 -43 79 -111 79
-148 0 -27 30 -51 49 -39 10 5 11 19 5 51 -11 59 -6 97 19 142 32 58 68 75
162 77 107 3 105 4 105 -26 0 -16 4 -23 11 -18 8 4 8 1 1 -12 -5 -11 -12 -36
-16 -56 -4 -21 -17 -50 -29 -65 -32 -39 -57 -80 -57 -93 0 -17 40 13 40 30 0
8 7 24 16 35 13 18 14 15 10 -32 -2 -28 -5 -55 -8 -59 -2 -5 -4 -16 -3 -24 1
-16 -49 -70 -65 -70 -14 0 -43 -47 -35 -59 4 -7 15 -5 31 5 13 9 38 18 55 20
l31 4 -7 -51 c-5 -35 -4 -49 3 -45 6 3 14 31 17 61 6 44 11 55 25 55 10 0 21
-6 24 -12 5 -10 7 -10 12 0 9 19 23 15 50 -15 14 -15 22 -19 18 -10 -4 12 -1
17 10 17 13 0 15 -9 9 -62 -6 -69 7 -73 17 -5 l5 42 17 -25 c14 -21 15 -32 6
-70 -6 -25 -16 -51 -21 -58 -6 -8 -12 -21 -12 -30 -1 -10 -5 -36 -9 -60 -7
-38 -10 -41 -20 -26 -11 15 -13 13 -14 -17 0 -22 -8 -39 -24 -51 -22 -16 -24
-16 -36 0 -7 9 -10 22 -8 29 3 7 1 15 -4 18 -6 4 -10 -5 -10 -19 0 -38 -30
-50 -80 -30 -31 13 -40 21 -40 40 0 34 -37 104 -55 104 -8 0 -15 -6 -15 -14 0
-8 -5 -16 -12 -18 -9 -3 -8 -18 5 -57 25 -77 22 -112 -12 -138 -31 -24 -128
-62 -181 -70 -19 -3 -37 -8 -40 -12 -3 -3 -29 -14 -58 -25 -60 -21 -76 -14
-87 35 -4 16 -13 29 -20 29 -17 0 -28 29 -16 44 5 6 11 16 13 21 1 6 11 9 20
8 14 -2 17 4 15 27 -4 35 -16 52 -18 24 -1 -10 -1 -22 0 -26 0 -5 -4 -8 -9 -8
-15 0 -12 37 5 54 17 16 21 76 5 76 -5 0 -10 9 -10 20 0 11 3 19 8 19 25 -4
34 3 29 24 -8 28 16 58 70 87 41 23 58 44 48 60 -3 5 -19 1 -36 -7 -18 -9 -52
-18 -78 -21 -44 -5 -45 -4 -31 13 14 17 14 18 -8 6 -19 -10 -28 -9 -57 9 -19
12 -35 30 -35 40 0 10 -10 21 -22 25 -13 3 -18 8 -13 11 6 2 9 22 7 43 -2 21
1 42 7 45 14 9 15 136 1 136 -11 0 -14 53 -4 63 6 6 6 179 1 222 -2 11 -7 26
-11 33 -4 7 -6 16 -3 18 7 7 236 8 242 2 3 -3 33 1 67 8 37 7 84 10 113 6 28
-4 74 -6 103 -5z m5993 -104 c5 -40 3 -126 -4 -219 -1 -14 -7 -20 -16 -16 -9
3 -12 1 -7 -6 4 -7 1 -12 -9 -12 -12 0 -15 5 -10 18 5 13 3 14 -5 6 -16 -16 5
-55 25 -48 12 5 15 -3 15 -39 0 -41 -3 -47 -31 -61 -25 -12 -40 -14 -76 -5
-38 8 -47 7 -57 -7 -7 -9 -23 -18 -37 -19 -13 -1 -27 -3 -31 -4 -5 0 -8 -15
-8 -31 0 -22 6 -33 23 -40 14 -6 16 -9 6 -9 -9 -1 -24 8 -34 19 -25 27 -35 17
-35 -36 0 -30 5 -46 15 -50 8 -4 15 -14 15 -23 0 -27 12 -33 26 -13 12 16 13
15 14 -5 0 -27 7 -29 29 -9 28 25 46 3 45 -53 -2 -46 -1 -49 16 -38 27 16 38
46 38 108 0 43 5 64 23 88 29 39 39 39 39 1 0 -16 -4 -30 -9 -30 -4 0 -11 -21
-14 -47 -3 -26 -9 -49 -14 -50 -4 -2 -7 -23 -5 -48 4 -42 -15 -137 -43 -220
-34 -97 -55 -154 -79 -205 -21 -44 -27 -51 -32 -35 -3 11 -18 29 -35 40 -16
11 -32 29 -35 39 -4 11 -15 29 -25 40 -11 11 -19 26 -19 33 0 7 -4 13 -9 13
-6 0 -18 14 -28 30 -9 17 -21 30 -27 30 -5 0 -15 8 -22 18 -7 9 -14 12 -14 5
0 -6 5 -15 10 -18 6 -3 10 -13 10 -22 0 -11 -6 -8 -20 10 -21 26 -25 43 -12
50 4 2 1 2 -7 0 -14 -3 -45 30 -73 80 -41 72 -73 117 -83 117 -6 0 -21 13 -33
29 l-21 29 27 11 c15 5 50 13 77 17 28 4 56 12 64 18 12 9 13 7 7 -9 -18 -43
-30 -194 -18 -220 14 -29 61 -35 86 -9 22 22 20 31 -8 38 -30 7 -41 36 -38
101 4 71 19 120 47 153 14 17 25 37 25 45 0 9 5 19 11 23 7 4 8 9 0 17 -7 7
-15 6 -26 -3 -10 -8 -15 -9 -15 -1 0 6 -7 11 -16 11 -8 0 -13 4 -10 9 7 11
-41 24 -55 15 -6 -3 -8 -12 -5 -19 2 -7 0 -17 -6 -23 -7 -7 -3 -12 11 -17 30
-9 26 -22 -11 -33 -36 -11 -66 -10 -86 2 -17 10 -26 1 -19 -17 4 -11 16 -13
56 -6 28 4 57 11 63 14 7 4 4 -1 -6 -9 -11 -9 -30 -16 -43 -16 -13 0 -38 -7
-55 -16 -17 -9 -41 -13 -53 -10 -13 3 -27 1 -30 -4 -8 -13 -25 -3 -25 15 0 8
-20 36 -45 62 -24 26 -45 51 -45 54 0 14 -106 138 -178 209 -43 41 -88 92
-100 113 -13 20 -28 37 -33 37 -21 0 -8 30 14 31 12 0 31 2 42 4 11 2 46 6 79
9 32 3 67 8 77 11 12 4 19 1 19 -7 0 -10 2 -10 8 -1 4 7 23 13 42 14 19 2 41
7 48 13 10 7 16 5 23 -5 6 -10 11 -11 17 -2 4 6 45 14 94 17 83 5 87 4 94 -17
4 -12 14 -27 22 -33 8 -6 16 -20 17 -30 1 -10 5 -26 8 -34 6 -17 27 -116 31
-143 1 -10 6 -18 12 -19 16 -2 34 46 29 77 -2 17 -7 48 -10 70 -4 29 -3 36 4
25 9 -12 11 -11 11 7 0 12 -9 27 -20 33 -12 6 -20 21 -20 36 0 16 -8 28 -22
34 -20 8 -18 9 12 7 19 0 67 3 105 7 l70 8 -25 -21 c-77 -63 -96 -104 -86
-184 7 -62 19 -77 45 -53 17 16 18 20 4 68 -13 42 -13 55 -2 77 19 37 91 102
108 96 7 -3 20 0 27 6 8 6 20 9 27 6 8 -3 29 -1 48 3 19 4 63 7 99 5 l65 -3 6
-49z m-1171 -90 c14 -21 39 -52 55 -69 99 -103 174 -185 202 -220 17 -21 56
-66 87 -99 31 -33 66 -79 77 -103 12 -24 32 -50 46 -59 24 -16 103 -115 103
-129 0 -7 89 -136 100 -144 4 -3 24 -36 45 -75 37 -69 92 -151 127 -189 10
-11 18 -22 18 -26 0 -3 13 -13 29 -23 l29 -17 -21 -45 c-11 -25 -23 -45 -27
-45 -3 0 -20 25 -38 55 -18 30 -40 55 -48 55 -8 0 -30 25 -50 56 -23 36 -39
52 -44 45 -8 -15 -24 2 -35 38 -5 17 -4 21 5 16 6 -4 2 10 -8 31 -19 37 -82
104 -97 104 -4 0 -16 10 -26 23 -23 25 -119 166 -119 173 0 3 -16 28 -35 57
-19 28 -35 59 -35 68 0 9 -7 22 -14 29 -8 6 -20 27 -26 46 -7 19 -20 39 -31
44 -10 6 -19 15 -19 21 0 5 -33 42 -73 82 -39 40 -83 88 -97 107 -38 54 -52
70 -92 110 -21 20 -38 42 -38 47 0 6 -6 16 -14 22 -8 6 -16 21 -19 31 -4 17 0
20 26 20 26 0 37 -8 57 -37z m-4534 17 c54 8 63 -1 63 -61 1 -24 3 -82 5 -129
3 -57 1 -89 -7 -99 -9 -11 -9 -15 1 -18 6 -3 10 -8 7 -13 -3 -5 -1 -21 5 -37
l10 -28 -19 23 c-11 12 -26 22 -35 22 -8 0 -18 4 -21 10 -3 5 -19 8 -35 6 -37
-4 -47 27 -19 62 10 14 19 31 19 38 0 8 4 14 8 14 5 0 7 -15 4 -32 -3 -25 -1
-30 7 -22 12 11 14 19 25 97 5 29 3 47 -3 47 -5 0 -11 15 -13 33 -2 26 -8 33
-30 35 -22 3 -29 -2 -34 -23 -4 -16 -2 -30 4 -34 12 -7 16 -30 14 -69 -1 -14
-6 -21 -13 -16 -7 4 -9 0 -5 -13 9 -27 -35 -85 -55 -72 -7 5 -9 9 -4 9 6 0 11
30 13 66 1 36 9 79 18 96 10 20 14 42 9 64 -7 41 0 58 21 46 9 -5 35 -6 60 -2z
m4061 -2 l28 -11 -40 -9 c-22 -4 -49 -9 -59 -11 -11 -1 -21 -7 -23 -14 -5 -13
55 -16 72 -3 6 4 25 7 44 6 29 -1 36 -5 43 -31 4 -17 4 -31 -2 -33 -5 -2 -19
-33 -31 -70 -12 -37 -25 -71 -29 -75 -4 -5 -32 1 -61 13 -101 41 -124 49 -165
54 -22 3 -55 13 -72 22 -18 8 -38 14 -44 12 -12 -4 -48 54 -62 98 -6 18 -1 23
36 32 24 7 83 13 131 16 49 2 91 7 94 10 11 10 110 7 140 -6z m336 -84 c4 -7
14 -11 22 -8 9 4 19 -4 27 -23 7 -15 20 -36 30 -46 21 -21 23 -53 3 -87 -8
-14 -14 -35 -15 -47 0 -19 -39 -154 -60 -208 -4 -11 -13 -40 -20 -65 -23 -84
-123 -147 -169 -106 -10 9 -23 16 -29 16 -7 0 -21 5 -31 12 -16 9 -27 8 -60
-6 -50 -23 -62 -46 -23 -46 18 0 39 -11 57 -30 22 -23 38 -30 67 -30 21 0 38
-4 38 -10 0 -5 9 -17 19 -27 11 -10 26 -37 34 -60 12 -35 12 -46 1 -65 -7 -13
-18 -33 -23 -46 -6 -12 -27 -32 -46 -43 -36 -21 -46 -39 -22 -39 7 0 18 5 25
12 6 6 14 9 18 6 17 -18 -133 -188 -217 -245 -44 -31 -139 -124 -179 -176 -26
-33 -21 -77 9 -77 26 0 43 24 36 52 -5 20 5 35 64 91 39 37 74 67 79 67 4 0
43 35 87 77 43 42 81 71 83 65 7 -21 22 -13 37 21 17 36 19 44 -26 -138 -16
-66 -34 -134 -39 -151 -6 -17 -10 -40 -10 -51 0 -15 -8 -23 -27 -27 -79 -17
-180 -23 -283 -18 -175 10 -326 8 -343 -6 -8 -7 -35 -15 -61 -18 l-46 -7 0 49
c0 27 5 83 11 124 5 41 11 110 13 153 2 42 6 80 10 84 3 3 6 -1 6 -10 0 -10 7
-17 15 -17 8 0 27 -19 44 -42 16 -24 60 -75 98 -113 38 -39 75 -85 82 -103 8
-18 19 -31 25 -30 6 1 22 -4 34 -11 13 -7 26 -11 28 -8 5 5 -26 89 -36 97 -3
3 -14 22 -23 43 -10 20 -23 37 -30 37 -12 0 -107 93 -107 105 0 3 -13 19 -30
35 -16 16 -30 35 -30 41 0 6 -9 26 -19 43 -12 18 -24 65 -30 111 l-10 79 40
47 c25 30 60 56 96 74 87 40 95 43 138 50 42 7 110 47 119 71 8 20 -12 17 -41
-6 -19 -15 -29 -17 -38 -10 -9 8 -14 8 -17 0 -9 -28 -217 -5 -243 26 -5 7 -19
14 -29 16 -25 4 -38 50 -25 88 9 24 16 28 47 28 78 1 143 28 267 109 59 39
107 56 192 68 24 4 45 11 49 16 7 12 71 12 79 -1 10 -16 32 -12 39 7 4 9 1 32
-5 50 -8 26 -8 38 0 46 6 6 11 19 11 29 0 10 3 18 8 18 4 0 13 13 20 29 12 28
86 73 137 84 31 7 89 -4 98 -19z m-2183 -22 c0 -8 -86 -49 -115 -54 -11 -1
-22 -5 -25 -8 -45 -46 -76 -61 -122 -59 -27 2 -52 -2 -56 -8 -9 -13 -68 -22
-217 -33 -66 -5 -154 -14 -195 -20 -41 -6 -95 -13 -120 -14 -25 -2 -56 -6 -70
-10 -25 -6 -223 -28 -415 -46 -55 -5 -122 -12 -150 -15 -102 -12 -265 -26
-345 -30 -25 -1 -71 -10 -104 -20 -64 -19 -82 -11 -71 30 2 11 5 37 5 58 0 23
4 36 10 32 10 -6 116 -18 155 -18 11 1 38 8 60 16 22 8 41 11 43 7 4 -10 30
-3 52 14 25 19 79 34 190 51 58 9 121 20 141 24 20 5 44 4 52 -1 10 -5 54 -1
119 11 57 11 128 22 158 26 30 3 78 8 105 11 58 7 88 10 165 20 78 10 433 12
446 2 6 -4 29 -2 50 5 24 9 52 11 73 6 46 -10 112 -3 147 16 34 17 34 17 34 7z
m2380 -206 c0 -6 -6 -37 -14 -70 -8 -34 -22 -99 -31 -146 -9 -47 -21 -105 -27
-130 -5 -25 -12 -65 -14 -90 -4 -42 -21 -117 -63 -270 -10 -36 -21 -73 -25
-82 -9 -21 -36 -132 -41 -174 -2 -18 -16 -61 -30 -95 -14 -35 -26 -79 -27 -97
-1 -29 -5 -33 -41 -43 -63 -17 -68 -10 -50 63 8 35 25 106 38 159 12 52 27
104 32 115 9 17 31 104 65 264 6 30 15 59 20 64 4 6 8 24 8 40 0 17 5 48 11
70 6 21 14 59 19 85 5 25 14 66 20 90 6 24 12 55 14 70 5 35 36 143 46 156 4
6 11 26 15 45 4 19 10 39 12 44 6 9 63 -53 63 -68z m-2418 -24 c10 -20 9 -26
-15 -46 -15 -13 -41 -54 -59 -91 -29 -64 -32 -67 -41 -44 -24 63 -54 126 -74
156 l-22 33 22 1 c12 1 29 1 39 0 9 -1 19 2 22 7 3 5 30 9 61 8 46 -1 56 -5
67 -24z m-469 -18 c-6 -17 28 -19 45 -2 16 16 143 -26 176 -59 79 -79 123
-271 77 -334 -26 -34 -27 -50 -3 -42 22 7 62 49 62 63 0 8 10 9 29 5 23 -5 32
-2 44 15 13 19 12 23 -15 51 -19 18 -28 36 -25 47 23 78 59 153 90 187 l37 40
25 -27 c50 -54 161 -94 231 -83 25 3 45 2 49 -5 3 -5 22 -10 41 -10 l34 0 0
-110 c0 -60 -4 -110 -9 -110 -5 0 -23 3 -40 6 -27 6 -31 10 -31 41 l0 34 -48
-49 c-28 -28 -61 -51 -78 -55 -36 -7 -84 -43 -84 -63 0 -25 24 -26 75 -4 77
33 124 36 174 10 42 -21 43 -23 37 -58 -3 -20 -9 -101 -12 -179 -6 -125 -5
-143 8 -143 9 0 19 8 23 18 13 33 28 -16 21 -69 -9 -65 -15 -79 -35 -79 -9 0
-31 -9 -49 -20 -50 -31 -101 -29 -139 6 -18 16 -33 34 -33 40 0 7 -6 14 -14
17 -8 3 -17 21 -21 39 -4 18 -13 40 -20 48 -7 8 -16 25 -19 38 -5 15 -15 22
-31 22 -13 0 -27 5 -30 10 -4 6 -10 8 -15 5 -14 -8 4 -55 50 -130 42 -67 43
-74 47 -165 3 -85 1 -100 -19 -139 -13 -24 -33 -49 -43 -55 -11 -6 -23 -15
-26 -19 -12 -17 -246 -26 -383 -16 -39 3 -56 10 -80 35 -77 77 -105 156 -81
225 19 53 20 49 -14 49 -28 0 -47 -22 -36 -40 5 -8 -30 -93 -49 -118 -25 -34
-95 -98 -117 -109 -93 -45 -125 -55 -181 -58 -109 -7 -230 -24 -277 -40 -41
-13 -251 -37 -259 -30 -9 8 23 81 40 93 10 7 18 22 18 32 0 10 9 25 20 33 12
8 18 20 15 30 -7 17 15 67 39 86 8 7 12 19 9 27 -3 8 1 14 9 14 9 0 22 23 33
63 23 75 50 139 58 135 3 -2 23 17 44 42 83 98 117 112 278 115 66 2 125 -1
130 -5 6 -5 25 -2 43 5 56 24 32 85 -35 85 -17 0 -113 98 -113 115 0 5 -6 22
-14 36 -8 15 -12 48 -11 75 2 27 4 61 4 77 1 17 13 40 34 60 45 44 67 82 67
113 0 16 10 34 25 46 14 11 25 26 25 33 0 28 63 63 130 72 75 10 101 7 93 -13z
m-258 -13 c3 -5 0 -15 -7 -23 -7 -7 -33 -40 -57 -73 -25 -33 -56 -76 -71 -95
-14 -19 -31 -46 -37 -60 -6 -14 -29 -46 -52 -72 -22 -25 -41 -49 -41 -52 0 -4
-20 -36 -45 -73 -25 -36 -45 -69 -45 -74 0 -5 -15 -28 -32 -52 -18 -23 -42
-62 -53 -87 -11 -25 -22 -47 -25 -50 -3 -3 -16 -27 -30 -55 -13 -27 -41 -78
-61 -112 -21 -33 -46 -78 -57 -100 -10 -21 -40 -79 -65 -129 -54 -104 -57
-118 -24 -112 20 4 23 1 19 -23 -2 -15 -13 -36 -23 -45 -18 -16 -20 -16 -39 1
-25 22 -27 109 -5 139 8 11 15 27 15 36 0 9 10 25 21 36 12 10 30 37 41 59 10
22 23 47 28 55 6 8 19 35 30 60 12 25 24 52 29 60 33 57 61 121 61 138 0 11 7
22 15 26 8 3 15 11 15 18 0 7 16 30 34 51 19 20 44 58 56 82 12 25 25 45 29
45 4 0 13 20 20 45 7 25 17 43 21 40 5 -3 12 5 15 17 4 13 13 30 20 38 7 8 16
37 19 63 5 29 15 55 27 65 10 9 19 22 19 29 0 7 4 13 9 13 9 0 91 135 91 149
0 24 121 43 135 22z m3235 -46 c0 -7 7 -15 15 -19 8 -3 15 -12 15 -19 0 -8 9
-22 19 -31 11 -10 35 -43 53 -73 18 -31 47 -72 65 -92 35 -41 77 -153 69 -185
-3 -12 -19 -29 -36 -39 -34 -21 -39 -53 -15 -108 11 -28 14 -30 15 -12 0 47
115 66 146 25 9 -13 12 -13 17 2 11 27 22 19 65 -46 23 -35 60 -83 82 -108 23
-25 56 -68 75 -96 38 -59 74 -96 87 -88 13 8 10 -30 -4 -49 -13 -16 -88 -30
-238 -44 -36 -3 -70 -9 -76 -14 -16 -13 -106 -4 -140 14 -41 21 -50 33 -71 97
-19 59 -39 66 -34 12 5 -58 -57 -152 -100 -152 -11 0 -19 -4 -19 -9 0 -9 -52
-19 -135 -25 -27 -2 -77 -7 -109 -11 -55 -6 -58 -5 -51 12 4 10 9 34 12 53 3
19 14 58 24 85 10 28 19 60 19 72 0 12 9 27 20 33 11 6 20 17 20 24 0 36 35
117 57 131 22 14 29 14 81 0 64 -18 102 -25 102 -19 0 19 -38 74 -56 83 -13 6
-24 19 -24 28 0 28 -22 83 -55 137 l-29 49 17 86 c9 47 22 120 28 161 13 78
32 134 48 145 6 3 7 13 4 23 -6 15 -4 15 15 -2 12 -11 22 -25 22 -31z m-3455
17 c-5 -4 -15 -16 -21 -27 -6 -11 -20 -21 -31 -23 -16 -2 -23 -15 -31 -58 -6
-30 -19 -63 -29 -74 -10 -10 -29 -41 -42 -67 -12 -26 -28 -57 -34 -68 -6 -11
-23 -45 -39 -77 -43 -84 -102 -99 -146 -36 -21 29 -51 41 -68 27 -11 -9 -14
-8 -14 5 0 9 -8 16 -20 16 -11 0 -20 -2 -20 -4 0 -2 -2 -11 -5 -18 -3 -8 3
-25 15 -38 45 -52 51 -169 11 -199 -14 -11 -18 -21 -12 -30 6 -9 11 -10 15 -2
16 26 28 9 24 -32 -4 -33 -23 -71 -77 -151 -39 -59 -71 -114 -71 -121 0 -17
-20 -30 -29 -19 -9 13 -85 69 -93 69 -30 0 -74 105 -58 136 10 19 -2 35 -19
25 -22 -14 -57 57 -36 74 7 6 17 30 20 53 8 42 48 101 113 163 33 33 48 80 16
53 -9 -7 -21 -14 -28 -15 -6 -1 -31 -7 -55 -12 -56 -13 -90 -7 -126 24 -16 13
-32 24 -37 24 -4 0 -8 16 -8 36 0 40 -32 156 -55 201 -13 25 -13 29 1 43 13
11 18 12 21 3 5 -15 75 -17 89 -3 5 5 43 14 83 20 41 6 84 13 96 16 16 4 31
-3 53 -24 17 -17 38 -34 45 -39 19 -11 69 -111 62 -123 -4 -6 -3 -15 0 -20 11
-18 65 21 65 47 0 12 5 25 10 28 6 3 10 18 10 33 0 36 35 92 58 92 23 0 42 19
42 42 0 13 8 18 26 18 15 0 54 5 88 10 144 24 173 28 211 29 22 0 36 -3 30 -7z
m56 -331 c-10 -18 -9 -39 4 -126 4 -22 20 -59 36 -82 16 -23 25 -44 20 -47 -5
-3 -32 -1 -61 4 -44 8 -58 7 -95 -10 -24 -11 -46 -20 -49 -20 -3 0 2 16 12 37
13 27 14 37 5 40 -17 6 -16 21 2 39 15 15 21 8 16 -19 -1 -5 3 -6 8 -3 4 3 14
26 20 51 6 25 15 45 20 45 5 0 12 14 16 30 4 17 11 30 16 30 5 0 9 8 9 18 0
20 8 32 22 32 5 0 4 -8 -1 -19z m-1223 -121 c10 -42 7 -140 -4 -140 -19 0 -54
27 -54 42 0 10 -4 18 -9 18 -4 0 -6 -11 -4 -24 4 -17 -3 -29 -24 -45 -15 -12
-38 -30 -50 -40 -13 -11 -55 -29 -95 -42 -40 -12 -80 -26 -88 -30 -8 -4 -53
-25 -100 -45 -47 -20 -89 -40 -94 -45 -6 -5 -19 -9 -31 -9 -12 0 -26 -5 -33
-12 -9 -9 -15 -2 -28 28 -8 21 -29 68 -45 103 -17 35 -29 64 -27 65 36 22 176
66 210 66 15 0 53 12 85 26 79 35 211 84 228 84 7 0 16 -8 18 -17 4 -14 5 -12
6 5 1 32 50 50 68 26 12 -16 13 -16 13 -1 0 14 24 36 41 37 3 0 11 -22 17 -50z
m177 -216 c22 -47 46 -90 53 -96 15 -13 16 -60 1 -75 -7 -7 -4 -21 10 -47 34
-60 27 -126 -14 -126 -14 0 -27 -37 -15 -42 5 -2 5 -19 1 -38 -16 -80 -71 -22
-71 77 0 61 -29 167 -30 110 0 -16 -4 -26 -9 -22 -5 3 -12 -4 -16 -15 -6 -18
-17 -24 -37 -21 -5 0 -8 -15 -8 -34 0 -19 5 -35 10 -35 6 0 10 5 10 10 0 17
29 11 39 -9 26 -48 43 -118 38 -158 -3 -26 0 -43 6 -43 5 0 16 -8 23 -17 11
-16 13 -13 20 24 9 60 37 66 48 11 2 -7 8 -26 15 -43 11 -26 27 -102 36 -173
3 -22 1 -23 -39 -17 -36 6 -44 4 -50 -11 -5 -12 -1 -23 8 -30 9 -6 16 -16 16
-23 0 -6 4 -11 8 -11 13 0 42 -74 42 -107 0 -25 -11 -40 -57 -79 -32 -27 -60
-52 -63 -55 -3 -4 -18 -11 -33 -14 -22 -6 -32 -2 -48 16 -19 22 -19 24 -3 28
9 1 23 8 29 15 10 8 3 15 -29 27 -33 13 -46 26 -69 70 -15 30 -34 65 -42 79
-26 45 -16 208 13 230 16 11 43 62 37 68 -4 4 -11 -1 -16 -11 -6 -9 -16 -17
-24 -17 -8 0 -21 -10 -29 -21 -21 -30 -163 -61 -215 -47 -43 12 -82 45 -74 64
3 8 -1 14 -8 14 -8 1 -34 42 -59 92 -25 50 -49 96 -55 102 -25 29 -55 76 -55
89 0 7 -11 28 -25 47 -14 19 -25 40 -25 47 0 18 140 86 154 74 16 -12 63 -23
119 -27 26 -2 62 -10 80 -19 38 -18 77 -72 77 -106 0 -36 26 -68 50 -62 22 6
20 26 -8 93 -15 37 -20 189 -8 228 8 23 46 31 46 11 0 -7 9 0 21 15 26 33 45
33 53 1 4 -15 11 -22 20 -19 8 3 16 -2 19 -13 3 -10 5 4 4 30 -2 47 0 49 38
72 22 13 42 24 45 24 3 0 23 -38 45 -85z m2399 -301 c4 -15 2 -278 -3 -308 -1
-6 -74 -10 -196 -11 -107 0 -193 2 -190 5 3 2 22 6 43 7 216 11 272 18 272 34
0 15 -50 20 -144 14 -53 -4 -96 -3 -96 1 0 3 11 25 25 49 19 33 25 58 27 119
3 72 12 95 24 63 3 -8 13 -17 22 -20 9 -3 24 -11 33 -17 14 -10 29 -6 84 21
37 18 69 39 72 47 7 18 21 16 27 -4z m2654 -80 c-2 -4 -12 -25 -21 -45 -17
-37 -19 -38 -70 -39 -28 0 -63 -2 -77 -4 -33 -5 -296 -33 -385 -41 -38 -3 -83
-8 -100 -10 -16 -3 -56 -8 -87 -11 -32 -3 -58 -8 -58 -12 0 -3 -78 -7 -173 -9
-142 -2 -314 -15 -512 -38 -16 -2 -83 -7 -148 -12 -66 -4 -122 -13 -129 -20
-9 -9 -9 -12 0 -12 7 0 12 -7 12 -15 0 -21 -48 -41 -100 -40 -42 0 -45 2 -48
29 -2 17 -1 48 2 71 6 38 10 42 47 52 36 9 44 8 60 -8 22 -22 54 -26 46 -5 -6
15 38 36 74 36 21 0 27 -20 7 -21 -7 0 -4 -4 6 -8 11 -4 38 -4 60 1 23 5 98
11 168 13 69 2 139 6 155 9 51 11 206 28 283 31 41 2 98 9 125 15 44 11 205
21 304 20 18 -1 41 6 51 15 12 11 46 16 135 19 92 2 121 7 130 19 13 18 31 21
154 25 51 2 91 0 89 -5z m-4830 -62 c20 -8 34 -22 38 -37 4 -14 14 -30 24 -37
9 -6 21 -23 25 -37 4 -13 25 -41 46 -63 22 -21 39 -46 39 -56 0 -23 -51 -71
-57 -53 -3 6 -9 12 -14 12 -5 0 -4 -12 1 -26 9 -24 6 -30 -27 -59 -21 -19 -41
-30 -44 -27 -4 4 -11 34 -17 67 -20 111 -43 209 -52 220 -4 5 -9 30 -10 55 -2
57 -2 63 8 58 4 -3 22 -10 40 -17z m-74 -23 c3 -13 10 -52 16 -88 6 -36 15
-78 20 -95 39 -136 43 -205 15 -205 -22 0 -42 38 -71 135 -45 155 -65 248 -56
257 4 3 18 8 32 11 14 2 28 5 32 6 4 0 10 -9 12 -21z m4816 -59 c0 -4 -7 -12
-15 -19 -8 -7 -15 -17 -15 -22 0 -5 -18 -31 -40 -56 -22 -26 -63 -75 -90 -109
-51 -63 -73 -76 -84 -48 -3 8 -15 15 -27 15 -18 0 -21 -5 -17 -32 3 -18 7 -40
9 -48 2 -8 -6 -19 -17 -24 -12 -5 -29 -25 -39 -43 -10 -18 -21 -33 -24 -33 -3
0 -33 -25 -65 -55 -33 -30 -65 -55 -72 -55 -19 0 -54 40 -54 61 0 10 -5 21
-11 24 -15 10 -38 -25 -39 -59 0 -17 -10 -44 -22 -62 -25 -36 -115 -89 -170
-98 -29 -5 -38 -12 -38 -26 0 -16 7 -20 35 -20 19 0 35 3 35 8 0 8 72 33 78
27 10 -9 -53 -75 -68 -73 -19 3 -70 -21 -70 -34 0 -4 -8 -8 -17 -8 -24 -1 -53
-24 -53 -43 0 -10 -6 -13 -19 -10 -22 5 -52 -22 -45 -41 6 -16 -46 -29 -82
-20 -15 4 -24 2 -24 -6 0 -6 5 -8 12 -4 7 4 8 3 4 -5 -5 -7 -13 -8 -22 -3 -16
9 -125 -37 -152 -64 -13 -13 -12 -17 4 -29 18 -13 18 -14 2 -15 -10 0 -18 -4
-18 -9 0 -5 -9 -11 -20 -14 -16 -4 -20 0 -21 21 -1 20 -3 22 -6 8 -4 -13 -7
-15 -12 -7 -11 17 -101 -6 -101 -25 0 -8 -6 -11 -15 -8 -8 4 -15 1 -15 -5 0
-7 -15 -9 -42 -5 -26 3 -67 -1 -103 -11 -108 -30 -130 -35 -166 -35 l-37 0 2
108 c1 59 -2 112 -7 119 -9 12 -11 74 -3 126 2 15 0 30 -4 32 -4 3 -3 28 2 57
6 29 8 72 5 95 l-4 43 30 -22 c16 -12 55 -32 86 -44 30 -13 57 -28 59 -34 2
-5 -9 -23 -26 -38 -39 -37 -59 -78 -83 -170 -17 -67 -18 -83 -7 -121 13 -44
34 -63 47 -43 3 6 6 47 5 92 -2 82 10 154 30 179 5 7 11 20 13 30 3 21 46 55
108 85 65 30 83 51 58 64 -12 7 -29 6 -56 -6 -39 -15 -41 -15 -104 18 -36 18
-80 48 -99 66 -18 19 -38 34 -44 34 -5 0 -10 16 -10 35 0 20 -8 41 -19 52 -26
26 -31 58 -18 113 12 52 29 65 80 61 49 -4 205 40 210 59 5 18 67 34 67 17 0
-5 6 -4 13 2 8 6 17 8 21 4 10 -10 158 -4 171 7 11 9 40 8 50 -2 3 -2 29 -2
58 3 28 4 84 10 124 14 l72 6 -32 -34 c-18 -18 -40 -44 -50 -58 -21 -29 -59
-147 -51 -160 3 -5 1 -9 -4 -9 -10 0 -37 56 -37 78 0 7 -18 39 -40 72 -37 55
-68 79 -80 60 -7 -11 5 -40 16 -40 5 0 9 -4 9 -9 0 -5 20 -44 45 -87 25 -44
45 -89 45 -101 0 -30 20 -40 27 -14 8 30 17 26 28 -11 11 -36 41 -49 51 -23 4
8 -1 24 -10 34 -19 21 -20 34 -7 112 11 69 19 83 73 135 49 46 91 59 128 39
14 -8 42 -14 62 -15 77 0 101 -25 111 -118 7 -57 13 -62 42 -28 21 24 24 38
22 87 -2 52 1 60 23 76 28 20 90 32 127 25 14 -3 28 -15 33 -28 5 -12 16 -27
25 -32 19 -10 22 -42 11 -84 -7 -22 -5 -28 8 -28 9 0 21 11 26 24 5 13 14 27
19 31 6 3 11 24 11 46 0 49 21 71 88 93 38 13 56 15 71 7 27 -15 30 -14 41 13
7 18 18 26 42 28 52 5 68 4 68 -3z m-3616 -109 c30 -11 34 -36 9 -43 -10 -3
-100 -5 -199 -5 -100 1 -186 -2 -193 -6 -19 -12 -165 -18 -191 -7 -19 7 -21
10 -10 14 37 14 153 29 240 33 52 1 111 7 130 12 47 13 182 14 214 2z m939
-42 c13 -7 26 -5 44 7 14 10 34 14 48 11 20 -5 22 -10 17 -53 -2 -27 -5 -49
-6 -50 0 0 -64 -4 -141 -8 -77 -4 -144 -10 -149 -12 -13 -8 -291 -24 -483 -28
-94 -2 -178 -7 -185 -11 -9 -5 -8 -2 2 11 11 13 12 19 3 22 -7 2 -9 11 -6 19
3 8 0 14 -6 14 -9 0 -9 5 -1 20 6 11 17 17 24 14 8 -3 23 -1 34 5 15 8 21 8
24 -1 3 -9 17 -9 59 0 30 6 79 14 109 17 30 2 66 7 80 10 39 8 126 8 139 1 6
-4 11 -1 11 8 0 15 16 16 37 3 6 -4 22 -3 35 2 12 4 52 9 88 10 35 1 65 3 67
4 6 7 140 -6 156 -15z m-2555 -118 c0 -54 3 -108 7 -120 9 -29 -11 -25 -43 9
-48 51 -82 95 -82 105 0 6 -12 20 -27 32 -32 26 -29 32 18 38 26 4 121 30 125
35 0 1 1 -44 2 -99z m1427 65 c28 -4 75 -3 104 3 30 5 64 6 76 2 12 -4 29 -4
38 1 21 12 21 9 2 -27 -9 -17 -11 -31 -5 -34 6 -4 5 -13 -3 -23 -11 -16 -42
-18 -287 -23 -151 -3 -300 -8 -330 -10 -53 -5 -57 -4 -93 32 -51 49 -39 59 71
60 48 1 113 7 146 13 32 6 61 9 65 7 4 -3 13 -1 21 5 15 9 102 6 195 -6z
m-649 -87 c8 -28 55 -82 75 -86 8 -2 64 -55 124 -118 61 -63 115 -115 120
-115 11 0 75 -45 175 -121 34 -27 68 -48 75 -48 7 0 15 -3 17 -8 2 -4 23 -23
48 -42 25 -19 47 -37 50 -40 3 -3 22 -14 43 -25 21 -11 53 -33 70 -48 20 -17
68 -39 127 -57 52 -17 109 -39 127 -49 17 -11 50 -25 72 -31 23 -6 41 -15 41
-20 0 -6 8 -10 19 -10 10 0 33 -6 51 -13 l32 -14 -74 -12 c-141 -22 -214 -26
-355 -19 -173 9 -215 19 -232 54 -9 21 -16 25 -36 20 -19 -5 -25 -2 -25 9 0
12 -6 15 -22 9 -13 -3 -28 -11 -35 -16 -8 -6 -22 -5 -40 5 -15 8 -64 25 -108
37 -44 12 -98 30 -120 40 -22 10 -49 21 -59 24 -17 6 -18 8 -3 19 9 6 23 32
32 56 19 54 19 54 0 47 -19 -7 -19 8 0 24 12 10 13 16 4 26 -9 11 -8 14 4 14
8 0 22 -11 31 -25 14 -22 22 -25 50 -20 26 5 39 1 64 -20 18 -15 32 -23 32
-18 0 5 -13 20 -30 33 -16 14 -29 30 -30 36 0 5 -8 19 -17 30 -10 10 -27 36
-38 57 -11 20 -29 47 -40 60 -12 12 -40 48 -63 80 -24 31 -47 57 -52 57 -10 0
-56 75 -62 100 -2 8 -13 34 -25 59 -13 24 -23 51 -23 60 0 10 -5 22 -12 29 -9
9 -9 12 -1 12 7 0 15 -10 19 -22z m1871 -151 c-6 -160 -4 -157 -110 -212 -52
-27 -157 -45 -157 -28 0 6 -8 13 -17 17 -10 3 -24 9 -30 12 -9 4 -13 -5 -13
-31 0 -56 30 -79 97 -72 46 5 57 2 96 -24 67 -44 79 -84 62 -213 -8 -57 -7
-58 13 -51 17 5 22 2 23 -12 1 -10 2 -32 4 -50 2 -29 0 -31 -32 -35 -19 -2
-36 0 -39 4 -3 4 -31 8 -63 8 -33 0 -72 7 -87 15 -16 8 -38 15 -49 15 -12 0
-25 4 -30 8 -16 14 -153 45 -170 38 -15 -5 -20 8 -17 47 1 10 -5 17 -16 17 -9
0 -26 14 -37 30 -11 16 -25 30 -31 30 -19 0 -47 69 -39 99 3 14 9 40 12 58 3
20 12 35 24 38 21 7 25 20 9 30 -16 10 -49 -14 -66 -48 -20 -38 -33 -49 -96
-82 -59 -31 -128 -33 -183 -5 -22 11 -58 20 -81 20 -25 0 -47 6 -54 15 -7 8
-20 15 -30 15 -9 0 -30 14 -46 30 -16 17 -50 42 -76 55 -26 14 -50 30 -53 36
-4 6 -37 30 -74 53 -36 24 -75 53 -85 65 -11 11 -23 21 -28 21 -5 0 -48 38
-95 85 -61 59 -84 88 -77 95 7 7 19 8 36 1 19 -7 29 -6 42 7 15 15 16 15 16 0
0 -15 24 -16 265 -13 212 3 265 1 265 -10 0 -7 6 -25 14 -39 13 -26 14 -26 19
-5 3 11 10 18 16 14 7 -4 11 4 11 19 0 31 10 34 152 40 l107 5 51 -51 c79 -78
85 -91 89 -177 1 -28 3 -31 15 -22 10 9 16 9 21 1 13 -21 34 10 45 67 17 81
62 139 135 174 53 25 76 29 195 37 74 4 139 6 144 4 4 -3 6 -68 3 -145z
m-2004 108 c-1 -5 3 -15 8 -21 7 -8 -4 -23 -32 -48 -24 -20 -47 -36 -52 -36
-5 0 -19 -11 -31 -24 -11 -12 -48 -43 -81 -67 -33 -24 -71 -53 -85 -66 -14
-13 -30 -23 -37 -23 -7 0 -13 -7 -13 -15 0 -8 -6 -15 -14 -15 -16 0 -86 29
-71 30 6 0 30 18 55 40 25 22 48 40 52 40 4 0 24 18 45 41 21 23 54 49 74 60
20 10 39 27 42 39 7 26 21 26 35 -2 8 -18 11 -19 11 -6 1 9 -4 20 -9 23 -13 8
6 35 25 35 7 0 18 7 25 15 14 17 56 17 53 0z m115 -115 c18 -39 30 -75 27 -80
-4 -6 2 -21 13 -35 11 -14 23 -40 26 -60 7 -35 20 -52 30 -37 2 4 -1 21 -8 37
-19 44 -36 99 -36 116 1 26 39 -31 61 -92 12 -33 26 -62 30 -65 12 -7 11 -64
-1 -64 -5 0 -10 4 -10 9 0 9 -30 24 -36 18 -2 -2 3 -18 12 -35 15 -31 24 -36
51 -33 14 2 6 -61 -8 -67 -4 -2 -6 -9 -3 -17 3 -7 0 -23 -6 -35 -6 -12 -12
-36 -12 -53 l-1 -32 -14 33 c-8 19 -20 32 -31 32 -15 -1 -15 -2 2 -15 28 -21
14 -28 -20 -11 -28 14 -68 31 -109 46 -45 17 -135 65 -135 73 0 4 -7 7 -15 7
-8 0 -34 9 -58 19 -23 11 -53 23 -67 27 -13 4 -43 24 -65 46 l-40 39 25 18
c14 11 38 31 53 45 15 14 41 33 57 41 16 8 40 25 53 38 13 12 54 46 91 75 64
50 69 52 82 35 8 -10 19 -28 24 -41 6 -13 15 -20 20 -17 6 4 10 3 9 -2 -4 -22
2 -43 12 -43 16 0 2 52 -20 70 -35 30 -53 80 -28 80 6 0 27 -32 45 -70z m1771
-803 l94 -10 -7 -111 c-3 -61 -9 -139 -12 -173 l-6 -63 -42 6 c-22 3 -51 7
-62 9 -12 3 -94 5 -183 6 l-162 0 5 142 c3 78 8 150 11 159 8 20 32 31 40 18
9 -14 102 -12 128 1 12 7 25 18 30 25 5 8 19 11 40 7 17 -3 74 -10 126 -16z
m-823 -12 c3 -12 0 -59 -5 -105 -14 -105 -14 -130 -1 -130 6 0 10 7 10 15 0 8
4 15 10 15 6 0 8 -31 5 -80 -3 -46 -1 -80 4 -80 13 0 22 32 21 77 -1 72 10
284 15 294 4 5 13 5 23 1 9 -5 34 -8 56 -7 l38 2 -6 -56 c-3 -31 -7 -89 -7
-128 -1 -45 -6 -73 -12 -73 -7 0 -7 -4 1 -12 21 -21 14 -46 -15 -50 -39 -5
-60 -43 -78 -143 -30 -165 -38 -255 -27 -291 7 -24 7 -45 0 -69 -19 -59 -7
-63 146 -60 l134 3 -5 -31 c-2 -18 -8 -47 -13 -66 -6 -21 -5 -84 0 -160 6 -69
10 -265 11 -436 1 -279 3 -316 20 -365 25 -70 80 -123 120 -115 19 4 30 1 37
-10 8 -16 108 -55 139 -55 26 0 114 65 119 87 8 31 -3 56 -20 50 -8 -3 -16 -1
-18 5 -2 6 -18 4 -43 -6 -28 -12 -40 -13 -46 -5 -4 7 -21 9 -47 4 l-41 -7 6
38 c6 36 5 37 -21 30 -24 -6 -28 -3 -41 28 -15 36 -21 91 -7 69 4 -6 7 15 7
48 0 32 -3 59 -8 59 -4 0 -6 3 -5 7 1 5 -2 19 -6 32 -5 15 -4 26 4 31 7 4 9
13 5 20 -16 26 -32 -26 -38 -121 -1 -9 -7 -15 -13 -12 -13 5 -26 50 -30 103
-2 19 -7 59 -12 89 -6 38 -5 64 4 90 18 48 17 71 -1 71 -15 0 -20 12 -9 23 4
4 6 33 6 64 -7 338 3 432 45 434 10 0 63 0 118 -2 55 -2 155 -3 221 -3 l122
-1 16 -71 c29 -121 23 -714 -8 -800 -11 -34 -76 -168 -116 -244 -4 -8 -15 -32
-24 -53 -8 -20 -22 -37 -31 -37 -8 0 -15 -4 -15 -9 0 -5 -15 -14 -32 -21 -18
-6 -51 -20 -73 -30 -36 -16 -77 -24 -112 -21 -7 1 -13 14 -13 31 0 21 -5 30
-16 30 -8 0 -12 4 -9 10 3 6 -1 7 -9 4 -16 -6 -21 -22 -17 -62 1 -13 -2 -21
-8 -18 -5 3 -11 1 -13 -5 -2 -6 -40 -13 -89 -16 -67 -4 -92 -2 -116 11 -20 10
-43 14 -61 10 -23 -5 -36 0 -64 25 -36 32 -58 39 -58 20 0 -5 -13 -2 -30 8
-16 9 -30 20 -30 24 0 4 -13 12 -30 17 -17 6 -44 32 -66 62 -20 28 -49 57 -65
66 -16 8 -29 19 -29 26 0 7 -13 9 -35 5 -37 -6 -41 -2 -25 23 8 13 11 13 19 1
7 -11 11 -9 20 8 7 12 9 26 5 33 -4 6 -1 9 7 6 7 -2 17 -19 21 -36 14 -52 28
-37 20 20 -13 94 -6 194 16 235 7 12 7 25 2 34 -7 11 -12 7 -21 -18 -6 -18
-15 -33 -21 -33 -6 0 -7 7 -3 18 5 9 7 26 6 37 -9 69 -5 159 7 163 6 2 12 10
12 18 0 9 5 12 10 9 6 -4 10 11 10 37 0 24 10 117 21 208 11 91 24 208 29 260
6 52 14 119 19 148 6 37 5 52 -3 49 -6 -2 -12 -19 -13 -38 -2 -19 -5 -45 -9
-59 -6 -24 -7 -24 -15 -5 -8 19 -8 19 -15 -2 -10 -34 -21 -19 -16 21 2 21 10
36 17 36 15 0 25 22 25 52 0 13 5 18 14 15 9 -4 16 5 21 26 10 43 17 277 9
296 -3 9 -5 68 -4 131 0 63 -2 112 -5 108 -7 -7 -11 -44 -13 -141 -1 -40 -5
-56 -13 -51 -11 6 -8 104 7 241 6 50 5 52 -20 59 -24 6 -34 23 -20 36 3 3 44
5 90 5 76 -2 85 -4 90 -22z m298 -2 c4 -4 17 -8 29 -8 30 0 32 -27 12 -129
-10 -51 -14 -104 -11 -135 l6 -52 -78 3 -77 3 2 30 c16 295 13 283 61 288 20
2 40 4 43 5 3 1 9 -1 13 -5z m-589 -500 c-3 -71 -6 -149 -5 -174 l0 -46 -52 9
c-28 5 -63 7 -77 5 -14 -3 -31 -3 -38 0 -15 6 -18 59 -3 68 6 3 7 17 4 31 -6
23 -4 24 20 18 22 -5 26 -3 26 16 0 29 -18 60 -35 60 -10 0 -14 13 -13 48 1
64 22 84 81 76 26 -4 52 -2 63 5 11 5 23 11 27 11 5 0 6 -57 2 -127z m861 111
c13 -3 21 -10 18 -15 -3 -5 2 -9 11 -9 9 0 13 5 10 10 -4 6 14 10 48 10 103 0
147 -19 92 -40 -14 -5 -37 -21 -51 -35 -14 -14 -30 -25 -37 -25 -15 -1 -94
-60 -79 -60 17 0 64 22 97 46 17 12 40 25 53 29 12 3 22 11 22 16 0 5 7 9 16
9 14 0 14 -3 4 -15 -7 -8 -18 -15 -24 -15 -10 0 -66 -56 -66 -66 0 -11 21 -1
51 26 33 29 34 29 53 10 19 -19 19 -19 -18 -57 -21 -22 -31 -40 -25 -42 7 -2
18 5 26 15 11 15 16 16 22 6 6 -10 11 -9 22 4 9 12 10 15 2 10 -25 -15 -12 17
18 45 18 16 29 33 25 37 -4 3 -11 0 -15 -7 -5 -8 -14 -10 -21 -6 -9 5 -11 4
-6 -3 10 -17 -3 -15 -20 3 -9 8 -11 15 -5 15 6 0 11 7 11 16 0 8 4 13 9 10 5
-3 11 0 14 8 4 9 14 12 26 9 13 -3 21 -1 21 8 0 7 3 10 6 7 3 -4 1 -15 -5 -26
-8 -16 -7 -21 5 -26 8 -3 12 -11 9 -16 -4 -6 -8 -31 -9 -56 -2 -26 -9 -50 -17
-55 -11 -7 -11 -11 -2 -17 7 -4 15 -44 19 -90 l7 -82 -31 0 c-17 0 -34 5 -38
11 -4 6 -20 8 -39 5 -19 -4 -36 -3 -38 1 -3 4 -74 5 -159 1 -155 -7 -208 -4
-208 13 0 5 -5 9 -11 9 -5 0 -8 -4 -5 -9 9 -14 -14 -19 -124 -27 l-103 -7 6
47 c7 46 3 51 -31 47 -10 -2 -12 4 -7 20 4 12 2 39 -5 59 -11 33 -10 41 4 61
9 13 16 31 16 41 0 9 9 20 20 23 11 3 20 13 20 20 0 17 50 65 67 65 7 0 13 7
13 15 0 12 19 14 119 11 84 -2 127 0 143 9 13 7 29 11 36 9 8 -2 25 -7 38 -10z
m1113 -120 c52 -2 100 0 105 4 6 5 28 9 49 11 43 3 44 -4 27 -100 -5 -30 -12
-75 -15 -100 l-6 -46 -72 -4 c-133 -7 -328 -1 -341 10 -7 6 -15 8 -19 5 -11
-11 -25 32 -32 101 -6 68 -6 71 22 95 30 27 95 41 153 32 19 -2 77 -6 129 -8z
m-3259 -1535 c0 -7 25 -40 56 -75 45 -52 71 -71 142 -105 48 -22 102 -43 122
-46 19 -3 41 -10 47 -16 7 -5 22 -7 33 -4 28 7 25 -9 -2 -18 -15 -4 -18 -8
-10 -12 7 -2 34 2 60 10 66 22 223 42 313 41 63 0 76 2 75 15 -1 11 9 17 31
19 21 2 37 11 44 23 6 12 13 18 16 15 6 -6 86 24 94 36 3 4 18 9 33 10 15 1
32 11 38 22 8 15 12 16 19 5 7 -11 9 -11 9 -1 0 7 11 29 24 48 l24 35 6 -37
c14 -71 -25 -115 -146 -168 -32 -14 -58 -31 -59 -38 0 -10 -2 -10 -6 0 -8 20
-25 13 -18 -8 5 -15 2 -20 -14 -20 -28 0 -61 -46 -61 -87 l0 -35 45 6 c44 7
44 7 65 -33 l20 -40 -28 -15 c-31 -16 -187 -11 -209 6 -13 10 -219 5 -528 -13
-198 -12 -178 -11 -235 -9 -25 1 -106 1 -180 0 -74 -1 -148 2 -165 7 -28 9
-30 14 -37 69 -6 59 -6 59 33 96 21 20 39 41 39 46 0 6 14 13 31 17 28 6 30
10 23 33 -4 15 -8 40 -8 57 -1 28 3 31 48 42 27 7 55 21 63 33 8 11 22 20 31
20 18 0 82 55 82 71 0 5 9 9 20 9 11 0 20 -5 20 -11z"/>
<path d="M6617 7163 c4 -10 16 -34 28 -53 40 -67 51 -111 43 -170 -5 -30 -12
-57 -16 -60 -5 -3 -12 -13 -15 -23 -4 -11 -16 -21 -27 -24 -15 -4 -18 -11 -14
-27 4 -16 -1 -25 -20 -36 -14 -7 -26 -22 -26 -32 0 -11 -5 -29 -11 -40 -8 -15
-8 -27 0 -45 10 -21 16 -24 39 -18 15 4 32 8 37 9 6 1 16 5 22 9 20 13 136 -4
158 -22 11 -10 32 -25 47 -34 14 -9 32 -33 39 -54 17 -52 49 -83 49 -47 0 24
-43 114 -55 114 -6 0 -19 16 -29 35 -11 19 -23 35 -28 35 -4 0 -8 6 -8 13 0
15 -45 57 -60 57 -14 0 -13 27 2 36 7 4 8 3 4 -4 -4 -7 -1 -12 8 -12 8 0 28
-12 45 -26 17 -14 31 -21 31 -15 0 16 -42 61 -57 61 -7 0 -13 4 -13 9 0 5 -14
11 -31 15 -30 6 -31 8 -26 43 9 54 -3 150 -22 170 -9 10 -17 34 -19 53 -4 46
-33 94 -60 98 -18 3 -21 0 -15 -15z"/>
<path d="M2784 7119 c-20 -23 -11 -53 21 -67 14 -6 25 -15 25 -20 0 -4 31 -34
69 -65 56 -47 68 -62 64 -80 -5 -17 -3 -20 7 -10 10 9 22 5 53 -18 22 -16 43
-27 45 -24 6 6 -50 70 -82 94 -18 13 -72 60 -105 91 -9 8 -31 26 -49 38 -41
30 -46 62 -4 34 15 -10 53 -36 86 -57 32 -21 60 -45 63 -52 3 -7 11 -13 18
-13 8 0 20 -6 27 -12 7 -7 21 -14 30 -16 34 -5 7 28 -56 70 -33 23 -65 48 -69
55 -5 7 -35 26 -67 42 -57 27 -60 27 -76 10z"/>
<path d="M3321 6734 c-30 -8 -56 -16 -57 -17 -1 -1 -11 -19 -22 -39 -16 -32
-18 -45 -10 -90 13 -71 43 -113 103 -142 107 -51 172 -55 196 -10 7 13 16 24
21 24 11 0 10 48 -2 71 -8 15 -7 19 5 19 24 0 18 16 -20 54 -19 20 -35 40 -35
46 0 5 -5 10 -11 10 -5 0 -22 13 -37 29 -52 55 -70 61 -131 45z m109 -73 c0
-11 5 -23 10 -26 6 -3 10 -13 10 -22 0 -8 9 -26 20 -40 40 -51 10 -110 -53
-105 -45 4 -101 30 -116 54 -11 18 -18 124 -8 134 5 6 85 21 115 23 15 1 22
-5 22 -18z"/>
<path d="M5303 5306 c-50 -37 -63 -52 -69 -81 -9 -48 1 -99 24 -133 19 -25 19
-31 6 -97 -13 -65 -36 -235 -48 -348 -4 -39 -2 -48 9 -43 9 3 16 -5 20 -25 4
-16 11 -29 17 -29 6 0 7 7 4 16 -6 15 6 80 20 119 6 14 3 17 -12 13 -18 -5
-19 0 -12 76 4 45 12 108 17 141 6 33 13 71 14 85 8 54 19 70 62 90 54 25 85
77 66 113 -11 22 -19 56 -20 88 -1 9 -9 27 -19 39 l-18 22 -61 -46z"/>
<path d="M3294 4847 c-59 -35 -91 -69 -103 -109 -7 -24 -22 -64 -33 -89 -24
-55 -18 -103 15 -121 26 -14 91 -12 121 4 31 16 86 78 92 104 4 13 10 24 15
24 15 0 -2 163 -19 183 -17 20 -58 22 -88 4z m58 -79 c6 -13 12 -47 12 -75 1
-44 -3 -57 -26 -79 -36 -37 -115 -45 -141 -16 -21 23 -16 72 9 93 8 6 14 16
14 21 0 5 14 25 32 44 39 41 81 46 100 12z"/>
<path d="M5490 3610 c-24 -18 -24 -19 -6 -33 31 -23 26 -111 -10 -177 -16 -29
-35 -55 -44 -58 -18 -7 -30 -23 -24 -34 3 -4 19 1 37 11 21 12 42 37 62 78
l30 61 28 -38 c20 -28 38 -41 62 -46 40 -7 105 3 105 16 0 5 9 12 20 15 11 3
20 11 20 17 0 6 -8 7 -17 3 -35 -14 -76 -11 -113 7 -32 16 -39 27 -56 79 -10
33 -27 65 -36 70 -10 5 -18 19 -18 29 0 25 -8 25 -40 0z"/>
<path d="M2636 3295 c4 -16 17 -46 30 -66 25 -40 18 -59 -23 -59 -14 0 -23 -6
-23 -15 0 -8 7 -15 15 -15 8 0 15 -4 15 -10 0 -5 7 -10 16 -10 11 0 14 5 10
16 -4 12 -1 14 14 9 11 -4 20 -2 20 3 0 6 16 -4 35 -21 19 -17 35 -34 35 -39
0 -8 61 -67 70 -68 3 0 12 5 20 10 13 8 10 14 -15 35 -16 14 -42 32 -57 40
-16 9 -28 23 -28 32 0 15 2 15 18 1 9 -9 33 -24 53 -34 21 -11 58 -34 83 -52
41 -29 66 -35 66 -14 0 4 -24 23 -53 42 -28 19 -57 40 -64 46 -6 6 -26 17 -45
24 -32 14 -123 73 -143 94 -6 6 -21 27 -33 46 l-23 35 7 -30z"/>
<path d="M2980 2299 c0 -6 -7 -17 -15 -25 -10 -11 -13 -28 -9 -62 3 -26 5 -95
6 -154 0 -60 4 -108 9 -108 5 0 9 11 9 25 0 14 4 25 9 25 12 0 22 -30 14 -43
-11 -17 -14 -759 -3 -752 6 4 10 45 11 93 0 48 5 137 10 197 5 61 10 117 10
125 1 8 -2 53 -6 100 -8 107 -8 96 -2 157 6 54 23 83 51 83 9 0 16 4 16 8 0 5
-13 7 -30 4 -29 -4 -30 -4 -19 27 13 38 4 74 -12 51 -8 -12 -9 -9 -5 10 3 14
6 29 6 33 0 5 4 5 10 2 6 -4 9 9 8 32 -1 21 1 67 5 103 6 61 6 63 -6 30 -9
-23 -16 -30 -19 -20 -3 8 -8 12 -12 9 -4 -3 -2 -18 4 -33 5 -15 7 -39 3 -54
-4 -15 -7 -36 -8 -47 -2 -37 -17 -105 -24 -105 -9 0 -7 206 3 258 6 29 5 42
-3 42 -6 0 -11 -5 -11 -11z"/>
<path d="M501 777 c-23 -7 -38 -20 -45 -39 -6 -15 -15 -27 -20 -25 -14 5 -56
-78 -73 -143 -22 -86 -16 -270 11 -345 13 -33 33 -97 46 -143 l23 -82 64 0
c58 0 64 2 58 17 -4 10 -11 34 -16 53 -7 33 -37 143 -73 270 -38 133 -7 340
57 388 14 11 15 17 7 27 -7 8 -9 19 -5 25 3 5 5 10 3 9 -2 -1 -18 -6 -37 -12z"/>
</g>
</svg>
