<?xml version="1.0" standalone="no"?>
<!DOCTYPE svg PUBLIC "-//W3C//DTD SVG 20010904//EN"
 "http://www.w3.org/TR/2001/REC-SVG-20010904/DTD/svg10.dtd">
<svg version="1.0" xmlns="http://www.w3.org/2000/svg"
 width="786.000000pt" height="840.000000pt" viewBox="0 0 786.000000 840.000000"
 preserveAspectRatio="xMidYMid meet">
<metadata>
Created by potrace 1.16, written by Peter Selinger 2001-2019
</metadata>
<g transform="translate(0.000000,840.000000) scale(0.100000,-0.100000)"
fill="#000000" stroke="none">
<path d="M7407 8330 c-3 -11 -1 -23 5 -26 5 -3 2 -14 -7 -24 -23 -26 -9 -47
16 -24 17 16 19 16 19 1 0 -16 -17 -22 -47 -18 -7 1 -13 -5 -13 -14 0 -9 -6
-23 -14 -31 -8 -7 -13 -19 -12 -26 3 -24 31 -78 39 -78 5 0 5 -5 2 -11 -10
-14 65 -78 93 -79 12 0 22 -5 22 -10 0 -7 6 -6 13 2 12 10 10 15 -6 29 -14 11
-17 18 -9 23 7 4 12 3 12 -3 0 -5 10 -11 23 -13 14 -2 21 -9 19 -20 -4 -25 88
-29 113 -6 10 10 15 21 12 25 -4 3 -7 1 -7 -6 0 -7 -4 -9 -10 -6 -21 13 -8 25
28 25 43 0 68 13 58 29 -4 6 -2 10 4 9 7 -2 14 7 16 20 2 12 0 22 -4 22 -4 0
-8 19 -8 43 0 23 -3 49 -7 58 -6 13 -1 18 23 22 18 4 39 2 50 -5 10 -7 23 -9
27 -5 4 5 1 12 -7 17 -10 7 -11 10 -2 10 18 0 15 37 -4 44 -22 8 -26 8 -19 -4
3 -5 1 -10 -4 -10 -6 0 -11 5 -11 11 0 6 -12 9 -28 8 -15 -2 -33 0 -39 4 -7 5
-35 8 -63 9 -27 0 -50 4 -50 9 0 5 -7 9 -15 9 -8 0 -15 -5 -15 -11 0 -5 -5 -7
-12 -3 -16 10 -78 12 -78 2 0 -4 -7 -8 -15 -8 -8 0 -15 7 -15 15 0 21 -17 19
-30 -4 -7 -14 -6 -21 3 -24 6 -2 8 -8 4 -13 -11 -12 -28 17 -23 39 6 24 -20
22 -27 -3z m283 -77 c0 -17 5 -35 10 -38 6 -3 10 -15 10 -27 0 -15 5 -19 20
-15 24 6 22 -15 -2 -25 -19 -8 -25 -38 -8 -38 6 0 10 -5 10 -11 0 -5 -5 -7
-10 -4 -6 4 -26 -7 -46 -24 -26 -24 -44 -31 -75 -31 -43 0 -119 20 -119 32 0
4 -9 12 -20 18 -14 7 -20 7 -20 0 0 -5 8 -11 18 -11 16 -1 16 -2 0 -6 -10 -2
-18 -9 -18 -15 0 -5 7 -8 15 -4 8 3 15 1 15 -4 0 -6 -10 -10 -21 -10 -16 0
-20 5 -16 20 3 11 2 20 -3 20 -4 0 -5 11 -2 25 3 18 0 24 -9 22 -8 -2 -11 -2
-7 0 4 3 5 18 1 34 -3 18 -1 29 6 29 6 0 11 7 11 16 0 21 18 36 65 56 57 24
80 21 149 -14 12 -6 22 -6 28 0 7 7 3 12 -11 17 -26 8 -21 21 8 21 17 0 21 -7
21 -33z"/>
<path d="M4186 8322 c-3 -6 -107 -10 -248 -9 -167 0 -285 -6 -378 -17 -229
-28 -514 -84 -644 -125 -34 -11 -132 -43 -219 -70 -88 -28 -164 -48 -170 -44
-7 3 -9 3 -5 -2 12 -12 -48 -45 -86 -48 -19 -1 -32 -5 -29 -10 2 -4 -6 -11
-19 -16 -112 -43 -471 -238 -531 -289 -9 -9 -26 -20 -36 -26 -41 -23 -135 -91
-227 -162 -52 -41 -100 -71 -106 -68 -6 4 -8 3 -5 -3 4 -6 -26 -39 -65 -74
-206 -182 -465 -470 -583 -648 -17 -25 -47 -68 -66 -96 -103 -147 -249 -419
-344 -640 -90 -210 -164 -447 -230 -740 -23 -101 -22 -94 -47 -280 -19 -143
-22 -217 -23 -460 0 -374 28 -629 106 -942 17 -68 28 -127 24 -133 -3 -5 -1
-17 4 -27 6 -10 19 -49 30 -88 35 -126 70 -218 128 -333 31 -62 58 -110 60
-108 3 2 -9 46 -26 98 -27 80 -46 131 -91 243 -5 11 -18 52 -31 90 -12 39 -25
75 -29 80 -10 14 -55 180 -80 295 -53 241 -71 412 -77 721 l-5 296 33 -3 c29
-3 30 -2 9 4 -24 8 -25 10 -24 100 3 199 89 638 173 882 81 239 237 584 326
726 68 107 148 229 154 234 3 3 14 19 23 35 10 17 22 29 28 27 7 -1 8 3 4 9
-3 6 -2 14 3 18 5 3 20 22 33 41 69 99 229 287 360 423 216 224 577 492 885
657 128 69 253 130 264 130 15 0 123 50 141 65 8 7 29 15 45 18 17 3 48 14 70
23 22 10 45 18 50 20 6 1 55 15 110 32 93 28 267 71 430 106 73 16 260 40 425
55 52 4 186 8 298 8 l202 -1 1 -60 2 -61 8 75 c7 74 6 90 -5 72z"/>
<path d="M4173 8148 c-9 -154 -38 -468 -42 -468 -3 -1 -108 -2 -233 -4 -159
-1 -225 1 -220 8 3 6 -5 4 -18 -5 -22 -14 -46 -19 -152 -33 -19 -2 -38 -16
-22 -16 5 0 41 5 79 11 39 5 99 12 135 14 102 7 419 7 430 0 5 -3 8 -16 6 -28
-3 -12 -5 -38 -5 -57 l-1 -35 -162 3 c-173 3 -489 -26 -584 -54 l-49 -14 55 5
c30 2 102 11 160 19 180 27 556 43 575 25 2 -3 -1 -91 -7 -196 l-11 -190 -201
-6 c-111 -3 -235 -11 -276 -17 -164 -24 -299 -53 -385 -81 -94 -30 -134 -38
-105 -19 13 8 13 10 -1 10 -9 0 -19 -6 -22 -13 -3 -7 -43 -28 -88 -46 -46 -18
-117 -48 -157 -67 -40 -19 -76 -34 -80 -34 -7 0 -172 333 -172 348 0 10 103
57 235 107 33 13 68 26 78 30 12 5 17 2 17 -10 0 -9 4 -14 9 -11 5 4 12 0 15
-6 3 -7 4 -2 3 12 -2 25 27 50 59 50 8 0 22 4 32 9 25 12 150 49 197 57 46 8
81 23 54 24 -40 0 -375 -91 -419 -115 -14 -7 -59 -27 -100 -43 -41 -16 -101
-42 -132 -56 -31 -14 -59 -26 -61 -26 -6 0 -49 101 -45 105 6 7 153 74 208 95
30 12 69 27 85 34 17 8 55 21 85 30 30 9 97 30 148 46 52 17 102 30 113 30 10
0 19 5 19 11 0 6 -8 8 -17 5 -10 -3 -40 -10 -68 -15 -113 -22 -593 -205 -628
-240 -14 -14 -38 -14 -57 0 -12 9 -10 10 8 6 19 -5 21 -3 11 9 -9 11 -15 12
-26 2 -13 -10 -12 -14 3 -25 10 -7 16 -14 13 -16 -2 -2 -31 -19 -64 -38 -33
-19 -69 -39 -80 -46 -11 -7 -30 -18 -42 -24 -13 -7 -23 -16 -23 -21 0 -11 14
-10 26 1 5 5 32 22 59 37 28 15 84 47 125 70 l75 42 28 -55 c16 -30 27 -56 25
-58 -2 -1 -39 -21 -83 -45 -115 -61 -147 -79 -176 -98 -348 -230 -608 -472
-833 -774 -48 -65 -89 -118 -91 -118 -12 0 -55 24 -55 31 0 4 -9 10 -20 14
-19 6 -19 8 7 48 121 192 447 546 638 691 50 38 92 73 93 78 2 4 8 8 13 8 6 0
27 13 47 28 20 16 54 41 75 56 21 16 36 30 34 32 -4 4 -94 -51 -107 -65 -11
-12 -99 -71 -106 -71 -4 0 -26 -17 -49 -37 -23 -21 -70 -63 -105 -93 -51 -45
-122 -110 -184 -169 -28 -27 -88 -94 -131 -146 -28 -33 -52 -62 -56 -65 -22
-20 -129 -164 -191 -255 -300 -447 -483 -956 -534 -1487 -4 -46 -9 -86 -10
-90 -1 -5 -2 -12 -3 -18 0 -5 -38 -11 -83 -13 l-83 -3 83 -2 83 -2 -2 -102
c-2 -57 -7 -106 -12 -109 -6 -4 -6 -13 -1 -20 5 -8 9 -38 11 -67 1 -29 7 -93
12 -142 6 -49 10 -93 9 -97 -6 -25 40 -278 83 -448 35 -141 98 -329 144 -429
17 -39 40 -91 50 -116 21 -49 88 -180 113 -220 9 -14 29 -49 44 -78 27 -52
141 -223 182 -273 11 -15 30 -39 41 -55 24 -34 136 -164 217 -252 32 -35 56
-67 53 -72 -6 -10 12 -23 35 -27 8 -1 20 -10 27 -20 7 -10 17 -23 22 -30 7 -8
7 -13 -2 -16 -9 -3 -9 -9 0 -28 6 -13 14 -46 18 -74 7 -54 27 -106 47 -122 28
-22 198 -6 198 19 0 4 -5 8 -12 8 -6 0 -9 3 -6 6 3 3 16 -1 29 -8 23 -13 33
-20 63 -45 8 -7 18 -13 22 -13 4 0 16 -7 26 -17 10 -9 27 -21 38 -27 11 -6 66
-38 122 -71 240 -141 526 -262 768 -325 55 -15 91 -30 102 -44 11 -13 18 -16
18 -8 0 10 10 12 33 8 17 -3 64 -10 102 -16 39 -6 78 -13 88 -16 9 -3 17 -1
17 3 0 5 -55 19 -122 32 -131 25 -129 24 -288 71 -97 29 -237 78 -285 100 -11
5 -58 25 -105 45 -89 38 -218 105 -332 172 l-67 40 20 33 c40 64 39 64 131 13
82 -45 267 -137 323 -160 17 -7 48 -19 70 -28 22 -9 50 -21 62 -27 11 -6 27
-8 34 -6 7 2 -14 14 -47 27 -123 48 -338 150 -408 195 -30 19 -56 33 -58 30
-3 -2 -15 7 -27 20 -23 24 -23 25 -5 55 11 18 27 31 38 31 17 0 103 44 116 59
3 3 16 8 30 10 14 1 33 7 43 12 11 6 17 6 17 -1 0 -5 -4 -10 -10 -10 -5 0 -9
-3 -8 -7 1 -5 -2 -21 -7 -36 -10 -36 -6 -38 38 -26 52 14 107 67 112 108 2 19
6 36 9 38 3 3 48 -16 100 -41 52 -25 108 -48 123 -52 15 -3 37 -12 48 -19 32
-19 169 -63 255 -81 14 -3 46 -12 72 -20 25 -9 57 -14 70 -12 15 2 -1 10 -47
21 -75 19 -299 91 -352 113 -18 7 -33 18 -33 24 0 6 5 8 10 5 6 -3 10 3 10 14
0 12 -4 21 -9 21 -5 0 -12 14 -16 31 -5 23 -3 34 10 43 25 18 11 56 -20 56
-31 0 -59 41 -59 86 0 18 -3 31 -7 29 -3 -3 -9 11 -12 30 -3 19 -15 48 -26 64
-12 16 -21 38 -21 48 0 19 -24 45 -52 56 -18 6 -78 -13 -78 -25 0 -4 -7 -8
-16 -8 -12 0 -14 -7 -9 -33 9 -40 12 -44 27 -29 7 7 17 12 23 12 16 0 56 -36
53 -46 -1 -5 8 -30 20 -56 12 -26 22 -56 22 -67 0 -12 4 -21 9 -21 13 0 21
-53 9 -67 -6 -7 -19 -13 -30 -13 -17 0 -20 -5 -16 -33 l4 -34 -36 20 c-43 25
-70 52 -70 70 0 7 -3 17 -7 21 -7 6 -19 48 -36 123 -2 7 -6 16 -10 19 -4 4 -7
16 -7 26 0 10 -4 18 -9 18 -5 0 -7 10 -4 21 6 20 3 21 -23 15 -16 -4 -32 -10
-36 -14 -13 -14 -12 -48 4 -82 23 -50 31 -73 32 -90 1 -8 8 -14 16 -12 8 2 12
0 8 -4 -4 -4 -3 -14 4 -21 8 -11 2 -10 -25 3 -20 10 -37 21 -37 25 0 3 -14 12
-30 19 -18 7 -33 22 -36 37 -4 13 -9 22 -11 19 -7 -6 -33 19 -33 32 0 11 -49
26 -57 18 -7 -7 -32 18 -26 26 2 4 -4 5 -13 1 -13 -5 -15 -3 -9 7 5 9 4 11 -4
6 -7 -5 -45 20 -95 63 -94 80 -296 286 -296 303 0 5 -11 19 -25 30 -13 10 -52
58 -87 106 -34 48 -66 92 -71 97 -28 33 -147 250 -147 269 0 9 -4 16 -8 16 -5
0 -25 35 -45 78 -106 229 -217 612 -178 612 6 0 11 7 11 15 0 18 -17 20 -23 3
-7 -21 -29 102 -25 142 2 21 0 36 -3 34 -17 -10 -34 250 -24 366 l7 81 97 -5
c53 -3 86 -3 74 0 -19 5 -21 9 -13 25 15 27 1 114 -22 139 -15 16 -23 18 -39
10 -19 -11 -19 -11 0 -38 11 -15 21 -48 24 -74 l5 -48 -37 0 c-28 1 -32 3 -19
10 9 6 14 18 11 29 -3 10 0 22 6 25 12 8 15 26 4 26 -5 0 -23 -14 -42 -32 -32
-30 -33 -32 -15 -46 18 -14 18 -14 1 -8 -10 3 -23 6 -29 6 -12 0 -4 103 23
280 15 103 65 295 109 420 66 192 110 284 245 519 58 101 162 243 235 324 l25
27 45 -61 c25 -34 52 -69 60 -78 8 -9 33 -39 55 -66 21 -28 42 -52 45 -55 3
-3 17 -21 32 -42 15 -20 34 -42 41 -50 13 -13 151 -184 197 -243 14 -18 72
-90 130 -161 227 -276 330 -410 325 -421 -2 -7 1 -10 8 -8 7 3 54 -49 105
-114 52 -66 101 -127 110 -137 43 -48 82 -103 82 -118 0 -8 6 -13 13 -11 6 2
27 -15 44 -39 18 -23 42 -54 54 -67 l21 -24 -24 -6 c-21 -6 -20 -7 7 -8 25 -2
42 -17 109 -100 43 -53 85 -110 94 -126 69 -133 251 -265 364 -265 l31 0 -6
-97 c-18 -280 -19 -318 -14 -313 3 3 10 79 16 170 6 91 14 182 17 203 6 36 7
37 48 37 86 0 216 50 261 100 10 11 24 20 31 20 7 0 46 -39 86 -87 40 -48 93
-108 118 -133 25 -26 69 -73 99 -106 29 -32 83 -90 120 -128 l65 -68 -27 -22
c-32 -26 -34 -47 -7 -64 11 -7 20 -18 20 -25 0 -8 11 -24 25 -37 14 -13 25
-28 25 -33 0 -5 14 -23 30 -39 17 -15 30 -32 30 -36 0 -4 13 -20 28 -37 16
-16 33 -38 38 -47 8 -15 13 -15 34 -5 14 7 27 23 28 37 3 19 1 22 -10 13 -10
-9 -13 -5 -15 19 -3 32 -20 61 -33 53 -4 -3 -14 3 -21 13 -13 15 -12 16 4 3
10 -8 17 -9 17 -3 0 6 -18 26 -40 43 -22 18 -40 39 -40 48 0 17 33 -15 152
-149 36 -41 92 -102 123 -135 60 -63 89 -102 91 -119 0 -6 2 -19 2 -28 1 -10
6 -18 11 -18 5 0 7 10 4 23 -4 16 7 9 44 -29 74 -79 133 -146 133 -152 0 -3 7
-10 15 -16 13 -9 9 -18 -30 -58 -25 -27 -48 -48 -50 -48 -3 0 -18 -14 -35 -31
-19 -20 -35 -29 -45 -25 -9 3 -13 2 -10 -4 7 -12 -42 -60 -61 -60 -25 0 -15
-15 26 -40 22 -14 40 -27 40 -30 0 -13 82 -90 95 -90 7 0 20 6 27 13 7 7 30
23 51 36 20 12 37 26 37 31 0 7 75 66 118 93 14 9 33 -8 99 -87 19 -23 30 -44
25 -51 -7 -13 -100 -91 -167 -140 -22 -16 -42 -32 -45 -36 -9 -12 -134 -94
-217 -143 -102 -59 -120 -80 -26 -31 132 70 209 120 339 223 30 23 59 40 65
37 5 -4 9 -3 8 2 -4 20 2 27 12 13 9 -13 10 -13 6 1 -3 10 6 27 22 43 l27 26
132 -147 132 -147 -23 -21 c-13 -11 -46 -39 -73 -62 -93 -80 -309 -231 -424
-295 -120 -68 -180 -97 -180 -88 0 6 0 12 0 15 1 3 -7 13 -15 22 -9 9 -14 24
-12 35 3 10 1 16 -3 13 -8 -5 -50 75 -49 92 1 3 -4 9 -9 12 -5 3 -24 39 -42
80 -32 75 -32 80 5 94 6 3 6 8 2 13 -4 4 -17 3 -27 -4 -11 -7 -27 -12 -35 -12
-8 0 -15 -4 -15 -10 0 -5 -4 -10 -10 -10 -5 0 -54 -20 -107 -43 -54 -24 -107
-47 -117 -51 -10 -3 -16 -9 -13 -13 4 -3 21 0 39 7 41 16 142 58 186 77 32 14
52 11 52 -9 0 -5 35 -80 78 -166 l78 -157 -76 -38 c-41 -20 -100 -47 -130 -58
-30 -11 -91 -34 -134 -50 -94 -36 -414 -119 -459 -120 -44 -1 -149 -23 -142
-30 3 -4 29 -2 58 3 124 21 225 41 272 53 168 45 216 59 270 77 91 31 179 66
262 104 42 19 79 34 83 34 8 0 55 -98 49 -103 -10 -9 -125 -60 -197 -88 -42
-16 -86 -34 -97 -39 -11 -5 -56 -21 -100 -35 -75 -24 -122 -44 -101 -45 14 0
88 21 121 35 17 7 41 16 55 20 14 3 34 10 45 15 158 69 290 119 293 110 6 -17
22 -11 22 8 0 12 25 31 83 60 218 110 519 333 734 541 52 51 243 266 291 330
50 64 179 257 213 316 12 22 35 63 51 90 29 51 120 237 152 312 10 23 25 44
32 47 8 3 14 16 14 29 0 22 10 55 53 177 9 25 20 63 26 85 5 22 17 65 25 95
30 104 74 345 87 478 l13 132 65 -5 66 -4 -59 9 c-32 5 -61 11 -63 13 -1 2 -5
109 -8 238 -2 129 -6 245 -9 259 -2 14 -11 79 -20 145 -32 230 -97 483 -181
700 -34 88 -42 120 -26 111 6 -4 11 -2 11 3 0 6 -7 11 -15 11 -16 0 -21 25 -6
34 21 13 41 -6 35 -33 -6 -25 -6 -25 10 -6 15 18 16 19 9 1 -4 -13 -2 -17 8
-14 8 3 13 15 12 27 -3 22 12 30 19 10 2 -6 18 4 35 22 23 23 33 44 36 73 9
88 6 114 -15 133 -12 10 -18 12 -14 6 4 -7 3 -13 -3 -13 -6 0 -8 -7 -4 -16 5
-13 1 -15 -18 -10 l-24 7 23 -20 c15 -13 18 -21 10 -24 -9 -3 -6 -10 10 -22
25 -19 30 -55 6 -55 -11 0 -14 6 -9 20 4 11 2 20 -4 20 -6 0 -11 -9 -11 -20 0
-19 -54 -80 -71 -80 -4 0 -17 12 -29 27 -17 21 -20 36 -16 63 9 53 8 72 -5 84
-9 8 -10 5 -5 -16 3 -15 2 -30 -4 -33 -5 -3 -7 0 -4 8 3 8 1 18 -5 22 -7 3
-11 -2 -11 -14 0 -11 -4 -23 -10 -26 -5 -3 -10 -16 -10 -28 -1 -17 -5 -13 -21
18 -28 56 -41 67 -33 27 5 -27 4 -32 -12 -32 -18 0 -58 20 -41 20 4 0 3 8 -2
18 -6 11 -6 23 -1 28 5 5 3 26 -5 49 -8 25 -9 33 -2 21 7 -10 23 -31 36 -45
13 -14 19 -19 14 -11 -16 23 -26 73 -13 65 5 -3 13 1 16 10 4 9 14 15 23 14
34 -3 43 1 37 17 -4 10 -1 14 6 12 7 -3 15 -20 17 -39 5 -34 5 -34 12 11 7 45
7 44 6 -12 -1 -31 1 -54 5 -52 4 2 10 -1 14 -7 4 -8 9 -7 15 2 13 21 11 29 -7
29 -8 0 -12 5 -9 10 4 6 11 8 16 5 22 -14 6 39 -18 59 -44 35 -93 46 -125 27
-16 -8 -28 -19 -28 -23 0 -12 14 -10 28 4 6 6 15 9 19 5 14 -15 -16 -29 -46
-22 -24 5 -39 19 -59 53 -55 94 -87 142 -93 142 -6 0 41 -85 103 -185 7 -11
11 -24 9 -30 -6 -21 -6 -193 1 -189 4 2 10 -1 14 -7 4 -8 3 -9 -4 -5 -7 4 -12
2 -12 -5 0 -7 -6 -4 -14 7 -10 12 -11 21 -4 25 6 4 7 12 3 19 -5 9 -9 9 -15 1
-6 -11 -15 2 -95 142 -50 89 -193 294 -244 353 -17 19 -31 39 -31 44 0 6 -6
10 -14 10 -8 0 -17 8 -21 18 -3 9 -37 50 -75 91 -39 41 -70 79 -69 85 0 6 3 6
6 -1 2 -7 14 -13 25 -13 17 0 19 4 14 25 -5 18 -2 25 9 25 8 0 15 5 15 10 0
18 -46 10 -69 -11 -13 -12 -26 -18 -30 -12 -3 5 -15 16 -27 24 -18 12 -70 56
-180 154 -12 11 -39 33 -59 48 -19 16 -32 33 -29 39 5 7 2 8 -5 3 -8 -4 -25 2
-42 14 -16 12 -29 18 -29 13 0 -12 47 -53 108 -94 74 -50 214 -186 206 -200
-4 -6 -3 -8 4 -4 11 7 156 -130 220 -210 29 -36 42 -62 43 -85 l1 -34 8 30 c4
17 8 26 9 20 1 -5 28 -44 62 -85 63 -79 249 -380 249 -404 0 -7 6 -19 14 -25
37 -31 15 -50 -152 -133 -157 -78 -165 -81 -178 -63 -10 13 -11 21 -3 26 7 4
4 13 -9 25 -21 20 -72 91 -72 100 0 3 -25 42 -55 86 -33 47 -53 87 -51 97 3 9
1 23 -5 31 -8 11 -9 9 -4 -10 7 -25 7 -25 -11 -5 -11 11 -35 40 -54 65 -19 25
-41 51 -48 59 -7 7 -44 50 -82 95 -78 92 -193 200 -329 307 -52 41 -105 84
-119 95 l-26 22 27 0 c32 0 41 6 35 23 -3 8 -9 7 -20 -5 -12 -11 -18 -13 -21
-3 -3 9 -8 9 -21 -2 -18 -15 36 76 111 187 24 35 43 66 43 70 0 4 10 20 23 35
l22 29 28 -22 c16 -12 31 -20 34 -16 8 8 -17 36 -33 36 -22 0 -17 22 16 73 27
43 32 46 50 35 11 -7 20 -16 20 -20 0 -5 5 -8 11 -8 8 0 122 -86 187 -141 7
-6 41 -33 75 -61 34 -28 77 -67 95 -87 17 -20 32 -30 32 -22 0 20 -87 100
-240 222 -57 45 -295 209 -304 209 -2 0 -43 25 -92 55 -49 30 -96 58 -104 61
-8 3 -33 14 -55 24 -48 22 -131 58 -164 71 -21 8 -22 8 -11 -6 7 -8 17 -15 22
-15 13 0 300 -139 318 -154 8 -7 35 -24 60 -37 25 -13 49 -27 55 -32 5 -4 21
-15 34 -25 l24 -19 -34 -45 c-21 -28 -40 -43 -49 -40 -8 3 -50 27 -92 53 -82
52 -179 101 -185 95 -5 -5 45 -34 112 -67 28 -13 52 -26 55 -30 3 -3 29 -20
58 -39 54 -35 62 -49 37 -70 -8 -7 -15 -17 -15 -22 0 -14 -46 -79 -52 -73 -2
3 -5 -1 -5 -7 0 -15 -68 -123 -95 -152 -10 -11 -18 -23 -18 -27 0 -16 -40 1
-121 54 -46 30 -122 71 -169 92 -47 20 -114 50 -149 67 -84 39 -188 78 -231
88 -19 5 -69 18 -110 29 -107 30 -322 70 -410 76 -122 10 -121 10 -115 53 3
20 10 106 14 190 4 84 11 155 14 158 3 4 70 -1 149 -11 79 -10 153 -18 165
-19 13 -2 26 -6 30 -9 3 -4 18 -7 32 -7 59 0 432 -110 596 -175 18 -7 18 -6 5
8 -8 8 -42 25 -75 36 -33 11 -107 37 -165 57 -58 20 -123 40 -145 44 -22 4
-76 17 -120 28 -44 12 -154 30 -245 42 -250 31 -230 24 -230 81 0 26 5 51 12
55 36 23 390 -30 613 -91 180 -50 206 -58 319 -100 38 -14 74 -24 80 -21 6 2
4 5 -4 5 -8 1 -27 7 -42 15 -25 13 -174 66 -283 99 -179 56 -381 92 -622 113
-45 4 -70 11 -68 18 2 6 6 72 10 146 3 74 10 178 15 230 12 117 12 110 2 110
-4 0 -8 -10 -9 -22z m-1532 -1033 c22 -47 37 -90 33 -97 -4 -6 -3 -8 3 -5 13
8 77 -118 67 -134 -4 -7 -3 -10 3 -6 6 4 14 0 17 -9 4 -9 5 -17 4 -18 -2 -1
-14 -7 -27 -14 -13 -8 -38 -22 -55 -31 -156 -88 -273 -165 -360 -236 -31 -25
-62 -43 -68 -39 -6 4 -8 3 -5 -3 4 -6 -11 -24 -32 -41 l-39 -31 -53 61 c-30
34 -61 68 -70 77 -9 9 -37 43 -63 76 -26 33 -51 65 -56 72 -12 15 5 28 22 17
7 -4 8 -3 4 5 -5 7 1 19 12 29 87 74 117 98 180 142 40 28 78 48 84 44 6 -4 8
-3 5 3 -9 14 308 221 341 222 7 1 31 -37 53 -84z m1455 -137 c-3 -73 -11 -198
-16 -278 -6 -80 -12 -188 -15 -240 -9 -174 -17 -245 -30 -264 -12 -16 -11 -22
0 -40 11 -17 12 -33 6 -66 -5 -25 -9 -40 -10 -34 -1 7 -10 14 -20 17 -15 4
-20 -2 -25 -32 -3 -20 -6 -49 -6 -66 0 -34 32 -89 45 -78 6 7 2 -113 -10 -276
-2 -25 -7 -122 -10 -216 -7 -178 -8 -186 -20 -357 l-7 -108 -53 0 c-60 0 -178
-36 -223 -69 -17 -11 -34 -21 -40 -21 -12 0 -99 86 -177 175 -33 38 -85 94
-115 125 -109 112 -189 207 -182 215 4 5 2 5 -4 2 -7 -4 -45 32 -90 83 -43 50
-82 90 -87 90 -5 0 -6 7 -3 16 3 8 2 13 -3 10 -5 -3 -55 44 -112 104 -100 108
-144 160 -121 146 6 -3 13 -2 17 3 3 6 -4 8 -15 6 -24 -5 -82 52 -75 73 3 7 0
10 -5 7 -5 -3 -23 9 -39 27 -16 18 -47 53 -70 78 -22 25 -36 47 -31 48 6 2 7
8 4 14 -4 7 -9 6 -14 -2 -5 -8 -20 2 -48 31 l-40 44 79 73 79 73 -55 55 c-30
30 -55 58 -55 62 0 5 -11 14 -24 20 -21 9 -27 8 -41 -14 -9 -13 -20 -22 -26
-19 -5 4 -7 10 -4 15 3 5 1 11 -5 15 -13 8 -13 -18 0 -31 6 -6 -9 -23 -42 -48
l-52 -38 -18 23 c-10 13 -35 41 -55 62 l-36 39 44 39 c24 22 79 65 122 97 43
31 101 74 129 96 28 21 66 43 85 48 19 5 32 12 29 15 -7 7 30 31 114 75 55 28
55 28 69 8 19 -29 32 -25 20 6 -5 15 -8 28 -7 29 14 10 89 43 163 71 50 19 99
38 110 43 11 5 38 15 60 21 22 6 49 15 60 20 70 29 325 80 495 98 41 5 151 10
244 11 l169 2 -7 -133z m149 117 c109 -9 322 -49 425 -81 152 -46 264 -85 315
-109 265 -123 339 -166 343 -197 2 -18 10 -27 28 -31 13 -2 24 0 24 4 0 5 -9
9 -20 9 -11 0 -20 5 -20 10 0 6 3 10 8 10 11 0 63 -37 65 -46 1 -5 7 -8 13 -6
11 2 136 -88 240 -173 65 -54 267 -257 301 -303 15 -20 33 -42 39 -48 24 -20
210 -296 239 -354 9 -19 23 -42 31 -50 7 -8 14 -42 16 -75 3 -54 5 -57 14 -35
11 24 13 21 49 -55 94 -203 123 -289 104 -311 -6 -8 -9 -23 -6 -35 4 -14 2
-18 -6 -11 -7 5 -34 12 -61 16 -54 7 -80 22 -72 43 3 7 -1 13 -9 13 -8 0 -15
-7 -15 -15 0 -8 -7 -15 -15 -15 -9 0 -19 -8 -22 -17 -4 -10 -13 -23 -21 -28
-11 -9 -10 -13 5 -27 17 -15 41 -20 160 -34 31 -4 54 -12 57 -21 4 -11 10 -11
26 -3 17 9 22 7 31 -17 15 -39 45 -178 54 -243 4 -30 9 -68 11 -85 7 -45 21
-296 18 -330 -1 -16 -2 -54 -3 -82 0 -30 -6 -53 -12 -53 -5 0 -8 4 -5 9 11 17
-27 21 -51 6 -23 -15 -26 -15 -44 6 -22 25 -16 43 12 34 22 -7 49 10 49 30 0
18 -57 27 -101 15 -40 -11 -58 -41 -45 -75 7 -20 -18 -20 -34 0 -16 19 -25 19
-45 -2 -13 -13 -19 -13 -25 -4 -4 7 -10 9 -13 4 -3 -5 -22 -7 -42 -5 l-36 4
33 30 c25 22 30 31 19 37 -8 5 -11 16 -8 25 8 21 -27 40 -59 32 -18 -5 -22 -3
-18 9 4 8 1 21 -4 28 -9 10 -4 12 21 11 18 -1 51 -3 75 -5 49 -3 57 2 44 28
-5 10 -8 39 -8 65 2 61 -7 51 -14 -15 l-5 -51 -49 3 c-61 3 -96 16 -96 34 0 8
-27 38 -59 68 -56 51 -62 54 -115 56 -31 0 -63 4 -71 7 -8 3 -18 -2 -23 -10
-5 -9 -13 -17 -18 -17 -5 -1 -8 -9 -7 -18 2 -12 -3 -16 -16 -12 -28 7 -61 -45
-55 -86 4 -20 2 -31 -4 -27 -6 3 -13 -2 -16 -11 -4 -9 -1 -20 6 -24 10 -6 8
-14 -9 -31 -21 -20 -23 -21 -23 -4 0 27 -30 47 -52 35 -19 -10 -25 -39 -8 -39
6 0 10 -7 10 -16 0 -14 -3 -14 -15 -4 -8 7 -15 21 -15 31 0 24 -12 24 -34 0
-13 -14 -14 -24 -7 -43 18 -48 8 -51 -185 -43 -99 3 -187 9 -196 11 -10 3 -18
1 -18 -4 0 -5 60 -13 133 -17 128 -8 176 -11 197 -14 5 0 -6 -17 -25 -37 -19
-20 -35 -44 -35 -55 0 -10 -4 -19 -10 -19 -5 0 -10 -16 -10 -36 0 -30 8 -44
41 -75 24 -23 51 -39 65 -39 20 0 61 18 109 48 6 4 15 7 20 7 6 1 9 6 7 13 -1
7 6 12 16 12 10 0 23 5 29 11 8 8 25 9 50 4 22 -5 31 -10 21 -12 -16 -4 -16
-6 -3 -19 21 -21 19 -29 -11 -42 -14 -7 -22 -16 -19 -22 3 -5 -9 -17 -27 -26
-25 -13 -36 -14 -50 -5 -33 21 -84 -38 -53 -61 15 -11 115 -10 115 2 0 5 7 7
15 4 19 -8 65 46 86 101 13 35 14 48 4 72 -34 82 -101 104 -171 57 -19 -13
-37 -24 -40 -24 -3 0 -16 -12 -29 -26 -14 -15 -25 -22 -25 -15 0 8 -5 9 -17 2
-13 -7 -23 -3 -40 15 -13 14 -23 27 -23 29 0 5 35 48 63 77 20 21 87 25 87 6
0 -9 4 -8 10 2 14 21 12 28 -7 33 -20 4 190 0 225 -5 12 -2 22 -6 22 -9 0 -4
10 -10 23 -14 42 -15 82 -14 106 2 32 21 211 11 224 -12 10 -18 28 -20 21 -2
-4 10 11 12 63 10 79 -4 191 -10 214 -12 12 -1 16 -9 13 -33 -12 -117 -17
-155 -35 -258 -11 -63 -24 -128 -29 -145 -5 -16 -21 -75 -35 -130 -14 -55 -32
-113 -40 -130 -7 -16 -25 -63 -40 -103 -32 -85 -156 -332 -210 -416 -28 -44
-39 -55 -47 -45 -7 12 -9 11 -7 -1 3 -27 -23 -81 -37 -76 -8 3 -11 0 -8 -8 3
-7 -23 -50 -57 -94 -59 -79 -77 -98 -66 -68 4 11 0 13 -18 10 -18 -3 -30 5
-54 35 -33 41 -39 57 -18 45 8 -5 8 -2 -2 9 -7 9 -19 17 -26 17 -7 0 -19 10
-28 23 -8 12 -39 49 -68 83 -75 85 -98 112 -144 169 -22 27 -48 59 -59 70 -10
11 -37 45 -60 75 -22 30 -49 64 -59 75 -54 59 -141 185 -119 171 17 -10 49 23
58 61 4 15 11 33 16 40 11 14 1 93 -12 93 -4 0 -11 8 -14 18 -18 50 -53 92
-78 92 -10 0 -21 7 -24 15 -4 8 -12 15 -19 15 -7 0 -16 6 -18 13 -4 9 -8 8
-16 -3 -7 -10 -11 -11 -11 -2 0 16 -27 16 -33 0 -4 -10 -7 -10 -15 0 -8 13
-40 14 -52 2 -3 -3 -15 -11 -28 -18 -19 -11 -26 -11 -39 0 -32 26 -112 141
-106 151 3 5 1 7 -4 4 -10 -6 -64 51 -158 167 -47 58 -133 165 -149 185 -9 11
-1 12 49 7 69 -6 160 -13 333 -22 102 -6 122 -9 123 -23 1 -14 2 -14 6 0 3 11
13 14 36 12 23 -3 28 -1 17 5 -8 5 -55 12 -105 16 -227 16 -403 27 -438 28
-29 0 -43 7 -63 32 -14 17 -48 57 -76 89 -28 32 -60 69 -71 83 -10 14 -22 23
-24 20 -5 -5 31 -54 126 -169 l34 -42 -53 -3 c-72 -4 -80 0 -80 47 0 21 -9 67
-20 102 -10 34 -17 66 -14 71 6 10 -69 112 -116 158 -65 62 -120 93 -202 114
l-81 21 2 99 c1 55 4 102 6 105 1 4 6 74 9 156 4 83 11 206 16 275 5 69 14
204 21 300 6 96 12 194 14 218 1 24 11 52 20 62 18 20 41 28 31 11 -3 -5 1
-11 9 -15 26 -10 16 -26 -15 -26 -19 0 -30 -5 -30 -14 0 -19 42 -49 50 -36 3
5 17 11 30 14 24 4 30 27 9 34 -16 6 -10 27 12 40 25 16 23 57 -3 57 -10 0
-27 8 -39 18 -19 17 -22 17 -45 2 l-25 -16 5 78 c3 43 7 108 8 146 1 37 6 67
10 67 4 0 8 -3 9 -7 1 -16 7 -38 14 -55 4 -11 3 -18 -4 -18 -6 0 -10 -11 -9
-25 1 -14 6 -25 10 -25 4 0 8 -6 8 -14 0 -8 10 -22 22 -30 22 -16 22 -16 -10
-16 -33 0 -38 -6 -23 -29 10 -15 101 -28 101 -15 0 5 -7 19 -15 31 -14 21 -14
23 5 35 22 14 26 48 10 79 -8 15 -7 19 3 19 19 0 27 44 13 72 -15 30 -67 58
-73 40 -4 -10 -8 -10 -19 -1 -12 10 -18 8 -30 -7 -17 -22 -17 3 7 363 12 187
13 192 33 188 12 -2 57 -7 101 -10z m-2317 -443 c2 -42 4 -88 6 -102 2 -14 4
-40 4 -58 2 -29 4 -32 27 -26 23 6 37 -9 17 -18 -9 -3 -52 -155 -52 -183 0
-10 8 -23 17 -30 15 -11 12 -18 -28 -66 -57 -68 -133 -170 -148 -198 -7 -11
-15 -21 -20 -21 -4 0 -71 42 -149 93 -77 50 -148 97 -159 103 -16 10 -16 14
-5 36 17 31 121 170 160 213 16 17 31 36 33 42 6 17 212 233 221 233 5 0 7 -4
3 -9 -7 -12 12 -24 25 -16 7 4 7 13 0 25 -8 15 -5 23 12 40 12 11 24 20 27 20
3 0 7 -35 9 -78z m107 -57 c38 -44 74 -84 80 -90 5 -5 20 -22 33 -36 l22 -26
-98 -101 c-99 -103 -127 -122 -117 -79 20 92 35 146 46 174 10 25 10 34 0 47
-7 8 -18 13 -24 10 -9 -3 -13 16 -14 63 -1 38 -5 84 -9 103 -8 40 -12 43 81
-65z m210 -262 c-2 -7 2 -10 9 -7 7 3 19 -2 26 -11 14 -17 -1 -36 -119 -149
-30 -28 -60 -57 -67 -63 -10 -10 -21 -1 -58 48 -25 34 -46 64 -46 68 0 4 43
52 97 105 l96 98 33 -38 c18 -22 31 -44 29 -51z m304 -11 c19 -19 22 -28 14
-41 -6 -9 -20 -15 -32 -14 -12 2 -21 -2 -21 -8 0 -5 5 -7 10 -4 6 3 10 3 10
-1 0 -10 -83 -84 -94 -84 -6 0 -5 5 2 12 19 19 14 53 -13 78 -21 20 -28 22
-49 12 -20 -9 -27 -8 -37 5 -11 13 -9 19 16 39 17 13 37 22 45 18 8 -3 11 -2
7 2 -9 9 22 44 40 44 7 0 13 9 13 21 0 18 5 15 33 -16 17 -21 43 -49 56 -63z
m-220 -65 c6 -8 9 -16 6 -19 -3 -3 2 -22 10 -42 12 -29 21 -37 38 -34 37 4 30
-11 -21 -50 -27 -20 -78 -63 -112 -95 -44 -40 -66 -54 -71 -45 -4 7 -5 16 -3
20 3 5 0 7 -6 6 -6 -2 -25 16 -43 40 l-31 43 34 27 c19 15 64 57 100 93 69 70
81 77 99 56z m-979 -68 l49 -32 -19 -26 c-85 -121 -231 -420 -311 -636 -55
-148 -146 -526 -132 -549 4 -5 15 28 24 74 35 163 51 226 91 355 53 169 128
355 187 465 4 8 25 47 45 85 21 39 58 104 84 146 l46 77 25 -18 c14 -10 73
-48 131 -86 163 -106 171 -113 159 -135 -5 -11 -15 -16 -21 -13 -6 4 -9 3 -5
-2 3 -5 -15 -45 -39 -89 -180 -325 -271 -589 -329 -953 -13 -85 -24 -157 -24
-160 1 -4 1 -20 0 -35 l-1 -29 -122 6 c-68 3 -156 5 -197 6 l-74 0 7 100 c3
56 8 120 11 143 4 38 3 37 -9 -12 -12 -46 -24 -140 -26 -203 0 -14 -9 -18 -44
-18 -67 0 -71 4 -68 58 11 198 65 487 127 687 64 207 199 522 272 638 14 22
35 59 48 81 35 65 60 106 64 106 2 0 25 -14 51 -31z m1289 -271 c23 -26 40
-52 36 -57 -3 -6 0 -8 8 -5 18 7 81 -71 71 -87 -4 -8 -3 -9 4 -5 6 4 43 -27
85 -71 110 -116 135 -146 130 -163 -3 -11 -2 -12 5 -2 6 9 28 -9 83 -70 41
-45 93 -103 117 -127 24 -25 65 -70 92 -101 26 -30 61 -69 77 -86 116 -125
142 -157 136 -166 -4 -7 -1 -8 6 -4 8 5 14 0 18 -13 3 -12 9 -21 13 -21 4 0
33 -25 63 -55 43 -43 53 -58 44 -68 -77 -81 -118 -167 -133 -279 l-6 -46 -50
4 c-31 3 -47 1 -43 -6 3 -5 26 -10 51 -10 l45 0 -2 -50 c-2 -27 0 -53 4 -56 4
-4 7 -12 7 -17 0 -13 -58 47 -96 98 -16 22 -31 42 -34 45 -21 20 -110 133
-110 140 0 5 9 7 20 5 14 -3 22 3 26 20 3 13 15 26 26 28 16 5 19 11 14 30 -5
20 -1 26 17 32 12 4 28 6 35 6 6 -1 12 3 12 8 0 6 12 21 27 35 l27 25 -28 11
c-15 5 -32 7 -37 4 -6 -3 -17 0 -26 8 -15 12 -16 10 -9 -15 6 -27 0 -41 -32
-70 -7 -7 -21 -20 -29 -29 -20 -21 -33 -14 -33 15 0 18 2 19 11 7 9 -12 10
-12 7 -1 -7 27 -26 22 -36 -9 -7 -17 -18 -30 -28 -30 -16 0 -15 -2 2 -22 17
-20 15 -19 -12 2 -17 14 -43 41 -58 60 -30 40 -108 136 -267 330 -61 74 -116
142 -122 150 -61 78 -183 226 -189 228 -5 2 -8 8 -8 13 0 9 -21 37 -51 68 -36
37 -70 91 -64 100 3 6 0 9 -7 6 -17 -6 -141 151 -132 167 4 6 3 8 -4 4 -10 -6
-102 90 -102 107 0 14 74 88 148 148 l73 59 83 -88 c45 -48 101 -108 125 -134z
m4127 -80 c5 -8 2 -9 -9 -5 -11 4 -17 1 -17 -9 0 -9 6 -14 13 -11 6 2 18 -3
25 -12 10 -14 11 -12 6 12 -4 16 -2 27 5 27 6 0 8 -7 4 -17 -5 -11 -3 -14 6
-8 10 6 12 2 7 -16 l-7 -24 16 25 16 25 -6 -27 c-5 -26 7 -36 31 -25 15 6 108
-228 153 -386 94 -329 131 -591 131 -926 0 -163 -2 -182 -16 -177 -9 3 -36 6
-60 6 l-44 0 0 173 c0 278 -41 585 -110 827 -47 165 -55 189 -115 350 -7 19
-29 69 -49 110 -32 68 -34 76 -19 88 21 15 30 15 39 0z m-48 -65 c33 -74 127
-330 150 -408 92 -313 123 -519 128 -857 l4 -218 -43 -2 -42 -1 39 -4 39 -4
-7 -107 c-11 -166 -48 -357 -111 -577 -35 -121 -68 -207 -130 -345 -84 -184
-87 -192 -81 -198 8 -7 5 -13 66 118 114 245 175 432 230 695 20 96 48 290 52
365 3 44 4 45 36 44 100 -4 93 0 87 -41 -11 -91 -25 -202 -30 -253 -12 -103
-92 -437 -124 -510 -6 -14 -31 -78 -56 -144 -48 -126 -110 -256 -187 -398 -53
-99 -137 -228 -147 -228 -3 0 -18 11 -33 24 -14 14 -28 23 -31 20 -2 -2 -9 2
-16 10 -9 11 -3 27 31 77 73 109 142 255 88 186 -11 -14 -20 -30 -20 -36 0
-10 -44 -83 -98 -163 -13 -21 -29 -38 -34 -38 -5 0 -25 12 -44 26 -19 15 -37
24 -40 21 -4 -4 36 -38 75 -64 5 -3 -50 -94 -71 -117 -10 -11 -18 -25 -18 -30
0 -6 11 3 25 19 13 17 29 35 33 41 5 5 14 19 20 30 27 46 28 47 53 32 13 -7
34 -23 48 -35 l25 -22 -54 -78 c-67 -97 -58 -85 -127 -168 -78 -96 -346 -366
-413 -418 -30 -23 -57 -45 -60 -48 -3 -3 -36 -29 -75 -57 -38 -28 -74 -55 -80
-60 -34 -27 -186 -123 -207 -131 -14 -5 -31 -15 -39 -23 -17 -16 -160 -90
-165 -85 -2 2 -15 24 -28 50 l-25 46 53 31 c29 16 57 30 62 30 4 0 24 11 43
23 200 131 243 161 255 173 8 8 17 14 21 14 8 0 67 46 177 138 47 39 94 72
103 72 9 0 14 4 11 8 -3 5 51 67 119 138 69 70 125 131 125 135 0 3 12 20 28
37 15 17 32 36 37 44 6 7 16 21 24 31 7 9 9 17 4 17 -6 0 -30 -26 -54 -57 -24
-32 -66 -81 -94 -109 -27 -29 -84 -87 -125 -130 l-74 -78 -13 42 c-6 23 -11
70 -11 104 1 59 0 62 -25 71 -15 5 -27 16 -27 24 0 19 28 42 51 43 12 0 16 8
15 25 0 14 -5 25 -9 25 -5 0 -6 8 -3 18 14 43 14 135 0 149 -21 22 -17 34 26
83 22 25 57 71 77 103 25 38 42 56 51 52 8 -3 59 -35 112 -70 54 -36 101 -65
104 -65 15 0 4 19 -14 25 -11 3 -26 12 -32 18 -7 7 -44 32 -82 57 -38 25 -73
48 -78 51 -5 3 9 33 31 66 22 33 53 85 70 116 17 31 35 64 40 74 23 40 95 203
126 284 85 222 134 429 171 723 l6 49 116 -5 c65 -3 126 -2 137 2 16 7 -195
16 -241 11 -8 -1 -13 70 -17 231 -5 223 -24 388 -56 505 -16 57 -14 68 14 71
14 1 25 -3 25 -9 0 -6 7 -9 15 -5 36 13 96 -85 75 -124 -10 -19 4 -37 49 -60
29 -15 73 4 69 29 -3 17 -50 61 -66 61 -9 0 -16 16 -20 45 -1 6 13 11 31 11
57 3 59 4 53 20 -3 8 -2 12 4 9 5 -3 14 4 21 16 14 26 -1 60 -44 102 -21 20
-33 25 -45 18 -9 -5 -21 -11 -27 -13 -14 -4 -8 -20 17 -41 18 -15 19 -20 8
-27 -8 -5 -17 -5 -20 -1 -3 5 -20 12 -37 16 -29 6 -32 4 -26 -11 5 -14 3 -14
-14 3 -12 12 -35 24 -52 28 -17 4 -31 10 -31 15 0 4 -9 6 -20 3 -17 -4 -20 -1
-19 23 0 16 3 23 6 16 5 -14 33 29 33 50 0 6 11 21 25 33 l24 23 20 -34 c26
-43 40 -49 77 -29 16 8 24 15 17 15 -7 0 -19 15 -28 33 -9 20 -28 38 -48 46
-25 10 -28 14 -15 19 13 6 10 11 -18 32 -18 14 -34 33 -34 43 0 18 -15 23 -24
8 -4 -5 0 -12 6 -14 7 -3 4 -6 -7 -6 -17 -1 -17 -3 -5 -11 13 -8 12 -10 -2
-10 -24 0 -23 -7 7 -42 26 -31 32 -53 15 -63 -6 -4 -10 5 -10 19 0 14 -4 26
-10 26 -5 0 -10 -7 -10 -15 0 -7 -6 -18 -13 -22 -8 -4 -17 -17 -22 -28 -7 -17
-9 -15 -17 15 -5 19 -15 49 -24 65 -8 17 -36 82 -63 145 l-48 115 51 26 c45
24 52 25 62 11 21 -28 5 -44 -35 -38 l-36 7 28 -26 c28 -25 77 -34 77 -15 0 6
6 10 14 10 7 0 16 8 19 19 3 14 11 17 31 14 34 -7 48 23 21 43 -24 18 -35 18
-35 -1 0 -18 -20 -19 -53 -2 -25 13 -22 15 86 70 62 31 115 56 118 57 3 0 15
-21 27 -47z m-2749 -862 c10 -6 12 -21 8 -52 -4 -24 -9 -107 -13 -184 -3 -77
-8 -142 -9 -144 -5 -4 -41 33 -78 79 -16 19 -67 74 -113 122 l-85 86 30 21
c74 53 224 95 260 72z m191 -47 c139 -71 230 -211 243 -378 l4 -48 -106 6
c-251 15 -245 14 -266 52 -13 25 -21 31 -27 22 -6 -10 -8 -10 -8 2 0 13 -1 13
-10 0 -20 -32 -22 6 -9 195 l13 197 48 -6 c26 -4 79 -23 118 -42z m-480 -92
c0 -8 3 -12 6 -9 4 4 22 -12 40 -36 24 -30 30 -44 21 -50 -8 -6 -7 -7 4 -4 17
5 139 -102 139 -122 0 -5 6 -14 14 -18 8 -4 18 -21 22 -37 l7 -29 -187 7
c-217 8 -235 12 -229 53 14 96 41 157 101 231 33 40 62 47 62 14z m-2620 -148
c85 -3 166 -8 180 -9 14 -2 35 -3 48 -4 22 -1 22 -2 23 -178 0 -98 4 -202 8
-232 12 -85 2 -91 -214 -112 -60 -6 -123 -12 -140 -12 l-30 -2 -7 75 c-5 41
-9 164 -10 273 -3 159 -6 196 -16 192 -21 -8 -122 7 -122 18 0 6 24 7 63 4 34
-4 132 -9 217 -13z m4885 -5 c4 -6 14 -8 22 -5 22 9 96 -73 82 -91 -9 -10 -7
-13 10 -13 15 0 21 -6 21 -21 0 -11 4 -18 8 -15 4 2 14 1 21 -3 8 -6 2 -10
-19 -15 -24 -4 -42 0 -64 14 -46 28 -109 36 -129 16 -8 -9 -26 -16 -40 -16
-19 0 -26 8 -35 37 -8 24 -8 41 -2 47 6 6 10 18 10 29 0 10 4 16 9 13 4 -3 16
3 26 14 19 21 69 27 80 9z m-2081 -165 c91 -7 88 -3 80 -112 -4 -53 -8 -108
-9 -122 -1 -14 -3 -59 -4 -100 -1 -41 -5 -81 -9 -88 -21 -33 -209 44 -265 108
-81 95 -114 150 -102 171 4 5 1 8 -6 7 -7 -2 -14 2 -14 7 -1 6 -4 21 -8 35 -3
14 -8 45 -12 69 l-6 44 152 -7 c84 -4 175 -10 203 -12z m136 -34 c10 0 20 -4
22 -9 5 -13 104 -124 176 -197 34 -34 62 -67 62 -72 0 -35 -157 -108 -254
-118 l-66 -7 0 76 c0 42 4 109 10 149 5 40 11 98 14 128 7 77 7 76 13 63 2 -7
13 -13 23 -13z m368 4 c27 -6 32 -11 32 -36 0 -17 4 -27 10 -23 6 3 10 18 10
31 l0 26 83 -7 c78 -7 107 -16 107 -36 0 -5 8 -17 18 -27 29 -31 74 -84 142
-167 35 -44 79 -96 97 -115 19 -20 31 -41 27 -50 -3 -8 -2 -12 1 -8 8 7 26
-10 76 -72 54 -68 75 -101 57 -95 -11 4 -17 -11 -26 -67 -13 -80 -8 -115 20
-139 10 -9 18 -21 18 -27 0 -6 9 -16 20 -22 11 -6 20 -17 20 -25 0 -9 10 -15
25 -15 15 0 25 -6 25 -14 0 -16 70 -28 71 -11 0 5 3 4 6 -2 6 -15 49 -17 58
-3 4 6 11 8 16 5 11 -7 12 7 2 21 -14 17 71 -71 92 -96 11 -14 42 -54 69 -90
27 -36 54 -69 60 -75 6 -5 29 -34 51 -62 21 -29 42 -53 45 -53 11 0 40 -57 33
-64 -4 -4 1 -4 12 0 14 6 17 4 12 -9 -4 -10 -2 -16 6 -14 7 1 11 -7 9 -22 -3
-19 0 -23 14 -17 15 6 13 2 -5 -18 -14 -15 -30 -26 -36 -26 -7 0 -32 -19 -56
-43 -24 -23 -65 -56 -90 -74 l-46 -32 -49 53 c-58 62 -94 104 -94 111 0 2 -25
29 -55 60 -30 31 -55 59 -55 62 0 3 -20 26 -45 52 -25 25 -62 64 -82 87 -21
22 -57 62 -81 88 -24 26 -40 51 -36 58 4 6 3 8 -3 5 -6 -4 -36 21 -66 56 -31
34 -65 73 -78 87 -14 17 -23 21 -26 13 -3 -7 -9 -13 -15 -13 -6 0 -6 6 2 15
10 12 2 25 -47 77 -143 151 -342 368 -387 422 -42 49 -47 60 -34 67 24 13 78
106 77 132 0 21 -1 21 -9 2 -19 -44 -76 -120 -90 -120 -8 0 -23 16 -32 35 -10
19 -44 62 -76 95 -32 33 -76 80 -98 104 l-39 44 150 -6 c83 -4 165 -10 183
-13z m-3030 -381 c6 -27 16 -76 22 -110 14 -83 45 -199 82 -308 37 -112 114
-302 134 -333 14 -21 12 -23 -18 -42 -18 -11 -34 -15 -36 -10 -2 6 -8 10 -13
10 -6 0 -8 -4 -5 -9 3 -5 -9 -18 -26 -29 -23 -15 -35 -18 -40 -9 -9 15 -2 25
33 46 l29 18 -26 14 c-23 12 -30 11 -63 -7 -26 -14 -45 -18 -59 -13 -25 9 -46
-18 -36 -45 8 -21 61 -46 82 -39 34 12 5 -5 -75 -45 l-83 -42 -49 103 c-27 56
-54 122 -61 147 -7 25 -16 50 -21 56 -13 16 -54 147 -51 167 1 9 -2 17 -7 17
-10 0 -46 114 -56 175 -3 22 -11 47 -16 55 -17 24 -3 -70 21 -139 11 -33 20
-70 20 -81 0 -11 4 -28 10 -38 5 -9 26 -66 46 -127 20 -60 43 -123 52 -140 9
-16 26 -52 38 -80 12 -27 29 -66 37 -87 l17 -36 -51 -27 c-28 -14 -52 -25 -54
-23 -1 2 -25 53 -52 113 -90 195 -132 313 -177 493 -43 170 -63 266 -72 340
l-6 57 38 2 c21 1 48 4 60 7 17 5 23 2 22 -11 -1 -27 31 -195 38 -202 8 -7 -4
117 -16 172 -4 20 -4 39 0 42 4 3 81 12 170 20 90 8 165 17 168 20 3 3 13 5
22 5 11 0 20 -15 28 -47z m3898 -213 c14 0 44 -38 44 -55 0 -7 5 -17 10 -20
18 -11 42 -67 35 -83 -3 -10 -5 -17 -3 -17 2 -1 -5 -13 -15 -28 -10 -15 -15
-33 -11 -40 9 -14 -35 21 -53 43 -7 8 -10 21 -8 27 2 7 0 12 -6 10 -5 -1 -39
34 -74 78 -45 56 -60 81 -50 83 8 2 15 7 15 12 0 4 16 8 36 8 19 0 38 3 42 7
3 3 12 -1 18 -9 6 -9 15 -16 20 -16z m-66 -130 c14 -18 37 -46 51 -64 40 -48
42 -64 10 -60 -15 2 -39 9 -53 16 -34 18 -88 73 -88 90 0 7 -7 23 -15 35 -8
12 -13 28 -10 37 17 54 15 53 48 15 18 -20 43 -51 57 -69z m-3524 -544 c20
-38 42 -76 50 -83 8 -8 19 -24 25 -35 6 -12 31 -49 55 -82 50 -69 48 -67 92
-122 17 -23 32 -45 32 -49 0 -4 17 -24 38 -45 20 -20 64 -66 98 -101 72 -76
203 -200 259 -248 39 -33 40 -33 11 -28 -22 4 -30 0 -33 -14 -3 -10 -10 -16
-15 -13 -12 8 -46 -23 -63 -57 -15 -28 -10 -69 8 -69 6 0 3 -6 -8 -13 -28 -21
-10 -39 23 -22 18 10 29 25 32 47 4 24 16 39 46 60 40 27 41 27 77 10 20 -9
35 -22 33 -28 -3 -6 3 -11 12 -10 11 1 18 -9 22 -29 3 -16 11 -29 17 -28 8 2
9 -7 3 -27 -4 -15 -6 -31 -2 -34 9 -10 -35 -89 -68 -119 -16 -16 -30 -24 -30
-19 0 5 -11 13 -24 16 -14 3 -28 15 -31 27 -5 16 -14 19 -38 17 -46 -4 -47
-32 -2 -75 28 -28 42 -34 65 -31 19 3 27 1 23 -6 -11 -20 -36 -46 -43 -46 -12
0 -107 67 -182 128 -60 47 -66 56 -53 69 27 27 12 154 -17 137 -6 -4 -8 -3 -5
3 23 38 -117 47 -160 11 -13 -10 -34 7 -132 107 -65 66 -136 145 -159 175 -22
30 -67 90 -99 132 -96 127 -263 402 -251 413 2 3 80 43 172 90 132 67 171 84
178 73 5 -7 25 -44 44 -82z m-378 -158 c56 -111 152 -265 209 -338 7 -8 48
-61 92 -117 45 -57 125 -148 178 -204 68 -71 97 -108 95 -122 -4 -31 -10 -33
-33 -8 -11 12 -28 20 -37 17 -68 -18 -69 -17 -108 30 -21 25 -59 67 -84 92
-25 26 -63 70 -85 97 -22 28 -45 57 -52 65 -43 53 -151 211 -195 285 -19 33
-56 95 -81 137 l-47 78 48 24 c26 14 52 25 57 26 6 0 25 -28 43 -62z m4479 -5
c14 -16 38 -46 54 -67 l29 -39 -32 -26 c-18 -14 -67 -58 -110 -98 -48 -44 -84
-70 -92 -67 -15 6 -32 61 -22 71 15 15 -17 43 -49 43 -44 0 -56 19 -24 39 13
9 34 26 47 39 13 12 27 22 32 22 5 0 13 6 17 13 11 18 106 97 117 97 5 0 20
-12 33 -27z m158 -194 l47 -61 -106 -105 -105 -106 -60 69 -60 69 72 67 c40
36 83 77 96 90 23 21 47 36 63 37 4 1 28 -27 53 -60z m-436 4 c0 -5 -4 -17 -8
-28 -20 -50 37 -106 75 -74 14 11 18 10 31 -6 13 -19 11 -23 -34 -62 -26 -24
-51 -43 -55 -43 -13 0 -118 -74 -118 -82 0 -17 -28 -7 -42 15 -9 12 -32 38
-53 59 -35 34 -36 37 -18 47 11 6 23 7 27 3 4 -3 4 1 0 11 -3 10 -1 17 5 17
11 0 23 9 84 62 18 15 35 28 40 28 4 0 7 5 7 10 0 14 33 48 48 49 6 1 12 -2
11 -6z m510 -92 c10 -7 12 -20 6 -57 -5 -27 -9 -65 -9 -85 -1 -24 -8 -43 -22
-55 -12 -11 -25 -32 -28 -47 -6 -25 -3 -30 21 -39 26 -10 28 -14 28 -67 0 -31
3 -69 8 -86 6 -26 -4 -18 -68 50 -41 44 -75 85 -75 90 0 6 -18 29 -40 50 -22
21 -40 42 -40 46 0 7 192 207 200 208 3 0 11 -3 19 -8z m-3783 -757 c23 -19
45 -34 50 -34 5 0 21 -10 35 -23 l27 -22 -20 -25 c-11 -14 -26 -34 -34 -44
-17 -24 -37 -16 -111 43 l-52 42 15 34 c8 19 14 41 14 50 0 20 -49 40 -64 25
-7 -7 -6 -10 5 -10 12 0 12 -2 0 -9 -12 -8 -13 -12 -1 -25 11 -14 10 -16 -5
-9 -15 5 -17 3 -12 -11 5 -12 -7 -7 -39 15 -67 49 -68 52 -26 73 20 10 44 22
52 26 16 8 93 -37 166 -96z"/>
<path d="M4093 6043 c-16 -6 -17 -37 -2 -65 8 -16 8 -22 -2 -29 -10 -6 -10
-13 -1 -33 10 -24 10 -26 -11 -27 -17 -1 -18 -2 -4 -6 9 -2 17 -8 17 -13 0 -4
12 -12 28 -18 23 -8 30 -6 45 14 23 30 22 33 -13 76 -25 31 -27 37 -13 42 20
8 47 -15 68 -60 18 -38 40 -47 29 -11 -14 43 -95 138 -118 136 -6 0 -17 -3
-23 -6z"/>
<path d="M6050 5185 c-5 -14 -14 -25 -20 -25 -5 0 -10 -4 -10 -10 0 -5 5 -10
10 -10 6 0 21 -10 33 -23 12 -13 39 -31 59 -40 20 -10 40 -21 42 -26 3 -5 -19
-22 -49 -37 -33 -17 -53 -34 -50 -41 2 -7 1 -13 -3 -13 -15 0 -30 -53 -25 -88
8 -59 21 -86 58 -117 19 -15 35 -34 35 -41 0 -31 148 -72 193 -55 37 15 83 64
100 108 14 37 14 43 1 54 -21 17 3 31 28 16 16 -10 23 -8 39 12 20 24 26 46 9
36 -5 -3 -17 6 -26 20 -9 13 -20 22 -25 20 -4 -3 -17 3 -29 15 -11 11 -22 20
-25 20 -17 1 -35 14 -35 26 0 8 -7 14 -15 14 -8 0 -15 5 -15 11 0 5 -4 7 -10
4 -5 -3 -10 0 -10 8 0 8 -23 27 -52 42 -29 16 -67 42 -85 59 -47 46 -65 60
-91 73 -20 11 -24 10 -32 -12z m180 -216 c0 -7 12 -10 29 -7 17 2 28 2 27 -1
-2 -3 0 -24 4 -46 4 -22 8 -30 9 -18 2 36 17 35 50 -2 41 -47 42 -91 3 -128
-16 -15 -31 -24 -35 -20 -4 3 -7 0 -7 -8 0 -12 -2 -12 -9 0 -5 8 -7 20 -4 28
3 7 0 13 -6 13 -6 0 -11 -11 -11 -25 0 -20 -5 -25 -26 -25 -34 0 -110 47 -123
77 -6 13 -15 23 -21 23 -15 0 -12 63 4 95 8 15 25 33 38 40 29 16 78 19 78 4z"/>
<path d="M5326 4089 c-16 -10 -32 -22 -35 -26 -3 -5 -14 -12 -23 -16 -24 -9
-23 -39 2 -59 18 -16 20 -16 37 6 24 30 45 22 106 -37 24 -25 51 -49 59 -53 7
-5 24 -22 36 -38 12 -16 22 -25 22 -20 0 5 5 2 10 -6 6 -10 2 -24 -15 -46 -23
-30 -23 -32 -6 -48 24 -22 30 -20 58 12 l24 27 19 -25 c11 -14 20 -31 20 -37
0 -18 28 -16 46 2 20 20 9 55 -15 48 -14 -4 -18 2 -18 29 0 18 7 38 16 45 14
10 13 14 -9 32 -29 24 -44 27 -37 7 8 -21 -39 -17 -59 5 -10 11 -15 22 -12 25
9 8 -80 101 -142 148 -55 42 -55 42 -84 25z"/>
<path d="M4845 3672 c-5 -4 -16 -15 -24 -25 -13 -16 -10 -22 24 -54 29 -27 34
-37 24 -44 -10 -6 -11 -9 -2 -9 16 0 93 -74 93 -88 0 -5 7 -15 15 -22 8 -7 12
-16 9 -21 -3 -5 2 -9 10 -9 9 0 15 -3 14 -7 -3 -16 15 -43 27 -43 7 0 22 -15
33 -32 34 -54 77 -91 100 -84 25 8 36 34 21 52 -6 8 -8 14 -4 14 4 0 -7 12
-24 27 -17 15 -31 34 -31 41 0 7 -18 30 -40 49 -22 20 -40 41 -40 47 0 6 -14
20 -30 31 -16 11 -30 25 -30 30 0 6 -17 29 -38 52 -21 22 -36 45 -34 52 2 6
-3 11 -11 11 -8 0 -17 9 -20 20 -5 20 -24 26 -42 12z"/>
<path d="M7550 7851 c-14 -3 -26 -15 -28 -25 -4 -19 -3 -19 23 -2 15 10 30 15
33 11 4 -3 0 -10 -7 -14 -17 -11 -5 -17 39 -19 19 -1 47 -7 63 -13 20 -9 31
-8 41 0 10 9 15 9 18 0 2 -6 25 -13 51 -16 26 -3 47 -9 47 -14 0 -5 7 -6 16
-2 13 5 13 7 2 14 -10 7 -10 9 0 9 6 0 12 9 12 20 0 18 -8 24 -27 18 -5 -1 -7
-9 -5 -16 2 -8 -2 -12 -10 -10 -7 3 -12 13 -10 22 3 14 -1 16 -17 11 -10 -3
-22 -1 -26 5 -3 6 -11 8 -16 5 -5 -4 -9 -1 -9 5 0 8 -9 10 -24 6 -14 -3 -28
-2 -31 4 -7 11 -94 12 -135 1z"/>
<path d="M5960 7741 c0 -5 24 -23 54 -40 29 -17 59 -38 66 -46 7 -8 16 -15 21
-15 5 0 50 -29 99 -65 49 -36 92 -65 95 -65 3 0 17 -13 32 -28 16 -16 46 -41
68 -58 22 -16 45 -34 50 -41 6 -7 28 -26 50 -43 77 -61 316 -303 375 -380 19
-25 58 -73 87 -108 29 -34 53 -69 53 -77 0 -8 5 -15 10 -15 6 0 10 -5 10 -11
0 -7 6 -17 13 -23 21 -17 60 -86 49 -86 -5 0 -12 8 -16 18 -8 25 -28 54 -51
73 -26 22 -31 16 -11 -12 10 -15 12 -28 6 -39 -6 -11 -3 -26 11 -46 10 -16 19
-25 19 -20 0 5 9 1 19 -8 12 -11 21 -13 25 -7 4 5 -2 14 -11 20 -16 9 -14 10
9 11 21 0 31 -8 44 -32 9 -17 25 -41 36 -52 28 -31 99 -156 87 -156 -5 0 -14
11 -20 23 -6 13 -17 24 -24 24 -10 0 -11 -5 -4 -18 6 -12 5 -20 -1 -24 -6 -4
-10 -3 -9 2 5 34 -35 75 -76 77 -5 1 -16 8 -22 16 -11 13 -14 13 -23 0 -5 -8
-10 -10 -10 -4 0 6 -20 12 -45 12 -27 1 -45 -2 -45 -9 0 -6 -5 -9 -12 -7 -16
6 -72 -48 -64 -61 4 -6 1 -14 -8 -17 -9 -3 -12 -13 -9 -22 4 -13 2 -12 -11 3
-17 19 -17 17 -13 -41 5 -68 24 -105 63 -123 30 -13 43 -8 41 19 -1 10 -5 16
-9 14 -13 -8 -28 43 -28 91 0 32 6 50 20 63 11 10 19 25 17 33 -2 8 -2 11 0 7
3 -5 21 -8 41 -8 23 0 32 3 24 9 -10 6 -10 10 3 21 13 11 15 9 15 -9 0 -12 6
-21 15 -21 8 0 15 -4 15 -10 0 -17 28 -11 39 8 9 15 10 15 11 -6 0 -19 4 -21
25 -16 15 4 25 2 25 -5 0 -6 -6 -11 -12 -11 -9 0 -10 -2 -2 -8 14 -8 54 -78
54 -93 0 -5 -12 -27 -26 -49 -20 -30 -35 -41 -63 -46 -33 -7 -60 -27 -61 -48
0 -5 18 -6 39 -2 23 3 42 2 46 -4 10 -16 28 -12 21 5 -4 10 1 15 14 15 25 0
26 17 3 24 -15 4 -15 5 2 4 37 -1 45 2 45 16 0 8 5 16 11 18 18 6 18 80 0 107
-11 18 -12 23 -2 17 8 -5 16 -4 21 4 5 8 14 1 29 -23 33 -53 125 -242 166
-342 21 -49 45 -108 55 -130 24 -54 92 -267 125 -392 4 -13 2 -23 -3 -23 -6 0
-8 -10 -4 -22 5 -21 6 -21 13 -2 6 16 8 15 8 -8 1 -14 4 -34 8 -44 5 -13 3
-15 -8 -9 -8 5 -5 -2 6 -14 12 -14 15 -25 9 -29 -6 -4 -13 -15 -17 -24 -3 -10
-13 -18 -22 -18 -8 0 -15 -7 -15 -15 0 -8 5 -15 12 -15 6 0 8 -3 5 -6 -4 -4
-14 -1 -23 7 -16 13 -17 11 -10 -16 4 -16 10 -45 13 -64 3 -21 12 -35 24 -38
14 -4 15 -8 6 -18 -17 -18 -36 5 -39 49 -2 22 -8 36 -16 36 -7 0 -10 -5 -7
-10 11 -19 -15 -40 -41 -34 -17 4 -24 2 -24 -9 0 -8 12 -18 26 -21 20 -5 25
-12 21 -26 -3 -11 -2 -20 3 -20 12 0 19 26 13 49 -3 12 -1 21 4 21 14 0 36
-72 31 -101 -4 -22 -5 -22 -14 9 l-9 33 -17 -46 c-10 -25 -13 -43 -8 -40 5 3
16 -5 24 -17 l16 -22 0 24 c1 24 1 24 14 -5 10 -24 13 -26 19 -12 7 18 37 24
37 7 0 -5 -8 -10 -17 -10 -13 0 -11 -4 7 -13 21 -11 27 -10 40 2 11 11 12 15
2 19 -6 2 -12 11 -11 20 0 11 2 12 6 5 9 -23 23 -14 23 14 0 33 5 28 13 -15 4
-21 3 -31 -3 -27 -6 3 -10 -2 -10 -11 0 -10 3 -14 8 -10 16 16 32 -171 38
-432 l7 -273 -194 5 c-185 4 -187 4 -54 -4 77 -5 163 -12 190 -15 l51 -6 -8
-97 c-25 -293 -116 -696 -223 -982 -27 -73 -31 -82 -59 -142 -14 -31 -26 -59
-26 -62 0 -13 -135 -284 -160 -321 -15 -22 -33 -55 -41 -72 -8 -18 -17 -33
-21 -33 -5 0 -8 -6 -8 -14 0 -42 -385 -566 -417 -566 -7 0 -12 -4 -10 -8 6
-23 -270 -299 -430 -431 -29 -23 -30 -35 -2 -20 76 40 403 362 524 514 44 55
82 102 86 105 8 7 72 98 146 210 34 52 66 100 70 105 43 53 193 330 248 455
15 36 38 88 50 115 44 97 57 131 105 280 51 157 93 303 106 370 4 22 8 45 10
50 4 20 33 172 44 240 38 221 49 609 26 875 -9 102 -19 199 -22 215 -4 24 -3
27 6 15 9 -12 10 -10 4 10 -4 14 -11 27 -15 28 -5 2 -9 13 -9 25 0 17 2 19 9
8 13 -20 39 -6 47 24 9 36 -1 54 -25 48 -14 -3 -21 0 -22 8 -1 29 -8 52 -17
61 -12 12 -3 48 12 48 14 0 51 -32 65 -57 5 -10 13 -14 17 -10 5 5 2 12 -6 18
-13 8 -11 12 8 28 23 20 31 66 10 58 -7 -2 -14 -10 -14 -18 -1 -8 -2 -18 -3
-23 0 -6 -7 -1 -15 9 -12 16 -12 24 2 51 9 20 20 30 28 27 10 -4 14 4 14 26 0
30 -14 43 -22 19 -7 -21 -30 4 -25 28 4 21 0 24 -24 24 -16 0 -31 0 -34 0 -15
0 -3 -16 17 -22 16 -4 18 -6 6 -7 -10 -1 -18 -5 -18 -11 0 -5 8 -10 18 -10 37
0 46 -15 31 -49 -18 -40 -31 -41 -16 -1 12 31 4 51 -14 33 -5 -5 -11 -23 -13
-39 -2 -16 -4 -33 -5 -39 0 -5 -12 -10 -26 -10 -17 0 -24 4 -20 13 3 8 5 18 5
23 0 5 5 9 10 9 6 0 10 -7 10 -16 0 -8 4 -13 8 -10 5 3 9 22 9 43 0 21 -2 30
-4 21 -2 -10 -9 -18 -14 -18 -8 0 -10 9 -13 69 -1 13 -7 26 -15 29 -10 3 -11
-2 -6 -19 5 -19 4 -21 -4 -9 -6 8 -8 23 -5 33 3 9 1 17 -5 17 -6 0 -11 -5 -11
-12 0 -26 -14 8 -60 144 -120 356 -232 603 -393 861 -24 38 -27 50 -17 62 17
20 26 19 50 -5 11 -11 20 -15 20 -10 0 6 11 10 24 10 13 0 29 7 36 15 7 8 16
13 20 10 9 -6 40 50 40 72 0 8 5 11 11 8 6 -5 9 9 8 37 -2 24 1 50 5 56 4 7 1
12 -9 12 -10 0 -15 6 -12 13 6 17 -30 59 -70 83 -18 10 -33 21 -33 25 0 4 -19
10 -42 14 -24 4 -48 12 -55 17 -16 13 -34 1 -26 -17 3 -8 0 -15 -6 -15 -6 0
-11 5 -11 10 0 11 -33 14 -43 4 -3 -4 -2 -15 4 -25 12 -23 6 -24 -15 -4 -14
14 -17 14 -36 -5 -11 -11 -24 -20 -29 -20 -5 0 -11 -7 -15 -15 -4 -11 1 -15
19 -15 14 0 25 -5 25 -11 0 -6 -7 -9 -14 -6 -10 4 -13 1 -10 -8 3 -7 12 -16
20 -19 9 -3 12 -2 9 5 -4 6 1 19 11 30 15 17 16 22 4 29 -8 5 -11 12 -7 17 5
4 11 3 15 -3 10 -16 52 -11 66 7 10 13 15 12 42 -6 l32 -21 -19 -39 c-11 -22
-17 -45 -14 -53 2 -7 0 -10 -5 -7 -6 3 -10 -2 -10 -12 0 -11 -6 -25 -12 -31
-9 -9 -9 -15 -2 -20 6 -4 4 -13 -8 -24 -17 -17 -19 -16 -41 15 -14 18 -33 46
-43 62 -10 17 -42 60 -71 96 -29 36 -53 71 -53 77 0 6 -8 13 -17 17 -10 3 -33
25 -51 48 -92 118 -316 347 -389 398 -23 16 -43 33 -45 37 -5 12 -254 209
-302 239 -22 14 -73 47 -113 74 -74 51 -83 55 -83 40z m1364 -956 c30 -28 34
-45 22 -115 -4 -25 -15 -41 -35 -53 -20 -12 -28 -23 -24 -36 3 -10 0 -22 -6
-25 -6 -4 -9 -2 -6 6 3 7 -8 21 -25 30 -27 16 -42 48 -21 48 4 0 14 28 21 63
7 34 16 67 19 72 3 6 6 13 7 18 1 4 2 9 3 12 3 11 19 4 45 -20z"/>
<path d="M7298 7525 c-22 -24 -32 -43 -30 -59 2 -13 -2 -27 -7 -31 -7 -4 -11
5 -11 21 0 22 -3 25 -12 16 -7 -7 -13 -40 -15 -75 -2 -42 1 -57 7 -47 5 8 10
29 11 45 l1 30 9 -30 c6 -21 4 -36 -7 -52 -14 -22 -11 -48 4 -39 4 2 13 -2 20
-10 9 -10 9 -14 1 -14 -15 0 24 -31 74 -59 39 -22 73 -28 62 -11 -3 6 1 10 9
10 9 0 16 -4 16 -10 0 -5 7 -10 15 -10 13 0 13 3 3 20 -7 11 -20 20 -28 20
-12 0 -12 2 -2 9 18 11 -8 22 -36 14 -14 -3 -24 2 -32 17 -6 11 -22 25 -34 30
-17 6 -27 22 -35 55 -10 41 -9 51 5 74 9 14 23 30 31 34 11 7 11 12 2 23 -14
17 -5 18 21 2 15 -9 24 -9 43 1 13 7 30 12 38 11 28 -4 40 0 33 12 -5 8 -2 9
10 5 10 -4 20 -7 23 -7 3 0 0 -6 -6 -14 -14 -17 0 -29 23 -20 18 7 22 24 6 24
-5 0 -10 6 -10 14 0 15 -53 29 -58 15 -2 -5 -8 -9 -14 -9 -6 0 -8 7 -4 15 4
12 -4 15 -44 15 -42 0 -52 -4 -82 -35z"/>
<path d="M3537 7377 c-22 -27 -22 -43 1 -26 15 13 16 12 3 -3 -18 -24 -29 -23
-33 4 -9 61 -90 4 -102 -71 -7 -49 6 -81 35 -81 11 0 38 17 62 38 23 21 59 50
80 65 47 36 52 73 7 64 -22 -5 -28 -3 -24 7 9 24 -11 26 -29 3z"/>
<path d="M3881 7388 c-14 -5 -30 -16 -37 -26 -12 -15 -15 -15 -24 -2 -9 12
-10 10 -5 -7 4 -14 2 -23 -4 -23 -6 0 -3 -9 6 -20 10 -11 23 -20 30 -20 16 0
32 31 25 50 -5 13 -3 13 11 1 25 -20 21 -66 -8 -97 -29 -31 -31 -35 -10 -28 8
4 15 10 15 14 0 5 9 12 21 15 11 4 29 25 39 47 12 28 19 35 23 24 8 -19 45
-20 69 -2 22 16 49 67 42 78 -11 17 -60 7 -88 -18 -23 -22 -30 -24 -37 -13 -5
8 -9 17 -9 20 0 12 -36 16 -59 7z"/>
<path d="M2981 7216 c-10 -12 -9 -20 4 -40 16 -24 16 -26 0 -32 -20 -8 -37 14
-29 39 7 23 -9 22 -31 -3 -16 -18 -42 -19 -30 -1 2 5 -2 16 -9 26 -12 17 -15
16 -45 -11 -27 -25 -33 -38 -38 -89 l-6 -60 22 19 c11 11 21 27 21 38 0 24 12
23 28 -2 15 -24 32 -26 32 -3 0 13 3 14 12 5 19 -19 43 -14 76 16 45 40 54 64
36 90 -18 26 -27 27 -43 8z"/>
<path d="M7175 7123 c5 -15 4 -16 -6 -5 -7 6 -17 12 -23 12 -5 0 -6 -3 -3 -7
4 -3 0 -15 -10 -25 -15 -17 -15 -18 3 -18 11 0 24 4 30 10 5 5 15 5 23 1 9 -6
1 -11 -25 -16 -22 -4 -42 -12 -46 -18 -14 -21 -8 -37 11 -37 11 0 23 -6 28
-12 5 -9 10 -1 13 22 5 34 6 35 50 33 25 -1 55 -2 68 -3 13 0 22 -6 22 -16 0
-10 6 -14 15 -11 8 4 27 0 42 -8 32 -17 57 -20 48 -5 -3 6 -1 10 4 10 6 0 11
-7 11 -16 0 -8 4 -13 9 -10 5 3 14 -1 20 -8 9 -11 9 -19 0 -34 -10 -16 -10
-23 0 -36 8 -9 19 -16 27 -16 14 0 28 35 20 49 -9 14 34 25 47 12 6 -6 26 -11
44 -11 30 0 33 3 33 30 0 23 -4 30 -20 30 -17 0 -32 6 -69 27 -2 2 2 9 9 18
10 13 9 15 -9 15 -11 0 -21 5 -21 10 0 6 -7 10 -15 10 -22 0 -18 -25 8 -44 19
-14 19 -15 2 -9 -11 4 -23 11 -26 16 -8 11 -52 -11 -44 -23 3 -4 -5 -6 -17 -2
-19 5 -20 6 -4 12 16 5 16 7 -2 23 -10 9 -32 18 -48 19 -16 1 -37 8 -46 16
-10 9 -27 12 -42 8 -13 -3 -36 1 -52 9 -41 21 -68 20 -59 -2z"/>
<path d="M7740 5648 c-15 -6 -20 -12 -12 -15 18 -7 14 -21 -9 -28 -16 -5 -18
-10 -8 -21 7 -8 9 -29 6 -48 -5 -33 -4 -34 35 -40 45 -7 108 2 108 15 0 5 -9
9 -21 9 -11 0 -17 4 -14 10 4 6 1 17 -5 25 -6 8 -9 19 -5 26 6 8 10 7 16 -2 6
-10 9 -7 9 10 0 18 -4 22 -19 18 -19 -5 -44 14 -52 39 -3 8 -11 9 -29 2z"/>
<path d="M1711 4693 c-31 -15 -33 -19 -28 -56 l5 -39 -81 7 c-45 4 -78 3 -74
-2 5 -4 23 -8 40 -9 113 -3 333 -17 340 -21 4 -3 51 -6 105 -8 53 -3 116 -6
140 -7 23 -2 42 0 42 5 0 4 -7 7 -15 7 -17 0 -19 27 -5 66 15 39 6 58 -19 42
-13 -8 -23 -28 -27 -55 -5 -34 -10 -43 -26 -43 -10 0 -17 4 -13 9 3 5 -3 12
-14 16 -18 5 -44 51 -40 71 4 23 -3 26 -21 9 -22 -20 -27 -64 -8 -83 17 -17 6
-22 -27 -14 -28 8 -29 10 -26 60 l3 53 -36 -3 c-20 -1 -36 -5 -36 -9 0 -4 -3
-15 -7 -25 -5 -13 -3 -16 10 -11 12 5 18 0 23 -18 8 -32 0 -42 -33 -43 -25 0
-28 3 -28 32 0 18 6 40 14 50 18 22 9 30 -25 22 -20 -5 -25 -12 -21 -26 3 -11
2 -20 -3 -20 -4 0 -11 -11 -14 -25 -5 -19 -13 -25 -33 -25 l-27 0 28 29 c21
22 26 34 20 55 -7 31 -32 34 -83 9z"/>
<path d="M2402 4702 c-19 -3 -23 -8 -18 -26 3 -13 -1 -31 -9 -42 -19 -25 -19
-38 0 -30 8 3 15 1 15 -5 0 -6 -8 -9 -17 -7 -13 2 -19 15 -21 45 -3 34 -6 40
-21 36 -21 -5 -34 -52 -25 -88 5 -21 2 -24 -25 -23 -17 1 -28 5 -24 11 8 14
14 97 8 108 -4 5 -19 2 -37 -7 -17 -9 -27 -19 -22 -23 5 -3 10 -10 10 -16 1
-5 4 -25 8 -43 3 -21 2 -31 -4 -27 -6 3 -10 2 -10 -3 0 -10 80 -17 290 -26 74
-4 147 -9 162 -12 14 -3 29 -1 32 4 4 6 -51 13 -139 17 -153 8 -159 10 -128
55 15 21 15 25 1 34 -15 9 -15 12 -1 33 18 28 9 41 -25 35z"/>
<path d="M2093 4128 c-15 -19 -12 -47 4 -41 24 9 50 -24 45 -56 -3 -26 -8 -29
-33 -26 -16 2 -29 0 -29 -5 0 -6 -7 -10 -16 -10 -8 0 -12 -4 -9 -10 3 -5 15
-10 26 -10 10 0 19 5 19 10 0 17 36 11 55 -10 22 -24 38 -25 60 -3 14 14 18
14 27 2 7 -10 8 -8 3 7 -4 14 0 24 10 28 36 13 -8 96 -52 96 -12 0 -28 7 -36
15 -22 21 -62 29 -74 13z"/>
<path d="M2788 4050 c-9 -6 -14 -18 -11 -29 3 -10 0 -28 -6 -40 -8 -14 -8 -26
-2 -38 6 -10 13 -35 16 -55 9 -56 35 -51 35 7 0 37 3 45 18 45 21 0 52 29 52
48 0 7 4 12 10 12 5 0 6 -8 3 -17 -5 -12 -2 -15 9 -10 11 4 18 -1 21 -14 5
-20 41 -26 52 -9 3 5 2 18 -4 28 -8 14 -6 18 10 18 13 0 17 -5 14 -17 -9 -26
21 -44 50 -31 15 7 26 8 30 2 7 -12 26 -13 43 -1 19 12 -7 91 -29 91 -20 0
-30 -21 -22 -49 4 -17 2 -20 -12 -15 -13 5 -15 14 -11 35 5 28 4 29 -34 29
-21 0 -42 5 -45 10 -4 6 -12 7 -18 3 -31 -20 -74 -29 -90 -19 -28 18 -44 -7
-24 -37 15 -24 15 -25 -4 -20 -16 5 -20 13 -17 41 3 38 -7 47 -34 32z"/>
<path d="M2450 4028 c-20 -22 -16 -49 10 -73 17 -15 19 -15 34 6 8 12 13 26
11 30 -3 4 2 9 10 13 10 3 15 -1 15 -12 0 -40 47 -55 87 -27 20 14 22 14 28
-6 10 -30 48 -18 90 28 34 37 34 37 13 52 -19 13 -27 13 -67 -2 -25 -9 -48
-12 -51 -8 -3 5 -40 10 -83 13 -69 4 -81 3 -97 -14z"/>
<path d="M3727 3984 c-14 -14 -24 -31 -22 -37 17 -59 16 -67 -12 -67 -22 0
-25 2 -13 10 13 9 13 11 1 19 -8 5 -15 25 -15 43 -1 26 -5 34 -23 36 -13 2
-33 -4 -45 -12 l-22 -16 21 0 c18 0 24 -8 29 -37 4 -21 11 -41 17 -44 5 -4
-12 -10 -39 -14 -27 -3 -60 -13 -74 -21 -24 -14 -24 -14 15 -8 22 3 54 9 71
14 16 4 46 7 65 6 47 -2 52 -34 8 -59 -17 -9 -36 -31 -42 -48 -10 -25 -16 -29
-37 -24 -31 8 -34 11 -25 25 5 8 11 8 20 0 22 -18 41 15 26 46 -9 22 -14 24
-26 14 -8 -7 -15 -21 -15 -31 0 -26 -20 -35 -27 -11 -7 30 -49 49 -74 34 -11
-7 -19 -8 -19 -2 0 17 -35 11 -58 -10 -27 -26 -28 -33 -2 -25 19 6 19 4 9 -19
-7 -14 -17 -26 -23 -26 -6 0 -3 -7 7 -14 17 -13 16 -15 -17 -27 -41 -15 -40
-28 4 -21 27 4 30 2 30 -22 0 -33 18 -34 30 -1 8 20 16 25 44 25 19 0 41 3 50
6 25 9 8 24 -27 24 -50 0 -58 13 -21 31 31 15 34 15 39 -2 8 -24 59 -41 91
-29 19 8 29 6 40 -5 21 -20 53 -19 61 2 4 9 18 27 32 40 24 22 25 24 8 37 -10
7 -15 20 -11 29 3 8 0 18 -5 22 -19 11 -1 25 32 25 l32 1 -26 22 c-19 16 -29
36 -34 71 -6 47 -6 49 12 36 10 -8 24 -21 30 -29 11 -13 15 -12 33 4 27 24 25
38 -7 53 -41 18 -68 15 -96 -14z"/>
<path d="M2171 3876 c-9 -11 -11 -38 -6 -101 4 -47 10 -85 13 -85 2 0 20 9 38
21 l34 21 0 -30 c0 -21 -8 -37 -26 -51 -32 -25 -9 -29 26 -4 35 24 45 43 45
85 0 32 -3 38 -22 38 -12 0 -25 -4 -28 -10 -3 -5 -12 -10 -20 -10 -10 0 -15
18 -17 67 -3 67 -15 86 -37 59z"/>
<path d="M1648 3868 c-20 -7 -30 -20 -38 -48 -6 -21 -17 -43 -25 -50 -19 -16
-19 -30 -1 -30 8 0 20 -17 26 -37 7 -21 16 -42 20 -46 12 -13 35 24 35 57 0
26 4 32 25 34 31 3 70 22 70 34 0 4 -25 8 -55 8 -52 0 -55 1 -55 25 0 30 20
33 27 5 7 -27 19 -25 39 5 13 20 14 28 4 40 -14 17 -33 18 -72 3z"/>
<path d="M3320 3810 c-12 -33 -22 -73 -22 -88 1 -15 -6 -40 -14 -57 -12 -23
-13 -36 -5 -57 6 -16 15 -28 21 -28 5 0 10 -10 10 -22 1 -19 2 -20 10 -7 8 13
26 16 101 14 51 -1 113 2 138 7 66 12 152 16 177 7 11 -4 27 -3 35 2 12 8 12
10 -1 19 -20 13 -46 13 -197 -5 -175 -20 -252 -7 -253 43 0 6 5 12 12 12 9 0
9 3 0 12 -27 27 -7 158 25 158 14 0 16 10 7 34 -11 28 -21 18 -44 -44z"/>
<path d="M1877 3771 c-33 -56 -15 -91 38 -71 27 10 34 30 10 30 -17 0 -20 16
-5 25 20 12 36 -13 32 -49 -4 -33 -6 -35 -43 -34 -37 0 -69 -15 -69 -33 0 -5
14 -6 30 -2 21 4 36 0 49 -11 16 -15 19 -14 38 7 21 22 48 97 35 97 -3 0 14
10 38 23 25 12 44 26 43 30 -2 5 -42 11 -91 13 l-87 5 -18 -30z"/>
<path d="M2881 3759 c-16 -13 -21 -23 -14 -27 23 -14 26 -59 6 -79 -51 -48
-117 -103 -125 -103 -4 0 -8 -4 -8 -10 0 -20 30 -9 62 23 70 68 86 78 127 81
22 2 41 -1 41 -5 0 -14 22 -10 42 8 17 15 18 14 18 -28 0 -25 -5 -50 -12 -57
-6 -6 -8 -15 -5 -19 4 -4 19 4 32 18 29 28 47 106 31 131 -6 10 -8 20 -5 23
10 9 39 -6 39 -21 0 -18 26 -18 33 0 9 22 -4 56 -22 57 -47 5 -58 4 -78 -8
-20 -12 -22 -11 -16 4 5 13 2 15 -15 11 -15 -4 -22 -2 -22 8 0 29 -50 10 -50
-20 -1 -19 -2 -18 -16 7 -8 15 -16 27 -17 27 -1 -1 -13 -10 -26 -21z"/>
<path d="M2649 3746 c-12 -14 -28 -22 -35 -19 -15 6 -44 -13 -44 -29 0 -6 8
-7 18 -3 33 14 62 14 62 0 0 -8 -4 -17 -10 -20 -14 -9 -12 -25 3 -25 8 0 11
-15 9 -50 -7 -98 23 -107 35 -10 5 46 10 54 35 64 15 6 28 15 28 22 0 6 10 19
21 30 21 19 22 19 15 -2 -4 -13 -1 -26 9 -34 8 -7 13 -16 10 -20 -12 -20 18
-20 34 -1 15 18 17 29 10 68 -5 25 -12 49 -15 52 -3 3 -19 -2 -36 -12 -23 -13
-34 -15 -44 -6 -31 26 -61 -20 -32 -49 9 -9 8 -12 -5 -12 -13 0 -17 9 -17 40
0 47 -19 53 -51 16z"/>
<path d="M4520 3429 c0 -5 -11 -11 -24 -15 -30 -7 -60 -39 -51 -53 3 -6 1 -11
-4 -11 -6 0 -11 -8 -11 -18 0 -10 -5 -23 -12 -30 -9 -9 -9 -15 0 -24 7 -7 12
-22 12 -35 0 -13 4 -23 9 -23 5 0 11 -8 13 -17 7 -32 42 36 44 83 2 52 6 59
50 80 58 28 100 11 145 -56 48 -70 60 -134 29 -162 -30 -28 -80 -44 -90 -28
-8 13 -80 18 -99 6 -28 -17 6 -67 42 -62 5 0 12 -6 17 -15 8 -13 19 -14 65 -8
73 10 125 53 142 118 12 45 8 121 -7 121 -4 0 -10 13 -13 29 -3 16 -12 35 -20
42 -7 8 -12 19 -10 25 2 7 -9 17 -24 23 -15 6 -39 18 -53 26 -27 16 -150 19
-150 4z"/>
<path d="M4196 3199 c3 -5 -4 -9 -14 -9 -16 0 -56 -42 -57 -60 0 -14 -45 -48
-51 -39 -9 14 -61 4 -81 -16 -23 -23 -2 -70 25 -56 13 7 23 4 40 -14 12 -12
22 -27 22 -33 0 -6 3 -12 8 -14 9 -4 42 -53 62 -92 31 -61 66 -88 119 -91 35
-2 51 2 55 11 3 8 12 14 19 14 21 0 87 68 87 90 0 10 5 22 10 25 6 3 10 19 10
36 0 16 -4 29 -10 29 -5 0 -10 7 -10 15 0 8 -4 15 -10 15 -5 0 -10 -7 -10 -15
0 -8 -3 -14 -7 -14 -21 3 -33 -2 -33 -15 0 -8 6 -16 13 -19 10 -4 10 -7 0 -18
-7 -7 -13 -21 -13 -31 0 -10 -5 -18 -10 -18 -6 0 -30 -9 -53 -20 l-41 -20 -23
24 c-13 14 -23 32 -23 40 0 21 38 64 72 82 69 36 90 120 47 187 -23 35 -25 36
-87 36 -35 -1 -60 -5 -56 -10z m78 -65 c26 -25 20 -72 -9 -86 -14 -6 -25 -16
-25 -22 0 -11 -50 -66 -61 -66 -4 0 -16 18 -28 40 l-20 39 21 41 c12 22 27 40
34 40 6 0 14 7 18 15 7 20 50 19 70 -1z"/>
<path d="M3493 2802 c-30 -16 -43 -32 -25 -32 4 0 8 -24 9 -52 1 -29 8 -57 15
-63 8 -6 13 -35 14 -75 2 -123 6 -170 15 -176 5 -3 9 -27 8 -53 -1 -26 1 -53
5 -59 4 -6 7 -27 8 -47 1 -40 1 -40 38 -18 23 13 29 25 32 62 3 25 1 51 -3 56
-8 11 -17 70 -25 158 -3 31 -9 57 -13 57 -4 0 -7 22 -8 48 0 27 -3 54 -7 61
-5 7 -5 15 -2 18 10 11 50 -17 76 -52 14 -19 29 -35 34 -35 5 0 19 -11 31 -24
13 -14 26 -22 29 -19 3 4 6 -1 6 -10 0 -10 7 -17 15 -17 9 0 12 -6 9 -15 -4
-8 1 -17 10 -21 10 -4 14 -13 12 -23 -8 -23 5 -38 34 -42 l25 -4 -3 -110 c-4
-182 -22 -469 -30 -476 -9 -9 -201 7 -259 21 -47 11 -110 13 -100 4 3 -4 17
-8 29 -10 13 -2 52 -8 88 -14 36 -7 102 -15 147 -18 45 -4 85 -9 90 -12 4 -3
7 -72 7 -155 -1 -144 -1 -146 6 -50 4 55 8 124 9 153 l1 52 90 0 c50 0 90 4
90 8 0 5 -19 9 -42 9 -24 0 -64 1 -90 2 l-46 1 5 83 c6 85 9 98 21 81 4 -5 19
-17 35 -27 15 -10 27 -27 27 -38 0 -18 -2 -19 -15 -5 -8 8 -15 20 -15 26 0 8
-6 8 -20 0 -20 -11 -26 -45 -12 -67 4 -6 19 -14 32 -18 24 -6 28 -1 54 54 32
66 34 62 -37 114 -22 17 -45 26 -54 23 -13 -5 -14 3 -9 61 3 38 9 115 12 173
6 109 9 124 23 101 7 -11 10 -11 14 0 4 10 6 10 6 2 1 -14 59 -17 98 -7 29 8
59 52 44 67 -7 7 -18 7 -37 -2 -22 -10 -29 -9 -36 1 -14 22 -4 42 22 48 15 3
32 19 42 40 l18 35 -35 35 c-31 30 -38 33 -55 22 -11 -6 -27 -12 -36 -12 -14
0 -16 -9 -11 -59 5 -58 4 -59 -17 -51 -20 7 -21 13 -18 109 2 71 0 101 -8 101
-7 0 -11 -14 -10 -32 4 -77 -1 -148 -10 -148 -6 0 -24 16 -41 35 -17 19 -35
32 -40 29 -5 -3 -6 2 -3 10 4 11 0 16 -10 16 -9 0 -16 3 -16 8 -1 11 -137 152
-148 152 -5 0 -15 7 -22 15 -15 19 -26 18 -67 -3z"/>
<path d="M500 2805 c1 -38 219 -418 317 -552 29 -40 53 -77 53 -82 0 -5 4 -11
8 -13 15 -6 64 -78 53 -78 -6 0 -11 4 -11 8 0 5 -20 9 -43 10 l-44 2 2 -37 c1
-32 4 -38 22 -35 18 2 21 -4 28 -70 4 -40 8 -91 10 -113 4 -80 29 -135 61
-135 13 0 26 -4 29 -10 9 -14 85 -13 85 1 0 7 12 10 30 7 21 -3 30 0 30 9 0 8
6 13 14 11 8 -2 25 9 38 24 l23 28 83 -81 c45 -44 82 -82 82 -84 0 -2 -8 -6
-17 -8 -13 -3 -11 -5 5 -6 24 -1 69 -28 107 -64 11 -11 52 -43 90 -72 39 -29
81 -63 95 -75 14 -13 49 -39 79 -59 94 -63 262 -171 266 -171 3 0 46 -24 97
-54 100 -58 233 -126 245 -126 18 0 -21 23 -138 84 -69 36 -149 80 -177 98
-28 18 -81 51 -117 73 -37 22 -88 56 -113 75 -66 48 -266 203 -272 210 -3 3
-39 35 -80 70 -121 105 -211 193 -226 223 -8 15 -19 27 -26 27 -17 0 -47 40
-41 55 2 8 12 17 21 20 21 6 42 50 42 87 0 50 -49 112 -82 104 -10 -2 -18 -1
-18 4 0 12 -93 -1 -119 -17 -30 -19 -26 -23 -176 196 -82 120 -164 254 -203
331 -15 30 -29 57 -32 60 -3 3 -18 30 -34 60 -31 59 -46 80 -46 65z m635 -955
c9 -17 10 -32 4 -49 -7 -17 -6 -27 3 -33 7 -4 8 -8 3 -8 -6 0 -16 5 -21 10
-11 11 -64 -8 -64 -22 0 -5 -5 -8 -11 -8 -5 0 -7 5 -4 10 3 6 -4 10 -17 10
-31 0 -48 18 -48 51 0 39 40 65 97 65 37 -1 47 -5 58 -26z"/>
<path d="M3120 2640 c0 -5 -6 -10 -13 -10 -7 0 -32 -18 -55 -40 -35 -34 -44
-39 -60 -29 -23 14 -85 4 -102 -16 -9 -11 -9 -15 -1 -15 6 0 11 -9 11 -20 0
-15 8 -22 29 -26 21 -4 35 -16 45 -39 9 -18 16 -37 16 -42 0 -4 11 -30 25 -57
14 -27 25 -53 25 -58 0 -9 11 -24 43 -59 18 -21 91 -27 102 -9 3 6 16 10 29
10 31 0 104 55 117 88 24 61 5 108 -38 91 -15 -5 -23 -17 -23 -31 0 -32 -38
-71 -84 -87 -37 -13 -40 -12 -64 13 -23 23 -25 28 -12 50 7 14 26 28 42 31 16
4 48 24 71 46 23 21 45 39 49 39 4 0 5 7 2 15 -4 8 -1 15 5 15 6 0 11 16 11
36 0 24 -4 33 -12 28 -8 -5 -9 -2 -5 10 5 11 -4 26 -26 46 -26 24 -41 29 -79
30 -27 0 -48 -4 -48 -10z m78 -80 c16 -13 22 -26 17 -39 -8 -25 -71 -81 -91
-81 -8 0 -12 -4 -9 -10 3 -6 -4 -10 -18 -10 -27 0 -57 28 -54 51 5 28 46 89
62 89 8 0 15 5 15 10 0 17 54 10 78 -10z"/>
<path d="M1568 2164 c-8 -7 -1 -71 19 -171 9 -47 12 -89 8 -100 -5 -10 -9 -20
-9 -23 -2 -14 -44 -48 -73 -59 -28 -12 -35 -11 -57 7 -14 10 -22 22 -19 26 4
3 1 17 -7 30 -7 14 -10 36 -8 50 3 14 0 31 -7 36 -7 6 -16 47 -20 91 l-7 80
-32 -3 c-30 -3 -31 -4 -29 -48 3 -67 14 -134 24 -144 6 -6 9 -4 9 6 0 8 7 21
15 28 10 9 15 9 15 1 0 -6 -3 -11 -7 -11 -13 0 -33 -53 -33 -87 0 -18 5 -33
10 -33 6 0 10 -9 10 -21 0 -35 19 -58 58 -69 48 -13 92 -13 92 1 0 5 5 7 11 3
6 -3 24 6 40 22 25 24 32 26 54 16 48 -22 55 -17 55 42 0 30 -5 58 -11 61 -6
4 -9 21 -8 39 1 17 -1 38 -4 46 -3 8 -8 48 -12 89 -3 40 -9 79 -12 87 -5 14
-54 20 -65 8z"/>
<path d="M252 2038 c-7 -7 -12 -19 -12 -28 0 -9 -4 -20 -8 -25 -5 -6 -17 -31
-26 -57 l-18 -48 -51 -1 c-29 0 -71 0 -94 1 -40 1 -43 0 -43 -24 0 -23 4 -26
39 -26 57 0 102 -11 108 -27 3 -7 -6 -37 -20 -66 -13 -28 -31 -66 -38 -84
l-13 -31 -16 21 c-8 12 -15 24 -16 27 -1 5 -5 17 -29 80 -13 33 -14 28 -14
-77 -1 -64 3 -114 9 -118 6 -3 10 -15 10 -26 0 -15 7 -19 38 -19 41 0 37 -5
92 109 11 25 18 51 16 58 -3 8 -1 11 4 8 6 -3 10 -1 10 6 0 7 11 35 24 63 42
89 83 180 96 216 7 19 18 41 24 48 20 26 -47 45 -72 20z"/>
<path d="M4968 1848 c-40 -37 -36 -74 7 -71 55 5 68 9 81 28 16 21 16 21 38
-23 15 -29 19 -31 39 -21 31 17 37 28 37 77 0 45 -6 50 -36 28 -14 -11 -22
-11 -32 -3 -8 6 -34 11 -59 12 -37 0 -51 -5 -75 -27z"/>
<path d="M3738 1753 c-14 -16 -31 -39 -38 -52 -8 -16 -15 -20 -22 -13 -20 20
-81 -25 -91 -65 -6 -28 7 -29 56 -4 l37 19 0 -28 c0 -61 81 -42 94 21 7 37 -8
53 -36 38 -10 -5 -18 -7 -18 -4 0 13 33 71 53 93 16 17 17 22 6 22 -9 0 -27
-12 -41 -27z"/>
<path d="M4503 1760 c-12 -10 -19 -21 -15 -25 4 -3 -5 -4 -19 0 -19 5 -34 0
-57 -20 -37 -31 -39 -40 -14 -54 27 -14 75 1 90 30 l13 24 -4 -28 c-7 -42 14
-58 58 -44 40 12 60 38 52 68 -3 10 -1 22 4 25 31 19 -19 55 -57 40 -15 -6
-15 -8 0 -25 12 -13 14 -21 6 -26 -6 -4 -16 6 -23 23 -12 29 -13 30 -34 12z"/>
<path d="M4009 1703 c-20 -17 -42 -27 -58 -25 -39 4 -93 -33 -89 -61 2 -18 9
-22 38 -22 19 0 46 -8 59 -17 22 -15 25 -15 60 4 62 34 76 68 27 68 -30 0 -39
-10 -24 -27 6 -7 9 -16 6 -19 -7 -6 -58 17 -58 27 0 4 24 28 52 53 57 49 44
67 -13 19z"/>
<path d="M3679 554 c-30 -32 -18 -77 23 -82 21 -3 27 -10 33 -39 3 -19 4 -37
2 -40 -3 -2 -19 3 -37 12 -29 15 -33 15 -56 0 -29 -19 -25 -31 13 -38 16 -3
40 -9 55 -12 20 -5 32 -1 49 16 19 19 23 33 22 79 -1 62 15 89 50 83 25 -5 83
14 73 24 -11 11 -37 15 -123 18 -75 3 -83 1 -104 -21z"/>
</g>
</svg>
