 <svg version="1.1" xmlns="http://www.w3.org/2000/svg" width="700.000000pt" height="686.000000pt" viewBox="0 0 700.000000 686.000000" preserveAspectRatio="xMidYMid meet">
<metadata>
Created by potrace 1.12, written by Peter Selinger 2001-2015
</metadata>
<g transform="translate(0.000000,686.000000) scale(0.100000,-0.100000)" fill="#000000" stroke="none">
<path d="M3449 6846 c-3 -3 -31 -8 -63 -10 -31 -3 -80 -9 -109 -15 -29 -6
-104 -15 -167 -21 -63 -6 -137 -17 -164 -25 -27 -8 -52 -13 -56 -10 -4 2 -42
-4 -86 -14 -43 -11 -99 -22 -124 -26 -25 -4 -67 -16 -93 -26 -26 -11 -65 -23
-85 -28 -20 -6 -65 -17 -98 -25 -63 -16 -219 -76 -309 -119 -27 -13 -68 -32
-90 -42 -83 -37 -153 -73 -230 -121 -44 -28 -99 -60 -123 -72 -24 -12 -73 -45
-110 -73 -36 -28 -82 -59 -102 -67 -19 -9 -58 -37 -85 -62 -28 -25 -100 -83
-159 -130 -114 -89 -383 -347 -372 -357 3 -4 -24 -37 -62 -75 -37 -38 -67 -72
-68 -76 -2 -21 -18 -42 -35 -47 -10 -4 -19 -12 -19 -19 0 -7 -10 -24 -23 -37
-39 -41 -77 -97 -77 -113 0 -18 -30 -76 -51 -99 -28 -31 -35 -42 -48 -74 -7
-17 -21 -39 -32 -49 -10 -9 -19 -24 -19 -33 0 -9 -7 -29 -15 -45 -8 -15 -15
-36 -15 -45 0 -9 -4 -21 -9 -26 -13 -16 -71 -162 -71 -182 0 -10 -9 -29 -20
-43 -11 -14 -20 -31 -20 -38 0 -7 -9 -25 -20 -40 -11 -15 -24 -48 -29 -74 -4
-26 -14 -54 -20 -62 -6 -8 -14 -38 -18 -67 -3 -30 -14 -71 -25 -92 -10 -21
-22 -62 -25 -90 -3 -29 -10 -57 -15 -64 -13 -17 -51 -258 -49 -308 1 -22 4
-204 7 -405 6 -529 10 -636 30 -715 9 -38 18 -86 21 -105 3 -19 15 -57 28 -85
12 -27 25 -65 29 -84 3 -19 18 -60 33 -90 26 -55 39 -96 50 -156 3 -16 12 -40
20 -52 8 -12 12 -27 8 -33 -4 -7 2 -14 13 -17 12 -3 22 -16 26 -34 3 -17 36
-83 74 -147 60 -105 83 -148 122 -232 6 -14 23 -46 38 -71 15 -25 36 -61 46
-80 22 -40 70 -100 129 -161 23 -25 60 -66 82 -93 107 -129 226 -253 365 -380
83 -77 237 -203 264 -217 12 -6 37 -25 57 -42 20 -17 51 -40 69 -51 18 -11 56
-35 84 -52 28 -18 65 -40 81 -48 17 -8 37 -19 45 -25 8 -5 61 -34 118 -65 56
-30 110 -59 120 -65 34 -18 138 -58 212 -80 41 -13 80 -27 87 -32 6 -5 24 -11
40 -14 53 -9 108 -25 143 -41 19 -9 55 -20 80 -25 25 -4 63 -12 85 -17 125
-30 276 -62 315 -66 25 -3 90 -10 145 -16 132 -14 896 -7 945 9 19 6 64 16
100 21 168 26 440 104 684 195 36 14 66 21 66 16 0 -6 5 -10 10 -10 6 0 10 7
10 15 0 17 56 55 80 55 9 0 31 8 50 18 188 100 361 199 445 255 33 22 74 49
90 60 56 37 197 152 259 209 33 32 64 58 68 58 20 0 348 345 348 365 0 5 20
30 45 56 25 26 45 53 45 58 0 10 113 196 135 221 7 8 23 40 36 70 12 30 30 64
40 75 10 11 25 38 34 60 9 22 29 65 44 95 16 30 34 73 41 94 7 21 28 70 46
107 19 38 34 71 34 73 0 3 11 30 25 60 14 30 25 61 25 69 0 8 6 20 14 26 8 6
17 36 21 66 3 30 11 57 16 60 5 4 9 21 9 38 0 18 8 55 18 82 10 28 24 77 31
110 7 33 17 76 22 96 5 19 20 114 35 210 24 161 25 191 20 399 -7 264 -21 461
-34 487 -5 10 -17 56 -26 103 -10 47 -25 114 -35 150 -10 36 -24 92 -31 125
-7 33 -28 106 -47 162 -18 56 -33 108 -33 115 -1 7 -9 31 -20 53 -11 22 -19
52 -20 66 0 15 -7 32 -15 39 -8 7 -15 16 -15 21 0 5 -11 33 -25 63 -14 30 -25
59 -25 64 0 5 -18 36 -40 68 -22 33 -45 74 -51 92 -6 17 -15 32 -20 32 -5 0
-9 6 -9 14 0 12 -32 67 -80 136 -13 18 -45 68 -62 95 -7 11 -29 40 -48 65 -19
25 -49 65 -65 90 -17 25 -63 83 -104 130 -79 91 -309 330 -318 330 -2 0 -38
28 -78 63 -69 58 -135 108 -176 132 -9 6 -25 17 -34 25 -9 8 -25 19 -35 25
-83 46 -130 77 -158 102 -19 16 -67 47 -108 68 -41 21 -77 42 -80 46 -3 5 -13
9 -22 9 -9 0 -78 32 -152 70 -236 122 -373 182 -480 211 -36 10 -99 27 -140
39 -133 38 -344 90 -367 90 -12 0 -25 5 -29 11 -3 6 -16 8 -27 5 -11 -3 -41
-1 -66 4 -49 10 -217 28 -316 34 -33 2 -80 7 -105 10 -25 4 -48 5 -51 2z m-19
-65 c0 -5 -7 -12 -16 -15 -26 -10 -114 -7 -114 4 0 6 20 9 45 8 25 0 48 2 52
5 9 10 33 8 33 -2z m205 -1 c3 -5 -1 -10 -9 -10 -9 0 -16 5 -16 10 0 6 4 10 9
10 6 0 13 -4 16 -10z m-357 -15 c-10 -10 -497 -79 -504 -72 -11 10 218 52 361
65 118 12 149 13 143 7z m572 -45 c91 -11 190 -26 220 -34 30 -8 80 -17 110
-21 30 -4 71 -13 90 -20 19 -7 53 -17 75 -23 141 -37 282 -83 310 -102 6 -3
37 -15 70 -25 33 -11 65 -22 70 -26 6 -4 46 -22 90 -39 44 -17 96 -41 115 -53
19 -12 51 -29 71 -38 20 -9 55 -31 79 -48 24 -17 48 -31 55 -31 7 0 24 -9 38
-20 14 -11 34 -20 45 -20 12 0 23 -4 26 -9 3 -5 32 -21 63 -36 32 -16 95 -58
141 -94 46 -36 97 -77 115 -91 140 -107 359 -320 495 -481 74 -87 202 -256
202 -268 0 -4 18 -33 40 -63 75 -106 200 -321 200 -347 0 -9 79 -182 106 -233
8 -15 27 -69 43 -120 16 -51 41 -131 55 -178 15 -47 29 -96 32 -110 14 -62 61
-324 85 -470 6 -36 9 -119 7 -185 l-3 -120 -160 4 c-88 2 -167 7 -176 12 -13
6 -18 32 -23 121 -15 247 -79 592 -141 758 -9 25 -23 65 -31 90 -8 25 -28 74
-45 110 -17 36 -56 117 -87 180 -54 112 -202 357 -286 472 -49 67 -239 282
-311 352 -76 74 -285 246 -357 294 -184 123 -286 185 -399 241 -125 63 -336
152 -419 177 -65 19 -301 70 -395 84 -44 7 -100 16 -125 21 -60 12 -256 38
-350 47 l-75 7 -6 90 c-4 50 -7 131 -8 181 l-1 91 93 -4 c50 -2 166 -13 257
-23z m-395 -12 c3 -18 7 -80 10 -138 3 -58 6 -125 8 -150 l2 -45 -35 2 c-34 2
-149 -7 -362 -27 -110 -11 -337 -53 -366 -69 -9 -5 -44 -14 -77 -21 -33 -6
-85 -20 -115 -31 -30 -11 -82 -29 -115 -41 -73 -24 -233 -93 -333 -142 -40
-20 -76 -36 -80 -36 -12 0 -174 -109 -207 -139 -16 -15 -88 -70 -160 -121 -71
-51 -142 -104 -157 -118 l-27 -25 -29 29 c-53 54 -199 184 -206 184 -9 0 -7
-80 3 -116 9 -32 -4 -100 -27 -142 -11 -19 -10 -26 7 -49 13 -15 21 -41 21
-63 0 -31 -7 -44 -34 -68 -31 -27 -33 -32 -20 -50 12 -18 9 -26 -42 -88 -30
-38 -63 -76 -73 -84 -10 -9 -31 -36 -46 -60 -15 -25 -45 -65 -65 -90 -21 -25
-65 -103 -100 -175 -34 -71 -77 -159 -95 -195 -18 -36 -36 -76 -40 -90 -4 -14
-17 -47 -30 -75 -32 -71 -95 -269 -95 -302 0 -10 -13 -64 -29 -120 -40 -135
-70 -328 -79 -496 l-7 -138 -170 -2 -170 -2 3 115 c4 168 36 402 93 675 22
107 64 247 104 350 25 62 45 116 45 118 0 3 14 35 30 70 17 36 30 70 30 75 0
5 18 42 40 82 22 40 40 77 40 82 0 6 14 30 30 55 17 24 30 46 30 48 0 13 114
182 171 254 38 47 90 113 117 146 62 79 235 252 347 349 50 43 106 93 125 110
36 32 92 76 140 111 102 72 154 107 175 115 13 5 52 29 87 53 117 82 372 213
529 272 52 19 103 40 114 45 11 5 47 16 80 25 33 9 83 23 110 31 28 8 71 19
96 24 26 5 64 14 85 20 55 17 125 29 229 40 50 5 115 16 145 24 30 9 80 16
110 17 30 0 78 4 105 9 28 4 67 8 87 9 34 1 37 -1 43 -31z m-725 -28 c-8 -5
-24 -9 -35 -9 -16 1 -16 2 5 9 35 11 48 11 30 0z m-120 -30 c-14 -4 -32 -8
-40 -9 -13 -1 -13 0 0 9 8 5 26 9 40 9 l25 -1 -25 -8z m-83 -26 c-3 -3 -12 -4
-19 -1 -8 3 -5 6 6 6 11 1 17 -2 13 -5z m-47 -14 c-8 -5 -22 -9 -30 -9 -10 0
-8 3 5 9 27 12 43 12 25 0z m2077 -6 c-3 -3 -12 -4 -19 -1 -8 3 -5 6 6 6 11 1
17 -2 13 -5z m88 -25 c4 -6 5 -12 2 -15 -7 -7 -37 7 -37 17 0 13 27 11 35 -2z
m80 -30 c16 -16 -20 -10 -41 7 -18 14 -18 15 6 8 14 -3 29 -10 35 -15z m121
-53 c49 -24 99 -47 112 -51 13 -4 21 -9 18 -12 -5 -5 -114 33 -131 46 -5 5
-27 14 -47 20 -35 11 -71 41 -51 41 6 0 50 -20 99 -44z m-2611 25 c-6 -5 -21
-12 -35 -16 -24 -7 -24 -7 -5 9 21 16 56 23 40 7z m2846 -141 c13 -10 19 -19
13 -20 -7 0 -22 9 -35 20 -13 10 -19 19 -13 20 7 0 22 -9 35 -20z m75 -35 c15
-11 16 -14 3 -15 -8 0 -24 7 -35 15 -15 11 -16 14 -3 15 8 0 24 -7 35 -15z
m-1956 -61 c0 -29 -4 -32 -36 -39 -46 -8 -56 2 -52 51 3 34 7 40 33 45 37 7
55 -12 55 -57z m178 24 c-3 -42 -4 -43 -40 -46 l-38 -3 0 45 0 46 41 0 40 0
-3 -42z m211 28 c7 -8 11 -27 9 -43 -3 -25 -7 -28 -43 -28 -38 0 -40 1 -37 30
1 17 5 36 7 43 6 17 50 15 64 -2z m178 -23 c10 -25 -14 -62 -36 -56 -25 6 -33
27 -21 57 7 19 14 23 30 19 12 -3 24 -12 27 -20z m1433 7 c0 -5 -4 -10 -10
-10 -5 0 -10 5 -10 10 0 6 5 10 10 10 6 0 10 -4 10 -10z m-1218 -34 c11 -16
10 -44 -2 -51 -6 -4 -26 -1 -45 5 -26 9 -35 17 -35 34 0 13 3 26 7 30 10 9 66
-4 75 -18z m-989 -23 c8 -44 -3 -54 -52 -51 -29 3 -36 8 -43 33 -12 45 -4 55
45 55 43 0 45 -1 50 -37z m2307 7 c8 -5 12 -11 9 -14 -3 -3 -14 1 -25 9 -21
16 -8 20 16 5z m-1126 -10 c26 -10 33 -33 17 -58 -13 -21 -81 -5 -81 18 0 48
17 58 64 40z m-1385 -37 c11 -39 3 -52 -29 -53 -8 0 -25 -3 -37 -6 -19 -5 -23
-1 -29 32 -8 43 11 64 57 64 24 0 30 -6 38 -37z m679 1 c21 -6 22 -10 21 -123
-1 -64 2 -143 6 -177 l8 -61 -84 -7 c-46 -3 -135 -12 -197 -18 -98 -10 -115
-9 -128 4 -10 10 -20 59 -30 144 -8 71 -19 146 -23 167 -5 20 -5 39 -1 42 4 3
66 10 136 15 71 6 136 12 144 14 26 6 124 6 148 0z m341 -8 c97 -3 136 -8 142
-18 14 -21 11 -72 -10 -176 -11 -54 -23 -118 -26 -144 -4 -27 -12 -48 -19 -48
-6 0 -67 7 -136 15 -69 8 -146 15 -172 15 -26 0 -50 5 -53 11 -9 13 -15 285
-8 328 l6 33 71 -6 c39 -3 131 -7 205 -10z m572 2 c30 -9 39 -16 39 -34 0 -54
-18 -64 -79 -43 -33 12 -37 23 -21 63 11 30 10 30 61 14z m-1816 -48 c22 -43
19 -58 -15 -65 -36 -8 -48 -1 -61 33 -9 22 -7 30 11 44 31 25 47 22 65 -12z
m1549 -1 c123 -31 288 -81 316 -96 14 -7 31 -13 38 -13 6 0 12 -3 12 -6 0 -12
-51 -169 -61 -186 -5 -10 -9 -24 -9 -33 0 -8 -9 -34 -19 -57 -11 -24 -22 -51
-25 -60 -5 -16 -11 -15 -78 9 -78 27 -122 40 -261 74 l-89 23 7 45 c3 25 13
70 22 99 8 29 12 59 10 66 -3 8 -1 46 6 85 12 83 9 81 131 50z m1316 11 c0 -5
-2 -10 -4 -10 -3 0 -8 5 -11 10 -3 6 -1 10 4 10 6 0 11 -4 11 -10z m-2417 -22
c8 -31 25 -175 32 -270 l6 -78 -26 0 c-14 0 -97 -18 -185 -40 -88 -22 -161
-40 -164 -40 -8 0 -43 72 -75 153 -16 40 -38 96 -50 125 l-21 53 36 15 c38 16
319 90 369 97 65 9 73 7 78 -15z m1577 -13 c27 -14 28 -17 18 -47 -6 -18 -12
-34 -13 -36 -2 -2 -19 4 -39 12 -33 14 -36 18 -30 43 12 50 17 52 64 28z
m-2187 -50 c9 -20 17 -37 17 -39 0 -8 -92 -26 -101 -21 -5 4 -16 20 -24 36
-15 28 -15 30 7 38 13 4 30 11 38 14 33 12 47 6 63 -28z m2377 -20 c53 -28 29
-93 -29 -80 -39 8 -47 26 -31 65 14 34 20 36 60 15z m820 -15 c0 -5 -2 -10 -4
-10 -3 0 -8 5 -11 10 -3 6 -1 10 4 10 6 0 11 -4 11 -10z m-3401 -46 c24 -41
22 -48 -20 -63 -27 -9 -33 -8 -55 14 -32 32 -30 49 9 69 43 21 42 21 66 -20z
m332 -37 c35 -93 67 -175 85 -210 27 -54 20 -61 -116 -108 -64 -22 -135 -57
-169 -81 -40 -30 -57 -22 -92 40 -18 31 -59 99 -92 150 -66 105 -65 109 11
137 26 10 56 24 68 32 25 16 254 112 269 112 6 1 22 -32 36 -72z m2035 57 c40
-17 244 -113 300 -141 73 -37 73 -32 9 -135 -32 -51 -73 -124 -92 -161 -18
-37 -37 -66 -41 -64 -4 2 -83 41 -177 87 -93 45 -171 84 -173 85 -2 1 9 28 22
60 14 31 31 76 36 98 18 68 62 187 70 187 4 0 25 -7 46 -16z m1132 -44 c13
-12 21 -24 18 -27 -6 -6 -74 48 -75 60 -1 11 29 -7 57 -33z m-728 -15 c35 -18
35 -17 15 -55 -18 -35 -42 -38 -79 -9 -25 19 -25 22 -11 50 17 33 33 36 75 14z
m-2940 -51 c23 -41 19 -51 -26 -60 -27 -5 -34 -2 -53 25 l-22 31 33 20 c18 11
36 20 40 20 3 0 16 -16 28 -36z m3748 -4 c3 -8 -5 -6 -21 6 -15 10 -27 23 -27
28 0 12 43 -18 48 -34z m-4563 -20 c-10 -11 -21 -17 -24 -14 -3 3 3 12 13 20
28 20 32 17 11 -6z m3940 -40 c17 -18 17 -21 1 -45 -21 -33 -42 -41 -61 -25
-19 16 -19 40 1 68 19 27 36 28 59 2z m-4015 -35 c-19 -19 -38 -35 -44 -35 -6
0 7 18 29 40 21 22 41 37 44 35 2 -3 -11 -21 -29 -40z m725 -5 c20 -39 19 -45
-11 -59 -30 -13 -39 -9 -59 29 -14 27 -14 30 7 44 32 23 45 20 63 -14z m252
-53 c64 -103 135 -228 131 -231 -2 -2 -40 -24 -84 -50 -45 -27 -112 -71 -149
-99 -78 -58 -75 -59 -149 26 l-49 57 52 59 c52 60 54 89 5 56 -14 -9 -43 -23
-65 -30 -38 -14 -39 -14 -69 18 l-29 32 31 32 c41 42 296 213 318 213 3 0 28
-37 57 -83z m1598 43 c61 -6 132 -18 159 -26 27 -8 60 -17 75 -19 57 -7 285
-66 312 -81 16 -8 33 -13 38 -10 4 3 30 -3 57 -13 110 -42 178 -72 202 -87 13
-9 90 -49 170 -90 163 -84 231 -124 232 -139 0 -5 17 -18 38 -28 38 -19 138
-101 230 -190 45 -44 53 -56 48 -79 -9 -48 -73 -132 -157 -208 -45 -41 -98
-90 -118 -107 -19 -18 -38 -33 -42 -33 -13 0 -75 75 -88 108 -20 47 -31 39
-31 -21 0 -47 4 -57 35 -87 33 -32 34 -34 17 -53 -9 -11 -44 -39 -76 -63 -33
-24 -132 -110 -220 -192 -89 -82 -190 -173 -226 -202 -36 -29 -72 -62 -81 -72
-15 -19 -16 -19 -34 9 -37 56 -156 193 -203 232 -114 96 -232 191 -236 191 -3
0 -42 17 -88 39 -46 21 -91 41 -100 44 -9 3 -21 21 -25 39 -6 23 -18 38 -40
48 l-31 15 1 540 c0 297 2 544 4 548 3 4 19 5 36 3 18 -3 82 -10 142 -16z
m1301 -6 c27 -14 58 -33 69 -43 11 -9 33 -23 50 -31 27 -14 129 -93 198 -155
26 -24 27 -26 11 -50 -9 -14 -23 -25 -30 -25 -8 0 -18 -8 -21 -17 -7 -18 -79
-113 -143 -185 l-35 -40 -35 39 c-43 48 -121 106 -217 163 -40 23 -73 47 -73
53 0 18 68 154 102 206 18 26 41 63 50 80 9 17 19 31 21 31 2 0 26 -12 53 -26z
m-1523 -459 c-1 -258 -2 -507 -3 -552 0 -66 -3 -83 -15 -83 -7 0 -18 -6 -22
-13 -5 -9 -21 -12 -46 -9 -31 3 -35 7 -26 18 6 8 18 14 25 14 29 0 13 27 -26
44 -22 10 -40 22 -40 27 0 12 42 12 73 0 30 -12 37 -7 29 21 -4 18 -10 19 -56
14 -28 -4 -66 -2 -83 3 -50 14 -49 -4 2 -40 25 -18 45 -34 45 -35 0 -2 -18
-13 -40 -24 -56 -28 -55 -56 3 -65 92 -14 107 -17 107 -25 0 -4 -33 -24 -72
-45 -40 -21 -90 -52 -111 -69 -101 -81 -317 -270 -361 -315 -27 -28 -54 -51
-59 -51 -11 0 -65 55 -177 181 -94 106 -176 194 -216 233 -18 17 -35 41 -39
54 -3 12 -11 22 -16 22 -6 0 -110 100 -232 223 -122 123 -241 240 -265 260
-23 21 -40 42 -37 47 10 16 280 214 355 260 41 25 113 64 160 86 47 22 119 57
160 76 41 20 118 50 170 68 52 18 104 36 115 40 56 23 126 41 260 66 101 19
324 42 390 40 l50 -1 -2 -470z m1831 394 c31 -24 33 -49 6 -74 -19 -17 -21
-17 -55 9 -36 27 -36 34 -7 69 19 22 24 21 56 -4z m664 -17 c33 -43 24 -41
-19 4 -18 20 -28 35 -20 32 8 -2 25 -18 39 -36z m-4262 -8 c19 -35 19 -36 0
-50 -29 -21 -54 -17 -73 12 -17 26 -17 27 12 50 17 13 33 24 36 24 3 0 14 -16
25 -36z m-330 -120 c76 -80 142 -150 146 -157 4 -7 8 -28 8 -47 0 -46 39 -90
81 -90 24 0 46 -17 127 -102 53 -57 176 -182 272 -279 235 -237 330 -336 330
-343 0 -3 -17 -6 -37 -6 -31 -1 -47 -9 -90 -49 -34 -32 -53 -58 -55 -77 -3
-25 1 -29 35 -37 34 -8 38 -12 34 -34 -4 -20 1 -27 22 -36 18 -9 26 -20 26
-37 0 -21 5 -25 30 -28 38 -3 67 14 46 27 -11 7 -8 17 17 49 18 22 32 42 32
45 0 4 -21 16 -47 27 -40 18 -54 20 -82 11 -19 -6 -41 -6 -49 -2 -12 7 -7 16
23 49 20 23 52 51 71 62 29 18 36 19 52 8 18 -12 227 -230 322 -333 73 -80
466 -496 515 -545 25 -25 45 -48 45 -52 0 -14 31 -8 58 10 61 41 115 57 192
56 81 0 126 -17 168 -61 29 -32 28 -37 -10 -64 -18 -13 -54 -42 -80 -65 -33
-29 -60 -43 -90 -48 -54 -9 -68 -21 -68 -60 0 -26 -14 -45 -80 -111 l-80 -80
-224 227 c-123 124 -258 266 -301 315 -115 129 -359 388 -597 632 -156 159
-208 217 -202 230 3 9 7 23 7 31 0 8 5 18 11 22 13 9 96 11 96 2 0 -3 -13 -17
-30 -31 -16 -13 -30 -29 -30 -34 0 -5 16 -15 35 -23 20 -9 39 -26 45 -41 7
-18 17 -25 35 -25 16 0 24 4 19 11 -3 6 6 24 22 40 21 22 25 32 16 41 -9 9
-19 8 -44 -4 -33 -15 -58 -14 -58 2 0 5 14 25 31 44 34 39 31 58 -9 54 -24 -3
-27 0 -24 24 3 29 -28 58 -60 58 -19 0 -24 15 -8 25 19 12 10 24 -34 40 -46
18 -69 13 -96 -19 -33 -41 -80 -6 -80 60 0 38 3 44 22 44 32 0 58 29 58 66 0
27 -10 40 -60 84 l-60 52 0 -29 c0 -17 -12 -43 -30 -64 -26 -33 -45 -44 -104
-63 -18 -6 -16 -10 14 -41 l34 -35 31 30 c17 17 34 27 38 24 4 -4 7 -29 7 -56
0 -64 11 -82 60 -102 28 -11 40 -22 40 -36 0 -22 38 -37 67 -26 15 6 14 8 -2
20 -23 16 -9 24 32 17 31 -6 31 -6 18 -38 -8 -18 -21 -33 -28 -33 -8 0 -18
-11 -21 -25 -4 -14 -11 -25 -16 -25 -5 0 -12 11 -16 25 -3 14 -11 25 -18 25
-20 0 -232 203 -330 316 -81 93 -225 251 -279 305 l-37 38 20 33 c25 42 25 84
0 126 -15 25 -18 37 -10 52 5 10 10 55 10 99 0 45 4 81 9 81 5 0 71 -65 147
-146z m174 1 l23 -24 -24 -25 c-31 -33 -43 -32 -68 1 l-21 26 22 24 c27 29 39
29 68 -2z m3931 -47 c-37 -34 -42 -34 -67 -7 -19 21 -18 21 15 51 l33 30 25
-24 24 -23 -30 -27z m-3782 4 c15 -22 17 -32 9 -40 -7 -7 -15 -12 -19 -12 -4
0 -31 -14 -58 -32 l-51 -31 -25 23 c-14 13 -25 27 -25 31 0 12 113 88 132 88
9 1 26 -12 37 -27z m91 -41 c0 -5 -24 -32 -52 -59 -124 -120 -140 -128 -146
-83 -4 28 18 54 71 81 23 11 60 32 82 45 46 28 45 28 45 16z m3677 -63 c147
-140 170 -163 202 -204 17 -23 31 -46 31 -50 -1 -5 -37 -36 -81 -69 -44 -33
-108 -81 -142 -107 -34 -26 -66 -47 -72 -47 -9 -1 -173 162 -249 246 l-29 32
58 68 c111 130 180 203 193 203 7 0 47 -33 89 -72z m165 5 c24 -22 23 -35 -7
-63 l-26 -24 -26 27 -27 26 24 26 c28 29 37 31 62 8z m582 -9 c4 -10 1 -14 -6
-12 -15 5 -23 28 -10 28 5 0 13 -7 16 -16z m-4388 -52 c71 -82 71 -83 10 -135
l-53 -46 -58 59 -59 60 55 54 c29 30 56 55 59 55 3 1 23 -20 46 -47z m3944
-89 c24 -31 23 -40 -13 -67 l-27 -20 -30 29 -31 30 33 27 c18 15 36 28 40 28
4 0 16 -12 28 -27z m-4555 -33 c27 -28 27 -30 11 -55 -21 -32 -49 -32 -70 0
-16 24 -16 27 1 55 9 17 20 30 23 30 4 0 19 -13 35 -30z m155 -157 c127 -131
162 -174 152 -187 -5 -6 -42 -54 -83 -106 -41 -52 -83 -107 -92 -122 l-17 -28
-63 35 c-34 19 -98 54 -143 76 -44 23 -91 49 -103 58 l-22 17 77 114 c96 143
172 240 188 240 6 0 54 -44 106 -97z m5020 72 c14 -19 14 -19 -2 -6 -10 7 -18
18 -18 24 0 6 1 8 3 6 1 -2 9 -13 17 -24z m-496 -31 c33 -41 29 -59 -18 -82
-24 -12 -29 -12 -41 5 -38 51 -39 60 -9 87 16 14 31 26 34 26 3 0 18 -16 34
-36z m-106 -67 c35 -40 94 -119 132 -176 78 -118 78 -118 -5 -156 -27 -13 -96
-49 -152 -79 l-102 -56 -16 23 c-9 12 -33 50 -55 84 -21 34 -66 95 -99 136
-34 41 -61 79 -61 85 0 5 37 34 83 64 45 31 109 77 141 102 33 25 62 46 65 45
3 0 34 -33 69 -72z m661 -2 c0 -5 -6 -1 -14 9 -8 11 -15 24 -15 30 0 5 7 1 15
-10 8 -10 14 -23 14 -29z m-5358 16 l24 -20 -23 -23 -22 -22 -27 26 c-22 23
-24 29 -13 42 17 21 33 20 61 -3z m722 -100 c6 -23 0 -31 -24 -31 -24 0 -33
18 -19 35 17 21 37 19 43 -4z m4207 -31 c24 -34 21 -43 -20 -64 -29 -14 -31
-13 -50 14 -26 37 -25 46 8 64 37 20 38 20 62 -14z m-5037 -31 c25 -19 26 -21
11 -45 -19 -29 -41 -30 -71 -5 -27 23 -28 29 -6 53 21 23 34 23 66 -3z m4402
-21 c32 -14 120 -128 200 -258 130 -209 216 -422 289 -715 14 -55 34 -136 45
-180 11 -44 21 -110 21 -147 0 -36 5 -89 12 -118 16 -70 5 -80 -103 -86 -46
-3 -385 -7 -754 -10 l-670 -6 -1 84 c-2 125 -47 351 -95 470 -27 68 -38 107
-32 119 9 19 354 335 423 388 25 19 50 40 55 46 18 20 144 115 153 115 5 0 30
-27 56 -59 31 -39 57 -61 74 -64 15 -2 35 -8 45 -12 15 -6 17 -1 17 43 l0 51
37 3 c33 3 38 6 38 28 0 22 -3 25 -34 22 -33 -4 -33 -3 -27 30 4 22 1 41 -8
53 -14 20 -15 20 -40 -4 -29 -27 -33 -56 -11 -85 20 -26 19 -66 -1 -66 -8 0
-36 20 -62 45 l-47 44 40 33 c22 18 72 60 110 94 72 62 131 103 195 136 42 21
43 21 75 6z m-3723 -120 c51 -57 149 -159 218 -228 407 -409 664 -679 717
-752 25 -37 26 -39 11 -75 -20 -50 -70 -256 -68 -279 6 -52 60 -49 -768 -49
l-767 0 3 85 c5 133 46 367 89 500 8 25 18 62 24 83 5 21 18 57 28 80 11 23
21 51 24 62 26 100 136 348 200 450 48 77 169 225 183 225 7 0 54 -46 106
-102z m4946 -1 c12 -26 17 -45 12 -42 -9 5 -50 91 -50 103 0 14 19 -17 38 -61z
m-5533 -20 c163 -88 235 -129 235 -134 0 -20 -166 -343 -176 -343 -7 0 -55 13
-106 29 -51 17 -126 39 -165 51 -49 14 -73 26 -73 36 0 8 14 42 31 76 17 34
37 78 44 97 24 70 108 231 119 231 6 0 47 -20 91 -43z m865 23 c0 -5 -4 -10
-10 -10 -5 0 -10 5 -10 10 0 6 5 10 10 10 6 0 10 -4 10 -10z m4188 -2 c20 -20
13 -42 -20 -61 -32 -18 -33 -18 -51 4 -21 27 -18 40 14 56 30 16 42 16 57 1z
m-5247 -27 c21 -16 22 -22 11 -45 -14 -31 -37 -33 -71 -7 -24 18 -24 20 -8 45
21 31 37 33 68 7z m5156 -59 c74 -110 157 -303 137 -321 -5 -5 -35 -18 -66
-29 l-57 -20 -18 37 c-11 23 -26 37 -40 39 -16 2 -23 10 -23 26 0 34 17 46 51
34 48 -17 55 -3 14 25 -81 55 -146 56 -159 1 -9 -33 22 -88 52 -92 23 -4 29
-17 12 -27 -5 -3 -10 -23 -10 -44 0 -37 -2 -39 -42 -50 -24 -7 -48 -14 -55
-17 -6 -3 -16 11 -23 32 -7 20 -39 88 -72 151 -32 64 -57 120 -55 126 3 9 301
175 317 176 3 1 19 -20 37 -47z m-4037 9 c0 -12 -20 -25 -27 -18 -7 7 6 27 18
27 5 0 9 -4 9 -9z m4660 -32 c0 -5 -4 -9 -10 -9 -5 0 -10 7 -10 16 0 8 5 12
10 9 6 -3 10 -10 10 -16z m-6373 -71 c-3 -8 -6 -5 -6 6 -1 11 2 17 5 13 3 -3
4 -12 1 -19z m5933 -24 c0 -17 -8 -28 -26 -34 -36 -14 -39 -13 -52 15 -16 34
-17 33 21 49 38 16 57 5 57 -30z m480 -14 c0 -13 -1 -13 -10 0 -5 8 -10 22
-10 30 0 13 1 13 10 0 5 -8 10 -22 10 -30z m-5905 18 c23 -10 26 -16 21 -42
-10 -47 -22 -53 -61 -32 -36 20 -39 26 -29 64 7 25 30 28 69 10z m2776 -19 c5
-8 9 -24 9 -36 0 -13 4 -23 9 -23 13 0 21 27 14 46 -10 26 20 11 34 -17 7 -13
13 -39 13 -57 0 -23 4 -32 13 -29 7 2 12 23 12 57 -1 52 -1 52 17 30 24 -30
41 -95 33 -131 -9 -40 3 -37 20 5 9 22 12 47 8 68 -6 30 -5 32 10 20 28 -23
50 -109 44 -168 -3 -30 -2 -54 3 -54 18 0 32 72 25 127 -9 71 12 69 37 -3 16
-47 17 -85 2 -183 -4 -24 -2 -32 7 -29 19 6 37 67 38 126 1 60 16 66 40 16 18
-37 16 -154 -5 -202 -16 -39 -10 -57 11 -28 17 23 35 104 35 156 0 79 22 39
49 -86 8 -38 2 -99 -14 -151 -4 -13 -5 -23 -1 -23 14 0 39 69 50 139 13 75 13
76 26 46 8 -17 14 -67 14 -117 l1 -86 -71 -69 c-39 -37 -116 -105 -172 -151
-56 -46 -115 -100 -133 -119 l-31 -36 -36 38 c-69 71 -156 89 -276 56 -43 -12
-92 -29 -109 -38 l-31 -16 -192 199 c-108 111 -190 204 -187 211 3 7 -6 17
-21 23 -42 15 -32 33 14 25 33 -6 39 -4 34 9 -3 8 -15 16 -27 18 -30 4 -29 34
1 31 14 -2 22 3 22 13 0 8 5 12 10 9 6 -3 10 -15 10 -25 0 -10 5 -22 12 -26 8
-5 9 4 5 32 -4 21 -2 46 3 54 7 12 12 8 21 -17 16 -48 27 -40 21 17 -4 48 9
69 22 35 11 -30 24 -14 19 24 -6 46 12 64 21 21 10 -50 28 -36 20 16 -6 44 -6
46 15 39 18 -5 21 -2 21 20 0 22 3 25 20 20 16 -5 20 -2 20 14 0 12 4 21 10
21 5 0 32 16 59 35 26 19 51 35 55 35 4 0 40 19 80 43 68 40 78 43 141 41 45
-1 70 -6 76 -15z m3159 -84 c0 -5 -5 -3 -10 5 -5 8 -10 20 -10 25 0 6 5 3 10
-5 5 -8 10 -19 10 -25z m-790 -20 c0 -16 -6 -25 -15 -25 -9 0 -15 9 -15 25 0
16 6 25 15 25 9 0 15 -9 15 -25z m344 -11 c12 -31 6 -42 -28 -46 -29 -3 -37 0
-45 19 -9 20 -8 25 12 33 34 13 54 12 61 -6z m-5579 -48 c38 -16 41 -26 24
-75 -13 -36 -14 -36 -63 -16 -40 17 -44 31 -21 75 18 35 16 34 60 16z m1635
-31 c0 -12 -28 -35 -44 -35 -8 0 -7 35 1 43 12 13 43 7 43 -8z m3666 -24 c-10
-16 -36 -13 -36 3 0 17 21 27 34 16 4 -5 5 -13 2 -19z m782 -36 c6 -22 20 -71
30 -110 23 -83 37 -163 27 -153 -4 3 -15 42 -25 85 -28 118 -48 196 -56 218
-5 13 -4 17 3 10 6 -5 15 -28 21 -50z m-5928 24 c129 -48 221 -79 239 -79 11
0 22 -4 25 -9 3 -4 -10 -55 -29 -112 -20 -57 -42 -139 -50 -183 -7 -43 -16
-80 -19 -83 -3 -3 -52 -1 -108 6 -57 6 -137 14 -178 17 -41 3 -78 9 -83 13
-11 11 15 135 58 280 57 192 51 186 145 150z m5345 2 c3 -5 19 -58 35 -118 16
-59 36 -128 43 -153 8 -25 21 -75 29 -112 l15 -67 -51 -6 c-28 -3 -106 -15
-174 -26 -167 -26 -156 -28 -171 34 -8 28 -29 102 -47 163 -18 61 -35 125 -36
143 -3 33 -3 33 72 56 41 13 118 39 170 59 107 40 107 39 115 27z m141 -62 c8
-24 14 -45 14 -46 0 -7 -76 -21 -81 -15 -4 4 -10 23 -14 42 -5 31 -3 37 22 52
38 22 44 19 59 -33z m-5693 -84 c26 -5 28 -9 22 -33 -3 -15 -10 -31 -15 -36
-11 -11 -70 3 -76 18 -7 20 14 66 28 62 7 -3 26 -7 41 -11z m3527 -127 c0 -36
-9 -58 -25 -58 -9 0 -12 12 -8 43 7 63 12 75 23 57 6 -8 10 -27 10 -42z m2225
1 c4 -22 5 -42 2 -45 -2 -3 -20 -7 -40 -11 -34 -5 -35 -4 -39 32 -3 28 0 40
16 51 36 25 54 18 61 -27z m-5810 -73 c38 -16 40 -21 25 -60 -9 -24 -11 -25
-47 -12 -38 13 -52 38 -39 72 7 18 18 18 61 0z m3644 -71 c-9 -66 -41 -166
-64 -202 -8 -13 -22 -34 -31 -48 -20 -31 -12 -32 17 -2 36 38 71 99 96 167
l24 65 -6 -65 c-7 -67 -37 -151 -61 -171 -8 -6 -14 -16 -14 -21 0 -33 80 76
104 142 l17 45 -4 -46 c-5 -58 -46 -148 -92 -201 -19 -23 -33 -44 -30 -47 11
-10 62 38 100 95 30 44 41 54 43 40 12 -63 -59 -172 -144 -222 -25 -15 -43
-28 -41 -30 1 -2 21 2 43 8 26 8 61 34 105 79 l66 66 -9 -40 c-18 -79 -71
-142 -142 -168 -42 -15 -48 -32 -8 -23 28 7 87 45 136 88 16 14 30 26 32 26 6
0 -16 -63 -28 -78 -37 -51 -77 -84 -110 -93 -21 -5 -38 -14 -38 -19 0 -25 92
4 147 45 l36 28 -7 -29 c-10 -38 -56 -86 -111 -113 -25 -12 -47 -27 -51 -33
-12 -19 60 3 109 34 26 17 50 29 52 26 18 -18 -108 -128 -145 -128 -22 0 -80
56 -319 308 -69 73 -130 142 -136 154 -7 17 -4 25 20 46 100 85 182 158 269
242 57 55 101 90 103 83 7 -19 -25 -107 -53 -149 -31 -45 -22 -59 11 -19 38
47 76 130 82 177 3 24 10 49 16 56 18 23 25 -8 16 -73z m2638 -17 c-3 -8 -6
-5 -6 6 -1 11 2 17 5 13 3 -3 4 -12 1 -19z m-417 -63 c0 -29 -4 -36 -25 -41
-37 -9 -55 2 -55 34 0 37 6 42 47 42 31 0 33 -2 33 -35z m427 13 c-3 -8 -6 -5
-6 6 -1 11 2 17 5 13 3 -3 4 -12 1 -19z m-6017 -7 c133 -17 135 -17 133 -41
-1 -14 -9 -101 -17 -195 -9 -93 -16 -179 -16 -190 0 -19 -7 -20 -187 -20
l-188 0 -5 90 c-6 117 20 324 47 368 7 11 84 7 233 -12z m5474 -48 c15 -126
23 -235 22 -308 l-1 -80 -187 0 -188 0 -1 35 c0 19 -2 49 -4 65 -2 17 -6 64
-10 105 -3 41 -11 94 -17 118 -6 25 -7 47 -2 52 13 12 262 54 350 58 31 2 32
0 38 -45z m-6263 -14 l-10 -24 0 26 c-1 14 2 29 6 33 12 12 14 -9 4 -35z
m6820 14 c11 -30 16 -78 25 -250 7 -113 1 -168 -16 -158 -4 3 -6 29 -3 58 5
47 -8 224 -24 335 -6 48 2 55 18 15z m-6324 -17 c0 0 -1 -22 -4 -48 -5 -44 -8
-48 -32 -48 -43 0 -53 12 -45 56 9 54 12 56 47 48 18 -3 33 -7 34 -8z m2121
-66 c37 -49 314 -351 381 -415 35 -33 81 -82 104 -108 l40 -48 -39 -41 c-21
-22 -82 -74 -134 -116 -52 -42 -111 -92 -131 -112 -51 -50 -136 -120 -146
-120 -4 0 -21 11 -38 25 l-30 24 38 1 c43 0 49 16 10 25 -16 3 -39 15 -53 26
l-25 20 37 -6 c21 -3 39 -1 43 5 3 5 -2 10 -12 10 -23 0 -65 29 -58 40 3 4 14
6 24 3 32 -8 33 14 1 27 -16 7 -35 18 -41 26 -9 12 -3 14 37 15 l49 1 -37 17
c-40 19 -78 49 -78 62 0 5 15 6 33 3 l32 -5 -25 18 c-37 27 -73 64 -67 69 3 3
19 -2 36 -10 16 -9 43 -16 58 -16 24 0 21 3 -23 24 -28 13 -59 34 -68 47 -18
26 -8 36 22 20 31 -16 35 1 4 19 -28 17 -60 66 -49 76 3 3 16 -1 29 -10 12 -9
30 -16 40 -16 12 0 2 15 -32 50 -47 46 -61 70 -42 70 5 0 17 -9 27 -20 10 -11
27 -20 38 -20 17 0 15 4 -13 36 -33 39 -34 52 -2 35 33 -18 35 -13 8 22 -34
45 -34 65 0 38 41 -33 66 -26 27 7 -31 27 -59 79 -48 90 3 3 18 -7 33 -21 34
-33 54 -36 25 -4 -46 50 -55 99 -11 61 21 -19 21 -19 -1 14 -26 37 -23 49 8
32 27 -14 27 1 1 25 -11 10 -20 22 -20 27 0 17 17 7 38 -22z m3777 -70 c0 -34
-1 -35 -40 -35 -34 0 -40 3 -43 23 -6 42 5 53 45 50 36 -3 38 -5 38 -38z
m-5946 -96 c27 -6 31 -10 31 -41 0 -38 -12 -46 -55 -35 -26 7 -30 14 -33 45
-3 40 0 42 57 31z m3458 -289 c46 -44 83 -87 83 -96 0 -9 9 -20 20 -25 18 -8
107 -85 224 -195 l50 -47 -32 -16 c-43 -22 -65 -20 -96 9 -15 14 -31 25 -37
25 -5 0 -9 13 -9 29 0 25 -5 30 -32 36 -66 13 -68 15 -68 50 0 27 -4 34 -22
37 -17 2 -24 11 -28 33 -4 26 -10 30 -43 33 -36 3 -37 2 -25 -18 12 -20 9 -25
-32 -61 -37 -32 -42 -41 -30 -49 21 -14 31 -12 65 10 41 27 69 27 62 -1 -4
-15 0 -23 14 -26 23 -6 23 -5 -1 -45 -11 -18 -20 -43 -20 -55 0 -19 6 -23 30
-23 26 0 30 4 30 26 0 25 2 26 38 19 20 -3 41 -10 45 -15 5 -4 -5 -27 -22 -50
-51 -71 -38 -95 38 -69 28 10 30 13 16 23 -15 11 -15 14 2 35 15 18 22 21 43
12 l25 -10 -22 -7 c-27 -8 -28 -12 -6 -36 15 -17 15 -20 -4 -41 -29 -31 -45
-66 -39 -83 7 -18 54 -18 86 1 l25 14 -28 1 c-25 0 -26 2 -17 20 13 24 28 25
58 4 l23 -16 -26 -45 c-14 -25 -25 -50 -25 -55 0 -6 26 -9 65 -6 l65 4 0 -28
c0 -30 -14 -38 -24 -13 -7 20 -35 19 -43 -1 -9 -24 18 -44 62 -47 l40 -2 3 48
c2 32 7 47 17 47 9 0 12 -6 9 -15 -7 -17 12 -45 31 -45 20 0 26 63 7 78 -19
15 -84 16 -135 1 -22 -6 -41 -8 -44 -5 -10 10 19 36 38 36 11 0 19 7 19 18 0
9 3 27 6 40 5 18 2 22 -18 22 -31 0 -67 25 -53 38 6 5 30 17 55 26 l45 18 108
-113 c62 -65 111 -125 114 -139 3 -17 12 -26 26 -27 12 -1 34 -17 49 -35 l27
-33 -32 -3 c-43 -5 -67 -28 -67 -66 0 -54 -10 -76 -35 -76 -35 0 -51 26 -38
61 10 25 9 31 -7 39 -10 6 -23 10 -29 10 -26 0 -1 -101 30 -126 8 -6 38 -14
67 -16 70 -7 84 7 80 76 -3 49 -2 51 22 51 18 0 26 -6 28 -22 3 -22 38 -37 64
-28 14 5 218 -194 218 -213 0 -7 -9 -12 -21 -12 -41 0 -143 -75 -152 -113 -3
-12 -9 -32 -12 -44 -7 -21 -4 -23 24 -23 26 0 31 -4 31 -24 0 -17 7 -26 25
-30 18 -5 25 -13 25 -30 0 -33 24 -49 73 -50 32 -1 43 4 52 20 10 19 12 20 33
6 21 -14 22 -14 22 25 0 21 -6 47 -12 56 -18 24 -69 31 -93 14 -17 -13 -18
-18 -6 -40 16 -31 8 -59 -14 -51 -9 4 -14 13 -11 21 4 8 -3 22 -15 32 -18 15
-20 21 -10 39 6 12 20 26 32 32 11 6 17 15 14 21 -9 14 -49 11 -71 -6 -27 -20
-54 -19 -54 4 0 23 84 102 128 120 l33 14 247 -250 c136 -137 294 -300 351
-362 l104 -113 -16 -52 c-21 -66 -21 -99 -1 -137 14 -28 14 -33 0 -48 -21 -23
-46 -85 -46 -116 0 -14 -4 -25 -8 -25 -11 0 -127 123 -162 170 -14 19 -40 51
-59 72 -29 33 -32 42 -26 74 9 50 -31 94 -86 94 -33 0 -44 7 -100 68 -35 37
-133 137 -218 223 -86 86 -195 196 -242 245 -47 49 -104 107 -127 129 -23 22
-42 43 -42 47 0 4 21 -4 46 -17 71 -38 234 -34 234 6 0 27 -14 31 -64 17 -25
-7 -49 -9 -52 -5 -4 4 8 23 27 43 l34 36 -30 24 c-28 23 -29 26 -12 38 28 21
20 26 -39 26 -47 0 -55 -3 -52 -18 1 -9 -7 -33 -20 -53 -28 -46 -28 -59 1 -59
14 0 26 9 32 23 6 12 18 22 28 22 24 0 24 -18 -1 -30 -16 -7 -20 -15 -16 -32
4 -15 1 -25 -8 -28 -19 -8 -68 11 -95 37 -12 11 -29 18 -37 15 -11 -4 -46 28
-113 105 -54 62 -123 137 -153 168 -30 31 -88 92 -128 135 -40 44 -90 98 -110
120 -21 22 -71 78 -112 124 -41 47 -93 103 -115 126 -22 23 -78 83 -125 133
-46 51 -87 92 -91 92 -3 0 -10 -15 -15 -32 -7 -26 -21 -39 -64 -61 -51 -27
-61 -28 -134 -23 -59 4 -89 12 -122 31 -24 14 -44 29 -44 33 0 23 152 142 181
142 35 0 69 38 69 76 0 29 10 42 83 103 l82 70 89 -97 c50 -53 127 -133 173
-177z m2490 217 c15 -2 28 -61 16 -73 -5 -5 -25 -6 -45 -3 -30 5 -37 11 -40
34 -7 45 2 50 69 42z m-527 -117 c17 -20 -11 -392 -35 -455 -9 -25 -21 -63
-27 -85 -5 -22 -21 -76 -34 -120 -13 -44 -24 -85 -24 -92 0 -6 -24 -63 -54
-125 -29 -62 -61 -133 -70 -158 -10 -24 -33 -71 -52 -103 -19 -32 -34 -61 -34
-64 0 -4 -11 -23 -24 -42 -13 -20 -56 -87 -97 -148 -81 -126 -75 -124 -139
-49 -14 17 -145 152 -292 301 -148 149 -279 286 -292 305 -13 19 -103 112
-200 205 -97 94 -185 183 -197 198 l-21 29 21 51 c30 76 52 181 57 267 3 71 5
75 26 73 13 -1 34 -3 48 -4 80 -5 1176 13 1230 20 111 14 196 13 210 -4z m416
-137 c-8 -181 -18 -294 -28 -303 -6 -7 -88 6 -278 43 l-85 17 3 45 c1 25 4 95
5 155 2 61 4 129 5 153 l2 42 191 0 192 0 -7 -152z m513 136 c11 -4 12 -24 6
-112 -4 -59 -7 -135 -6 -168 1 -34 -8 -106 -19 -160 -12 -55 -27 -130 -35
-169 -7 -38 -24 -110 -38 -160 -14 -49 -41 -148 -61 -219 -20 -70 -45 -149
-56 -173 -11 -25 -20 -50 -20 -55 0 -26 -234 -476 -295 -567 -225 -337 -475
-609 -797 -866 -44 -36 -184 -127 -245 -161 -37 -20 -75 -43 -83 -50 -31 -25
-309 -164 -410 -204 -105 -42 -229 -85 -285 -100 -16 -5 -61 -18 -100 -30 -38
-11 -113 -30 -165 -40 -52 -11 -126 -26 -165 -34 -106 -22 -344 -45 -490 -48
l-130 -2 2 153 c1 84 4 155 7 158 3 3 63 8 133 10 138 4 390 36 463 58 25 8
77 22 115 30 259 59 364 96 610 217 111 54 192 102 371 218 76 49 203 149 277
220 27 25 54 45 61 45 7 0 62 -52 121 -115 111 -118 144 -142 131 -99 -27 96
-15 171 37 219 l31 28 -25 39 c-30 45 -26 95 10 144 22 29 22 31 5 50 -12 14
-15 24 -9 33 6 7 26 34 45 61 19 27 56 74 83 106 26 32 47 61 47 64 0 3 8 18
19 33 74 107 179 298 211 382 8 19 22 47 32 61 40 59 142 365 187 564 40 173
72 420 76 571 1 33 4 64 7 70 6 9 319 8 347 -2z m-4339 -38 c0 -25 4 -78 10
-118 5 -40 12 -89 14 -108 3 -19 12 -53 20 -75 8 -22 15 -47 16 -55 0 -15 66
-185 81 -210 37 -60 37 -58 -26 -118 -33 -32 -96 -88 -139 -127 -139 -123
-202 -182 -251 -234 -59 -63 -79 -66 -73 -13 3 20 -2 56 -10 80 -20 61 -3 75
34 28 16 -20 32 -36 35 -36 15 0 16 44 3 75 -17 42 -17 45 -1 45 6 0 24 -14
38 -32 l26 -31 7 36 c6 34 9 37 39 34 26 -2 33 2 35 21 3 16 10 22 28 22 19 0
26 6 31 30 4 24 9 28 19 20 19 -16 38 23 24 49 -5 11 -10 27 -10 35 0 27 21
18 33 -14 6 -16 17 -30 24 -30 18 0 27 45 13 70 -18 35 -1 38 26 5 24 -29 25
-29 39 -11 8 11 15 23 15 26 0 12 -77 90 -88 90 -6 0 -14 -16 -18 -35 -5 -29
-9 -33 -20 -24 -19 16 -42 5 -46 -23 -2 -17 -10 -23 -28 -23 -22 0 -25 -4 -22
-30 2 -16 10 -34 18 -38 18 -10 18 -33 0 -40 -18 -7 -24 0 -42 41 -18 44 -38
32 -29 -17 3 -20 9 -46 12 -58 9 -38 -15 -26 -37 17 -12 23 -25 38 -30 35 -13
-8 -13 -51 1 -77 16 -29 2 -35 -24 -10 -32 30 -63 29 -71 -2 -4 -15 -14 -26
-29 -28 -17 -2 -23 -11 -25 -36 -3 -31 -5 -33 -33 -27 -55 12 -88 -40 -64 -99
30 -72 10 -91 -26 -26 -26 46 -49 49 -63 7 -9 -24 -6 -30 23 -55 l33 -27 -17
-43 c-19 -48 -71 -82 -124 -82 -28 0 -30 3 -33 43 -3 38 -6 43 -35 52 -63 21
-85 45 -91 103 -8 83 -32 62 -32 -28 0 -41 5 -55 31 -85 17 -19 37 -35 43 -35
7 0 21 -9 31 -20 16 -18 16 -20 -4 -46 -12 -15 -21 -32 -21 -39 0 -20 99 -25
142 -8 37 15 97 79 119 127 7 14 20 26 31 26 20 0 25 9 31 54 3 24 8 30 30 30
27 2 37 -17 17 -29 -5 -3 -10 -17 -10 -31 0 -18 -18 -42 -61 -82 -81 -74 -267
-222 -281 -222 -6 0 -41 -20 -77 -45 -96 -65 -103 -64 -173 25 -32 41 -82 111
-112 155 -56 84 -196 351 -196 374 0 7 -13 39 -29 70 -15 31 -33 85 -39 120
-6 35 -26 94 -43 130 -45 97 -118 451 -119 576 l0 60 707 -2 c390 -1 731 2
758 6 28 5 53 9 58 10 4 0 7 -19 7 -43z m-2115 24 c3 -5 10 -78 15 -162 15
-255 78 -575 141 -713 10 -22 33 -80 52 -130 70 -180 257 -547 324 -635 19
-25 73 -97 121 -160 180 -239 416 -454 694 -631 392 -251 661 -380 888 -429
69 -15 110 -29 132 -47 9 -8 19 -10 22 -5 3 5 53 0 118 -13 137 -27 270 -45
325 -45 23 0 45 -4 48 -10 3 -5 18 -9 33 -8 15 1 45 1 68 0 l40 -2 -2 -152 -2
-153 -54 0 c-160 -1 -471 35 -613 71 -55 14 -116 29 -135 33 -48 11 -168 47
-270 83 -47 16 -125 43 -175 60 -83 28 -401 184 -463 227 -15 10 -54 36 -87
57 -74 48 -209 150 -295 223 -36 31 -86 73 -111 93 -90 72 -326 314 -384 393
-32 44 -72 96 -89 116 -68 79 -97 118 -151 203 -30 48 -55 89 -55 91 0 2 -32
61 -71 131 -40 71 -79 147 -89 169 -10 22 -30 67 -45 100 -33 71 -133 341
-163 440 -11 39 -26 104 -32 145 -6 41 -15 94 -20 118 -6 23 -10 61 -10 85 0
23 -5 60 -11 82 -16 65 -37 348 -27 368 8 15 26 17 168 17 92 0 161 -4 165
-10z m133 -33 l3 -38 -48 3 c-42 3 -48 6 -51 26 -6 43 4 53 50 50 42 -3 43 -4
46 -41z m419 -27 c1 -36 6 -114 12 -175 15 -151 16 -145 -16 -145 -27 0 -275
-50 -319 -65 -20 -6 -22 -1 -40 112 -10 65 -18 165 -19 223 l0 105 95 3 c52 1
100 4 105 6 6 2 48 3 95 2 l85 -1 2 -65z m5497 4 c10 -4 16 -18 16 -40 0 -33
-1 -34 -40 -34 -46 0 -59 17 -42 56 11 24 35 30 66 18z m-5920 -120 c11 -4 16
-19 16 -45 l0 -39 -44 0 c-43 0 -44 1 -48 36 -3 29 0 38 16 44 26 11 40 12 60
4z m3800 -58 c-3 -7 -22 -27 -43 -44 -31 -25 -40 -28 -54 -17 -26 19 -20 31
23 44 21 6 42 16 45 21 10 15 35 12 29 -4z m-1047 -26 c137 -66 268 -73 344
-20 15 11 41 23 57 26 27 5 36 -1 112 -88 45 -51 98 -109 116 -130 19 -20 34
-40 34 -45 0 -5 20 -26 45 -46 53 -44 56 -57 15 -57 -16 0 -30 -4 -30 -10 0
-5 20 -10 45 -10 25 0 45 -4 45 -9 0 -15 -36 -23 -76 -15 -25 4 -35 3 -30 -4
3 -5 38 -13 77 -17 105 -11 72 -28 -45 -23 -53 1 -96 0 -96 -3 0 -11 86 -29
142 -30 53 -1 53 -1 18 -11 -19 -5 -81 -8 -137 -6 -57 2 -103 1 -103 -3 0 -14
112 -31 178 -27 40 2 72 1 72 -3 0 -13 -91 -29 -172 -30 -100 -1 -81 -13 37
-25 74 -7 77 -8 40 -15 -22 -4 -74 -8 -114 -8 -105 -1 -79 -22 36 -30 l88 -6
-50 -13 c-27 -8 -81 -16 -120 -19 -88 -8 -61 -21 45 -22 89 -1 84 -15 -11 -35
-47 -9 -88 -10 -153 -4 -49 5 -91 7 -93 4 -9 -9 95 -35 167 -42 l75 -7 -35
-15 c-25 -10 -62 -13 -132 -10 -114 4 -115 -8 -2 -26 l79 -12 -45 -11 c-25 -6
-71 -12 -104 -12 -32 0 -61 -2 -63 -5 -10 -9 71 -25 100 -19 55 11 24 -20 -41
-41 l-62 -20 -20 22 c-40 42 -110 36 -110 -9 0 -18 -4 -20 -32 -13 -18 3 -61
20 -95 37 -46 23 -60 34 -52 43 12 15 -3 27 -23 19 -23 -9 -68 12 -62 29 4 9
-6 18 -30 26 -41 13 -46 25 -15 33 12 3 18 10 14 16 -3 6 -11 9 -16 5 -14 -8
-89 6 -89 17 0 5 9 9 19 9 11 0 23 5 26 10 4 6 -6 10 -24 10 -32 0 -81 18 -81
30 0 4 16 11 35 14 52 10 53 26 2 26 -51 0 -110 18 -101 31 3 5 15 9 28 9 12
0 31 7 42 15 18 14 16 15 -26 14 -25 -1 -58 4 -75 11 l-30 13 37 11 c53 16 57
26 10 26 -48 0 -74 8 -66 21 3 5 10 7 15 3 6 -3 25 0 42 7 l32 14 -54 6 c-77
10 -90 29 -21 30 l55 2 -37 10 c-21 6 -38 14 -38 18 0 8 54 59 199 190 86 77
244 218 247 219 0 0 18 -9 41 -20z m3158 -45 c0 -40 0 -40 -35 -37 -44 4 -49
10 -38 50 8 30 12 33 41 30 30 -3 32 -5 32 -43z m-2125 1 c0 -3 -5 -17 -10
-32 -10 -26 -12 -27 -28 -10 -16 16 -16 18 2 32 19 14 36 18 36 10z m-3756
-64 c2 -4 7 -24 11 -44 7 -36 6 -37 -30 -44 -43 -8 -54 0 -62 49 -5 33 -3 36
23 40 50 7 53 7 58 -1z m3556 -36 c0 -11 -19 -15 -25 -6 -3 5 1 10 9 10 9 0
16 -2 16 -4z m1925 -11 c33 -3 106 -16 163 -27 113 -24 114 -24 93 -107 -5
-20 -17 -72 -26 -116 -19 -91 -65 -235 -75 -235 -4 0 -29 9 -56 20 -27 10 -92
36 -144 56 -52 20 -107 42 -122 50 l-27 14 15 48 c13 42 24 85 67 265 9 41 14
47 32 43 11 -2 47 -7 80 -11z m-5981 -21 c3 -8 2 -12 -4 -9 -6 3 -10 10 -10
16 0 14 7 11 14 -7z m939 -29 c13 -63 47 -185 68 -243 10 -29 19 -57 19 -61 0
-10 -106 -53 -240 -99 -47 -16 -92 -33 -101 -36 -11 -5 -19 -1 -24 11 -20 51
-65 210 -86 301 -19 89 -21 105 -8 113 14 9 171 46 224 53 17 2 55 3 85 2 l54
-1 9 -40z m-913 -99 c6 -38 17 -94 24 -126 8 -32 11 -61 8 -65 -10 -10 -52
148 -58 220 -7 88 10 69 26 -29z m6318 86 c18 -12 4 -72 -17 -72 -33 0 -54 25
-47 53 7 28 36 36 64 19z m-2038 -29 c0 -2 -14 -10 -32 -17 -24 -11 -38 -11
-56 -3 -23 11 -23 11 15 22 34 10 73 9 73 -2z m-3760 -92 c0 -22 -6 -31 -30
-41 -38 -16 -56 -9 -64 26 -9 33 5 44 57 44 34 0 37 -2 37 -29z m5758 -69 c8
-6 10 -19 6 -40 -7 -33 -29 -41 -68 -26 -19 7 -19 14 -6 48 10 26 41 34 68 18z
m-3626 -93 c13 -23 28 -51 35 -63 24 -40 208 -228 243 -246 19 -10 52 -31 72
-48 52 -41 181 -106 250 -126 39 -11 61 -24 69 -39 7 -12 19 -27 28 -33 9 -7
15 -27 14 -50 0 -22 -1 -146 -2 -277 -1 -221 -2 -238 -19 -235 -13 3 -17 14
-17 49 0 28 -7 56 -20 74 l-20 30 -6 -100 c-3 -55 -9 -110 -13 -122 -5 -17 1
-32 25 -63 38 -47 51 -38 37 23 -10 47 -5 67 17 67 14 0 16 -20 15 -152 -1
-84 -4 -195 -7 -247 l-6 -94 -131 6 c-88 3 -169 14 -246 31 -201 46 -385 98
-425 120 -11 6 -27 11 -35 12 -9 1 -58 21 -110 46 -52 25 -102 49 -110 52 -8
3 -22 10 -30 15 -8 5 -39 19 -69 32 -30 13 -69 35 -87 49 -18 14 -52 36 -75
50 -83 49 -275 193 -331 248 -62 61 -70 85 -40 122 l18 23 75 -72 c41 -39 76
-71 79 -71 3 1 16 10 30 22 24 20 24 21 6 32 -36 20 -116 98 -116 112 0 19
-20 18 -42 -3 -10 -9 -21 -14 -24 -11 -3 4 43 53 102 110 144 139 200 195 259
262 44 49 55 56 87 56 40 0 50 -13 35 -47 -12 -26 -57 -32 -57 -8 0 8 -7 15
-15 15 -19 0 -20 -40 -2 -64 26 -35 93 -2 126 61 17 33 13 70 -9 90 -19 18
-18 20 77 108 79 75 332 294 340 295 2 0 13 -19 25 -41z m1535 -100 c20 -9
383 -400 383 -413 0 -8 14 -23 30 -33 17 -9 30 -20 30 -24 0 -6 163 -175 350
-364 39 -39 70 -74 70 -77 0 -13 -63 -80 -84 -89 -12 -5 -29 -13 -38 -19 -10
-5 -24 -13 -32 -17 -7 -5 -38 -27 -68 -50 -30 -23 -70 -48 -89 -57 -35 -16
-95 -49 -139 -78 -63 -40 -225 -119 -295 -143 -43 -14 -85 -30 -94 -35 -29
-15 -154 -48 -251 -65 -52 -10 -114 -24 -138 -31 -23 -8 -57 -14 -75 -14 -18
0 -59 -7 -92 -14 -33 -8 -63 -12 -67 -10 -4 3 -5 18 -2 34 13 63 -82 101 -108
44 -6 -13 -15 -24 -20 -24 -12 0 -10 38 4 46 7 5 5 11 -8 21 -16 12 -17 15 -4
24 8 5 26 7 40 4 14 -3 43 -8 64 -12 l39 -6 -6 33 c-4 18 -7 43 -7 56 0 24
-44 63 -57 50 -4 -3 1 -22 10 -41 15 -32 15 -36 1 -42 -9 -3 -21 3 -31 17
l-16 23 -8 -21 c-13 -33 -37 -27 -41 10 -4 39 -28 51 -28 13 0 -16 -4 -24 -11
-20 -10 7 -11 215 -1 243 3 8 27 12 72 12 52 0 72 -4 90 -20 12 -11 26 -17 31
-14 9 5 7 219 -3 229 -3 3 -18 1 -33 -5 -28 -11 -65 -5 -65 9 0 4 25 20 55 35
51 25 55 29 55 62 0 30 -3 35 -17 29 -47 -19 -75 -22 -114 -14 -45 11 -54 8
-46 -15 4 -9 18 -14 35 -14 53 2 56 -12 8 -43 l-46 -29 0 -85 c0 -79 -8 -102
-26 -73 -6 10 -6 224 0 478 1 36 8 81 15 101 13 33 19 37 80 53 84 22 171 70
288 158 119 90 200 183 258 298 l27 54 58 -61 c32 -33 62 -62 67 -64z m-3617
73 c0 -10 6 -24 13 -31 16 -16 -16 -41 -53 -41 -22 0 -29 7 -38 36 -10 32 -9
36 11 44 38 15 67 12 67 -8z m5270 -38 c47 -19 103 -43 125 -54 22 -10 62 -27
88 -39 58 -25 61 -8 -39 -223 -41 -87 -74 -162 -74 -166 0 -4 -6 -17 -14 -27
-13 -18 -16 -18 -33 -4 -10 9 -56 36 -103 61 -135 72 -210 118 -210 129 0 6 8
23 19 37 18 26 89 172 133 275 11 26 21 47 22 47 1 0 40 -16 86 -36z m-4804
-31 c9 -27 27 -72 40 -102 13 -29 24 -58 24 -63 0 -5 20 -43 45 -84 25 -40 45
-78 45 -83 0 -9 -35 -32 -130 -84 -30 -17 -86 -48 -124 -69 -79 -44 -78 -45
-122 52 -14 30 -45 96 -69 145 -57 119 -82 204 -64 216 8 5 71 27 140 49 70
23 135 47 145 55 34 26 51 18 70 -32z m5182 7 c13 0 16 -37 6 -64 -3 -9 -14
-16 -23 -16 -25 0 -61 29 -56 45 3 8 7 22 10 31 4 11 12 14 28 10 12 -3 28 -6
35 -6z m-6143 -36 c15 -36 20 -73 9 -62 -7 8 -34 98 -29 98 3 0 12 -16 20 -36z
m569 -126 c15 -40 15 -44 -1 -55 -31 -23 -52 -15 -74 29 -20 40 -20 42 -3 55
35 26 60 16 78 -29z m1386 -3 c7 -9 10 -19 6 -22 -8 -9 -38 9 -44 25 -5 17 23
15 38 -3z m4109 -16 c28 -10 32 -15 26 -38 -9 -37 -19 -44 -54 -36 -33 7 -37
18 -21 59 11 30 8 29 49 15z m-5965 -125 c3 -8 2 -12 -4 -9 -6 3 -10 10 -10
16 0 14 7 11 14 -7z m560 -46 c23 -33 20 -46 -16 -64 -31 -16 -32 -16 -50 6
-26 32 -23 57 10 68 38 15 39 14 56 -10z m4899 -28 c37 -19 67 -39 67 -44 0
-4 -13 -24 -30 -43 -21 -23 -30 -44 -30 -68 0 -31 -3 -34 -32 -37 -36 -3 -38
-12 -24 -76 7 -32 7 -33 -18 -26 -34 8 -55 -9 -49 -40 6 -32 32 -54 70 -62 36
-7 47 11 32 55 -22 62 8 137 30 78 12 -31 26 -40 51 -32 16 5 20 15 20 48 0
31 7 48 27 69 15 15 32 28 39 28 10 0 10 8 -2 35 -8 19 -12 35 -9 35 9 0 125
-62 125 -67 0 -13 -40 -78 -95 -153 -34 -47 -74 -105 -90 -130 -50 -79 -44
-79 -151 2 -53 40 -110 83 -128 95 -18 11 -41 33 -50 49 -22 32 -23 28 76 177
32 48 58 90 58 93 0 11 33 55 40 52 3 -2 36 -19 73 -38z m450 17 c17 -12 17
-14 1 -47 -9 -19 -18 -37 -20 -38 -1 -2 -19 1 -38 8 -40 13 -45 32 -20 68 17
24 51 29 77 9z m-4833 -59 c35 -65 117 -182 145 -208 14 -13 25 -29 25 -35 0
-6 -30 -36 -67 -65 -38 -30 -101 -81 -142 -114 -58 -47 -77 -57 -90 -49 -30
19 -231 300 -231 324 0 12 124 87 290 176 38 20 44 17 70 -29z m-1016 -34 c3
-8 2 -12 -4 -9 -6 3 -10 10 -10 16 0 14 7 11 14 -7z m5516 -14 c0 -32 -14 -40
-24 -14 -10 27 -7 44 9 44 10 0 15 -10 15 -30z m-4922 -54 c9 -21 8 -27 -13
-40 -31 -21 -45 -20 -61 2 -20 26 -17 39 14 50 41 16 48 14 60 -12z m4882 -24
c0 -29 -24 -72 -41 -72 -14 0 -11 36 6 76 16 40 35 37 35 -4z m269 -16 c9 -10
9 -20 0 -40 -14 -30 -20 -31 -59 -11 -27 14 -28 18 -18 40 13 28 58 35 77 11z
m-969 -32 c0 -8 -4 -12 -10 -9 -5 3 -10 10 -10 16 0 5 5 9 10 9 6 0 10 -7 10
-16z m-4635 -119 c22 -38 32 -64 24 -58 -15 13 -89 145 -89 160 0 11 22 -23
65 -102z m555 15 c0 -9 -15 -24 -34 -33 -34 -16 -35 -15 -51 9 -18 28 -18 29
22 54 25 16 30 16 46 2 9 -8 17 -23 17 -32z m4576 -91 c110 -90 133 -114 123
-125 -6 -8 -16 -14 -23 -14 -12 0 -246 230 -246 242 0 16 14 6 146 -103z
m-4025 54 c22 -20 56 -59 77 -85 20 -26 41 -48 48 -48 6 0 29 -20 50 -45 22
-25 45 -45 52 -45 24 0 12 -23 -45 -87 -73 -81 -133 -164 -127 -175 13 -20 34
-2 108 91 43 55 87 108 98 118 20 18 21 17 57 -23 20 -22 52 -49 71 -59 19
-10 55 -32 80 -50 25 -18 64 -42 86 -53 75 -38 78 -45 44 -105 -16 -29 -55
-104 -87 -167 -31 -63 -58 -117 -59 -118 -5 -8 -233 153 -319 223 -70 58 -89
79 -87 96 3 18 0 21 -20 16 -18 -5 -35 3 -69 31 -60 50 -279 277 -278 288 0 5
41 43 91 84 50 41 111 92 135 113 24 20 46 37 49 37 3 0 23 -17 45 -37z m4384
25 c28 -13 30 -17 13 -53 -14 -30 -27 -31 -61 -5 -23 18 -25 24 -15 45 12 28
25 30 63 13z m-265 -24 c0 -16 -9 -18 -29 -5 -7 5 -11 14 -7 19 9 15 36 4 36
-14z m-4574 -81 c21 -27 17 -49 -12 -68 -26 -17 -27 -17 -56 13 l-30 29 34 21
c42 26 48 26 64 5z m-582 -29 c3 -8 2 -12 -4 -9 -6 3 -10 10 -10 16 0 14 7 11
14 -7z m5311 -6 c28 -12 32 -34 11 -60 -17 -23 -32 -23 -57 1 -20 18 -20 20
-4 45 20 30 17 29 50 14z m-2202 -87 c8 -8 7 -11 -2 -11 -9 0 -11 -10 -6 -39
7 -45 -8 -63 -26 -29 -6 13 -24 33 -40 46 -31 25 -37 48 -16 55 17 5 77 -9 90
-22z m-2409 -33 c21 -29 20 -41 -3 -69 -18 -22 -19 -23 -45 -5 -40 26 -44 46
-12 73 34 29 41 29 60 1z m4004 -49 c66 -75 67 -82 24 -131 -23 -27 -33 -22
-82 38 -78 98 -77 96 -45 132 16 18 31 32 34 32 4 0 35 -32 69 -71z m-1668 4
c0 -13 -4 -23 -9 -23 -17 0 -23 20 -16 48 5 20 8 23 16 11 5 -7 9 -24 9 -36z
m1534 -50 c11 -15 40 -49 64 -76 23 -26 42 -53 42 -61 0 -7 -31 -51 -70 -99
-38 -48 -66 -87 -61 -87 5 0 52 25 106 55 53 30 103 55 110 55 8 0 20 -10 26
-22 11 -20 8 -26 -31 -58 -98 -81 -327 -233 -339 -225 -6 3 -25 34 -44 68 -18
34 -59 107 -91 162 -58 100 -61 118 -25 136 58 31 155 91 209 131 36 26 69 47
74 48 4 0 18 -12 30 -27z m-4341 -100 c34 -41 49 -72 28 -59 -15 9 -121 152
-120 162 0 5 12 -6 27 -25 15 -18 44 -53 65 -78z m4632 51 c9 -9 14 -21 12
-28 -5 -14 -203 -156 -219 -156 -11 0 119 167 145 185 27 19 42 19 62 -1z
m-4001 -23 c16 -18 16 -20 -11 -45 -33 -31 -35 -31 -58 -6 -18 20 -18 21 5 45
28 30 41 31 64 6z m4776 -70 c-5 -11 -15 -23 -21 -27 -6 -3 -3 5 6 20 20 30
30 35 15 7z m-740 -10 c8 -16 3 -24 -31 -52 l-41 -32 -25 25 -25 25 44 26 c52
32 64 33 78 8z m-4480 -173 c0 -14 -108 97 -120 122 -6 14 18 -6 54 -45 36
-38 65 -73 66 -77z m583 118 c23 -18 22 -28 -6 -54 l-24 -22 -27 21 -27 21 22
24 c25 27 37 29 62 10z m731 -5 c3 -5 28 -20 54 -34 27 -14 73 -39 103 -54 30
-16 74 -37 99 -46 77 -29 75 -24 36 -123 -19 -49 -45 -129 -57 -177 -20 -80
-25 -88 -43 -84 -58 14 -391 170 -402 189 -3 5 14 41 39 81 24 40 50 88 57
107 8 19 30 61 48 93 32 53 53 69 66 48z m2488 -18 c7 -16 17 -35 24 -43 7 -8
42 -71 79 -140 62 -117 65 -125 48 -138 -43 -33 -382 -182 -414 -182 -5 0 -14
12 -20 28 -6 15 -17 41 -26 57 -20 39 -83 213 -90 245 -4 24 2 29 104 73 59
26 140 65 178 86 86 47 102 49 117 14z m727 3 c14 -25 8 -46 -12 -46 -16 1
-49 48 -42 60 11 18 41 10 54 -14z m-117 -73 c23 -21 23 -36 -2 -58 -19 -17
-21 -17 -40 0 -24 22 -25 33 -3 57 20 22 22 22 45 1z m-1862 -59 c0 -61 23
-103 57 -104 7 0 23 12 37 27 14 15 29 24 32 20 4 -4 2 -13 -4 -19 -9 -9 -9
-15 0 -25 6 -7 9 -15 7 -17 -2 -2 -37 -6 -76 -9 l-73 -6 0 90 c0 53 4 89 10
89 6 0 10 -21 10 -46z m-1781 2 c19 -20 21 -28 12 -45 -14 -26 -38 -26 -71 -2
-22 18 -23 21 -10 45 17 32 40 33 69 2z m1036 -64 c33 -11 76 -23 95 -27 75
-14 140 -39 140 -54 0 -8 -5 -43 -11 -78 -11 -64 -28 -93 -55 -93 -22 0 -30
31 -11 42 45 24 -21 71 -69 49 -30 -13 -44 -14 -64 -1 -13 8 -12 11 5 25 11 9
30 20 43 25 25 11 30 30 6 30 -20 0 -52 -17 -88 -47 l-30 -25 -8 21 c-11 32
-34 35 -73 11 -54 -33 -62 -100 -11 -100 14 0 28 4 31 10 3 5 15 15 27 21 18
10 19 9 14 -18 -4 -18 -1 -36 7 -47 14 -19 15 -19 49 2 19 12 43 30 53 42 19
21 50 27 60 10 3 -6 -3 -22 -14 -36 -23 -29 -20 -44 8 -44 10 0 24 -7 32 -16
7 -9 21 -13 34 -10 20 5 21 3 17 -62 -2 -37 -6 -69 -8 -71 -8 -8 -186 31 -274
60 -47 15 -100 30 -118 34 -30 6 -33 10 -27 33 6 26 97 285 115 329 10 24 9
24 125 -15z m1582 -43 c53 -143 94 -255 99 -271 10 -30 -58 -51 -405 -123 -40
-9 -75 -15 -76 -13 -2 2 -12 64 -24 138 -12 74 -26 154 -31 178 -6 23 -10 46
-10 51 0 13 55 30 77 25 17 -5 310 70 322 82 12 12 26 -7 48 -67z m872 34 c12
-25 10 -30 -15 -52 l-28 -24 -15 32 c-13 28 -13 32 4 51 25 27 39 25 54 -7z
m-3316 -47 c20 -16 21 -34 2 -59 -15 -21 -45 -17 -66 9 -10 12 -9 20 1 39 15
28 36 31 63 11z m1262 -35 c59 -9 189 -19 260 -21 19 0 20 -7 20 -183 l0 -182
-155 2 c-159 3 -305 21 -305 38 3 44 20 168 36 253 10 57 19 105 19 108 0 3
12 3 28 0 15 -3 59 -10 97 -15z m718 -68 c23 -108 49 -294 42 -301 -9 -9 -242
-23 -343 -20 l-97 3 1 185 1 185 94 1 c52 0 101 3 109 7 20 8 63 14 126 16
l51 1 16 -77z m1179 60 c28 -25 22 -48 -18 -67 -40 -18 -49 -15 -59 24 -4 20
0 28 22 42 36 21 33 21 55 1z m-2989 -63 c23 -18 25 -24 15 -45 -14 -32 -28
-36 -67 -19 -31 13 -32 15 -19 37 8 12 18 28 22 35 10 17 19 15 49 -8z m588
-13 c-13 -13 -26 -3 -16 12 3 6 11 8 17 5 6 -4 6 -10 -1 -17z m2232 -42 c8
-24 6 -31 -13 -47 -32 -26 -47 -23 -65 13 -9 17 -15 32 -13 34 13 11 65 34 72
31 6 -1 14 -15 19 -31z m-2123 15 c0 -5 -4 -10 -10 -10 -5 0 -10 5 -10 10 0 6
5 10 10 10 6 0 10 -4 10 -10z m-486 -71 c8 -7 -10 -69 -20 -69 -2 0 -19 8 -39
17 -39 19 -42 28 -20 60 14 20 19 21 43 11 15 -7 31 -15 36 -19z m2432 -34
c20 -31 15 -38 -36 -55 -47 -15 -73 -6 -78 27 -2 13 7 24 30 35 46 23 65 22
84 -7z m-2273 -26 c12 -7 23 -13 25 -14 10 -9 -31 -65 -47 -65 -33 0 -44 25
-26 59 18 35 18 35 48 20z m2040 -63 c10 -31 2 -41 -41 -52 -28 -8 -30 -6 -38
34 -6 27 -3 33 17 41 36 15 51 9 62 -23z m-1852 -6 c12 0 12 -27 -1 -49 -6
-13 -17 -17 -35 -14 -28 6 -29 10 -15 48 7 19 15 25 26 21 9 -3 20 -6 25 -6z
m-1040 -37 c13 -15 12 -15 -8 -4 -24 12 -29 21 -14 21 5 0 15 -7 22 -17z
m2699 -2 c17 -32 12 -58 -12 -65 -45 -12 -65 -6 -77 20 -14 31 -11 35 32 51
44 16 45 16 57 -6z m-1457 -18 c9 -6 9 -45 -2 -61 -9 -15 -54 -7 -70 11 -5 7
-7 25 -4 40 5 25 8 27 37 21 17 -3 34 -8 39 -11z m-1138 -48 l20 -16 -20 10
c-11 5 -29 17 -40 26 l-20 16 20 -10 c11 -5 29 -17 40 -26z m2369 19 c16 -42
7 -61 -34 -72 -45 -11 -54 -5 -63 45 -7 36 0 41 54 42 25 1 39 -4 43 -15z
m-1011 -13 c6 -6 6 -20 -3 -40 -14 -34 -14 -34 -59 -25 -24 5 -31 12 -31 29 0
47 10 58 48 51 19 -3 40 -10 45 -15z m200 -55 c-2 -22 -5 -41 -7 -44 -3 -2
-21 -1 -41 2 -28 6 -35 11 -35 31 0 45 10 56 49 53 35 -3 36 -4 34 -42z m185
-3 c-3 -42 -6 -48 -27 -51 -30 -5 -41 13 -34 53 7 33 19 45 46 45 15 0 18 -7
15 -47z m404 12 c2 -20 2 -38 -1 -40 -2 -3 -24 -5 -48 -5 -42 0 -43 1 -43 33
0 42 5 47 51 47 35 0 37 -2 41 -35z m-204 -12 c-3 -36 -5 -38 -38 -38 -33 0
-35 2 -38 38 l-3 37 41 0 41 0 -3 -37z m-1762 -48 c16 -12 16 -14 3 -15 -9 0
-22 7 -29 15 -16 19 0 19 26 0z"></path>
<path d="M6715 3648 c-35 -12 -85 -56 -85 -74 0 -7 -7 -20 -16 -29 -9 -9 -15
-17 -13 -18 2 -1 13 -8 24 -15 58 -36 88 -44 128 -32 37 11 38 12 35 53 -3 37
-6 42 -28 42 -21 0 -25 -4 -22 -27 3 -24 0 -28 -20 -28 -28 0 -48 17 -48 41 0
24 43 49 83 49 26 0 36 6 45 25 11 24 10 25 -21 24 -17 0 -45 -5 -62 -11z"></path>
<path d="M3146 6693 c-3 -3 0 -15 6 -26 6 -13 8 -46 4 -89 l-6 -69 32 3 c27 2
32 7 30 23 -2 11 -4 27 -5 35 -1 9 7 16 20 18 12 2 27 10 34 19 11 13 9 14
-21 11 -29 -2 -35 0 -38 18 -4 26 22 38 50 23 15 -8 24 -7 39 7 10 9 19 20 19
25 0 8 -155 11 -164 2z"></path>
<path d="M3359 6101 c-31 -32 -34 -45 -19 -85 12 -33 25 -33 61 3 31 31 39 77
17 99 -18 18 -26 15 -59 -17z m31 -31 c0 -5 -4 -10 -10 -10 -5 0 -10 5 -10 10
0 6 5 10 10 10 6 0 10 -4 10 -10z"></path>
<path d="M3226 6098 c-8 -13 -16 -36 -18 -53 -3 -29 -2 -30 36 -27 32 3 38 1
32 -13 -3 -9 -6 -21 -6 -26 0 -6 -16 -17 -35 -25 -23 -9 -35 -21 -35 -34 0
-26 16 -25 57 3 54 37 71 122 32 171 -25 32 -44 33 -63 4z m44 -49 c0 -11 -4
-17 -10 -14 -5 3 -10 13 -10 21 0 8 5 14 10 14 6 0 10 -9 10 -21z"></path>
<path d="M3607 6068 c-5 -51 -3 -65 10 -75 23 -18 29 -10 36 49 5 40 3 56 -10
70 -9 10 -19 18 -23 18 -4 0 -10 -28 -13 -62z"></path>
<path d="M3711 6080 c-44 -45 -39 -79 14 -83 25 -2 32 4 48 36 10 22 17 46 15
55 -6 29 -43 25 -77 -8z m36 -27 c-9 -9 -19 -14 -23 -11 -10 10 6 28 24 28 15
0 15 -1 -1 -17z"></path>
<path d="M3822 6077 c-39 -41 -20 -107 26 -92 24 7 45 54 40 87 -4 32 -38 35
-66 5z m38 -37 c0 -5 -7 -10 -16 -10 -8 0 -12 5 -9 10 3 6 10 10 16 10 5 0 9
-4 9 -10z"></path>
<path d="M2890 6024 c-6 -14 -10 -34 -10 -44 0 -21 25 -50 44 -50 40 0 51 79
14 104 -30 22 -37 20 -48 -10z m40 -43 c0 -6 -4 -13 -10 -16 -5 -3 -10 1 -10
9 0 9 5 16 10 16 6 0 10 -4 10 -9z"></path>
<path d="M2769 6027 c-28 -21 -32 -54 -10 -74 16 -13 20 -25 15 -49 -5 -26 -2
-34 14 -43 16 -8 25 -6 47 11 22 17 26 26 21 52 -4 17 -9 45 -13 61 -10 53
-38 69 -74 42z m27 -54 c-11 -11 -19 6 -11 24 8 17 8 17 12 0 3 -10 2 -21 -1
-24z m34 -58 c0 -8 -4 -15 -10 -15 -5 0 -10 7 -10 15 0 8 5 15 10 15 6 0 10
-7 10 -15z"></path>
<path d="M2457 5897 c-39 -28 -36 -117 3 -117 35 0 54 26 53 71 -3 54 -23 71
-56 46z m28 -52 c0 -10 -6 -20 -12 -22 -8 -3 -13 5 -13 22 0 17 5 25 13 23 6
-3 12 -13 12 -23z"></path>
<path d="M2266 5844 c-4 -20 -5 -38 -2 -41 3 -3 22 2 41 12 20 9 39 14 42 11
4 -3 1 -23 -7 -45 -10 -31 -10 -42 1 -62 12 -23 14 -21 30 46 19 77 23 115 12
115 -5 0 -25 -5 -46 -11 -27 -7 -42 -7 -52 1 -10 8 -14 3 -19 -26z"></path>
<path d="M4512 5838 c-23 -41 -26 -54 -15 -56 25 -6 40 5 72 53 17 25 31 48
31 51 0 2 -13 4 -29 4 -25 0 -34 -8 -59 -52z"></path>
<path d="M4610 5860 c-12 -8 -12 -11 3 -28 24 -26 21 -42 -7 -42 -32 0 -38
-10 -23 -41 15 -29 60 -52 87 -44 23 7 27 25 6 25 -7 0 -19 7 -26 15 -10 12
-7 19 16 39 27 22 28 25 13 43 -9 10 -14 24 -12 31 5 14 -35 16 -57 2z"></path>
<path d="M4746 5777 c-9 -12 -17 -38 -18 -57 -3 -29 0 -35 19 -38 52 -8 93 46
71 93 -14 32 -52 33 -72 2z m40 -43 c-3 -9 -6 -18 -6 -20 0 -2 -7 -4 -15 -4
-18 0 -19 12 -3 28 17 17 31 15 24 -4z"></path>
<path d="M1969 5712 c-27 -24 -33 -37 -37 -84 -4 -50 -2 -57 23 -76 51 -40 95
-24 95 35 0 27 -5 34 -25 39 -14 3 -31 1 -39 -5 -27 -23 -28 9 -2 62 14 28 23
53 21 55 -1 2 -18 -10 -36 -26z m49 -136 c3 -13 -1 -17 -14 -14 -11 2 -20 11
-22 22 -3 13 1 17 14 14 11 -2 20 -11 22 -22z"></path>
<path d="M2044 5684 c-15 -60 51 -110 87 -66 32 40 5 92 -47 92 -28 0 -35 -4
-40 -26z m66 -24 c0 -21 -27 -35 -33 -17 -6 17 12 49 24 42 5 -4 9 -14 9 -25z"></path>
<path d="M3576 5764 c11 -37 12 -152 1 -181 -8 -22 -6 -23 50 -23 65 0 103 19
103 51 0 29 -18 59 -35 59 -20 0 -19 26 0 34 17 6 21 61 4 71 -6 4 -38 10 -71
13 l-61 5 9 -29z m88 -45 c-8 -14 -34 -11 -34 4 0 8 3 17 7 20 9 9 34 -13 27
-24z m14 -82 c4 -19 -20 -32 -42 -24 -9 4 -12 14 -9 27 7 26 46 24 51 -3z"></path>
<path d="M5060 5131 c-8 -15 -8 -32 -1 -58 9 -33 4 -65 -6 -37 -2 6 -10 19
-17 29 -13 17 -14 17 -39 -1 -30 -22 -36 -54 -10 -54 24 0 88 -46 103 -75 15
-29 32 -32 51 -9 11 14 9 19 -14 36 -37 27 -34 38 9 38 38 0 74 15 74 30 0 6
-25 9 -57 8 l-58 -3 -3 50 c-4 59 -16 76 -32 46z"></path>
<path d="M4263 5026 c-16 -19 -21 -34 -17 -60 14 -112 15 -103 -16 -110 -21
-4 -35 -16 -49 -43 l-19 -38 -11 28 c-6 16 -11 37 -11 48 0 26 -25 24 -45 -3
-15 -22 -17 -22 -30 -5 -11 16 -16 16 -34 6 -17 -12 -23 -10 -45 10 -26 25
-30 22 -41 -27 -8 -40 -26 -37 -39 6 -12 42 -28 40 -76 -8 -46 -46 -52 -81
-18 -105 18 -12 21 -19 12 -33 -17 -27 -42 -26 -86 3 -29 20 -38 31 -32 43 4
9 8 56 8 104 1 53 7 93 14 100 15 15 16 38 1 38 -12 0 -79 -69 -79 -82 0 -4 6
-8 13 -8 9 0 11 -18 9 -67 -3 -59 -7 -71 -30 -90 -26 -20 -26 -22 -7 -29 11
-4 45 -22 75 -40 77 -46 110 -39 141 27 24 49 33 57 44 39 13 -20 34 -9 46 24
17 46 29 36 29 -24 0 -56 -15 -104 -30 -95 -12 7 -40 -12 -40 -26 0 -16 87
-10 100 6 7 8 15 35 17 60 4 34 14 54 44 85 41 43 43 41 39 -22 -2 -35 16 -36
52 -3 33 30 45 31 53 5 8 -25 20 -25 57 1 25 18 32 19 39 8 7 -11 13 -9 30 11
12 14 22 20 25 14 3 -6 11 -20 18 -30 14 -18 15 -18 36 1 l22 20 15 -22 c20
-29 44 -29 71 0 30 32 28 52 -8 79 -16 12 -30 25 -30 30 0 13 28 9 33 -4 3 -9
11 -7 27 8 12 12 19 27 16 33 -10 15 -57 13 -78 -3 -22 -17 -24 -73 -2 -97 10
-11 12 -19 5 -23 -6 -4 -16 2 -23 14 -7 11 -21 20 -30 20 -15 0 -18 9 -18 45
0 25 -3 45 -8 45 -18 0 -52 -33 -52 -51 0 -18 -25 -37 -36 -27 -2 3 -6 56 -8
119 -2 62 -8 115 -13 116 -5 2 -19 -8 -30 -21z m2 -216 c0 -16 -6 -26 -18 -28
-19 -4 -32 20 -23 44 9 25 41 13 41 -16z m-395 -19 c0 -24 -18 -37 -32 -23 -8
8 -7 16 2 27 17 21 30 19 30 -4z m171 -20 c-7 -12 -16 -21 -21 -21 -14 0 -12
34 2 48 18 18 32 -2 19 -27z"></path>
<path d="M3563 5008 c2 -7 10 -13 17 -13 7 0 15 6 18 13 2 7 -5 12 -18 12 -13
0 -20 -5 -17 -12z"></path>
<path d="M4376 4974 c-4 -9 -4 -19 -2 -22 10 -9 36 8 36 23 0 20 -26 19 -34
-1z"></path>
<path d="M4075 4970 c-4 -7 -3 -16 3 -22 14 -14 45 -2 40 15 -6 16 -34 21 -43
7z"></path>
<path d="M4787 4663 c-15 -14 -7 -43 12 -43 26 0 36 17 21 35 -14 16 -23 19
-33 8z"></path>
<path d="M3366 5762 c-3 -6 -1 -14 5 -17 15 -10 25 3 12 16 -7 7 -13 7 -17 1z"></path>
<path d="M3244 5685 c-3 -7 1 -27 10 -43 19 -37 56 -45 101 -22 38 20 45 17
45 -17 0 -32 22 -25 31 10 14 54 -62 99 -98 58 -22 -26 -43 -27 -43 -2 0 22
-39 36 -46 16z"></path>
<path d="M3235 5578 c4 -13 10 -43 12 -68 l5 -45 81 2 82 2 7 33 c6 27 3 36
-13 51 -30 25 -39 21 -32 -13 7 -38 -10 -39 -42 -2 l-24 27 -1 -27 c0 -16 -4
-28 -10 -28 -5 0 -10 10 -10 23 0 29 -26 67 -47 67 -11 0 -13 -6 -8 -22z"></path>
<path d="M3260 5415 c0 -25 1 -25 80 -25 79 0 80 0 80 25 0 25 -1 25 -80 25
-79 0 -80 0 -80 -25z"></path>
<path d="M3302 5357 c-32 -18 -49 -47 -50 -84 -1 -43 19 -59 42 -34 14 15 26
18 54 14 21 -4 43 -13 49 -22 11 -14 14 -14 23 -1 22 33 7 100 -29 127 -21 16
-60 16 -89 0z m87 -46 c14 -26 4 -32 -43 -25 -49 8 -67 21 -46 34 26 17 78 12
89 -9z"></path>
<path d="M3245 5200 c-4 -6 -4 -21 -1 -33 5 -21 10 -22 81 -19 83 5 93 -4 45
-38 -24 -17 -33 -19 -50 -10 -41 22 -69 -5 -70 -68 0 -22 4 -23 68 -22 37 0
78 -1 92 -2 19 -2 26 2 28 20 3 19 -1 22 -35 22 l-38 1 33 28 c26 22 32 35 32
67 l0 39 -73 0 c-46 0 -80 5 -90 13 -11 9 -17 10 -22 2z m70 -140 c3 -5 1 -10
-4 -10 -6 0 -11 5 -11 10 0 6 2 10 4 10 3 0 8 -4 11 -10z"></path>
<path d="M3403 4978 c-4 -7 -6 -25 -4 -40 2 -22 -2 -28 -16 -28 -10 0 -23 10
-28 22 -15 32 -35 35 -35 4 0 -19 -5 -26 -20 -26 -22 0 -25 7 -10 30 10 17 -5
40 -26 40 -10 0 -14 -12 -13 -37 1 -72 6 -76 96 -77 l81 -1 6 53 c4 29 4 58 1
63 -8 13 -22 11 -32 -3z"></path>
<path d="M3082 4928 c-17 -28 -18 -41 -11 -88 4 -30 11 -78 15 -105 3 -28 13
-60 21 -70 15 -20 15 -20 30 3 9 12 24 22 34 22 10 0 21 5 24 10 8 13 25 13
25 1 0 -15 -80 -92 -107 -102 -13 -5 -21 -13 -18 -19 13 -21 50 -8 88 32 67
70 85 140 46 179 -19 19 -22 20 -39 4 -10 -9 -24 -30 -31 -46 -20 -49 -32 -19
-38 95 -3 57 -9 107 -12 111 -4 3 -16 -9 -27 -27z m128 -188 c0 -5 -5 -10 -11
-10 -5 0 -7 5 -4 10 3 6 8 10 11 10 2 0 4 -4 4 -10z"></path>
<path d="M2777 4783 c-2 -10 -8 -25 -11 -34 -5 -12 0 -18 18 -23 37 -9 58 -56
54 -124 l-3 -57 -49 -5 c-27 -3 -51 -10 -53 -17 -6 -16 124 -30 139 -15 6 6
13 37 16 69 4 45 11 65 33 91 35 40 36 53 6 88 -21 24 -27 26 -54 17 -24 -9
-34 -7 -54 8 -30 23 -35 23 -42 2z m113 -58 c14 -16 6 -35 -16 -35 -8 0 -14
10 -14 25 0 28 12 32 30 10z"></path>
<path d="M2982 4778 c-28 -28 -4 -128 34 -142 11 -4 24 1 35 13 15 16 17 28
10 71 -5 29 -15 56 -22 61 -20 12 -43 11 -57 -3z m46 -62 c3 -12 -1 -17 -10
-14 -7 3 -15 13 -16 22 -3 12 1 17 10 14 7 -3 15 -13 16 -22z"></path>
<path d="M2471 4243 c-25 -20 -47 -101 -33 -115 6 -6 20 -8 33 -6 19 2 23 8
21 26 -7 47 49 96 64 57 6 -15 35 -20 47 -9 13 14 -15 44 -51 54 -50 13 -56
13 -81 -7z"></path>
<path d="M2660 4205 c-27 -33 26 -87 61 -64 11 8 11 11 -3 20 -10 5 -18 16
-18 23 0 8 -6 19 -14 25 -10 9 -16 8 -26 -4z"></path>
<path d="M2551 4134 c-44 -36 -41 -60 9 -75 31 -9 39 -16 34 -28 -17 -41 -11
-46 49 -44 65 2 72 -9 32 -47 -13 -12 -22 -27 -19 -31 8 -14 40 -10 54 6 14
17 56 20 66 4 3 -6 -6 -23 -21 -39 -38 -40 -15 -71 26 -34 14 13 22 13 39 4
l22 -12 -28 -29 c-23 -24 -25 -31 -14 -44 7 -8 19 -15 26 -15 16 0 83 69 84
86 0 6 -18 16 -40 23 -44 13 -45 14 -30 42 10 17 5 22 -35 39 -37 16 -45 24
-40 39 7 23 -24 33 -78 24 -36 -5 -39 -4 -35 18 2 14 14 29 32 37 26 13 27 15
12 30 -13 14 -21 14 -49 4 -68 -25 -89 -9 -37 29 16 12 27 26 24 31 -10 16
-53 7 -83 -18z"></path>
<path d="M5310 5340 c-25 -22 -48 -40 -52 -40 -5 0 -8 -7 -8 -15 0 -29 50 -15
112 30 l61 44 -27 11 c-38 14 -37 15 -86 -30z"></path>
<path d="M5362 5293 c-32 -6 -39 -31 -13 -49 30 -21 26 -40 -10 -53 -26 -9
-29 -13 -19 -31 14 -25 48 -26 75 0 28 26 63 17 67 -19 3 -22 8 -26 40 -29 46
-4 81 26 76 66 -3 25 -6 27 -55 27 -66 0 -84 15 -49 43 14 11 26 24 26 30 0
16 -82 26 -138 15z m73 -33 c-3 -5 -12 -10 -20 -10 -8 0 -17 5 -20 10 -4 6 5
10 20 10 15 0 24 -4 20 -10z m100 -100 c-3 -5 -15 -10 -26 -10 -11 0 -17 5
-14 10 3 6 15 10 26 10 11 0 17 -4 14 -10z"></path>
<path d="M1311 5071 c-18 -12 -7 -69 17 -87 24 -19 78 -18 86 2 8 22 9 19 -25
59 -31 35 -52 42 -78 26z m54 -52 c12 -19 -5 -23 -22 -6 -16 16 -16 17 -1 17
9 0 20 -5 23 -11z"></path>
<path d="M1235 4903 c4 -49 9 -90 12 -93 2 -3 17 10 31 28 31 37 40 39 58 15
22 -31 27 -6 9 50 -23 72 -32 87 -44 67 -8 -12 -12 -12 -29 3 -38 35 -44 23
-37 -70z m37 12 c0 -5 -5 -11 -11 -13 -6 -2 -11 4 -11 13 0 9 5 15 11 13 6 -2
11 -8 11 -13z"></path>
<path d="M5264 4825 c-9 -21 3 -45 21 -45 21 0 30 27 15 45 -16 19 -29 19 -36
0z"></path>
<path d="M5243 4680 c-10 -27 -9 -31 10 -41 17 -9 23 -8 34 7 18 25 16 42 -6
54 -26 14 -25 14 -38 -20z"></path>
<path d="M4885 4509 c-6 -17 2 -30 31 -60 22 -21 51 -41 65 -44 24 -6 27 -4
33 35 4 26 2 49 -6 63 l-13 22 -3 -22 c-4 -30 -23 -29 -52 2 -29 31 -46 32
-55 4z"></path>
<path d="M4805 4450 c-15 -34 -16 -46 -7 -79 7 -21 12 -41 12 -45 0 -13 -39
-5 -63 14 -41 32 -54 26 -61 -30 -8 -56 2 -78 46 -103 41 -23 46 -22 50 16 2
19 8 31 16 30 6 -2 18 -4 25 -5 8 -2 13 13 15 45 l3 49 40 -7 c38 -7 40 -6 37
16 -2 16 -15 30 -40 42 -40 18 -48 34 -23 43 20 8 19 40 -1 48 -26 10 -30 7
-49 -34z m-69 -157 c17 -17 23 -28 15 -31 -15 -5 -51 26 -51 45 0 19 6 17 36
-14z"></path>
<path d="M4603 4270 c-4 -14 -14 -20 -34 -20 -23 0 -30 -5 -35 -27 -10 -49
-12 -52 -34 -46 -28 7 -60 -23 -60 -57 0 -27 27 -60 48 -60 15 0 15 -15 1 -41
-7 -15 -7 -24 1 -34 18 -22 51 -23 104 -3 37 14 51 16 62 7 22 -18 16 -36 -17
-48 -34 -12 -31 -31 5 -31 61 0 101 92 54 124 -30 21 -56 20 -113 -5 -25 -11
-49 -18 -53 -15 -3 4 0 21 6 39 7 19 12 57 12 85 0 63 11 66 56 15 29 -34 33
-36 40 -19 4 11 0 29 -10 47 -18 30 -14 49 9 49 18 0 28 30 14 46 -17 21 -50
17 -56 -6z m-103 -151 c7 -11 9 -23 7 -26 -9 -9 -47 17 -47 32 0 22 28 18 40
-6z"></path>
<path d="M4573 3605 c-37 -16 -53 -42 -53 -84 0 -32 38 -71 70 -71 34 0 77 22
90 45 l13 24 28 -39 c28 -39 61 -52 74 -30 3 6 2 10 -4 10 -22 0 -41 32 -35
58 9 36 18 45 51 46 41 1 43 32 3 41 -31 7 -58 -5 -94 -40 -15 -15 -17 -15
-23 2 -18 52 -58 65 -120 38z m65 -47 c16 -16 15 -53 -3 -68 -33 -27 -84 23
-63 63 10 20 48 23 66 5z"></path>
<path d="M5015 3537 c-27 -45 -51 -85 -53 -89 -2 -5 10 -8 27 -8 24 0 31 4 31
20 0 13 10 24 26 30 42 16 54 12 54 -19 0 -27 1 -28 66 -34 53 -5 73 -3 95 10
35 21 39 61 9 88 -25 23 -25 35 -1 35 35 0 62 -32 69 -84 4 -27 12 -51 19 -53
6 -2 26 17 43 42 18 26 46 62 62 81 33 38 30 54 -11 54 -34 0 -43 -8 -32 -29
6 -10 3 -28 -9 -50 l-17 -34 -7 27 c-3 14 -2 35 4 46 15 29 4 41 -26 30 -36
-14 -54 -12 -54 5 0 10 -10 15 -32 15 -41 0 -54 -8 -67 -43 -12 -32 -6 -54 19
-62 20 -6 33 -32 24 -46 -9 -15 -31 -10 -38 7 -6 15 -8 15 -32 -1 -14 -9 -27
-15 -29 -13 -2 2 -17 37 -34 78 -16 41 -36 76 -43 77 -7 2 -35 -34 -63 -80z
m69 7 c9 -23 8 -24 -14 -24 -19 0 -27 20 -13 33 11 11 20 8 27 -9z"></path>
<path d="M5538 3603 c-29 -3 -38 -10 -48 -33 -11 -25 -9 -34 10 -65 25 -41 20
-57 -10 -30 -16 15 -23 16 -33 6 -9 -10 -7 -16 12 -32 59 -48 139 14 81 64
-29 25 -25 41 9 34 20 -4 33 -1 45 12 18 19 21 41 7 41 -5 0 -15 1 -23 3 -7 2
-29 2 -50 0z"></path>
<path d="M4867 3575 c-45 -31 -50 -69 -13 -104 32 -30 91 -34 91 -6 0 12 -8
21 -20 23 -33 6 -57 33 -44 49 6 7 19 13 28 13 20 1 51 24 51 39 0 20 -54 12
-93 -14z"></path>
<path d="M1155 3663 c-9 -31 -34 -92 -56 -135 -33 -65 -37 -79 -24 -84 25 -10
45 4 45 31 0 18 7 28 26 35 34 13 42 7 36 -30 l-4 -30 51 0 c28 0 51 2 51 5 0
3 -7 17 -17 31 -20 32 -59 142 -68 194 -4 22 -11 40 -15 40 -5 0 -16 -26 -25
-57z m5 -103 c0 -11 -4 -20 -10 -20 -5 0 -10 9 -10 20 0 11 5 20 10 20 6 0 10
-9 10 -20z"></path>
<path d="M1067 4723 c-14 -13 -7 -51 14 -77 17 -22 28 -27 58 -24 31 3 36 7
39 30 4 36 -36 78 -76 78 -16 0 -32 -3 -35 -7z m70 -48 c3 -9 3 -19 -1 -22 -7
-7 -36 16 -36 28 0 15 30 10 37 -6z"></path>
<path d="M993 4608 c-19 -24 -23 -50 -12 -70 l11 -21 18 23 c20 27 40 19 40
-16 0 -28 6 -30 26 -9 20 20 44 8 51 -26 11 -55 33 -27 33 42 0 33 -4 41 -26
49 -14 6 -35 8 -48 4 -15 -3 -28 2 -40 15 -22 24 -39 27 -53 9z"></path>
<path d="M5893 4616 c-53 -21 -60 -30 -44 -55 8 -12 16 -12 54 0 60 17 90 40
81 62 -8 21 -25 20 -91 -7z"></path>
<path d="M3300 4206 c0 -36 5 -48 26 -65 35 -28 52 -26 85 5 l27 26 16 -31
c17 -32 46 -42 46 -17 0 23 -20 70 -33 78 -21 13 -54 9 -80 -12 -31 -25 -37
-25 -37 -2 -1 17 -32 62 -44 62 -3 0 -6 -20 -6 -44z"></path>
<path d="M3294 4060 c0 -66 9 -84 30 -63 13 13 130 2 147 -13 8 -8 18 -14 22
-14 13 0 -7 105 -22 117 -24 19 -44 16 -36 -4 4 -10 9 -24 12 -30 3 -8 -3 -13
-16 -13 -14 0 -25 9 -31 25 -5 14 -16 25 -23 25 -10 0 -13 -8 -9 -25 3 -18 0
-25 -12 -25 -9 0 -16 8 -16 20 0 21 -27 70 -39 70 -4 0 -7 -31 -7 -70z"></path>
<path d="M3290 3926 c0 -44 8 -49 38 -26 25 20 82 28 82 11 0 -5 -25 -27 -56
-51 -42 -31 -54 -47 -52 -63 3 -20 10 -22 75 -25 47 -2 75 -8 83 -17 21 -25
30 -17 30 26 0 38 -2 41 -22 35 -55 -15 -78 -18 -78 -8 0 11 66 72 79 72 9 0
36 58 30 64 -2 2 -50 6 -106 9 l-103 5 0 -32z"></path>
<path d="M868 4253 c-15 -14 -15 -19 -3 -43 7 -14 21 -32 29 -39 14 -12 14
-16 0 -42 -18 -36 -27 -36 -48 -4 -9 14 -20 25 -24 25 -14 0 -41 -104 -30
-117 17 -21 36 -15 40 14 4 35 21 39 38 8 16 -29 28 -32 36 -7 3 9 12 29 20
45 9 15 13 35 10 45 -4 12 1 21 17 27 31 14 32 46 3 78 -28 31 -64 35 -88 10z
m52 -38 c7 -9 10 -18 7 -21 -10 -11 -37 5 -37 21 0 19 14 19 30 0z"></path>
<path d="M736 3771 c-30 -33 10 -95 71 -107 26 -5 32 -3 39 17 14 42 13 51 -9
80 -25 35 -74 40 -101 10z m82 -54 c2 -10 -3 -17 -11 -17 -18 0 -39 24 -30 34
12 12 38 2 41 -17z"></path>
<path d="M734 3629 c-5 -8 16 -48 26 -50 3 -1 26 -2 53 -3 48 -2 60 10 33 33
-18 15 -105 31 -112 20z"></path>
<path d="M6206 3779 c-14 -17 -26 -20 -56 -16 -47 6 -54 1 -31 -24 16 -17 27
-19 85 -13 37 4 69 10 71 14 2 4 -8 19 -23 33 l-28 27 -18 -21z"></path>
<path d="M6222 3675 c-15 -11 -26 -12 -50 -3 -53 20 -80 -21 -46 -70 17 -24
44 -28 73 -10 15 9 26 9 45 0 31 -14 52 -7 59 18 12 46 -43 91 -81 65z m46
-33 c2 -7 -3 -12 -12 -12 -9 0 -16 7 -16 16 0 17 22 14 28 -4z m-80 -9 c2 -8
-5 -13 -17 -13 -12 0 -21 6 -21 16 0 18 31 15 38 -3z"></path>
<path d="M6162 3538 c-33 -33 1 -78 57 -78 47 0 67 20 51 49 -20 38 -82 55
-108 29z m86 -35 c2 -9 -7 -13 -27 -13 -30 0 -39 9 -24 24 11 10 46 3 51 -11z"></path>
<path d="M3892 3214 c-17 -14 -23 -31 -25 -69 l-2 -50 40 3 c48 4 65 17 36 27
-36 11 -24 32 22 39 23 4 49 11 57 16 13 8 13 11 -1 26 -26 25 -99 30 -127 8z"></path>
<path d="M4470 2731 c0 -5 7 -14 15 -21 13 -10 15 -9 15 9 0 12 -6 21 -15 21
-8 0 -15 -4 -15 -9z"></path>
<path d="M4937 2254 c-11 -11 3 -24 24 -24 12 0 19 5 17 13 -5 14 -31 21 -41
11z"></path>
<path d="M4995 2200 c-3 -5 1 -10 10 -10 9 0 13 5 10 10 -3 6 -8 10 -10 10 -2
0 -7 -4 -10 -10z"></path>
<path d="M5781 3342 c-13 -4 -38 -24 -54 -44 -29 -36 -30 -38 -16 -75 17 -45
45 -60 114 -64 46 -3 51 -1 63 24 19 39 7 49 -33 30 -31 -15 -36 -15 -59 1
-55 36 -17 116 41 85 20 -11 26 -10 39 3 13 12 13 16 1 26 -19 16 -66 22 -96
14z"></path>
<path d="M3553 221 c0 -85 1 -90 23 -94 29 -5 34 -1 34 34 0 19 6 28 23 33 41
11 47 7 47 -29 0 -32 3 -35 28 -35 27 0 27 0 27 72 0 40 3 80 5 88 4 11 -3 15
-30 15 -31 0 -35 -3 -38 -27 -3 -25 -8 -28 -38 -28 -33 0 -48 20 -24 35 17 11
0 25 -29 25 l-28 0 0 -89z"></path>
<path d="M1403 3283 c0 -38 -3 -81 -8 -97 l-8 -29 39 8 c48 9 51 11 36 35 -7
11 -12 27 -12 35 0 14 3 14 30 0 16 -8 37 -27 47 -41 16 -26 19 -26 87 -20 38
4 72 9 75 11 2 3 -1 16 -7 30 -7 14 -12 42 -12 61 0 35 1 35 38 32 36 -3 37
-5 57 -65 10 -35 22 -63 26 -63 4 0 17 15 28 34 12 19 40 50 62 70 40 37 43
56 9 56 -11 0 -25 -14 -37 -37 -24 -49 -47 -50 -51 -1 -3 34 -6 37 -40 42 -76
10 -172 5 -187 -11 -20 -20 -9 -35 23 -31 23 3 27 -1 30 -24 4 -29 -13 -68
-29 -68 -7 0 -52 26 -98 57 -2 1 3 13 12 26 25 38 6 57 -57 57 l-53 0 0 -67z
m85 15 c-7 -19 -38 -22 -38 -4 0 10 9 16 21 16 12 0 19 -5 17 -12z"></path>
<path d="M1263 3319 c-47 -23 -55 -37 -46 -79 6 -33 54 -80 82 -80 9 0 31 13
49 29 43 40 46 99 6 130 -33 26 -39 26 -91 0z m69 -54 c5 -21 3 -34 -7 -45
-32 -31 -73 31 -44 66 18 22 42 13 51 -21z"></path>
<path d="M1950 3320 c-25 -19 -25 -20 -7 -50 22 -41 22 -54 -3 -47 -14 3 -27
-3 -41 -21 l-21 -27 42 -3 c50 -4 85 16 94 55 6 22 3 31 -20 47 l-28 20 25 6
c13 3 24 12 24 20 0 23 -37 22 -65 0z"></path>
<path d="M2190 2792 c-47 -23 -70 -80 -46 -117 23 -36 36 -31 36 13 0 47 24
72 68 72 32 0 62 -22 62 -46 0 -8 -9 -14 -20 -14 -30 0 -26 -38 6 -50 31 -12
40 -8 48 26 15 59 -38 135 -93 134 -14 -1 -42 -9 -61 -18z"></path>
<path d="M144 3319 c-3 -5 -1 -23 4 -41 5 -18 7 -52 4 -74 l-4 -42 54 2 c59 2
78 10 78 33 0 13 -8 14 -40 9 -35 -5 -40 -4 -40 13 0 13 8 21 23 23 30 4 24
22 -8 26 -30 4 -29 27 1 27 22 0 44 12 44 25 0 11 -109 10 -116 -1z"></path>
<path d="M750 3312 c-19 -16 -21 -22 -11 -40 6 -12 15 -22 19 -22 4 0 13 -4
21 -9 11 -7 11 -13 1 -32 -18 -35 -18 -35 -44 -10 -35 33 -50 23 -26 -16 28
-46 63 -66 100 -58 60 13 81 68 38 98 -19 12 -21 18 -10 28 17 18 15 43 -6 62
-24 22 -54 21 -82 -1z m55 -33 c10 -15 -1 -23 -20 -15 -9 3 -13 10 -10 16 8
13 22 13 30 -1z m15 -98 c0 -12 -20 -25 -27 -18 -7 7 6 27 18 27 5 0 9 -4 9
-9z"></path>
<path d="M747 3063 c-11 -11 -8 -58 5 -71 24 -24 40 -14 33 21 l-7 32 25 -24
c24 -22 27 -22 43 -7 11 12 25 15 45 11 29 -7 34 0 23 29 -7 19 -56 21 -84 4
-16 -10 -24 -10 -40 0 -22 14 -34 15 -43 5z"></path>
<path d="M3300 3022 c0 -18 -1 -35 -2 -39 -1 -5 7 -10 17 -12 15 -3 17 2 11
30 -9 47 -26 61 -26 21z"></path>
<path d="M3377 3022 c-12 -17 7 -64 29 -74 35 -16 37 -7 12 40 -23 41 -32 49
-41 34z"></path>
<path d="M3290 2898 c0 -42 36 -115 66 -135 32 -20 93 -11 116 17 19 24 18
116 -1 114 -6 -1 -29 -2 -51 -2 -36 -2 -40 -5 -40 -27 0 -21 5 -25 31 -25 33
0 36 -16 6 -34 -13 -8 -24 -7 -45 4 -21 12 -28 24 -30 55 -4 43 -17 65 -38 65
-9 0 -14 -11 -14 -32z"></path>
<path d="M3380 2727 c-112 -29 -114 -42 -16 -96 106 -58 102 -69 -26 -87 -27
-3 -48 -9 -47 -13 0 -3 20 -22 44 -41 24 -19 44 -40 44 -46 1 -6 -17 -19 -39
-29 -30 -14 -40 -24 -40 -42 0 -17 6 -23 23 -23 13 0 46 -12 75 -26 60 -30 74
-28 78 9 2 22 -1 27 -19 27 -33 0 -67 11 -67 21 0 5 16 17 35 26 19 9 35 20
35 24 0 4 -20 19 -45 33 -25 15 -45 31 -45 36 0 13 77 13 85 0 16 -26 25 -4
25 59 0 69 0 70 -27 73 -20 2 -28 9 -28 23 0 16 6 20 33 17 31 -2 32 -1 32 38
0 46 5 46 -110 17z"></path>
<path d="M6105 2870 c-13 -15 -16 -29 -12 -57 5 -27 2 -42 -10 -55 -22 -24 -9
-63 30 -92 l27 -20 21 20 20 21 -25 38 c-26 38 -34 79 -16 90 5 3 16 -8 25
-25 l16 -31 26 37 c23 36 24 40 10 63 -20 34 -35 37 -39 10 -4 -32 -26 -35
-34 -5 -7 31 -15 32 -39 6z m25 -160 c0 -5 -2 -10 -4 -10 -3 0 -8 5 -11 10 -3
6 -1 10 4 10 6 0 11 -4 11 -10z"></path>
<path d="M6051 2626 c-13 -16 3 -72 24 -80 48 -18 74 35 35 74 -23 23 -43 25
-59 6z m47 -35 c3 -8 -1 -12 -9 -9 -7 2 -15 10 -17 17 -3 8 1 12 9 9 7 -2 15
-10 17 -17z"></path>
<path d="M805 2836 c-14 -14 -25 -32 -25 -40 0 -34 76 -58 124 -40 24 9 19 56
-7 75 -43 31 -65 32 -92 5z m75 -36 c0 -5 -6 -10 -14 -10 -8 0 -18 5 -21 10
-3 6 3 10 14 10 12 0 21 -4 21 -10z"></path>
<path d="M790 2741 c0 -6 9 -26 21 -45 27 -46 71 -57 105 -25 23 22 24 22 44
4 27 -24 38 -11 19 23 -18 33 -62 41 -89 17 -17 -15 -20 -14 -43 9 -26 26 -57
35 -57 17z"></path>
<path d="M932 2609 c-10 -16 -19 -19 -43 -14 -37 8 -48 -14 -24 -51 18 -27 41
-27 38 1 -1 13 5 16 23 12 17 -3 29 2 39 17 13 18 18 19 36 8 33 -21 48 2 18
27 -32 27 -71 27 -87 0z"></path>
<path d="M3132 2167 c-19 -20 -21 -29 -13 -77 5 -30 6 -70 4 -88 -4 -25 0 -39
18 -58 30 -32 36 -31 56 11 15 31 21 35 56 35 l39 0 -23 -37 c-12 -21 -38 -55
-57 -75 -46 -49 -34 -61 16 -17 40 35 92 125 92 158 0 10 -9 30 -21 45 -26 33
-49 23 -87 -40 -15 -24 -31 -43 -37 -41 -10 4 -14 159 -5 186 9 23 -15 22 -38
-2z m148 -136 c0 -6 -4 -13 -10 -16 -5 -3 -10 1 -10 9 0 9 5 16 10 16 6 0 10
-4 10 -9z"></path>
<path d="M2790 2065 c0 -8 11 -24 24 -37 21 -20 26 -36 31 -108 4 -46 8 -87
10 -91 3 -3 -2 -15 -10 -25 -11 -15 -16 -17 -26 -6 -20 19 -59 15 -59 -6 0
-29 21 -42 65 -42 67 0 76 13 78 110 2 78 4 85 23 88 35 5 61 78 39 108 -9 12
-20 15 -42 11 -17 -3 -33 -4 -36 0 -3 3 -26 7 -51 9 -35 3 -46 0 -46 -11z
m157 -51 c7 -18 -3 -29 -34 -39 -19 -5 -23 -3 -23 18 0 13 3 27 7 30 12 13 44
7 50 -9z"></path>
<path d="M3034 2055 c-36 -25 -47 -65 -29 -108 21 -51 57 -50 85 3 18 33 15
78 -6 101 -21 23 -24 23 -50 4z m26 -66 c0 -10 -4 -19 -10 -19 -5 0 -10 12
-10 26 0 14 4 23 10 19 6 -3 10 -15 10 -26z"></path>
<path d="M3230 1193 c-24 -9 -50 -35 -50 -49 0 -10 6 -11 26 -4 14 6 30 10 35
10 5 0 9 -34 9 -75 l0 -75 -32 0 c-53 0 -19 -18 48 -25 74 -8 100 3 121 52 17
42 10 98 -17 131 -28 33 -97 51 -140 35z m119 -105 c21 -36 2 -78 -34 -78 -27
0 -31 17 -19 79 8 39 31 38 53 -1z"></path>
<path d="M4336 2304 c-26 -32 -27 -38 -12 -46 12 -7 16 -24 16 -71 0 -55 -3
-63 -22 -72 -13 -6 -30 -25 -38 -42 -17 -37 -35 -38 -36 -2 0 34 -13 51 -31
44 -9 -3 -24 1 -33 10 -15 14 -18 14 -30 0 -14 -17 -40 -20 -40 -5 0 17 -29
11 -39 -8 -7 -13 -7 -22 1 -30 9 -9 8 -18 0 -37 -13 -29 -31 -33 -33 -7 -1 9
-2 22 -4 27 -1 6 -3 20 -3 33 -3 30 -17 28 -63 -9 -28 -22 -39 -38 -39 -57 0
-40 14 -55 40 -47 14 5 25 2 31 -6 6 -10 13 -10 34 -1 42 19 45 15 45 -53 l0
-65 -35 0 c-31 0 -55 -20 -55 -45 0 -10 112 5 126 16 6 5 9 38 7 82 l-4 73 42
33 c42 35 58 32 59 -10 0 -21 32 -49 37 -33 2 6 10 20 19 30 14 18 15 18 30
-3 19 -27 44 -30 45 -5 0 14 3 13 16 -5 17 -26 43 -31 43 -9 0 8 9 24 19 37
l19 24 11 -27 c11 -30 33 -47 39 -30 5 15 32 16 32 2 0 -20 37 -9 63 18 34 35
34 50 0 79 l-28 24 24 -3 c31 -4 38 17 11 32 -49 26 -83 -28 -43 -72 20 -23
12 -33 -16 -19 -13 8 -22 8 -26 1 -11 -18 -25 0 -25 34 0 41 -26 69 -36 40
-30 -84 -45 -102 -58 -68 -3 9 -6 76 -6 150 0 150 -5 159 -54 98z m14 -239 c0
-28 -15 -34 -24 -9 -10 25 -7 34 9 34 9 0 15 -9 15 -25z m-204 -20 c-3 -8 -10
-15 -16 -15 -14 0 -12 37 3 43 15 5 21 -8 13 -28z m-152 -8 c-7 -20 -34 -23
-34 -4 0 19 22 39 32 29 5 -5 6 -16 2 -25z"></path>
<path d="M3813 2137 c-6 -13 -9 -43 -6 -68 4 -36 1 -48 -16 -63 -28 -25 -26
-37 7 -59 15 -9 41 -26 58 -37 29 -19 34 -19 66 -6 19 8 40 22 48 30 11 14 8
16 -22 16 -41 0 -105 40 -98 61 2 8 3 32 2 54 -1 22 -2 52 -2 68 -1 33 -23 36
-37 4z"></path>
<path d="M3674 2052 c-15 -20 -29 -39 -31 -41 -1 -2 -12 4 -24 14 -15 15 -24
17 -37 9 -24 -15 -28 -72 -6 -88 14 -11 15 -14 2 -19 -23 -8 -32 -95 -13 -124
22 -33 38 -29 30 8 l-7 30 39 -7 c21 -4 50 -13 64 -20 32 -16 39 -10 39 33 l0
33 -71 0 c-68 0 -70 1 -63 23 4 12 12 26 18 30 11 8 58 4 87 -8 12 -4 18 1 21
19 6 32 2 36 -34 36 -36 0 -35 9 2 45 17 16 30 34 30 41 0 28 -19 22 -46 -14z
m-64 -57 c0 -8 -9 -15 -20 -15 -20 0 -26 11 -13 23 12 13 33 7 33 -8z"></path>
<path d="M3556 1368 c-9 -13 -16 -43 -16 -71 0 -43 2 -48 18 -42 42 18 95 15
155 -10 15 -6 17 -1 17 44 0 52 0 52 -22 37 -36 -25 -65 -20 -73 11 -14 56
-51 71 -79 31z m52 -51 c2 -10 -3 -17 -12 -17 -18 0 -29 16 -21 31 9 14 29 6
33 -14z"></path>
<path d="M1196 2017 c-27 -20 -18 -69 15 -81 37 -13 83 11 87 46 3 23 -2 28
-35 37 -48 14 -46 14 -67 -2z m54 -48 c0 -5 -7 -9 -15 -9 -15 0 -20 12 -9 23
8 8 24 -1 24 -14z"></path>
<path d="M1318 1943 c-8 -10 -18 -26 -21 -35 -4 -13 -17 -18 -42 -18 -19 0
-35 -3 -35 -8 0 -10 31 -55 44 -64 19 -13 38 4 32 28 -6 21 -3 24 23 24 23 0
30 5 33 23 2 17 9 22 31 20 32 -2 37 21 8 37 -29 15 -56 12 -73 -7z"></path>
<path d="M1387 1853 c-4 -3 -7 -17 -7 -30 0 -19 -5 -23 -28 -23 -16 0 -36 -6
-45 -13 -16 -11 -16 -14 -2 -35 9 -12 27 -22 41 -22 24 0 32 14 14 25 -20 12
-9 25 20 25 23 0 30 4 30 20 0 26 22 35 49 20 16 -8 21 -8 21 3 0 7 -5 18 -12
25 -13 13 -70 17 -81 5z"></path>
<path d="M1838 1323 c-26 -31 -29 -41 -17 -67 17 -37 61 -35 100 3 32 32 38
65 13 75 -31 12 -81 6 -96 -11z m70 -35 c-3 -7 -14 -14 -26 -16 -16 -3 -20 1
-16 12 7 19 48 22 42 4z"></path>
<path d="M1950 1225 c-24 -24 -42 -46 -40 -48 3 -2 17 -7 31 -10 21 -5 33 1
69 38 24 25 42 47 39 49 -2 2 -15 7 -29 10 -20 5 -34 -3 -70 -39z"></path>
<path d="M2072 1224 c-14 -10 -22 -25 -22 -45 0 -24 -6 -32 -30 -40 -16 -6
-30 -14 -30 -18 0 -10 76 -71 88 -71 9 0 22 23 22 40 0 4 -9 10 -21 13 -23 6
-17 27 7 27 12 0 14 7 9 29 -7 32 8 44 44 34 26 -7 27 8 3 30 -23 21 -41 21
-70 1z"></path>
<path d="M4760 1092 c-47 -30 -70 -55 -70 -79 0 -24 14 -31 25 -13 3 5 15 15
26 21 19 10 20 8 18 -23 -4 -42 6 -58 36 -58 47 0 55 9 55 61 0 52 -9 62 -25
27 -19 -42 -34 -32 -37 25 l-3 55 -25 -16z"></path>
<path d="M4630 1014 c-13 -33 -13 -37 5 -70 15 -28 14 -30 -16 -56 -42 -35
-35 -62 12 -45 23 9 37 24 51 57 19 45 19 45 -1 61 -13 11 -21 29 -21 48 0 38
-17 41 -30 5z"></path>
<path d="M4493 945 c-22 -47 -9 -89 29 -93 52 -6 74 70 32 112 -24 25 -43 19
-61 -19z m47 -36 c0 -18 -2 -19 -15 -9 -15 12 -12 30 6 30 5 0 9 -10 9 -21z"></path>
<path d="M3720 790 c-12 -24 -32 -57 -43 -72 -24 -33 -18 -43 36 -52 34 -6 38
-5 47 19 11 30 6 45 -16 45 -17 0 -17 7 -3 48 18 52 4 60 -21 12z"></path>
<path d="M3785 807 c-8 -4 -20 -17 -26 -28 -10 -20 -9 -21 22 -14 29 6 31 5
24 -11 -20 -50 -18 -53 30 -74 26 -11 49 -19 50 -18 10 13 25 50 25 62 0 12
-7 14 -30 10 -34 -7 -38 2 -15 45 l14 29 -39 4 c-22 2 -47 0 -55 -5z"></path>
<path d="M3575 770 l-27 -39 22 -36 c24 -39 54 -46 70 -16 21 40 5 131 -23
131 -8 0 -27 -18 -42 -40z m45 -35 c0 -8 -4 -15 -9 -15 -13 0 -22 16 -14 24
11 11 23 6 23 -9z"></path>
<path d="M510 6570 c0 -5 5 -10 10 -10 6 0 10 5 10 10 0 6 -4 10 -10 10 -5 0
-10 -4 -10 -10z"></path>
<path d="M0 6436 c0 -15 37 -32 48 -22 6 6 -27 35 -40 36 -5 0 -8 -6 -8 -14z"></path>
<path d="M105 6440 c-3 -5 1 -10 9 -10 9 0 16 5 16 10 0 6 -4 10 -9 10 -6 0
-13 -4 -16 -10z"></path>
<path d="M0 6365 c0 -8 7 -15 15 -15 8 0 15 7 15 15 0 8 -7 15 -15 15 -8 0
-15 -7 -15 -15z"></path>
<path d="M0 6291 c0 -12 5 -21 10 -21 6 0 10 6 10 14 0 8 -4 18 -10 21 -5 3
-10 -3 -10 -14z"></path>
<path d="M160 6259 c0 -5 5 -7 10 -4 6 3 10 8 10 11 0 2 -4 4 -10 4 -5 0 -10
-5 -10 -11z"></path>
<path d="M10 6246 c0 -9 5 -16 10 -16 6 0 10 4 10 9 0 6 -4 13 -10 16 -5 3
-10 -1 -10 -9z"></path>
<path d="M50 735 c0 -8 5 -15 10 -15 6 0 10 7 10 15 0 8 -4 15 -10 15 -5 0
-10 -7 -10 -15z"></path>
</g>
</svg>